<?xml version="1.0" encoding="utf-8"?>
<svg xmlns="http://www.w3.org/2000/svg" width="500" height="500"
     xmlns:xlink="http://www.w3.org/1999/xlink">
  <!-- created with "../banners/trimesh.py -min 100 -num 100 -width 500 -height 500 -colors 200,200,A8B1D1,200,300,6B7186,300,200,9290D1,300,300,9290D1 -opacity 0.2 -pow .5" -->
   
<g>
<path d="M 500 0 L 155.107849914 4.36496009361 L 0 0 z" fill="#8f93bd" stroke="#abaece" opacity="0.296"/>
<path d="M 0 500 L 486.88564706 499.997841547 L 500 500 z" fill="#8d8ec1" stroke="#a9aad0" opacity="0.262"/>
<path d="M 178.699758452 499.940981986 L 486.88564706 499.997841547 L 0 500 z" fill="#8a8db7" stroke="#a7a9c9" opacity="0.282"/>
<path d="M 217.183604948 278.736991533 L 235.002479447 389.06128249 L 159.338723109 402.148398514 z" fill="#8287a9" stroke="#a1a5bf" opacity="1.000"/>
<path d="M 217.183604948 278.736991533 L 139.28592582 184.241340688 L 283.630208942 235.934476304 z" fill="#9095bc" stroke="#acb0cd" opacity="1.000"/>
<path d="M 304.652542957 100.89822975 L 190.474298118 112.262109997 L 218.619908156 42.233546933 z" fill="#9094c0" stroke="#acaed0" opacity="0.351"/>
<path d="M 499.997900614 387.915058743 L 500 0 L 500 500 z" fill="#8a8cbc" stroke="#a7a8cc" opacity="0.383"/>
<path d="M 499.997900614 387.915058743 L 499.883147516 312.268270909 L 500 0 z" fill="#8f91c2" stroke="#abadd1" opacity="0.252"/>
<path d="M 2.34898854651 329.409667987 L 33.1784458724 359.830654529 L 15.9444854299 388.447550259 z" fill="#898cb7" stroke="#a6a9c9" opacity="0.222"/>
<path d="M 318.821610182 39.2996856577 L 304.652542957 100.89822975 L 218.619908156 42.233546933 z" fill="#9092c4" stroke="#acadd3" opacity="0.381"/>
<path d="M 318.821610182 39.2996856577 L 323.966742112 39.0842441687 L 304.652542957 100.89822975 z" fill="#9091c6" stroke="#acadd4" opacity="0.400"/>
<path d="M 155.107849914 4.36496009361 L 318.821610182 39.2996856577 L 218.619908156 42.233546933 z" fill="#9093bf" stroke="#abaecf" opacity="0.288"/>
<path d="M 431.860856034 3.71584773069 L 155.107849914 4.36496009361 L 500 0 z" fill="#8f91c3" stroke="#abadd2" opacity="0.208"/>
<path d="M 122.498536772 245.044232239 L 217.183604948 278.736991533 L 159.338723109 402.148398514 z" fill="#7f84a7" stroke="#9fa2bd" opacity="1.000"/>
<path d="M 217.183604948 278.736991533 L 122.498536772 245.044232239 L 139.28592582 184.241340688 z" fill="#8f93bb" stroke="#abaecc" opacity="0.655"/>
<path d="M 139.28592582 184.241340688 L 173.222078886 124.883826823 L 283.630208942 235.934476304 z" fill="#9ba2c6" stroke="#b4b9d4" opacity="1.000"/>
<path d="M 173.222078886 124.883826823 L 190.474298118 112.262109997 L 283.630208942 235.934476304 z" fill="#9499c1" stroke="#afb2d1" opacity="0.911"/>
<path d="M 190.474298118 112.262109997 L 144.726461619 88.5330970403 L 218.619908156 42.233546933 z" fill="#9095bd" stroke="#acafcd" opacity="0.455"/>
<path d="M 173.222078886 124.883826823 L 144.726461619 88.5330970403 L 190.474298118 112.262109997 z" fill="#9195be" stroke="#acb0ce" opacity="0.439"/>
<path d="M 155.107849914 4.36496009361 L 63.9604355599 4.00747554568 L 0 0 z" fill="#8f92be" stroke="#abadce" opacity="0.156"/>
<path d="M 2.34898854651 329.409667987 L 0.0456631582066 192.081930178 L 4.35439146303 276.558936617 z" fill="#8b8eb9" stroke="#a8aaca" opacity="0.253"/>
<path d="M 4.35439146303 276.558936617 L 0.0456631582066 192.081930178 L 41.3686692928 275.01549403 z" fill="#8d90bb" stroke="#a9accc" opacity="0.238"/>
<path d="M 0.0456631582066 192.081930178 L 0 500 L 0 0 z" fill="#8f92be" stroke="#abadce" opacity="0.258"/>
<path d="M 0.0456631582066 192.081930178 L 2.34898854651 329.409667987 L 0 500 z" fill="#898cb6" stroke="#a6a9c8" opacity="0.238"/>
<path d="M 452.620590304 234.267328129 L 408.257550161 160.772394581 L 485.337326223 224.927348227 z" fill="#9294c6" stroke="#adafd4" opacity="0.458"/>
<path d="M 499.883147516 312.268270909 L 452.620590304 234.267328129 L 485.337326223 224.927348227 z" fill="#8d8fc0" stroke="#aaabd0" opacity="0.252"/>
<path d="M 442.879362566 318.562046109 L 452.620590304 234.267328129 L 499.883147516 312.268270909 z" fill="#8b8cbd" stroke="#a8a9cd" opacity="0.378"/>
<path d="M 12.1777673249 291.637485692 L 4.35439146303 276.558936617 L 41.3686692928 275.01549403 z" fill="#898cb6" stroke="#a6a9c8" opacity="0.316"/>
<path d="M 12.1777673249 291.637485692 L 2.34898854651 329.409667987 L 4.35439146303 276.558936617 z" fill="#8588b1" stroke="#a3a5c4" opacity="0.456"/>
<path d="M 2.34898854651 329.409667987 L 4.25343185469 411.388316767 L 0 500 z" fill="#8a8db9" stroke="#a7aaca" opacity="0.164"/>
<path d="M 4.25343185469 411.388316767 L 2.34898854651 329.409667987 L 15.9444854299 388.447550259 z" fill="#8a8db8" stroke="#a7a9c9" opacity="0.196"/>
<path d="M 4.25343185469 411.388316767 L 9.98684247885 499.175947461 L 0 500 z" fill="#8b8eb9" stroke="#a8aacb" opacity="0.137"/>
<path d="M 33.1784458724 359.830654529 L 53.9417287444 450.931231981 L 15.9444854299 388.447550259 z" fill="#8a8db8" stroke="#a7a9c9" opacity="0.191"/>
<path d="M 53.9417287444 450.931231981 L 4.25343185469 411.388316767 L 15.9444854299 388.447550259 z" fill="#8a8db8" stroke="#a7aaca" opacity="0.173"/>
<path d="M 9.98684247885 499.175947461 L 53.9417287444 450.931231981 L 61.8572315235 461.102905877 z" fill="#8b8eb9" stroke="#a8aaca" opacity="0.152"/>
<path d="M 4.25343185469 411.388316767 L 53.9417287444 450.931231981 L 9.98684247885 499.175947461 z" fill="#8b8eb9" stroke="#a8aaca" opacity="0.151"/>
<path d="M 102.939253468 498.773252315 L 178.699758452 499.940981986 L 0 500 z" fill="#8b8eb8" stroke="#a8aaca" opacity="0.168"/>
<path d="M 9.98684247885 499.175947461 L 102.939253468 498.773252315 L 0 500 z" fill="#8b8eb9" stroke="#a8aacb" opacity="0.139"/>
<path d="M 235.002479447 389.06128249 L 229.81617819 400.108991373 L 159.338723109 402.148398514 z" fill="#868ab0" stroke="#a4a7c3" opacity="0.621"/>
<path d="M 229.81617819 400.108991373 L 191.849123298 485.272842776 L 159.338723109 402.148398514 z" fill="#878bb0" stroke="#a5a8c4" opacity="0.519"/>
<path d="M 151.304281839 489.650774549 L 191.849123298 485.272842776 L 178.699758452 499.940981986 z" fill="#898db5" stroke="#a6a9c8" opacity="0.279"/>
<path d="M 191.849123298 485.272842776 L 195.260291846 499.657537487 L 178.699758452 499.940981986 z" fill="#898db4" stroke="#a6a9c6" opacity="0.333"/>
<path d="M 195.260291846 499.657537487 L 306.652340934 478.769705019 L 313.467296008 482.891905579 z" fill="#8c8ebe" stroke="#a9aace" opacity="0.277"/>
<path d="M 306.652340934 478.769705019 L 195.260291846 499.657537487 L 284.772635765 465.432464362 z" fill="#8c8ebd" stroke="#a8aacd" opacity="0.260"/>
<path d="M 195.260291846 499.657537487 L 191.849123298 485.272842776 L 284.772635765 465.432464362 z" fill="#8a8db7" stroke="#a7a9c9" opacity="0.294"/>
<path d="M 195.260291846 499.657537487 L 313.467296008 482.891905579 L 348.777149884 496.566813717 z" fill="#8d8ec1" stroke="#a9aad0" opacity="0.321"/>
<path d="M 486.88564706 499.997841547 L 195.260291846 499.657537487 L 348.777149884 496.566813717 z" fill="#8d8ec0" stroke="#a9aad0" opacity="0.233"/>
<path d="M 178.699758452 499.940981986 L 195.260291846 499.657537487 L 486.88564706 499.997841547 z" fill="#8d8ec1" stroke="#a9aad0" opacity="0.317"/>
<path d="M 499.600055397 29.3415941937 L 431.860856034 3.71584773069 L 500 0 z" fill="#8f91c2" stroke="#abadd1" opacity="0.137"/>
<path d="M 499.600055397 29.3415941937 L 456.831082148 107.30442741 L 440.255696109 72.7562915455 z" fill="#8f92c2" stroke="#abadd1" opacity="0.170"/>
<path d="M 456.831082148 107.30442741 L 499.600055397 29.3415941937 L 495.914368093 119.178821496 z" fill="#9092c2" stroke="#abadd1" opacity="0.170"/>
<path d="M 393.102488143 19.275506106 L 412.297065462 47.2283946739 L 323.966742112 39.0842441687 z" fill="#9092c3" stroke="#abadd2" opacity="0.215"/>
<path d="M 412.297065462 47.2283946739 L 393.102488143 19.275506106 L 431.860856034 3.71584773069 z" fill="#8f91c2" stroke="#abadd1" opacity="0.175"/>
<path d="M 318.821610182 39.2996856577 L 393.102488143 19.275506106 L 323.966742112 39.0842441687 z" fill="#9091c4" stroke="#abadd2" opacity="0.258"/>
<path d="M 393.102488143 19.275506106 L 318.821610182 39.2996856577 L 155.107849914 4.36496009361 z" fill="#9091c5" stroke="#acadd3" opacity="0.359"/>
<path d="M 431.860856034 3.71584773069 L 393.102488143 19.275506106 L 155.107849914 4.36496009361 z" fill="#9091c4" stroke="#abadd3" opacity="0.278"/>
<path d="M 435.534894979 41.059774629 L 412.297065462 47.2283946739 L 431.860856034 3.71584773069 z" fill="#8f92c2" stroke="#abadd1" opacity="0.170"/>
<path d="M 435.534894979 41.059774629 L 499.600055397 29.3415941937 L 440.255696109 72.7562915455 z" fill="#8f92c2" stroke="#abadd1" opacity="0.161"/>
<path d="M 499.600055397 29.3415941937 L 435.534894979 41.059774629 L 431.860856034 3.71584773069 z" fill="#8f91c2" stroke="#abadd1" opacity="0.151"/>
<path d="M 310.084474577 146.603811663 L 378.053666394 235.732784036 L 283.630208942 235.934476304 z" fill="#9293cb" stroke="#adaed8" opacity="1.000"/>
<path d="M 378.053666394 235.732784036 L 310.084474577 146.603811663 L 408.257550161 160.772394581 z" fill="#9293c7" stroke="#adaed5" opacity="0.646"/>
<path d="M 452.620590304 234.267328129 L 378.053666394 235.732784036 L 408.257550161 160.772394581 z" fill="#9294c6" stroke="#adaed4" opacity="0.523"/>
<path d="M 378.053666394 235.732784036 L 452.620590304 234.267328129 L 380.43693582 283.310983916 z" fill="#8e90c2" stroke="#aaabd1" opacity="0.339"/>
<path d="M 310.084474577 146.603811663 L 371.887835387 126.168202695 L 408.257550161 160.772394581 z" fill="#9193c5" stroke="#acaed4" opacity="0.421"/>
<path d="M 323.966742112 39.0842441687 L 371.887835387 126.168202695 L 304.652542957 100.89822975 z" fill="#9092c5" stroke="#acadd3" opacity="0.375"/>
<path d="M 412.297065462 47.2283946739 L 371.887835387 126.168202695 L 323.966742112 39.0842441687 z" fill="#9092c4" stroke="#acadd2" opacity="0.258"/>
<path d="M 371.887835387 126.168202695 L 412.297065462 47.2283946739 L 440.255696109 72.7562915455 z" fill="#9092c3" stroke="#abadd2" opacity="0.221"/>
<path d="M 456.831082148 107.30442741 L 371.887835387 126.168202695 L 440.255696109 72.7562915455 z" fill="#9092c3" stroke="#acadd2" opacity="0.227"/>
<path d="M 371.887835387 126.168202695 L 456.831082148 107.30442741 L 408.257550161 160.772394581 z" fill="#9092c4" stroke="#acadd3" opacity="0.281"/>
<path d="M 303.979056504 136.594622471 L 190.474298118 112.262109997 L 304.652542957 100.89822975 z" fill="#9193c4" stroke="#acaed3" opacity="0.448"/>
<path d="M 371.887835387 126.168202695 L 303.979056504 136.594622471 L 304.652542957 100.89822975 z" fill="#9192c6" stroke="#acadd4" opacity="0.506"/>
<path d="M 303.979056504 136.594622471 L 371.887835387 126.168202695 L 310.084474577 146.603811663 z" fill="#9192c7" stroke="#acadd5" opacity="0.563"/>
<path d="M 190.474298118 112.262109997 L 303.979056504 136.594622471 L 283.630208942 235.934476304 z" fill="#9295c5" stroke="#adafd3" opacity="0.633"/>
<path d="M 303.979056504 136.594622471 L 310.084474577 146.603811663 L 283.630208942 235.934476304 z" fill="#9291cc" stroke="#adadd9" opacity="1.000"/>
<path d="M 33.1784458724 359.830654529 L 53.5893276961 287.170134231 L 159.338723109 402.148398514 z" fill="#888bb5" stroke="#a6a8c7" opacity="0.312"/>
<path d="M 53.5893276961 287.170134231 L 33.1784458724 359.830654529 L 2.34898854651 329.409667987 z" fill="#888bb5" stroke="#a5a8c7" opacity="0.305"/>
<path d="M 12.1777673249 291.637485692 L 53.5893276961 287.170134231 L 2.34898854651 329.409667987 z" fill="#8588b1" stroke="#a3a6c4" opacity="0.446"/>
<path d="M 94.8784459333 114.052019312 L 173.222078886 124.883826823 L 139.28592582 184.241340688 z" fill="#9195bf" stroke="#adb0cf" opacity="0.406"/>
<path d="M 94.8784459333 114.052019312 L 144.726461619 88.5330970403 L 173.222078886 124.883826823 z" fill="#9094bf" stroke="#acafcf" opacity="0.329"/>
<path d="M 94.8784459333 114.052019312 L 93.6397633012 90.9788883183 L 144.726461619 88.5330970403 z" fill="#9094be" stroke="#acaece" opacity="0.262"/>
<path d="M 122.498536772 245.044232239 L 120.849834343 199.77083231 L 139.28592582 184.241340688 z" fill="#9499c2" stroke="#afb2d1" opacity="0.740"/>
<path d="M 407.614958023 490.4559713 L 486.88564706 499.997841547 L 348.777149884 496.566813717 z" fill="#8c8ebf" stroke="#a9aacf" opacity="0.164"/>
<path d="M 486.88564706 499.997841547 L 495.910687762 479.875250016 L 500 500 z" fill="#8c8fbe" stroke="#a9abce" opacity="0.129"/>
<path d="M 495.910687762 479.875250016 L 499.997900614 387.915058743 L 500 500 z" fill="#8c8ebe" stroke="#a9aace" opacity="0.142"/>
<path d="M 499.997900614 387.915058743 L 480.463783682 380.340487964 L 499.883147516 312.268270909 z" fill="#8b8dbd" stroke="#a8aace" opacity="0.213"/>
<path d="M 480.463783682 380.340487964 L 442.879362566 318.562046109 L 499.883147516 312.268270909 z" fill="#8b8dbd" stroke="#a8a9cd" opacity="0.269"/>
<path d="M 452.620590304 234.267328129 L 412.735977983 311.347207123 L 380.43693582 283.310983916 z" fill="#8c8ebf" stroke="#a9aacf" opacity="0.411"/>
<path d="M 412.735977983 311.347207123 L 452.620590304 234.267328129 L 442.879362566 318.562046109 z" fill="#8b8cbd" stroke="#a8a9ce" opacity="0.437"/>
<path d="M 412.735977983 311.347207123 L 442.879362566 318.562046109 L 451.636100227 419.343812056 z" fill="#8b8dbe" stroke="#a8aace" opacity="0.286"/>
<path d="M 347.342921272 399.235927834 L 412.735977983 311.347207123 L 451.636100227 419.343812056 z" fill="#8c8ebe" stroke="#a8aace" opacity="0.279"/>
<path d="M 126.180715259 443.521531821 L 33.1784458724 359.830654529 L 159.338723109 402.148398514 z" fill="#898db6" stroke="#a6a9c8" opacity="0.256"/>
<path d="M 126.180715259 443.521531821 L 53.9417287444 450.931231981 L 33.1784458724 359.830654529 z" fill="#8a8db8" stroke="#a7a9c9" opacity="0.203"/>
<path d="M 126.180715259 443.521531821 L 127.770168065 459.283133987 L 61.8572315235 461.102905877 z" fill="#8a8db7" stroke="#a7aac9" opacity="0.203"/>
<path d="M 53.9417287444 450.931231981 L 126.180715259 443.521531821 L 61.8572315235 461.102905877 z" fill="#8a8db8" stroke="#a7aaca" opacity="0.185"/>
<path d="M 127.770168065 459.283133987 L 97.9720150218 496.196064605 L 61.8572315235 461.102905877 z" fill="#8a8eb8" stroke="#a7aaca" opacity="0.184"/>
<path d="M 102.939253468 498.773252315 L 97.9720150218 496.196064605 L 127.770168065 459.283133987 z" fill="#8a8eb8" stroke="#a7aaca" opacity="0.187"/>
<path d="M 97.9720150218 496.196064605 L 9.98684247885 499.175947461 L 61.8572315235 461.102905877 z" fill="#8b8eb9" stroke="#a8aaca" opacity="0.153"/>
<path d="M 97.9720150218 496.196064605 L 102.939253468 498.773252315 L 9.98684247885 499.175947461 z" fill="#8b8eb9" stroke="#a8aaca" opacity="0.154"/>
<path d="M 191.849123298 485.272842776 L 248.994734274 423.243795706 L 284.772635765 465.432464362 z" fill="#8a8db9" stroke="#a7aacb" opacity="0.276"/>
<path d="M 229.81617819 400.108991373 L 248.994734274 423.243795706 L 191.849123298 485.272842776 z" fill="#898cb6" stroke="#a6a9c8" opacity="0.366"/>
<path d="M 248.994734274 423.243795706 L 229.81617819 400.108991373 L 235.002479447 389.06128249 z" fill="#898cb8" stroke="#a7a9c9" opacity="0.373"/>
<path d="M 248.994734274 423.243795706 L 347.342921272 399.235927834 L 284.772635765 465.432464362 z" fill="#8d8ec3" stroke="#aaaad2" opacity="0.519"/>
<path d="M 347.342921272 399.235927834 L 248.994734274 423.243795706 L 235.002479447 389.06128249 z" fill="#8c8dbf" stroke="#a9aacf" opacity="0.446"/>
<path d="M 142.492148111 456.704300601 L 151.304281839 489.650774549 L 127.770168065 459.283133987 z" fill="#8a8db7" stroke="#a7aac9" opacity="0.233"/>
<path d="M 151.304281839 489.650774549 L 142.492148111 456.704300601 L 191.849123298 485.272842776 z" fill="#898db6" stroke="#a7a9c8" opacity="0.263"/>
<path d="M 126.180715259 443.521531821 L 142.492148111 456.704300601 L 127.770168065 459.283133987 z" fill="#8a8db7" stroke="#a7a9c9" opacity="0.235"/>
<path d="M 191.849123298 485.272842776 L 142.492148111 456.704300601 L 159.338723109 402.148398514 z" fill="#898db5" stroke="#a6a9c7" opacity="0.305"/>
<path d="M 142.492148111 456.704300601 L 126.180715259 443.521531821 L 159.338723109 402.148398514 z" fill="#898db6" stroke="#a6a9c8" opacity="0.273"/>
<path d="M 127.327082469 497.831857277 L 102.939253468 498.773252315 L 127.770168065 459.283133987 z" fill="#8a8eb8" stroke="#a7aac9" opacity="0.196"/>
<path d="M 151.304281839 489.650774549 L 127.327082469 497.831857277 L 127.770168065 459.283133987 z" fill="#8a8db7" stroke="#a7aac9" opacity="0.216"/>
<path d="M 102.939253468 498.773252315 L 127.327082469 497.831857277 L 178.699758452 499.940981986 z" fill="#8a8eb7" stroke="#a7aac9" opacity="0.205"/>
<path d="M 127.327082469 497.831857277 L 151.304281839 489.650774549 L 178.699758452 499.940981986 z" fill="#8a8db7" stroke="#a7aac9" opacity="0.229"/>
<path d="M 499.600055397 29.3415941937 L 499.118481346 147.878388414 L 495.914368093 119.178821496 z" fill="#9092c2" stroke="#abadd1" opacity="0.172"/>
<path d="M 499.118481346 147.878388414 L 499.883147516 312.268270909 L 485.337326223 224.927348227 z" fill="#9092c3" stroke="#abadd2" opacity="0.269"/>
<path d="M 499.883147516 312.268270909 L 499.118481346 147.878388414 L 500 0 z" fill="#9093c3" stroke="#acaed2" opacity="0.228"/>
<path d="M 499.118481346 147.878388414 L 499.600055397 29.3415941937 L 500 0 z" fill="#8f92c2" stroke="#abadd1" opacity="0.148"/>
<path d="M 412.297065462 47.2283946739 L 431.826984421 49.9697008642 L 440.255696109 72.7562915455 z" fill="#8f92c2" stroke="#abadd1" opacity="0.184"/>
<path d="M 431.826984421 49.9697008642 L 435.534894979 41.059774629 L 440.255696109 72.7562915455 z" fill="#8f92c2" stroke="#abadd1" opacity="0.178"/>
<path d="M 435.534894979 41.059774629 L 431.826984421 49.9697008642 L 412.297065462 47.2283946739 z" fill="#8f92c2" stroke="#abadd1" opacity="0.179"/>
<path d="M 49.6586275327 284.577726394 L 12.1777673249 291.637485692 L 41.3686692928 275.01549403 z" fill="#888bb5" stroke="#a6a8c7" opacity="0.350"/>
<path d="M 49.6586275327 284.577726394 L 53.5893276961 287.170134231 L 12.1777673249 291.637485692 z" fill="#878ab4" stroke="#a5a7c7" opacity="0.381"/>
<path d="M 97.903498685 250.266830133 L 122.498536772 245.044232239 L 159.338723109 402.148398514 z" fill="#8084a9" stroke="#a0a2be" opacity="1.000"/>
<path d="M 53.5893276961 287.170134231 L 97.903498685 250.266830133 L 159.338723109 402.148398514 z" fill="#8588b0" stroke="#a3a6c4" opacity="0.553"/>
<path d="M 97.903498685 250.266830133 L 120.849834343 199.77083231 L 122.498536772 245.044232239 z" fill="#8f93bd" stroke="#abaecd" opacity="0.449"/>
<path d="M 93.6397633012 90.9788883183 L 108.389692053 69.9760786465 L 144.726461619 88.5330970403 z" fill="#9093be" stroke="#abaece" opacity="0.250"/>
<path d="M 24.0398287165 151.94761383 L 0.0456631582066 192.081930178 L 10.9212228067 81.3501027604 z" fill="#9094c0" stroke="#acaecf" opacity="0.219"/>
<path d="M 94.8784459333 114.052019312 L 66.5665082671 81.4073119022 L 93.6397633012 90.9788883183 z" fill="#9093bf" stroke="#abaecf" opacity="0.228"/>
<path d="M 19.0636957737 48.7110076527 L 66.5665082671 81.4073119022 L 10.9212228067 81.3501027604 z" fill="#8f93be" stroke="#abaece" opacity="0.169"/>
<path d="M 66.5665082671 81.4073119022 L 24.0398287165 151.94761383 L 10.9212228067 81.3501027604 z" fill="#9093bf" stroke="#abaecf" opacity="0.195"/>
<path d="M 24.0398287165 151.94761383 L 66.5665082671 81.4073119022 L 94.8784459333 114.052019312 z" fill="#9094bf" stroke="#acaecf" opacity="0.228"/>
<path d="M 66.5665082671 81.4073119022 L 108.389692053 69.9760786465 L 93.6397633012 90.9788883183 z" fill="#8f93be" stroke="#abaece" opacity="0.218"/>
<path d="M 19.0636957737 48.7110076527 L 2.96788861923 63.6256747028 L 0 0 z" fill="#8f92be" stroke="#abadce" opacity="0.141"/>
<path d="M 2.96788861923 63.6256747028 L 19.0636957737 48.7110076527 L 10.9212228067 81.3501027604 z" fill="#8f92be" stroke="#abadce" opacity="0.155"/>
<path d="M 2.96788861923 63.6256747028 L 0.0456631582066 192.081930178 L 0 0 z" fill="#8f93bf" stroke="#abaecf" opacity="0.162"/>
<path d="M 0.0456631582066 192.081930178 L 2.96788861923 63.6256747028 L 10.9212228067 81.3501027604 z" fill="#9093bf" stroke="#abaecf" opacity="0.184"/>
<path d="M 63.9604355599 4.00747554568 L 44.8419974289 9.57914939201 L 0 0 z" fill="#8f92be" stroke="#abadce" opacity="0.139"/>
<path d="M 44.8419974289 9.57914939201 L 19.0636957737 48.7110076527 L 0 0 z" fill="#8f92be" stroke="#abadce" opacity="0.139"/>
<path d="M 306.652340934 478.769705019 L 341.384729286 453.069814656 L 313.467296008 482.891905579 z" fill="#8d8ec1" stroke="#a9aad1" opacity="0.322"/>
<path d="M 341.384729286 453.069814656 L 306.652340934 478.769705019 L 284.772635765 465.432464362 z" fill="#8d8ec2" stroke="#aaaad1" opacity="0.382"/>
<path d="M 347.342921272 399.235927834 L 341.384729286 453.069814656 L 284.772635765 465.432464362 z" fill="#8d8ec1" stroke="#a9aad0" opacity="0.356"/>
<path d="M 324.293748557 336.295538043 L 347.342921272 399.235927834 L 235.002479447 389.06128249 z" fill="#8e8ec5" stroke="#aaaad4" opacity="0.973"/>
<path d="M 324.293748557 336.295538043 L 217.183604948 278.736991533 L 283.630208942 235.934476304 z" fill="#8b8cbf" stroke="#a8a9cf" opacity="1.000"/>
<path d="M 217.183604948 278.736991533 L 324.293748557 336.295538043 L 235.002479447 389.06128249 z" fill="#898bba" stroke="#a6a8cb" opacity="0.660"/>
<path d="M 442.879362566 318.562046109 L 465.193502755 406.416508067 L 451.636100227 419.343812056 z" fill="#8c8ebe" stroke="#a8aace" opacity="0.218"/>
<path d="M 480.463783682 380.340487964 L 465.193502755 406.416508067 L 442.879362566 318.562046109 z" fill="#8c8ebe" stroke="#a8aace" opacity="0.226"/>
<path d="M 465.193502755 406.416508067 L 480.463783682 380.340487964 L 499.997900614 387.915058743 z" fill="#8c8ebe" stroke="#a8aace" opacity="0.188"/>
<path d="M 465.193502755 406.416508067 L 460.450583162 451.471056457 L 451.636100227 419.343812056 z" fill="#8c8ebe" stroke="#a9aace" opacity="0.176"/>
<path d="M 491.957008258 141.632876588 L 456.831082148 107.30442741 L 495.914368093 119.178821496 z" fill="#9092c3" stroke="#acadd2" opacity="0.202"/>
<path d="M 499.118481346 147.878388414 L 491.957008258 141.632876588 L 495.914368093 119.178821496 z" fill="#9092c3" stroke="#acadd2" opacity="0.207"/>
<path d="M 456.831082148 107.30442741 L 491.957008258 141.632876588 L 408.257550161 160.772394581 z" fill="#9092c3" stroke="#acadd2" opacity="0.242"/>
<path d="M 408.257550161 160.772394581 L 491.957008258 141.632876588 L 485.337326223 224.927348227 z" fill="#9193c5" stroke="#adaed3" opacity="0.321"/>
<path d="M 491.957008258 141.632876588 L 499.118481346 147.878388414 L 485.337326223 224.927348227 z" fill="#9193c4" stroke="#acaed3" opacity="0.271"/>
<path d="M 0.0456631582066 192.081930178 L 68.0669420088 250.065203996 L 41.3686692928 275.01549403 z" fill="#8e92bc" stroke="#aaadcd" opacity="0.276"/>
<path d="M 68.0669420088 250.065203996 L 49.6586275327 284.577726394 L 41.3686692928 275.01549403 z" fill="#8a8db7" stroke="#a7aac9" opacity="0.322"/>
<path d="M 49.6586275327 284.577726394 L 68.0669420088 250.065203996 L 53.5893276961 287.170134231 z" fill="#898db6" stroke="#a7a9c8" opacity="0.344"/>
<path d="M 68.0669420088 250.065203996 L 97.903498685 250.266830133 L 53.5893276961 287.170134231 z" fill="#8b8eb8" stroke="#a8aaca" opacity="0.331"/>
<path d="M 108.389692053 69.9760786465 L 137.426218094 50.8570947205 L 144.726461619 88.5330970403 z" fill="#9093be" stroke="#abaece" opacity="0.256"/>
<path d="M 137.426218094 50.8570947205 L 155.107849914 4.36496009361 L 218.619908156 42.233546933 z" fill="#8f94bd" stroke="#abaecd" opacity="0.296"/>
<path d="M 144.726461619 88.5330970403 L 137.426218094 50.8570947205 L 218.619908156 42.233546933 z" fill="#9094bd" stroke="#abafce" opacity="0.324"/>
<path d="M 80.1262577564 189.630903351 L 94.8784459333 114.052019312 L 139.28592582 184.241340688 z" fill="#9296c0" stroke="#adb0d0" opacity="0.397"/>
<path d="M 120.849834343 199.77083231 L 80.1262577564 189.630903351 L 139.28592582 184.241340688 z" fill="#9599c3" stroke="#afb2d2" opacity="0.664"/>
<path d="M 97.903498685 250.266830133 L 80.1262577564 189.630903351 L 120.849834343 199.77083231 z" fill="#9397c1" stroke="#aeb1d0" opacity="0.536"/>
<path d="M 68.0669420088 250.065203996 L 80.1262577564 189.630903351 L 97.903498685 250.266830133 z" fill="#8f93be" stroke="#abaece" opacity="0.375"/>
<path d="M 80.1262577564 189.630903351 L 68.0669420088 250.065203996 L 0.0456631582066 192.081930178 z" fill="#9296c1" stroke="#adb0d1" opacity="0.415"/>
<path d="M 66.5665082671 81.4073119022 L 87.8230407882 46.5849842461 L 108.389692053 69.9760786465 z" fill="#8f93be" stroke="#abaece" opacity="0.203"/>
<path d="M 87.8230407882 46.5849842461 L 137.426218094 50.8570947205 L 108.389692053 69.9760786465 z" fill="#8f93be" stroke="#abaece" opacity="0.218"/>
<path d="M 87.8230407882 46.5849842461 L 63.9604355599 4.00747554568 L 155.107849914 4.36496009361 z" fill="#8f93be" stroke="#abaece" opacity="0.183"/>
<path d="M 137.426218094 50.8570947205 L 87.8230407882 46.5849842461 L 155.107849914 4.36496009361 z" fill="#8f93be" stroke="#abaece" opacity="0.217"/>
<path d="M 495.910687762 479.875250016 L 478.408507279 470.053279245 L 499.997900614 387.915058743 z" fill="#8c8ebe" stroke="#a9aace" opacity="0.149"/>
<path d="M 478.408507279 470.053279245 L 465.193502755 406.416508067 L 499.997900614 387.915058743 z" fill="#8c8ebe" stroke="#a9aace" opacity="0.167"/>
<path d="M 465.193502755 406.416508067 L 478.408507279 470.053279245 L 460.450583162 451.471056457 z" fill="#8c8ebe" stroke="#a9aace" opacity="0.161"/>
<path d="M 478.408507279 470.053279245 L 495.910687762 479.875250016 L 486.88564706 499.997841547 z" fill="#8c8ebe" stroke="#a9aace" opacity="0.135"/>
<path d="M 407.614958023 490.4559713 L 478.408507279 470.053279245 L 486.88564706 499.997841547 z" fill="#8c8ebe" stroke="#a9aace" opacity="0.145"/>
<path d="M 460.450583162 451.471056457 L 478.408507279 470.053279245 L 407.614958023 490.4559713 z" fill="#8c8ebe" stroke="#a9aace" opacity="0.157"/>
<path d="M 313.467296008 482.891905579 L 336.327154167 481.011959184 L 348.777149884 496.566813717 z" fill="#8d8ec1" stroke="#a9aad0" opacity="0.266"/>
<path d="M 341.384729286 453.069814656 L 336.327154167 481.011959184 L 313.467296008 482.891905579 z" fill="#8d8ec1" stroke="#a9aad0" opacity="0.288"/>
<path d="M 352.298423948 477.751442892 L 407.614958023 490.4559713 L 348.777149884 496.566813717 z" fill="#8d8ebf" stroke="#a9aacf" opacity="0.205"/>
<path d="M 336.327154167 481.011959184 L 352.298423948 477.751442892 L 348.777149884 496.566813717 z" fill="#8d8ec0" stroke="#a9aad0" opacity="0.241"/>
<path d="M 352.298423948 477.751442892 L 336.327154167 481.011959184 L 341.384729286 453.069814656 z" fill="#8d8ec0" stroke="#a9aad0" opacity="0.259"/>
<path d="M 391.169320634 455.283137778 L 347.342921272 399.235927834 L 451.636100227 419.343812056 z" fill="#8c8ebf" stroke="#a9aacf" opacity="0.227"/>
<path d="M 391.169320634 455.283137778 L 341.384729286 453.069814656 L 347.342921272 399.235927834 z" fill="#8c8ec0" stroke="#a9aacf" opacity="0.266"/>
<path d="M 460.450583162 451.471056457 L 391.169320634 455.283137778 L 451.636100227 419.343812056 z" fill="#8c8ebe" stroke="#a9aace" opacity="0.181"/>
<path d="M 391.169320634 455.283137778 L 460.450583162 451.471056457 L 407.614958023 490.4559713 z" fill="#8c8ebf" stroke="#a9aacf" opacity="0.176"/>
<path d="M 352.298423948 477.751442892 L 391.169320634 455.283137778 L 407.614958023 490.4559713 z" fill="#8c8ebf" stroke="#a9aacf" opacity="0.200"/>
<path d="M 391.169320634 455.283137778 L 352.298423948 477.751442892 L 341.384729286 453.069814656 z" fill="#8d8ec0" stroke="#a9aacf" opacity="0.236"/>
<path d="M 412.735977983 311.347207123 L 367.351096478 296.891885651 L 380.43693582 283.310983916 z" fill="#8a8bbe" stroke="#a7a8ce" opacity="0.827"/>
<path d="M 367.351096478 296.891885651 L 324.293748557 336.295538043 L 283.630208942 235.934476304 z" fill="#8c8dc3" stroke="#a9a9d2" opacity="1.000"/>
<path d="M 378.053666394 235.732784036 L 367.351096478 296.891885651 L 283.630208942 235.934476304 z" fill="#8e8fc3" stroke="#aaabd2" opacity="0.576"/>
<path d="M 367.351096478 296.891885651 L 378.053666394 235.732784036 L 380.43693582 283.310983916 z" fill="#8d8ec0" stroke="#a9aad0" opacity="0.512"/>
<path d="M 354.793478643 325.189396227 L 412.735977983 311.347207123 L 347.342921272 399.235927834 z" fill="#8c8dbf" stroke="#a8a9cf" opacity="0.433"/>
<path d="M 324.293748557 336.295538043 L 354.793478643 325.189396227 L 347.342921272 399.235927834 z" fill="#8c8dc0" stroke="#a9aad0" opacity="0.524"/>
<path d="M 354.793478643 325.189396227 L 367.351096478 296.891885651 L 412.735977983 311.347207123 z" fill="#8b8cbe" stroke="#a8a9ce" opacity="0.673"/>
<path d="M 367.351096478 296.891885651 L 354.793478643 325.189396227 L 324.293748557 336.295538043 z" fill="#8b8cc0" stroke="#a8a9cf" opacity="0.770"/>
<path d="M 34.4599728302 165.669586015 L 24.0398287165 151.94761383 L 94.8784459333 114.052019312 z" fill="#9194c0" stroke="#acafcf" opacity="0.258"/>
<path d="M 80.1262577564 189.630903351 L 34.4599728302 165.669586015 L 94.8784459333 114.052019312 z" fill="#9195c0" stroke="#acafd0" opacity="0.308"/>
<path d="M 24.0398287165 151.94761383 L 34.4599728302 165.669586015 L 0.0456631582066 192.081930178 z" fill="#9195c1" stroke="#adafd0" opacity="0.279"/>
<path d="M 34.4599728302 165.669586015 L 80.1262577564 189.630903351 L 0.0456631582066 192.081930178 z" fill="#9296c2" stroke="#adb0d1" opacity="0.350"/>
<path d="M 44.8419974289 9.57914939201 L 46.3417884424 28.4435814407 L 19.0636957737 48.7110076527 z" fill="#8f92be" stroke="#abadce" opacity="0.150"/>
<path d="M 46.3417884424 28.4435814407 L 66.5665082671 81.4073119022 L 19.0636957737 48.7110076527 z" fill="#8f92be" stroke="#abadce" opacity="0.165"/>
<path d="M 46.3417884424 28.4435814407 L 87.8230407882 46.5849842461 L 66.5665082671 81.4073119022 z" fill="#8f93be" stroke="#abaece" opacity="0.178"/>
<path d="M 46.3417884424 28.4435814407 L 44.8419974289 9.57914939201 L 63.9604355599 4.00747554568 z" fill="#8f92be" stroke="#abadce" opacity="0.150"/>
<path d="M 87.8230407882 46.5849842461 L 46.3417884424 28.4435814407 L 63.9604355599 4.00747554568 z" fill="#8f92be" stroke="#abadce" opacity="0.163"/>
</g></svg>
