<?xml version="1.0" encoding="utf-8"?>
<svg xmlns="http://www.w3.org/2000/svg" width="1920" height="300"
     xmlns:xlink="http://www.w3.org/1999/xlink">
  <!-- created with "banners.py -min 20 -num 50 -colors 195555,19CCCC,6677B0,102a83" -->
   
<path d="M 0 300 L 944 287 L 1920 300 z" fill="rgb(62.668450617283945,160.31887037037035,188.89036419753086)" opacity="1.000"/>
<path d="M 297 244 L 674 219 L 944 287 z" fill="rgb(45.83449074074075,158.234375,178.95804398148147)" opacity="1.000"/>
<path d="M 469 179 L 674 219 L 297 244 z" fill="rgb(38.08666666666667,151.64666666666665,168.19)" opacity="1.000"/>
<path d="M 1729 62 L 1502 68 L 1920 0 z" fill="rgb(28.06039351851852,58.31,133.76658564814812)" opacity="1.000"/>
<path d="M 587 83 L 469 179 L 461 146 z" fill="rgb(32.897530092592596,122.6073125,142.22647685185186)" opacity="1.000"/>
<path d="M 22 54 L 0 300 L 0 0 z" fill="rgb(25.09482407407407,131.57933333333332,131.8711898148148)" opacity="1.000"/>
<path d="M 22 54 L 95 93 L 0 300 z" fill="rgb(25.684802083333334,142.80617708333335,144.29115625000003)" opacity="1.000"/>
<path d="M 291 160 L 149 276 L 238 98 z" fill="rgb(29.94688888888889,147.61191666666667,155.85306944444446)" opacity="1.000"/>
<path d="M 149 276 L 291 160 L 297 244 z" fill="rgb(32.16243441358024,165.34887731481479,173.6429706790123)" opacity="1.000"/>
<path d="M 95 93 L 149 276 L 0 300 z" fill="rgb(27.326754629629633,170.312625,173.07513425925927)" opacity="1.000"/>
<path d="M 1887 62 L 1729 62 L 1920 0 z" fill="rgb(27.7380987654321,54.50614814814815,135.8076049382716)" opacity="1.000"/>
<path d="M 1887 62 L 1828 132 L 1729 62 z" fill="rgb(39.613947530864195,66.9166574074074,142.43115432098764)" opacity="1.000"/>
<path d="M 1887 62 L 1853 229 L 1828 132 z" fill="rgb(55.37266666666667,80.28133333333334,151.776)" opacity="1.000"/>
<path d="M 1887 62 L 1920 0 L 1920 300 z" fill="rgb(50.444495370370376,73.31425,149.0069837962963)" opacity="1.000"/>
<path d="M 1853 229 L 1887 62 L 1920 300 z" fill="rgb(71.64914351851851,93.78868055555554,160.59502314814813)" opacity="1.000"/>
<path d="M 1828 132 L 1605 217 L 1729 62 z" fill="rgb(52.130372685185186,83.61882638888889,150.28271064814817)" opacity="1.000"/>
<path d="M 1853 229 L 1605 217 L 1828 132 z" fill="rgb(67.42667592592592,97.20933333333332,160.02544907407406)" opacity="1.000"/>
<path d="M 944 287 L 1106 260 L 1920 300 z" fill="rgb(74.58058256172839,140.11186342592595,180.6971489197531)" opacity="1.000"/>
<path d="M 1106 260 L 944 287 L 953 214 z" fill="rgb(58.21952893518518,144.6878576388889,176.98169328703702)" opacity="1.000"/>
<path d="M 944 287 L 864 157 L 953 214 z" fill="rgb(50.824723765432104,136.67164814814817,168.11850077160494)" opacity="1.000"/>
<path d="M 674 219 L 864 157 L 944 287 z" fill="rgb(48.421002314814814,140.80238194444445,168.99491435185183)" opacity="1.000"/>
<path d="M 789 106 L 864 157 L 674 219 z" fill="rgb(39.97108487654321,122.27225925925927,151.30409799382716)" opacity="1.000"/>
<path d="M 469 179 L 672 199 L 674 219 z" fill="rgb(40.13970486111111,141.60838541666666,162.96404513888888)" opacity="1.000"/>
<path d="M 587 83 L 672 199 L 469 179 z" fill="rgb(35.51533333333333,126.60044444444445,148.3831111111111)" opacity="1.000"/>
<path d="M 672 199 L 789 106 L 674 219 z" fill="rgb(40.22340663580247,129.28221064814815,155.36512345679012)" opacity="1.000"/>
<path d="M 149 276 L 129 88 L 238 98 z" fill="rgb(28.148555555555554,140.30316666666667,146.80452777777776)" opacity="1.000"/>
<path d="M 129 88 L 149 276 L 95 93 z" fill="rgb(27.24505131172839,141.2599571759259,145.97109683641975)" opacity="1.000"/>
<path d="M 23 42 L 22 54 L 0 0 z" fill="rgb(25.00135416666667,97.32239583333333,97.99104166666666)" opacity="1.000"/>
<path d="M 83 55 L 23 42 L 0 0 z" fill="rgb(25.004948302469135,96.95093287037038,98.52531095679014)" opacity="1.000"/>
<path d="M 23 42 L 83 55 L 22 54 z" fill="rgb(25.12064197530864,103.8534074074074,105.71187654320987)" opacity="1.000"/>
<path d="M 143 289 L 297 244 L 944 287 z" fill="rgb(41.6645987654321,173.8956481481481,188.2749382716049)" opacity="1.000"/>
<path d="M 143 289 L 149 276 L 297 244 z" fill="rgb(31.984603780864198,183.71018865740743,189.86969251543212)" opacity="1.000"/>
<path d="M 143 289 L 944 287 L 0 300 z" fill="rgb(39.09828935185185,184.99722916666667,195.91503703703705)" opacity="1.000"/>
<path d="M 149 276 L 143 289 L 0 300 z" fill="rgb(28.7339274691358,195.14599537037037,198.09866512345678)" opacity="1.000"/>
<path d="M 748 29 L 265 21 L 0 0 z" fill="rgb(24.25744598765432,83.63842592592592,98.9780285493827)" opacity="1.000"/>
<path d="M 398 186 L 469 179 L 297 244 z" fill="rgb(34.94115277777777,151.09054166666667,164.70018055555556)" opacity="1.000"/>
<path d="M 291 160 L 398 186 L 297 244 z" fill="rgb(33.110154320987654,150.93717592592594,162.58125771604938)" opacity="1.000"/>
<path d="M 403 116 L 398 186 L 291 160 z" fill="rgb(31.663222222222217,133.84716666666665,147.6058611111111)" opacity="1.000"/>
<path d="M 1548 165 L 1605 217 L 1409 213 z" fill="rgb(62.90226466049383,107.62403935185185,161.35778163580247)" opacity="1.000"/>
<path d="M 1548 165 L 1409 213 L 1426 103 z" fill="rgb(53.125940972222224,98.79806597222222,153.50778125)" opacity="1.000"/>
<path d="M 1548 165 L 1502 68 L 1729 62 z" fill="rgb(40.920781250000005,76.90696180555557,142.04664930555558)" opacity="1.000"/>
<path d="M 1605 217 L 1548 165 L 1729 62 z" fill="rgb(53.3314212962963,89.69954166666668,151.75292592592592)" opacity="1.000"/>
<path d="M 1873 271 L 1853 229 L 1920 300 z" fill="rgb(91.10960648148149,112.034375,171.3914351851852)" opacity="1.000"/>
<path d="M 1605 217 L 1873 271 L 1920 300 z" fill="rgb(87.13114660493828,114.43131018518521,171.5809691358025)" opacity="1.000"/>
<path d="M 1873 271 L 1605 217 L 1853 229 z" fill="rgb(80.0808298611111,109.03801041666665,167.8147534722222)" opacity="1.000"/>
<path d="M 1409 213 L 1385 157 L 1426 103 z" fill="rgb(51.51989969135802,99.86585648148147,152.74935956790125)" opacity="1.000"/>
<path d="M 1322 231 L 1106 260 L 1176 202 z" fill="rgb(60.802236111111114,129.49018055555555,169.759875)" opacity="1.000"/>
<path d="M 1106 260 L 1322 231 L 1920 300 z" fill="rgb(75.2620077160494,129.2643101851852,175.21689969135804)" opacity="1.000"/>
<path d="M 1322 231 L 1605 217 L 1920 300 z" fill="rgb(77.57274614197532,118.34430324074074,170.8572098765432)" opacity="1.000"/>
<path d="M 1605 217 L 1322 231 L 1409 213 z" fill="rgb(65.77211728395062,116.80875925925926,166.11403086419753)" opacity="1.000"/>
<path d="M 1502 68 L 1164 15 L 1920 0 z" fill="rgb(24.14897145061728,58.65480787037038,127.1652600308642)" opacity="1.000"/>
<path d="M 1920 0 L 1164 15 L 0 0 z" fill="rgb(20.94868055555555,63.58562499999999,110.95215277777777)" opacity="1.000"/>
<path d="M 1164 15 L 748 29 L 0 0 z" fill="rgb(23.40814197530864,75.86257407407406,104.8863209876543)" opacity="1.000"/>
<path d="M 741 96 L 587 83 L 748 29 z" fill="rgb(28.919731481481485,93.50586111111113,122.91746296296299)" opacity="1.000"/>
<path d="M 741 96 L 672 199 L 587 83 z" fill="rgb(34.416666666666664,113.92444444444445,140.16055555555556)" opacity="1.000"/>
<path d="M 789 106 L 741 96 L 748 29 z" fill="rgb(30.17032175925926,94.27409027777777,126.22409490740742)" opacity="1.000"/>
<path d="M 672 199 L 741 96 L 789 106 z" fill="rgb(36.20794212962963,114.42861805555555,143.00194675925925)" opacity="1.000"/>
<path d="M 84 57 L 129 88 L 95 93 z" fill="rgb(25.73482716049383,113.57568518518518,117.88221913580246)" opacity="1.000"/>
<path d="M 129 88 L 84 57 L 83 55 z" fill="rgb(25.5195987654321,108.7550925925926,112.96327160493827)" opacity="1.000"/>
<path d="M 22 54 L 84 57 L 95 93 z" fill="rgb(25.366173611111112,110.14060416666666,112.99322222222222)" opacity="1.000"/>
<path d="M 83 55 L 84 57 L 22 54 z" fill="rgb(25.225166666666663,105.28376388888887,108.01040972222222)" opacity="1.000"/>
<path d="M 506 42 L 587 83 L 461 146 z" fill="rgb(29.558280092592593,105.81921527777776,127.23108101851851)" opacity="1.000"/>
<path d="M 403 116 L 506 42 L 461 146 z" fill="rgb(29.768572530864198,111.59386574074075,130.19140432098766)" opacity="1.000"/>
<path d="M 587 83 L 506 42 L 748 29 z" fill="rgb(26.82679475308642,89.3216574074074,116.01757793209876)" opacity="1.000"/>
<path d="M 506 42 L 265 21 L 748 29 z" fill="rgb(24.944912808641973,84.6924699074074,107.30048765432097)" opacity="1.000"/>
<path d="M 129 88 L 199 45 L 238 98 z" fill="rgb(26.284636574074074,110.25870138888888,118.19711342592592)" opacity="1.000"/>
<path d="M 199 45 L 265 21 L 238 98 z" fill="rgb(25.813041666666663,100.51106944444446,110.64727777777777)" opacity="1.000"/>
<path d="M 199 45 L 129 88 L 83 55 z" fill="rgb(25.63965046296296,106.16353472222222,112.0370925925926)" opacity="1.000"/>
<path d="M 199 45 L 83 55 L 0 0 z" fill="rgb(25.027199074074076,95.88854166666668,100.07175925925927)" opacity="1.000"/>
<path d="M 265 21 L 199 45 L 0 0 z" fill="rgb(24.783037037037037,90.01466666666667,96.99507407407407)" opacity="1.000"/>
<path d="M 469 179 L 458 158 L 461 146 z" fill="rgb(33.952921296296296,133.0700138888889,150.37824537037037)" opacity="1.000"/>
<path d="M 398 186 L 458 158 L 469 179 z" fill="rgb(34.42580054012346,138.64634837962964,154.8418152006173)" opacity="1.000"/>
<path d="M 458 158 L 403 116 L 461 146 z" fill="rgb(32.14553240740741,126.16576388888889,143.1650925925926)" opacity="1.000"/>
<path d="M 458 158 L 398 186 L 403 116 z" fill="rgb(32.64045910493827,131.73133101851852,147.6096913580247)" opacity="1.000"/>
<path d="M 1502 68 L 1500 86 L 1426 103 z" fill="rgb(36.96004166666667,76.70498611111111,138.09906944444444)" opacity="1.000"/>
<path d="M 1500 86 L 1548 165 L 1426 103 z" fill="rgb(44.283768518518514,85.57533333333333,144.9283287037037)" opacity="1.000"/>
<path d="M 1548 165 L 1500 86 L 1502 68 z" fill="rgb(41.9694637345679,81.45244212962962,142.79669367283952)" opacity="1.000"/>
<path d="M 1330 123 L 1337 197 L 1176 202 z" fill="rgb(52.27462499999999,109.07825,156.07493749999998)" opacity="1.000"/>
<path d="M 1337 197 L 1322 231 L 1176 202 z" fill="rgb(59.08888888888888,120.09618055555555,164.43836805555554)" opacity="1.000"/>
<path d="M 1385 157 L 1337 197 L 1330 123 z" fill="rgb(50.73301388888889,102.16140277777778,152.83954166666666)" opacity="1.000"/>
<path d="M 1337 197 L 1385 157 L 1409 213 z" fill="rgb(57.402531249999996,110.15415625,159.52534375)" opacity="1.000"/>
<path d="M 1322 231 L 1337 197 L 1409 213 z" fill="rgb(61.902347222222225,118.25940277777778,165.01943055555557)" opacity="1.000"/>
<path d="M 1127 149 L 1330 123 L 1176 202 z" fill="rgb(47.89126388888888,106.60024999999999,152.10525694444442)" opacity="1.000"/>
<path d="M 1127 149 L 1164 15 L 1330 123 z" fill="rgb(36.58245023148148,87.49634375,137.03084143518518)" opacity="1.000"/>
<path d="M 1127 149 L 1106 260 L 953 214 z" fill="rgb(52.950020833333326,127.50888194444445,164.4846736111111)" opacity="1.000"/>
<path d="M 1106 260 L 1127 149 L 1176 202 z" fill="rgb(54.22770331790123,123.46330671296298,163.2796902006173)" opacity="1.000"/>
<path d="M 1164 15 L 1347 102 L 1330 123 z" fill="rgb(34.291307870370375,80.59059027777778,134.24900462962964)" opacity="1.000"/>
<path d="M 1385 157 L 1347 102 L 1426 103 z" fill="rgb(43.47358333333334,89.62894444444444,144.58448611111112)" opacity="1.000"/>
<path d="M 1347 102 L 1385 157 L 1330 123 z" fill="rgb(44.39479629629629,92.61341666666667,145.79866203703705)" opacity="1.000"/>
<path d="M 1347 102 L 1502 68 L 1426 103 z" fill="rgb(37.68151041666667,79.72713541666667,138.57765625)" opacity="1.000"/>
<path d="M 1347 102 L 1164 15 L 1502 68 z" fill="rgb(31.045819830246913,73.48809606481481,130.9117727623457)" opacity="1.000"/>
<path d="M 361 44 L 506 42 L 403 116 z" fill="rgb(27.271496913580243,100.14953703703704,118.18922067901234)" opacity="1.000"/>
<path d="M 506 42 L 361 44 L 265 21 z" fill="rgb(25.240637345679012,89.71575462962964,106.45904783950618)" opacity="1.000"/>
<path d="M 361 44 L 403 116 L 291 160 z" fill="rgb(28.952179783950616,116.70005787037037,130.9173225308642)" opacity="1.000"/>
<path d="M 361 44 L 291 160 L 238 98 z" fill="rgb(28.0683024691358,116.10939814814813,128.2019984567901)" opacity="1.000"/>
<path d="M 265 21 L 361 44 L 238 98 z" fill="rgb(25.986333333333334,98.96122222222222,111.44188888888888)" opacity="1.000"/>
<path d="M 1127 149 L 870 59 L 1164 15 z" fill="rgb(31.754930169753088,85.17679282407407,129.66738001543212)" opacity="1.000"/>
<path d="M 1164 15 L 870 59 L 748 29 z" fill="rgb(25.40678163580247,75.52893287037037,116.74589429012345)" opacity="1.000"/>
<path d="M 864 157 L 870 59 L 953 214 z" fill="rgb(39.96924382716049,112.43539351851851,146.82111496913578)" opacity="1.000"/>
<path d="M 870 59 L 1127 149 L 953 214 z" fill="rgb(41.04290123456789,108.68921296296294,146.5862422839506)" opacity="1.000"/>
<path d="M 870 59 L 789 106 L 748 29 z" fill="rgb(28.985665123456787,88.89896296296295,123.20799922839504)" opacity="1.000"/>
<path d="M 870 59 L 864 157 L 789 106 z" fill="rgb(34.53522685185185,102.15866666666668,136.1276689814815)" opacity="1.000"/>
</svg>
