<?xml version="1.0" encoding="utf-8"?>
<svg xmlns="http://www.w3.org/2000/svg" width="1920" height="300"
     xmlns:xlink="http://www.w3.org/1999/xlink">
  <!-- created with "banners.py -min 10 -num 100 -colors 929EC6,BDC4DD,6677B0,929EC6" -->
   
<g>
[(146, 158, 198), (189, 196, 221), (102, 119, 176), (146, 158, 198)]
<path d="M 1458 289 L 408 288 L 860 281 z" fill="#a6b0d1" opacity="1.000"/>
<path d="M 0 300 L 1458 289 L 1920 300 z" fill="#a3adcf" opacity="1.000"/>
<path d="M 408 288 L 1458 289 L 0 300 z" fill="#adb6d4" opacity="1.000"/>
<path d="M 1920 0 L 922 11 L 0 0 z" fill="#7c8bbb" opacity="1.000"/>
<path d="M 1092 274 L 1458 289 L 860 281 z" fill="#a0abcd" opacity="1.000"/>
<path d="M 904 169 L 922 11 L 990 162 z" fill="#8d99c3" opacity="1.000"/>
<path d="M 10 220 L 0 300 L 0 0 z" fill="#aab3d3" opacity="1.000"/>
<path d="M 60 158 L 10 220 L 0 0 z" fill="#a3adcf" opacity="1.000"/>
<path d="M 1407 14 L 922 11 L 1920 0 z" fill="#7282b6" opacity="1.000"/>
<path d="M 936 262 L 1092 274 L 860 281 z" fill="#a3adcf" opacity="1.000"/>
<path d="M 1881 110 L 1920 0 L 1920 300 z" fill="#7a88ba" opacity="1.000"/>
<path d="M 792 92 L 771 219 L 718 166 z" fill="#97a2c9" opacity="1.000"/>
<path d="M 771 219 L 792 92 L 904 169 z" fill="#96a1c8" opacity="1.000"/>
<path d="M 112 28 L 60 158 L 0 0 z" fill="#99a4ca" opacity="1.000"/>
<path d="M 112 28 L 176 72 L 60 158 z" fill="#9ba6cb" opacity="1.000"/>
<path d="M 1591 17 L 1407 14 L 1920 0 z" fill="#6d7eb3" opacity="1.000"/>
<path d="M 1407 14 L 1228 19 L 922 11 z" fill="#7887b9" opacity="1.000"/>
<path d="M 455 166 L 373 248 L 356 138 z" fill="#a3adcf" opacity="1.000"/>
<path d="M 229 255 L 373 248 L 408 288 z" fill="#b0b8d6" opacity="1.000"/>
<path d="M 167 282 L 408 288 L 0 300 z" fill="#b7bed9" opacity="1.000"/>
<path d="M 167 282 L 229 255 L 408 288 z" fill="#b3bbd7" opacity="1.000"/>
<path d="M 176 72 L 113 222 L 60 158 z" fill="#a4aed0" opacity="1.000"/>
<path d="M 167 282 L 113 222 L 229 255 z" fill="#b2bad7" opacity="1.000"/>
<path d="M 936 262 L 1031 230 L 1092 274 z" fill="#9faacd" opacity="1.000"/>
<path d="M 968 211 L 904 169 L 990 162 z" fill="#96a1c8" opacity="1.000"/>
<path d="M 1031 230 L 968 211 L 990 162 z" fill="#98a3c9" opacity="1.000"/>
<path d="M 1458 289 L 1842 246 L 1920 300 z" fill="#929ec6" opacity="1.000"/>
<path d="M 1815 231 L 1842 246 L 1458 289 z" fill="#909cc5" opacity="1.000"/>
<path d="M 771 219 L 869 236 L 860 281 z" fill="#a2acce" opacity="1.000"/>
<path d="M 869 236 L 771 219 L 904 169 z" fill="#9ca7cb" opacity="1.000"/>
<path d="M 869 236 L 936 262 L 860 281 z" fill="#a3adcf" opacity="1.000"/>
<path d="M 408 288 L 648 267 L 860 281 z" fill="#abb4d3" opacity="1.000"/>
<path d="M 648 267 L 771 219 L 860 281 z" fill="#a5afd0" opacity="1.000"/>
<path d="M 904 169 L 813 47 L 922 11 z" fill="#8895c1" opacity="1.000"/>
<path d="M 792 92 L 813 47 L 904 169 z" fill="#8d9ac4" opacity="1.000"/>
<path d="M 653 165 L 735 51 L 718 166 z" fill="#949fc7" opacity="1.000"/>
<path d="M 735 51 L 792 92 L 718 166 z" fill="#8f9bc5" opacity="1.000"/>
<path d="M 735 51 L 813 47 L 792 92 z" fill="#8996c1" opacity="1.000"/>
<path d="M 813 47 L 735 51 L 922 11 z" fill="#8491bf" opacity="1.000"/>
<path d="M 1651 181 L 1815 231 L 1458 289 z" fill="#8e9ac4" opacity="1.000"/>
<path d="M 373 248 L 303 216 L 356 138 z" fill="#a6b0d1" opacity="1.000"/>
<path d="M 303 216 L 373 248 L 229 255 z" fill="#adb6d4" opacity="1.000"/>
<path d="M 74 257 L 167 282 L 0 300 z" fill="#b8bfda" opacity="1.000"/>
<path d="M 74 257 L 113 222 L 167 282 z" fill="#b3bbd7" opacity="1.000"/>
<path d="M 10 220 L 74 257 L 0 300 z" fill="#b6bed9" opacity="1.000"/>
<path d="M 74 257 L 10 220 L 60 158 z" fill="#afb7d5" opacity="1.000"/>
<path d="M 113 222 L 74 257 L 60 158 z" fill="#aeb7d5" opacity="1.000"/>
<path d="M 338 110 L 289 94 L 316 53 z" fill="#97a2c8" opacity="1.000"/>
<path d="M 289 94 L 270 98 L 316 53 z" fill="#96a2c8" opacity="1.000"/>
<path d="M 968 211 L 951 228 L 904 169 z" fill="#99a4ca" opacity="1.000"/>
<path d="M 951 228 L 869 236 L 904 169 z" fill="#9ba6cb" opacity="1.000"/>
<path d="M 869 236 L 951 228 L 936 262 z" fill="#a0aacd" opacity="1.000"/>
<path d="M 951 228 L 1031 230 L 936 262 z" fill="#9ea9cc" opacity="1.000"/>
<path d="M 951 228 L 968 211 L 1031 230 z" fill="#9ba6cb" opacity="1.000"/>
<path d="M 1770 36 L 1591 17 L 1920 0 z" fill="#6c7cb3" opacity="1.000"/>
<path d="M 1852 166 L 1842 246 L 1815 231 z" fill="#8794c0" opacity="1.000"/>
<path d="M 1868 107 L 1852 166 L 1827 137 z" fill="#7b8aba" opacity="1.000"/>
<path d="M 1852 166 L 1868 107 L 1881 110 z" fill="#7988b9" opacity="1.000"/>
<path d="M 1852 166 L 1881 110 L 1920 300 z" fill="#8290be" opacity="1.000"/>
<path d="M 1842 246 L 1852 166 L 1920 300 z" fill="#8996c1" opacity="1.000"/>
<path d="M 771 219 L 732 215 L 718 166 z" fill="#9da8cc" opacity="1.000"/>
<path d="M 648 267 L 732 215 L 771 219 z" fill="#a3adcf" opacity="1.000"/>
<path d="M 732 215 L 653 165 L 718 166 z" fill="#9ca7cb" opacity="1.000"/>
<path d="M 732 215 L 648 267 L 653 165 z" fill="#a1abce" opacity="1.000"/>
<path d="M 648 267 L 550 227 L 653 165 z" fill="#a3adcf" opacity="1.000"/>
<path d="M 550 227 L 455 166 L 511 141 z" fill="#a0aacd" opacity="1.000"/>
<path d="M 550 227 L 648 267 L 408 288 z" fill="#abb4d3" opacity="1.000"/>
<path d="M 1329 164 L 1228 19 L 1407 14 z" fill="#7d8bbb" opacity="1.000"/>
<path d="M 238 191 L 303 216 L 229 255 z" fill="#abb4d3" opacity="1.000"/>
<path d="M 238 191 L 219 89 L 270 98 z" fill="#9ea9cc" opacity="1.000"/>
<path d="M 113 222 L 238 191 L 229 255 z" fill="#adb6d4" opacity="1.000"/>
<path d="M 238 191 L 113 222 L 176 72 z" fill="#a5aed0" opacity="1.000"/>
<path d="M 219 89 L 238 191 L 176 72 z" fill="#9da8cc" opacity="1.000"/>
<path d="M 270 98 L 225 81 L 316 53 z" fill="#96a2c8" opacity="1.000"/>
<path d="M 219 89 L 225 81 L 270 98 z" fill="#99a4ca" opacity="1.000"/>
<path d="M 225 81 L 219 89 L 176 72 z" fill="#98a3c9" opacity="1.000"/>
<path d="M 225 81 L 112 28 L 316 53 z" fill="#94a0c7" opacity="1.000"/>
<path d="M 112 28 L 225 81 L 176 72 z" fill="#96a2c8" opacity="1.000"/>
<path d="M 289 94 L 333 142 L 270 98 z" fill="#9ba6cb" opacity="1.000"/>
<path d="M 333 142 L 238 191 L 270 98 z" fill="#a0aacd" opacity="1.000"/>
<path d="M 238 191 L 333 142 L 303 216 z" fill="#a5afd0" opacity="1.000"/>
<path d="M 333 142 L 289 94 L 338 110 z" fill="#9ba6cb" opacity="1.000"/>
<path d="M 333 142 L 338 110 L 356 138 z" fill="#9ca7cb" opacity="1.000"/>
<path d="M 303 216 L 333 142 L 356 138 z" fill="#a2acce" opacity="1.000"/>
<path d="M 1817 74 L 1868 107 L 1827 137 z" fill="#7786b8" opacity="1.000"/>
<path d="M 1770 36 L 1649 42 L 1591 17 z" fill="#7080b5" opacity="1.000"/>
<path d="M 461 240 L 550 227 L 408 288 z" fill="#abb4d3" opacity="1.000"/>
<path d="M 550 227 L 461 240 L 455 166 z" fill="#a5aed0" opacity="1.000"/>
<path d="M 373 248 L 461 240 L 408 288 z" fill="#adb6d4" opacity="1.000"/>
<path d="M 461 240 L 373 248 L 455 166 z" fill="#a7b1d1" opacity="1.000"/>
<path d="M 626 144 L 735 51 L 653 165 z" fill="#939fc7" opacity="1.000"/>
<path d="M 626 144 L 563 78 L 735 51 z" fill="#909cc5" opacity="1.000"/>
<path d="M 563 78 L 626 144 L 511 141 z" fill="#96a1c8" opacity="1.000"/>
<path d="M 455 166 L 471 88 L 511 141 z" fill="#99a4ca" opacity="1.000"/>
<path d="M 338 110 L 471 88 L 356 138 z" fill="#99a4ca" opacity="1.000"/>
<path d="M 471 88 L 455 166 L 356 138 z" fill="#9aa5ca" opacity="1.000"/>
<path d="M 735 51 L 448 27 L 922 11 z" fill="#8693c0" opacity="1.000"/>
<path d="M 922 11 L 448 27 L 0 0 z" fill="#8996c1" opacity="1.000"/>
<path d="M 448 27 L 338 110 L 316 53 z" fill="#929ec6" opacity="1.000"/>
<path d="M 448 27 L 471 88 L 338 110 z" fill="#939fc6" opacity="1.000"/>
<path d="M 448 27 L 112 28 L 0 0 z" fill="#909cc5" opacity="1.000"/>
<path d="M 112 28 L 448 27 L 316 53 z" fill="#909cc5" opacity="1.000"/>
<path d="M 1446 103 L 1329 164 L 1407 14 z" fill="#7f8dbc" opacity="1.000"/>
<path d="M 1329 164 L 1219 151 L 1228 19 z" fill="#8592bf" opacity="1.000"/>
<path d="M 1092 274 L 1302 254 L 1458 289 z" fill="#9ca6cb" opacity="1.000"/>
<path d="M 1449 243 L 1651 181 L 1458 289 z" fill="#919dc6" opacity="1.000"/>
<path d="M 1302 254 L 1449 243 L 1458 289 z" fill="#98a3c9" opacity="1.000"/>
<path d="M 1817 74 L 1841 57 L 1868 107 z" fill="#7382b6" opacity="1.000"/>
<path d="M 1881 110 L 1841 57 L 1920 0 z" fill="#6e7eb4" opacity="1.000"/>
<path d="M 1868 107 L 1841 57 L 1881 110 z" fill="#7483b7" opacity="1.000"/>
<path d="M 1841 57 L 1770 36 L 1920 0 z" fill="#6c7cb3" opacity="1.000"/>
<path d="M 1841 57 L 1779 60 L 1770 36 z" fill="#7080b5" opacity="1.000"/>
<path d="M 1779 60 L 1841 57 L 1817 74 z" fill="#7181b5" opacity="1.000"/>
<path d="M 550 227 L 626 146 L 653 165 z" fill="#9da8cc" opacity="1.000"/>
<path d="M 626 146 L 626 144 L 653 165 z" fill="#99a4ca" opacity="1.000"/>
<path d="M 626 146 L 550 227 L 511 141 z" fill="#9da8cc" opacity="1.000"/>
<path d="M 626 144 L 626 146 L 511 141 z" fill="#99a4ca" opacity="1.000"/>
<path d="M 454 29 L 448 27 L 735 51 z" fill="#8a97c2" opacity="1.000"/>
<path d="M 448 27 L 454 29 L 471 88 z" fill="#8e9ac4" opacity="1.000"/>
<path d="M 1452 23 L 1446 103 L 1407 14 z" fill="#7786b8" opacity="1.000"/>
<path d="M 1591 17 L 1452 23 L 1407 14 z" fill="#7282b6" opacity="1.000"/>
<path d="M 1439 157 L 1446 103 L 1464 162 z" fill="#8592bf" opacity="1.000"/>
<path d="M 1446 103 L 1439 157 L 1329 164 z" fill="#8693c0" opacity="1.000"/>
<path d="M 1449 243 L 1439 157 L 1464 162 z" fill="#8c98c3" opacity="1.000"/>
<path d="M 1439 157 L 1449 243 L 1329 164 z" fill="#8d99c3" opacity="1.000"/>
<path d="M 1529 124 L 1449 243 L 1464 162 z" fill="#8996c2" opacity="1.000"/>
<path d="M 1449 243 L 1529 124 L 1651 181 z" fill="#8996c1" opacity="1.000"/>
<path d="M 1562 68 L 1513 38 L 1591 17 z" fill="#7483b7" opacity="1.000"/>
<path d="M 1529 124 L 1562 68 L 1569 108 z" fill="#7d8bbb" opacity="1.000"/>
<path d="M 1562 68 L 1615 87 L 1569 108 z" fill="#7a89ba" opacity="1.000"/>
<path d="M 1649 42 L 1615 87 L 1591 17 z" fill="#7383b7" opacity="1.000"/>
<path d="M 1615 87 L 1562 68 L 1591 17 z" fill="#7585b8" opacity="1.000"/>
<path d="M 922 11 L 1124 155 L 990 162 z" fill="#8a97c2" opacity="1.000"/>
<path d="M 1124 155 L 1031 230 L 990 162 z" fill="#94a0c7" opacity="1.000"/>
<path d="M 1031 230 L 1124 155 L 1092 274 z" fill="#99a4c9" opacity="1.000"/>
<path d="M 1764 160 L 1852 166 L 1815 231 z" fill="#8391be" opacity="1.000"/>
<path d="M 1764 160 L 1761 160 L 1771 146 z" fill="#808ebd" opacity="1.000"/>
<path d="M 1852 166 L 1764 160 L 1827 137 z" fill="#7e8dbc" opacity="1.000"/>
<path d="M 1764 160 L 1771 146 L 1827 137 z" fill="#7e8cbc" opacity="1.000"/>
<path d="M 1800 129 L 1779 60 L 1817 74 z" fill="#7584b7" opacity="1.000"/>
<path d="M 1800 129 L 1817 74 L 1827 137 z" fill="#7887b9" opacity="1.000"/>
<path d="M 1771 146 L 1800 129 L 1827 137 z" fill="#7c8bbb" opacity="1.000"/>
<path d="M 454 29 L 520 58 L 471 88 z" fill="#8f9bc4" opacity="1.000"/>
<path d="M 520 58 L 563 78 L 511 141 z" fill="#939ec6" opacity="1.000"/>
<path d="M 471 88 L 520 58 L 511 141 z" fill="#949fc7" opacity="1.000"/>
<path d="M 563 78 L 520 58 L 735 51 z" fill="#8d99c3" opacity="1.000"/>
<path d="M 520 58 L 454 29 L 735 51 z" fill="#8b98c2" opacity="1.000"/>
<path d="M 1452 23 L 1480 28 L 1446 103 z" fill="#7886b9" opacity="1.000"/>
<path d="M 1513 38 L 1480 28 L 1591 17 z" fill="#7282b6" opacity="1.000"/>
<path d="M 1480 28 L 1452 23 L 1591 17 z" fill="#7282b6" opacity="1.000"/>
<path d="M 1446 103 L 1496 86 L 1464 162 z" fill="#818fbd" opacity="1.000"/>
<path d="M 1496 86 L 1529 124 L 1464 162 z" fill="#818fbe" opacity="1.000"/>
<path d="M 1496 86 L 1480 28 L 1513 38 z" fill="#7786b8" opacity="1.000"/>
<path d="M 1480 28 L 1496 86 L 1446 103 z" fill="#7a89ba" opacity="1.000"/>
<path d="M 1562 68 L 1496 86 L 1513 38 z" fill="#7887b9" opacity="1.000"/>
<path d="M 1496 86 L 1562 68 L 1529 124 z" fill="#7c8abb" opacity="1.000"/>
<path d="M 1615 87 L 1593 116 L 1569 108 z" fill="#7c8abb" opacity="1.000"/>
<path d="M 1529 124 L 1593 116 L 1651 181 z" fill="#818fbe" opacity="1.000"/>
<path d="M 1593 116 L 1529 124 L 1569 108 z" fill="#7f8dbc" opacity="1.000"/>
<path d="M 1593 116 L 1686 140 L 1651 181 z" fill="#818fbd" opacity="1.000"/>
<path d="M 1686 140 L 1593 116 L 1615 87 z" fill="#7d8bbb" opacity="1.000"/>
<path d="M 1219 151 L 1189 84 L 1228 19 z" fill="#8290be" opacity="1.000"/>
<path d="M 1124 155 L 1189 84 L 1219 151 z" fill="#8996c2" opacity="1.000"/>
<path d="M 1228 19 L 1189 84 L 922 11 z" fill="#7e8cbc" opacity="1.000"/>
<path d="M 1189 84 L 1124 155 L 922 11 z" fill="#8592bf" opacity="1.000"/>
<path d="M 1304 206 L 1449 243 L 1302 254 z" fill="#95a0c7" opacity="1.000"/>
<path d="M 1271 211 L 1253 242 L 1219 151 z" fill="#929ec6" opacity="1.000"/>
<path d="M 1124 155 L 1253 242 L 1092 274 z" fill="#97a3c9" opacity="1.000"/>
<path d="M 1253 242 L 1124 155 L 1219 151 z" fill="#919dc5" opacity="1.000"/>
<path d="M 1761 160 L 1713 157 L 1771 146 z" fill="#808ebd" opacity="1.000"/>
<path d="M 1291 229 L 1304 206 L 1302 254 z" fill="#95a1c8" opacity="1.000"/>
<path d="M 1304 206 L 1291 229 L 1271 211 z" fill="#939fc7" opacity="1.000"/>
<path d="M 1449 243 L 1311 191 L 1329 164 z" fill="#8f9bc5" opacity="1.000"/>
<path d="M 1304 206 L 1311 191 L 1449 243 z" fill="#929dc6" opacity="1.000"/>
<path d="M 1311 191 L 1304 206 L 1271 211 z" fill="#919dc6" opacity="1.000"/>
<path d="M 1311 191 L 1219 151 L 1329 164 z" fill="#8c99c3" opacity="1.000"/>
<path d="M 1311 191 L 1271 211 L 1219 151 z" fill="#8f9bc5" opacity="1.000"/>
<path d="M 1651 181 L 1724 177 L 1815 231 z" fill="#8794c0" opacity="1.000"/>
<path d="M 1724 177 L 1713 157 L 1761 160 z" fill="#8290be" opacity="1.000"/>
<path d="M 1724 177 L 1764 160 L 1815 231 z" fill="#8592bf" opacity="1.000"/>
<path d="M 1764 160 L 1724 177 L 1761 160 z" fill="#828fbe" opacity="1.000"/>
<path d="M 1689 60 L 1615 87 L 1649 42 z" fill="#7584b7" opacity="1.000"/>
<path d="M 1689 60 L 1686 140 L 1615 87 z" fill="#7988b9" opacity="1.000"/>
<path d="M 1689 60 L 1649 42 L 1770 36 z" fill="#7181b5" opacity="1.000"/>
<path d="M 1720 61 L 1689 60 L 1770 36 z" fill="#7281b6" opacity="1.000"/>
<path d="M 1689 60 L 1738 77 L 1686 140 z" fill="#7887b9" opacity="1.000"/>
<path d="M 1738 77 L 1689 60 L 1720 61 z" fill="#7483b7" opacity="1.000"/>
<path d="M 1713 157 L 1738 77 L 1771 146 z" fill="#7c8abb" opacity="1.000"/>
<path d="M 1738 77 L 1800 129 L 1771 146 z" fill="#7a89ba" opacity="1.000"/>
<path d="M 1800 129 L 1738 77 L 1779 60 z" fill="#7685b8" opacity="1.000"/>
<path d="M 1779 60 L 1738 77 L 1770 36 z" fill="#7181b6" opacity="1.000"/>
<path d="M 1738 77 L 1720 61 L 1770 36 z" fill="#7282b6" opacity="1.000"/>
<path d="M 1260 247 L 1253 242 L 1271 211 z" fill="#97a2c8" opacity="1.000"/>
<path d="M 1291 229 L 1260 247 L 1271 211 z" fill="#96a1c8" opacity="1.000"/>
<path d="M 1260 247 L 1291 229 L 1302 254 z" fill="#97a3c9" opacity="1.000"/>
<path d="M 1260 247 L 1302 254 L 1092 274 z" fill="#9ba6cb" opacity="1.000"/>
<path d="M 1253 242 L 1260 247 L 1092 274 z" fill="#9ba6cb" opacity="1.000"/>
<path d="M 1738 77 L 1702 152 L 1686 140 z" fill="#7c8bbb" opacity="1.000"/>
<path d="M 1702 152 L 1738 77 L 1713 157 z" fill="#7d8bbb" opacity="1.000"/>
<path d="M 1686 140 L 1702 152 L 1651 181 z" fill="#8290be" opacity="1.000"/>
<path d="M 1702 152 L 1724 177 L 1651 181 z" fill="#8491bf" opacity="1.000"/>
<path d="M 1724 177 L 1702 152 L 1713 157 z" fill="#8290be" opacity="1.000"/>
</g></svg>
