<?xml version="1.0" encoding="utf-8"?>
<svg xmlns="http://www.w3.org/2000/svg" width="1920" height="300"
     xmlns:xlink="http://www.w3.org/1999/xlink">
  <!-- created with "banners.py -num 60 -colors=0A1B59,2882D4,03113D,0A1B59" -->
   
<path d="M 0 300 L 790 286 L 1920 300 z" fill="#195098" opacity="1.000"/>
<path d="M 365 276 L 790 286 L 0 300 z" fill="#2069b6" opacity="1.000"/>
<path d="M 790 286 L 794 112 L 967 185 z" fill="#133e81" opacity="1.000"/>
<path d="M 1849 131 L 1920 0 L 1920 300 z" fill="#06164b" opacity="1.000"/>
<path d="M 1674 198 L 1849 131 L 1920 300 z" fill="#091c55" opacity="1.000"/>
<path d="M 1849 131 L 1674 198 L 1720 112 z" fill="#081a51" opacity="1.000"/>
<path d="M 1134 257 L 1187 261 L 790 286 z" fill="#154489" opacity="1.000"/>
<path d="M 236 31 L 34 12 L 0 0 z" fill="#0b1f5d" opacity="1.000"/>
<path d="M 193 75 L 34 12 L 236 31 z" fill="#0d2665" opacity="1.000"/>
<path d="M 365 276 L 652 239 L 790 286 z" fill="#1c59a3" opacity="1.000"/>
<path d="M 817 71 L 924 46 L 967 185 z" fill="#0d2a66" opacity="1.000"/>
<path d="M 794 112 L 817 71 L 967 185 z" fill="#0e2f6d" opacity="1.000"/>
<path d="M 1849 131 L 1867 66 L 1920 0 z" fill="#041344" opacity="1.000"/>
<path d="M 1867 66 L 1849 131 L 1720 112 z" fill="#06164a" opacity="1.000"/>
<path d="M 1628 280 L 1674 198 L 1920 300 z" fill="#0b225f" opacity="1.000"/>
<path d="M 790 286 L 1628 280 L 1920 300 z" fill="#103375" opacity="1.000"/>
<path d="M 1187 261 L 1628 280 L 790 286 z" fill="#133d81" opacity="1.000"/>
<path d="M 1674 198 L 1549 72 L 1720 112 z" fill="#081c52" opacity="1.000"/>
<path d="M 1018 203 L 790 286 L 967 185 z" fill="#144185" opacity="1.000"/>
<path d="M 1018 203 L 1134 257 L 790 286 z" fill="#154388" opacity="1.000"/>
<path d="M 38 201 L 108 215 L 0 300 z" fill="#216ab8" opacity="1.000"/>
<path d="M 38 201 L 0 300 L 0 0 z" fill="#1a539c" opacity="1.000"/>
<path d="M 34 12 L 26 18 L 0 0 z" fill="#0a1e5c" opacity="1.000"/>
<path d="M 26 18 L 38 201 L 0 0 z" fill="#113376" opacity="1.000"/>
<path d="M 38 201 L 26 18 L 78 111 z" fill="#143f84" opacity="1.000"/>
<path d="M 193 75 L 80 90 L 34 12 z" fill="#0f2d6e" opacity="1.000"/>
<path d="M 26 18 L 80 90 L 78 111 z" fill="#103375" opacity="1.000"/>
<path d="M 80 90 L 26 18 L 34 12 z" fill="#0d2868" opacity="1.000"/>
<path d="M 652 239 L 397 242 L 532 114 z" fill="#174b91" opacity="1.000"/>
<path d="M 397 242 L 652 239 L 365 276 z" fill="#1c5ba5" opacity="1.000"/>
<path d="M 317 223 L 397 242 L 365 276 z" fill="#1d5faa" opacity="1.000"/>
<path d="M 397 242 L 473 47 L 532 114 z" fill="#133c7e" opacity="1.000"/>
<path d="M 644 181 L 652 239 L 532 114 z" fill="#154387" opacity="1.000"/>
<path d="M 707 204 L 794 112 L 790 286 z" fill="#154386" opacity="1.000"/>
<path d="M 817 71 L 719 19 L 924 46 z" fill="#0a2059" opacity="1.000"/>
<path d="M 719 19 L 1344 30 L 924 46 z" fill="#081b52" opacity="1.000"/>
<path d="M 719 19 L 236 31 L 0 0 z" fill="#0a1e5a" opacity="1.000"/>
<path d="M 719 19 L 473 47 L 236 31 z" fill="#0a215c" opacity="1.000"/>
<path d="M 719 19 L 817 71 L 794 112 z" fill="#0b2560" opacity="1.000"/>
<path d="M 1920 0 L 719 19 L 0 0 z" fill="#07174d" opacity="1.000"/>
<path d="M 1344 30 L 719 19 L 1920 0 z" fill="#051648" opacity="1.000"/>
<path d="M 238 237 L 317 223 L 365 276 z" fill="#1e61ac" opacity="1.000"/>
<path d="M 238 237 L 365 276 L 0 300 z" fill="#226ebc" opacity="1.000"/>
<path d="M 317 223 L 238 237 L 207 157 z" fill="#1b57a1" opacity="1.000"/>
<path d="M 473 47 L 308 94 L 236 31 z" fill="#0d2968" opacity="1.000"/>
<path d="M 308 94 L 317 223 L 207 157 z" fill="#17488e" opacity="1.000"/>
<path d="M 397 242 L 308 94 L 473 47 z" fill="#133c7f" opacity="1.000"/>
<path d="M 308 94 L 397 242 L 317 223 z" fill="#184e95" opacity="1.000"/>
<path d="M 1628 280 L 1587 240 L 1674 198 z" fill="#0c2563" opacity="1.000"/>
<path d="M 1549 72 L 1587 240 L 1484 182 z" fill="#0a225c" opacity="1.000"/>
<path d="M 1587 240 L 1549 72 L 1674 198 z" fill="#0a215a" opacity="1.000"/>
<path d="M 1357 174 L 1444 105 L 1484 182 z" fill="#0b245e" opacity="1.000"/>
<path d="M 1549 72 L 1702 53 L 1720 112 z" fill="#06184b" opacity="1.000"/>
<path d="M 1867 66 L 1702 53 L 1920 0 z" fill="#041342" opacity="1.000"/>
<path d="M 1702 53 L 1867 66 L 1720 112 z" fill="#051648" opacity="1.000"/>
<path d="M 1702 53 L 1344 30 L 1920 0 z" fill="#041444" opacity="1.000"/>
<path d="M 1702 53 L 1549 72 L 1344 30 z" fill="#06174a" opacity="1.000"/>
<path d="M 1344 30 L 1266 77 L 924 46 z" fill="#081c52" opacity="1.000"/>
<path d="M 1018 203 L 1156 202 L 1134 257 z" fill="#12397b" opacity="1.000"/>
<path d="M 1134 257 L 1156 202 L 1187 261 z" fill="#123a7c" opacity="1.000"/>
<path d="M 100 195 L 142 179 L 108 215 z" fill="#1c5aa4" opacity="1.000"/>
<path d="M 100 195 L 38 201 L 78 111 z" fill="#1a529b" opacity="1.000"/>
<path d="M 38 201 L 100 195 L 108 215 z" fill="#1d5da8" opacity="1.000"/>
<path d="M 80 90 L 127 116 L 78 111 z" fill="#133d81" opacity="1.000"/>
<path d="M 127 116 L 80 90 L 193 75 z" fill="#12387b" opacity="1.000"/>
<path d="M 127 116 L 100 195 L 78 111 z" fill="#17488e" opacity="1.000"/>
<path d="M 100 195 L 127 116 L 142 179 z" fill="#194f96" opacity="1.000"/>
<path d="M 127 116 L 193 75 L 207 157 z" fill="#143e82" opacity="1.000"/>
<path d="M 142 179 L 127 116 L 207 157 z" fill="#174a90" opacity="1.000"/>
<path d="M 652 239 L 682 212 L 790 286 z" fill="#194f96" opacity="1.000"/>
<path d="M 682 212 L 707 204 L 790 286 z" fill="#174c92" opacity="1.000"/>
<path d="M 644 181 L 682 212 L 652 239 z" fill="#17498e" opacity="1.000"/>
<path d="M 707 204 L 701 158 L 794 112 z" fill="#123a7b" opacity="1.000"/>
<path d="M 701 158 L 682 212 L 644 181 z" fill="#144285" opacity="1.000"/>
<path d="M 682 212 L 701 158 L 707 204 z" fill="#154387" opacity="1.000"/>
<path d="M 108 215 L 139 234 L 0 300 z" fill="#216cba" opacity="1.000"/>
<path d="M 139 234 L 238 237 L 0 300 z" fill="#216dbb" opacity="1.000"/>
<path d="M 142 179 L 139 234 L 108 215 z" fill="#1d5da8" opacity="1.000"/>
<path d="M 139 234 L 142 179 L 207 157 z" fill="#1b569f" opacity="1.000"/>
<path d="M 238 237 L 139 234 L 207 157 z" fill="#1c5ba5" opacity="1.000"/>
<path d="M 193 75 L 240 83 L 207 157 z" fill="#123a7d" opacity="1.000"/>
<path d="M 240 83 L 308 94 L 207 157 z" fill="#133b7e" opacity="1.000"/>
<path d="M 1303 249 L 1628 280 L 1187 261 z" fill="#103375" opacity="1.000"/>
<path d="M 1303 249 L 1587 240 L 1628 280 z" fill="#0e2c6c" opacity="1.000"/>
<path d="M 1303 249 L 1357 174 L 1484 182 z" fill="#0e2c69" opacity="1.000"/>
<path d="M 1587 240 L 1303 249 L 1484 182 z" fill="#0e2b69" opacity="1.000"/>
<path d="M 1549 72 L 1505 89 L 1344 30 z" fill="#071a4e" opacity="1.000"/>
<path d="M 1505 89 L 1444 105 L 1344 30 z" fill="#071b51" opacity="1.000"/>
<path d="M 1505 89 L 1549 72 L 1484 182 z" fill="#091e55" opacity="1.000"/>
<path d="M 1444 105 L 1505 89 L 1484 182 z" fill="#092058" opacity="1.000"/>
<path d="M 1345 87 L 1444 105 L 1357 174 z" fill="#0a225b" opacity="1.000"/>
<path d="M 1091 113 L 1156 202 L 1018 203 z" fill="#0f3270" opacity="1.000"/>
<path d="M 1156 202 L 1091 113 L 1160 116 z" fill="#0d2c68" opacity="1.000"/>
<path d="M 1266 77 L 1091 113 L 924 46 z" fill="#0a225b" opacity="1.000"/>
<path d="M 1091 113 L 1212 104 L 1160 116 z" fill="#0b2660" opacity="1.000"/>
<path d="M 1212 104 L 1091 113 L 1266 77 z" fill="#0a235c" opacity="1.000"/>
<path d="M 710 27 L 701 158 L 644 181 z" fill="#103373" opacity="1.000"/>
<path d="M 710 27 L 644 181 L 532 114 z" fill="#0f3170" opacity="1.000"/>
<path d="M 710 27 L 719 19 L 794 112 z" fill="#0b225d" opacity="1.000"/>
<path d="M 701 158 L 710 27 L 794 112 z" fill="#0e2d6a" opacity="1.000"/>
<path d="M 473 47 L 710 27 L 532 114 z" fill="#0c2764" opacity="1.000"/>
<path d="M 719 19 L 710 27 L 473 47 z" fill="#0a1f59" opacity="1.000"/>
<path d="M 308 94 L 241 64 L 236 31 z" fill="#0e2c6c" opacity="1.000"/>
<path d="M 240 83 L 241 64 L 308 94 z" fill="#103172" opacity="1.000"/>
<path d="M 241 64 L 193 75 L 236 31 z" fill="#0e2b6a" opacity="1.000"/>
<path d="M 241 64 L 240 83 L 193 75 z" fill="#0f3071" opacity="1.000"/>
<path d="M 1444 105 L 1345 68 L 1344 30 z" fill="#081c51" opacity="1.000"/>
<path d="M 1345 87 L 1345 68 L 1444 105 z" fill="#081e54" opacity="1.000"/>
<path d="M 1345 68 L 1266 77 L 1344 30 z" fill="#071b51" opacity="1.000"/>
<path d="M 1345 68 L 1345 87 L 1266 77 z" fill="#081e54" opacity="1.000"/>
<path d="M 1037 120 L 1018 203 L 967 185 z" fill="#103473" opacity="1.000"/>
<path d="M 1037 120 L 1091 113 L 1018 203 z" fill="#0e2e6c" opacity="1.000"/>
<path d="M 924 46 L 1037 120 L 967 185 z" fill="#0d2b67" opacity="1.000"/>
<path d="M 1091 113 L 1037 120 L 924 46 z" fill="#0b2660" opacity="1.000"/>
<path d="M 1156 202 L 1236 129 L 1187 261 z" fill="#0f3271" opacity="1.000"/>
<path d="M 1236 129 L 1303 249 L 1187 261 z" fill="#103272" opacity="1.000"/>
<path d="M 1236 129 L 1156 202 L 1160 116 z" fill="#0d2b67" opacity="1.000"/>
<path d="M 1212 104 L 1236 129 L 1160 116 z" fill="#0b2660" opacity="1.000"/>
<path d="M 1303 249 L 1236 129 L 1357 174 z" fill="#0e2c6a" opacity="1.000"/>
<path d="M 1236 129 L 1212 104 L 1266 77 z" fill="#0a235c" opacity="1.000"/>
<path d="M 1236 129 L 1345 87 L 1357 174 z" fill="#0b255f" opacity="1.000"/>
<path d="M 1345 87 L 1236 129 L 1266 77 z" fill="#0a2159" opacity="1.000"/>
</svg>
