<?xml version="1.0" encoding="utf-8"?>
<svg xmlns="http://www.w3.org/2000/svg" width="1920" height="300"
     xmlns:xlink="http://www.w3.org/1999/xlink">
  <!-- created with "banners.py -blur True" -->
   
<defs><filter id="blur" x="0" y="0">""<feGaussianBlur in="SourceGraphic" stdDeviation="2" /></filter></defs><g filter="url(#blur)">
<path d="M 0 300 L 1127 289 L 1920 300 z" fill="#8d9ac4" opacity="1.000"/>
<path d="M 1920 0 L 657 21 L 0 0 z" fill="#364c96" opacity="1.000"/>
<path d="M 442 290 L 1127 289 L 0 300 z" fill="#a2accf" opacity="1.000"/>
<path d="M 241 289 L 442 290 L 0 300 z" fill="#b0b8d6" opacity="1.000"/>
<path d="M 442 290 L 738 276 L 1127 289 z" fill="#95a0c8" opacity="1.000"/>
<path d="M 14 122 L 0 300 L 0 0 z" fill="#8390be" opacity="1.000"/>
<path d="M 14 122 L 37 164 L 0 300 z" fill="#96a1c8" opacity="1.000"/>
<path d="M 37 164 L 51 218 L 0 300 z" fill="#a1abce" opacity="1.000"/>
<path d="M 1407 277 L 1654 255 L 1920 300 z" fill="#6b7bb2" opacity="1.000"/>
<path d="M 835 36 L 752 59 L 657 21 z" fill="#44589d" opacity="1.000"/>
<path d="M 738 276 L 881 268 L 1127 289 z" fill="#8c98c3" opacity="1.000"/>
<path d="M 61 175 L 51 218 L 37 164 z" fill="#919dc6" opacity="1.000"/>
<path d="M 14 122 L 33 137 L 37 164 z" fill="#8290be" opacity="1.000"/>
<path d="M 613 118 L 597 35 L 657 21 z" fill="#4f62a3" opacity="1.000"/>
<path d="M 597 35 L 327 36 L 657 21 z" fill="#495da0" opacity="1.000"/>
<path d="M 1472 256 L 1654 255 L 1407 277 z" fill="#6d7db3" opacity="1.000"/>
<path d="M 759 86 L 773 147 L 751 149 z" fill="#6172ad" opacity="1.000"/>
<path d="M 1909 71 L 1920 0 L 1920 300 z" fill="#334995" opacity="1.000"/>
<path d="M 1885 136 L 1909 71 L 1920 300 z" fill="#41559c" opacity="1.000"/>
<path d="M 1233 215 L 1253 270 L 1127 289 z" fill="#7987b9" opacity="1.000"/>
<path d="M 939 89 L 876 79 L 938 54 z" fill="#495da0" opacity="1.000"/>
<path d="M 939 89 L 1025 118 L 963 163 z" fill="#576aa8" opacity="1.000"/>
<path d="M 874 63 L 835 36 L 938 54 z" fill="#43589d" opacity="1.000"/>
<path d="M 876 79 L 874 63 L 938 54 z" fill="#475b9f" opacity="1.000"/>
<path d="M 892 171 L 939 89 L 963 163 z" fill="#5f70ac" opacity="1.000"/>
<path d="M 939 89 L 892 171 L 876 79 z" fill="#5769a7" opacity="1.000"/>
<path d="M 747 181 L 846 265 L 738 276 z" fill="#8693c0" opacity="1.000"/>
<path d="M 846 265 L 881 268 L 738 276 z" fill="#8d9ac4" opacity="1.000"/>
<path d="M 846 265 L 892 171 L 881 268 z" fill="#808dbd" opacity="1.000"/>
<path d="M 657 276 L 738 276 L 442 290 z" fill="#9aa5cb" opacity="1.000"/>
<path d="M 574 267 L 657 276 L 442 290 z" fill="#9ca6cb" opacity="1.000"/>
<path d="M 51 218 L 129 285 L 0 300 z" fill="#aeb7d5" opacity="1.000"/>
<path d="M 129 285 L 241 289 L 0 300 z" fill="#b4bcd8" opacity="1.000"/>
<path d="M 61 175 L 139 182 L 51 218 z" fill="#929ec6" opacity="1.000"/>
<path d="M 65 125 L 33 137 L 14 122 z" fill="#7d8bbb" opacity="1.000"/>
<path d="M 65 125 L 61 175 L 37 164 z" fill="#8693c0" opacity="1.000"/>
<path d="M 33 137 L 65 125 L 37 164 z" fill="#828fbe" opacity="1.000"/>
<path d="M 186 75 L 124 41 L 185 48 z" fill="#5e70ab" opacity="1.000"/>
<path d="M 186 75 L 209 106 L 170 125 z" fill="#6e7eb3" opacity="1.000"/>
<path d="M 525 82 L 597 35 L 613 118 z" fill="#576aa7" opacity="1.000"/>
<path d="M 597 35 L 525 82 L 503 71 z" fill="#5366a5" opacity="1.000"/>
<path d="M 561 185 L 525 82 L 613 118 z" fill="#6979b1" opacity="1.000"/>
<path d="M 525 82 L 561 185 L 502 113 z" fill="#6a7ab1" opacity="1.000"/>
<path d="M 129 285 L 199 268 L 241 289 z" fill="#adb6d4" opacity="1.000"/>
<path d="M 199 268 L 129 285 L 153 263 z" fill="#abb4d4" opacity="1.000"/>
<path d="M 241 289 L 337 287 L 442 290 z" fill="#a9b2d2" opacity="1.000"/>
<path d="M 261 255 L 337 287 L 241 289 z" fill="#a8b1d2" opacity="1.000"/>
<path d="M 247 24 L 327 36 L 289 92 z" fill="#586ba8" opacity="1.000"/>
<path d="M 657 21 L 247 24 L 0 0 z" fill="#4c5fa1" opacity="1.000"/>
<path d="M 327 36 L 247 24 L 657 21 z" fill="#4c5fa1" opacity="1.000"/>
<path d="M 752 59 L 698 103 L 657 21 z" fill="#4d60a2" opacity="1.000"/>
<path d="M 825 53 L 752 59 L 835 36 z" fill="#465a9e" opacity="1.000"/>
<path d="M 874 63 L 825 53 L 835 36 z" fill="#45599e" opacity="1.000"/>
<path d="M 825 53 L 874 63 L 876 79 z" fill="#495da0" opacity="1.000"/>
<path d="M 1779 27 L 1764 41 L 1601 45 z" fill="#223a8c" opacity="1.000"/>
<path d="M 1710 111 L 1738 152 L 1713 164 z" fill="#40559c" opacity="1.000"/>
<path d="M 1787 20 L 1779 27 L 1601 45 z" fill="#1f388b" opacity="1.000"/>
<path d="M 1496 35 L 1787 20 L 1601 45 z" fill="#233b8d" opacity="1.000"/>
<path d="M 1472 256 L 1437 239 L 1479 207 z" fill="#6677b0" opacity="1.000"/>
<path d="M 1437 239 L 1472 256 L 1407 277 z" fill="#6e7eb4" opacity="1.000"/>
<path d="M 1430 23 L 657 21 L 1920 0 z" fill="#283f8f" opacity="1.000"/>
<path d="M 1787 20 L 1430 23 L 1920 0 z" fill="#1b3488" opacity="1.000"/>
<path d="M 1430 23 L 1787 20 L 1496 35 z" fill="#233b8d" opacity="1.000"/>
<path d="M 1011 180 L 1025 118 L 1077 128 z" fill="#5b6daa" opacity="1.000"/>
<path d="M 1025 118 L 1011 180 L 963 163 z" fill="#6071ac" opacity="1.000"/>
<path d="M 835 36 L 1038 41 L 938 54 z" fill="#3f549b" opacity="1.000"/>
<path d="M 1025 118 L 1038 41 L 1077 128 z" fill="#4c5fa2" opacity="1.000"/>
<path d="M 1598 198 L 1472 256 L 1479 207 z" fill="#6071ac" opacity="1.000"/>
<path d="M 1472 256 L 1598 198 L 1654 255 z" fill="#6273ae" opacity="1.000"/>
<path d="M 892 171 L 760 172 L 773 147 z" fill="#6b7bb2" opacity="1.000"/>
<path d="M 846 265 L 760 172 L 892 171 z" fill="#7786b8" opacity="1.000"/>
<path d="M 760 172 L 846 265 L 747 181 z" fill="#7a88ba" opacity="1.000"/>
<path d="M 773 147 L 760 172 L 751 149 z" fill="#6a7bb2" opacity="1.000"/>
<path d="M 760 172 L 747 181 L 751 149 z" fill="#6e7eb4" opacity="1.000"/>
<path d="M 130 142 L 139 182 L 61 175 z" fill="#8895c1" opacity="1.000"/>
<path d="M 130 142 L 65 125 L 113 114 z" fill="#7a89ba" opacity="1.000"/>
<path d="M 65 125 L 130 142 L 61 175 z" fill="#8290be" opacity="1.000"/>
<path d="M 170 125 L 130 142 L 113 114 z" fill="#7987b9" opacity="1.000"/>
<path d="M 143 182 L 170 125 L 203 167 z" fill="#8390be" opacity="1.000"/>
<path d="M 143 182 L 130 142 L 170 125 z" fill="#818ebd" opacity="1.000"/>
<path d="M 130 142 L 143 182 L 139 182 z" fill="#8895c1" opacity="1.000"/>
<path d="M 139 182 L 137 238 L 51 218 z" fill="#98a3ca" opacity="1.000"/>
<path d="M 137 238 L 129 285 L 51 218 z" fill="#a5aed0" opacity="1.000"/>
<path d="M 129 285 L 137 238 L 153 263 z" fill="#a9b2d2" opacity="1.000"/>
<path d="M 143 182 L 137 238 L 139 182 z" fill="#939fc7" opacity="1.000"/>
<path d="M 186 75 L 118 85 L 124 41 z" fill="#6374ae" opacity="1.000"/>
<path d="M 118 85 L 170 125 L 113 114 z" fill="#7282b5" opacity="1.000"/>
<path d="M 118 85 L 186 75 L 170 125 z" fill="#6d7db3" opacity="1.000"/>
<path d="M 118 85 L 88 65 L 124 41 z" fill="#6374ae" opacity="1.000"/>
<path d="M 65 125 L 88 65 L 113 114 z" fill="#7281b5" opacity="1.000"/>
<path d="M 88 65 L 118 85 L 113 114 z" fill="#6c7cb2" opacity="1.000"/>
<path d="M 233 280 L 261 255 L 241 289 z" fill="#a9b2d2" opacity="1.000"/>
<path d="M 199 268 L 233 280 L 241 289 z" fill="#abb4d3" opacity="1.000"/>
<path d="M 233 280 L 199 268 L 261 255 z" fill="#a7b0d1" opacity="1.000"/>
<path d="M 199 268 L 185 210 L 261 255 z" fill="#9fa9cd" opacity="1.000"/>
<path d="M 185 210 L 143 182 L 203 167 z" fill="#8c99c3" opacity="1.000"/>
<path d="M 185 210 L 137 238 L 143 182 z" fill="#96a1c8" opacity="1.000"/>
<path d="M 185 210 L 199 268 L 153 263 z" fill="#a2acce" opacity="1.000"/>
<path d="M 137 238 L 185 210 L 153 263 z" fill="#9fa9cd" opacity="1.000"/>
<path d="M 266 99 L 247 24 L 289 92 z" fill="#6172ac" opacity="1.000"/>
<path d="M 266 99 L 219 124 L 209 106 z" fill="#6f7fb4" opacity="1.000"/>
<path d="M 186 75 L 231 24 L 209 106 z" fill="#6173ad" opacity="1.000"/>
<path d="M 231 24 L 266 99 L 209 106 z" fill="#6374ae" opacity="1.000"/>
<path d="M 266 99 L 231 24 L 247 24 z" fill="#596ba8" opacity="1.000"/>
<path d="M 231 24 L 186 75 L 185 48 z" fill="#5b6da9" opacity="1.000"/>
<path d="M 124 41 L 231 24 L 185 48 z" fill="#586aa7" opacity="1.000"/>
<path d="M 247 24 L 231 24 L 0 0 z" fill="#5164a4" opacity="1.000"/>
<path d="M 457 101 L 502 113 L 470 176 z" fill="#6d7db3" opacity="1.000"/>
<path d="M 420 58 L 422 82 L 327 36 z" fill="#586aa7" opacity="1.000"/>
<path d="M 420 58 L 597 35 L 503 71 z" fill="#5265a5" opacity="1.000"/>
<path d="M 420 58 L 327 36 L 597 35 z" fill="#5063a4" opacity="1.000"/>
<path d="M 1853 211 L 1885 136 L 1920 300 z" fill="#4f62a4" opacity="1.000"/>
<path d="M 1845 239 L 1853 211 L 1920 300 z" fill="#596ba9" opacity="1.000"/>
<path d="M 1654 255 L 1817 267 L 1920 300 z" fill="#6375ae" opacity="1.000"/>
<path d="M 1817 267 L 1845 239 L 1920 300 z" fill="#5f71ac" opacity="1.000"/>
<path d="M 1660 228 L 1754 215 L 1654 255 z" fill="#5c6eaa" opacity="1.000"/>
<path d="M 1660 228 L 1682 203 L 1754 215 z" fill="#5769a8" opacity="1.000"/>
<path d="M 719 110 L 759 86 L 751 149 z" fill="#5d6fab" opacity="1.000"/>
<path d="M 759 86 L 719 110 L 752 59 z" fill="#5466a6" opacity="1.000"/>
<path d="M 719 110 L 698 103 L 752 59 z" fill="#5669a7" opacity="1.000"/>
<path d="M 760 68 L 759 86 L 752 59 z" fill="#4e62a3" opacity="1.000"/>
<path d="M 825 53 L 760 68 L 752 59 z" fill="#4a5ea1" opacity="1.000"/>
<path d="M 759 86 L 771 87 L 773 147 z" fill="#5a6ca9" opacity="1.000"/>
<path d="M 760 68 L 771 87 L 759 86 z" fill="#5164a4" opacity="1.000"/>
<path d="M 771 87 L 760 68 L 825 53 z" fill="#4d60a2" opacity="1.000"/>
<path d="M 1909 71 L 1841 40 L 1920 0 z" fill="#1b3489" opacity="1.000"/>
<path d="M 1841 40 L 1787 20 L 1920 0 z" fill="#183187" opacity="1.000"/>
<path d="M 1764 41 L 1622 86 L 1601 45 z" fill="#294090" opacity="1.000"/>
<path d="M 1682 203 L 1640 172 L 1713 164 z" fill="#4d60a3" opacity="1.000"/>
<path d="M 1738 152 L 1735 197 L 1713 164 z" fill="#485ca0" opacity="1.000"/>
<path d="M 1735 197 L 1738 152 L 1754 215 z" fill="#4d60a2" opacity="1.000"/>
<path d="M 1735 197 L 1682 203 L 1713 164 z" fill="#4e61a3" opacity="1.000"/>
<path d="M 1682 203 L 1735 197 L 1754 215 z" fill="#5265a5" opacity="1.000"/>
<path d="M 1764 41 L 1772 101 L 1710 111 z" fill="#2e4592" opacity="1.000"/>
<path d="M 1772 101 L 1738 152 L 1710 111 z" fill="#394f98" opacity="1.000"/>
<path d="M 1253 270 L 1320 280 L 1127 289 z" fill="#7e8cbc" opacity="1.000"/>
<path d="M 1127 289 L 1320 280 L 1920 300 z" fill="#7786b9" opacity="1.000"/>
<path d="M 1320 280 L 1407 277 L 1920 300 z" fill="#7282b6" opacity="1.000"/>
<path d="M 1310 211 L 1253 270 L 1233 215 z" fill="#6e7eb4" opacity="1.000"/>
<path d="M 881 268 L 1082 278 L 1127 289 z" fill="#8794c1" opacity="1.000"/>
<path d="M 1040 262 L 1082 278 L 881 268 z" fill="#8593c0" opacity="1.000"/>
<path d="M 921 231 L 1040 262 L 881 268 z" fill="#8390be" opacity="1.000"/>
<path d="M 921 231 L 892 171 L 963 163 z" fill="#6e7eb4" opacity="1.000"/>
<path d="M 892 171 L 921 231 L 881 268 z" fill="#7b89ba" opacity="1.000"/>
<path d="M 1040 262 L 1017 206 L 1066 217 z" fill="#7685b8" opacity="1.000"/>
<path d="M 1017 206 L 1011 180 L 1066 217 z" fill="#6e7eb4" opacity="1.000"/>
<path d="M 1010 60 L 939 89 L 938 54 z" fill="#465a9e" opacity="1.000"/>
<path d="M 1038 41 L 1010 60 L 938 54 z" fill="#3f549b" opacity="1.000"/>
<path d="M 939 89 L 1010 60 L 1025 118 z" fill="#4c5fa2" opacity="1.000"/>
<path d="M 1010 60 L 1038 41 L 1025 118 z" fill="#45599e" opacity="1.000"/>
<path d="M 1038 41 L 1111 82 L 1077 128 z" fill="#475b9f" opacity="1.000"/>
<path d="M 1111 82 L 1104 131 L 1077 128 z" fill="#5063a4" opacity="1.000"/>
<path d="M 1104 131 L 1111 82 L 1171 117 z" fill="#4d61a2" opacity="1.000"/>
<path d="M 1104 131 L 1085 201 L 1077 128 z" fill="#5c6eaa" opacity="1.000"/>
<path d="M 1085 201 L 1011 180 L 1077 128 z" fill="#6374ae" opacity="1.000"/>
<path d="M 1011 180 L 1085 201 L 1066 217 z" fill="#6d7db3" opacity="1.000"/>
<path d="M 1430 23 L 1335 99 L 1190 35 z" fill="#344a95" opacity="1.000"/>
<path d="M 1492 127 L 1450 100 L 1496 35 z" fill="#394e98" opacity="1.000"/>
<path d="M 1528 43 L 1492 127 L 1496 35 z" fill="#324894" opacity="1.000"/>
<path d="M 1528 43 L 1496 35 L 1601 45 z" fill="#29408f" opacity="1.000"/>
<path d="M 1572 70 L 1528 43 L 1601 45 z" fill="#2b4291" opacity="1.000"/>
<path d="M 1492 127 L 1574 97 L 1534 144 z" fill="#42569d" opacity="1.000"/>
<path d="M 1574 97 L 1528 43 L 1572 70 z" fill="#314794" opacity="1.000"/>
<path d="M 1528 43 L 1574 97 L 1492 127 z" fill="#374d97" opacity="1.000"/>
<path d="M 1492 127 L 1523 148 L 1479 207 z" fill="#4e62a3" opacity="1.000"/>
<path d="M 1523 148 L 1492 127 L 1534 144 z" fill="#475ba0" opacity="1.000"/>
<path d="M 1523 148 L 1598 198 L 1479 207 z" fill="#5467a6" opacity="1.000"/>
<path d="M 1598 198 L 1523 148 L 1534 144 z" fill="#4d61a3" opacity="1.000"/>
<path d="M 657 276 L 709 271 L 738 276 z" fill="#94a0c8" opacity="1.000"/>
<path d="M 675 189 L 709 271 L 657 276 z" fill="#8b98c3" opacity="1.000"/>
<path d="M 709 271 L 747 181 L 738 276 z" fill="#8895c1" opacity="1.000"/>
<path d="M 709 271 L 675 189 L 747 181 z" fill="#808dbd" opacity="1.000"/>
<path d="M 649 123 L 613 118 L 657 21 z" fill="#586aa8" opacity="1.000"/>
<path d="M 698 103 L 649 123 L 657 21 z" fill="#5568a7" opacity="1.000"/>
<path d="M 598 238 L 657 276 L 574 267 z" fill="#949fc7" opacity="1.000"/>
<path d="M 598 238 L 675 189 L 657 276 z" fill="#8996c2" opacity="1.000"/>
<path d="M 530 208 L 598 238 L 574 267 z" fill="#8e9ac4" opacity="1.000"/>
<path d="M 502 113 L 519 198 L 470 176 z" fill="#7786b8" opacity="1.000"/>
<path d="M 561 185 L 519 198 L 502 113 z" fill="#7786b8" opacity="1.000"/>
<path d="M 530 208 L 519 198 L 561 185 z" fill="#818fbe" opacity="1.000"/>
<path d="M 209 106 L 198 134 L 170 125 z" fill="#7584b7" opacity="1.000"/>
<path d="M 219 124 L 198 134 L 209 106 z" fill="#7483b6" opacity="1.000"/>
<path d="M 170 125 L 198 134 L 203 167 z" fill="#7c8abb" opacity="1.000"/>
<path d="M 198 134 L 219 124 L 203 167 z" fill="#7b8aba" opacity="1.000"/>
<path d="M 88 65 L 59 14 L 124 41 z" fill="#5c6da9" opacity="1.000"/>
<path d="M 231 24 L 59 14 L 0 0 z" fill="#5265a4" opacity="1.000"/>
<path d="M 59 14 L 231 24 L 124 41 z" fill="#5568a6" opacity="1.000"/>
<path d="M 294 197 L 266 99 L 289 92 z" fill="#7483b6" opacity="1.000"/>
<path d="M 266 99 L 294 197 L 219 124 z" fill="#7987b9" opacity="1.000"/>
<path d="M 457 101 L 406 128 L 422 82 z" fill="#6676af" opacity="1.000"/>
<path d="M 412 172 L 406 128 L 470 176 z" fill="#7887b9" opacity="1.000"/>
<path d="M 406 128 L 457 101 L 470 176 z" fill="#707fb4" opacity="1.000"/>
<path d="M 327 36 L 406 128 L 289 92 z" fill="#6374ad" opacity="1.000"/>
<path d="M 422 82 L 406 128 L 327 36 z" fill="#6071ac" opacity="1.000"/>
<path d="M 457 101 L 499 77 L 502 113 z" fill="#6172ad" opacity="1.000"/>
<path d="M 525 82 L 499 77 L 503 71 z" fill="#596ba9" opacity="1.000"/>
<path d="M 499 77 L 525 82 L 502 113 z" fill="#5e70ab" opacity="1.000"/>
<path d="M 441 73 L 457 101 L 422 82 z" fill="#5f70ab" opacity="1.000"/>
<path d="M 420 58 L 441 73 L 422 82 z" fill="#5a6ca9" opacity="1.000"/>
<path d="M 441 73 L 499 77 L 457 101 z" fill="#5d6fab" opacity="1.000"/>
<path d="M 441 73 L 420 58 L 503 71 z" fill="#586aa8" opacity="1.000"/>
<path d="M 499 77 L 441 73 L 503 71 z" fill="#596ba8" opacity="1.000"/>
<path d="M 1817 267 L 1790 251 L 1845 239 z" fill="#5c6eab" opacity="1.000"/>
<path d="M 1790 251 L 1853 211 L 1845 239 z" fill="#5669a8" opacity="1.000"/>
<path d="M 1853 211 L 1790 251 L 1754 215 z" fill="#5568a7" opacity="1.000"/>
<path d="M 1754 215 L 1790 251 L 1654 255 z" fill="#5c6eab" opacity="1.000"/>
<path d="M 1790 251 L 1817 267 L 1654 255 z" fill="#6172ad" opacity="1.000"/>
<path d="M 719 124 L 719 110 L 751 149 z" fill="#6273ad" opacity="1.000"/>
<path d="M 747 181 L 719 124 L 751 149 z" fill="#6a7ab1" opacity="1.000"/>
<path d="M 675 189 L 719 124 L 747 181 z" fill="#6f7fb4" opacity="1.000"/>
<path d="M 719 110 L 719 124 L 698 103 z" fill="#5e6fab" opacity="1.000"/>
<path d="M 719 124 L 649 123 L 698 103 z" fill="#6071ac" opacity="1.000"/>
<path d="M 649 123 L 719 124 L 675 189 z" fill="#6a7ab1" opacity="1.000"/>
<path d="M 803 95 L 825 53 L 876 79 z" fill="#4d60a2" opacity="1.000"/>
<path d="M 803 95 L 771 87 L 825 53 z" fill="#4f62a3" opacity="1.000"/>
<path d="M 771 87 L 803 95 L 773 147 z" fill="#5a6ca9" opacity="1.000"/>
<path d="M 803 95 L 892 171 L 773 147 z" fill="#6273ad" opacity="1.000"/>
<path d="M 892 171 L 803 95 L 876 79 z" fill="#596ba9" opacity="1.000"/>
<path d="M 1680 114 L 1640 172 L 1627 128 z" fill="#42569d" opacity="1.000"/>
<path d="M 1680 114 L 1764 41 L 1710 111 z" fill="#304794" opacity="1.000"/>
<path d="M 1680 114 L 1622 86 L 1764 41 z" fill="#2f4693" opacity="1.000"/>
<path d="M 1680 114 L 1710 111 L 1713 164 z" fill="#3d529a" opacity="1.000"/>
<path d="M 1640 172 L 1680 114 L 1713 164 z" fill="#44599e" opacity="1.000"/>
<path d="M 1597 63 L 1572 70 L 1601 45 z" fill="#2c4391" opacity="1.000"/>
<path d="M 1622 86 L 1597 63 L 1601 45 z" fill="#2d4492" opacity="1.000"/>
<path d="M 1660 228 L 1635 210 L 1682 203 z" fill="#586aa8" opacity="1.000"/>
<path d="M 1635 210 L 1640 172 L 1682 203 z" fill="#5265a5" opacity="1.000"/>
<path d="M 1640 172 L 1635 210 L 1619 195 z" fill="#5365a5" opacity="1.000"/>
<path d="M 1635 210 L 1660 228 L 1654 255 z" fill="#5d6fab" opacity="1.000"/>
<path d="M 1598 198 L 1635 210 L 1654 255 z" fill="#5b6daa" opacity="1.000"/>
<path d="M 1635 210 L 1598 198 L 1619 195 z" fill="#5668a7" opacity="1.000"/>
<path d="M 1780 57 L 1772 101 L 1764 41 z" fill="#283f8f" opacity="1.000"/>
<path d="M 1772 101 L 1835 140 L 1738 152 z" fill="#3a5099" opacity="1.000"/>
<path d="M 1738 152 L 1835 140 L 1754 215 z" fill="#465a9f" opacity="1.000"/>
<path d="M 1835 140 L 1853 211 L 1754 215 z" fill="#4a5ea1" opacity="1.000"/>
<path d="M 1853 211 L 1835 140 L 1885 136 z" fill="#41559c" opacity="1.000"/>
<path d="M 1423 166 L 1359 187 L 1384 141 z" fill="#5467a6" opacity="1.000"/>
<path d="M 1437 239 L 1423 166 L 1479 207 z" fill="#5e6fab" opacity="1.000"/>
<path d="M 1405 251 L 1437 239 L 1407 277 z" fill="#6f7fb4" opacity="1.000"/>
<path d="M 1405 251 L 1423 166 L 1437 239 z" fill="#6374ae" opacity="1.000"/>
<path d="M 1423 166 L 1405 251 L 1359 187 z" fill="#5f70ac" opacity="1.000"/>
<path d="M 1320 280 L 1405 251 L 1407 277 z" fill="#7584b7" opacity="1.000"/>
<path d="M 1319 211 L 1359 187 L 1334 218 z" fill="#6374ae" opacity="1.000"/>
<path d="M 1324 228 L 1320 280 L 1253 270 z" fill="#7584b7" opacity="1.000"/>
<path d="M 1310 211 L 1324 228 L 1253 270 z" fill="#6e7eb4" opacity="1.000"/>
<path d="M 1324 228 L 1319 211 L 1334 218 z" fill="#6778b0" opacity="1.000"/>
<path d="M 1319 211 L 1324 228 L 1310 211 z" fill="#6778b0" opacity="1.000"/>
<path d="M 1082 236 L 1040 262 L 1066 217 z" fill="#7987b9" opacity="1.000"/>
<path d="M 1082 236 L 1082 278 L 1040 262 z" fill="#7f8dbd" opacity="1.000"/>
<path d="M 1085 201 L 1082 236 L 1066 217 z" fill="#7281b6" opacity="1.000"/>
<path d="M 1082 278 L 1082 236 L 1127 289 z" fill="#818ebd" opacity="1.000"/>
<path d="M 921 231 L 1003 226 L 1040 262 z" fill="#7c8bbb" opacity="1.000"/>
<path d="M 1003 226 L 1017 206 L 1040 262 z" fill="#7887b9" opacity="1.000"/>
<path d="M 1205 62 L 1211 88 L 1171 117 z" fill="#44589e" opacity="1.000"/>
<path d="M 1205 62 L 1168 34 L 1190 35 z" fill="#364c96" opacity="1.000"/>
<path d="M 1335 99 L 1205 62 L 1190 35 z" fill="#3b5099" opacity="1.000"/>
<path d="M 1205 62 L 1335 99 L 1211 88 z" fill="#40559c" opacity="1.000"/>
<path d="M 1123 29 L 1111 82 L 1038 41 z" fill="#3c5199" opacity="1.000"/>
<path d="M 1123 29 L 1038 41 L 835 36 z" fill="#3a4f98" opacity="1.000"/>
<path d="M 1123 29 L 835 36 L 657 21 z" fill="#3c5299" opacity="1.000"/>
<path d="M 1430 23 L 1123 29 L 657 21 z" fill="#344a95" opacity="1.000"/>
<path d="M 1123 29 L 1430 23 L 1190 35 z" fill="#2f4693" opacity="1.000"/>
<path d="M 1168 34 L 1123 29 L 1190 35 z" fill="#344a95" opacity="1.000"/>
<path d="M 1111 82 L 1150 59 L 1171 117 z" fill="#45599e" opacity="1.000"/>
<path d="M 1150 59 L 1205 62 L 1171 117 z" fill="#42569c" opacity="1.000"/>
<path d="M 1205 62 L 1150 59 L 1168 34 z" fill="#394f98" opacity="1.000"/>
<path d="M 1150 59 L 1123 29 L 1168 34 z" fill="#374c97" opacity="1.000"/>
<path d="M 1123 29 L 1150 59 L 1111 82 z" fill="#3c519a" opacity="1.000"/>
<path d="M 1160 172 L 1233 215 L 1127 289 z" fill="#707fb5" opacity="1.000"/>
<path d="M 1082 236 L 1160 172 L 1127 289 z" fill="#7483b7" opacity="1.000"/>
<path d="M 1160 172 L 1082 236 L 1085 201 z" fill="#6b7cb2" opacity="1.000"/>
<path d="M 1359 187 L 1331 132 L 1384 141 z" fill="#5265a5" opacity="1.000"/>
<path d="M 1331 132 L 1335 99 L 1384 141 z" fill="#495da0" opacity="1.000"/>
<path d="M 1211 88 L 1195 136 L 1171 117 z" fill="#4c5fa2" opacity="1.000"/>
<path d="M 1195 136 L 1250 143 L 1233 215 z" fill="#5b6caa" opacity="1.000"/>
<path d="M 1160 172 L 1195 136 L 1233 215 z" fill="#5f70ac" opacity="1.000"/>
<path d="M 1296 155 L 1310 211 L 1233 215 z" fill="#6173ad" opacity="1.000"/>
<path d="M 1296 155 L 1319 211 L 1310 211 z" fill="#6071ac" opacity="1.000"/>
<path d="M 1319 211 L 1296 155 L 1359 187 z" fill="#5d6eab" opacity="1.000"/>
<path d="M 1296 155 L 1331 132 L 1359 187 z" fill="#5467a6" opacity="1.000"/>
<path d="M 1335 99 L 1270 133 L 1211 88 z" fill="#475b9f" opacity="1.000"/>
<path d="M 1331 132 L 1270 133 L 1335 99 z" fill="#4a5da1" opacity="1.000"/>
<path d="M 1296 155 L 1270 133 L 1331 132 z" fill="#5063a4" opacity="1.000"/>
<path d="M 1335 99 L 1390 87 L 1384 141 z" fill="#44589e" opacity="1.000"/>
<path d="M 598 238 L 641 166 L 675 189 z" fill="#7d8bbb" opacity="1.000"/>
<path d="M 641 166 L 561 185 L 613 118 z" fill="#7180b5" opacity="1.000"/>
<path d="M 649 123 L 641 166 L 613 118 z" fill="#6979b1" opacity="1.000"/>
<path d="M 641 166 L 649 123 L 675 189 z" fill="#707fb4" opacity="1.000"/>
<path d="M 563 193 L 530 208 L 561 185 z" fill="#808ebd" opacity="1.000"/>
<path d="M 563 193 L 598 238 L 530 208 z" fill="#8693c0" opacity="1.000"/>
<path d="M 641 166 L 563 193 L 561 185 z" fill="#7a88ba" opacity="1.000"/>
<path d="M 563 193 L 641 166 L 598 238 z" fill="#7f8dbc" opacity="1.000"/>
<path d="M 25 80 L 65 125 L 14 122 z" fill="#7685b8" opacity="1.000"/>
<path d="M 25 80 L 88 65 L 65 125 z" fill="#6f7eb3" opacity="1.000"/>
<path d="M 25 80 L 14 122 L 0 0 z" fill="#6879b0" opacity="1.000"/>
<path d="M 458 242 L 412 172 L 470 176 z" fill="#8592bf" opacity="1.000"/>
<path d="M 458 242 L 419 258 L 412 172 z" fill="#8f9bc5" opacity="1.000"/>
<path d="M 519 198 L 458 242 L 470 176 z" fill="#8693c0" opacity="1.000"/>
<path d="M 458 242 L 519 198 L 530 208 z" fill="#8996c2" opacity="1.000"/>
<path d="M 458 242 L 574 267 L 442 290 z" fill="#9ba6cb" opacity="1.000"/>
<path d="M 458 242 L 530 208 L 574 267 z" fill="#909cc5" opacity="1.000"/>
<path d="M 438 281 L 458 242 L 442 290 z" fill="#9ea9cd" opacity="1.000"/>
<path d="M 458 242 L 438 281 L 419 258 z" fill="#9ba6cb" opacity="1.000"/>
<path d="M 281 207 L 337 287 L 261 255 z" fill="#9ea8cc" opacity="1.000"/>
<path d="M 281 207 L 294 197 L 337 287 z" fill="#96a2c9" opacity="1.000"/>
<path d="M 281 207 L 185 210 L 203 167 z" fill="#8d9ac4" opacity="1.000"/>
<path d="M 185 210 L 281 207 L 261 255 z" fill="#97a2c9" opacity="1.000"/>
<path d="M 219 124 L 281 207 L 203 167 z" fill="#8390be" opacity="1.000"/>
<path d="M 294 197 L 281 207 L 219 124 z" fill="#8592bf" opacity="1.000"/>
<path d="M 294 197 L 372 239 L 337 287 z" fill="#99a4ca" opacity="1.000"/>
<path d="M 1624 94 L 1680 114 L 1627 128 z" fill="#3a5099" opacity="1.000"/>
<path d="M 1680 114 L 1624 94 L 1622 86 z" fill="#364c97" opacity="1.000"/>
<path d="M 1586 109 L 1624 94 L 1627 128 z" fill="#3b5099" opacity="1.000"/>
<path d="M 1574 97 L 1588 99 L 1586 109 z" fill="#394f98" opacity="1.000"/>
<path d="M 1588 99 L 1597 63 L 1622 86 z" fill="#334995" opacity="1.000"/>
<path d="M 1588 99 L 1574 97 L 1572 70 z" fill="#364c96" opacity="1.000"/>
<path d="M 1597 63 L 1588 99 L 1572 70 z" fill="#324894" opacity="1.000"/>
<path d="M 1624 94 L 1588 99 L 1622 86 z" fill="#364c96" opacity="1.000"/>
<path d="M 1588 99 L 1624 94 L 1586 109 z" fill="#384e98" opacity="1.000"/>
<path d="M 1845 57 L 1780 57 L 1841 40 z" fill="#223a8c" opacity="1.000"/>
<path d="M 1780 57 L 1845 57 L 1772 101 z" fill="#284090" opacity="1.000"/>
<path d="M 1845 57 L 1835 140 L 1772 101 z" fill="#304693" opacity="1.000"/>
<path d="M 1835 140 L 1845 57 L 1885 136 z" fill="#324894" opacity="1.000"/>
<path d="M 1845 57 L 1909 71 L 1885 136 z" fill="#2a4190" opacity="1.000"/>
<path d="M 1845 57 L 1841 40 L 1909 71 z" fill="#223a8c" opacity="1.000"/>
<path d="M 1841 40 L 1784 34 L 1787 20 z" fill="#1d3589" opacity="1.000"/>
<path d="M 1780 57 L 1784 34 L 1841 40 z" fill="#20388b" opacity="1.000"/>
<path d="M 1787 20 L 1784 34 L 1779 27 z" fill="#1c3589" opacity="1.000"/>
<path d="M 1784 34 L 1764 41 L 1779 27 z" fill="#1e378a" opacity="1.000"/>
<path d="M 1784 34 L 1780 57 L 1764 41 z" fill="#21398c" opacity="1.000"/>
<path d="M 1438 141 L 1450 100 L 1492 127 z" fill="#44599e" opacity="1.000"/>
<path d="M 1438 141 L 1492 127 L 1479 207 z" fill="#4f62a3" opacity="1.000"/>
<path d="M 1423 166 L 1438 141 L 1479 207 z" fill="#5466a6" opacity="1.000"/>
<path d="M 1438 141 L 1423 166 L 1384 141 z" fill="#4e62a3" opacity="1.000"/>
<path d="M 1390 87 L 1438 141 L 1384 141 z" fill="#475b9f" opacity="1.000"/>
<path d="M 1438 141 L 1390 87 L 1450 100 z" fill="#42569d" opacity="1.000"/>
<path d="M 1342 219 L 1405 251 L 1320 280 z" fill="#707fb5" opacity="1.000"/>
<path d="M 1324 228 L 1342 219 L 1320 280 z" fill="#6e7eb4" opacity="1.000"/>
<path d="M 1342 219 L 1324 228 L 1334 218 z" fill="#6878b1" opacity="1.000"/>
<path d="M 1359 187 L 1342 219 L 1334 218 z" fill="#6374ae" opacity="1.000"/>
<path d="M 1405 251 L 1342 219 L 1359 187 z" fill="#6676af" opacity="1.000"/>
<path d="M 1017 206 L 1002 207 L 1011 180 z" fill="#6e7eb4" opacity="1.000"/>
<path d="M 1003 226 L 1002 207 L 1017 206 z" fill="#7382b6" opacity="1.000"/>
<path d="M 1011 180 L 1002 207 L 963 163 z" fill="#6a7ab1" opacity="1.000"/>
<path d="M 1002 207 L 921 231 L 963 163 z" fill="#7180b5" opacity="1.000"/>
<path d="M 1002 207 L 1003 226 L 921 231 z" fill="#7786b8" opacity="1.000"/>
<path d="M 1154 159 L 1085 201 L 1104 131 z" fill="#5f70ac" opacity="1.000"/>
<path d="M 1154 159 L 1160 172 L 1085 201 z" fill="#6273ae" opacity="1.000"/>
<path d="M 1154 159 L 1104 131 L 1171 117 z" fill="#5567a6" opacity="1.000"/>
<path d="M 1195 136 L 1154 159 L 1171 117 z" fill="#5467a6" opacity="1.000"/>
<path d="M 1154 159 L 1195 136 L 1160 172 z" fill="#5a6ca9" opacity="1.000"/>
<path d="M 1270 133 L 1251 140 L 1211 88 z" fill="#4c5fa2" opacity="1.000"/>
<path d="M 1251 140 L 1195 136 L 1211 88 z" fill="#4d61a3" opacity="1.000"/>
<path d="M 1195 136 L 1251 140 L 1250 143 z" fill="#5265a5" opacity="1.000"/>
<path d="M 1259 142 L 1270 133 L 1296 155 z" fill="#5265a5" opacity="1.000"/>
<path d="M 1250 143 L 1259 142 L 1233 215 z" fill="#5a6ca9" opacity="1.000"/>
<path d="M 1259 142 L 1296 155 L 1233 215 z" fill="#5b6daa" opacity="1.000"/>
<path d="M 1251 140 L 1259 142 L 1250 143 z" fill="#5265a5" opacity="1.000"/>
<path d="M 1259 142 L 1251 140 L 1270 133 z" fill="#5164a4" opacity="1.000"/>
<path d="M 1572 145 L 1598 198 L 1534 144 z" fill="#4c60a2" opacity="1.000"/>
<path d="M 1572 145 L 1579 147 L 1598 198 z" fill="#4c5fa2" opacity="1.000"/>
<path d="M 1574 97 L 1572 145 L 1534 144 z" fill="#42579d" opacity="1.000"/>
<path d="M 1572 145 L 1574 97 L 1586 109 z" fill="#3e539b" opacity="1.000"/>
<path d="M 1579 147 L 1572 145 L 1586 109 z" fill="#43589d" opacity="1.000"/>
<path d="M 1597 140 L 1586 109 L 1627 128 z" fill="#40559c" opacity="1.000"/>
<path d="M 1597 140 L 1579 147 L 1586 109 z" fill="#42579d" opacity="1.000"/>
<path d="M 1390 87 L 1425 35 L 1450 100 z" fill="#374d97" opacity="1.000"/>
<path d="M 1425 35 L 1430 23 L 1496 35 z" fill="#294090" opacity="1.000"/>
<path d="M 1450 100 L 1425 35 L 1496 35 z" fill="#304794" opacity="1.000"/>
<path d="M 1425 35 L 1335 99 L 1430 23 z" fill="#314894" opacity="1.000"/>
<path d="M 1425 35 L 1390 87 L 1335 99 z" fill="#384e98" opacity="1.000"/>
<path d="M 50 14 L 59 14 L 88 65 z" fill="#596ba8" opacity="1.000"/>
<path d="M 25 80 L 50 14 L 88 65 z" fill="#6273ad" opacity="1.000"/>
<path d="M 59 14 L 50 14 L 0 0 z" fill="#5365a5" opacity="1.000"/>
<path d="M 50 14 L 25 80 L 0 0 z" fill="#5b6da9" opacity="1.000"/>
<path d="M 372 239 L 353 280 L 337 287 z" fill="#a2acce" opacity="1.000"/>
<path d="M 353 280 L 372 239 L 419 258 z" fill="#9da8cc" opacity="1.000"/>
<path d="M 438 281 L 353 280 L 419 258 z" fill="#a1abce" opacity="1.000"/>
<path d="M 419 258 L 379 236 L 412 172 z" fill="#8f9bc5" opacity="1.000"/>
<path d="M 372 239 L 379 236 L 419 258 z" fill="#98a3c9" opacity="1.000"/>
<path d="M 1640 172 L 1618 171 L 1627 128 z" fill="#485ca0" opacity="1.000"/>
<path d="M 1618 171 L 1597 140 L 1627 128 z" fill="#465a9f" opacity="1.000"/>
<path d="M 1618 171 L 1640 172 L 1619 195 z" fill="#4f62a4" opacity="1.000"/>
<path d="M 1579 147 L 1618 171 L 1598 198 z" fill="#4e61a3" opacity="1.000"/>
<path d="M 1597 140 L 1618 171 L 1579 147 z" fill="#485ca0" opacity="1.000"/>
<path d="M 337 287 L 349 283 L 442 290 z" fill="#a7b0d1" opacity="1.000"/>
<path d="M 353 280 L 349 283 L 337 287 z" fill="#a7b0d1" opacity="1.000"/>
<path d="M 352 282 L 438 281 L 442 290 z" fill="#a4aed0" opacity="1.000"/>
<path d="M 352 282 L 353 280 L 438 281 z" fill="#a5aed0" opacity="1.000"/>
<path d="M 349 283 L 352 282 L 442 290 z" fill="#a6b0d1" opacity="1.000"/>
<path d="M 352 282 L 349 283 L 353 280 z" fill="#a6b0d1" opacity="1.000"/>
<path d="M 351 182 L 372 239 L 294 197 z" fill="#8d99c3" opacity="1.000"/>
<path d="M 351 182 L 379 236 L 372 239 z" fill="#909cc5" opacity="1.000"/>
<path d="M 351 182 L 294 197 L 289 92 z" fill="#7d8bbb" opacity="1.000"/>
<path d="M 406 128 L 351 182 L 289 92 z" fill="#7382b6" opacity="1.000"/>
<path d="M 1598 198 L 1607 194 L 1619 195 z" fill="#5467a6" opacity="1.000"/>
<path d="M 1607 194 L 1618 171 L 1619 195 z" fill="#5265a5" opacity="1.000"/>
<path d="M 1618 171 L 1607 194 L 1598 198 z" fill="#5265a5" opacity="1.000"/>
<path d="M 379 236 L 406 169 L 412 172 z" fill="#8592c0" opacity="1.000"/>
<path d="M 351 182 L 406 169 L 379 236 z" fill="#8794c1" opacity="1.000"/>
<path d="M 406 169 L 406 128 L 412 172 z" fill="#7987b9" opacity="1.000"/>
<path d="M 406 169 L 351 182 L 406 128 z" fill="#7a89ba" opacity="1.000"/>
</g></svg>
