<?xml version="1.0" encoding="utf-8"?>
<svg xmlns="http://www.w3.org/2000/svg" width="1920" height="300"
     xmlns:xlink="http://www.w3.org/1999/xlink">
  <!-- created with "banners.py -colors=32908F,FDFDFD,04120D,256969" -->
   
<path d="M 0 300 L 818 288 L 1920 300 z" fill="#94b5b5" opacity="1.000"/>
<path d="M 818 288 L 974 286 L 1920 300 z" fill="#6f9a9a" opacity="1.000"/>
<path d="M 557 74 L 557 114 L 477 142 z" fill="#5e9291" opacity="1.000"/>
<path d="M 37 146 L 0 300 L 0 0 z" fill="#95c5c4" opacity="1.000"/>
<path d="M 69 197 L 37 146 L 55 133 z" fill="#99c5c5" opacity="1.000"/>
<path d="M 431 100 L 557 74 L 477 142 z" fill="#5e9492" opacity="1.000"/>
<path d="M 431 100 L 417 13 L 557 74 z" fill="#488685" opacity="1.000"/>
<path d="M 974 286 L 1135 282 L 1920 300 z" fill="#629292" opacity="1.000"/>
<path d="M 1135 282 L 1689 287 L 1920 300 z" fill="#487f7f" opacity="1.000"/>
<path d="M 37 146 L 63 75 L 55 133 z" fill="#7eb7b6" opacity="1.000"/>
<path d="M 37 146 L 40 206 L 0 300 z" fill="#c2dddc" opacity="1.000"/>
<path d="M 262 194 L 149 219 L 234 136 z" fill="#9dc2c2" opacity="1.000"/>
<path d="M 557 114 L 553 166 L 477 142 z" fill="#6e9d9c" opacity="1.000"/>
<path d="M 1920 0 L 711 10 L 0 0 z" fill="#1e5754" opacity="1.000"/>
<path d="M 1412 11 L 711 10 L 1920 0 z" fill="#133936" opacity="1.000"/>
<path d="M 711 10 L 1412 11 L 984 13 z" fill="#1d4f4c" opacity="1.000"/>
<path d="M 417 13 L 378 91 L 321 38 z" fill="#438886" opacity="1.000"/>
<path d="M 378 91 L 417 13 L 431 100 z" fill="#4e8c8b" opacity="1.000"/>
<path d="M 1144 223 L 1171 162 L 1182 214 z" fill="#588382" opacity="1.000"/>
<path d="M 984 19 L 938 63 L 984 13 z" fill="#275a58" opacity="1.000"/>
<path d="M 1144 223 L 1093 154 L 1171 162 z" fill="#547e7d" opacity="1.000"/>
<path d="M 1901 173 L 1920 0 L 1920 300 z" fill="#15403d" opacity="1.000"/>
<path d="M 1689 287 L 1743 241 L 1920 300 z" fill="#306c6c" opacity="1.000"/>
<path d="M 26 33 L 37 146 L 0 0 z" fill="#59a4a3" opacity="1.000"/>
<path d="M 26 33 L 63 75 L 37 146 z" fill="#69abab" opacity="1.000"/>
<path d="M 112 38 L 26 33 L 0 0 z" fill="#409594" opacity="1.000"/>
<path d="M 87 49 L 26 33 L 112 38 z" fill="#4a9998" opacity="1.000"/>
<path d="M 69 197 L 60 201 L 37 146 z" fill="#a8cdcd" opacity="1.000"/>
<path d="M 60 201 L 40 206 L 37 146 z" fill="#abcfcf" opacity="1.000"/>
<path d="M 262 194 L 289 140 L 297 183 z" fill="#91bab9" opacity="1.000"/>
<path d="M 288 126 L 289 140 L 234 136 z" fill="#7badac" opacity="1.000"/>
<path d="M 289 140 L 262 194 L 234 136 z" fill="#89b6b5" opacity="1.000"/>
<path d="M 125 143 L 69 197 L 55 133 z" fill="#96c3c2" opacity="1.000"/>
<path d="M 125 143 L 157 80 L 234 136 z" fill="#78afae" opacity="1.000"/>
<path d="M 149 219 L 125 143 L 234 136 z" fill="#95c0bf" opacity="1.000"/>
<path d="M 304 285 L 415 252 L 539 280 z" fill="#bed3d2" opacity="1.000"/>
<path d="M 304 285 L 110 283 L 148 272 z" fill="#dbe7e7" opacity="1.000"/>
<path d="M 110 283 L 304 285 L 0 300 z" fill="#e6eeee" opacity="1.000"/>
<path d="M 304 285 L 818 288 L 0 300 z" fill="#cddddc" opacity="1.000"/>
<path d="M 304 285 L 539 280 L 818 288 z" fill="#b6cccc" opacity="1.000"/>
<path d="M 113 214 L 149 219 L 148 272 z" fill="#c4dbda" opacity="1.000"/>
<path d="M 110 283 L 113 214 L 148 272 z" fill="#d3e3e3" opacity="1.000"/>
<path d="M 113 214 L 125 143 L 149 219 z" fill="#a9cccb" opacity="1.000"/>
<path d="M 113 214 L 105 208 L 125 143 z" fill="#a8cccb" opacity="1.000"/>
<path d="M 1819 18 L 1412 11 L 1920 0 z" fill="#0a221d" opacity="1.000"/>
<path d="M 1819 18 L 1662 32 L 1412 11 z" fill="#0e2b26" opacity="1.000"/>
<path d="M 984 183 L 906 136 L 996 133 z" fill="#568280" opacity="1.000"/>
<path d="M 417 13 L 580 30 L 557 74 z" fill="#3a7b79" opacity="1.000"/>
<path d="M 938 63 L 846 34 L 984 13 z" fill="#2a5f5c" opacity="1.000"/>
<path d="M 846 34 L 711 10 L 984 13 z" fill="#255e5c" opacity="1.000"/>
<path d="M 258 54 L 211 20 L 321 38 z" fill="#428b8a" opacity="1.000"/>
<path d="M 211 20 L 112 38 L 0 0 z" fill="#3b8f8e" opacity="1.000"/>
<path d="M 417 13 L 211 20 L 0 0 z" fill="#338684" opacity="1.000"/>
<path d="M 211 20 L 417 13 L 321 38 z" fill="#388382" opacity="1.000"/>
<path d="M 899 244 L 975 265 L 974 286 z" fill="#84a8a8" opacity="1.000"/>
<path d="M 1143 247 L 1144 223 L 1182 214 z" fill="#628c8c" opacity="1.000"/>
<path d="M 1143 247 L 1087 260 L 1078 221 z" fill="#6c9594" opacity="1.000"/>
<path d="M 1144 223 L 1143 247 L 1078 221 z" fill="#66908f" opacity="1.000"/>
<path d="M 1087 205 L 1144 223 L 1078 221 z" fill="#638d8c" opacity="1.000"/>
<path d="M 984 183 L 1087 205 L 1078 221 z" fill="#638c8b" opacity="1.000"/>
<path d="M 1412 11 L 1221 20 L 984 13 z" fill="#194542" opacity="1.000"/>
<path d="M 1221 20 L 1208 22 L 984 13 z" fill="#1c4b48" opacity="1.000"/>
<path d="M 1208 22 L 1105 36 L 984 13 z" fill="#204f4c" opacity="1.000"/>
<path d="M 1901 173 L 1882 107 L 1920 0 z" fill="#0f2e2a" opacity="1.000"/>
<path d="M 1743 241 L 1655 214 L 1697 191 z" fill="#2f605f" opacity="1.000"/>
<path d="M 1655 214 L 1743 241 L 1689 287 z" fill="#346a69" opacity="1.000"/>
<path d="M 1569 280 L 1689 287 L 1135 282 z" fill="#548686" opacity="1.000"/>
<path d="M 1308 266 L 1569 280 L 1135 282 z" fill="#5f8e8e" opacity="1.000"/>
<path d="M 1569 280 L 1308 266 L 1406 235 z" fill="#528282" opacity="1.000"/>
<path d="M 1885 229 L 1901 173 L 1920 300 z" fill="#1f5756" opacity="1.000"/>
<path d="M 1743 241 L 1885 229 L 1920 300 z" fill="#276161" opacity="1.000"/>
<path d="M 26 33 L 80 60 L 63 75 z" fill="#55a09f" opacity="1.000"/>
<path d="M 80 60 L 26 33 L 87 49 z" fill="#4f9c9b" opacity="1.000"/>
<path d="M 60 201 L 78 238 L 40 206 z" fill="#bed9d9" opacity="1.000"/>
<path d="M 40 206 L 78 238 L 0 300 z" fill="#d5e7e6" opacity="1.000"/>
<path d="M 78 238 L 113 214 L 110 283 z" fill="#cee1e1" opacity="1.000"/>
<path d="M 78 238 L 60 201 L 69 197 z" fill="#bbd7d7" opacity="1.000"/>
<path d="M 63 75 L 99 104 L 55 133 z" fill="#74b0b0" opacity="1.000"/>
<path d="M 99 104 L 125 143 L 55 133 z" fill="#82b7b6" opacity="1.000"/>
<path d="M 80 60 L 99 104 L 63 75 z" fill="#64a7a6" opacity="1.000"/>
<path d="M 157 80 L 99 104 L 112 38 z" fill="#5ea2a1" opacity="1.000"/>
<path d="M 99 104 L 87 49 L 112 38 z" fill="#58a09f" opacity="1.000"/>
<path d="M 99 104 L 80 60 L 87 49 z" fill="#5ea3a2" opacity="1.000"/>
<path d="M 415 252 L 441 226 L 539 280 z" fill="#afc8c8" opacity="1.000"/>
<path d="M 441 226 L 448 221 L 539 280 z" fill="#a8c4c4" opacity="1.000"/>
<path d="M 448 221 L 533 239 L 539 280 z" fill="#a7c3c3" opacity="1.000"/>
<path d="M 553 166 L 533 239 L 477 142 z" fill="#84acab" opacity="1.000"/>
<path d="M 533 239 L 448 221 L 477 142 z" fill="#91b5b4" opacity="1.000"/>
<path d="M 280 271 L 304 285 L 148 272 z" fill="#d3e1e1" opacity="1.000"/>
<path d="M 149 219 L 280 271 L 148 272 z" fill="#cadddd" opacity="1.000"/>
<path d="M 280 271 L 149 219 L 262 194 z" fill="#b7d1d1" opacity="1.000"/>
<path d="M 1755 196 L 1743 241 L 1697 191 z" fill="#2b5c5b" opacity="1.000"/>
<path d="M 1709 133 L 1755 196 L 1697 191 z" fill="#265250" opacity="1.000"/>
<path d="M 921 205 L 899 244 L 873 208 z" fill="#769d9c" opacity="1.000"/>
<path d="M 906 136 L 921 205 L 873 208 z" fill="#679190" opacity="1.000"/>
<path d="M 921 205 L 906 136 L 984 183 z" fill="#618b8a" opacity="1.000"/>
<path d="M 975 265 L 921 205 L 984 183 z" fill="#709897" opacity="1.000"/>
<path d="M 921 205 L 975 265 L 899 244 z" fill="#7ba0a0" opacity="1.000"/>
<path d="M 900 100 L 846 34 L 938 63 z" fill="#376a68" opacity="1.000"/>
<path d="M 689 10 L 580 30 L 417 13 z" fill="#2d716f" opacity="1.000"/>
<path d="M 689 10 L 417 13 L 0 0 z" fill="#2d7a78" opacity="1.000"/>
<path d="M 711 10 L 689 10 L 0 0 z" fill="#2a7371" opacity="1.000"/>
<path d="M 246 111 L 288 126 L 234 136 z" fill="#76abaa" opacity="1.000"/>
<path d="M 243 104 L 246 111 L 234 136 z" fill="#73a9a8" opacity="1.000"/>
<path d="M 361 158 L 295 115 L 378 91 z" fill="#6fa3a2" opacity="1.000"/>
<path d="M 295 115 L 289 140 L 288 126 z" fill="#76a9a8" opacity="1.000"/>
<path d="M 295 115 L 361 158 L 289 140 z" fill="#7aabaa" opacity="1.000"/>
<path d="M 199 28 L 157 80 L 112 38 z" fill="#4c9796" opacity="1.000"/>
<path d="M 211 20 L 199 28 L 112 38 z" fill="#3f8e8d" opacity="1.000"/>
<path d="M 1087 260 L 1072 242 L 1078 221 z" fill="#6e9696" opacity="1.000"/>
<path d="M 1072 242 L 984 183 L 1078 221 z" fill="#689190" opacity="1.000"/>
<path d="M 1072 242 L 975 265 L 984 183 z" fill="#709897" opacity="1.000"/>
<path d="M 1072 242 L 1087 260 L 974 286 z" fill="#79a0a0" opacity="1.000"/>
<path d="M 975 265 L 1072 242 L 974 286 z" fill="#7ea3a3" opacity="1.000"/>
<path d="M 1166 267 L 1308 266 L 1135 282 z" fill="#6c9796" opacity="1.000"/>
<path d="M 1166 267 L 1254 240 L 1308 266 z" fill="#648f8f" opacity="1.000"/>
<path d="M 1254 240 L 1166 267 L 1182 214 z" fill="#628d8c" opacity="1.000"/>
<path d="M 1166 267 L 1143 247 L 1182 214 z" fill="#669190" opacity="1.000"/>
<path d="M 1143 247 L 1119 276 L 1087 260 z" fill="#719a9a" opacity="1.000"/>
<path d="M 1119 276 L 1135 282 L 974 286 z" fill="#7da4a3" opacity="1.000"/>
<path d="M 1087 260 L 1119 276 L 974 286 z" fill="#7ca2a2" opacity="1.000"/>
<path d="M 1088 161 L 1093 154 L 1144 223 z" fill="#56807f" opacity="1.000"/>
<path d="M 1087 205 L 1088 161 L 1144 223 z" fill="#5c8685" opacity="1.000"/>
<path d="M 1088 161 L 1087 205 L 984 183 z" fill="#5b8684" opacity="1.000"/>
<path d="M 1088 161 L 984 183 L 996 133 z" fill="#55807e" opacity="1.000"/>
<path d="M 1029 51 L 984 19 L 984 13 z" fill="#245754" opacity="1.000"/>
<path d="M 1105 36 L 1029 51 L 984 13 z" fill="#255653" opacity="1.000"/>
<path d="M 1882 107 L 1879 136 L 1844 137 z" fill="#153a37" opacity="1.000"/>
<path d="M 1879 136 L 1882 107 L 1901 173 z" fill="#153c39" opacity="1.000"/>
<path d="M 1878 17 L 1819 18 L 1920 0 z" fill="#061813" opacity="1.000"/>
<path d="M 1652 270 L 1655 214 L 1689 287 z" fill="#396f6f" opacity="1.000"/>
<path d="M 1569 280 L 1652 270 L 1689 287 z" fill="#407878" opacity="1.000"/>
<path d="M 1662 32 L 1576 34 L 1412 11 z" fill="#12322e" opacity="1.000"/>
<path d="M 1576 34 L 1463 87 L 1412 11 z" fill="#183c38" opacity="1.000"/>
<path d="M 1569 280 L 1480 181 L 1588 246 z" fill="#407271" opacity="1.000"/>
<path d="M 76 283 L 110 283 L 0 300 z" fill="#eef4f4" opacity="1.000"/>
<path d="M 78 238 L 76 283 L 0 300 z" fill="#e5efef" opacity="1.000"/>
<path d="M 94 208 L 78 238 L 69 197 z" fill="#bcd7d7" opacity="1.000"/>
<path d="M 125 143 L 94 208 L 69 197 z" fill="#a6cbca" opacity="1.000"/>
<path d="M 105 208 L 94 208 L 125 143 z" fill="#a7cbcb" opacity="1.000"/>
<path d="M 113 214 L 94 208 L 105 208 z" fill="#b7d4d4" opacity="1.000"/>
<path d="M 78 238 L 94 208 L 113 214 z" fill="#bed8d8" opacity="1.000"/>
<path d="M 289 140 L 313 184 L 297 183 z" fill="#8eb7b7" opacity="1.000"/>
<path d="M 361 158 L 313 184 L 289 140 z" fill="#87b3b2" opacity="1.000"/>
<path d="M 432 127 L 378 91 L 431 100 z" fill="#629998" opacity="1.000"/>
<path d="M 432 127 L 361 158 L 378 91 z" fill="#6fa2a0" opacity="1.000"/>
<path d="M 432 127 L 431 100 L 477 142 z" fill="#6a9d9c" opacity="1.000"/>
<path d="M 448 221 L 432 127 L 477 142 z" fill="#7faaa9" opacity="1.000"/>
<path d="M 125 143 L 118 113 L 157 80 z" fill="#76afae" opacity="1.000"/>
<path d="M 118 113 L 99 104 L 157 80 z" fill="#6eabaa" opacity="1.000"/>
<path d="M 99 104 L 118 113 L 125 143 z" fill="#7cb3b2" opacity="1.000"/>
<path d="M 539 280 L 664 260 L 818 288 z" fill="#a5c0c0" opacity="1.000"/>
<path d="M 533 239 L 600 191 L 539 280 z" fill="#9dbcbb" opacity="1.000"/>
<path d="M 693 223 L 664 260 L 672 228 z" fill="#92b3b3" opacity="1.000"/>
<path d="M 899 244 L 839 265 L 873 208 z" fill="#81a5a5" opacity="1.000"/>
<path d="M 839 265 L 827 241 L 873 208 z" fill="#83a7a6" opacity="1.000"/>
<path d="M 827 241 L 839 265 L 818 288 z" fill="#90b1b1" opacity="1.000"/>
<path d="M 818 288 L 839 265 L 974 286 z" fill="#91b2b2" opacity="1.000"/>
<path d="M 839 265 L 899 244 L 974 286 z" fill="#88abab" opacity="1.000"/>
<path d="M 1835 109 L 1882 107 L 1844 137 z" fill="#143835" opacity="1.000"/>
<path d="M 1800 126 L 1835 109 L 1844 137 z" fill="#173c39" opacity="1.000"/>
<path d="M 1885 229 L 1823 178 L 1901 173 z" fill="#1d4d4c" opacity="1.000"/>
<path d="M 1823 178 L 1885 229 L 1743 241 z" fill="#245856" opacity="1.000"/>
<path d="M 1755 196 L 1823 178 L 1743 241 z" fill="#265856" opacity="1.000"/>
<path d="M 1819 18 L 1799 38 L 1662 32 z" fill="#0c2520" opacity="1.000"/>
<path d="M 1761 119 L 1755 196 L 1709 133 z" fill="#204a47" opacity="1.000"/>
<path d="M 1761 119 L 1800 126 L 1755 196 z" fill="#1e4744" opacity="1.000"/>
<path d="M 1704 79 L 1761 119 L 1709 133 z" fill="#1b3f3c" opacity="1.000"/>
<path d="M 908 112 L 900 100 L 938 63 z" fill="#417270" opacity="1.000"/>
<path d="M 908 112 L 938 63 L 996 133 z" fill="#447371" opacity="1.000"/>
<path d="M 906 136 L 908 112 L 996 133 z" fill="#4e7c7a" opacity="1.000"/>
<path d="M 900 100 L 838 114 L 846 34 z" fill="#407270" opacity="1.000"/>
<path d="M 838 114 L 852 126 L 837 115 z" fill="#507f7e" opacity="1.000"/>
<path d="M 827 241 L 860 204 L 873 208 z" fill="#7a9f9f" opacity="1.000"/>
<path d="M 860 204 L 906 136 L 873 208 z" fill="#699291" opacity="1.000"/>
<path d="M 860 204 L 852 126 L 906 136 z" fill="#5e8988" opacity="1.000"/>
<path d="M 718 24 L 689 10 L 711 10 z" fill="#276664" opacity="1.000"/>
<path d="M 600 191 L 638 106 L 672 228 z" fill="#78a1a0" opacity="1.000"/>
<path d="M 267 102 L 243 104 L 258 54 z" fill="#5f9d9c" opacity="1.000"/>
<path d="M 281 81 L 267 102 L 258 54 z" fill="#5a9a99" opacity="1.000"/>
<path d="M 295 115 L 267 102 L 281 81 z" fill="#66a09f" opacity="1.000"/>
<path d="M 267 102 L 295 115 L 288 126 z" fill="#6fa5a4" opacity="1.000"/>
<path d="M 378 91 L 295 73 L 321 38 z" fill="#519190" opacity="1.000"/>
<path d="M 295 115 L 295 73 L 378 91 z" fill="#609b9a" opacity="1.000"/>
<path d="M 295 73 L 295 115 L 281 81 z" fill="#609c9b" opacity="1.000"/>
<path d="M 295 73 L 258 54 L 321 38 z" fill="#4b908e" opacity="1.000"/>
<path d="M 295 73 L 281 81 L 258 54 z" fill="#549694" opacity="1.000"/>
<path d="M 243 104 L 227 60 L 258 54 z" fill="#589998" opacity="1.000"/>
<path d="M 227 60 L 211 20 L 258 54 z" fill="#47908f" opacity="1.000"/>
<path d="M 227 60 L 199 28 L 211 20 z" fill="#438e8d" opacity="1.000"/>
<path d="M 1166 267 L 1137 270 L 1143 247 z" fill="#6e9897" opacity="1.000"/>
<path d="M 1119 276 L 1137 270 L 1135 282 z" fill="#759e9d" opacity="1.000"/>
<path d="M 1137 270 L 1119 276 L 1143 247 z" fill="#719a99" opacity="1.000"/>
<path d="M 1171 162 L 1182 166 L 1182 214 z" fill="#517c7a" opacity="1.000"/>
<path d="M 1251 202 L 1254 240 L 1182 214 z" fill="#598483" opacity="1.000"/>
<path d="M 1038 78 L 1088 161 L 996 133 z" fill="#467371" opacity="1.000"/>
<path d="M 1088 161 L 1038 78 L 1093 154 z" fill="#477371" opacity="1.000"/>
<path d="M 984 19 L 1009 54 L 938 63 z" fill="#2c5e5c" opacity="1.000"/>
<path d="M 1029 51 L 1009 54 L 984 19 z" fill="#295b58" opacity="1.000"/>
<path d="M 1038 78 L 1009 54 L 1029 51 z" fill="#30605d" opacity="1.000"/>
<path d="M 938 63 L 1009 54 L 996 133 z" fill="#3a6a68" opacity="1.000"/>
<path d="M 1009 54 L 1038 78 L 996 133 z" fill="#3b6a67" opacity="1.000"/>
<path d="M 1597 269 L 1569 280 L 1588 246 z" fill="#437877" opacity="1.000"/>
<path d="M 1652 270 L 1597 269 L 1588 246 z" fill="#3f7574" opacity="1.000"/>
<path d="M 1597 269 L 1652 270 L 1569 280 z" fill="#427978" opacity="1.000"/>
<path d="M 1597 151 L 1709 133 L 1697 191 z" fill="#27524f" opacity="1.000"/>
<path d="M 1655 214 L 1597 151 L 1697 191 z" fill="#2d5b59" opacity="1.000"/>
<path d="M 1480 181 L 1597 151 L 1588 246 z" fill="#366462" opacity="1.000"/>
<path d="M 1443 209 L 1569 280 L 1406 235 z" fill="#497978" opacity="1.000"/>
<path d="M 1443 209 L 1480 181 L 1569 280 z" fill="#427271" opacity="1.000"/>
<path d="M 82 269 L 78 238 L 110 283 z" fill="#dbe8e8" opacity="1.000"/>
<path d="M 76 283 L 82 269 L 110 283 z" fill="#e4eeee" opacity="1.000"/>
<path d="M 82 269 L 76 283 L 78 238 z" fill="#dce9e9" opacity="1.000"/>
<path d="M 304 285 L 324 217 L 415 252 z" fill="#b9d1d0" opacity="1.000"/>
<path d="M 280 271 L 324 217 L 304 285 z" fill="#c2d6d6" opacity="1.000"/>
<path d="M 313 184 L 324 217 L 297 183 z" fill="#9cbfbf" opacity="1.000"/>
<path d="M 324 217 L 262 194 L 297 183 z" fill="#9fc2c1" opacity="1.000"/>
<path d="M 324 217 L 280 271 L 262 194 z" fill="#b1cdcc" opacity="1.000"/>
<path d="M 441 226 L 367 176 L 448 221 z" fill="#9abcbc" opacity="1.000"/>
<path d="M 367 176 L 432 127 L 448 221 z" fill="#88b1b0" opacity="1.000"/>
<path d="M 432 127 L 367 176 L 361 158 z" fill="#7facab" opacity="1.000"/>
<path d="M 367 176 L 441 226 L 415 252 z" fill="#a1c1c0" opacity="1.000"/>
<path d="M 324 217 L 367 176 L 415 252 z" fill="#a3c2c2" opacity="1.000"/>
<path d="M 367 176 L 313 184 L 361 158 z" fill="#8cb5b4" opacity="1.000"/>
<path d="M 367 176 L 324 217 L 313 184 z" fill="#99bdbc" opacity="1.000"/>
<path d="M 573 171 L 553 166 L 557 114 z" fill="#719e9d" opacity="1.000"/>
<path d="M 573 171 L 638 106 L 600 191 z" fill="#719d9c" opacity="1.000"/>
<path d="M 573 171 L 533 239 L 553 166 z" fill="#87adac" opacity="1.000"/>
<path d="M 573 171 L 600 191 L 533 239 z" fill="#8aafae" opacity="1.000"/>
<path d="M 660 243 L 664 260 L 539 280 z" fill="#a3bfbf" opacity="1.000"/>
<path d="M 600 191 L 660 243 L 539 280 z" fill="#9ab9b9" opacity="1.000"/>
<path d="M 664 260 L 660 243 L 672 228 z" fill="#97b6b6" opacity="1.000"/>
<path d="M 660 243 L 600 191 L 672 228 z" fill="#8db0af" opacity="1.000"/>
<path d="M 792 237 L 693 223 L 727 123 z" fill="#79a09f" opacity="1.000"/>
<path d="M 792 237 L 827 241 L 818 288 z" fill="#8eafaf" opacity="1.000"/>
<path d="M 664 260 L 792 237 L 818 288 z" fill="#96b5b5" opacity="1.000"/>
<path d="M 693 223 L 792 237 L 664 260 z" fill="#90b1b1" opacity="1.000"/>
<path d="M 1878 17 L 1882 84 L 1819 18 z" fill="#0a211d" opacity="1.000"/>
<path d="M 1882 84 L 1799 38 L 1819 18 z" fill="#0c2521" opacity="1.000"/>
<path d="M 1799 38 L 1882 84 L 1835 109 z" fill="#102d2a" opacity="1.000"/>
<path d="M 1835 109 L 1882 84 L 1882 107 z" fill="#11322f" opacity="1.000"/>
<path d="M 1882 107 L 1882 84 L 1920 0 z" fill="#0c2622" opacity="1.000"/>
<path d="M 1882 84 L 1878 17 L 1920 0 z" fill="#081d19" opacity="1.000"/>
<path d="M 1800 126 L 1824 172 L 1755 196 z" fill="#1f4a48" opacity="1.000"/>
<path d="M 1824 172 L 1823 178 L 1755 196 z" fill="#214f4d" opacity="1.000"/>
<path d="M 1824 172 L 1800 126 L 1844 137 z" fill="#1a4240" opacity="1.000"/>
<path d="M 1823 178 L 1824 172 L 1901 173 z" fill="#1c4947" opacity="1.000"/>
<path d="M 1879 136 L 1824 172 L 1844 137 z" fill="#19423f" opacity="1.000"/>
<path d="M 1824 172 L 1879 136 L 1901 173 z" fill="#194441" opacity="1.000"/>
<path d="M 1768 72 L 1704 79 L 1771 59 z" fill="#13322e" opacity="1.000"/>
<path d="M 1768 72 L 1761 119 L 1704 79 z" fill="#163834" opacity="1.000"/>
<path d="M 1761 119 L 1768 72 L 1800 126 z" fill="#173a37" opacity="1.000"/>
<path d="M 1768 72 L 1835 109 L 1800 126 z" fill="#153734" opacity="1.000"/>
<path d="M 1799 38 L 1768 72 L 1771 59 z" fill="#0f2b28" opacity="1.000"/>
<path d="M 1768 72 L 1799 38 L 1835 109 z" fill="#112f2b" opacity="1.000"/>
<path d="M 852 126 L 889 122 L 906 136 z" fill="#52807e" opacity="1.000"/>
<path d="M 889 122 L 908 112 L 906 136 z" fill="#4f7d7b" opacity="1.000"/>
<path d="M 788 116 L 838 114 L 837 115 z" fill="#50807e" opacity="1.000"/>
<path d="M 797 46 L 788 116 L 750 108 z" fill="#477a79" opacity="1.000"/>
<path d="M 846 34 L 797 46 L 711 10 z" fill="#2c6664" opacity="1.000"/>
<path d="M 797 46 L 718 24 L 711 10 z" fill="#2c6865" opacity="1.000"/>
<path d="M 838 114 L 797 46 L 846 34 z" fill="#3a6f6d" opacity="1.000"/>
<path d="M 788 116 L 797 46 L 838 114 z" fill="#467977" opacity="1.000"/>
<path d="M 718 24 L 649 57 L 689 10 z" fill="#2f6d6b" opacity="1.000"/>
<path d="M 573 93 L 557 114 L 557 74 z" fill="#548b89" opacity="1.000"/>
<path d="M 263 105 L 246 111 L 243 104 z" fill="#6ca5a4" opacity="1.000"/>
<path d="M 267 102 L 263 105 L 243 104 z" fill="#6aa3a2" opacity="1.000"/>
<path d="M 246 111 L 263 105 L 288 126 z" fill="#6fa6a5" opacity="1.000"/>
<path d="M 263 105 L 267 102 L 288 126 z" fill="#6da5a4" opacity="1.000"/>
<path d="M 199 28 L 213 80 L 157 80 z" fill="#549998" opacity="1.000"/>
<path d="M 227 60 L 213 80 L 199 28 z" fill="#4f9594" opacity="1.000"/>
<path d="M 213 80 L 227 60 L 243 104 z" fill="#5e9d9c" opacity="1.000"/>
<path d="M 157 80 L 213 80 L 234 136 z" fill="#6aa5a4" opacity="1.000"/>
<path d="M 213 80 L 243 104 L 234 136 z" fill="#6da6a5" opacity="1.000"/>
<path d="M 1141 276 L 1166 267 L 1135 282 z" fill="#739c9c" opacity="1.000"/>
<path d="M 1137 270 L 1141 276 L 1135 282 z" fill="#749d9d" opacity="1.000"/>
<path d="M 1141 276 L 1137 270 L 1166 267 z" fill="#729b9a" opacity="1.000"/>
<path d="M 1214 83 L 1105 36 L 1208 22 z" fill="#25514e" opacity="1.000"/>
<path d="M 1221 20 L 1214 83 L 1208 22 z" fill="#224d4a" opacity="1.000"/>
<path d="M 1202 186 L 1251 202 L 1182 214 z" fill="#54807e" opacity="1.000"/>
<path d="M 1251 202 L 1202 186 L 1220 181 z" fill="#507b7a" opacity="1.000"/>
<path d="M 1182 166 L 1202 186 L 1182 214 z" fill="#527d7c" opacity="1.000"/>
<path d="M 1202 186 L 1182 166 L 1220 181 z" fill="#4e7978" opacity="1.000"/>
<path d="M 1254 240 L 1310 217 L 1308 266 z" fill="#5a8686" opacity="1.000"/>
<path d="M 1251 202 L 1310 217 L 1254 240 z" fill="#558180" opacity="1.000"/>
<path d="M 1101 49 L 1029 51 L 1105 36 z" fill="#285755" opacity="1.000"/>
<path d="M 1101 49 L 1038 78 L 1029 51 z" fill="#2e5d5b" opacity="1.000"/>
<path d="M 1214 83 L 1101 49 L 1105 36 z" fill="#295754" opacity="1.000"/>
<path d="M 1597 151 L 1616 101 L 1709 133 z" fill="#234a48" opacity="1.000"/>
<path d="M 1616 101 L 1704 79 L 1709 133 z" fill="#1c413e" opacity="1.000"/>
<path d="M 1602 74 L 1616 101 L 1601 98 z" fill="#1d423f" opacity="1.000"/>
<path d="M 1597 151 L 1620 204 L 1588 246 z" fill="#346361" opacity="1.000"/>
<path d="M 1620 204 L 1597 151 L 1655 214 z" fill="#305e5c" opacity="1.000"/>
<path d="M 1620 204 L 1652 270 L 1588 246 z" fill="#3a6e6d" opacity="1.000"/>
<path d="M 1652 270 L 1620 204 L 1655 214 z" fill="#366968" opacity="1.000"/>
<path d="M 1576 34 L 1544 93 L 1463 87 z" fill="#1d413e" opacity="1.000"/>
<path d="M 1544 93 L 1602 74 L 1601 98 z" fill="#1e423f" opacity="1.000"/>
<path d="M 1602 74 L 1544 93 L 1576 34 z" fill="#1a3d39" opacity="1.000"/>
<path d="M 594 97 L 573 171 L 557 114 z" fill="#649594" opacity="1.000"/>
<path d="M 573 171 L 594 97 L 638 106 z" fill="#619291" opacity="1.000"/>
<path d="M 573 93 L 594 97 L 557 114 z" fill="#578c8b" opacity="1.000"/>
<path d="M 594 97 L 649 57 L 638 106 z" fill="#4d8482" opacity="1.000"/>
<path d="M 649 57 L 594 97 L 580 30 z" fill="#417c7b" opacity="1.000"/>
<path d="M 908 112 L 887 115 L 900 100 z" fill="#497877" opacity="1.000"/>
<path d="M 889 122 L 887 115 L 908 112 z" fill="#4c7b79" opacity="1.000"/>
<path d="M 887 115 L 889 122 L 852 126 z" fill="#4f7e7c" opacity="1.000"/>
<path d="M 887 115 L 838 114 L 900 100 z" fill="#4a7a78" opacity="1.000"/>
<path d="M 838 114 L 887 115 L 852 126 z" fill="#4f7e7d" opacity="1.000"/>
<path d="M 750 108 L 781 118 L 727 123 z" fill="#548583" opacity="1.000"/>
<path d="M 788 116 L 781 118 L 750 108 z" fill="#528381" opacity="1.000"/>
<path d="M 689 10 L 647 24 L 580 30 z" fill="#2d6d6b" opacity="1.000"/>
<path d="M 647 24 L 649 57 L 580 30 z" fill="#357371" opacity="1.000"/>
<path d="M 649 57 L 647 24 L 689 10 z" fill="#306e6c" opacity="1.000"/>
<path d="M 733 86 L 649 57 L 718 24 z" fill="#3b7472" opacity="1.000"/>
<path d="M 733 86 L 750 108 L 727 123 z" fill="#508381" opacity="1.000"/>
<path d="M 733 86 L 797 46 L 750 108 z" fill="#437876" opacity="1.000"/>
<path d="M 797 46 L 733 86 L 718 24 z" fill="#37706e" opacity="1.000"/>
<path d="M 1233 129 L 1182 166 L 1171 162 z" fill="#467170" opacity="1.000"/>
<path d="M 1214 83 L 1233 129 L 1171 162 z" fill="#3d6866" opacity="1.000"/>
<path d="M 1182 166 L 1233 129 L 1220 181 z" fill="#477271" opacity="1.000"/>
<path d="M 1308 266 L 1383 235 L 1406 235 z" fill="#548282" opacity="1.000"/>
<path d="M 1310 217 L 1383 235 L 1308 266 z" fill="#558382" opacity="1.000"/>
<path d="M 1038 78 L 1093 78 L 1093 154 z" fill="#3d6a68" opacity="1.000"/>
<path d="M 1101 49 L 1093 78 L 1038 78 z" fill="#305f5c" opacity="1.000"/>
<path d="M 1093 154 L 1093 78 L 1171 162 z" fill="#44706e" opacity="1.000"/>
<path d="M 1093 78 L 1214 83 L 1171 162 z" fill="#3a6664" opacity="1.000"/>
<path d="M 1093 78 L 1101 49 L 1214 83 z" fill="#2e5b59" opacity="1.000"/>
<path d="M 1616 101 L 1691 65 L 1704 79 z" fill="#183a37" opacity="1.000"/>
<path d="M 1640 43 L 1616 101 L 1602 74 z" fill="#193b38" opacity="1.000"/>
<path d="M 1640 43 L 1576 34 L 1662 32 z" fill="#12302c" opacity="1.000"/>
<path d="M 1640 43 L 1602 74 L 1576 34 z" fill="#153532" opacity="1.000"/>
<path d="M 1691 65 L 1640 43 L 1662 32 z" fill="#12302c" opacity="1.000"/>
<path d="M 1640 43 L 1691 65 L 1616 101 z" fill="#173835" opacity="1.000"/>
<path d="M 1579 120 L 1597 151 L 1480 181 z" fill="#2d5755" opacity="1.000"/>
<path d="M 1544 93 L 1579 120 L 1480 181 z" fill="#2a5350" opacity="1.000"/>
<path d="M 1579 120 L 1544 93 L 1601 98 z" fill="#224845" opacity="1.000"/>
<path d="M 1616 101 L 1579 120 L 1601 98 z" fill="#214744" opacity="1.000"/>
<path d="M 1579 120 L 1616 101 L 1597 151 z" fill="#254c4a" opacity="1.000"/>
<path d="M 594 97 L 575 85 L 580 30 z" fill="#478180" opacity="1.000"/>
<path d="M 575 85 L 594 97 L 573 93 z" fill="#528987" opacity="1.000"/>
<path d="M 580 30 L 575 85 L 557 74 z" fill="#44807e" opacity="1.000"/>
<path d="M 575 85 L 573 93 L 557 74 z" fill="#4f8785" opacity="1.000"/>
<path d="M 819 183 L 781 118 L 788 116 z" fill="#5c8a88" opacity="1.000"/>
<path d="M 819 183 L 792 237 L 727 123 z" fill="#709998" opacity="1.000"/>
<path d="M 781 118 L 819 183 L 727 123 z" fill="#5e8c8a" opacity="1.000"/>
<path d="M 819 183 L 860 204 L 827 241 z" fill="#789e9d" opacity="1.000"/>
<path d="M 792 237 L 819 183 L 827 241 z" fill="#7ea3a3" opacity="1.000"/>
<path d="M 860 204 L 819 183 L 852 126 z" fill="#669190" opacity="1.000"/>
<path d="M 852 126 L 819 183 L 837 115 z" fill="#5a8786" opacity="1.000"/>
<path d="M 819 183 L 788 116 L 837 115 z" fill="#5a8886" opacity="1.000"/>
<path d="M 649 57 L 697 112 L 638 106 z" fill="#4e8381" opacity="1.000"/>
<path d="M 733 86 L 697 112 L 649 57 z" fill="#497f7d" opacity="1.000"/>
<path d="M 697 112 L 733 86 L 727 123 z" fill="#528483" opacity="1.000"/>
<path d="M 693 223 L 697 112 L 727 123 z" fill="#689593" opacity="1.000"/>
<path d="M 697 112 L 693 223 L 672 228 z" fill="#7aa2a1" opacity="1.000"/>
<path d="M 638 106 L 697 112 L 672 228 z" fill="#699695" opacity="1.000"/>
<path d="M 1263 132 L 1233 129 L 1214 83 z" fill="#386360" opacity="1.000"/>
<path d="M 1275 48 L 1263 132 L 1214 83 z" fill="#2e5957" opacity="1.000"/>
<path d="M 1270 44 L 1214 83 L 1221 20 z" fill="#234e4b" opacity="1.000"/>
<path d="M 1270 44 L 1275 48 L 1214 83 z" fill="#25504d" opacity="1.000"/>
<path d="M 1270 44 L 1221 20 L 1412 11 z" fill="#1a423f" opacity="1.000"/>
<path d="M 1355 134 L 1383 235 L 1310 217 z" fill="#487473" opacity="1.000"/>
<path d="M 1704 79 L 1691 54 L 1771 59 z" fill="#13322e" opacity="1.000"/>
<path d="M 1691 65 L 1691 54 L 1704 79 z" fill="#153430" opacity="1.000"/>
<path d="M 1691 54 L 1691 65 L 1662 32 z" fill="#12302c" opacity="1.000"/>
<path d="M 1799 38 L 1691 54 L 1662 32 z" fill="#0f2b27" opacity="1.000"/>
<path d="M 1691 54 L 1799 38 L 1771 59 z" fill="#0f2b27" opacity="1.000"/>
<path d="M 1289 187 L 1310 217 L 1251 202 z" fill="#4f7b7a" opacity="1.000"/>
<path d="M 1289 187 L 1355 134 L 1310 217 z" fill="#467170" opacity="1.000"/>
<path d="M 1355 134 L 1448 167 L 1383 235 z" fill="#3f6b6a" opacity="1.000"/>
<path d="M 1448 167 L 1443 209 L 1406 235 z" fill="#43706f" opacity="1.000"/>
<path d="M 1383 235 L 1448 167 L 1406 235 z" fill="#477573" opacity="1.000"/>
<path d="M 1443 209 L 1448 167 L 1480 181 z" fill="#3c6967" opacity="1.000"/>
<path d="M 1294 55 L 1263 132 L 1275 48 z" fill="#2a5452" opacity="1.000"/>
<path d="M 1294 55 L 1355 134 L 1263 132 z" fill="#315b59" opacity="1.000"/>
<path d="M 1294 55 L 1270 44 L 1412 11 z" fill="#1c4441" opacity="1.000"/>
<path d="M 1270 44 L 1294 55 L 1275 48 z" fill="#214b48" opacity="1.000"/>
<path d="M 1463 87 L 1428 77 L 1412 11 z" fill="#1e4340" opacity="1.000"/>
<path d="M 1355 134 L 1269 162 L 1263 132 z" fill="#3c6765" opacity="1.000"/>
<path d="M 1289 187 L 1269 162 L 1355 134 z" fill="#416c6b" opacity="1.000"/>
<path d="M 1269 162 L 1289 187 L 1251 202 z" fill="#4b7675" opacity="1.000"/>
<path d="M 1269 162 L 1251 202 L 1220 181 z" fill="#4c7776" opacity="1.000"/>
<path d="M 1233 129 L 1269 162 L 1220 181 z" fill="#45706e" opacity="1.000"/>
<path d="M 1263 132 L 1269 162 L 1233 129 z" fill="#3f6a68" opacity="1.000"/>
<path d="M 1366 57 L 1294 55 L 1412 11 z" fill="#1c4340" opacity="1.000"/>
<path d="M 1444 105 L 1404 70 L 1428 77 z" fill="#254c49" opacity="1.000"/>
<path d="M 1428 77 L 1404 70 L 1412 11 z" fill="#1d4340" opacity="1.000"/>
<path d="M 1404 70 L 1366 57 L 1412 11 z" fill="#1c423f" opacity="1.000"/>
<path d="M 1459 92 L 1428 77 L 1463 87 z" fill="#244b48" opacity="1.000"/>
<path d="M 1459 92 L 1444 105 L 1428 77 z" fill="#264d4a" opacity="1.000"/>
<path d="M 1544 93 L 1459 92 L 1463 87 z" fill="#234a47" opacity="1.000"/>
<path d="M 1459 92 L 1544 93 L 1480 181 z" fill="#2a5350" opacity="1.000"/>
<path d="M 1449 150 L 1448 167 L 1355 134 z" fill="#36615f" opacity="1.000"/>
<path d="M 1448 167 L 1449 150 L 1480 181 z" fill="#376361" opacity="1.000"/>
<path d="M 1449 150 L 1459 92 L 1480 181 z" fill="#315b59" opacity="1.000"/>
<path d="M 1459 92 L 1449 150 L 1444 105 z" fill="#2b5451" opacity="1.000"/>
<path d="M 1366 106 L 1404 70 L 1444 105 z" fill="#28504e" opacity="1.000"/>
<path d="M 1366 106 L 1449 150 L 1355 134 z" fill="#335d5a" opacity="1.000"/>
<path d="M 1449 150 L 1366 106 L 1444 105 z" fill="#2e5855" opacity="1.000"/>
<path d="M 1404 70 L 1366 106 L 1366 57 z" fill="#254d4a" opacity="1.000"/>
<path d="M 1294 55 L 1366 106 L 1355 134 z" fill="#2d5654" opacity="1.000"/>
<path d="M 1366 57 L 1366 106 L 1294 55 z" fill="#264e4b" opacity="1.000"/>
</svg>
