<?xml version="1.0" encoding="utf-8"?>
<svg xmlns="http://www.w3.org/2000/svg" width="1920" height="300"
     xmlns:xlink="http://www.w3.org/1999/xlink">
  <!-- created with "banners.py -num 60 -colors=0B519A,0A6F90,110B9A,102A83" -->
   
<path d="M 0 300 L 1199 288 L 1920 300 z" fill="#0d4989" opacity="1.000"/>
<path d="M 1920 0 L 808 16 L 0 0 z" fill="#0d3099" opacity="1.000"/>
<path d="M 1199 288 L 1435 284 L 1920 300 z" fill="#0e3786" opacity="1.000"/>
<path d="M 808 16 L 431 37 L 0 0 z" fill="#0c4399" opacity="1.000"/>
<path d="M 1269 245 L 1435 284 L 1199 288 z" fill="#0e3d88" opacity="1.000"/>
<path d="M 356 290 L 1199 288 L 0 300 z" fill="#0b5b8c" opacity="1.000"/>
<path d="M 356 290 L 598 277 L 1199 288 z" fill="#0c538b" opacity="1.000"/>
<path d="M 26 28 L 0 300 L 0 0 z" fill="#0a5b96" opacity="1.000"/>
<path d="M 26 28 L 75 129 L 0 300 z" fill="#0a5f94" opacity="1.000"/>
<path d="M 431 37 L 404 93 L 234 112 z" fill="#0b4c96" opacity="1.000"/>
<path d="M 1910 281 L 1920 0 L 1920 300 z" fill="#101f8b" opacity="1.000"/>
<path d="M 1910 281 L 1845 155 L 1920 0 z" fill="#101b8e" opacity="1.000"/>
<path d="M 121 249 L 356 290 L 0 300 z" fill="#0a678f" opacity="1.000"/>
<path d="M 75 129 L 121 249 L 0 300 z" fill="#0a6592" opacity="1.000"/>
<path d="M 598 277 L 472 276 L 502 193 z" fill="#0b568e" opacity="1.000"/>
<path d="M 356 290 L 472 276 L 598 277 z" fill="#0b5c8d" opacity="1.000"/>
<path d="M 653 241 L 598 277 L 502 193 z" fill="#0c538e" opacity="1.000"/>
<path d="M 461 106 L 404 93 L 431 37 z" fill="#0c4996" opacity="1.000"/>
<path d="M 518 97 L 431 37 L 808 16 z" fill="#0c4097" opacity="1.000"/>
<path d="M 710 119 L 518 97 L 808 16 z" fill="#0c4096" opacity="1.000"/>
<path d="M 518 97 L 461 106 L 431 37 z" fill="#0c4796" opacity="1.000"/>
<path d="M 461 106 L 518 97 L 502 193 z" fill="#0c4c94" opacity="1.000"/>
<path d="M 518 97 L 653 241 L 502 193 z" fill="#0c4e91" opacity="1.000"/>
<path d="M 653 241 L 518 97 L 710 119 z" fill="#0c4992" opacity="1.000"/>
<path d="M 867 112 L 772 97 L 808 16 z" fill="#0d3a96" opacity="1.000"/>
<path d="M 772 97 L 710 119 L 808 16 z" fill="#0d3d96" opacity="1.000"/>
<path d="M 431 37 L 165 35 L 0 0 z" fill="#0b4c99" opacity="1.000"/>
<path d="M 165 35 L 26 28 L 0 0 z" fill="#0b5099" opacity="1.000"/>
<path d="M 26 28 L 165 35 L 75 129 z" fill="#0b5497" opacity="1.000"/>
<path d="M 341 161 L 289 183 L 234 112 z" fill="#0b5593" opacity="1.000"/>
<path d="M 404 93 L 341 161 L 234 112 z" fill="#0b5195" opacity="1.000"/>
<path d="M 341 161 L 356 290 L 289 183 z" fill="#0b5a91" opacity="1.000"/>
<path d="M 1910 281 L 1880 264 L 1845 155 z" fill="#102488" opacity="1.000"/>
<path d="M 1880 264 L 1910 281 L 1920 300 z" fill="#102884" opacity="1.000"/>
<path d="M 1880 264 L 1654 215 L 1845 155 z" fill="#0f258a" opacity="1.000"/>
<path d="M 1435 284 L 1654 215 L 1920 300 z" fill="#0f2f87" opacity="1.000"/>
<path d="M 1654 215 L 1880 264 L 1920 300 z" fill="#0f2986" opacity="1.000"/>
<path d="M 867 112 L 1016 67 L 1002 228 z" fill="#0d3b92" opacity="1.000"/>
<path d="M 1016 67 L 1087 224 L 1002 228 z" fill="#0d3c90" opacity="1.000"/>
<path d="M 1173 194 L 1016 67 L 1205 90 z" fill="#0e3393" opacity="1.000"/>
<path d="M 1016 67 L 1173 194 L 1087 224 z" fill="#0d3990" opacity="1.000"/>
<path d="M 356 290 L 224 234 L 289 183 z" fill="#0b5e90" opacity="1.000"/>
<path d="M 121 249 L 224 234 L 356 290 z" fill="#0a6290" opacity="1.000"/>
<path d="M 224 234 L 121 249 L 154 143 z" fill="#0a5f92" opacity="1.000"/>
<path d="M 289 183 L 224 234 L 234 112 z" fill="#0b5993" opacity="1.000"/>
<path d="M 224 234 L 154 143 L 234 112 z" fill="#0b5993" opacity="1.000"/>
<path d="M 598 277 L 664 247 L 1002 228 z" fill="#0c4e8d" opacity="1.000"/>
<path d="M 653 241 L 664 247 L 598 277 z" fill="#0c538d" opacity="1.000"/>
<path d="M 154 143 L 173 116 L 234 112 z" fill="#0b5695" opacity="1.000"/>
<path d="M 461 106 L 387 146 L 404 93 z" fill="#0b4d95" opacity="1.000"/>
<path d="M 387 146 L 341 161 L 404 93 z" fill="#0b5094" opacity="1.000"/>
<path d="M 387 146 L 461 106 L 502 193 z" fill="#0b4f93" opacity="1.000"/>
<path d="M 472 276 L 387 146 L 502 193 z" fill="#0b5591" opacity="1.000"/>
<path d="M 387 146 L 472 276 L 356 290 z" fill="#0b5a8f" opacity="1.000"/>
<path d="M 341 161 L 387 146 L 356 290 z" fill="#0b5791" opacity="1.000"/>
<path d="M 1497 174 L 1654 215 L 1435 284 z" fill="#0f308a" opacity="1.000"/>
<path d="M 1598 50 L 1497 174 L 1491 89 z" fill="#0f2392" opacity="1.000"/>
<path d="M 1283 65 L 1598 50 L 1491 89 z" fill="#0f2295" opacity="1.000"/>
<path d="M 1598 50 L 808 16 L 1920 0 z" fill="#0f1e98" opacity="1.000"/>
<path d="M 1087 224 L 1185 282 L 1002 228 z" fill="#0d428b" opacity="1.000"/>
<path d="M 1185 282 L 598 277 L 1002 228 z" fill="#0d498b" opacity="1.000"/>
<path d="M 598 277 L 1185 282 L 1199 288 z" fill="#0d498a" opacity="1.000"/>
<path d="M 1266 176 L 1173 194 L 1205 90 z" fill="#0e3490" opacity="1.000"/>
<path d="M 1283 65 L 1266 176 L 1205 90 z" fill="#0e2e93" opacity="1.000"/>
<path d="M 1266 176 L 1283 65 L 1399 161 z" fill="#0e2e91" opacity="1.000"/>
<path d="M 942 44 L 867 112 L 808 16 z" fill="#0d3796" opacity="1.000"/>
<path d="M 942 44 L 1016 67 L 867 112 z" fill="#0d3695" opacity="1.000"/>
<path d="M 659 239 L 653 241 L 710 119 z" fill="#0c4c90" opacity="1.000"/>
<path d="M 659 239 L 664 247 L 653 241 z" fill="#0c518e" opacity="1.000"/>
<path d="M 772 97 L 773 152 L 710 119 z" fill="#0c4293" opacity="1.000"/>
<path d="M 173 116 L 206 89 L 234 112 z" fill="#0b5495" opacity="1.000"/>
<path d="M 206 89 L 173 116 L 165 35 z" fill="#0b5297" opacity="1.000"/>
<path d="M 206 89 L 431 37 L 234 112 z" fill="#0b4e96" opacity="1.000"/>
<path d="M 206 89 L 165 35 L 431 37 z" fill="#0b4c97" opacity="1.000"/>
<path d="M 165 35 L 130 136 L 75 129 z" fill="#0b5696" opacity="1.000"/>
<path d="M 173 116 L 130 136 L 165 35 z" fill="#0b5496" opacity="1.000"/>
<path d="M 130 136 L 173 116 L 154 143 z" fill="#0b5895" opacity="1.000"/>
<path d="M 130 136 L 121 249 L 75 129 z" fill="#0a5e93" opacity="1.000"/>
<path d="M 121 249 L 130 136 L 154 143 z" fill="#0a5d93" opacity="1.000"/>
<path d="M 1446 216 L 1497 174 L 1435 284 z" fill="#0e328b" opacity="1.000"/>
<path d="M 1497 174 L 1449 141 L 1491 89 z" fill="#0f2891" opacity="1.000"/>
<path d="M 1449 141 L 1283 65 L 1491 89 z" fill="#0f2793" opacity="1.000"/>
<path d="M 1283 65 L 1449 141 L 1399 161 z" fill="#0e2b92" opacity="1.000"/>
<path d="M 1446 216 L 1449 141 L 1497 174 z" fill="#0e2d8e" opacity="1.000"/>
<path d="M 1654 215 L 1676 145 L 1845 155 z" fill="#0f238d" opacity="1.000"/>
<path d="M 1845 155 L 1676 145 L 1920 0 z" fill="#101992" opacity="1.000"/>
<path d="M 1676 145 L 1598 50 L 1920 0 z" fill="#101895" opacity="1.000"/>
<path d="M 1497 174 L 1676 145 L 1654 215 z" fill="#0f288d" opacity="1.000"/>
<path d="M 1598 50 L 1676 145 L 1497 174 z" fill="#0f2391" opacity="1.000"/>
<path d="M 1173 194 L 1153 218 L 1087 224 z" fill="#0d3d8d" opacity="1.000"/>
<path d="M 1153 218 L 1185 282 L 1087 224 z" fill="#0d3f8b" opacity="1.000"/>
<path d="M 1232 222 L 1266 176 L 1269 245 z" fill="#0e398c" opacity="1.000"/>
<path d="M 1266 176 L 1232 222 L 1173 194 z" fill="#0e388d" opacity="1.000"/>
<path d="M 1232 222 L 1269 245 L 1199 288 z" fill="#0e3d8a" opacity="1.000"/>
<path d="M 1185 282 L 1232 222 L 1199 288 z" fill="#0d408a" opacity="1.000"/>
<path d="M 1232 222 L 1153 218 L 1173 194 z" fill="#0e3b8d" opacity="1.000"/>
<path d="M 1153 218 L 1232 222 L 1185 282 z" fill="#0d3e8b" opacity="1.000"/>
<path d="M 942 44 L 983 44 L 1016 67 z" fill="#0d3297" opacity="1.000"/>
<path d="M 1016 67 L 983 44 L 1205 90 z" fill="#0e3096" opacity="1.000"/>
<path d="M 983 44 L 1283 65 L 1205 90 z" fill="#0e2d96" opacity="1.000"/>
<path d="M 983 44 L 942 44 L 808 16 z" fill="#0d3398" opacity="1.000"/>
<path d="M 1598 50 L 983 44 L 808 16 z" fill="#0e2b97" opacity="1.000"/>
<path d="M 983 44 L 1598 50 L 1283 65 z" fill="#0e2796" opacity="1.000"/>
<path d="M 733 171 L 659 239 L 710 119 z" fill="#0c4991" opacity="1.000"/>
<path d="M 773 152 L 733 171 L 710 119 z" fill="#0c4492" opacity="1.000"/>
<path d="M 659 239 L 733 171 L 664 247 z" fill="#0c4e8f" opacity="1.000"/>
<path d="M 798 150 L 772 97 L 867 112 z" fill="#0d3f93" opacity="1.000"/>
<path d="M 798 150 L 773 152 L 772 97 z" fill="#0c4293" opacity="1.000"/>
<path d="M 798 150 L 867 112 L 1002 228 z" fill="#0d4191" opacity="1.000"/>
<path d="M 664 247 L 798 150 L 1002 228 z" fill="#0c488f" opacity="1.000"/>
<path d="M 733 171 L 798 150 L 664 247 z" fill="#0c4990" opacity="1.000"/>
<path d="M 798 150 L 733 171 L 773 152 z" fill="#0c4492" opacity="1.000"/>
<path d="M 1397 220 L 1446 216 L 1435 284 z" fill="#0e358a" opacity="1.000"/>
<path d="M 1269 245 L 1397 220 L 1435 284 z" fill="#0e3889" opacity="1.000"/>
<path d="M 1266 176 L 1397 220 L 1269 245 z" fill="#0e378c" opacity="1.000"/>
<path d="M 1449 141 L 1408 176 L 1399 161 z" fill="#0e2d8f" opacity="1.000"/>
<path d="M 1408 176 L 1449 141 L 1446 216 z" fill="#0e2e8e" opacity="1.000"/>
<path d="M 1397 220 L 1398 212 L 1446 216 z" fill="#0e338b" opacity="1.000"/>
<path d="M 1398 212 L 1408 176 L 1446 216 z" fill="#0e318c" opacity="1.000"/>
<path d="M 1408 176 L 1398 212 L 1399 161 z" fill="#0e308e" opacity="1.000"/>
<path d="M 1398 212 L 1266 176 L 1399 161 z" fill="#0e328e" opacity="1.000"/>
<path d="M 1398 212 L 1397 220 L 1266 176 z" fill="#0e348d" opacity="1.000"/>
</svg>
