<?xml version="1.0" encoding="utf-8"?>
<svg xmlns="http://www.w3.org/2000/svg" width="1920" height="300"
     xmlns:xlink="http://www.w3.org/1999/xlink">
  <!-- created with "banners.py -num 200 -colors=592C44,BCBDA5,2E0344,522D64" -->
   
<path d="M 613 284 L 777 286 L 0 300 z" fill="#9f9692" opacity="1.000"/>
<path d="M 17 201 L 0 300 L 0 0 z" fill="#8f7c79" opacity="1.000"/>
<path d="M 1920 0 L 1114 12 L 0 0 z" fill="#431744" opacity="1.000"/>
<path d="M 1724 11 L 1114 12 L 1920 0 z" fill="#360b45" opacity="1.000"/>
<path d="M 0 300 L 1270 290 L 1920 300 z" fill="#806c80" opacity="1.000"/>
<path d="M 777 286 L 1270 290 L 0 300 z" fill="#94868b" opacity="1.000"/>
<path d="M 38 71 L 17 201 L 0 0 z" fill="#765761" opacity="1.000"/>
<path d="M 305 195 L 358 136 L 367 179 z" fill="#836c74" opacity="1.000"/>
<path d="M 79 277 L 168 275 L 0 300 z" fill="#b2af9d" opacity="1.000"/>
<path d="M 283 77 L 262 27 L 362 59 z" fill="#623c53" opacity="1.000"/>
<path d="M 174 199 L 208 76 L 246 126 z" fill="#7d636c" opacity="1.000"/>
<path d="M 138 60 L 208 76 L 174 199 z" fill="#775a65" opacity="1.000"/>
<path d="M 85 147 L 138 60 L 174 199 z" fill="#80676d" opacity="1.000"/>
<path d="M 227 22 L 144 36 L 0 0 z" fill="#5c3249" opacity="1.000"/>
<path d="M 777 286 L 863 274 L 1043 286 z" fill="#867482" opacity="1.000"/>
<path d="M 466 90 L 535 107 L 485 166 z" fill="#6f5164" opacity="1.000"/>
<path d="M 535 107 L 466 90 L 520 72 z" fill="#66445b" opacity="1.000"/>
<path d="M 554 116 L 535 107 L 520 72 z" fill="#67465d" opacity="1.000"/>
<path d="M 594 229 L 615 197 L 613 284 z" fill="#897780" opacity="1.000"/>
<path d="M 1270 290 L 1359 290 L 1920 300 z" fill="#674970" opacity="1.000"/>
<path d="M 38 71 L 74 121 L 17 201 z" fill="#82696d" opacity="1.000"/>
<path d="M 74 121 L 85 147 L 79 147 z" fill="#836b6f" opacity="1.000"/>
<path d="M 85 147 L 74 121 L 138 60 z" fill="#795c66" opacity="1.000"/>
<path d="M 308 123 L 358 136 L 305 195 z" fill="#7e656f" opacity="1.000"/>
<path d="M 511 191 L 530 175 L 594 229 z" fill="#826c77" opacity="1.000"/>
<path d="M 530 175 L 554 116 L 597 186 z" fill="#775c6d" opacity="1.000"/>
<path d="M 530 175 L 535 107 L 554 116 z" fill="#705366" opacity="1.000"/>
<path d="M 530 175 L 511 191 L 485 166 z" fill="#7e6673" opacity="1.000"/>
<path d="M 535 107 L 530 175 L 485 166 z" fill="#765b6b" opacity="1.000"/>
<path d="M 168 275 L 152 238 L 202 229 z" fill="#a2988f" opacity="1.000"/>
<path d="M 152 238 L 174 199 L 202 229 z" fill="#9a8c87" opacity="1.000"/>
<path d="M 79 277 L 102 266 L 168 275 z" fill="#aca798" opacity="1.000"/>
<path d="M 102 266 L 152 238 L 168 275 z" fill="#a79f93" opacity="1.000"/>
<path d="M 283 77 L 262 58 L 262 27 z" fill="#633d53" opacity="1.000"/>
<path d="M 262 58 L 208 76 L 227 22 z" fill="#633e53" opacity="1.000"/>
<path d="M 262 58 L 283 77 L 246 126 z" fill="#6d4c5d" opacity="1.000"/>
<path d="M 208 76 L 262 58 L 246 126 z" fill="#6d4d5d" opacity="1.000"/>
<path d="M 165 51 L 208 76 L 138 60 z" fill="#684456" opacity="1.000"/>
<path d="M 144 36 L 165 51 L 138 60 z" fill="#653f53" opacity="1.000"/>
<path d="M 208 76 L 165 51 L 227 22 z" fill="#633d52" opacity="1.000"/>
<path d="M 165 51 L 144 36 L 227 22 z" fill="#60384f" opacity="1.000"/>
<path d="M 362 94 L 405 55 L 466 90 z" fill="#66435a" opacity="1.000"/>
<path d="M 405 55 L 362 94 L 362 59 z" fill="#644057" opacity="1.000"/>
<path d="M 308 123 L 362 94 L 358 136 z" fill="#735665" opacity="1.000"/>
<path d="M 362 94 L 283 77 L 362 59 z" fill="#674559" opacity="1.000"/>
<path d="M 362 94 L 308 123 L 283 77 z" fill="#6e4f60" opacity="1.000"/>
<path d="M 1114 12 L 810 20 L 0 0 z" fill="#4d2246" opacity="1.000"/>
<path d="M 981 246 L 916 220 L 980 146 z" fill="#71576f" opacity="1.000"/>
<path d="M 916 220 L 871 145 L 980 146 z" fill="#6b4e69" opacity="1.000"/>
<path d="M 1031 244 L 1092 286 L 1043 286 z" fill="#7b657b" opacity="1.000"/>
<path d="M 1031 244 L 981 246 L 980 146 z" fill="#715770" opacity="1.000"/>
<path d="M 863 274 L 1024 279 L 1043 286 z" fill="#816d7f" opacity="1.000"/>
<path d="M 1024 279 L 1031 244 L 1043 286 z" fill="#7c667b" opacity="1.000"/>
<path d="M 1031 244 L 1024 279 L 981 246 z" fill="#7a6379" opacity="1.000"/>
<path d="M 929 239 L 863 274 L 893 239 z" fill="#7f697b" opacity="1.000"/>
<path d="M 916 220 L 929 239 L 893 239 z" fill="#7a6277" opacity="1.000"/>
<path d="M 929 239 L 916 220 L 981 246 z" fill="#796177" opacity="1.000"/>
<path d="M 1024 279 L 929 239 L 981 246 z" fill="#7b657a" opacity="1.000"/>
<path d="M 929 239 L 1024 279 L 863 274 z" fill="#7f6b7d" opacity="1.000"/>
<path d="M 863 274 L 852 235 L 893 239 z" fill="#806b7c" opacity="1.000"/>
<path d="M 615 197 L 601 203 L 597 186 z" fill="#7f6875" opacity="1.000"/>
<path d="M 601 203 L 615 197 L 594 229 z" fill="#826d79" opacity="1.000"/>
<path d="M 601 203 L 530 175 L 597 186 z" fill="#7e6774" opacity="1.000"/>
<path d="M 530 175 L 601 203 L 594 229 z" fill="#826c78" opacity="1.000"/>
<path d="M 1810 160 L 1755 143 L 1811 107 z" fill="#431b54" opacity="1.000"/>
<path d="M 1802 21 L 1724 11 L 1920 0 z" fill="#310645" opacity="1.000"/>
<path d="M 1874 265 L 1842 167 L 1920 300 z" fill="#4d275f" opacity="1.000"/>
<path d="M 1829 289 L 1874 265 L 1920 300 z" fill="#522e63" opacity="1.000"/>
<path d="M 1793 243 L 1829 289 L 1763 268 z" fill="#543064" opacity="1.000"/>
<path d="M 1793 243 L 1874 265 L 1829 289 z" fill="#522e62" opacity="1.000"/>
<path d="M 1730 76 L 1755 143 L 1737 148 z" fill="#431b53" opacity="1.000"/>
<path d="M 1755 143 L 1730 76 L 1811 107 z" fill="#401851" opacity="1.000"/>
<path d="M 1802 21 L 1730 76 L 1724 11 z" fill="#360c48" opacity="1.000"/>
<path d="M 1730 76 L 1802 21 L 1811 107 z" fill="#3a114c" opacity="1.000"/>
<path d="M 1537 176 L 1607 179 L 1587 207 z" fill="#53305f" opacity="1.000"/>
<path d="M 1522 128 L 1537 176 L 1484 113 z" fill="#4d2959" opacity="1.000"/>
<path d="M 1829 289 L 1682 285 L 1763 268 z" fill="#583567" opacity="1.000"/>
<path d="M 1682 285 L 1568 274 L 1587 271 z" fill="#5f3f6b" opacity="1.000"/>
<path d="M 1568 274 L 1682 285 L 1477 284 z" fill="#62426c" opacity="1.000"/>
<path d="M 1682 285 L 1829 289 L 1920 300 z" fill="#563366" opacity="1.000"/>
<path d="M 1359 290 L 1682 285 L 1920 300 z" fill="#5f3f6b" opacity="1.000"/>
<path d="M 1682 285 L 1359 290 L 1477 284 z" fill="#66496f" opacity="1.000"/>
<path d="M 1607 179 L 1603 225 L 1587 207 z" fill="#543261" opacity="1.000"/>
<path d="M 1193 28 L 1119 27 L 1114 12 z" fill="#441948" opacity="1.000"/>
<path d="M 1184 172 L 1147 220 L 1089 165 z" fill="#654768" opacity="1.000"/>
<path d="M 1147 220 L 1031 244 L 1089 165 z" fill="#6c516e" opacity="1.000"/>
<path d="M 1031 244 L 1147 220 L 1092 286 z" fill="#755c76" opacity="1.000"/>
<path d="M 74 121 L 77 58 L 138 60 z" fill="#704f5c" opacity="1.000"/>
<path d="M 77 58 L 74 121 L 38 71 z" fill="#72515e" opacity="1.000"/>
<path d="M 77 58 L 144 36 L 138 60 z" fill="#664153" opacity="1.000"/>
<path d="M 77 58 L 38 71 L 0 0 z" fill="#663f51" opacity="1.000"/>
<path d="M 144 36 L 77 58 L 0 0 z" fill="#61394d" opacity="1.000"/>
<path d="M 305 195 L 210 242 L 202 229 z" fill="#978885" opacity="1.000"/>
<path d="M 345 270 L 210 242 L 305 195 z" fill="#988b88" opacity="1.000"/>
<path d="M 210 242 L 168 275 L 202 229 z" fill="#a1978e" opacity="1.000"/>
<path d="M 210 242 L 345 270 L 168 275 z" fill="#a39a91" opacity="1.000"/>
<path d="M 374 247 L 305 195 L 367 179 z" fill="#8d7b7e" opacity="1.000"/>
<path d="M 374 247 L 345 270 L 305 195 z" fill="#968887" opacity="1.000"/>
<path d="M 257 132 L 308 123 L 305 195 z" fill="#7f666f" opacity="1.000"/>
<path d="M 257 132 L 305 195 L 202 229 z" fill="#8b777a" opacity="1.000"/>
<path d="M 283 77 L 257 132 L 246 126 z" fill="#745764" opacity="1.000"/>
<path d="M 308 123 L 257 132 L 283 77 z" fill="#735564" opacity="1.000"/>
<path d="M 257 132 L 174 199 L 246 126 z" fill="#826a71" opacity="1.000"/>
<path d="M 174 199 L 257 132 L 202 229 z" fill="#8d7a7b" opacity="1.000"/>
<path d="M 358 136 L 369 147 L 367 179 z" fill="#7d646f" opacity="1.000"/>
<path d="M 369 147 L 377 167 L 367 179 z" fill="#806872" opacity="1.000"/>
<path d="M 362 94 L 369 147 L 358 136 z" fill="#755867" opacity="1.000"/>
<path d="M 25 235 L 79 277 L 0 300 z" fill="#b0ac9a" opacity="1.000"/>
<path d="M 262 27 L 260 31 L 227 22 z" fill="#5b324b" opacity="1.000"/>
<path d="M 260 31 L 262 58 L 227 22 z" fill="#5e364e" opacity="1.000"/>
<path d="M 262 58 L 260 31 L 262 27 z" fill="#5e374f" opacity="1.000"/>
<path d="M 498 21 L 227 22 L 0 0 z" fill="#572d48" opacity="1.000"/>
<path d="M 810 20 L 498 21 L 0 0 z" fill="#532847" opacity="1.000"/>
<path d="M 832 265 L 852 235 L 863 274 z" fill="#836f7e" opacity="1.000"/>
<path d="M 741 247 L 777 286 L 613 284 z" fill="#8d7d86" opacity="1.000"/>
<path d="M 615 197 L 741 247 L 613 284 z" fill="#887680" opacity="1.000"/>
<path d="M 1805 198 L 1810 160 L 1842 167 z" fill="#472058" opacity="1.000"/>
<path d="M 1805 198 L 1793 243 L 1788 215 z" fill="#4e295e" opacity="1.000"/>
<path d="M 1874 265 L 1805 198 L 1842 167 z" fill="#4a255c" opacity="1.000"/>
<path d="M 1793 243 L 1805 198 L 1874 265 z" fill="#4e2a5f" opacity="1.000"/>
<path d="M 1810 160 L 1838 149 L 1842 167 z" fill="#441d56" opacity="1.000"/>
<path d="M 1838 149 L 1840 109 L 1842 167 z" fill="#421a54" opacity="1.000"/>
<path d="M 1840 109 L 1888 37 L 1842 167 z" fill="#3c144f" opacity="1.000"/>
<path d="M 1888 37 L 1920 0 L 1920 300 z" fill="#3b1350" opacity="1.000"/>
<path d="M 1842 167 L 1888 37 L 1920 300 z" fill="#431c56" opacity="1.000"/>
<path d="M 1848 67 L 1840 109 L 1811 107 z" fill="#3c134e" opacity="1.000"/>
<path d="M 1802 21 L 1848 67 L 1811 107 z" fill="#380f4b" opacity="1.000"/>
<path d="M 1848 67 L 1888 37 L 1840 109 z" fill="#380f4c" opacity="1.000"/>
<path d="M 1733 212 L 1678 159 L 1737 148 z" fill="#4b255a" opacity="1.000"/>
<path d="M 1678 159 L 1733 212 L 1680 215 z" fill="#4f2a5d" opacity="1.000"/>
<path d="M 1678 159 L 1730 76 L 1737 148 z" fill="#441d54" opacity="1.000"/>
<path d="M 1591 130 L 1607 179 L 1537 176 z" fill="#4f2a5b" opacity="1.000"/>
<path d="M 1522 128 L 1591 130 L 1537 176 z" fill="#4d2859" opacity="1.000"/>
<path d="M 1492 247 L 1568 274 L 1477 284 z" fill="#63446c" opacity="1.000"/>
<path d="M 1755 143 L 1770 170 L 1737 148 z" fill="#462057" opacity="1.000"/>
<path d="M 1770 170 L 1733 212 L 1737 148 z" fill="#4a245a" opacity="1.000"/>
<path d="M 1770 170 L 1805 198 L 1788 215 z" fill="#4b255b" opacity="1.000"/>
<path d="M 1770 170 L 1755 143 L 1810 160 z" fill="#462057" opacity="1.000"/>
<path d="M 1805 198 L 1770 170 L 1810 160 z" fill="#482259" opacity="1.000"/>
<path d="M 1682 285 L 1732 229 L 1763 268 z" fill="#573465" opacity="1.000"/>
<path d="M 1733 212 L 1732 229 L 1680 215 z" fill="#512e60" opacity="1.000"/>
<path d="M 1568 274 L 1561 241 L 1587 271 z" fill="#5f3f6a" opacity="1.000"/>
<path d="M 1561 241 L 1603 225 L 1587 271 z" fill="#5c3b67" opacity="1.000"/>
<path d="M 1603 225 L 1561 241 L 1587 207 z" fill="#583764" opacity="1.000"/>
<path d="M 1492 247 L 1561 241 L 1568 274 z" fill="#5f3f69" opacity="1.000"/>
<path d="M 1561 241 L 1537 176 L 1587 207 z" fill="#573562" opacity="1.000"/>
<path d="M 1561 241 L 1492 247 L 1537 176 z" fill="#5a3965" opacity="1.000"/>
<path d="M 1732 229 L 1673 228 L 1680 215 z" fill="#533061" opacity="1.000"/>
<path d="M 1673 228 L 1732 229 L 1682 285 z" fill="#563464" opacity="1.000"/>
<path d="M 1673 228 L 1607 179 L 1680 215 z" fill="#522f60" opacity="1.000"/>
<path d="M 1673 228 L 1603 225 L 1607 179 z" fill="#543161" opacity="1.000"/>
<path d="M 1673 228 L 1682 285 L 1587 271 z" fill="#5b3a67" opacity="1.000"/>
<path d="M 1603 225 L 1673 228 L 1587 271 z" fill="#593865" opacity="1.000"/>
<path d="M 1071 145 L 1002 106 L 1046 73 z" fill="#59355a" opacity="1.000"/>
<path d="M 1089 140 L 1071 145 L 1046 73 z" fill="#5a385c" opacity="1.000"/>
<path d="M 1002 106 L 1071 145 L 980 146 z" fill="#5f3e5f" opacity="1.000"/>
<path d="M 1071 145 L 1089 140 L 1089 165 z" fill="#604062" opacity="1.000"/>
<path d="M 1071 145 L 1031 244 L 980 146 z" fill="#684b68" opacity="1.000"/>
<path d="M 1031 244 L 1071 145 L 1089 165 z" fill="#684b69" opacity="1.000"/>
<path d="M 1138 121 L 1198 152 L 1184 172 z" fill="#5c3b60" opacity="1.000"/>
<path d="M 1138 121 L 1184 172 L 1089 165 z" fill="#5e3e61" opacity="1.000"/>
<path d="M 1089 140 L 1138 121 L 1089 165 z" fill="#5d3c60" opacity="1.000"/>
<path d="M 1138 121 L 1089 140 L 1046 73 z" fill="#58345a" opacity="1.000"/>
<path d="M 1146 54 L 1119 27 L 1193 28 z" fill="#461d4b" opacity="1.000"/>
<path d="M 1138 121 L 1146 54 L 1165 88 z" fill="#512b54" opacity="1.000"/>
<path d="M 1119 27 L 1146 54 L 1046 73 z" fill="#4b234e" opacity="1.000"/>
<path d="M 1146 54 L 1138 121 L 1046 73 z" fill="#512b54" opacity="1.000"/>
<path d="M 1473 84 L 1491 77 L 1484 113 z" fill="#472052" opacity="1.000"/>
<path d="M 1526 100 L 1491 77 L 1504 65 z" fill="#441d50" opacity="1.000"/>
<path d="M 1526 100 L 1522 128 L 1484 113 z" fill="#492355" opacity="1.000"/>
<path d="M 1491 77 L 1526 100 L 1484 113 z" fill="#472052" opacity="1.000"/>
<path d="M 1506 20 L 1473 84 L 1337 53 z" fill="#41194c" opacity="1.000"/>
<path d="M 1491 77 L 1506 20 L 1504 65 z" fill="#40174c" opacity="1.000"/>
<path d="M 1506 20 L 1491 77 L 1473 84 z" fill="#41194d" opacity="1.000"/>
<path d="M 1359 290 L 1437 283 L 1477 284 z" fill="#6a4e72" opacity="1.000"/>
<path d="M 1395 223 L 1437 283 L 1359 290 z" fill="#684c6f" opacity="1.000"/>
<path d="M 1338 232 L 1359 290 L 1270 290 z" fill="#6d5273" opacity="1.000"/>
<path d="M 1338 232 L 1395 223 L 1359 290 z" fill="#674a6e" opacity="1.000"/>
<path d="M 1147 220 L 1162 288 L 1092 286 z" fill="#765e77" opacity="1.000"/>
<path d="M 1092 286 L 1162 288 L 1043 286 z" fill="#7c667d" opacity="1.000"/>
<path d="M 1162 288 L 777 286 L 1043 286 z" fill="#826e80" opacity="1.000"/>
<path d="M 1162 288 L 1270 290 L 777 286 z" fill="#7e697e" opacity="1.000"/>
<path d="M 1178 254 L 1147 220 L 1184 172 z" fill="#6a4e6d" opacity="1.000"/>
<path d="M 1178 254 L 1162 288 L 1147 220 z" fill="#725974" opacity="1.000"/>
<path d="M 511 191 L 471 215 L 485 166 z" fill="#826d77" opacity="1.000"/>
<path d="M 471 215 L 511 191 L 594 229 z" fill="#86737b" opacity="1.000"/>
<path d="M 377 167 L 438 259 L 367 179 z" fill="#8a767c" opacity="1.000"/>
<path d="M 438 259 L 374 247 L 367 179 z" fill="#918183" opacity="1.000"/>
<path d="M 369 147 L 441 159 L 377 167 z" fill="#7d646f" opacity="1.000"/>
<path d="M 441 159 L 466 90 L 485 166 z" fill="#755969" opacity="1.000"/>
<path d="M 441 159 L 362 94 L 466 90 z" fill="#6f5163" opacity="1.000"/>
<path d="M 441 159 L 369 147 L 362 94 z" fill="#765a69" opacity="1.000"/>
<path d="M 471 215 L 441 159 L 485 166 z" fill="#806a74" opacity="1.000"/>
<path d="M 441 159 L 438 259 L 377 167 z" fill="#877279" opacity="1.000"/>
<path d="M 438 259 L 441 159 L 471 215 z" fill="#8a777d" opacity="1.000"/>
<path d="M 60 220 L 64 178 L 152 238 z" fill="#9a8d86" opacity="1.000"/>
<path d="M 64 178 L 85 147 L 174 199 z" fill="#8e7a7a" opacity="1.000"/>
<path d="M 152 238 L 64 178 L 174 199 z" fill="#968783" opacity="1.000"/>
<path d="M 85 147 L 64 178 L 79 147 z" fill="#897475" opacity="1.000"/>
<path d="M 64 178 L 74 121 L 79 147 z" fill="#877072" opacity="1.000"/>
<path d="M 74 121 L 64 178 L 17 201 z" fill="#8d7978" opacity="1.000"/>
<path d="M 102 266 L 76 245 L 152 238 z" fill="#a59d91" opacity="1.000"/>
<path d="M 76 245 L 60 220 L 152 238 z" fill="#a1978d" opacity="1.000"/>
<path d="M 76 245 L 102 266 L 79 277 z" fill="#aba596" opacity="1.000"/>
<path d="M 25 235 L 76 245 L 79 277 z" fill="#a9a193" opacity="1.000"/>
<path d="M 60 220 L 76 245 L 25 235 z" fill="#a3998e" opacity="1.000"/>
<path d="M 21 212 L 60 220 L 25 235 z" fill="#a0958b" opacity="1.000"/>
<path d="M 17 201 L 21 212 L 0 300 z" fill="#a69e90" opacity="1.000"/>
<path d="M 21 212 L 25 235 L 0 300 z" fill="#aaa394" opacity="1.000"/>
<path d="M 64 178 L 21 212 L 17 201 z" fill="#988982" opacity="1.000"/>
<path d="M 21 212 L 64 178 L 60 220 z" fill="#998b84" opacity="1.000"/>
<path d="M 262 27 L 405 25 L 362 59 z" fill="#5c344e" opacity="1.000"/>
<path d="M 405 25 L 405 55 L 362 59 z" fill="#5d3650" opacity="1.000"/>
<path d="M 405 25 L 262 27 L 227 22 z" fill="#59304b" opacity="1.000"/>
<path d="M 498 21 L 405 25 L 227 22 z" fill="#572d4a" opacity="1.000"/>
<path d="M 405 55 L 499 45 L 466 90 z" fill="#603b55" opacity="1.000"/>
<path d="M 405 25 L 499 45 L 405 55 z" fill="#5a334f" opacity="1.000"/>
<path d="M 499 45 L 405 25 L 498 21 z" fill="#562e4c" opacity="1.000"/>
<path d="M 466 90 L 499 45 L 520 72 z" fill="#603c56" opacity="1.000"/>
<path d="M 499 45 L 510 37 L 520 72 z" fill="#5b3551" opacity="1.000"/>
<path d="M 731 29 L 498 21 L 810 20 z" fill="#4f2549" opacity="1.000"/>
<path d="M 678 111 L 741 247 L 615 197 z" fill="#796071" opacity="1.000"/>
<path d="M 1037 46 L 923 37 L 1114 12 z" fill="#481f4a" opacity="1.000"/>
<path d="M 1119 27 L 1037 46 L 1114 12 z" fill="#461c49" opacity="1.000"/>
<path d="M 1037 46 L 1119 27 L 1046 73 z" fill="#4b234d" opacity="1.000"/>
<path d="M 1002 106 L 1037 46 L 1046 73 z" fill="#522c53" opacity="1.000"/>
<path d="M 923 37 L 1037 46 L 1002 106 z" fill="#502a51" opacity="1.000"/>
<path d="M 865 25 L 810 20 L 1114 12 z" fill="#481e48" opacity="1.000"/>
<path d="M 923 37 L 865 25 L 1114 12 z" fill="#481e49" opacity="1.000"/>
<path d="M 832 265 L 820 252 L 852 235 z" fill="#826d7d" opacity="1.000"/>
<path d="M 820 252 L 741 247 L 778 182 z" fill="#7f6979" opacity="1.000"/>
<path d="M 852 235 L 864 225 L 893 239 z" fill="#7c6578" opacity="1.000"/>
<path d="M 864 225 L 916 220 L 893 239 z" fill="#7a6276" opacity="1.000"/>
<path d="M 864 225 L 858 204 L 916 220 z" fill="#775f74" opacity="1.000"/>
<path d="M 916 220 L 863 171 L 871 145 z" fill="#6e536b" opacity="1.000"/>
<path d="M 858 204 L 863 171 L 916 220 z" fill="#735970" opacity="1.000"/>
<path d="M 871 145 L 877 120 L 980 146 z" fill="#644462" opacity="1.000"/>
<path d="M 1840 109 L 1815 110 L 1811 107 z" fill="#3e1650" opacity="1.000"/>
<path d="M 1838 149 L 1815 110 L 1840 109 z" fill="#3f1852" opacity="1.000"/>
<path d="M 1815 110 L 1810 160 L 1811 107 z" fill="#401952" opacity="1.000"/>
<path d="M 1815 110 L 1838 149 L 1810 160 z" fill="#421b54" opacity="1.000"/>
<path d="M 1842 22 L 1848 67 L 1802 21 z" fill="#340a48" opacity="1.000"/>
<path d="M 1842 22 L 1802 21 L 1920 0 z" fill="#310645" opacity="1.000"/>
<path d="M 1888 37 L 1842 22 L 1920 0 z" fill="#310646" opacity="1.000"/>
<path d="M 1607 179 L 1641 151 L 1680 215 z" fill="#4f2b5d" opacity="1.000"/>
<path d="M 1641 151 L 1678 159 L 1680 215 z" fill="#4d285b" opacity="1.000"/>
<path d="M 1730 76 L 1641 151 L 1579 84 z" fill="#431c52" opacity="1.000"/>
<path d="M 1678 159 L 1641 151 L 1730 76 z" fill="#461f55" opacity="1.000"/>
<path d="M 1748 219 L 1770 170 L 1788 215 z" fill="#4c275c" opacity="1.000"/>
<path d="M 1770 170 L 1748 219 L 1733 212 z" fill="#4d285d" opacity="1.000"/>
<path d="M 1748 219 L 1732 229 L 1733 212 z" fill="#502c5f" opacity="1.000"/>
<path d="M 1793 243 L 1748 219 L 1788 215 z" fill="#4f2b5f" opacity="1.000"/>
<path d="M 1748 219 L 1793 243 L 1763 268 z" fill="#522e62" opacity="1.000"/>
<path d="M 1732 229 L 1748 219 L 1763 268 z" fill="#522f62" opacity="1.000"/>
<path d="M 1201 78 L 1201 118 L 1165 88 z" fill="#512c55" opacity="1.000"/>
<path d="M 1201 118 L 1138 121 L 1165 88 z" fill="#543058" opacity="1.000"/>
<path d="M 1138 121 L 1201 118 L 1198 152 z" fill="#58365c" opacity="1.000"/>
<path d="M 1225 94 L 1201 118 L 1201 78 z" fill="#512c56" opacity="1.000"/>
<path d="M 1201 118 L 1225 94 L 1235 100 z" fill="#522d57" opacity="1.000"/>
<path d="M 1189 59 L 1146 54 L 1193 28 z" fill="#481f4c" opacity="1.000"/>
<path d="M 1189 59 L 1201 78 L 1165 88 z" fill="#4d2752" opacity="1.000"/>
<path d="M 1146 54 L 1189 59 L 1165 88 z" fill="#4c2550" opacity="1.000"/>
<path d="M 1579 114 L 1591 130 L 1522 128 z" fill="#492356" opacity="1.000"/>
<path d="M 1526 100 L 1579 114 L 1522 128 z" fill="#482255" opacity="1.000"/>
<path d="M 1575 83 L 1579 114 L 1526 100 z" fill="#451e52" opacity="1.000"/>
<path d="M 1591 130 L 1579 114 L 1579 84 z" fill="#462053" opacity="1.000"/>
<path d="M 1579 114 L 1575 83 L 1579 84 z" fill="#441d51" opacity="1.000"/>
<path d="M 1305 19 L 1506 20 L 1337 53 z" fill="#3f1549" opacity="1.000"/>
<path d="M 1278 57 L 1305 19 L 1337 53 z" fill="#431a4b" opacity="1.000"/>
<path d="M 1305 19 L 1193 28 L 1114 12 z" fill="#411747" opacity="1.000"/>
<path d="M 1305 19 L 1114 12 L 1724 11 z" fill="#3c1146" opacity="1.000"/>
<path d="M 1506 20 L 1305 19 L 1724 11 z" fill="#390f46" opacity="1.000"/>
<path d="M 1479 243 L 1437 283 L 1395 223 z" fill="#63456c" opacity="1.000"/>
<path d="M 1479 243 L 1395 223 L 1484 113 z" fill="#593862" opacity="1.000"/>
<path d="M 1479 243 L 1492 247 L 1477 284 z" fill="#63446c" opacity="1.000"/>
<path d="M 1437 283 L 1479 243 L 1477 284 z" fill="#66486e" opacity="1.000"/>
<path d="M 1537 176 L 1479 243 L 1484 113 z" fill="#54325f" opacity="1.000"/>
<path d="M 1492 247 L 1479 243 L 1537 176 z" fill="#5c3b66" opacity="1.000"/>
<path d="M 1278 57 L 1317 85 L 1235 100 z" fill="#4b2552" opacity="1.000"/>
<path d="M 1317 85 L 1278 57 L 1337 53 z" fill="#47204f" opacity="1.000"/>
<path d="M 1473 84 L 1386 114 L 1337 53 z" fill="#482151" opacity="1.000"/>
<path d="M 1386 114 L 1473 84 L 1484 113 z" fill="#4a2454" opacity="1.000"/>
<path d="M 1338 232 L 1371 206 L 1395 223 z" fill="#624369" opacity="1.000"/>
<path d="M 441 279 L 438 259 L 471 215 z" fill="#958788" opacity="1.000"/>
<path d="M 441 279 L 594 229 L 613 284 z" fill="#938588" opacity="1.000"/>
<path d="M 441 279 L 471 215 L 594 229 z" fill="#908084" opacity="1.000"/>
<path d="M 441 279 L 613 284 L 0 300 z" fill="#a59d95" opacity="1.000"/>
<path d="M 806 67 L 731 29 L 810 20 z" fill="#50284d" opacity="1.000"/>
<path d="M 731 29 L 506 25 L 498 21 z" fill="#52294a" opacity="1.000"/>
<path d="M 506 25 L 499 45 L 498 21 z" fill="#562d4c" opacity="1.000"/>
<path d="M 499 45 L 506 25 L 510 37 z" fill="#572f4d" opacity="1.000"/>
<path d="M 506 25 L 731 29 L 691 66 z" fill="#542d4e" opacity="1.000"/>
<path d="M 642 97 L 678 111 L 615 197 z" fill="#6d4f65" opacity="1.000"/>
<path d="M 678 111 L 642 97 L 691 66 z" fill="#613e5a" opacity="1.000"/>
<path d="M 642 97 L 506 25 L 691 66 z" fill="#5b3653" opacity="1.000"/>
<path d="M 506 25 L 642 97 L 510 37 z" fill="#5a3451" opacity="1.000"/>
<path d="M 892 50 L 865 25 L 923 37 z" fill="#4d254c" opacity="1.000"/>
<path d="M 841 215 L 820 252 L 778 182 z" fill="#7a6376" opacity="1.000"/>
<path d="M 863 171 L 841 215 L 778 182 z" fill="#73596f" opacity="1.000"/>
<path d="M 841 215 L 863 171 L 858 204 z" fill="#745a70" opacity="1.000"/>
<path d="M 820 252 L 841 215 L 852 235 z" fill="#7e6879" opacity="1.000"/>
<path d="M 841 215 L 864 225 L 852 235 z" fill="#7b6477" opacity="1.000"/>
<path d="M 864 225 L 841 215 L 858 204 z" fill="#786074" opacity="1.000"/>
<path d="M 741 247 L 784 281 L 777 286 z" fill="#8a7984" opacity="1.000"/>
<path d="M 820 252 L 784 281 L 741 247 z" fill="#877481" opacity="1.000"/>
<path d="M 784 281 L 820 252 L 832 265 z" fill="#867481" opacity="1.000"/>
<path d="M 784 281 L 863 274 L 777 286 z" fill="#8a7985" opacity="1.000"/>
<path d="M 784 281 L 832 265 L 863 274 z" fill="#877682" opacity="1.000"/>
<path d="M 863 171 L 843 131 L 871 145 z" fill="#684a65" opacity="1.000"/>
<path d="M 843 131 L 863 171 L 778 182 z" fill="#6d5069" opacity="1.000"/>
<path d="M 806 67 L 843 131 L 778 182 z" fill="#654561" opacity="1.000"/>
<path d="M 843 131 L 806 67 L 865 96 z" fill="#5d3a5a" opacity="1.000"/>
<path d="M 843 131 L 877 120 L 871 145 z" fill="#644461" opacity="1.000"/>
<path d="M 877 120 L 843 131 L 865 96 z" fill="#603f5e" opacity="1.000"/>
<path d="M 1848 67 L 1857 43 L 1888 37 z" fill="#350b49" opacity="1.000"/>
<path d="M 1857 43 L 1842 22 L 1888 37 z" fill="#330947" opacity="1.000"/>
<path d="M 1842 22 L 1857 43 L 1848 67 z" fill="#350b49" opacity="1.000"/>
<path d="M 1591 130 L 1628 150 L 1607 179 z" fill="#4c2759" opacity="1.000"/>
<path d="M 1628 150 L 1641 151 L 1607 179 z" fill="#4c285a" opacity="1.000"/>
<path d="M 1628 150 L 1591 130 L 1579 84 z" fill="#472155" opacity="1.000"/>
<path d="M 1641 151 L 1628 150 L 1579 84 z" fill="#482256" opacity="1.000"/>
<path d="M 1252 59 L 1225 94 L 1201 78 z" fill="#4c2652" opacity="1.000"/>
<path d="M 1252 59 L 1278 57 L 1235 100 z" fill="#4a2351" opacity="1.000"/>
<path d="M 1225 94 L 1252 59 L 1235 100 z" fill="#4d2753" opacity="1.000"/>
<path d="M 1252 59 L 1189 59 L 1193 28 z" fill="#471f4d" opacity="1.000"/>
<path d="M 1189 59 L 1252 59 L 1201 78 z" fill="#4a2350" opacity="1.000"/>
<path d="M 1305 19 L 1252 59 L 1193 28 z" fill="#431a4a" opacity="1.000"/>
<path d="M 1252 59 L 1305 19 L 1278 57 z" fill="#441c4c" opacity="1.000"/>
<path d="M 1506 20 L 1573 49 L 1504 65 z" fill="#3e144a" opacity="1.000"/>
<path d="M 1573 49 L 1526 100 L 1504 65 z" fill="#421a4e" opacity="1.000"/>
<path d="M 1573 49 L 1575 83 L 1526 100 z" fill="#421a4f" opacity="1.000"/>
<path d="M 1575 83 L 1573 49 L 1579 84 z" fill="#41184e" opacity="1.000"/>
<path d="M 1573 49 L 1506 20 L 1724 11 z" fill="#390f47" opacity="1.000"/>
<path d="M 1730 76 L 1573 49 L 1724 11 z" fill="#3a104a" opacity="1.000"/>
<path d="M 1573 49 L 1730 76 L 1579 84 z" fill="#3f164d" opacity="1.000"/>
<path d="M 1303 195 L 1320 122 L 1353 130 z" fill="#56345d" opacity="1.000"/>
<path d="M 1317 85 L 1320 122 L 1235 100 z" fill="#4f2a56" opacity="1.000"/>
<path d="M 1266 251 L 1338 232 L 1270 290 z" fill="#6c5171" opacity="1.000"/>
<path d="M 1266 251 L 1303 195 L 1338 232 z" fill="#66486b" opacity="1.000"/>
<path d="M 1342 79 L 1386 114 L 1353 130 z" fill="#4e2856" opacity="1.000"/>
<path d="M 1320 122 L 1342 79 L 1353 130 z" fill="#4f2a57" opacity="1.000"/>
<path d="M 1342 79 L 1320 122 L 1317 85 z" fill="#4c2754" opacity="1.000"/>
<path d="M 1342 79 L 1317 85 L 1337 53 z" fill="#482150" opacity="1.000"/>
<path d="M 1386 114 L 1342 79 L 1337 53 z" fill="#492251" opacity="1.000"/>
<path d="M 1371 206 L 1378 159 L 1395 223 z" fill="#5d3c64" opacity="1.000"/>
<path d="M 1378 159 L 1303 195 L 1353 130 z" fill="#58365f" opacity="1.000"/>
<path d="M 438 259 L 399 278 L 374 247 z" fill="#9a8e8c" opacity="1.000"/>
<path d="M 441 279 L 399 278 L 438 259 z" fill="#9c918e" opacity="1.000"/>
<path d="M 374 247 L 399 278 L 345 270 z" fill="#9d928e" opacity="1.000"/>
<path d="M 345 270 L 399 278 L 168 275 z" fill="#a39b93" opacity="1.000"/>
<path d="M 168 275 L 399 278 L 0 300 z" fill="#aca799" opacity="1.000"/>
<path d="M 399 278 L 441 279 L 0 300 z" fill="#a8a197" opacity="1.000"/>
<path d="M 731 29 L 692 108 L 691 66 z" fill="#5a3554" opacity="1.000"/>
<path d="M 806 67 L 692 108 L 731 29 z" fill="#593354" opacity="1.000"/>
<path d="M 692 108 L 678 111 L 691 66 z" fill="#613f5b" opacity="1.000"/>
<path d="M 692 108 L 806 67 L 778 182 z" fill="#654560" opacity="1.000"/>
<path d="M 741 247 L 692 108 L 778 182 z" fill="#755b6e" opacity="1.000"/>
<path d="M 678 111 L 692 108 L 741 247 z" fill="#705469" opacity="1.000"/>
<path d="M 865 25 L 833 28 L 810 20 z" fill="#4c2249" opacity="1.000"/>
<path d="M 833 28 L 806 67 L 810 20 z" fill="#4f274c" opacity="1.000"/>
<path d="M 598 111 L 615 197 L 597 186 z" fill="#765c6e" opacity="1.000"/>
<path d="M 598 111 L 642 97 L 615 197 z" fill="#6e5166" opacity="1.000"/>
<path d="M 554 116 L 598 111 L 597 186 z" fill="#705367" opacity="1.000"/>
<path d="M 598 111 L 554 116 L 520 72 z" fill="#67465d" opacity="1.000"/>
<path d="M 510 37 L 598 111 L 520 72 z" fill="#603c57" opacity="1.000"/>
<path d="M 642 97 L 598 111 L 510 37 z" fill="#613e59" opacity="1.000"/>
<path d="M 856 58 L 892 50 L 865 96 z" fill="#552f53" opacity="1.000"/>
<path d="M 892 50 L 856 58 L 865 25 z" fill="#4f274d" opacity="1.000"/>
<path d="M 856 58 L 833 28 L 865 25 z" fill="#4e264c" opacity="1.000"/>
<path d="M 806 67 L 856 58 L 865 96 z" fill="#573254" opacity="1.000"/>
<path d="M 833 28 L 856 58 L 806 67 z" fill="#522b4f" opacity="1.000"/>
<path d="M 908 86 L 892 50 L 923 37 z" fill="#512b50" opacity="1.000"/>
<path d="M 908 86 L 1002 106 L 980 146 z" fill="#5c3a5c" opacity="1.000"/>
<path d="M 908 86 L 923 37 L 1002 106 z" fill="#552f54" opacity="1.000"/>
<path d="M 1320 122 L 1264 156 L 1235 100 z" fill="#54315a" opacity="1.000"/>
<path d="M 1264 156 L 1320 122 L 1303 195 z" fill="#59385f" opacity="1.000"/>
<path d="M 1264 156 L 1201 118 L 1235 100 z" fill="#55325a" opacity="1.000"/>
<path d="M 1201 118 L 1264 156 L 1198 152 z" fill="#59375e" opacity="1.000"/>
<path d="M 1198 152 L 1264 156 L 1184 172 z" fill="#5d3c61" opacity="1.000"/>
<path d="M 1248 257 L 1266 251 L 1270 290 z" fill="#6f5574" opacity="1.000"/>
<path d="M 1162 288 L 1248 257 L 1270 290 z" fill="#745b77" opacity="1.000"/>
<path d="M 1178 254 L 1248 257 L 1162 288 z" fill="#735a76" opacity="1.000"/>
<path d="M 1386 114 L 1389 134 L 1353 130 z" fill="#502c59" opacity="1.000"/>
<path d="M 1389 134 L 1378 159 L 1353 130 z" fill="#53305b" opacity="1.000"/>
<path d="M 1389 134 L 1386 114 L 1484 113 z" fill="#4e2957" opacity="1.000"/>
<path d="M 1395 223 L 1389 134 L 1484 113 z" fill="#54315d" opacity="1.000"/>
<path d="M 1378 159 L 1389 134 L 1395 223 z" fill="#583660" opacity="1.000"/>
<path d="M 1378 159 L 1368 200 L 1303 195 z" fill="#5c3b63" opacity="1.000"/>
<path d="M 1368 200 L 1378 159 L 1371 206 z" fill="#5c3b63" opacity="1.000"/>
<path d="M 1303 195 L 1368 200 L 1338 232 z" fill="#614268" opacity="1.000"/>
<path d="M 1368 200 L 1371 206 L 1338 232 z" fill="#614268" opacity="1.000"/>
<path d="M 892 50 L 893 100 L 865 96 z" fill="#583356" opacity="1.000"/>
<path d="M 908 86 L 893 100 L 892 50 z" fill="#573255" opacity="1.000"/>
<path d="M 893 100 L 877 120 L 865 96 z" fill="#5d3b5b" opacity="1.000"/>
<path d="M 877 120 L 893 100 L 980 146 z" fill="#603f5e" opacity="1.000"/>
<path d="M 893 100 L 908 86 L 980 146 z" fill="#5d3b5c" opacity="1.000"/>
<path d="M 1266 251 L 1243 246 L 1303 195 z" fill="#684b6d" opacity="1.000"/>
<path d="M 1243 246 L 1264 156 L 1303 195 z" fill="#624367" opacity="1.000"/>
<path d="M 1248 257 L 1243 246 L 1266 251 z" fill="#6d5271" opacity="1.000"/>
<path d="M 1264 156 L 1243 246 L 1184 172 z" fill="#624467" opacity="1.000"/>
<path d="M 1243 246 L 1178 254 L 1184 172 z" fill="#6a4e6e" opacity="1.000"/>
<path d="M 1243 246 L 1248 257 L 1178 254 z" fill="#6f5472" opacity="1.000"/>
</svg>
