<?xml version="1.0" encoding="utf-8"?>
<svg xmlns="http://www.w3.org/2000/svg" width="1920" height="300"
     xmlns:xlink="http://www.w3.org/1999/xlink">
  <!-- created with "splines.py -drift 10 -dy 40" -->
   
<defs>
 <linearGradient id="grad0"><stop offset="0%" stop-color="#5164a4"/><stop offset="100%" stop-color="#102a83"/></linearGradient>
 <linearGradient id="grad1"><stop offset="0%" stop-color="#5b6da9"/><stop offset="100%" stop-color="#183187"/></linearGradient>
 <linearGradient id="grad2"><stop offset="0%" stop-color="#6677af"/><stop offset="100%" stop-color="#21398c"/></linearGradient>
 <linearGradient id="grad3"><stop offset="0%" stop-color="#7180b5"/><stop offset="100%" stop-color="#294190"/></linearGradient>
 <linearGradient id="grad4"><stop offset="0%" stop-color="#7c8aba"/><stop offset="100%" stop-color="#324895"/></linearGradient>
 <linearGradient id="grad5"><stop offset="0%" stop-color="#8794c0"/><stop offset="100%" stop-color="#3b5099"/></linearGradient>
 <linearGradient id="grad6"><stop offset="0%" stop-color="#919dc6"/><stop offset="100%" stop-color="#43589e"/></linearGradient>
 <linearGradient id="grad7"><stop offset="0%" stop-color="#9ca7cb"/><stop offset="100%" stop-color="#4c5fa2"/></linearGradient>
 <linearGradient id="grad8"><stop offset="0%" stop-color="#a7b0d1"/><stop offset="100%" stop-color="#5467a7"/></linearGradient>
 <linearGradient id="grad9"><stop offset="0%" stop-color="#b2bad7"/><stop offset="100%" stop-color="#5d6fab"/></linearGradient>
</defs>
<g>
<rect x="0" y="0" width="1920" height="300" fill="url(#grad0)"/>
<path d="M 0 300 L 0 0.0 c 64.0 -31 128.0 11 192.0 -14  s 64.0 -5 192.0 15 s 64.0 -23 192.0 -7 s 64.0 -31 192.0 33 s 64.0 38 192.0 -28 s 64.0 -30 192.0 -2 s 64.0 13 192.0 -20 s 64.0 17 192.0 12 s 64.0 14 192.0 -15 s 64.0 -17 192.0 -3 s 64.0 -16 192.0 -11 L 1920 300 Z" fill="url(#grad0)" stroke="none"/>
<path d="M 0 300 L 0 30.0 c 64.0 -24 128.0 -8 192.0 38  s 64.0 -35 192.0 -1 s 64.0 0 192.0 1 s 64.0 -1 192.0 4 s 64.0 -29 192.0 10 s 64.0 44 192.0 36 s 64.0 41 192.0 -1 s 64.0 -7 192.0 -5 s 64.0 -26 192.0 3 s 64.0 22 192.0 41 s 64.0 10 192.0 45 L 1920 300 Z" fill="url(#grad1)" stroke="none"/>
<path d="M 0 300 L 0 60.0 c 64.0 -30 128.0 -31 192.0 -4  s 64.0 -31 192.0 29 s 64.0 45 192.0 42 s 64.0 15 192.0 39 s 64.0 10 192.0 32 s 64.0 34 192.0 21 s 64.0 19 192.0 -12 s 64.0 -19 192.0 47 s 64.0 -25 192.0 25 s 64.0 -11 192.0 -4 s 64.0 13 192.0 -8 L 1920 300 Z" fill="url(#grad2)" stroke="none"/>
<path d="M 0 300 L 0 90.0 c 64.0 4 128.0 22 192.0 -30  s 64.0 17 192.0 33 s 64.0 -3 192.0 9 s 64.0 10 192.0 -6 s 64.0 -21 192.0 14 s 64.0 20 192.0 40 s 64.0 14 192.0 47 s 64.0 4 192.0 5 s 64.0 30 192.0 9 s 64.0 -15 192.0 21 s 64.0 -28 192.0 -28 L 1920 300 Z" fill="url(#grad3)" stroke="none"/>
<path d="M 0 300 L 0 120.0 c 64.0 2 128.0 3 192.0 -12  s 64.0 17 192.0 -20 s 64.0 -30 192.0 -25 s 64.0 -24 192.0 -20 s 64.0 11 192.0 18 s 64.0 -1 192.0 48 s 64.0 -13 192.0 -12 s 64.0 12 192.0 -23 s 64.0 -18 192.0 46 s 64.0 23 192.0 42 s 64.0 29 192.0 -21 L 1920 300 Z" fill="url(#grad4)" stroke="none"/>
<path d="M 0 300 L 0 150.0 c 64.0 -3 128.0 -22 192.0 -8  s 64.0 21 192.0 11 s 64.0 -22 192.0 -11 s 64.0 35 192.0 3 s 64.0 -16 192.0 7 s 64.0 -12 192.0 13 s 64.0 -23 192.0 -8 s 64.0 -10 192.0 -28 s 64.0 3 192.0 7 s 64.0 -9 192.0 -25 s 64.0 3 192.0 14 L 1920 300 Z" fill="url(#grad5)" stroke="none"/>
<path d="M 0 300 L 0 180.0 c 64.0 -19 128.0 -7 192.0 -28  s 64.0 -9 192.0 4 s 64.0 -26 192.0 48 s 64.0 -34 192.0 35 s 64.0 -34 192.0 44 s 64.0 -24 192.0 44 s 64.0 7 192.0 8 s 64.0 25 192.0 22 s 64.0 18 192.0 42 s 64.0 -29 192.0 -29 s 64.0 27 192.0 -6 L 1920 300 Z" fill="url(#grad6)" stroke="none"/>
<path d="M 0 300 L 0 210.0 c 64.0 3 128.0 28 192.0 -13  s 64.0 -27 192.0 46 s 64.0 37 192.0 26 s 64.0 32 192.0 -15 s 64.0 5 192.0 45 s 64.0 -32 192.0 26 s 64.0 38 192.0 -22 s 64.0 8 192.0 0 s 64.0 12 192.0 5 s 64.0 26 192.0 -2 s 64.0 30 192.0 33 L 1920 300 Z" fill="url(#grad7)" stroke="none"/>
<path d="M 0 300 L 0 240.0 c 64.0 14 128.0 -27 192.0 22  s 64.0 27 192.0 -13 s 64.0 42 192.0 24 s 64.0 14 192.0 33 s 64.0 -8 192.0 -15 s 64.0 36 192.0 35 s 64.0 -17 192.0 2 s 64.0 33 192.0 -24 s 64.0 -28 192.0 -6 s 64.0 -19 192.0 -13 s 64.0 -12 192.0 -23 L 1920 300 Z" fill="url(#grad8)" stroke="none"/>
<path d="M 0 300 L 0 270.0 c 64.0 22 128.0 2 192.0 19  s 64.0 12 192.0 -27 s 64.0 12 192.0 47 s 64.0 33 192.0 4 s 64.0 29 192.0 11 s 64.0 -35 192.0 8 s 64.0 37 192.0 38 s 64.0 -17 192.0 -6 s 64.0 -9 192.0 -4 s 64.0 31 192.0 -10 s 64.0 23 192.0 -5 L 1920 300 Z" fill="url(#grad9)" stroke="none"/>
</g></svg>
