<?xml version="1.0" encoding="utf-8"?>
<svg xmlns="http://www.w3.org/2000/svg" width="1920" height="300"
     xmlns:xlink="http://www.w3.org/1999/xlink">
  <!-- created with "splines.py -xnum 4 -dy 100" -->
   
<defs>
 <linearGradient id="grad0"><stop offset="0%" stop-color="#5164a4"/><stop offset="100%" stop-color="#102a83"/></linearGradient>
 <linearGradient id="grad1"><stop offset="0%" stop-color="#5b6da9"/><stop offset="100%" stop-color="#183187"/></linearGradient>
 <linearGradient id="grad2"><stop offset="0%" stop-color="#6677af"/><stop offset="100%" stop-color="#21398c"/></linearGradient>
 <linearGradient id="grad3"><stop offset="0%" stop-color="#7180b5"/><stop offset="100%" stop-color="#294190"/></linearGradient>
 <linearGradient id="grad4"><stop offset="0%" stop-color="#7c8aba"/><stop offset="100%" stop-color="#324895"/></linearGradient>
 <linearGradient id="grad5"><stop offset="0%" stop-color="#8794c0"/><stop offset="100%" stop-color="#3b5099"/></linearGradient>
 <linearGradient id="grad6"><stop offset="0%" stop-color="#919dc6"/><stop offset="100%" stop-color="#43589e"/></linearGradient>
 <linearGradient id="grad7"><stop offset="0%" stop-color="#9ca7cb"/><stop offset="100%" stop-color="#4c5fa2"/></linearGradient>
 <linearGradient id="grad8"><stop offset="0%" stop-color="#a7b0d1"/><stop offset="100%" stop-color="#5467a7"/></linearGradient>
 <linearGradient id="grad9"><stop offset="0%" stop-color="#b2bad7"/><stop offset="100%" stop-color="#5d6fab"/></linearGradient>
</defs>
<g>
<rect x="0" y="0" width="1920" height="300" fill="url(#grad0)"/>
<path d="M 0 300 L 0 0.0 c 160.0 41 320.0 -40 480.0 -66  s 160.0 -34 480.0 60 s 160.0 90 480.0 16 s 160.0 59 480.0 -52 s 160.0 86 480.0 75 L 1920 300 Z" fill="url(#grad0)" stroke="none"/>
<path d="M 0 300 L 0 30.0 c 160.0 66 320.0 16 480.0 78  s 160.0 27 480.0 -66 s 160.0 22 480.0 -73 s 160.0 -18 480.0 -90 s 160.0 -56 480.0 -68 L 1920 300 Z" fill="url(#grad1)" stroke="none"/>
<path d="M 0 300 L 0 60.0 c 160.0 66 320.0 -43 480.0 49  s 160.0 -24 480.0 81 s 160.0 4 480.0 -18 s 160.0 37 480.0 -4 s 160.0 63 480.0 65 L 1920 300 Z" fill="url(#grad2)" stroke="none"/>
<path d="M 0 300 L 0 90.0 c 160.0 -62 320.0 50 480.0 23  s 160.0 23 480.0 -31 s 160.0 81 480.0 45 s 160.0 -76 480.0 -23 s 160.0 39 480.0 -48 L 1920 300 Z" fill="url(#grad3)" stroke="none"/>
<path d="M 0 300 L 0 120.0 c 160.0 89 320.0 -75 480.0 -11  s 160.0 98 480.0 100 s 160.0 86 480.0 -71 s 160.0 42 480.0 17 s 160.0 -8 480.0 -64 L 1920 300 Z" fill="url(#grad4)" stroke="none"/>
<path d="M 0 300 L 0 150.0 c 160.0 -14 320.0 -73 480.0 11  s 160.0 7 480.0 23 s 160.0 -98 480.0 -44 s 160.0 -43 480.0 -66 s 160.0 13 480.0 60 L 1920 300 Z" fill="url(#grad5)" stroke="none"/>
<path d="M 0 300 L 0 180.0 c 160.0 23 320.0 -65 480.0 -84  s 160.0 -71 480.0 81 s 160.0 28 480.0 -10 s 160.0 -45 480.0 -71 s 160.0 46 480.0 -44 L 1920 300 Z" fill="url(#grad6)" stroke="none"/>
<path d="M 0 300 L 0 210.0 c 160.0 24 320.0 -18 480.0 58  s 160.0 -40 480.0 -31 s 160.0 94 480.0 70 s 160.0 -56 480.0 -30 s 160.0 -58 480.0 -18 L 1920 300 Z" fill="url(#grad7)" stroke="none"/>
<path d="M 0 300 L 0 240.0 c 160.0 -47 320.0 -21 480.0 13  s 160.0 8 480.0 97 s 160.0 -55 480.0 -95 s 160.0 100 480.0 -69 s 160.0 -92 480.0 -97 L 1920 300 Z" fill="url(#grad8)" stroke="none"/>
<path d="M 0 300 L 0 270.0 c 160.0 16 320.0 16 480.0 77  s 160.0 52 480.0 -71 s 160.0 -66 480.0 38 s 160.0 -47 480.0 -30 s 160.0 95 480.0 63 L 1920 300 Z" fill="url(#grad9)" stroke="none"/>
</g></svg>
