<?xml version="1.0" ?><svg enable-background="new 0 0 2560 1600" id="svgcanvas" version="1.1" viewBox="0 0 2560 1600" x="0px" xmlns="http://www.w3.org/2000/svg" y="0px">
  <g>
    <linearGradient gradientTransform="matrix(1 0 0 -1 0 1600)" gradientUnits="userSpaceOnUse" id="SVGID_1_" x1="-1116.9996" x2="914.0289" y1="1983.3138" y2="-1592.9404">
    <stop offset="0%" stop-color="#DDE7E8"/><stop offset="25%" stop-color="#EEF3F3"/><stop offset="50%" stop-color="#DDE7E8"/><stop offset="75%" stop-color="#DDE7E8"/></linearGradient>
    <path d="M0,1600h18.73c-6.897-8.925-13.115-17.667-18.73-26.248V1600z" fill="url(#SVGID_1_)"/>
    <linearGradient gradientTransform="matrix(1 0 0 -1 0 1600)" gradientUnits="userSpaceOnUse" id="SVGID_2_" x1="-1013.825" x2="1032.7994" y1="2044.0406" y2="-1528.937">
    <stop offset="0%" stop-color="#DDE7E8"/><stop offset="25%" stop-color="#EEF3F3"/><stop offset="50%" stop-color="#EEF3F3"/><stop offset="75%" stop-color="#F6F9F9"/></linearGradient>
    <path d="M0,1085.256v488.497c5.616,8.58,11.833,17.323,18.73,26.248h197.294 c-5.295-5.94-10.927-11.921-16.958-17.952C2.611,1385.593,140.248,1268.38,0,1085.256z" fill="url(#SVGID_2_)"/>
    <linearGradient gradientTransform="matrix(1 0 0 -1 0 1600)" gradientUnits="userSpaceOnUse" id="SVGID_3_" x1="-876.2826" x2="1185.938" y1="2124.4285" y2="-1445.2725">
    <stop offset="0%" stop-color="#F6F9F9"/><stop offset="25%" stop-color="#DDE7E8"/><stop offset="50%" stop-color="#F6F9F9"/><stop offset="75%" stop-color="#DDE7E8"/></linearGradient>
    <path d="M109.576,936.407C65.454,892.285,30.139,856.522,0,825.67v259.586 c140.248,183.124,2.611,300.337,199.067,496.792c6.03,6.03,11.663,12.012,16.958,17.952h211.842 c-13.503-32.37-35.763-65.927-71.094-101.258C142.274,1284.244,324.074,1150.905,109.576,936.407z" fill="url(#SVGID_3_)"/>
    <linearGradient gradientTransform="matrix(1 0 0 -1 0 1600)" gradientUnits="userSpaceOnUse" id="SVGID_4_" x1="-736.2278" x2="1341.5885" y1="2206.3013" y2="-1360.1224">
    <stop offset="0%" stop-color="#DDE7E8"/><stop offset="25%" stop-color="#DDE7E8"/><stop offset="50%" stop-color="#E6EDEE"/><stop offset="75%" stop-color="#F6F9F9"/></linearGradient>
    <path d="M246.387,850.704C126.392,730.709,66.784,677.094,0,615.591V825.67 c30.139,30.852,65.454,66.615,109.576,110.737c214.499,214.499,32.698,347.837,247.197,562.335 c35.33,35.33,57.59,68.888,71.094,101.258h155.807c-4.022-54.132-25.258-110.813-88.096-173.651 C281.079,1211.851,460.886,1065.203,246.387,850.704z" fill="url(#SVGID_4_)"/>
    <linearGradient gradientTransform="matrix(1 0 0 -1 0 1600)" gradientUnits="userSpaceOnUse" id="SVGID_5_" x1="-617.12" x2="1476.2926" y1="2276.2253" y2="-1286.9214">
    <stop offset="0%" stop-color="#EEF3F3"/><stop offset="25%" stop-color="#EEF3F3"/><stop offset="50%" stop-color="#F6F9F9"/><stop offset="75%" stop-color="#F6F9F9"/></linearGradient>
    <path d="M612.213,1366.755c-214.499-214.499-36.685-374.456-251.183-588.955 C186.896,603.667,130.007,579.006,0,461.129v154.462c66.784,61.503,126.392,115.118,246.387,235.113 c214.499,214.499,34.692,361.146,249.19,575.645c62.838,62.838,84.074,119.519,88.096,173.651h113.889 C706.008,1528.164,699.368,1453.911,612.213,1366.755z" fill="url(#SVGID_5_)"/>
    <linearGradient gradientTransform="matrix(1 0 0 -1 0 1600)" gradientUnits="userSpaceOnUse" id="SVGID_6_" x1="-519.9189" x2="1589.3621" y1="2333.6289" y2="-1226.6998">
    <stop offset="0%" stop-color="#EEF3F3"/><stop offset="25%" stop-color="#E6EDEE"/><stop offset="50%" stop-color="#EEF3F3"/><stop offset="75%" stop-color="#F6F9F9"/></linearGradient>
    <path d="M749.221,1295.4c-214.499-214.499-38.678-387.766-253.176-602.264S229.891,505.633,15.392,291.135 C9.963,285.706,4.847,280.336,0,275.018v186.111c130.007,117.877,186.896,142.538,361.03,316.672 c214.499,214.499,36.685,374.456,251.183,588.955c87.156,87.156,93.795,161.409,85.35,233.245h123.656 C836.879,1505.301,866.898,1413.077,749.221,1295.4z" fill="url(#SVGID_6_)"/>
    <linearGradient gradientTransform="matrix(1 0 0 -1 0 1600)" gradientUnits="userSpaceOnUse" id="SVGID_7_" x1="-426.4468" x2="1698.5018" y1="2388.5273" y2="-1168.6396">
    <stop offset="0%" stop-color="#DDE7E8"/><stop offset="25%" stop-color="#F6F9F9"/><stop offset="50%" stop-color="#EEF3F3"/><stop offset="75%" stop-color="#E6EDEE"/></linearGradient>
    <path d="M863.489,1237.173c-214.499-214.499-40.671-401.075-255.169-615.574 s-281.213-172.811-495.712-387.31C23.953,145.635,15.679,71.554,21.34,0H0v275.018c4.847,5.318,9.963,10.688,15.392,16.117 c214.499,214.499,266.154,187.502,480.652,402.001s38.678,387.766,253.176,602.264c117.677,117.677,87.658,209.901,71.998,304.6 h105.488C929.501,1483.456,1006.99,1380.675,863.489,1237.173z" fill="url(#SVGID_7_)"/>
    <linearGradient gradientTransform="matrix(1 0 0 -1 0 1600)" gradientUnits="userSpaceOnUse" id="SVGID_8_" x1="-314.516" x2="1824.3408" y1="2454.803" y2="-1096.2784">
    <stop offset="0%" stop-color="#DDE7E8"/><stop offset="25%" stop-color="#DDE7E8"/><stop offset="50%" stop-color="#E6EDEE"/><stop offset="75%" stop-color="#DDE7E8"/></linearGradient>
    <path d="M1006.095,1162.585C791.597,948.086,963.432,748.2,748.933,533.701s-296.272-158.12-510.771-372.619 C179.444,102.364,156.345,49.792,149.363,0H21.34c-5.661,71.554,2.614,145.635,91.268,234.289 C327.106,448.788,393.821,407.1,608.319,621.599s40.671,401.075,255.169,615.574c143.502,143.502,66.013,246.283,63.218,362.827 h152.324C1024.648,1448.3,1181.528,1338.017,1006.095,1162.585z" fill="url(#SVGID_8_)"/>
    <linearGradient gradientTransform="matrix(1 0 0 -1 0 1600)" gradientUnits="userSpaceOnUse" id="SVGID_9_" x1="-199.6149" x2="1954.8163" y1="2522.1333" y2="-1025.6519">
    <stop offset="0%" stop-color="#DDE7E8"/><stop offset="25%" stop-color="#EEF3F3"/><stop offset="50%" stop-color="#F6F9F9"/><stop offset="75%" stop-color="#DDE7E8"/></linearGradient>
    <path d="M1133.427,1096.815c-214.499-214.499-44.657-427.695-259.155-642.193S562.94,311.193,348.442,96.695 C314.441,62.694,292.515,30.672,278.815,0H149.363c6.982,49.792,30.081,102.364,88.799,161.082 c214.499,214.499,296.272,158.12,510.771,372.619s42.664,414.385,257.162,628.883c175.433,175.433,18.553,285.715,72.935,437.415 h165.443C1094.166,1408.741,1335.42,1298.809,1133.427,1096.815z" fill="url(#SVGID_9_)"/>
    <linearGradient gradientTransform="matrix(1 0 0 -1 0 1600)" gradientUnits="userSpaceOnUse" id="SVGID_10_" x1="-72.1057" x2="2075.8601" y1="2597.2769" y2="-957.472">
    <stop offset="0%" stop-color="#E6EDEE"/><stop offset="25%" stop-color="#F6F9F9"/><stop offset="50%" stop-color="#DDE7E8"/><stop offset="75%" stop-color="#EEF3F3"/></linearGradient>
    <path d="M1243.425,1031.096c-214.499-214.499-24.678-431.666-239.177-646.164 S701.984,237.308,487.485,22.809c-7.702-7.702-14.771-15.3-21.292-22.809H278.815c13.699,30.672,35.625,62.694,69.626,96.695 c214.499,214.499,311.332,143.429,525.83,357.928s44.657,427.695,259.155,642.193c201.993,201.993-39.261,311.926,111.047,503.185 h190.955c-11.447-10.847-23.306-22.385-35.643-34.721C1185.287,1350.78,1457.924,1245.595,1243.425,1031.096z" fill="url(#SVGID_10_)"/>
    <linearGradient gradientTransform="matrix(1 0 0 -1 0 1600)" gradientUnits="userSpaceOnUse" id="SVGID_11_" x1="60.069" x2="2176.6111" y1="2670.7637" y2="-896.4188">
    <stop offset="0%" stop-color="#E6EDEE"/><stop offset="25%" stop-color="#DDE7E8"/><stop offset="50%" stop-color="#F6F9F9"/><stop offset="75%" stop-color="#EEF3F3"/></linearGradient>
    <path d="M1333.149,977.083c-214.499-214.499-4.7-435.637-219.199-650.136 C913.757,126.754,831.848,167.989,647.433,0h-181.24c6.521,7.509,13.59,15.107,21.292,22.809 c214.499,214.499,302.264,147.624,516.763,362.123s24.679,431.666,239.177,646.164s-58.138,319.684,156.361,534.183 c12.337,12.337,24.196,23.874,35.643,34.721h167.356c-29.802-25.866-62.747-56.419-100.559-94.231 C1287.728,1291.271,1547.647,1191.581,1333.149,977.083z" fill="url(#SVGID_11_)"/>
    <linearGradient gradientTransform="matrix(1 0 0 -1 0 1600)" gradientUnits="userSpaceOnUse" id="SVGID_12_" x1="189.1352" x2="2274.2544" y1="2742.5889" y2="-837.0255">
    <stop offset="0%" stop-color="#E6EDEE"/><stop offset="25%" stop-color="#EEF3F3"/><stop offset="50%" stop-color="#DDE7E8"/><stop offset="75%" stop-color="#EEF3F3"/></linearGradient>
    <path d="M1437.053,914.882c-214.499-214.499,15.278-439.609-199.221-654.107 C1071.713,94.656,992.48,92.263,865.555,0H647.433c184.415,167.989,266.323,126.754,466.517,326.947 c214.499,214.499,4.7,435.637,219.199,650.136s-45.421,314.188,169.078,528.686c37.811,37.811,70.757,68.365,100.559,94.231 h194.423c-48.236-38.965-102.709-86.277-178.36-161.928C1404.349,1223.574,1651.551,1129.381,1437.053,914.882z" fill="url(#SVGID_12_)"/>
    <linearGradient gradientTransform="matrix(1 0 0 -1 0 1600)" gradientUnits="userSpaceOnUse" id="SVGID_13_" x1="317.425" x2="2371.123" y1="2813.7251" y2="-778.3199">
    <stop offset="0%" stop-color="#EEF3F3"/><stop offset="25%" stop-color="#EEF3F3"/><stop offset="50%" stop-color="#EEF3F3"/><stop offset="75%" stop-color="#DDE7E8"/></linearGradient>
    <path d="M1525.049,861.866c-214.499-214.499,35.256-443.58-179.242-658.078 C1224.039,82.02,1151.878,46.872,1073.003,0H865.555c126.925,92.263,206.157,94.656,372.277,260.775 c214.499,214.499-15.278,439.609,199.221,654.107s-32.704,308.692,181.795,523.19c75.651,75.651,130.125,122.963,178.36,161.928 h163.731c-65.315-55.189-127.337-106.398-241.378-220.44C1505.062,1165.062,1739.547,1076.365,1525.049,861.866z" fill="url(#SVGID_13_)"/>
    <linearGradient gradientTransform="matrix(1 0 0 -1 0 1600)" gradientUnits="userSpaceOnUse" id="SVGID_14_" x1="448.2915" x2="2470.5703" y1="2886.0457" y2="-718.4282">
    <stop offset="0%" stop-color="#EEF3F3"/><stop offset="25%" stop-color="#EEF3F3"/><stop offset="50%" stop-color="#EEF3F3"/><stop offset="75%" stop-color="#E6EDEE"/></linearGradient>
    <path d="M1633.904,796.807c-214.499-214.499,55.234-447.551-159.264-662.05 C1411.074,71.192,1361.825,30.864,1318.405,0h-245.402c78.875,46.872,151.036,82.02,272.803,203.788 c214.499,214.499-35.256,443.58,179.242,658.078s-19.987,303.195,194.512,517.694c114.041,114.041,176.063,165.251,241.378,220.44 h186.669c-99.046-93.588-150.38-134.9-306.475-290.995C1626.634,1094.506,1848.402,1011.306,1633.904,796.807z" fill="url(#SVGID_14_)"/>
    <linearGradient gradientTransform="matrix(1 0 0 -1 0 1600)" gradientUnits="userSpaceOnUse" id="SVGID_15_" x1="608.375" x2="2600.1768" y1="2976.8428" y2="-641.7679">
    <stop offset="0%" stop-color="#E6EDEE"/><stop offset="25%" stop-color="#E6EDEE"/><stop offset="50%" stop-color="#EEF3F3"/><stop offset="75%" stop-color="#E6EDEE"/></linearGradient>
    <path d="M1781.759,709.231c-214.499-214.498,75.213-451.523-139.286-666.021 c-15.74-15.74-30.547-30.068-44.57-43.21h-279.498c43.42,30.864,92.67,71.192,156.235,134.757 c214.499,214.499-55.234,447.551,159.264,662.05s-7.27,297.699,207.229,512.198c156.096,156.095,207.429,197.407,306.475,290.995 h237.774c-168.145-168.199-186.563-186.954-383.677-384.067C1787.207,1001.434,1996.258,923.73,1781.759,709.231z" fill="url(#SVGID_15_)"/>
    <linearGradient gradientTransform="matrix(1 0 0 -1 0 1600)" gradientUnits="userSpaceOnUse" id="SVGID_16_" x1="773.4961" x2="2732.0251" y1="3069.7336" y2="-557.8967">
    <stop offset="0%" stop-color="#EEF3F3"/><stop offset="25%" stop-color="#EEF3F3"/><stop offset="50%" stop-color="#F6F9F9"/><stop offset="75%" stop-color="#F6F9F9"/></linearGradient>
    <path d="M2550.848,1577.714c-214.499-214.499-203.591-223.312-418.089-437.81 s-18.165-286.707-232.663-501.205C1695.968,434.571,1966.551,206.448,1808.331,0h-210.428c14.023,13.142,28.83,27.47,44.57,43.21 c214.499,214.499-75.213,451.523,139.286,666.021s5.448,292.203,219.946,506.702c197.113,197.113,215.532,215.868,383.677,384.067 H2560v-12.912C2557.036,1583.981,2553.992,1580.857,2550.848,1577.714z" fill="url(#SVGID_16_)"/>
    <linearGradient gradientTransform="matrix(1 0 0 -1 0 1600)" gradientUnits="userSpaceOnUse" id="SVGID_17_" x1="905.3845" x2="2832.5769" y1="3142.8015" y2="-497.3671">
    <stop offset="0%" stop-color="#E6EDEE"/><stop offset="25%" stop-color="#DDE7E8"/><stop offset="50%" stop-color="#E6EDEE"/><stop offset="75%" stop-color="#E6EDEE"/></linearGradient>
    <path d="M1900.096,638.698c214.498,214.499,18.165,286.707,232.663,501.205s203.591,223.312,418.089,437.81 c3.144,3.144,6.188,6.267,9.152,9.374v-132.187c-140.463-148.065-145.64-182.926-332.675-369.961 c-214.498-214.499-30.882-281.211-245.38-495.709c-186.721-186.721,38.894-396.53-41.029-589.23h-132.586 C1966.551,206.448,1695.968,434.571,1900.096,638.698z" fill="url(#SVGID_17_)"/>
    <linearGradient gradientTransform="matrix(1 0 0 -1 0 1600)" gradientUnits="userSpaceOnUse" id="SVGID_18_" x1="1031.293" x2="2927.1484" y1="3214.9106" y2="-437.7949">
    <stop offset="0%" stop-color="#DDE7E8"/><stop offset="25%" stop-color="#DDE7E8"/><stop offset="50%" stop-color="#E6EDEE"/><stop offset="75%" stop-color="#F6F9F9"/></linearGradient>
    <path d="M1981.945,589.23c214.499,214.499,30.882,281.211,245.38,495.709 c187.035,187.035,192.211,221.896,332.675,369.961v-231.385c-42.964-57.191-87.398-115.513-192.029-220.143 c-214.499-214.499-43.599-275.714-258.097-490.213C1948.535,351.82,2106.355,170.997,2103.215,0h-162.299 C2020.839,192.701,1795.224,402.509,1981.945,589.23z" fill="url(#SVGID_18_)"/>
    <linearGradient gradientTransform="matrix(1 0 0 -1 0 1600)" gradientUnits="userSpaceOnUse" id="SVGID_19_" x1="1167.1022" x2="3031.6206" y1="3291.9993" y2="-373.2437">
    <stop offset="0%" stop-color="#E6EDEE"/><stop offset="25%" stop-color="#EEF3F3"/><stop offset="50%" stop-color="#DDE7E8"/><stop offset="75%" stop-color="#F6F9F9"/></linearGradient>
    <path d="M2109.874,513.159c214.499,214.499,43.599,275.714,258.097,490.213 c104.63,104.63,149.064,162.952,192.029,220.143V989.299c-17.425-18.997-37.219-39.673-60.042-62.496 c-214.499-214.499-56.316-270.218-270.814-484.717C2090.883,303.826,2195.306,149.606,2229.561,0h-126.346 C2106.355,170.997,1948.535,351.82,2109.874,513.159z" fill="url(#SVGID_19_)"/>
    <linearGradient gradientTransform="matrix(1 0 0 -1 0 1600)" gradientUnits="userSpaceOnUse" id="SVGID_20_" x1="1292.527" x2="3125.7087" y1="3359.9614" y2="-317.8193">
    <stop offset="0%" stop-color="#DDE7E8"/><stop offset="25%" stop-color="#EEF3F3"/><stop offset="50%" stop-color="#E6EDEE"/><stop offset="75%" stop-color="#DDE7E8"/></linearGradient>
    <path d="M2229.144,442.087c214.499,214.499,56.316,270.218,270.814,484.717 c22.823,22.823,42.616,43.499,60.042,62.496V749.48c-94.915-140.375-24.081-205.107-202.617-383.644 C2243.186,251.64,2300.213,125.431,2346.15,0h-116.589C2195.306,149.606,2090.883,303.826,2229.144,442.087z" fill="url(#SVGID_20_)"/>
    <linearGradient gradientTransform="matrix(1 0 0 -1 0 1600)" gradientUnits="userSpaceOnUse" id="SVGID_21_" x1="1396.1056" x2="3197.9504" y1="3422.1753" y2="-268.1431">
    <stop offset="0%" stop-color="#F6F9F9"/><stop offset="25%" stop-color="#F6F9F9"/><stop offset="50%" stop-color="#F6F9F9"/><stop offset="75%" stop-color="#EEF3F3"/></linearGradient>
    <path d="M2357.383,365.837C2535.919,544.373,2465.085,609.106,2560,749.48V516.029 c-19.25-51.841-50.249-109.426-133.266-192.444C2325.905,222.756,2362.975,111.685,2408.301,0h-62.15 C2300.213,125.431,2243.186,251.64,2357.383,365.837z" fill="url(#SVGID_21_)"/>
    <linearGradient gradientTransform="matrix(1 0 0 -1 0 1600)" gradientUnits="userSpaceOnUse" id="SVGID_22_" x1="1484.2412" x2="3254.7493" y1="3470.6555" y2="-232.2">
    <stop offset="0%" stop-color="#E6EDEE"/><stop offset="25%" stop-color="#F6F9F9"/><stop offset="50%" stop-color="#DDE7E8"/><stop offset="75%" stop-color="#F6F9F9"/></linearGradient>
    <path d="M2426.734,323.585c83.017,83.017,114.016,140.602,133.266,192.444V278.834 c-6.755-7.137-13.882-14.468-21.438-22.024C2458.252,176.5,2468.227,89.136,2500.88,0h-92.579 C2362.975,111.685,2325.905,222.756,2426.734,323.585z" fill="url(#SVGID_22_)"/>
    <linearGradient gradientTransform="matrix(1 0 0 -1 0 1600)" gradientUnits="userSpaceOnUse" id="SVGID_23_" x1="1578.9607" x2="3318.1323" y1="3527.842" y2="-187.551">
    <stop offset="0%" stop-color="#E6EDEE"/><stop offset="25%" stop-color="#E6EDEE"/><stop offset="50%" stop-color="#E6EDEE"/><stop offset="75%" stop-color="#EEF3F3"/></linearGradient>
    <path d="M2538.562,256.81c7.556,7.556,14.683,14.888,21.438,22.024V0h-59.12 C2468.227,89.136,2458.252,176.5,2538.562,256.81z" fill="url(#SVGID_23_)"/>
  </g>
</svg>
