<?xml version="1.0" encoding="utf-8"?>
<svg xmlns="http://www.w3.org/2000/svg" width="150" height="150"
     xmlns:xlink="http://www.w3.org/1999/xlink">
  <defs>
    <linearGradient id="bluegradient" x1="0" x2="0" y1="0" y2="1">
      <stop stop-color="#0E38FF" offset="0%"/>
      <stop stop-color="#729BFF" offset="10%"/>
      <stop stop-color="#f0f0ff" offset="100%"/>
    </linearGradient>
    <radialGradient id="circuitcolor">
      <stop stop-color="#80d0ff" offset="20%"/>
      <stop stop-color="#40a0ff" offset="100%"/>
    </radialGradient>
    <radialGradient id="wires" cx="25%" cy="50%" r="100%" fx="100%" fy="100%">
      <stop stop-color="#404080" offset="0%"/>
      <stop stop-color="#6080a0" offset="40%"/>
      <stop stop-color="#80a0c0" offset="100%"/>
    </radialGradient>
    <radialGradient id="blues">
       <stop offset="0%" stop-color="rgba(128,192,192,0.8)"/>
       <stop offset="30%" stop-color="rgba(65,192,225,0.5)"/>
       <stop offset="100%" stop-color="rgba(192,192,225,0.8)"/>
    </radialGradient>
    <radialGradient id="blues2">
       <stop offset="0%" stop-color="rgba(64,64,225,0.5)"/>
       <stop offset="50%" stop-color="rgba(92,92,225,0.8)"/>
       <stop offset="100%" stop-color="rgba(128,128,225,0.8)"/>
    </radialGradient>
    <filter id="shadow">
       <feDropShadow dx="4" dy="8" stdDeviation="4"/>
    </filter>
  </defs>
  <style>
    .sans {font-family: Arial, Helvetica, sans-serif;}
  </style>
  <!-- created with "logos.py -min=10 -colors=gradient -num=100 -conf ASIACRYPT" -->
   
<path d="M 150 0 L 75 13 L 0 0 z" fill="rgb(135.00, 148.00, 192.50)" opacity="1.000" stroke="rgb(135.00, 148.00, 192.50)"/>
<path d="M 13 105 L 0 150 L 0 0 z" fill="rgb(206.61, 212.07, 229.72)" opacity="1.000" stroke="rgb(206.61, 212.07, 229.72)"/>
<path d="M 138 58 L 150 0 L 150 150 z" fill="rgb(63.05, 83.63, 155.11)" opacity="1.000" stroke="rgb(63.05, 83.63, 155.11)"/>
<path d="M 136 87 L 138 58 L 150 150 z" fill="rgb(67.78, 87.86, 157.56)" opacity="1.000" stroke="rgb(67.78, 87.86, 157.56)"/>
<path d="M 20 99 L 13 105 L 20 81 z" fill="rgb(193.10, 199.98, 222.70)" opacity="1.000" stroke="rgb(193.10, 199.98, 222.70)"/>
<path d="M 13 30 L 13 105 L 0 0 z" fill="rgb(202.22, 208.14, 227.44)" opacity="1.000" stroke="rgb(202.22, 208.14, 227.44)"/>
<path d="M 75 13 L 47 18 L 0 0 z" fill="rgb(169.79, 179.13, 210.58)" opacity="1.000" stroke="rgb(169.79, 179.13, 210.58)"/>
<path d="M 47 18 L 27 22 L 0 0 z" fill="rgb(186.00, 193.64, 219.01)" opacity="1.000" stroke="rgb(186.00, 193.64, 219.01)"/>
<path d="M 135 115 L 136 87 L 150 150 z" fill="rgb(68.80, 88.76, 158.09)" opacity="1.000" stroke="rgb(68.80, 88.76, 158.09)"/>
<path d="M 138 136 L 135 115 L 150 150 z" fill="rgb(68.12, 88.16, 157.74)" opacity="1.000" stroke="rgb(68.12, 88.16, 157.74)"/>
<path d="M 135 115 L 138 136 L 125 118 z" fill="rgb(76.56, 95.72, 162.13)" opacity="1.000" stroke="rgb(76.56, 95.72, 162.13)"/>
<path d="M 13 105 L 14 131 L 0 150 z" fill="rgb(201.88, 207.84, 227.26)" opacity="1.000" stroke="rgb(201.88, 207.84, 227.26)"/>
<path d="M 14 131 L 20 136 L 0 150 z" fill="rgb(199.52, 205.72, 226.03)" opacity="1.000" stroke="rgb(199.52, 205.72, 226.03)"/>
<path d="M 27 22 L 15 19 L 0 0 z" fill="rgb(196.81, 203.31, 224.63)" opacity="1.000" stroke="rgb(196.81, 203.31, 224.63)"/>
<path d="M 15 19 L 13 30 L 0 0 z" fill="rgb(201.54, 207.54, 227.08)" opacity="1.000" stroke="rgb(201.54, 207.54, 227.08)"/>
<path d="M 13 30 L 15 19 L 27 22 z" fill="rgb(192.42, 199.38, 222.34)" opacity="1.000" stroke="rgb(192.42, 199.38, 222.34)"/>
<path d="M 138 58 L 137 13 L 150 0 z" fill="rgb(67.44, 87.56, 157.39)" opacity="1.000" stroke="rgb(67.44, 87.56, 157.39)"/>
<path d="M 138 136 L 110 130 L 125 118 z" fill="rgb(85.01, 103.27, 166.52)" opacity="1.000" stroke="rgb(85.01, 103.27, 166.52)"/>
<path d="M 27 90 L 20 99 L 20 81 z" fill="rgb(188.37, 195.75, 220.24)" opacity="1.000" stroke="rgb(188.37, 195.75, 220.24)"/>
<path d="M 65 18 L 47 18 L 75 13 z" fill="rgb(147.84, 159.48, 199.17)" opacity="1.000" stroke="rgb(147.84, 159.48, 199.17)"/>
<path d="M 65 18 L 61 32 L 47 18 z" fill="rgb(152.56, 163.72, 201.63)" opacity="1.000" stroke="rgb(152.56, 163.72, 201.63)"/>
<path d="M 47 18 L 45 23 L 27 22 z" fill="rgb(170.80, 180.04, 211.11)" opacity="1.000" stroke="rgb(170.80, 180.04, 211.11)"/>
<path d="M 61 32 L 45 23 L 47 18 z" fill="rgb(159.32, 169.76, 205.14)" opacity="1.000" stroke="rgb(159.32, 169.76, 205.14)"/>
<path d="M 137 13 L 122 39 L 114 31 z" fill="rgb(85.01, 103.27, 166.52)" opacity="1.000" stroke="rgb(85.01, 103.27, 166.52)"/>
<path d="M 129 64 L 138 58 L 136 87 z" fill="rgb(74.88, 94.20, 161.25)" opacity="1.000" stroke="rgb(74.88, 94.20, 161.25)"/>
<path d="M 129 64 L 119 59 L 138 58 z" fill="rgb(80.62, 99.34, 164.24)" opacity="1.000" stroke="rgb(80.62, 99.34, 164.24)"/>
<path d="M 119 59 L 129 64 L 111 67 z" fill="rgb(89.74, 107.50, 168.98)" opacity="1.000" stroke="rgb(89.74, 107.50, 168.98)"/>
<path d="M 107 139 L 110 130 L 138 136 z" fill="rgb(91.09, 108.71, 169.68)" opacity="1.000" stroke="rgb(91.09, 108.71, 169.68)"/>
<path d="M 102 140 L 107 139 L 150 150 z" fill="rgb(89.74, 107.50, 168.98)" opacity="1.000" stroke="rgb(89.74, 107.50, 168.98)"/>
<path d="M 107 139 L 138 136 L 150 150 z" fill="rgb(77.58, 96.62, 162.66)" opacity="1.000" stroke="rgb(77.58, 96.62, 162.66)"/>
<path d="M 135 115 L 118 94 L 136 87 z" fill="rgb(79.60, 98.44, 163.71)" opacity="1.000" stroke="rgb(79.60, 98.44, 163.71)"/>
<path d="M 85 108 L 94 90 L 102 105 z" fill="rgb(116.08, 131.08, 182.67)" opacity="1.000" stroke="rgb(116.08, 131.08, 182.67)"/>
<path d="M 116 84 L 94 90 L 111 67 z" fill="rgb(102.57, 118.99, 175.65)" opacity="1.000" stroke="rgb(102.57, 118.99, 175.65)"/>
<path d="M 78 94 L 94 90 L 85 108 z" fill="rgb(124.19, 138.33, 186.88)" opacity="1.000" stroke="rgb(124.19, 138.33, 186.88)"/>
<path d="M 25 113 L 14 131 L 13 105 z" fill="rgb(193.44, 200.28, 222.87)" opacity="1.000" stroke="rgb(193.44, 200.28, 222.87)"/>
<path d="M 20 99 L 25 113 L 13 105 z" fill="rgb(191.41, 198.47, 221.82)" opacity="1.000" stroke="rgb(191.41, 198.47, 221.82)"/>
<path d="M 27 90 L 29 102 L 20 99 z" fill="rgb(185.33, 193.03, 218.66)" opacity="1.000" stroke="rgb(185.33, 193.03, 218.66)"/>
<path d="M 90 18 L 75 13 L 150 0 z" fill="rgb(104.60, 120.80, 176.70)" opacity="1.000" stroke="rgb(104.60, 120.80, 176.70)"/>
<path d="M 137 13 L 90 18 L 150 0 z" fill="rgb(83.66, 102.06, 165.82)" opacity="1.000" stroke="rgb(83.66, 102.06, 165.82)"/>
<path d="M 75 30 L 65 18 L 75 13 z" fill="rgb(138.38, 151.02, 194.26)" opacity="1.000" stroke="rgb(138.38, 151.02, 194.26)"/>
<path d="M 65 18 L 75 30 L 61 32 z" fill="rgb(143.11, 155.25, 196.71)" opacity="1.000" stroke="rgb(143.11, 155.25, 196.71)"/>
<path d="M 45 23 L 26 31 L 27 22 z" fill="rgb(177.90, 186.38, 214.80)" opacity="1.000" stroke="rgb(177.90, 186.38, 214.80)"/>
<path d="M 26 31 L 13 30 L 27 22 z" fill="rgb(188.71, 196.05, 220.41)" opacity="1.000" stroke="rgb(188.71, 196.05, 220.41)"/>
<path d="M 126 80 L 129 64 L 136 87 z" fill="rgb(78.93, 97.83, 163.36)" opacity="1.000" stroke="rgb(78.93, 97.83, 163.36)"/>
<path d="M 110 130 L 117 113 L 125 118 z" fill="rgb(92.10, 109.62, 170.20)" opacity="1.000" stroke="rgb(92.10, 109.62, 170.20)"/>
<path d="M 106 114 L 117 113 L 110 130 z" fill="rgb(98.52, 115.36, 173.54)" opacity="1.000" stroke="rgb(98.52, 115.36, 173.54)"/>
<path d="M 117 113 L 135 115 L 125 118 z" fill="rgb(83.66, 102.06, 165.82)" opacity="1.000" stroke="rgb(83.66, 102.06, 165.82)"/>
<path d="M 117 113 L 118 94 L 135 115 z" fill="rgb(86.02, 104.18, 167.04)" opacity="1.000" stroke="rgb(86.02, 104.18, 167.04)"/>
<path d="M 117 113 L 106 114 L 102 105 z" fill="rgb(101.22, 117.78, 174.94)" opacity="1.000" stroke="rgb(101.22, 117.78, 174.94)"/>
<path d="M 96 117 L 85 108 L 102 105 z" fill="rgb(115.41, 130.47, 182.32)" opacity="1.000" stroke="rgb(115.41, 130.47, 182.32)"/>
<path d="M 106 114 L 96 117 L 102 105 z" fill="rgb(108.32, 124.12, 178.63)" opacity="1.000" stroke="rgb(108.32, 124.12, 178.63)"/>
<path d="M 77 106 L 85 108 L 78 116 z" fill="rgb(129.93, 143.47, 189.87)" opacity="1.000" stroke="rgb(129.93, 143.47, 189.87)"/>
<path d="M 77 106 L 78 94 L 85 108 z" fill="rgb(129.93, 143.47, 189.87)" opacity="1.000" stroke="rgb(129.93, 143.47, 189.87)"/>
<path d="M 20 136 L 53 140 L 0 150 z" fill="rgb(186.34, 193.94, 219.18)" opacity="1.000" stroke="rgb(186.34, 193.94, 219.18)"/>
<path d="M 0 150 L 53 140 L 150 150 z" fill="rgb(142.43, 154.65, 196.36)" opacity="1.000" stroke="rgb(142.43, 154.65, 196.36)"/>
<path d="M 53 140 L 102 140 L 150 150 z" fill="rgb(107.98, 123.82, 178.46)" opacity="1.000" stroke="rgb(107.98, 123.82, 178.46)"/>
<path d="M 78 138 L 53 140 L 72 138 z" fill="rgb(142.43, 154.65, 196.36)" opacity="1.000" stroke="rgb(142.43, 154.65, 196.36)"/>
<path d="M 53 140 L 78 138 L 102 140 z" fill="rgb(132.30, 145.58, 191.10)" opacity="1.000" stroke="rgb(132.30, 145.58, 191.10)"/>
<path d="M 59 132 L 53 140 L 44 131 z" fill="rgb(158.31, 168.85, 204.61)" opacity="1.000" stroke="rgb(158.31, 168.85, 204.61)"/>
<path d="M 30 131 L 25 113 L 40 108 z" fill="rgb(178.91, 187.29, 215.32)" opacity="1.000" stroke="rgb(178.91, 187.29, 215.32)"/>
<path d="M 44 131 L 30 131 L 40 108 z" fill="rgb(172.49, 181.55, 211.99)" opacity="1.000" stroke="rgb(172.49, 181.55, 211.99)"/>
<path d="M 14 131 L 30 131 L 20 136 z" fill="rgb(189.38, 196.66, 220.76)" opacity="1.000" stroke="rgb(189.38, 196.66, 220.76)"/>
<path d="M 25 113 L 30 131 L 14 131 z" fill="rgb(187.69, 195.15, 219.89)" opacity="1.000" stroke="rgb(187.69, 195.15, 219.89)"/>
<path d="M 30 131 L 53 140 L 20 136 z" fill="rgb(176.21, 184.87, 213.92)" opacity="1.000" stroke="rgb(176.21, 184.87, 213.92)"/>
<path d="M 53 140 L 30 131 L 44 131 z" fill="rgb(168.10, 177.62, 209.70)" opacity="1.000" stroke="rgb(168.10, 177.62, 209.70)"/>
<path d="M 32 92 L 29 102 L 27 90 z" fill="rgb(181.28, 189.40, 216.55)" opacity="1.000" stroke="rgb(181.28, 189.40, 216.55)"/>
<path d="M 32 92 L 39 85 L 42 94 z" fill="rgb(172.83, 181.85, 212.16)" opacity="1.000" stroke="rgb(172.83, 181.85, 212.16)"/>
<path d="M 39 85 L 32 92 L 27 90 z" fill="rgb(177.90, 186.38, 214.80)" opacity="1.000" stroke="rgb(177.90, 186.38, 214.80)"/>
<path d="M 25 113 L 34 105 L 40 108 z" fill="rgb(177.56, 186.08, 214.62)" opacity="1.000" stroke="rgb(177.56, 186.08, 214.62)"/>
<path d="M 40 108 L 34 105 L 42 94 z" fill="rgb(171.82, 180.94, 211.64)" opacity="1.000" stroke="rgb(171.82, 180.94, 211.64)"/>
<path d="M 34 105 L 32 92 L 42 94 z" fill="rgb(174.52, 183.36, 213.04)" opacity="1.000" stroke="rgb(174.52, 183.36, 213.04)"/>
<path d="M 32 92 L 34 105 L 29 102 z" fill="rgb(178.91, 187.29, 215.32)" opacity="1.000" stroke="rgb(178.91, 187.29, 215.32)"/>
<path d="M 90 18 L 103 34 L 90 33 z" fill="rgb(115.41, 130.47, 182.32)" opacity="1.000" stroke="rgb(115.41, 130.47, 182.32)"/>
<path d="M 103 34 L 101 49 L 90 33 z" fill="rgb(111.69, 127.15, 180.39)" opacity="1.000" stroke="rgb(111.69, 127.15, 180.39)"/>
<path d="M 82 25 L 75 30 L 75 13 z" fill="rgb(132.64, 145.88, 191.27)" opacity="1.000" stroke="rgb(132.64, 145.88, 191.27)"/>
<path d="M 101 49 L 112 52 L 111 67 z" fill="rgb(101.56, 118.08, 175.12)" opacity="1.000" stroke="rgb(101.56, 118.08, 175.12)"/>
<path d="M 47 53 L 45 23 L 61 32 z" fill="rgb(159.32, 169.76, 205.14)" opacity="1.000" stroke="rgb(159.32, 169.76, 205.14)"/>
<path d="M 47 53 L 26 31 L 45 23 z" fill="rgb(171.14, 180.34, 211.28)" opacity="1.000" stroke="rgb(171.14, 180.34, 211.28)"/>
<path d="M 76 51 L 47 53 L 61 32 z" fill="rgb(148.85, 160.39, 199.70)" opacity="1.000" stroke="rgb(148.85, 160.39, 199.70)"/>
<path d="M 47 53 L 76 51 L 54 65 z" fill="rgb(151.21, 162.51, 200.93)" opacity="1.000" stroke="rgb(151.21, 162.51, 200.93)"/>
<path d="M 40 70 L 47 53 L 54 65 z" fill="rgb(163.37, 173.39, 207.25)" opacity="1.000" stroke="rgb(163.37, 173.39, 207.25)"/>
<path d="M 13 105 L 19 57 L 20 81 z" fill="rgb(193.44, 200.28, 222.87)" opacity="1.000" stroke="rgb(193.44, 200.28, 222.87)"/>
<path d="M 13 30 L 19 57 L 13 105 z" fill="rgb(195.80, 202.40, 224.10)" opacity="1.000" stroke="rgb(195.80, 202.40, 224.10)"/>
<path d="M 19 57 L 40 70 L 20 81 z" fill="rgb(184.32, 192.12, 218.13)" opacity="1.000" stroke="rgb(184.32, 192.12, 218.13)"/>
<path d="M 47 53 L 19 57 L 26 31 z" fill="rgb(179.92, 188.20, 215.85)" opacity="1.000" stroke="rgb(179.92, 188.20, 215.85)"/>
<path d="M 19 57 L 47 53 L 40 70 z" fill="rgb(175.20, 183.96, 213.39)" opacity="1.000" stroke="rgb(175.20, 183.96, 213.39)"/>
<path d="M 127 82 L 126 80 L 136 87 z" fill="rgb(79.60, 98.44, 163.71)" opacity="1.000" stroke="rgb(79.60, 98.44, 163.71)"/>
<path d="M 126 80 L 127 82 L 116 84 z" fill="rgb(86.36, 104.48, 167.22)" opacity="1.000" stroke="rgb(86.36, 104.48, 167.22)"/>
<path d="M 123 78 L 116 84 L 111 67 z" fill="rgb(92.78, 110.22, 170.56)" opacity="1.000" stroke="rgb(92.78, 110.22, 170.56)"/>
<path d="M 123 78 L 126 80 L 116 84 z" fill="rgb(87.71, 105.69, 167.92)" opacity="1.000" stroke="rgb(87.71, 105.69, 167.92)"/>
<path d="M 129 64 L 123 78 L 111 67 z" fill="rgb(88.39, 106.29, 168.27)" opacity="1.000" stroke="rgb(88.39, 106.29, 168.27)"/>
<path d="M 126 80 L 123 78 L 129 64 z" fill="rgb(83.32, 101.76, 165.64)" opacity="1.000" stroke="rgb(83.32, 101.76, 165.64)"/>
<path d="M 116 96 L 117 113 L 102 105 z" fill="rgb(97.84, 114.76, 173.19)" opacity="1.000" stroke="rgb(97.84, 114.76, 173.19)"/>
<path d="M 117 113 L 116 96 L 118 94 z" fill="rgb(92.44, 109.92, 170.38)" opacity="1.000" stroke="rgb(92.44, 109.92, 170.38)"/>
<path d="M 94 90 L 116 96 L 102 105 z" fill="rgb(105.61, 121.71, 177.23)" opacity="1.000" stroke="rgb(105.61, 121.71, 177.23)"/>
<path d="M 116 96 L 94 90 L 116 84 z" fill="rgb(100.88, 117.48, 174.77)" opacity="1.000" stroke="rgb(100.88, 117.48, 174.77)"/>
<path d="M 85 108 L 87 124 L 78 116 z" fill="rgb(126.56, 140.44, 188.11)" opacity="1.000" stroke="rgb(126.56, 140.44, 188.11)"/>
<path d="M 96 117 L 87 124 L 85 108 z" fill="rgb(120.48, 135.00, 184.95)" opacity="1.000" stroke="rgb(120.48, 135.00, 184.95)"/>
<path d="M 39 85 L 45 78 L 42 94 z" fill="rgb(168.44, 177.92, 209.88)" opacity="1.000" stroke="rgb(168.44, 177.92, 209.88)"/>
<path d="M 40 70 L 45 78 L 39 85 z" fill="rgb(169.12, 178.52, 210.23)" opacity="1.000" stroke="rgb(169.12, 178.52, 210.23)"/>
<path d="M 45 78 L 40 70 L 54 65 z" fill="rgb(164.05, 173.99, 207.60)" opacity="1.000" stroke="rgb(164.05, 173.99, 207.60)"/>
<path d="M 94 90 L 77 84 L 80 77 z" fill="rgb(126.22, 140.14, 187.94)" opacity="1.000" stroke="rgb(126.22, 140.14, 187.94)"/>
<path d="M 78 94 L 77 84 L 94 90 z" fill="rgb(126.89, 140.75, 188.29)" opacity="1.000" stroke="rgb(126.89, 140.75, 188.29)"/>
<path d="M 77 106 L 68 88 L 78 94 z" fill="rgb(135.68, 148.60, 192.85)" opacity="1.000" stroke="rgb(135.68, 148.60, 192.85)"/>
<path d="M 68 88 L 77 84 L 78 94 z" fill="rgb(135.68, 148.60, 192.85)" opacity="1.000" stroke="rgb(135.68, 148.60, 192.85)"/>
<path d="M 77 84 L 68 88 L 80 77 z" fill="rgb(135.00, 148.00, 192.50)" opacity="1.000" stroke="rgb(135.00, 148.00, 192.50)"/>
<path d="M 53 140 L 62 135 L 72 138 z" fill="rgb(147.84, 159.48, 199.17)" opacity="1.000" stroke="rgb(147.84, 159.48, 199.17)"/>
<path d="M 59 132 L 62 135 L 53 140 z" fill="rgb(152.23, 163.41, 201.45)" opacity="1.000" stroke="rgb(152.23, 163.41, 201.45)"/>
<path d="M 42 108 L 44 131 L 40 108 z" fill="rgb(168.44, 177.92, 209.88)" opacity="1.000" stroke="rgb(168.44, 177.92, 209.88)"/>
<path d="M 42 108 L 59 132 L 44 131 z" fill="rgb(162.02, 172.18, 206.54)" opacity="1.000" stroke="rgb(162.02, 172.18, 206.54)"/>
<path d="M 42 108 L 68 88 L 77 106 z" fill="rgb(147.84, 159.48, 199.17)" opacity="1.000" stroke="rgb(147.84, 159.48, 199.17)"/>
<path d="M 42 108 L 40 108 L 42 94 z" fill="rgb(169.12, 178.52, 210.23)" opacity="1.000" stroke="rgb(169.12, 178.52, 210.23)"/>
<path d="M 60 85 L 42 108 L 42 94 z" fill="rgb(162.36, 172.48, 206.72)" opacity="1.000" stroke="rgb(162.36, 172.48, 206.72)"/>
<path d="M 68 88 L 42 108 L 60 85 z" fill="rgb(153.58, 164.62, 202.16)" opacity="1.000" stroke="rgb(153.58, 164.62, 202.16)"/>
<path d="M 28 103 L 34 105 L 25 113 z" fill="rgb(181.61, 189.71, 216.73)" opacity="1.000" stroke="rgb(181.61, 189.71, 216.73)"/>
<path d="M 34 105 L 28 103 L 29 102 z" fill="rgb(180.26, 188.50, 216.02)" opacity="1.000" stroke="rgb(180.26, 188.50, 216.02)"/>
<path d="M 28 103 L 25 113 L 20 99 z" fill="rgb(186.34, 193.94, 219.18)" opacity="1.000" stroke="rgb(186.34, 193.94, 219.18)"/>
<path d="M 29 102 L 28 103 L 20 99 z" fill="rgb(184.99, 192.73, 218.48)" opacity="1.000" stroke="rgb(184.99, 192.73, 218.48)"/>
<path d="M 103 34 L 111 28 L 114 31 z" fill="rgb(100.21, 116.87, 174.42)" opacity="1.000" stroke="rgb(100.21, 116.87, 174.42)"/>
<path d="M 111 28 L 103 34 L 90 18 z" fill="rgb(108.32, 124.12, 178.63)" opacity="1.000" stroke="rgb(108.32, 124.12, 178.63)"/>
<path d="M 111 28 L 137 13 L 114 31 z" fill="rgb(88.72, 106.60, 168.45)" opacity="1.000" stroke="rgb(88.72, 106.60, 168.45)"/>
<path d="M 111 28 L 90 18 L 137 13 z" fill="rgb(96.83, 113.85, 172.66)" opacity="1.000" stroke="rgb(96.83, 113.85, 172.66)"/>
<path d="M 86 21 L 90 18 L 90 33 z" fill="rgb(121.15, 135.61, 185.30)" opacity="1.000" stroke="rgb(121.15, 135.61, 185.30)"/>
<path d="M 82 25 L 86 21 L 90 33 z" fill="rgb(123.85, 138.03, 186.71)" opacity="1.000" stroke="rgb(123.85, 138.03, 186.71)"/>
<path d="M 90 18 L 86 21 L 75 13 z" fill="rgb(126.22, 140.14, 187.94)" opacity="1.000" stroke="rgb(126.22, 140.14, 187.94)"/>
<path d="M 86 21 L 82 25 L 75 13 z" fill="rgb(128.92, 142.56, 189.34)" opacity="1.000" stroke="rgb(128.92, 142.56, 189.34)"/>
<path d="M 76 51 L 76 67 L 54 65 z" fill="rgb(141.42, 153.74, 195.84)" opacity="1.000" stroke="rgb(141.42, 153.74, 195.84)"/>
<path d="M 68 88 L 76 67 L 80 77 z" fill="rgb(135.34, 148.30, 192.68)" opacity="1.000" stroke="rgb(135.34, 148.30, 192.68)"/>
<path d="M 76 67 L 68 88 L 60 85 z" fill="rgb(142.09, 154.35, 196.19)" opacity="1.000" stroke="rgb(142.09, 154.35, 196.19)"/>
<path d="M 115 60 L 119 59 L 111 67 z" fill="rgb(94.47, 111.73, 171.43)" opacity="1.000" stroke="rgb(94.47, 111.73, 171.43)"/>
<path d="M 112 52 L 115 60 L 111 67 z" fill="rgb(96.83, 113.85, 172.66)" opacity="1.000" stroke="rgb(96.83, 113.85, 172.66)"/>
<path d="M 115 60 L 112 52 L 119 59 z" fill="rgb(94.13, 111.43, 171.26)" opacity="1.000" stroke="rgb(94.13, 111.43, 171.26)"/>
<path d="M 112 52 L 123 42 L 119 59 z" fill="rgb(91.43, 109.01, 169.85)" opacity="1.000" stroke="rgb(91.43, 109.01, 169.85)"/>
<path d="M 119 59 L 123 42 L 138 58 z" fill="rgb(82.64, 101.16, 165.29)" opacity="1.000" stroke="rgb(82.64, 101.16, 165.29)"/>
<path d="M 123 42 L 137 13 L 138 58 z" fill="rgb(76.56, 95.72, 162.13)" opacity="1.000" stroke="rgb(76.56, 95.72, 162.13)"/>
<path d="M 123 42 L 122 39 L 137 13 z" fill="rgb(81.97, 100.55, 164.94)" opacity="1.000" stroke="rgb(81.97, 100.55, 164.94)"/>
<path d="M 103 34 L 110 49 L 101 49 z" fill="rgb(104.94, 121.10, 176.88)" opacity="1.000" stroke="rgb(104.94, 121.10, 176.88)"/>
<path d="M 110 49 L 112 52 L 101 49 z" fill="rgb(101.90, 118.38, 175.30)" opacity="1.000" stroke="rgb(101.90, 118.38, 175.30)"/>
<path d="M 110 49 L 103 34 L 114 31 z" fill="rgb(100.55, 117.17, 174.59)" opacity="1.000" stroke="rgb(100.55, 117.17, 174.59)"/>
<path d="M 122 39 L 110 49 L 114 31 z" fill="rgb(94.13, 111.43, 171.26)" opacity="1.000" stroke="rgb(94.13, 111.43, 171.26)"/>
<path d="M 123 42 L 110 49 L 122 39 z" fill="rgb(91.09, 108.71, 169.68)" opacity="1.000" stroke="rgb(91.09, 108.71, 169.68)"/>
<path d="M 110 49 L 123 42 L 112 52 z" fill="rgb(94.47, 111.73, 171.43)" opacity="1.000" stroke="rgb(94.47, 111.73, 171.43)"/>
<path d="M 40 70 L 25 83 L 20 81 z" fill="rgb(182.29, 190.31, 217.08)" opacity="1.000" stroke="rgb(182.29, 190.31, 217.08)"/>
<path d="M 25 83 L 40 70 L 39 85 z" fill="rgb(175.87, 184.57, 213.74)" opacity="1.000" stroke="rgb(175.87, 184.57, 213.74)"/>
<path d="M 25 83 L 27 90 L 20 81 z" fill="rgb(186.68, 194.24, 219.36)" opacity="1.000" stroke="rgb(186.68, 194.24, 219.36)"/>
<path d="M 25 83 L 39 85 L 27 90 z" fill="rgb(180.26, 188.50, 216.02)" opacity="1.000" stroke="rgb(180.26, 188.50, 216.02)"/>
<path d="M 26 31 L 19 35 L 13 30 z" fill="rgb(191.41, 198.47, 221.82)" opacity="1.000" stroke="rgb(191.41, 198.47, 221.82)"/>
<path d="M 19 35 L 19 57 L 13 30 z" fill="rgb(193.77, 200.59, 223.05)" opacity="1.000" stroke="rgb(193.77, 200.59, 223.05)"/>
<path d="M 19 57 L 19 35 L 26 31 z" fill="rgb(189.38, 196.66, 220.76)" opacity="1.000" stroke="rgb(189.38, 196.66, 220.76)"/>
<path d="M 127 82 L 119 89 L 116 84 z" fill="rgb(88.72, 106.60, 168.45)" opacity="1.000" stroke="rgb(88.72, 106.60, 168.45)"/>
<path d="M 119 89 L 116 96 L 116 84 z" fill="rgb(92.44, 109.92, 170.38)" opacity="1.000" stroke="rgb(92.44, 109.92, 170.38)"/>
<path d="M 116 96 L 119 89 L 118 94 z" fill="rgb(91.76, 109.32, 170.03)" opacity="1.000" stroke="rgb(91.76, 109.32, 170.03)"/>
<path d="M 118 94 L 119 89 L 136 87 z" fill="rgb(85.01, 103.27, 166.52)" opacity="1.000" stroke="rgb(85.01, 103.27, 166.52)"/>
<path d="M 119 89 L 127 82 L 136 87 z" fill="rgb(81.97, 100.55, 164.94)" opacity="1.000" stroke="rgb(81.97, 100.55, 164.94)"/>
<path d="M 101 126 L 87 124 L 96 117 z" fill="rgb(115.07, 130.17, 182.14)" opacity="1.000" stroke="rgb(115.07, 130.17, 182.14)"/>
<path d="M 101 126 L 107 139 L 102 140 z" fill="rgb(106.29, 122.31, 177.58)" opacity="1.000" stroke="rgb(106.29, 122.31, 177.58)"/>
<path d="M 107 139 L 101 126 L 110 130 z" fill="rgb(103.59, 119.89, 176.17)" opacity="1.000" stroke="rgb(103.59, 119.89, 176.17)"/>
<path d="M 101 126 L 106 114 L 110 130 z" fill="rgb(103.92, 120.20, 176.35)" opacity="1.000" stroke="rgb(103.92, 120.20, 176.35)"/>
<path d="M 101 126 L 96 117 L 106 114 z" fill="rgb(108.65, 124.43, 178.81)" opacity="1.000" stroke="rgb(108.65, 124.43, 178.81)"/>
<path d="M 56 79 L 60 85 L 42 94 z" fill="rgb(157.63, 168.25, 204.26)" opacity="1.000" stroke="rgb(157.63, 168.25, 204.26)"/>
<path d="M 45 78 L 56 79 L 42 94 z" fill="rgb(162.70, 172.78, 206.90)" opacity="1.000" stroke="rgb(162.70, 172.78, 206.90)"/>
<path d="M 56 79 L 45 78 L 54 65 z" fill="rgb(158.64, 169.16, 204.79)" opacity="1.000" stroke="rgb(158.64, 169.16, 204.79)"/>
<path d="M 76 67 L 56 79 L 54 65 z" fill="rgb(148.17, 159.79, 199.35)" opacity="1.000" stroke="rgb(148.17, 159.79, 199.35)"/>
<path d="M 56 79 L 76 67 L 60 85 z" fill="rgb(146.15, 157.97, 198.29)" opacity="1.000" stroke="rgb(146.15, 157.97, 198.29)"/>
<path d="M 42 108 L 75 122 L 59 132 z" fill="rgb(151.55, 162.81, 201.10)" opacity="1.000" stroke="rgb(151.55, 162.81, 201.10)"/>
<path d="M 75 122 L 62 135 L 59 132 z" fill="rgb(144.80, 156.76, 197.59)" opacity="1.000" stroke="rgb(144.80, 156.76, 197.59)"/>
<path d="M 75 122 L 77 106 L 78 116 z" fill="rgb(133.31, 146.49, 191.62)" opacity="1.000" stroke="rgb(133.31, 146.49, 191.62)"/>
<path d="M 75 122 L 42 108 L 77 106 z" fill="rgb(145.47, 157.37, 197.94)" opacity="1.000" stroke="rgb(145.47, 157.37, 197.94)"/>
<path d="M 62 135 L 75 122 L 72 138 z" fill="rgb(140.40, 152.84, 195.31)" opacity="1.000" stroke="rgb(140.40, 152.84, 195.31)"/>
<path d="M 75 122 L 78 138 L 72 138 z" fill="rgb(135.00, 148.00, 192.50)" opacity="1.000" stroke="rgb(135.00, 148.00, 192.50)"/>
<path d="M 75 122 L 84 128 L 78 138 z" fill="rgb(130.95, 144.37, 190.39)" opacity="1.000" stroke="rgb(130.95, 144.37, 190.39)"/>
<path d="M 87 124 L 75 122 L 78 116 z" fill="rgb(129.93, 143.47, 189.87)" opacity="1.000" stroke="rgb(129.93, 143.47, 189.87)"/>
<path d="M 84 128 L 75 122 L 87 124 z" fill="rgb(127.91, 141.65, 188.81)" opacity="1.000" stroke="rgb(127.91, 141.65, 188.81)"/>
<path d="M 78 37 L 82 25 L 90 33 z" fill="rgb(126.56, 140.44, 188.11)" opacity="1.000" stroke="rgb(126.56, 140.44, 188.11)"/>
<path d="M 82 25 L 78 37 L 75 30 z" fill="rgb(131.62, 144.98, 190.74)" opacity="1.000" stroke="rgb(131.62, 144.98, 190.74)"/>
<path d="M 75 30 L 78 37 L 61 32 z" fill="rgb(138.72, 151.32, 194.43)" opacity="1.000" stroke="rgb(138.72, 151.32, 194.43)"/>
<path d="M 78 37 L 76 51 L 61 32 z" fill="rgb(138.38, 151.02, 194.26)" opacity="1.000" stroke="rgb(138.38, 151.02, 194.26)"/>
<path d="M 78 37 L 80 46 L 76 51 z" fill="rgb(131.96, 145.28, 190.92)" opacity="1.000" stroke="rgb(131.96, 145.28, 190.92)"/>
<path d="M 101 49 L 87 47 L 90 33 z" fill="rgb(117.10, 131.98, 183.20)" opacity="1.000" stroke="rgb(117.10, 131.98, 183.20)"/>
<path d="M 87 47 L 78 37 L 90 33 z" fill="rgb(124.87, 138.93, 187.23)" opacity="1.000" stroke="rgb(124.87, 138.93, 187.23)"/>
<path d="M 78 37 L 87 47 L 80 46 z" fill="rgb(128.24, 141.96, 188.99)" opacity="1.000" stroke="rgb(128.24, 141.96, 188.99)"/>
<path d="M 76 67 L 81 75 L 80 77 z" fill="rgb(130.95, 144.37, 190.39)" opacity="1.000" stroke="rgb(130.95, 144.37, 190.39)"/>
<path d="M 81 75 L 94 90 L 80 77 z" fill="rgb(124.87, 138.93, 187.23)" opacity="1.000" stroke="rgb(124.87, 138.93, 187.23)"/>
<path d="M 94 90 L 81 75 L 111 67 z" fill="rgb(114.40, 129.56, 181.79)" opacity="1.000" stroke="rgb(114.40, 129.56, 181.79)"/>
<path d="M 92 134 L 84 128 L 87 124 z" fill="rgb(122.16, 136.52, 185.83)" opacity="1.000" stroke="rgb(122.16, 136.52, 185.83)"/>
<path d="M 101 126 L 92 134 L 87 124 z" fill="rgb(116.42, 131.38, 182.84)" opacity="1.000" stroke="rgb(116.42, 131.38, 182.84)"/>
<path d="M 92 134 L 101 126 L 102 140 z" fill="rgb(111.36, 126.84, 180.21)" opacity="1.000" stroke="rgb(111.36, 126.84, 180.21)"/>
<path d="M 78 138 L 92 134 L 102 140 z" fill="rgb(119.12, 133.80, 184.25)" opacity="1.000" stroke="rgb(119.12, 133.80, 184.25)"/>
<path d="M 84 128 L 92 134 L 78 138 z" fill="rgb(125.20, 139.24, 187.41)" opacity="1.000" stroke="rgb(125.20, 139.24, 187.41)"/>
<path d="M 80 46 L 82 56 L 76 51 z" fill="rgb(130.61, 144.07, 190.22)" opacity="1.000" stroke="rgb(130.61, 144.07, 190.22)"/>
<path d="M 87 47 L 82 56 L 80 46 z" fill="rgb(126.89, 140.75, 188.29)" opacity="1.000" stroke="rgb(126.89, 140.75, 188.29)"/>
<path d="M 82 56 L 76 67 L 76 51 z" fill="rgb(131.96, 145.28, 190.92)" opacity="1.000" stroke="rgb(131.96, 145.28, 190.92)"/>
<path d="M 82 56 L 81 75 L 76 67 z" fill="rgb(130.27, 143.77, 190.04)" opacity="1.000" stroke="rgb(130.27, 143.77, 190.04)"/>
<path d="M 91 53 L 87 47 L 101 49 z" fill="rgb(116.76, 131.68, 183.02)" opacity="1.000" stroke="rgb(116.76, 131.68, 183.02)"/>
<path d="M 91 53 L 101 49 L 111 67 z" fill="rgb(108.65, 124.43, 178.81)" opacity="1.000" stroke="rgb(108.65, 124.43, 178.81)"/>
<path d="M 81 75 L 91 53 L 111 67 z" fill="rgb(115.41, 130.47, 182.32)" opacity="1.000" stroke="rgb(115.41, 130.47, 182.32)"/>
<path d="M 82 56 L 91 53 L 81 75 z" fill="rgb(125.20, 139.24, 187.41)" opacity="1.000" stroke="rgb(125.20, 139.24, 187.41)"/>
<path d="M 89 52 L 82 56 L 87 47 z" fill="rgb(123.85, 138.03, 186.71)" opacity="1.000" stroke="rgb(123.85, 138.03, 186.71)"/>
<path d="M 91 53 L 89 52 L 87 47 z" fill="rgb(120.81, 135.31, 185.13)" opacity="1.000" stroke="rgb(120.81, 135.31, 185.13)"/>
<path d="M 89 52 L 91 53 L 82 56 z" fill="rgb(122.50, 136.82, 186.00)" opacity="1.000" stroke="rgb(122.50, 136.82, 186.00)"/>
<text style="fill:white;filter:url(#shadow);" text-anchor="middle" font-size="20.0" class="sans" x="75.0" y="85.0" fill="black">ASIACRYPT</text>
</svg>
