<?xml version="1.0" encoding="utf-8"?>
<svg xmlns="http://www.w3.org/2000/svg" width="150" height="150"
     xmlns:xlink="http://www.w3.org/1999/xlink">
  <defs>
    <linearGradient id="bluegradient" x1="0" x2="0" y1="0" y2="1">
      <stop stop-color="#0E38FF" offset="0%"/>
      <stop stop-color="#729BFF" offset="10%"/>
      <stop stop-color="#f0f0ff" offset="100%"/>
    </linearGradient>
    <radialGradient id="circuitcolor">
      <stop stop-color="#80d0ff" offset="20%"/>
      <stop stop-color="#40a0ff" offset="100%"/>
    </radialGradient>
    <radialGradient id="wires" cx="25%" cy="50%" r="100%" fx="100%" fy="100%">
      <stop stop-color="#404080" offset="0%"/>
      <stop stop-color="#6080a0" offset="40%"/>
      <stop stop-color="#80a0c0" offset="100%"/>
    </radialGradient>
    <radialGradient id="blues">
       <stop offset="0%" stop-color="rgba(128,192,192,0.8)"/>
       <stop offset="30%" stop-color="rgba(65,192,225,0.5)"/>
       <stop offset="100%" stop-color="rgba(192,192,225,0.8)"/>
    </radialGradient>
    <radialGradient id="blues2">
       <stop offset="0%" stop-color="rgba(64,64,225,0.5)"/>
       <stop offset="50%" stop-color="rgba(92,92,225,0.8)"/>
       <stop offset="100%" stop-color="rgba(128,128,225,0.8)"/>
    </radialGradient>
  </defs>
  <style>
    .sans {font-family: Arial, Helvetica, sans-serif;}
  </style>
  <clipPath id="circle">
    <circle cx="75.0" cy="75.0" r="75.0"/>
  </clipPath>
  <!-- created with "circles.py -min=10 -colors=gradient -num=100 -conf ASIACRYPT" -->
  <g clip-path="url(#circle)">
   
<path d="M 0 150 L 68 139 L 150 150 z" fill="rgb(137.36, 150.12, 193.73)" opacity="1.000" stroke="rgb(137.36, 150.12, 193.73)"/>
<path d="M 150 0 L 77 10 L 0 0 z" fill="rgb(134.32, 147.40, 192.15)" opacity="1.000" stroke="rgb(134.32, 147.40, 192.15)"/>
<path d="M 129 83 L 150 0 L 150 150 z" fill="rgb(66.09, 86.35, 156.69)" opacity="1.000" stroke="rgb(66.09, 86.35, 156.69)"/>
<path d="M 68 139 L 115 138 L 150 150 z" fill="rgb(98.52, 115.36, 173.54)" opacity="1.000" stroke="rgb(98.52, 115.36, 173.54)"/>
<path d="M 132 113 L 129 83 L 150 150 z" fill="rgb(72.17, 91.79, 159.85)" opacity="1.000" stroke="rgb(72.17, 91.79, 159.85)"/>
<path d="M 55 129 L 66 132 L 68 139 z" fill="rgb(147.16, 158.88, 198.82)" opacity="1.000" stroke="rgb(147.16, 158.88, 198.82)"/>
<path d="M 101 15 L 105 16 L 97 30 z" fill="rgb(108.65, 124.43, 178.81)" opacity="1.000" stroke="rgb(108.65, 124.43, 178.81)"/>
<path d="M 115 138 L 82 130 L 116 121 z" fill="rgb(105.28, 121.40, 177.05)" opacity="1.000" stroke="rgb(105.28, 121.40, 177.05)"/>
<path d="M 66 132 L 82 130 L 68 139 z" fill="rgb(138.04, 150.72, 194.08)" opacity="1.000" stroke="rgb(138.04, 150.72, 194.08)"/>
<path d="M 82 130 L 115 138 L 68 139 z" fill="rgb(121.49, 135.91, 185.48)" opacity="1.000" stroke="rgb(121.49, 135.91, 185.48)"/>
<path d="M 129 137 L 115 138 L 116 121 z" fill="rgb(89.40, 107.20, 168.80)" opacity="1.000" stroke="rgb(89.40, 107.20, 168.80)"/>
<path d="M 132 113 L 127 89 L 129 83 z" fill="rgb(79.94, 98.74, 163.88)" opacity="1.000" stroke="rgb(79.94, 98.74, 163.88)"/>
<path d="M 124 112 L 127 89 L 132 113 z" fill="rgb(81.63, 100.25, 164.76)" opacity="1.000" stroke="rgb(81.63, 100.25, 164.76)"/>
<path d="M 15 94 L 40 101 L 13 98 z" fill="rgb(188.03, 195.45, 220.06)" opacity="1.000" stroke="rgb(188.03, 195.45, 220.06)"/>
<path d="M 40 101 L 15 94 L 30 87 z" fill="rgb(182.29, 190.31, 217.08)" opacity="1.000" stroke="rgb(182.29, 190.31, 217.08)"/>
<path d="M 29 129 L 55 129 L 68 139 z" fill="rgb(159.66, 170.06, 205.32)" opacity="1.000" stroke="rgb(159.66, 170.06, 205.32)"/>
<path d="M 29 129 L 68 139 L 0 150 z" fill="rgb(178.24, 186.68, 214.97)" opacity="1.000" stroke="rgb(178.24, 186.68, 214.97)"/>
<path d="M 25 130 L 29 129 L 0 150 z" fill="rgb(192.76, 199.68, 222.52)" opacity="1.000" stroke="rgb(192.76, 199.68, 222.52)"/>
<path d="M 108 11 L 105 16 L 101 15 z" fill="rgb(104.94, 121.10, 176.88)" opacity="1.000" stroke="rgb(104.94, 121.10, 176.88)"/>
<path d="M 108 11 L 101 15 L 77 10 z" fill="rgb(114.40, 129.56, 181.79)" opacity="1.000" stroke="rgb(114.40, 129.56, 181.79)"/>
<path d="M 108 11 L 77 10 L 150 0 z" fill="rgb(97.84, 114.76, 173.19)" opacity="1.000" stroke="rgb(97.84, 114.76, 173.19)"/>
<path d="M 131 10 L 108 11 L 150 0 z" fill="rgb(79.60, 98.44, 163.71)" opacity="1.000" stroke="rgb(79.60, 98.44, 163.71)"/>
<path d="M 132 34 L 131 10 L 150 0 z" fill="rgb(71.50, 91.18, 159.50)" opacity="1.000" stroke="rgb(71.50, 91.18, 159.50)"/>
<path d="M 129 83 L 132 34 L 150 0 z" fill="rgb(72.17, 91.79, 159.85)" opacity="1.000" stroke="rgb(72.17, 91.79, 159.85)"/>
<path d="M 92 51 L 110 38 L 117 56 z" fill="rgb(103.25, 119.59, 176.00)" opacity="1.000" stroke="rgb(103.25, 119.59, 176.00)"/>
<path d="M 110 38 L 132 34 L 117 56 z" fill="rgb(89.74, 107.50, 168.98)" opacity="1.000" stroke="rgb(89.74, 107.50, 168.98)"/>
<path d="M 53 48 L 60 59 L 41 47 z" fill="rgb(158.98, 169.46, 204.96)" opacity="1.000" stroke="rgb(158.98, 169.46, 204.96)"/>
<path d="M 60 59 L 53 48 L 62 43 z" fill="rgb(151.89, 163.11, 201.28)" opacity="1.000" stroke="rgb(151.89, 163.11, 201.28)"/>
<path d="M 60 59 L 31 55 L 41 47 z" fill="rgb(166.41, 176.11, 208.83)" opacity="1.000" stroke="rgb(166.41, 176.11, 208.83)"/>
<path d="M 35 76 L 31 55 L 60 59 z" fill="rgb(168.44, 177.92, 209.88)" opacity="1.000" stroke="rgb(168.44, 177.92, 209.88)"/>
<path d="M 31 55 L 35 76 L 20 61 z" fill="rgb(181.95, 190.01, 216.90)" opacity="1.000" stroke="rgb(181.95, 190.01, 216.90)"/>
<path d="M 20 61 L 35 76 L 14 80 z" fill="rgb(187.69, 195.15, 219.89)" opacity="1.000" stroke="rgb(187.69, 195.15, 219.89)"/>
<path d="M 60 59 L 83 60 L 85 69 z" fill="rgb(133.99, 147.09, 191.97)" opacity="1.000" stroke="rgb(133.99, 147.09, 191.97)"/>
<path d="M 101 15 L 83 25 L 77 10 z" fill="rgb(122.84, 137.12, 186.18)" opacity="1.000" stroke="rgb(122.84, 137.12, 186.18)"/>
<path d="M 110 38 L 93 40 L 97 30 z" fill="rgb(109.67, 125.33, 179.33)" opacity="1.000" stroke="rgb(109.67, 125.33, 179.33)"/>
<path d="M 93 40 L 110 38 L 92 51 z" fill="rgb(111.36, 126.84, 180.21)" opacity="1.000" stroke="rgb(111.36, 126.84, 180.21)"/>
<path d="M 61 26 L 76 36 L 62 43 z" fill="rgb(143.78, 155.86, 197.06)" opacity="1.000" stroke="rgb(143.78, 155.86, 197.06)"/>
<path d="M 61 26 L 83 25 L 76 36 z" fill="rgb(136.69, 149.51, 193.38)" opacity="1.000" stroke="rgb(136.69, 149.51, 193.38)"/>
<path d="M 11 58 L 20 61 L 14 80 z" fill="rgb(195.80, 202.40, 224.10)" opacity="1.000" stroke="rgb(195.80, 202.40, 224.10)"/>
<path d="M 11 34 L 11 58 L 0 0 z" fill="rgb(203.57, 209.35, 228.14)" opacity="1.000" stroke="rgb(203.57, 209.35, 228.14)"/>
<path d="M 11 58 L 0 150 L 0 0 z" fill="rgb(207.28, 212.68, 230.07)" opacity="1.000" stroke="rgb(207.28, 212.68, 230.07)"/>
<path d="M 11 58 L 13 98 L 0 150 z" fill="rgb(202.89, 208.75, 227.79)" opacity="1.000" stroke="rgb(202.89, 208.75, 227.79)"/>
<path d="M 13 98 L 11 58 L 14 80 z" fill="rgb(198.16, 204.52, 225.33)" opacity="1.000" stroke="rgb(198.16, 204.52, 225.33)"/>
<path d="M 124 112 L 108 109 L 107 96 z" fill="rgb(96.49, 113.55, 172.49)" opacity="1.000" stroke="rgb(96.49, 113.55, 172.49)"/>
<path d="M 129 117 L 129 137 L 116 121 z" fill="rgb(84.67, 102.97, 166.34)" opacity="1.000" stroke="rgb(84.67, 102.97, 166.34)"/>
<path d="M 124 112 L 129 117 L 116 121 z" fill="rgb(86.36, 104.48, 167.22)" opacity="1.000" stroke="rgb(86.36, 104.48, 167.22)"/>
<path d="M 129 117 L 124 112 L 132 113 z" fill="rgb(80.96, 99.64, 164.41)" opacity="1.000" stroke="rgb(80.96, 99.64, 164.41)"/>
<path d="M 131 138 L 132 113 L 150 150 z" fill="rgb(71.50, 91.18, 159.50)" opacity="1.000" stroke="rgb(71.50, 91.18, 159.50)"/>
<path d="M 115 138 L 131 138 L 150 150 z" fill="rgb(77.24, 96.32, 162.48)" opacity="1.000" stroke="rgb(77.24, 96.32, 162.48)"/>
<path d="M 129 137 L 131 138 L 115 138 z" fill="rgb(84.33, 102.67, 166.17)" opacity="1.000" stroke="rgb(84.33, 102.67, 166.17)"/>
<path d="M 131 138 L 129 117 L 132 113 z" fill="rgb(78.59, 97.53, 163.18)" opacity="1.000" stroke="rgb(78.59, 97.53, 163.18)"/>
<path d="M 129 117 L 131 138 L 129 137 z" fill="rgb(79.60, 98.44, 163.71)" opacity="1.000" stroke="rgb(79.60, 98.44, 163.71)"/>
<path d="M 106 66 L 92 51 L 117 56 z" fill="rgb(104.60, 120.80, 176.70)" opacity="1.000" stroke="rgb(104.60, 120.80, 176.70)"/>
<path d="M 90 74 L 91 81 L 85 69 z" fill="rgb(121.15, 135.61, 185.30)" opacity="1.000" stroke="rgb(121.15, 135.61, 185.30)"/>
<path d="M 91 81 L 106 66 L 107 96 z" fill="rgb(108.32, 124.12, 178.63)" opacity="1.000" stroke="rgb(108.32, 124.12, 178.63)"/>
<path d="M 106 66 L 91 81 L 90 74 z" fill="rgb(114.06, 129.26, 181.62)" opacity="1.000" stroke="rgb(114.06, 129.26, 181.62)"/>
<path d="M 15 83 L 13 98 L 14 80 z" fill="rgb(196.81, 203.31, 224.63)" opacity="1.000" stroke="rgb(196.81, 203.31, 224.63)"/>
<path d="M 15 83 L 15 94 L 13 98 z" fill="rgb(196.48, 203.00, 224.45)" opacity="1.000" stroke="rgb(196.48, 203.00, 224.45)"/>
<path d="M 15 94 L 15 83 L 30 87 z" fill="rgb(190.73, 197.87, 221.47)" opacity="1.000" stroke="rgb(190.73, 197.87, 221.47)"/>
<path d="M 49 94 L 30 87 L 50 92 z" fill="rgb(167.43, 177.01, 209.35)" opacity="1.000" stroke="rgb(167.43, 177.01, 209.35)"/>
<path d="M 49 94 L 40 101 L 30 87 z" fill="rgb(170.80, 180.04, 211.11)" opacity="1.000" stroke="rgb(170.80, 180.04, 211.11)"/>
<path d="M 55 129 L 66 123 L 66 132 z" fill="rgb(147.84, 159.48, 199.17)" opacity="1.000" stroke="rgb(147.84, 159.48, 199.17)"/>
<path d="M 40 107 L 63 118 L 55 129 z" fill="rgb(157.63, 168.25, 204.26)" opacity="1.000" stroke="rgb(157.63, 168.25, 204.26)"/>
<path d="M 29 129 L 40 107 L 55 129 z" fill="rgb(169.12, 178.52, 210.23)" opacity="1.000" stroke="rgb(169.12, 178.52, 210.23)"/>
<path d="M 40 101 L 40 107 L 13 98 z" fill="rgb(179.59, 187.89, 215.67)" opacity="1.000" stroke="rgb(179.59, 187.89, 215.67)"/>
<path d="M 132 34 L 113 18 L 131 10 z" fill="rgb(84.00, 102.36, 165.99)" opacity="1.000" stroke="rgb(84.00, 102.36, 165.99)"/>
<path d="M 113 18 L 108 11 L 131 10 z" fill="rgb(92.10, 109.62, 170.20)" opacity="1.000" stroke="rgb(92.10, 109.62, 170.20)"/>
<path d="M 108 11 L 113 18 L 105 16 z" fill="rgb(100.88, 117.48, 174.77)" opacity="1.000" stroke="rgb(100.88, 117.48, 174.77)"/>
<path d="M 35 76 L 53 80 L 50 92 z" fill="rgb(164.39, 174.29, 207.77)" opacity="1.000" stroke="rgb(164.39, 174.29, 207.77)"/>
<path d="M 53 80 L 35 76 L 60 59 z" fill="rgb(161.01, 171.27, 206.02)" opacity="1.000" stroke="rgb(161.01, 171.27, 206.02)"/>
<path d="M 53 80 L 60 59 L 85 69 z" fill="rgb(144.12, 156.16, 197.24)" opacity="1.000" stroke="rgb(144.12, 156.16, 197.24)"/>
<path d="M 35 76 L 30 85 L 14 80 z" fill="rgb(184.32, 192.12, 218.13)" opacity="1.000" stroke="rgb(184.32, 192.12, 218.13)"/>
<path d="M 30 85 L 15 83 L 14 80 z" fill="rgb(191.07, 198.17, 221.64)" opacity="1.000" stroke="rgb(191.07, 198.17, 221.64)"/>
<path d="M 15 83 L 30 85 L 30 87 z" fill="rgb(185.67, 193.33, 218.83)" opacity="1.000" stroke="rgb(185.67, 193.33, 218.83)"/>
<path d="M 30 87 L 30 85 L 50 92 z" fill="rgb(173.84, 182.76, 212.69)" opacity="1.000" stroke="rgb(173.84, 182.76, 212.69)"/>
<path d="M 30 85 L 35 76 L 50 92 z" fill="rgb(172.16, 181.24, 211.81)" opacity="1.000" stroke="rgb(172.16, 181.24, 211.81)"/>
<path d="M 83 60 L 82 55 L 92 51 z" fill="rgb(124.19, 138.33, 186.88)" opacity="1.000" stroke="rgb(124.19, 138.33, 186.88)"/>
<path d="M 93 40 L 96 30 L 97 30 z" fill="rgb(114.40, 129.56, 181.79)" opacity="1.000" stroke="rgb(114.40, 129.56, 181.79)"/>
<path d="M 96 30 L 101 15 L 97 30 z" fill="rgb(111.69, 127.15, 180.39)" opacity="1.000" stroke="rgb(111.69, 127.15, 180.39)"/>
<path d="M 96 30 L 83 25 L 101 15 z" fill="rgb(116.42, 131.38, 182.84)" opacity="1.000" stroke="rgb(116.42, 131.38, 182.84)"/>
<path d="M 83 25 L 85 34 L 76 36 z" fill="rgb(128.58, 142.26, 189.16)" opacity="1.000" stroke="rgb(128.58, 142.26, 189.16)"/>
<path d="M 31 55 L 37 48 L 41 47 z" fill="rgb(174.18, 183.06, 212.86)" opacity="1.000" stroke="rgb(174.18, 183.06, 212.86)"/>
<path d="M 37 48 L 38 31 L 41 47 z" fill="rgb(171.82, 180.94, 211.64)" opacity="1.000" stroke="rgb(171.82, 180.94, 211.64)"/>
<path d="M 19 21 L 11 34 L 0 0 z" fill="rgb(200.87, 206.93, 226.73)" opacity="1.000" stroke="rgb(200.87, 206.93, 226.73)"/>
<path d="M 83 25 L 62 18 L 77 10 z" fill="rgb(136.01, 148.91, 193.03)" opacity="1.000" stroke="rgb(136.01, 148.91, 193.03)"/>
<path d="M 61 26 L 62 18 L 83 25 z" fill="rgb(141.42, 153.74, 195.84)" opacity="1.000" stroke="rgb(141.42, 153.74, 195.84)"/>
<path d="M 62 18 L 48 19 L 77 10 z" fill="rgb(147.84, 159.48, 199.17)" opacity="1.000" stroke="rgb(147.84, 159.48, 199.17)"/>
<path d="M 62 18 L 61 26 L 48 19 z" fill="rgb(153.24, 164.32, 201.98)" opacity="1.000" stroke="rgb(153.24, 164.32, 201.98)"/>
<path d="M 16 50 L 31 55 L 20 61 z" fill="rgb(188.37, 195.75, 220.24)" opacity="1.000" stroke="rgb(188.37, 195.75, 220.24)"/>
<path d="M 11 58 L 16 50 L 20 61 z" fill="rgb(195.12, 201.80, 223.75)" opacity="1.000" stroke="rgb(195.12, 201.80, 223.75)"/>
<path d="M 16 50 L 37 48 L 31 55 z" fill="rgb(182.63, 190.61, 217.25)" opacity="1.000" stroke="rgb(182.63, 190.61, 217.25)"/>
<path d="M 82 130 L 114 116 L 116 121 z" fill="rgb(105.61, 121.71, 177.23)" opacity="1.000" stroke="rgb(105.61, 121.71, 177.23)"/>
<path d="M 114 116 L 124 112 L 116 121 z" fill="rgb(91.43, 109.01, 169.85)" opacity="1.000" stroke="rgb(91.43, 109.01, 169.85)"/>
<path d="M 114 116 L 108 109 L 124 112 z" fill="rgb(94.13, 111.43, 171.26)" opacity="1.000" stroke="rgb(94.13, 111.43, 171.26)"/>
<path d="M 106 66 L 89 63 L 92 51 z" fill="rgb(114.06, 129.26, 181.62)" opacity="1.000" stroke="rgb(114.06, 129.26, 181.62)"/>
<path d="M 83 60 L 89 63 L 85 69 z" fill="rgb(124.19, 138.33, 186.88)" opacity="1.000" stroke="rgb(124.19, 138.33, 186.88)"/>
<path d="M 89 63 L 83 60 L 92 51 z" fill="rgb(121.83, 136.21, 185.65)" opacity="1.000" stroke="rgb(121.83, 136.21, 185.65)"/>
<path d="M 89 63 L 90 74 L 85 69 z" fill="rgb(121.83, 136.21, 185.65)" opacity="1.000" stroke="rgb(121.83, 136.21, 185.65)"/>
<path d="M 89 63 L 106 66 L 90 74 z" fill="rgb(114.73, 129.87, 181.97)" opacity="1.000" stroke="rgb(114.73, 129.87, 181.97)"/>
<path d="M 106 66 L 119 69 L 107 96 z" fill="rgb(98.86, 115.66, 173.72)" opacity="1.000" stroke="rgb(98.86, 115.66, 173.72)"/>
<path d="M 119 69 L 106 66 L 117 56 z" fill="rgb(95.48, 112.64, 171.96)" opacity="1.000" stroke="rgb(95.48, 112.64, 171.96)"/>
<path d="M 119 69 L 132 34 L 129 83 z" fill="rgb(82.64, 101.16, 165.29)" opacity="1.000" stroke="rgb(82.64, 101.16, 165.29)"/>
<path d="M 132 34 L 119 69 L 117 56 z" fill="rgb(86.70, 104.78, 167.40)" opacity="1.000" stroke="rgb(86.70, 104.78, 167.40)"/>
<path d="M 63 118 L 64 121 L 55 129 z" fill="rgb(149.52, 161.00, 200.05)" opacity="1.000" stroke="rgb(149.52, 161.00, 200.05)"/>
<path d="M 64 121 L 66 123 L 55 129 z" fill="rgb(148.51, 160.09, 199.52)" opacity="1.000" stroke="rgb(148.51, 160.09, 199.52)"/>
<path d="M 68 126 L 82 130 L 66 132 z" fill="rgb(138.04, 150.72, 194.08)" opacity="1.000" stroke="rgb(138.04, 150.72, 194.08)"/>
<path d="M 66 123 L 68 126 L 66 132 z" fill="rgb(143.44, 155.56, 196.89)" opacity="1.000" stroke="rgb(143.44, 155.56, 196.89)"/>
<path d="M 40 107 L 48 103 L 63 118 z" fill="rgb(160.00, 170.36, 205.49)" opacity="1.000" stroke="rgb(160.00, 170.36, 205.49)"/>
<path d="M 48 103 L 70 106 L 63 118 z" fill="rgb(149.86, 161.30, 200.22)" opacity="1.000" stroke="rgb(149.86, 161.30, 200.22)"/>
<path d="M 40 107 L 17 116 L 13 98 z" fill="rgb(187.36, 194.84, 219.71)" opacity="1.000" stroke="rgb(187.36, 194.84, 219.71)"/>
<path d="M 17 116 L 40 107 L 29 129 z" fill="rgb(181.95, 190.01, 216.90)" opacity="1.000" stroke="rgb(181.95, 190.01, 216.90)"/>
<path d="M 17 116 L 29 129 L 25 130 z" fill="rgb(187.02, 194.54, 219.54)" opacity="1.000" stroke="rgb(187.02, 194.54, 219.54)"/>
<path d="M 13 98 L 17 116 L 0 150 z" fill="rgb(200.87, 206.93, 226.73)" opacity="1.000" stroke="rgb(200.87, 206.93, 226.73)"/>
<path d="M 17 116 L 25 130 L 0 150 z" fill="rgb(196.81, 203.31, 224.63)" opacity="1.000" stroke="rgb(196.81, 203.31, 224.63)"/>
<path d="M 110 38 L 109 29 L 132 34 z" fill="rgb(92.44, 109.92, 170.38)" opacity="1.000" stroke="rgb(92.44, 109.92, 170.38)"/>
<path d="M 109 29 L 113 18 L 132 34 z" fill="rgb(91.43, 109.01, 169.85)" opacity="1.000" stroke="rgb(91.43, 109.01, 169.85)"/>
<path d="M 109 29 L 110 38 L 97 30 z" fill="rgb(104.26, 120.50, 176.52)" opacity="1.000" stroke="rgb(104.26, 120.50, 176.52)"/>
<path d="M 105 16 L 109 29 L 97 30 z" fill="rgb(105.95, 122.01, 177.40)" opacity="1.000" stroke="rgb(105.95, 122.01, 177.40)"/>
<path d="M 113 18 L 109 29 L 105 16 z" fill="rgb(100.55, 117.17, 174.59)" opacity="1.000" stroke="rgb(100.55, 117.17, 174.59)"/>
<path d="M 76 36 L 74 53 L 62 43 z" fill="rgb(139.39, 151.93, 194.78)" opacity="1.000" stroke="rgb(139.39, 151.93, 194.78)"/>
<path d="M 74 53 L 60 59 L 62 43 z" fill="rgb(144.80, 156.76, 197.59)" opacity="1.000" stroke="rgb(144.80, 156.76, 197.59)"/>
<path d="M 74 53 L 83 60 L 60 59 z" fill="rgb(137.70, 150.42, 193.90)" opacity="1.000" stroke="rgb(137.70, 150.42, 193.90)"/>
<path d="M 74 53 L 82 55 L 83 60 z" fill="rgb(130.27, 143.77, 190.04)" opacity="1.000" stroke="rgb(130.27, 143.77, 190.04)"/>
<path d="M 85 34 L 86 37 L 76 36 z" fill="rgb(127.57, 141.35, 188.64)" opacity="1.000" stroke="rgb(127.57, 141.35, 188.64)"/>
<path d="M 96 30 L 92 31 L 83 25 z" fill="rgb(119.46, 134.10, 184.42)" opacity="1.000" stroke="rgb(119.46, 134.10, 184.42)"/>
<path d="M 92 31 L 85 34 L 83 25 z" fill="rgb(123.18, 137.42, 186.36)" opacity="1.000" stroke="rgb(123.18, 137.42, 186.36)"/>
<path d="M 92 31 L 86 37 L 85 34 z" fill="rgb(122.16, 136.52, 185.83)" opacity="1.000" stroke="rgb(122.16, 136.52, 185.83)"/>
<path d="M 92 31 L 96 30 L 93 40 z" fill="rgb(116.08, 131.08, 182.67)" opacity="1.000" stroke="rgb(116.08, 131.08, 182.67)"/>
<path d="M 86 37 L 92 31 L 93 40 z" fill="rgb(119.46, 134.10, 184.42)" opacity="1.000" stroke="rgb(119.46, 134.10, 184.42)"/>
<path d="M 38 31 L 28 23 L 48 19 z" fill="rgb(172.49, 181.55, 211.99)" opacity="1.000" stroke="rgb(172.49, 181.55, 211.99)"/>
<path d="M 28 23 L 38 31 L 26 25 z" fill="rgb(179.92, 188.20, 215.85)" opacity="1.000" stroke="rgb(179.92, 188.20, 215.85)"/>
<path d="M 54 39 L 61 26 L 62 43 z" fill="rgb(151.21, 162.51, 200.93)" opacity="1.000" stroke="rgb(151.21, 162.51, 200.93)"/>
<path d="M 38 31 L 24 29 L 26 25 z" fill="rgb(181.28, 189.40, 216.55)" opacity="1.000" stroke="rgb(181.28, 189.40, 216.55)"/>
<path d="M 37 48 L 24 29 L 38 31 z" fill="rgb(177.56, 186.08, 214.62)" opacity="1.000" stroke="rgb(177.56, 186.08, 214.62)"/>
<path d="M 16 50 L 24 29 L 37 48 z" fill="rgb(184.99, 192.73, 218.48)" opacity="1.000" stroke="rgb(184.99, 192.73, 218.48)"/>
<path d="M 19 21 L 24 29 L 11 34 z" fill="rgb(192.76, 199.68, 222.52)" opacity="1.000" stroke="rgb(192.76, 199.68, 222.52)"/>
<path d="M 13 47 L 11 58 L 11 34 z" fill="rgb(199.18, 205.42, 225.86)" opacity="1.000" stroke="rgb(199.18, 205.42, 225.86)"/>
<path d="M 13 47 L 16 50 L 11 58 z" fill="rgb(197.49, 203.91, 224.98)" opacity="1.000" stroke="rgb(197.49, 203.91, 224.98)"/>
<path d="M 24 29 L 13 47 L 11 34 z" fill="rgb(194.79, 201.49, 223.57)" opacity="1.000" stroke="rgb(194.79, 201.49, 223.57)"/>
<path d="M 13 47 L 24 29 L 16 50 z" fill="rgb(193.10, 199.98, 222.70)" opacity="1.000" stroke="rgb(193.10, 199.98, 222.70)"/>
<path d="M 87 111 L 114 116 L 82 130 z" fill="rgb(115.41, 130.47, 182.32)" opacity="1.000" stroke="rgb(115.41, 130.47, 182.32)"/>
<path d="M 114 116 L 87 111 L 108 109 z" fill="rgb(106.63, 122.61, 177.75)" opacity="1.000" stroke="rgb(106.63, 122.61, 177.75)"/>
<path d="M 70 106 L 70 121 L 63 118 z" fill="rgb(142.43, 154.65, 196.36)" opacity="1.000" stroke="rgb(142.43, 154.65, 196.36)"/>
<path d="M 70 121 L 64 121 L 63 118 z" fill="rgb(144.46, 156.46, 197.42)" opacity="1.000" stroke="rgb(144.46, 156.46, 197.42)"/>
<path d="M 64 121 L 70 121 L 66 123 z" fill="rgb(143.44, 155.56, 196.89)" opacity="1.000" stroke="rgb(143.44, 155.56, 196.89)"/>
<path d="M 70 106 L 61 95 L 91 81 z" fill="rgb(136.01, 148.91, 193.03)" opacity="1.000" stroke="rgb(136.01, 148.91, 193.03)"/>
<path d="M 91 81 L 61 95 L 85 69 z" fill="rgb(130.95, 144.37, 190.39)" opacity="1.000" stroke="rgb(130.95, 144.37, 190.39)"/>
<path d="M 61 95 L 53 80 L 85 69 z" fill="rgb(143.78, 155.86, 197.06)" opacity="1.000" stroke="rgb(143.78, 155.86, 197.06)"/>
<path d="M 53 80 L 61 95 L 50 92 z" fill="rgb(155.60, 166.44, 203.21)" opacity="1.000" stroke="rgb(155.60, 166.44, 203.21)"/>
<path d="M 61 95 L 49 94 L 50 92 z" fill="rgb(156.96, 167.64, 203.91)" opacity="1.000" stroke="rgb(156.96, 167.64, 203.91)"/>
<path d="M 61 95 L 48 103 L 49 94 z" fill="rgb(157.63, 168.25, 204.26)" opacity="1.000" stroke="rgb(157.63, 168.25, 204.26)"/>
<path d="M 48 103 L 61 95 L 70 106 z" fill="rgb(150.54, 161.90, 200.58)" opacity="1.000" stroke="rgb(150.54, 161.90, 200.58)"/>
<path d="M 119 69 L 124 90 L 107 96 z" fill="rgb(92.78, 110.22, 170.56)" opacity="1.000" stroke="rgb(92.78, 110.22, 170.56)"/>
<path d="M 124 90 L 124 112 L 107 96 z" fill="rgb(91.09, 108.71, 169.68)" opacity="1.000" stroke="rgb(91.09, 108.71, 169.68)"/>
<path d="M 124 112 L 124 90 L 127 89 z" fill="rgb(84.33, 102.67, 166.17)" opacity="1.000" stroke="rgb(84.33, 102.67, 166.17)"/>
<path d="M 127 89 L 124 90 L 129 83 z" fill="rgb(82.64, 101.16, 165.29)" opacity="1.000" stroke="rgb(82.64, 101.16, 165.29)"/>
<path d="M 124 90 L 119 69 L 129 83 z" fill="rgb(85.35, 103.57, 166.69)" opacity="1.000" stroke="rgb(85.35, 103.57, 166.69)"/>
<path d="M 44 102 L 40 107 L 40 101 z" fill="rgb(169.12, 178.52, 210.23)" opacity="1.000" stroke="rgb(169.12, 178.52, 210.23)"/>
<path d="M 44 102 L 48 103 L 40 107 z" fill="rgb(166.41, 176.11, 208.83)" opacity="1.000" stroke="rgb(166.41, 176.11, 208.83)"/>
<path d="M 49 94 L 44 102 L 40 101 z" fill="rgb(166.08, 175.80, 208.65)" opacity="1.000" stroke="rgb(166.08, 175.80, 208.65)"/>
<path d="M 48 103 L 44 102 L 49 94 z" fill="rgb(163.37, 173.39, 207.25)" opacity="1.000" stroke="rgb(163.37, 173.39, 207.25)"/>
<path d="M 82 43 L 74 53 L 76 36 z" fill="rgb(132.64, 145.88, 191.27)" opacity="1.000" stroke="rgb(132.64, 145.88, 191.27)"/>
<path d="M 86 37 L 82 43 L 76 36 z" fill="rgb(128.58, 142.26, 189.16)" opacity="1.000" stroke="rgb(128.58, 142.26, 189.16)"/>
<path d="M 74 53 L 82 43 L 82 55 z" fill="rgb(130.61, 144.07, 190.22)" opacity="1.000" stroke="rgb(130.61, 144.07, 190.22)"/>
<path d="M 82 55 L 82 43 L 92 51 z" fill="rgb(124.53, 138.63, 187.06)" opacity="1.000" stroke="rgb(124.53, 138.63, 187.06)"/>
<path d="M 82 43 L 93 40 L 92 51 z" fill="rgb(120.81, 135.31, 185.13)" opacity="1.000" stroke="rgb(120.81, 135.31, 185.13)"/>
<path d="M 82 43 L 86 37 L 93 40 z" fill="rgb(122.84, 137.12, 186.18)" opacity="1.000" stroke="rgb(122.84, 137.12, 186.18)"/>
<path d="M 25 23 L 28 23 L 26 25 z" fill="rgb(184.32, 192.12, 218.13)" opacity="1.000" stroke="rgb(184.32, 192.12, 218.13)"/>
<path d="M 23 12 L 19 21 L 0 0 z" fill="rgb(196.81, 203.31, 224.63)" opacity="1.000" stroke="rgb(196.81, 203.31, 224.63)"/>
<path d="M 28 23 L 23 12 L 48 19 z" fill="rgb(177.56, 186.08, 214.62)" opacity="1.000" stroke="rgb(177.56, 186.08, 214.62)"/>
<path d="M 25 23 L 23 12 L 28 23 z" fill="rgb(185.33, 193.03, 218.66)" opacity="1.000" stroke="rgb(185.33, 193.03, 218.66)"/>
<path d="M 77 10 L 23 12 L 0 0 z" fill="rgb(177.22, 185.78, 214.44)" opacity="1.000" stroke="rgb(177.22, 185.78, 214.44)"/>
<path d="M 48 19 L 23 12 L 77 10 z" fill="rgb(161.01, 171.27, 206.02)" opacity="1.000" stroke="rgb(161.01, 171.27, 206.02)"/>
<path d="M 53 48 L 52 41 L 62 43 z" fill="rgb(154.59, 165.53, 202.68)" opacity="1.000" stroke="rgb(154.59, 165.53, 202.68)"/>
<path d="M 52 41 L 54 39 L 62 43 z" fill="rgb(154.25, 165.23, 202.51)" opacity="1.000" stroke="rgb(154.25, 165.23, 202.51)"/>
<path d="M 61 26 L 49 26 L 48 19 z" fill="rgb(157.63, 168.25, 204.26)" opacity="1.000" stroke="rgb(157.63, 168.25, 204.26)"/>
<path d="M 54 39 L 49 26 L 61 26 z" fill="rgb(155.60, 166.44, 203.21)" opacity="1.000" stroke="rgb(155.60, 166.44, 203.21)"/>
<path d="M 49 26 L 38 31 L 48 19 z" fill="rgb(165.40, 175.20, 208.30)" opacity="1.000" stroke="rgb(165.40, 175.20, 208.30)"/>
<path d="M 108 109 L 91 108 L 107 96 z" fill="rgb(107.64, 123.52, 178.28)" opacity="1.000" stroke="rgb(107.64, 123.52, 178.28)"/>
<path d="M 87 111 L 91 108 L 108 109 z" fill="rgb(114.40, 129.56, 181.79)" opacity="1.000" stroke="rgb(114.40, 129.56, 181.79)"/>
<path d="M 91 108 L 91 81 L 107 96 z" fill="rgb(113.38, 128.66, 181.26)" opacity="1.000" stroke="rgb(113.38, 128.66, 181.26)"/>
<path d="M 91 108 L 70 106 L 91 81 z" fill="rgb(125.88, 139.84, 187.76)" opacity="1.000" stroke="rgb(125.88, 139.84, 187.76)"/>
<path d="M 91 108 L 87 111 L 70 106 z" fill="rgb(127.23, 141.05, 188.46)" opacity="1.000" stroke="rgb(127.23, 141.05, 188.46)"/>
<path d="M 78 121 L 87 111 L 82 130 z" fill="rgb(127.57, 141.35, 188.64)" opacity="1.000" stroke="rgb(127.57, 141.35, 188.64)"/>
<path d="M 87 111 L 78 121 L 70 106 z" fill="rgb(131.62, 144.98, 190.74)" opacity="1.000" stroke="rgb(131.62, 144.98, 190.74)"/>
<path d="M 78 121 L 70 121 L 70 106 z" fill="rgb(137.36, 150.12, 193.73)" opacity="1.000" stroke="rgb(137.36, 150.12, 193.73)"/>
<path d="M 22 22 L 24 29 L 19 21 z" fill="rgb(189.04, 196.36, 220.59)" opacity="1.000" stroke="rgb(189.04, 196.36, 220.59)"/>
<path d="M 23 12 L 22 22 L 19 21 z" fill="rgb(189.38, 196.66, 220.76)" opacity="1.000" stroke="rgb(189.38, 196.66, 220.76)"/>
<path d="M 22 22 L 23 12 L 25 23 z" fill="rgb(187.36, 194.84, 219.71)" opacity="1.000" stroke="rgb(187.36, 194.84, 219.71)"/>
<path d="M 24 29 L 22 22 L 26 25 z" fill="rgb(186.68, 194.24, 219.36)" opacity="1.000" stroke="rgb(186.68, 194.24, 219.36)"/>
<path d="M 22 22 L 25 23 L 26 25 z" fill="rgb(186.34, 193.94, 219.18)" opacity="1.000" stroke="rgb(186.34, 193.94, 219.18)"/>
<path d="M 50 40 L 53 48 L 41 47 z" fill="rgb(162.36, 172.48, 206.72)" opacity="1.000" stroke="rgb(162.36, 172.48, 206.72)"/>
<path d="M 50 40 L 52 41 L 53 48 z" fill="rgb(158.64, 169.16, 204.79)" opacity="1.000" stroke="rgb(158.64, 169.16, 204.79)"/>
<path d="M 38 31 L 50 40 L 41 47 z" fill="rgb(167.43, 177.01, 209.35)" opacity="1.000" stroke="rgb(167.43, 177.01, 209.35)"/>
<path d="M 49 26 L 50 40 L 38 31 z" fill="rgb(164.72, 174.60, 207.95)" opacity="1.000" stroke="rgb(164.72, 174.60, 207.95)"/>
<path d="M 52 41 L 50 40 L 54 39 z" fill="rgb(158.31, 168.85, 204.61)" opacity="1.000" stroke="rgb(158.31, 168.85, 204.61)"/>
<path d="M 50 40 L 49 26 L 54 39 z" fill="rgb(159.32, 169.76, 205.14)" opacity="1.000" stroke="rgb(159.32, 169.76, 205.14)"/>
<path d="M 68 126 L 71 123 L 82 130 z" fill="rgb(136.35, 149.21, 193.20)" opacity="1.000" stroke="rgb(136.35, 149.21, 193.20)"/>
<path d="M 71 123 L 78 121 L 82 130 z" fill="rgb(132.97, 146.19, 191.45)" opacity="1.000" stroke="rgb(132.97, 146.19, 191.45)"/>
<path d="M 78 121 L 71 123 L 70 121 z" fill="rgb(137.03, 149.81, 193.55)" opacity="1.000" stroke="rgb(137.03, 149.81, 193.55)"/>
<path d="M 71 123 L 68 126 L 66 123 z" fill="rgb(141.76, 154.04, 196.01)" opacity="1.000" stroke="rgb(141.76, 154.04, 196.01)"/>
<path d="M 70 121 L 71 123 L 66 123 z" fill="rgb(141.08, 153.44, 195.66)" opacity="1.000" stroke="rgb(141.08, 153.44, 195.66)"/>
 <text text-anchor="middle" font-size="20.0" class="sans" x="75.0" y="85.0" fill="black">ASIACRYPT</text>
</g></svg>
