<?xml version="1.0" encoding="utf-8"?>
<svg xmlns="http://www.w3.org/2000/svg" width="150" height="150"
     xmlns:xlink="http://www.w3.org/1999/xlink">
  <defs>
    <linearGradient id="bluegradient" x1="0" x2="0" y1="0" y2="1">
      <stop stop-color="#0E38FF" offset="0%"/>
      <stop stop-color="#729BFF" offset="10%"/>
      <stop stop-color="#f0f0ff" offset="100%"/>
    </linearGradient>
    <radialGradient id="circuitcolor">
      <stop stop-color="#80d0ff" offset="20%"/>
      <stop stop-color="#40a0ff" offset="100%"/>
    </radialGradient>
    <radialGradient id="wires" cx="25%" cy="50%" r="100%" fx="100%" fy="100%">
      <stop stop-color="#404080" offset="0%"/>
      <stop stop-color="#6080a0" offset="40%"/>
      <stop stop-color="#80a0c0" offset="100%"/>
    </radialGradient>
    <radialGradient id="blues">
       <stop offset="0%" stop-color="rgba(128,192,192,0.8)"/>
       <stop offset="30%" stop-color="rgba(65,192,225,0.5)"/>
       <stop offset="100%" stop-color="rgba(192,192,225,0.8)"/>
    </radialGradient>
    <radialGradient id="blues2">
       <stop offset="0%" stop-color="rgba(64,64,225,0.5)"/>
       <stop offset="50%" stop-color="rgba(92,92,225,0.8)"/>
       <stop offset="100%" stop-color="rgba(128,128,225,0.8)"/>
    </radialGradient>
  </defs>
  <style>
    .sans {font-family: Arial, Helvetica, sans-serif;}
  </style>
  <clipPath id="circle">
    <circle cx="75.0" cy="75.0" r="75.0"/>
  </clipPath>
  <!-- created with "circles.py -min=10 -colors=blues2 -num=100 -conf CRYPTO" -->
  <g clip-path="url(#circle)">
   
<path d="M 137 81 L 150 0 L 150 150 z" fill="#23c0f7" opacity="0.563" stroke="#f0f0f0"/>
<path d="M 77 14 L 19 13 L 0 0 z" fill="#2f94e2" opacity="0.548" stroke="#f0f0f0"/>
<path d="M 139 129 L 137 81 L 150 150 z" fill="#0052d0" opacity="0.621" stroke="#f0f0f0"/>
<path d="M 112 138 L 139 129 L 150 150 z" fill="#3fc7ef" opacity="0.580" stroke="#f0f0f0"/>
<path d="M 139 129 L 112 138 L 117 124 z" fill="#40c8ee" opacity="0.685" stroke="#f0f0f0"/>
<path d="M 137 81 L 135 55 L 150 0 z" fill="#30c3ee" opacity="0.763" stroke="#f0f0f0"/>
<path d="M 0 150 L 55 140 L 150 150 z" fill="#004acd" opacity="0.559" stroke="#f0f0f0"/>
<path d="M 55 140 L 51 123 L 68 138 z" fill="#218cde" opacity="0.501" stroke="#f0f0f0"/>
<path d="M 62 25 L 64 47 L 56 43 z" fill="#3fc7ef" opacity="0.554" stroke="#f0f0f0"/>
<path d="M 40 37 L 62 25 L 56 43 z" fill="#1b59d0" opacity="0.617" stroke="#f0f0f0"/>
<path d="M 87 37 L 62 25 L 77 14 z" fill="#1b55d2" opacity="0.555" stroke="#f0f0f0"/>
<path d="M 62 25 L 19 13 L 77 14 z" fill="#1977db" opacity="0.530" stroke="#f0f0f0"/>
<path d="M 62 25 L 40 37 L 19 13 z" fill="#1bd1d3" opacity="0.734" stroke="#f0f0f0"/>
<path d="M 51 123 L 26 96 L 57 88 z" fill="#56d7f6" opacity="0.521" stroke="#f0f0f0"/>
<path d="M 26 96 L 51 123 L 33 122 z" fill="#3cc5ef" opacity="0.596" stroke="#f0f0f0"/>
<path d="M 40 37 L 15 44 L 19 13 z" fill="#3fc7ef" opacity="0.800" stroke="#f0f0f0"/>
<path d="M 15 44 L 15 59 L 0 0 z" fill="#1977db" opacity="0.543" stroke="#f0f0f0"/>
<path d="M 19 13 L 15 44 L 0 0 z" fill="#1b59d0" opacity="0.638" stroke="#f0f0f0"/>
<path d="M 15 44 L 20 50 L 15 59 z" fill="#0046cc" opacity="0.549" stroke="#f0f0f0"/>
<path d="M 112 138 L 107 124 L 117 124 z" fill="#49cef1" opacity="0.539" stroke="#f0f0f0"/>
<path d="M 139 129 L 133 92 L 137 81 z" fill="#7677d5" opacity="0.671" stroke="#f0f0f0"/>
<path d="M 133 92 L 139 129 L 117 124 z" fill="#001ebe" opacity="0.532" stroke="#f0f0f0"/>
<path d="M 135 55 L 134 29 L 150 0 z" fill="#3cc5ef" opacity="0.732" stroke="#f0f0f0"/>
<path d="M 88 13 L 87 37 L 77 14 z" fill="#097bdb" opacity="0.502" stroke="#f0f0f0"/>
<path d="M 150 0 L 88 13 L 0 0 z" fill="#68d5f4" opacity="0.539" stroke="#f0f0f0"/>
<path d="M 88 13 L 77 14 L 0 0 z" fill="#0046cc" opacity="0.593" stroke="#f0f0f0"/>
<path d="M 30 132 L 55 140 L 0 150 z" fill="#0052d0" opacity="0.634" stroke="#f0f0f0"/>
<path d="M 66 53 L 77 50 L 81 67 z" fill="#3fc2ee" opacity="0.518" stroke="#f0f0f0"/>
<path d="M 18 123 L 12 117 L 33 122 z" fill="#1b59d0" opacity="0.587" stroke="#f0f0f0"/>
<path d="M 12 117 L 26 96 L 33 122 z" fill="#1bd1d3" opacity="0.554" stroke="#f0f0f0"/>
<path d="M 42 42 L 40 37 L 56 43 z" fill="#1b59d0" opacity="0.569" stroke="#f0f0f0"/>
<path d="M 107 124 L 104 112 L 117 124 z" fill="#0062d4" opacity="0.542" stroke="#f0f0f0"/>
<path d="M 104 112 L 133 92 L 117 124 z" fill="#30c3ee" opacity="0.518" stroke="#f0f0f0"/>
<path d="M 133 92 L 104 112 L 104 93 z" fill="#037edc" opacity="0.737" stroke="#f0f0f0"/>
<path d="M 102 138 L 107 124 L 112 138 z" fill="#1b59d0" opacity="0.519" stroke="#f0f0f0"/>
<path d="M 102 138 L 112 138 L 150 150 z" fill="#1c74d8" opacity="0.776" stroke="#f0f0f0"/>
<path d="M 121 15 L 128 18 L 123 26 z" fill="#30c3ee" opacity="0.742" stroke="#f0f0f0"/>
<path d="M 128 18 L 121 15 L 150 0 z" fill="#1c74d8" opacity="0.614" stroke="#f0f0f0"/>
<path d="M 88 13 L 102 28 L 87 37 z" fill="#8adcf2" opacity="0.541" stroke="#f0f0f0"/>
<path d="M 102 28 L 121 15 L 123 26 z" fill="#40c8ee" opacity="0.641" stroke="#f0f0f0"/>
<path d="M 134 29 L 122 45 L 123 26 z" fill="#7677d5" opacity="0.717" stroke="#f0f0f0"/>
<path d="M 122 45 L 134 29 L 135 55 z" fill="#004acd" opacity="0.509" stroke="#f0f0f0"/>
<path d="M 19 130 L 30 132 L 0 150 z" fill="#1c6edc" opacity="0.544" stroke="#f0f0f0"/>
<path d="M 12 117 L 19 130 L 0 150 z" fill="#1b55d0" opacity="0.676" stroke="#f0f0f0"/>
<path d="M 19 130 L 12 117 L 18 123 z" fill="#2f94e2" opacity="0.724" stroke="#f0f0f0"/>
<path d="M 33 128 L 18 123 L 33 122 z" fill="#1b59d0" opacity="0.777" stroke="#f0f0f0"/>
<path d="M 73 45 L 66 53 L 64 47 z" fill="#1b55d0" opacity="0.571" stroke="#f0f0f0"/>
<path d="M 73 45 L 77 50 L 66 53 z" fill="#1b59d0" opacity="0.510" stroke="#f0f0f0"/>
<path d="M 77 50 L 73 45 L 87 37 z" fill="#0046cc" opacity="0.598" stroke="#f0f0f0"/>
<path d="M 62 25 L 73 45 L 64 47 z" fill="#1935c4" opacity="0.729" stroke="#f0f0f0"/>
<path d="M 73 45 L 62 25 L 87 37 z" fill="#1977db" opacity="0.663" stroke="#f0f0f0"/>
<path d="M 36 79 L 32 83 L 36 71 z" fill="#0052d0" opacity="0.600" stroke="#f0f0f0"/>
<path d="M 32 83 L 30 65 L 36 71 z" fill="#3cc5ef" opacity="0.794" stroke="#f0f0f0"/>
<path d="M 44 64 L 37 65 L 35 61 z" fill="#1c74d8" opacity="0.543" stroke="#f0f0f0"/>
<path d="M 30 65 L 37 65 L 36 71 z" fill="#124dcf" opacity="0.602" stroke="#f0f0f0"/>
<path d="M 37 65 L 30 65 L 35 61 z" fill="#218cde" opacity="0.740" stroke="#f0f0f0"/>
<path d="M 58 71 L 66 53 L 81 67 z" fill="#004acd" opacity="0.710" stroke="#f0f0f0"/>
<path d="M 37 65 L 44 73 L 36 71 z" fill="#146ad9" opacity="0.701" stroke="#f0f0f0"/>
<path d="M 44 73 L 37 65 L 44 64 z" fill="#40c8ee" opacity="0.698" stroke="#f0f0f0"/>
<path d="M 58 71 L 44 73 L 44 64 z" fill="#0ea1e6" opacity="0.689" stroke="#f0f0f0"/>
<path d="M 44 73 L 58 71 L 57 88 z" fill="#1b55d0" opacity="0.705" stroke="#f0f0f0"/>
<path d="M 42 53 L 44 64 L 35 61 z" fill="#218cde" opacity="0.736" stroke="#f0f0f0"/>
<path d="M 29 53 L 42 53 L 35 61 z" fill="#3fc2ee" opacity="0.735" stroke="#f0f0f0"/>
<path d="M 42 53 L 29 53 L 42 42 z" fill="#5acff2" opacity="0.514" stroke="#f0f0f0"/>
<path d="M 91 122 L 104 112 L 107 124 z" fill="#1935c4" opacity="0.513" stroke="#f0f0f0"/>
<path d="M 70 115 L 51 123 L 57 88 z" fill="#2f94e2" opacity="0.511" stroke="#f0f0f0"/>
<path d="M 51 123 L 70 115 L 68 138 z" fill="#218cde" opacity="0.555" stroke="#f0f0f0"/>
<path d="M 102 138 L 94 127 L 107 124 z" fill="#1bd1d3" opacity="0.771" stroke="#f0f0f0"/>
<path d="M 94 127 L 91 122 L 107 124 z" fill="#23c0f7" opacity="0.768" stroke="#f0f0f0"/>
<path d="M 91 122 L 94 127 L 91 125 z" fill="#0167d6" opacity="0.548" stroke="#f0f0f0"/>
<path d="M 133 24 L 134 29 L 123 26 z" fill="#1a73d7" opacity="0.642" stroke="#f0f0f0"/>
<path d="M 128 18 L 133 24 L 123 26 z" fill="#0046cc" opacity="0.764" stroke="#f0f0f0"/>
<path d="M 134 29 L 133 24 L 150 0 z" fill="#3fc2ee" opacity="0.681" stroke="#f0f0f0"/>
<path d="M 133 24 L 128 18 L 150 0 z" fill="#1b59d0" opacity="0.645" stroke="#f0f0f0"/>
<path d="M 102 66 L 93 78 L 81 67 z" fill="#1a73d7" opacity="0.558" stroke="#f0f0f0"/>
<path d="M 93 78 L 75 87 L 81 67 z" fill="#0067d4" opacity="0.571" stroke="#f0f0f0"/>
<path d="M 75 87 L 93 78 L 104 93 z" fill="#5acff2" opacity="0.774" stroke="#f0f0f0"/>
<path d="M 96 53 L 77 50 L 87 37 z" fill="#124dcf" opacity="0.576" stroke="#f0f0f0"/>
<path d="M 77 50 L 96 53 L 81 67 z" fill="#1b55d0" opacity="0.662" stroke="#f0f0f0"/>
<path d="M 133 92 L 133 81 L 137 81 z" fill="#004acd" opacity="0.675" stroke="#f0f0f0"/>
<path d="M 123 78 L 133 81 L 133 92 z" fill="#1c74d8" opacity="0.639" stroke="#f0f0f0"/>
<path d="M 133 81 L 132 73 L 137 81 z" fill="#0046cc" opacity="0.761" stroke="#f0f0f0"/>
<path d="M 132 73 L 133 81 L 129 72 z" fill="#1935c4" opacity="0.682" stroke="#f0f0f0"/>
<path d="M 133 81 L 123 78 L 129 72 z" fill="#3cc5ef" opacity="0.585" stroke="#f0f0f0"/>
<path d="M 112 85 L 133 92 L 104 93 z" fill="#66ddf5" opacity="0.603" stroke="#f0f0f0"/>
<path d="M 112 85 L 123 78 L 133 92 z" fill="#66ddf5" opacity="0.611" stroke="#f0f0f0"/>
<path d="M 102 28 L 99 14 L 121 15 z" fill="#0052d0" opacity="0.507" stroke="#f0f0f0"/>
<path d="M 99 14 L 102 28 L 88 13 z" fill="#8adcf2" opacity="0.556" stroke="#f0f0f0"/>
<path d="M 121 15 L 99 14 L 150 0 z" fill="#1b55d2" opacity="0.644" stroke="#f0f0f0"/>
<path d="M 99 14 L 88 13 L 150 0 z" fill="#0062d4" opacity="0.581" stroke="#f0f0f0"/>
<path d="M 122 45 L 128 61 L 114 45 z" fill="#1b59d0" opacity="0.699" stroke="#f0f0f0"/>
<path d="M 128 61 L 122 45 L 135 55 z" fill="#49cef1" opacity="0.799" stroke="#f0f0f0"/>
<path d="M 33 128 L 43 129 L 30 132 z" fill="#40c8ee" opacity="0.709" stroke="#f0f0f0"/>
<path d="M 51 123 L 43 129 L 33 122 z" fill="#0ea1e6" opacity="0.761" stroke="#f0f0f0"/>
<path d="M 43 129 L 33 128 L 33 122 z" fill="#66ddf5" opacity="0.709" stroke="#f0f0f0"/>
<path d="M 26 96 L 27 91 L 57 88 z" fill="#1b59d0" opacity="0.686" stroke="#f0f0f0"/>
<path d="M 27 91 L 32 83 L 57 88 z" fill="#1b55d2" opacity="0.595" stroke="#f0f0f0"/>
<path d="M 16 98 L 27 91 L 26 96 z" fill="#56d7f6" opacity="0.612" stroke="#f0f0f0"/>
<path d="M 12 117 L 10 111 L 26 96 z" fill="#1a73d7" opacity="0.773" stroke="#f0f0f0"/>
<path d="M 10 111 L 16 98 L 26 96 z" fill="#0067d4" opacity="0.575" stroke="#f0f0f0"/>
<path d="M 16 98 L 10 111 L 15 59 z" fill="#0245ca" opacity="0.558" stroke="#f0f0f0"/>
<path d="M 10 111 L 12 117 L 0 150 z" fill="#66ddf5" opacity="0.701" stroke="#f0f0f0"/>
<path d="M 10 111 L 0 150 L 0 0 z" fill="#8adcf2" opacity="0.630" stroke="#f0f0f0"/>
<path d="M 15 59 L 10 111 L 0 0 z" fill="#0062d4" opacity="0.605" stroke="#f0f0f0"/>
<path d="M 30 65 L 27 63 L 35 61 z" fill="#1b55d2" opacity="0.611" stroke="#f0f0f0"/>
<path d="M 27 63 L 29 53 L 35 61 z" fill="#49cef1" opacity="0.542" stroke="#f0f0f0"/>
<path d="M 42 77 L 36 79 L 36 71 z" fill="#30c3ee" opacity="0.543" stroke="#f0f0f0"/>
<path d="M 44 73 L 42 77 L 36 71 z" fill="#1b55d2" opacity="0.789" stroke="#f0f0f0"/>
<path d="M 42 77 L 44 73 L 57 88 z" fill="#0167d6" opacity="0.600" stroke="#f0f0f0"/>
<path d="M 32 83 L 42 77 L 57 88 z" fill="#5acff2" opacity="0.647" stroke="#f0f0f0"/>
<path d="M 42 77 L 32 83 L 36 79 z" fill="#0167d6" opacity="0.549" stroke="#f0f0f0"/>
<path d="M 42 53 L 50 54 L 44 64 z" fill="#0167d6" opacity="0.559" stroke="#f0f0f0"/>
<path d="M 58 71 L 50 54 L 66 53 z" fill="#68d5f4" opacity="0.638" stroke="#f0f0f0"/>
<path d="M 50 54 L 58 71 L 44 64 z" fill="#49cef1" opacity="0.608" stroke="#f0f0f0"/>
<path d="M 64 47 L 50 54 L 56 43 z" fill="#0067d4" opacity="0.786" stroke="#f0f0f0"/>
<path d="M 66 53 L 50 54 L 64 47 z" fill="#0245ca" opacity="0.776" stroke="#f0f0f0"/>
<path d="M 50 54 L 42 42 L 56 43 z" fill="#56d7f6" opacity="0.545" stroke="#f0f0f0"/>
<path d="M 50 54 L 42 53 L 42 42 z" fill="#8adcf2" opacity="0.519" stroke="#f0f0f0"/>
<path d="M 91 122 L 95 110 L 104 112 z" fill="#011fbf" opacity="0.649" stroke="#f0f0f0"/>
<path d="M 95 110 L 91 122 L 76 112 z" fill="#7677d5" opacity="0.794" stroke="#f0f0f0"/>
<path d="M 66 86 L 75 87 L 76 112 z" fill="#0ea1e6" opacity="0.599" stroke="#f0f0f0"/>
<path d="M 66 86 L 70 115 L 57 88 z" fill="#20a8e6" opacity="0.783" stroke="#f0f0f0"/>
<path d="M 70 115 L 66 86 L 76 112 z" fill="#89dbf3" opacity="0.728" stroke="#f0f0f0"/>
<path d="M 58 71 L 66 86 L 57 88 z" fill="#23c0f7" opacity="0.580" stroke="#f0f0f0"/>
<path d="M 66 86 L 58 71 L 81 67 z" fill="#0062d4" opacity="0.542" stroke="#f0f0f0"/>
<path d="M 75 87 L 66 86 L 81 67 z" fill="#0067d4" opacity="0.544" stroke="#f0f0f0"/>
<path d="M 79 133 L 70 115 L 76 112 z" fill="#49cef1" opacity="0.666" stroke="#f0f0f0"/>
<path d="M 79 133 L 91 122 L 91 125 z" fill="#44b8e9" opacity="0.552" stroke="#f0f0f0"/>
<path d="M 91 122 L 79 133 L 76 112 z" fill="#23c0f7" opacity="0.713" stroke="#f0f0f0"/>
<path d="M 70 115 L 79 133 L 68 138 z" fill="#1a73d7" opacity="0.557" stroke="#f0f0f0"/>
<path d="M 102 66 L 97 54 L 114 45 z" fill="#1b59d0" opacity="0.527" stroke="#f0f0f0"/>
<path d="M 97 54 L 102 66 L 81 67 z" fill="#2f94e2" opacity="0.530" stroke="#f0f0f0"/>
<path d="M 96 53 L 97 54 L 81 67 z" fill="#1c74d8" opacity="0.618" stroke="#f0f0f0"/>
<path d="M 107 76 L 93 78 L 102 66 z" fill="#68d5f4" opacity="0.565" stroke="#f0f0f0"/>
<path d="M 93 78 L 107 76 L 104 93 z" fill="#49cef1" opacity="0.783" stroke="#f0f0f0"/>
<path d="M 107 76 L 112 85 L 104 93 z" fill="#66ddf5" opacity="0.704" stroke="#f0f0f0"/>
<path d="M 132 67 L 132 73 L 129 72 z" fill="#037edc" opacity="0.650" stroke="#f0f0f0"/>
<path d="M 132 67 L 128 61 L 135 55 z" fill="#037edc" opacity="0.755" stroke="#f0f0f0"/>
<path d="M 132 67 L 135 55 L 137 81 z" fill="#097bdb" opacity="0.589" stroke="#f0f0f0"/>
<path d="M 132 73 L 132 67 L 137 81 z" fill="#1a73d7" opacity="0.720" stroke="#f0f0f0"/>
<path d="M 30 132 L 48 131 L 55 140 z" fill="#0167d6" opacity="0.648" stroke="#f0f0f0"/>
<path d="M 43 129 L 48 131 L 30 132 z" fill="#44b8e9" opacity="0.730" stroke="#f0f0f0"/>
<path d="M 48 131 L 51 123 L 55 140 z" fill="#3cc5ef" opacity="0.566" stroke="#f0f0f0"/>
<path d="M 48 131 L 43 129 L 51 123 z" fill="#0062d4" opacity="0.528" stroke="#f0f0f0"/>
<path d="M 28 85 L 16 98 L 15 59 z" fill="#218cde" opacity="0.543" stroke="#f0f0f0"/>
<path d="M 28 85 L 27 91 L 16 98 z" fill="#097bdb" opacity="0.730" stroke="#f0f0f0"/>
<path d="M 27 91 L 28 85 L 32 83 z" fill="#097bdb" opacity="0.796" stroke="#f0f0f0"/>
<path d="M 27 63 L 28 85 L 15 59 z" fill="#1935c4" opacity="0.779" stroke="#f0f0f0"/>
<path d="M 32 83 L 28 85 L 30 65 z" fill="#0051ce" opacity="0.672" stroke="#f0f0f0"/>
<path d="M 28 85 L 27 63 L 30 65 z" fill="#89dbf3" opacity="0.784" stroke="#f0f0f0"/>
<path d="M 27 63 L 27 52 L 29 53 z" fill="#0052d0" opacity="0.587" stroke="#f0f0f0"/>
<path d="M 20 50 L 27 52 L 15 59 z" fill="#011fbf" opacity="0.794" stroke="#f0f0f0"/>
<path d="M 27 52 L 27 63 L 15 59 z" fill="#0062d4" opacity="0.771" stroke="#f0f0f0"/>
<path d="M 27 52 L 15 44 L 40 37 z" fill="#1c6edc" opacity="0.629" stroke="#f0f0f0"/>
<path d="M 27 52 L 20 50 L 15 44 z" fill="#7677d5" opacity="0.736" stroke="#f0f0f0"/>
<path d="M 42 42 L 27 52 L 40 37 z" fill="#1b55d2" opacity="0.559" stroke="#f0f0f0"/>
<path d="M 29 53 L 27 52 L 42 42 z" fill="#037edc" opacity="0.581" stroke="#f0f0f0"/>
<path d="M 75 87 L 97 107 L 76 112 z" fill="#68d5f4" opacity="0.692" stroke="#f0f0f0"/>
<path d="M 97 107 L 95 110 L 76 112 z" fill="#1935c4" opacity="0.611" stroke="#f0f0f0"/>
<path d="M 97 107 L 75 87 L 104 93 z" fill="#001ebe" opacity="0.665" stroke="#f0f0f0"/>
<path d="M 104 112 L 97 107 L 104 93 z" fill="#0046cc" opacity="0.575" stroke="#f0f0f0"/>
<path d="M 95 110 L 97 107 L 104 112 z" fill="#004acd" opacity="0.723" stroke="#f0f0f0"/>
<path d="M 90 138 L 94 127 L 102 138 z" fill="#001ebe" opacity="0.576" stroke="#f0f0f0"/>
<path d="M 79 133 L 90 138 L 68 138 z" fill="#1bd1d3" opacity="0.670" stroke="#f0f0f0"/>
<path d="M 94 127 L 90 138 L 91 125 z" fill="#8adcf2" opacity="0.592" stroke="#f0f0f0"/>
<path d="M 90 138 L 79 133 L 91 125 z" fill="#66ddf5" opacity="0.557" stroke="#f0f0f0"/>
<path d="M 90 138 L 55 140 L 68 138 z" fill="#218cde" opacity="0.678" stroke="#f0f0f0"/>
<path d="M 55 140 L 90 138 L 150 150 z" fill="#1b59d0" opacity="0.515" stroke="#f0f0f0"/>
<path d="M 90 138 L 102 138 L 150 150 z" fill="#89dbf3" opacity="0.587" stroke="#f0f0f0"/>
<path d="M 102 28 L 99 38 L 87 37 z" fill="#5acff2" opacity="0.727" stroke="#f0f0f0"/>
<path d="M 99 38 L 96 53 L 87 37 z" fill="#30c3ee" opacity="0.674" stroke="#f0f0f0"/>
<path d="M 99 38 L 102 42 L 96 53 z" fill="#218cde" opacity="0.530" stroke="#f0f0f0"/>
<path d="M 112 85 L 111 79 L 123 78 z" fill="#1b59d0" opacity="0.765" stroke="#f0f0f0"/>
<path d="M 107 76 L 111 79 L 112 85 z" fill="#21c3f2" opacity="0.715" stroke="#f0f0f0"/>
<path d="M 128 69 L 132 67 L 129 72 z" fill="#011fbf" opacity="0.791" stroke="#f0f0f0"/>
<path d="M 132 67 L 128 69 L 128 61 z" fill="#0052d0" opacity="0.791" stroke="#f0f0f0"/>
<path d="M 113 44 L 102 28 L 123 26 z" fill="#1bd1d3" opacity="0.768" stroke="#f0f0f0"/>
<path d="M 113 44 L 108 43 L 102 28 z" fill="#5acff2" opacity="0.786" stroke="#f0f0f0"/>
<path d="M 122 45 L 113 44 L 123 26 z" fill="#0062d4" opacity="0.654" stroke="#f0f0f0"/>
<path d="M 113 44 L 122 45 L 114 45 z" fill="#097bdb" opacity="0.773" stroke="#f0f0f0"/>
<path d="M 106 44 L 97 54 L 96 53 z" fill="#0067d4" opacity="0.737" stroke="#f0f0f0"/>
<path d="M 102 42 L 106 44 L 96 53 z" fill="#3cc5ef" opacity="0.676" stroke="#f0f0f0"/>
<path d="M 97 54 L 106 44 L 114 45 z" fill="#011fbf" opacity="0.761" stroke="#f0f0f0"/>
<path d="M 99 38 L 105 42 L 102 42 z" fill="#1b59d0" opacity="0.745" stroke="#f0f0f0"/>
<path d="M 106 44 L 105 42 L 108 43 z" fill="#1977db" opacity="0.648" stroke="#f0f0f0"/>
<path d="M 105 42 L 106 44 L 102 42 z" fill="#004acd" opacity="0.749" stroke="#f0f0f0"/>
<path d="M 108 43 L 105 42 L 102 28 z" fill="#0067d4" opacity="0.723" stroke="#f0f0f0"/>
<path d="M 105 42 L 99 38 L 102 28 z" fill="#0052d0" opacity="0.555" stroke="#f0f0f0"/>
<path d="M 119 72 L 111 79 L 107 76 z" fill="#30c3ee" opacity="0.789" stroke="#f0f0f0"/>
<path d="M 119 72 L 107 76 L 102 66 z" fill="#3cc5ef" opacity="0.657" stroke="#f0f0f0"/>
<path d="M 111 79 L 119 72 L 123 78 z" fill="#1b59d0" opacity="0.513" stroke="#f0f0f0"/>
<path d="M 128 69 L 119 72 L 128 61 z" fill="#0052d0" opacity="0.631" stroke="#f0f0f0"/>
<path d="M 123 78 L 119 72 L 129 72 z" fill="#68d5f4" opacity="0.640" stroke="#f0f0f0"/>
<path d="M 119 72 L 128 69 L 129 72 z" fill="#0052d0" opacity="0.680" stroke="#f0f0f0"/>
<path d="M 119 72 L 102 66 L 114 45 z" fill="#3fc7ef" opacity="0.572" stroke="#f0f0f0"/>
<path d="M 128 61 L 119 72 L 114 45 z" fill="#3cc5ef" opacity="0.547" stroke="#f0f0f0"/>
<path d="M 19 130 L 33 128 L 30 132 z" fill="#1bd1d3" opacity="0.662" stroke="#f0f0f0"/>
<path d="M 33 128 L 19 130 L 18 123 z" fill="#0167d6" opacity="0.655" stroke="#f0f0f0"/>
<path d="M 113 44 L 106 44 L 108 43 z" fill="#1b55d0" opacity="0.646" stroke="#f0f0f0"/>
<path d="M 106 44 L 113 44 L 114 45 z" fill="#66ddf5" opacity="0.666" stroke="#f0f0f0"/>
 <text text-anchor="middle" font-size="30.0" class="sans" x="75.0" y="90.0" fill="black">CRYPTO</text>
</g></svg>
