<?xml version="1.0" encoding="utf-8"?>
<svg xmlns="http://www.w3.org/2000/svg" width="150" height="150"
     xmlns:xlink="http://www.w3.org/1999/xlink">
  <defs>
    <linearGradient id="bluegradient" x1="0" x2="0" y1="0" y2="1">
      <stop stop-color="#0E38FF" offset="0%"/>
      <stop stop-color="#729BFF" offset="10%"/>
      <stop stop-color="#f0f0ff" offset="100%"/>
    </linearGradient>
    <radialGradient id="circuitcolor">
      <stop stop-color="#80d0ff" offset="20%"/>
      <stop stop-color="#40a0ff" offset="100%"/>
    </radialGradient>
    <radialGradient id="wires" cx="25%" cy="50%" r="100%" fx="100%" fy="100%">
      <stop stop-color="#404080" offset="0%"/>
      <stop stop-color="#6080a0" offset="40%"/>
      <stop stop-color="#80a0c0" offset="100%"/>
    </radialGradient>
    <radialGradient id="blues">
       <stop offset="0%" stop-color="rgba(128,192,192,0.8)"/>
       <stop offset="30%" stop-color="rgba(65,192,225,0.5)"/>
       <stop offset="100%" stop-color="rgba(192,192,225,0.8)"/>
    </radialGradient>
    <radialGradient id="blues2">
       <stop offset="0%" stop-color="rgba(64,64,225,0.5)"/>
       <stop offset="50%" stop-color="rgba(92,92,225,0.8)"/>
       <stop offset="100%" stop-color="rgba(128,128,225,0.8)"/>
    </radialGradient>
    <filter id="shadow">
       <feDropShadow dx="4" dy="8" stdDeviation="4"/>
    </filter>
  </defs>
  <style>
    .sans {font-family: Arial, Helvetica, sans-serif;}
  </style>
  <!-- created with "logos.py -min=10 -colors=gradient -num=100 -conf CHES" -->
   
<path d="M 0 150 L 75 136 L 150 150 z" fill="rgb(135.00, 148.00, 192.50)" opacity="1.000" stroke="rgb(135.00, 148.00, 192.50)"/>
<path d="M 150 0 L 63 10 L 0 0 z" fill="rgb(139.05, 151.63, 194.61)" opacity="1.000" stroke="rgb(139.05, 151.63, 194.61)"/>
<path d="M 83 17 L 58 27 L 63 10 z" fill="rgb(142.09, 154.35, 196.19)" opacity="1.000" stroke="rgb(142.09, 154.35, 196.19)"/>
<path d="M 75 136 L 127 130 L 150 150 z" fill="rgb(92.10, 109.62, 170.20)" opacity="1.000" stroke="rgb(92.10, 109.62, 170.20)"/>
<path d="M 132 118 L 137 73 L 150 150 z" fill="rgb(69.47, 89.37, 158.44)" opacity="1.000" stroke="rgb(69.47, 89.37, 158.44)"/>
<path d="M 127 130 L 132 118 L 150 150 z" fill="rgb(72.85, 92.39, 160.20)" opacity="1.000" stroke="rgb(72.85, 92.39, 160.20)"/>
<path d="M 132 118 L 127 130 L 126 115 z" fill="rgb(80.96, 99.64, 164.41)" opacity="1.000" stroke="rgb(80.96, 99.64, 164.41)"/>
<path d="M 38 82 L 11 98 L 17 73 z" fill="rgb(188.71, 196.05, 220.41)" opacity="1.000" stroke="rgb(188.71, 196.05, 220.41)"/>
<path d="M 107 46 L 96 46 L 89 24 z" fill="rgb(112.37, 127.75, 180.74)" opacity="1.000" stroke="rgb(112.37, 127.75, 180.74)"/>
<path d="M 138 39 L 140 10 L 150 0 z" fill="rgb(66.43, 86.65, 156.86)" opacity="1.000" stroke="rgb(66.43, 86.65, 156.86)"/>
<path d="M 83 17 L 118 15 L 89 24 z" fill="rgb(113.04, 128.36, 181.09)" opacity="1.000" stroke="rgb(113.04, 128.36, 181.09)"/>
<path d="M 140 10 L 118 15 L 150 0 z" fill="rgb(73.19, 92.69, 160.37)" opacity="1.000" stroke="rgb(73.19, 92.69, 160.37)"/>
<path d="M 118 15 L 63 10 L 150 0 z" fill="rgb(99.20, 115.96, 173.89)" opacity="1.000" stroke="rgb(99.20, 115.96, 173.89)"/>
<path d="M 118 15 L 83 17 L 63 10 z" fill="rgb(121.83, 136.21, 185.65)" opacity="1.000" stroke="rgb(121.83, 136.21, 185.65)"/>
<path d="M 75 43 L 83 17 L 89 24 z" fill="rgb(127.57, 141.35, 188.64)" opacity="1.000" stroke="rgb(127.57, 141.35, 188.64)"/>
<path d="M 75 43 L 58 27 L 83 17 z" fill="rgb(138.04, 150.72, 194.08)" opacity="1.000" stroke="rgb(138.04, 150.72, 194.08)"/>
<path d="M 49 10 L 24 10 L 0 0 z" fill="rgb(186.34, 193.94, 219.18)" opacity="1.000" stroke="rgb(186.34, 193.94, 219.18)"/>
<path d="M 42 33 L 58 27 L 50 45 z" fill="rgb(160.33, 170.67, 205.67)" opacity="1.000" stroke="rgb(160.33, 170.67, 205.67)"/>
<path d="M 132 118 L 127 100 L 137 73 z" fill="rgb(77.24, 96.32, 162.48)" opacity="1.000" stroke="rgb(77.24, 96.32, 162.48)"/>
<path d="M 127 100 L 132 118 L 126 115 z" fill="rgb(80.96, 99.64, 164.41)" opacity="1.000" stroke="rgb(80.96, 99.64, 164.41)"/>
<path d="M 27 66 L 38 82 L 17 73 z" fill="rgb(183.30, 191.22, 217.60)" opacity="1.000" stroke="rgb(183.30, 191.22, 217.60)"/>
<path d="M 38 82 L 34 103 L 11 98 z" fill="rgb(182.96, 190.92, 217.43)" opacity="1.000" stroke="rgb(182.96, 190.92, 217.43)"/>
<path d="M 34 103 L 38 82 L 61 107 z" fill="rgb(166.08, 175.80, 208.65)" opacity="1.000" stroke="rgb(166.08, 175.80, 208.65)"/>
<path d="M 70 135 L 75 136 L 0 150 z" fill="rgb(162.02, 172.18, 206.54)" opacity="1.000" stroke="rgb(162.02, 172.18, 206.54)"/>
<path d="M 20 137 L 70 135 L 0 150 z" fill="rgb(180.60, 188.80, 216.20)" opacity="1.000" stroke="rgb(180.60, 188.80, 216.20)"/>
<path d="M 100 56 L 96 46 L 107 46 z" fill="rgb(108.65, 124.43, 178.81)" opacity="1.000" stroke="rgb(108.65, 124.43, 178.81)"/>
<path d="M 138 64 L 138 39 L 150 0 z" fill="rgb(67.11, 87.25, 157.21)" opacity="1.000" stroke="rgb(67.11, 87.25, 157.21)"/>
<path d="M 138 64 L 150 0 L 150 150 z" fill="rgb(63.05, 83.63, 155.11)" opacity="1.000" stroke="rgb(63.05, 83.63, 155.11)"/>
<path d="M 137 73 L 138 64 L 150 150 z" fill="rgb(67.44, 87.56, 157.39)" opacity="1.000" stroke="rgb(67.44, 87.56, 157.39)"/>
<path d="M 120 30 L 107 46 L 89 24 z" fill="rgb(104.26, 120.50, 176.52)" opacity="1.000" stroke="rgb(104.26, 120.50, 176.52)"/>
<path d="M 118 15 L 120 30 L 89 24 z" fill="rgb(100.55, 117.17, 174.59)" opacity="1.000" stroke="rgb(100.55, 117.17, 174.59)"/>
<path d="M 96 46 L 84 45 L 89 24 z" fill="rgb(120.14, 134.70, 184.78)" opacity="1.000" stroke="rgb(120.14, 134.70, 184.78)"/>
<path d="M 84 45 L 75 43 L 89 24 z" fill="rgb(127.23, 141.05, 188.46)" opacity="1.000" stroke="rgb(127.23, 141.05, 188.46)"/>
<path d="M 84 45 L 100 56 L 86 66 z" fill="rgb(119.80, 134.40, 184.60)" opacity="1.000" stroke="rgb(119.80, 134.40, 184.60)"/>
<path d="M 100 56 L 84 45 L 96 46 z" fill="rgb(116.42, 131.38, 182.84)" opacity="1.000" stroke="rgb(116.42, 131.38, 182.84)"/>
<path d="M 58 27 L 69 45 L 50 45 z" fill="rgb(151.21, 162.51, 200.93)" opacity="1.000" stroke="rgb(151.21, 162.51, 200.93)"/>
<path d="M 75 43 L 69 45 L 58 27 z" fill="rgb(142.77, 154.95, 196.54)" opacity="1.000" stroke="rgb(142.77, 154.95, 196.54)"/>
<path d="M 58 27 L 55 10 L 63 10 z" fill="rgb(151.55, 162.81, 201.10)" opacity="1.000" stroke="rgb(151.55, 162.81, 201.10)"/>
<path d="M 63 10 L 55 10 L 0 0 z" fill="rgb(171.14, 180.34, 211.28)" opacity="1.000" stroke="rgb(171.14, 180.34, 211.28)"/>
<path d="M 55 10 L 49 10 L 0 0 z" fill="rgb(175.87, 184.57, 213.74)" opacity="1.000" stroke="rgb(175.87, 184.57, 213.74)"/>
<path d="M 42 33 L 44 19 L 58 27 z" fill="rgb(162.36, 172.48, 206.72)" opacity="1.000" stroke="rgb(162.36, 172.48, 206.72)"/>
<path d="M 44 19 L 55 10 L 58 27 z" fill="rgb(157.97, 168.55, 204.44)" opacity="1.000" stroke="rgb(157.97, 168.55, 204.44)"/>
<path d="M 55 10 L 44 19 L 49 10 z" fill="rgb(161.01, 171.27, 206.02)" opacity="1.000" stroke="rgb(161.01, 171.27, 206.02)"/>
<path d="M 11 98 L 11 61 L 17 73 z" fill="rgb(197.83, 204.21, 225.15)" opacity="1.000" stroke="rgb(197.83, 204.21, 225.15)"/>
<path d="M 11 61 L 0 150 L 0 0 z" fill="rgb(207.28, 212.68, 230.07)" opacity="1.000" stroke="rgb(207.28, 212.68, 230.07)"/>
<path d="M 11 61 L 11 98 L 0 150 z" fill="rgb(203.57, 209.35, 228.14)" opacity="1.000" stroke="rgb(203.57, 209.35, 228.14)"/>
<path d="M 13 53 L 13 40 L 15 38 z" fill="rgb(197.15, 203.61, 224.80)" opacity="1.000" stroke="rgb(197.15, 203.61, 224.80)"/>
<path d="M 13 40 L 14 29 L 15 38 z" fill="rgb(196.81, 203.31, 224.63)" opacity="1.000" stroke="rgb(196.81, 203.31, 224.63)"/>
<path d="M 14 29 L 13 40 L 0 0 z" fill="rgb(201.88, 207.84, 227.26)" opacity="1.000" stroke="rgb(201.88, 207.84, 227.26)"/>
<path d="M 13 40 L 11 61 L 0 0 z" fill="rgb(202.89, 208.75, 227.79)" opacity="1.000" stroke="rgb(202.89, 208.75, 227.79)"/>
<path d="M 11 61 L 13 40 L 13 53 z" fill="rgb(198.50, 204.82, 225.50)" opacity="1.000" stroke="rgb(198.50, 204.82, 225.50)"/>
<path d="M 22 20 L 14 29 L 0 0 z" fill="rgb(198.84, 205.12, 225.68)" opacity="1.000" stroke="rgb(198.84, 205.12, 225.68)"/>
<path d="M 24 10 L 22 20 L 0 0 z" fill="rgb(195.46, 202.10, 223.92)" opacity="1.000" stroke="rgb(195.46, 202.10, 223.92)"/>
<path d="M 22 20 L 24 10 L 24 16 z" fill="rgb(187.36, 194.84, 219.71)" opacity="1.000" stroke="rgb(187.36, 194.84, 219.71)"/>
<path d="M 127 100 L 129 85 L 137 73 z" fill="rgb(78.25, 97.23, 163.01)" opacity="1.000" stroke="rgb(78.25, 97.23, 163.01)"/>
<path d="M 99 79 L 87 90 L 86 66 z" fill="rgb(119.12, 133.80, 184.25)" opacity="1.000" stroke="rgb(119.12, 133.80, 184.25)"/>
<path d="M 134 45 L 121 68 L 107 46 z" fill="rgb(88.72, 106.60, 168.45)" opacity="1.000" stroke="rgb(88.72, 106.60, 168.45)"/>
<path d="M 138 64 L 134 45 L 138 39 z" fill="rgb(72.51, 92.09, 160.02)" opacity="1.000" stroke="rgb(72.51, 92.09, 160.02)"/>
<path d="M 106 74 L 99 79 L 86 66 z" fill="rgb(112.71, 128.05, 180.91)" opacity="1.000" stroke="rgb(112.71, 128.05, 180.91)"/>
<path d="M 100 56 L 106 74 L 86 66 z" fill="rgb(112.37, 127.75, 180.74)" opacity="1.000" stroke="rgb(112.37, 127.75, 180.74)"/>
<path d="M 34 103 L 25 110 L 11 98 z" fill="rgb(187.36, 194.84, 219.71)" opacity="1.000" stroke="rgb(187.36, 194.84, 219.71)"/>
<path d="M 25 110 L 22 127 L 11 98 z" fill="rgb(191.41, 198.47, 221.82)" opacity="1.000" stroke="rgb(191.41, 198.47, 221.82)"/>
<path d="M 11 98 L 22 127 L 0 150 z" fill="rgb(199.85, 206.03, 226.21)" opacity="1.000" stroke="rgb(199.85, 206.03, 226.21)"/>
<path d="M 22 127 L 20 137 L 0 150 z" fill="rgb(196.81, 203.31, 224.63)" opacity="1.000" stroke="rgb(196.81, 203.31, 224.63)"/>
<path d="M 20 137 L 22 127 L 22 129 z" fill="rgb(189.38, 196.66, 220.76)" opacity="1.000" stroke="rgb(189.38, 196.66, 220.76)"/>
<path d="M 64 130 L 47 124 L 61 107 z" fill="rgb(152.90, 164.02, 201.80)" opacity="1.000" stroke="rgb(152.90, 164.02, 201.80)"/>
<path d="M 47 124 L 34 103 L 61 107 z" fill="rgb(163.04, 173.08, 207.07)" opacity="1.000" stroke="rgb(163.04, 173.08, 207.07)"/>
<path d="M 38 45 L 45 46 L 27 66 z" fill="rgb(173.84, 182.76, 212.69)" opacity="1.000" stroke="rgb(173.84, 182.76, 212.69)"/>
<path d="M 45 46 L 42 33 L 50 45 z" fill="rgb(164.72, 174.60, 207.95)" opacity="1.000" stroke="rgb(164.72, 174.60, 207.95)"/>
<path d="M 45 46 L 38 45 L 42 33 z" fill="rgb(168.78, 178.22, 210.06)" opacity="1.000" stroke="rgb(168.78, 178.22, 210.06)"/>
<path d="M 45 46 L 44 73 L 27 66 z" fill="rgb(171.82, 180.94, 211.64)" opacity="1.000" stroke="rgb(171.82, 180.94, 211.64)"/>
<path d="M 129 28 L 118 15 L 140 10 z" fill="rgb(80.28, 99.04, 164.06)" opacity="1.000" stroke="rgb(80.28, 99.04, 164.06)"/>
<path d="M 75 50 L 84 45 L 86 66 z" fill="rgb(128.24, 141.96, 188.99)" opacity="1.000" stroke="rgb(128.24, 141.96, 188.99)"/>
<path d="M 84 45 L 75 50 L 75 43 z" fill="rgb(131.96, 145.28, 190.92)" opacity="1.000" stroke="rgb(131.96, 145.28, 190.92)"/>
<path d="M 64 62 L 75 50 L 86 66 z" fill="rgb(135.00, 148.00, 192.50)" opacity="1.000" stroke="rgb(135.00, 148.00, 192.50)"/>
<path d="M 75 50 L 69 45 L 75 43 z" fill="rgb(137.03, 149.81, 193.55)" opacity="1.000" stroke="rgb(137.03, 149.81, 193.55)"/>
<path d="M 69 45 L 75 50 L 64 62 z" fill="rgb(140.74, 153.14, 195.48)" opacity="1.000" stroke="rgb(140.74, 153.14, 195.48)"/>
<path d="M 69 45 L 58 59 L 50 45 z" fill="rgb(151.21, 162.51, 200.93)" opacity="1.000" stroke="rgb(151.21, 162.51, 200.93)"/>
<path d="M 58 59 L 69 45 L 64 62 z" fill="rgb(146.48, 158.28, 198.47)" opacity="1.000" stroke="rgb(146.48, 158.28, 198.47)"/>
<path d="M 58 59 L 45 46 L 50 45 z" fill="rgb(159.32, 169.76, 205.14)" opacity="1.000" stroke="rgb(159.32, 169.76, 205.14)"/>
<path d="M 58 59 L 44 73 L 45 46 z" fill="rgb(161.35, 171.57, 206.19)" opacity="1.000" stroke="rgb(161.35, 171.57, 206.19)"/>
<path d="M 14 29 L 30 31 L 15 38 z" fill="rgb(191.07, 198.17, 221.64)" opacity="1.000" stroke="rgb(191.07, 198.17, 221.64)"/>
<path d="M 22 20 L 30 31 L 14 29 z" fill="rgb(188.71, 196.05, 220.41)" opacity="1.000" stroke="rgb(188.71, 196.05, 220.41)"/>
<path d="M 30 31 L 22 20 L 24 16 z" fill="rgb(185.33, 193.03, 218.66)" opacity="1.000" stroke="rgb(185.33, 193.03, 218.66)"/>
<path d="M 30 35 L 13 53 L 15 38 z" fill="rgb(191.41, 198.47, 221.82)" opacity="1.000" stroke="rgb(191.41, 198.47, 221.82)"/>
<path d="M 30 35 L 38 45 L 13 53 z" fill="rgb(183.64, 191.52, 217.78)" opacity="1.000" stroke="rgb(183.64, 191.52, 217.78)"/>
<path d="M 30 31 L 30 35 L 15 38 z" fill="rgb(185.67, 193.33, 218.83)" opacity="1.000" stroke="rgb(185.67, 193.33, 218.83)"/>
<path d="M 38 45 L 30 35 L 42 33 z" fill="rgb(173.84, 182.76, 212.69)" opacity="1.000" stroke="rgb(173.84, 182.76, 212.69)"/>
<path d="M 30 35 L 30 31 L 42 33 z" fill="rgb(176.55, 185.17, 214.09)" opacity="1.000" stroke="rgb(176.55, 185.17, 214.09)"/>
<path d="M 38 45 L 22 64 L 13 53 z" fill="rgb(186.34, 193.94, 219.18)" opacity="1.000" stroke="rgb(186.34, 193.94, 219.18)"/>
<path d="M 22 64 L 38 45 L 27 66 z" fill="rgb(181.61, 189.71, 216.73)" opacity="1.000" stroke="rgb(181.61, 189.71, 216.73)"/>
<path d="M 22 64 L 11 61 L 13 53 z" fill="rgb(195.46, 202.10, 223.92)" opacity="1.000" stroke="rgb(195.46, 202.10, 223.92)"/>
<path d="M 22 64 L 27 66 L 17 73 z" fill="rgb(188.71, 196.05, 220.41)" opacity="1.000" stroke="rgb(188.71, 196.05, 220.41)"/>
<path d="M 11 61 L 22 64 L 17 73 z" fill="rgb(194.11, 200.89, 223.22)" opacity="1.000" stroke="rgb(194.11, 200.89, 223.22)"/>
<path d="M 131 69 L 138 64 L 137 73 z" fill="rgb(73.86, 93.30, 160.72)" opacity="1.000" stroke="rgb(73.86, 93.30, 160.72)"/>
<path d="M 134 45 L 131 69 L 121 68 z" fill="rgb(80.62, 99.34, 164.24)" opacity="1.000" stroke="rgb(80.62, 99.34, 164.24)"/>
<path d="M 131 69 L 134 45 L 138 64 z" fill="rgb(74.88, 94.20, 161.25)" opacity="1.000" stroke="rgb(74.88, 94.20, 161.25)"/>
<path d="M 131 69 L 127 78 L 121 68 z" fill="rgb(82.98, 101.46, 165.46)" opacity="1.000" stroke="rgb(82.98, 101.46, 165.46)"/>
<path d="M 129 85 L 127 78 L 137 73 z" fill="rgb(78.25, 97.23, 163.01)" opacity="1.000" stroke="rgb(78.25, 97.23, 163.01)"/>
<path d="M 127 78 L 131 69 L 137 73 z" fill="rgb(77.58, 96.62, 162.66)" opacity="1.000" stroke="rgb(77.58, 96.62, 162.66)"/>
<path d="M 117 104 L 127 100 L 126 115 z" fill="rgb(86.02, 104.18, 167.04)" opacity="1.000" stroke="rgb(86.02, 104.18, 167.04)"/>
<path d="M 111 96 L 101 82 L 113 84 z" fill="rgb(101.22, 117.78, 174.94)" opacity="1.000" stroke="rgb(101.22, 117.78, 174.94)"/>
<path d="M 106 74 L 101 82 L 99 79 z" fill="rgb(107.64, 123.52, 178.28)" opacity="1.000" stroke="rgb(107.64, 123.52, 178.28)"/>
<path d="M 122 89 L 129 85 L 127 100 z" fill="rgb(83.32, 101.76, 165.64)" opacity="1.000" stroke="rgb(83.32, 101.76, 165.64)"/>
<path d="M 117 104 L 122 89 L 127 100 z" fill="rgb(87.37, 105.39, 167.75)" opacity="1.000" stroke="rgb(87.37, 105.39, 167.75)"/>
<path d="M 122 89 L 117 104 L 111 96 z" fill="rgb(92.78, 110.22, 170.56)" opacity="1.000" stroke="rgb(92.78, 110.22, 170.56)"/>
<path d="M 122 89 L 111 96 L 113 84 z" fill="rgb(94.13, 111.43, 171.26)" opacity="1.000" stroke="rgb(94.13, 111.43, 171.26)"/>
<path d="M 127 78 L 122 89 L 113 84 z" fill="rgb(88.72, 106.60, 168.45)" opacity="1.000" stroke="rgb(88.72, 106.60, 168.45)"/>
<path d="M 122 89 L 127 78 L 129 85 z" fill="rgb(83.32, 101.76, 165.64)" opacity="1.000" stroke="rgb(83.32, 101.76, 165.64)"/>
<path d="M 101 82 L 109 76 L 113 84 z" fill="rgb(101.90, 118.38, 175.30)" opacity="1.000" stroke="rgb(101.90, 118.38, 175.30)"/>
<path d="M 109 76 L 101 82 L 106 74 z" fill="rgb(104.26, 120.50, 176.52)" opacity="1.000" stroke="rgb(104.26, 120.50, 176.52)"/>
<path d="M 110 67 L 106 74 L 100 56 z" fill="rgb(104.26, 120.50, 176.52)" opacity="1.000" stroke="rgb(104.26, 120.50, 176.52)"/>
<path d="M 121 68 L 110 67 L 107 46 z" fill="rgb(96.83, 113.85, 172.66)" opacity="1.000" stroke="rgb(96.83, 113.85, 172.66)"/>
<path d="M 110 67 L 100 56 L 107 46 z" fill="rgb(103.92, 120.20, 176.35)" opacity="1.000" stroke="rgb(103.92, 120.20, 176.35)"/>
<path d="M 110 67 L 109 76 L 106 74 z" fill="rgb(101.22, 117.78, 174.94)" opacity="1.000" stroke="rgb(101.22, 117.78, 174.94)"/>
<path d="M 38 123 L 25 110 L 34 103 z" fill="rgb(178.24, 186.68, 214.97)" opacity="1.000" stroke="rgb(178.24, 186.68, 214.97)"/>
<path d="M 47 124 L 38 123 L 34 103 z" fill="rgb(170.80, 180.04, 211.11)" opacity="1.000" stroke="rgb(170.80, 180.04, 211.11)"/>
<path d="M 38 123 L 22 127 L 25 110 z" fill="rgb(182.29, 190.31, 217.08)" opacity="1.000" stroke="rgb(182.29, 190.31, 217.08)"/>
<path d="M 42 131 L 47 124 L 64 130 z" fill="rgb(159.32, 169.76, 205.14)" opacity="1.000" stroke="rgb(159.32, 169.76, 205.14)"/>
<path d="M 70 135 L 42 131 L 64 130 z" fill="rgb(151.55, 162.81, 201.10)" opacity="1.000" stroke="rgb(151.55, 162.81, 201.10)"/>
<path d="M 68 97 L 66 87 L 87 90 z" fill="rgb(136.35, 149.21, 193.20)" opacity="1.000" stroke="rgb(136.35, 149.21, 193.20)"/>
<path d="M 66 87 L 64 62 L 86 66 z" fill="rgb(138.04, 150.72, 194.08)" opacity="1.000" stroke="rgb(138.04, 150.72, 194.08)"/>
<path d="M 87 90 L 66 87 L 86 66 z" fill="rgb(130.27, 143.77, 190.04)" opacity="1.000" stroke="rgb(130.27, 143.77, 190.04)"/>
<path d="M 38 82 L 66 87 L 61 107 z" fill="rgb(155.27, 166.13, 203.03)" opacity="1.000" stroke="rgb(155.27, 166.13, 203.03)"/>
<path d="M 66 87 L 68 97 L 61 107 z" fill="rgb(145.13, 157.07, 197.77)" opacity="1.000" stroke="rgb(145.13, 157.07, 197.77)"/>
<path d="M 83 105 L 68 97 L 87 90 z" fill="rgb(130.61, 144.07, 190.22)" opacity="1.000" stroke="rgb(130.61, 144.07, 190.22)"/>
<path d="M 68 97 L 83 105 L 61 107 z" fill="rgb(139.39, 151.93, 194.78)" opacity="1.000" stroke="rgb(139.39, 151.93, 194.78)"/>
<path d="M 27 66 L 40 77 L 38 82 z" fill="rgb(175.53, 184.27, 213.57)" opacity="1.000" stroke="rgb(175.53, 184.27, 213.57)"/>
<path d="M 44 73 L 40 77 L 27 66 z" fill="rgb(173.51, 182.45, 212.51)" opacity="1.000" stroke="rgb(173.51, 182.45, 212.51)"/>
<path d="M 120 30 L 127 37 L 107 46 z" fill="rgb(91.43, 109.01, 169.85)" opacity="1.000" stroke="rgb(91.43, 109.01, 169.85)"/>
<path d="M 127 37 L 134 45 L 107 46 z" fill="rgb(86.70, 104.78, 167.40)" opacity="1.000" stroke="rgb(86.70, 104.78, 167.40)"/>
<path d="M 40 19 L 44 19 L 42 33 z" fill="rgb(168.44, 177.92, 209.88)" opacity="1.000" stroke="rgb(168.44, 177.92, 209.88)"/>
<path d="M 30 31 L 40 19 L 42 33 z" fill="rgb(173.17, 182.15, 212.34)" opacity="1.000" stroke="rgb(173.17, 182.15, 212.34)"/>
<path d="M 40 19 L 30 31 L 24 16 z" fill="rgb(179.25, 187.59, 215.50)" opacity="1.000" stroke="rgb(179.25, 187.59, 215.50)"/>
<path d="M 24 10 L 40 19 L 24 16 z" fill="rgb(181.28, 189.40, 216.55)" opacity="1.000" stroke="rgb(181.28, 189.40, 216.55)"/>
<path d="M 49 10 L 40 19 L 24 10 z" fill="rgb(172.83, 181.85, 212.16)" opacity="1.000" stroke="rgb(172.83, 181.85, 212.16)"/>
<path d="M 44 19 L 40 19 L 49 10 z" fill="rgb(166.08, 175.80, 208.65)" opacity="1.000" stroke="rgb(166.08, 175.80, 208.65)"/>
<path d="M 115 74 L 127 78 L 113 84 z" fill="rgb(91.09, 108.71, 169.68)" opacity="1.000" stroke="rgb(91.09, 108.71, 169.68)"/>
<path d="M 127 78 L 115 74 L 121 68 z" fill="rgb(88.39, 106.29, 168.27)" opacity="1.000" stroke="rgb(88.39, 106.29, 168.27)"/>
<path d="M 109 76 L 115 74 L 113 84 z" fill="rgb(97.17, 114.15, 172.84)" opacity="1.000" stroke="rgb(97.17, 114.15, 172.84)"/>
<path d="M 115 74 L 110 67 L 121 68 z" fill="rgb(94.13, 111.43, 171.26)" opacity="1.000" stroke="rgb(94.13, 111.43, 171.26)"/>
<path d="M 110 67 L 115 74 L 109 76 z" fill="rgb(98.18, 115.06, 173.36)" opacity="1.000" stroke="rgb(98.18, 115.06, 173.36)"/>
<path d="M 127 130 L 116 121 L 126 115 z" fill="rgb(86.36, 104.48, 167.22)" opacity="1.000" stroke="rgb(86.36, 104.48, 167.22)"/>
<path d="M 116 121 L 117 104 L 126 115 z" fill="rgb(89.74, 107.50, 168.98)" opacity="1.000" stroke="rgb(89.74, 107.50, 168.98)"/>
<path d="M 97 92 L 101 82 L 111 96 z" fill="rgb(106.63, 122.61, 177.75)" opacity="1.000" stroke="rgb(106.63, 122.61, 177.75)"/>
<path d="M 22 127 L 32 131 L 22 129 z" fill="rgb(185.33, 193.03, 218.66)" opacity="1.000" stroke="rgb(185.33, 193.03, 218.66)"/>
<path d="M 38 123 L 32 131 L 22 127 z" fill="rgb(179.92, 188.20, 215.85)" opacity="1.000" stroke="rgb(179.92, 188.20, 215.85)"/>
<path d="M 32 131 L 20 137 L 22 129 z" fill="rgb(186.00, 193.64, 219.01)" opacity="1.000" stroke="rgb(186.00, 193.64, 219.01)"/>
<path d="M 40 128 L 38 123 L 47 124 z" fill="rgb(168.78, 178.22, 210.06)" opacity="1.000" stroke="rgb(168.78, 178.22, 210.06)"/>
<path d="M 42 131 L 40 128 L 47 124 z" fill="rgb(167.43, 177.01, 209.35)" opacity="1.000" stroke="rgb(167.43, 177.01, 209.35)"/>
<path d="M 45 74 L 66 87 L 38 82 z" fill="rgb(160.67, 170.97, 205.84)" opacity="1.000" stroke="rgb(160.67, 170.97, 205.84)"/>
<path d="M 40 77 L 45 74 L 38 82 z" fill="rgb(169.45, 178.83, 210.41)" opacity="1.000" stroke="rgb(169.45, 178.83, 210.41)"/>
<path d="M 45 74 L 40 77 L 44 73 z" fill="rgb(167.43, 177.01, 209.35)" opacity="1.000" stroke="rgb(167.43, 177.01, 209.35)"/>
<path d="M 66 87 L 45 74 L 64 62 z" fill="rgb(151.89, 163.11, 201.28)" opacity="1.000" stroke="rgb(151.89, 163.11, 201.28)"/>
<path d="M 45 74 L 58 59 L 64 62 z" fill="rgb(154.59, 165.53, 202.68)" opacity="1.000" stroke="rgb(154.59, 165.53, 202.68)"/>
<path d="M 58 59 L 45 74 L 44 73 z" fill="rgb(161.35, 171.57, 206.19)" opacity="1.000" stroke="rgb(161.35, 171.57, 206.19)"/>
<path d="M 125 30 L 127 37 L 120 30 z" fill="rgb(85.35, 103.57, 166.69)" opacity="1.000" stroke="rgb(85.35, 103.57, 166.69)"/>
<path d="M 127 37 L 125 30 L 129 28 z" fill="rgb(82.31, 100.85, 165.11)" opacity="1.000" stroke="rgb(82.31, 100.85, 165.11)"/>
<path d="M 125 30 L 120 30 L 118 15 z" fill="rgb(88.39, 106.29, 168.27)" opacity="1.000" stroke="rgb(88.39, 106.29, 168.27)"/>
<path d="M 129 28 L 125 30 L 118 15 z" fill="rgb(85.35, 103.57, 166.69)" opacity="1.000" stroke="rgb(85.35, 103.57, 166.69)"/>
<path d="M 135 36 L 127 37 L 129 28 z" fill="rgb(78.93, 97.83, 163.36)" opacity="1.000" stroke="rgb(78.93, 97.83, 163.36)"/>
<path d="M 138 39 L 135 36 L 140 10 z" fill="rgb(71.50, 91.18, 159.50)" opacity="1.000" stroke="rgb(71.50, 91.18, 159.50)"/>
<path d="M 135 36 L 129 28 L 140 10 z" fill="rgb(74.54, 93.90, 161.08)" opacity="1.000" stroke="rgb(74.54, 93.90, 161.08)"/>
<path d="M 134 45 L 135 36 L 138 39 z" fill="rgb(73.52, 93.00, 160.55)" opacity="1.000" stroke="rgb(73.52, 93.00, 160.55)"/>
<path d="M 127 37 L 135 36 L 134 45 z" fill="rgb(77.24, 96.32, 162.48)" opacity="1.000" stroke="rgb(77.24, 96.32, 162.48)"/>
<path d="M 101 82 L 96 90 L 99 79 z" fill="rgb(111.02, 126.54, 180.04)" opacity="1.000" stroke="rgb(111.02, 126.54, 180.04)"/>
<path d="M 97 92 L 96 90 L 101 82 z" fill="rgb(111.69, 127.15, 180.39)" opacity="1.000" stroke="rgb(111.69, 127.15, 180.39)"/>
<path d="M 96 90 L 87 90 L 99 79 z" fill="rgb(115.75, 130.77, 182.49)" opacity="1.000" stroke="rgb(115.75, 130.77, 182.49)"/>
<path d="M 96 90 L 97 92 L 87 90 z" fill="rgb(116.42, 131.38, 182.84)" opacity="1.000" stroke="rgb(116.42, 131.38, 182.84)"/>
<path d="M 35 132 L 40 128 L 42 131 z" fill="rgb(171.48, 180.64, 211.46)" opacity="1.000" stroke="rgb(171.48, 180.64, 211.46)"/>
<path d="M 32 131 L 35 132 L 20 137 z" fill="rgb(181.61, 189.71, 216.73)" opacity="1.000" stroke="rgb(181.61, 189.71, 216.73)"/>
<path d="M 35 132 L 32 131 L 38 123 z" fill="rgb(175.53, 184.27, 213.57)" opacity="1.000" stroke="rgb(175.53, 184.27, 213.57)"/>
<path d="M 40 128 L 35 132 L 38 123 z" fill="rgb(172.83, 181.85, 212.16)" opacity="1.000" stroke="rgb(172.83, 181.85, 212.16)"/>
<path d="M 35 132 L 70 135 L 20 137 z" fill="rgb(168.78, 178.22, 210.06)" opacity="1.000" stroke="rgb(168.78, 178.22, 210.06)"/>
<path d="M 35 132 L 42 131 L 70 135 z" fill="rgb(161.35, 171.57, 206.19)" opacity="1.000" stroke="rgb(161.35, 171.57, 206.19)"/>
<path d="M 117 104 L 104 106 L 111 96 z" fill="rgb(98.86, 115.66, 173.72)" opacity="1.000" stroke="rgb(98.86, 115.66, 173.72)"/>
<path d="M 104 106 L 97 92 L 111 96 z" fill="rgb(105.61, 121.71, 177.23)" opacity="1.000" stroke="rgb(105.61, 121.71, 177.23)"/>
<path d="M 104 106 L 101 107 L 97 92 z" fill="rgb(108.99, 124.73, 178.98)" opacity="1.000" stroke="rgb(108.99, 124.73, 178.98)"/>
<path d="M 101 107 L 90 102 L 97 92 z" fill="rgb(113.72, 128.96, 181.44)" opacity="1.000" stroke="rgb(113.72, 128.96, 181.44)"/>
<path d="M 90 102 L 83 105 L 87 90 z" fill="rgb(123.18, 137.42, 186.36)" opacity="1.000" stroke="rgb(123.18, 137.42, 186.36)"/>
<path d="M 97 92 L 90 102 L 87 90 z" fill="rgb(118.45, 133.19, 183.90)" opacity="1.000" stroke="rgb(118.45, 133.19, 183.90)"/>
<path d="M 88 128 L 127 130 L 75 136 z" fill="rgb(113.04, 128.36, 181.09)" opacity="1.000" stroke="rgb(113.04, 128.36, 181.09)"/>
<path d="M 88 128 L 116 121 L 127 130 z" fill="rgb(99.20, 115.96, 173.89)" opacity="1.000" stroke="rgb(99.20, 115.96, 173.89)"/>
<path d="M 104 106 L 102 114 L 101 107 z" fill="rgb(107.30, 123.22, 178.10)" opacity="1.000" stroke="rgb(107.30, 123.22, 178.10)"/>
<path d="M 88 128 L 102 114 L 116 121 z" fill="rgb(107.64, 123.52, 178.28)" opacity="1.000" stroke="rgb(107.64, 123.52, 178.28)"/>
<path d="M 116 121 L 102 114 L 117 104 z" fill="rgb(97.84, 114.76, 173.19)" opacity="1.000" stroke="rgb(97.84, 114.76, 173.19)"/>
<path d="M 102 114 L 104 106 L 117 104 z" fill="rgb(101.90, 118.38, 175.30)" opacity="1.000" stroke="rgb(101.90, 118.38, 175.30)"/>
<path d="M 75 124 L 64 130 L 61 107 z" fill="rgb(143.44, 155.56, 196.89)" opacity="1.000" stroke="rgb(143.44, 155.56, 196.89)"/>
<path d="M 83 105 L 75 124 L 61 107 z" fill="rgb(137.03, 149.81, 193.55)" opacity="1.000" stroke="rgb(137.03, 149.81, 193.55)"/>
<path d="M 70 135 L 75 124 L 75 136 z" fill="rgb(136.69, 149.51, 193.38)" opacity="1.000" stroke="rgb(136.69, 149.51, 193.38)"/>
<path d="M 75 124 L 70 135 L 64 130 z" fill="rgb(140.40, 152.84, 195.31)" opacity="1.000" stroke="rgb(140.40, 152.84, 195.31)"/>
<path d="M 82 124 L 75 124 L 83 105 z" fill="rgb(129.93, 143.47, 189.87)" opacity="1.000" stroke="rgb(129.93, 143.47, 189.87)"/>
<path d="M 82 124 L 88 128 L 75 136 z" fill="rgb(128.24, 141.96, 188.99)" opacity="1.000" stroke="rgb(128.24, 141.96, 188.99)"/>
<path d="M 75 124 L 82 124 L 75 136 z" fill="rgb(132.64, 145.88, 191.27)" opacity="1.000" stroke="rgb(132.64, 145.88, 191.27)"/>
<path d="M 97 108 L 90 102 L 101 107 z" fill="rgb(113.72, 128.96, 181.44)" opacity="1.000" stroke="rgb(113.72, 128.96, 181.44)"/>
<path d="M 102 114 L 97 108 L 101 107 z" fill="rgb(109.67, 125.33, 179.33)" opacity="1.000" stroke="rgb(109.67, 125.33, 179.33)"/>
<path d="M 97 108 L 102 114 L 88 128 z" fill="rgb(114.06, 129.26, 181.62)" opacity="1.000" stroke="rgb(114.06, 129.26, 181.62)"/>
<path d="M 82 124 L 97 108 L 88 128 z" fill="rgb(120.81, 135.31, 185.13)" opacity="1.000" stroke="rgb(120.81, 135.31, 185.13)"/>
<path d="M 90 102 L 88 106 L 83 105 z" fill="rgb(122.84, 137.12, 186.18)" opacity="1.000" stroke="rgb(122.84, 137.12, 186.18)"/>
<path d="M 97 108 L 88 106 L 90 102 z" fill="rgb(118.11, 132.89, 183.72)" opacity="1.000" stroke="rgb(118.11, 132.89, 183.72)"/>
<path d="M 88 106 L 82 124 L 83 105 z" fill="rgb(125.54, 139.54, 187.58)" opacity="1.000" stroke="rgb(125.54, 139.54, 187.58)"/>
<path d="M 88 106 L 97 108 L 82 124 z" fill="rgb(120.81, 135.31, 185.13)" opacity="1.000" stroke="rgb(120.81, 135.31, 185.13)"/>
<text style="fill:white;filter:url(#shadow);" text-anchor="middle" font-size="45.0" class="sans" x="75.0" y="97.5" fill="black">CHES</text>
</svg>
