<?xml version="1.0" encoding="utf-8"?>
<svg xmlns="http://www.w3.org/2000/svg" width="150" height="150"
     xmlns:xlink="http://www.w3.org/1999/xlink">
  <defs>
    <linearGradient id="bluegradient" x1="0" x2="0" y1="0" y2="1">
      <stop stop-color="#0E38FF" offset="0%"/>
      <stop stop-color="#729BFF" offset="10%"/>
      <stop stop-color="#f0f0ff" offset="100%"/>
    </linearGradient>
    <radialGradient id="circuitcolor">
      <stop stop-color="#80d0ff" offset="20%"/>
      <stop stop-color="#40a0ff" offset="100%"/>
    </radialGradient>
    <radialGradient id="wires" cx="25%" cy="50%" r="100%" fx="100%" fy="100%">
      <stop stop-color="#404080" offset="0%"/>
      <stop stop-color="#6080a0" offset="40%"/>
      <stop stop-color="#80a0c0" offset="100%"/>
    </radialGradient>
    <radialGradient id="blues">
       <stop offset="0%" stop-color="rgba(128,192,192,0.8)"/>
       <stop offset="30%" stop-color="rgba(65,192,225,0.5)"/>
       <stop offset="100%" stop-color="rgba(192,192,225,0.8)"/>
    </radialGradient>
    <radialGradient id="blues2">
       <stop offset="0%" stop-color="rgba(64,64,225,0.5)"/>
       <stop offset="50%" stop-color="rgba(92,92,225,0.8)"/>
       <stop offset="100%" stop-color="rgba(128,128,225,0.8)"/>
    </radialGradient>
    <filter id="shadow">
       <feDropShadow dx="4" dy="8" stdDeviation="4"/>
    </filter>
  </defs>
  <style>
    .sans {font-family: Arial, Helvetica, sans-serif;}
  </style>
  <clipPath id="circle">
    <circle cx="75.0" cy="75.0" r="75.0"/>
  </clipPath>
  <!-- created with "circles.py -min=10 -colors=gradient -num=100 -conf PKC" -->
  <g clip-path="url(#circle)">
   
<path d="M 135 78 L 150 0 L 150 150 z" fill="rgb(64.07, 84.53, 155.63)" opacity="1.000" stroke="rgb(64.07, 84.53, 155.63)"/>
<path d="M 10 95 L 0 150 L 0 0 z" fill="rgb(207.62, 212.98, 230.24)" opacity="1.000" stroke="rgb(207.62, 212.98, 230.24)"/>
<path d="M 11 72 L 10 95 L 0 0 z" fill="rgb(203.91, 209.65, 228.31)" opacity="1.000" stroke="rgb(203.91, 209.65, 228.31)"/>
<path d="M 61 12 L 27 10 L 0 0 z" fill="rgb(181.28, 189.40, 216.55)" opacity="1.000" stroke="rgb(181.28, 189.40, 216.55)"/>
<path d="M 104 134 L 106 135 L 82 129 z" fill="rgb(112.37, 127.75, 180.74)" opacity="1.000" stroke="rgb(112.37, 127.75, 180.74)"/>
<path d="M 150 0 L 100 10 L 0 0 z" fill="rgb(126.56, 140.44, 188.11)" opacity="1.000" stroke="rgb(126.56, 140.44, 188.11)"/>
<path d="M 100 10 L 61 12 L 0 0 z" fill="rgb(156.62, 167.34, 203.74)" opacity="1.000" stroke="rgb(156.62, 167.34, 203.74)"/>
<path d="M 27 10 L 12 14 L 0 0 z" fill="rgb(197.83, 204.21, 225.15)" opacity="1.000" stroke="rgb(197.83, 204.21, 225.15)"/>
<path d="M 10 95 L 14 125 L 0 150 z" fill="rgb(202.89, 208.75, 227.79)" opacity="1.000" stroke="rgb(202.89, 208.75, 227.79)"/>
<path d="M 106 135 L 56 133 L 82 129 z" fill="rgb(128.58, 142.26, 189.16)" opacity="1.000" stroke="rgb(128.58, 142.26, 189.16)"/>
<path d="M 138 31 L 138 30 L 150 0 z" fill="rgb(67.11, 87.25, 157.21)" opacity="1.000" stroke="rgb(67.11, 87.25, 157.21)"/>
<path d="M 135 78 L 136 41 L 150 0 z" fill="rgb(68.80, 88.76, 158.09)" opacity="1.000" stroke="rgb(68.80, 88.76, 158.09)"/>
<path d="M 136 41 L 138 31 L 150 0 z" fill="rgb(67.78, 87.86, 157.56)" opacity="1.000" stroke="rgb(67.78, 87.86, 157.56)"/>
<path d="M 26 16 L 12 14 L 27 10 z" fill="rgb(189.04, 196.36, 220.59)" opacity="1.000" stroke="rgb(189.04, 196.36, 220.59)"/>
<path d="M 52 43 L 54 45 L 48 47 z" fill="rgb(158.98, 169.46, 204.96)" opacity="1.000" stroke="rgb(158.98, 169.46, 204.96)"/>
<path d="M 16 37 L 11 72 L 0 0 z" fill="rgb(201.88, 207.84, 227.26)" opacity="1.000" stroke="rgb(201.88, 207.84, 227.26)"/>
<path d="M 12 14 L 16 37 L 0 0 z" fill="rgb(201.54, 207.54, 227.08)" opacity="1.000" stroke="rgb(201.54, 207.54, 227.08)"/>
<path d="M 90 123 L 104 134 L 82 129 z" fill="rgb(117.77, 132.59, 183.55)" opacity="1.000" stroke="rgb(117.77, 132.59, 183.55)"/>
<path d="M 90 123 L 74 103 L 94 112 z" fill="rgb(123.85, 138.03, 186.71)" opacity="1.000" stroke="rgb(123.85, 138.03, 186.71)"/>
<path d="M 90 123 L 100 122 L 104 134 z" fill="rgb(111.69, 127.15, 180.39)" opacity="1.000" stroke="rgb(111.69, 127.15, 180.39)"/>
<path d="M 100 122 L 90 123 L 94 112 z" fill="rgb(115.07, 130.17, 182.14)" opacity="1.000" stroke="rgb(115.07, 130.17, 182.14)"/>
<path d="M 14 125 L 28 112 L 22 134 z" fill="rgb(189.38, 196.66, 220.76)" opacity="1.000" stroke="rgb(189.38, 196.66, 220.76)"/>
<path d="M 14 125 L 15 138 L 0 150 z" fill="rgb(201.20, 207.24, 226.91)" opacity="1.000" stroke="rgb(201.20, 207.24, 226.91)"/>
<path d="M 15 138 L 14 125 L 22 134 z" fill="rgb(193.77, 200.59, 223.05)" opacity="1.000" stroke="rgb(193.77, 200.59, 223.05)"/>
<path d="M 56 133 L 46 136 L 55 127 z" fill="rgb(157.97, 168.55, 204.44)" opacity="1.000" stroke="rgb(157.97, 168.55, 204.44)"/>
<path d="M 28 112 L 46 136 L 22 134 z" fill="rgb(178.57, 186.99, 215.15)" opacity="1.000" stroke="rgb(178.57, 186.99, 215.15)"/>
<path d="M 46 136 L 28 112 L 55 127 z" fill="rgb(167.43, 177.01, 209.35)" opacity="1.000" stroke="rgb(167.43, 177.01, 209.35)"/>
<path d="M 46 136 L 15 138 L 22 134 z" fill="rgb(182.96, 190.92, 217.43)" opacity="1.000" stroke="rgb(182.96, 190.92, 217.43)"/>
<path d="M 15 138 L 46 136 L 0 150 z" fill="rgb(190.40, 197.56, 221.29)" opacity="1.000" stroke="rgb(190.40, 197.56, 221.29)"/>
<path d="M 46 136 L 56 133 L 106 135 z" fill="rgb(140.74, 153.14, 195.48)" opacity="1.000" stroke="rgb(140.74, 153.14, 195.48)"/>
<path d="M 0 150 L 46 136 L 150 150 z" fill="rgb(144.80, 156.76, 197.59)" opacity="1.000" stroke="rgb(144.80, 156.76, 197.59)"/>
<path d="M 46 136 L 106 135 L 150 150 z" fill="rgb(108.99, 124.73, 178.98)" opacity="1.000" stroke="rgb(108.99, 124.73, 178.98)"/>
<path d="M 14 87 L 10 95 L 11 72 z" fill="rgb(199.18, 205.42, 225.86)" opacity="1.000" stroke="rgb(199.18, 205.42, 225.86)"/>
<path d="M 24 80 L 14 87 L 11 72 z" fill="rgb(194.45, 201.19, 223.40)" opacity="1.000" stroke="rgb(194.45, 201.19, 223.40)"/>
<path d="M 63 83 L 66 63 L 80 71 z" fill="rgb(140.40, 152.84, 195.31)" opacity="1.000" stroke="rgb(140.40, 152.84, 195.31)"/>
<path d="M 63 83 L 74 103 L 53 91 z" fill="rgb(146.82, 158.58, 198.64)" opacity="1.000" stroke="rgb(146.82, 158.58, 198.64)"/>
<path d="M 56 133 L 67 125 L 82 129 z" fill="rgb(141.76, 154.04, 196.01)" opacity="1.000" stroke="rgb(141.76, 154.04, 196.01)"/>
<path d="M 67 125 L 56 133 L 55 127 z" fill="rgb(150.88, 162.20, 200.75)" opacity="1.000" stroke="rgb(150.88, 162.20, 200.75)"/>
<path d="M 67 122 L 67 125 L 55 127 z" fill="rgb(147.16, 158.88, 198.82)" opacity="1.000" stroke="rgb(147.16, 158.88, 198.82)"/>
<path d="M 67 125 L 67 122 L 82 129 z" fill="rgb(138.04, 150.72, 194.08)" opacity="1.000" stroke="rgb(138.04, 150.72, 194.08)"/>
<path d="M 67 122 L 90 123 L 82 129 z" fill="rgb(130.27, 143.77, 190.04)" opacity="1.000" stroke="rgb(130.27, 143.77, 190.04)"/>
<path d="M 90 123 L 67 122 L 74 103 z" fill="rgb(132.97, 146.19, 191.45)" opacity="1.000" stroke="rgb(132.97, 146.19, 191.45)"/>
<path d="M 100 10 L 107 19 L 97 22 z" fill="rgb(108.32, 124.12, 178.63)" opacity="1.000" stroke="rgb(108.32, 124.12, 178.63)"/>
<path d="M 84 86 L 109 81 L 94 112 z" fill="rgb(114.06, 129.26, 181.62)" opacity="1.000" stroke="rgb(114.06, 129.26, 181.62)"/>
<path d="M 109 81 L 107 118 L 94 112 z" fill="rgb(106.29, 122.31, 177.58)" opacity="1.000" stroke="rgb(106.29, 122.31, 177.58)"/>
<path d="M 107 118 L 100 122 L 94 112 z" fill="rgb(109.33, 125.03, 179.16)" opacity="1.000" stroke="rgb(109.33, 125.03, 179.16)"/>
<path d="M 104 134 L 107 118 L 106 135 z" fill="rgb(103.92, 120.20, 176.35)" opacity="1.000" stroke="rgb(103.92, 120.20, 176.35)"/>
<path d="M 100 122 L 107 118 L 104 134 z" fill="rgb(105.95, 122.01, 177.40)" opacity="1.000" stroke="rgb(105.95, 122.01, 177.40)"/>
<path d="M 98 62 L 112 43 L 117 50 z" fill="rgb(100.55, 117.17, 174.59)" opacity="1.000" stroke="rgb(100.55, 117.17, 174.59)"/>
<path d="M 68 48 L 66 63 L 54 45 z" fill="rgb(147.50, 159.18, 199.00)" opacity="1.000" stroke="rgb(147.50, 159.18, 199.00)"/>
<path d="M 26 16 L 18 27 L 12 14 z" fill="rgb(192.08, 199.08, 222.17)" opacity="1.000" stroke="rgb(192.08, 199.08, 222.17)"/>
<path d="M 18 27 L 26 16 L 28 26 z" fill="rgb(186.68, 194.24, 219.36)" opacity="1.000" stroke="rgb(186.68, 194.24, 219.36)"/>
<path d="M 18 27 L 16 37 L 12 14 z" fill="rgb(195.46, 202.10, 223.92)" opacity="1.000" stroke="rgb(195.46, 202.10, 223.92)"/>
<path d="M 26 16 L 59 19 L 28 26 z" fill="rgb(172.83, 181.85, 212.16)" opacity="1.000" stroke="rgb(172.83, 181.85, 212.16)"/>
<path d="M 59 19 L 26 16 L 27 10 z" fill="rgb(173.17, 182.15, 212.34)" opacity="1.000" stroke="rgb(173.17, 182.15, 212.34)"/>
<path d="M 59 19 L 27 10 L 61 12 z" fill="rgb(161.35, 171.57, 206.19)" opacity="1.000" stroke="rgb(161.35, 171.57, 206.19)"/>
<path d="M 60 17 L 59 19 L 61 12 z" fill="rgb(150.20, 161.60, 200.40)" opacity="1.000" stroke="rgb(150.20, 161.60, 200.40)"/>
<path d="M 19 37 L 18 27 L 28 26 z" fill="rgb(189.04, 196.36, 220.59)" opacity="1.000" stroke="rgb(189.04, 196.36, 220.59)"/>
<path d="M 18 27 L 19 37 L 16 37 z" fill="rgb(193.10, 199.98, 222.70)" opacity="1.000" stroke="rgb(193.10, 199.98, 222.70)"/>
<path d="M 17 111 L 14 125 L 10 95 z" fill="rgb(197.15, 203.61, 224.80)" opacity="1.000" stroke="rgb(197.15, 203.61, 224.80)"/>
<path d="M 17 111 L 28 112 L 14 125 z" fill="rgb(191.07, 198.17, 221.64)" opacity="1.000" stroke="rgb(191.07, 198.17, 221.64)"/>
<path d="M 38 75 L 40 103 L 24 80 z" fill="rgb(176.55, 185.17, 214.09)" opacity="1.000" stroke="rgb(176.55, 185.17, 214.09)"/>
<path d="M 54 80 L 63 83 L 53 91 z" fill="rgb(153.58, 164.62, 202.16)" opacity="1.000" stroke="rgb(153.58, 164.62, 202.16)"/>
<path d="M 38 75 L 54 80 L 53 91 z" fill="rgb(162.02, 172.18, 206.54)" opacity="1.000" stroke="rgb(162.02, 172.18, 206.54)"/>
<path d="M 54 45 L 44 58 L 48 47 z" fill="rgb(161.68, 171.88, 206.37)" opacity="1.000" stroke="rgb(161.68, 171.88, 206.37)"/>
<path d="M 66 63 L 44 58 L 54 45 z" fill="rgb(155.60, 166.44, 203.21)" opacity="1.000" stroke="rgb(155.60, 166.44, 203.21)"/>
<path d="M 138 30 L 137 16 L 150 0 z" fill="rgb(67.44, 87.56, 157.39)" opacity="1.000" stroke="rgb(67.44, 87.56, 157.39)"/>
<path d="M 137 16 L 100 10 L 150 0 z" fill="rgb(80.28, 99.04, 164.06)" opacity="1.000" stroke="rgb(80.28, 99.04, 164.06)"/>
<path d="M 137 16 L 107 19 L 100 10 z" fill="rgb(94.80, 112.04, 171.61)" opacity="1.000" stroke="rgb(94.80, 112.04, 171.61)"/>
<path d="M 132 71 L 136 41 L 135 78 z" fill="rgb(74.88, 94.20, 161.25)" opacity="1.000" stroke="rgb(74.88, 94.20, 161.25)"/>
<path d="M 132 71 L 127 68 L 136 41 z" fill="rgb(77.58, 96.62, 162.66)" opacity="1.000" stroke="rgb(77.58, 96.62, 162.66)"/>
<path d="M 84 86 L 87 74 L 109 81 z" fill="rgb(116.42, 131.38, 182.84)" opacity="1.000" stroke="rgb(116.42, 131.38, 182.84)"/>
<path d="M 98 62 L 87 74 L 80 71 z" fill="rgb(121.49, 135.91, 185.48)" opacity="1.000" stroke="rgb(121.49, 135.91, 185.48)"/>
<path d="M 87 74 L 84 86 L 80 71 z" fill="rgb(126.22, 140.14, 187.94)" opacity="1.000" stroke="rgb(126.22, 140.14, 187.94)"/>
<path d="M 74 103 L 78 91 L 94 112 z" fill="rgb(127.91, 141.65, 188.81)" opacity="1.000" stroke="rgb(127.91, 141.65, 188.81)"/>
<path d="M 78 91 L 84 86 L 94 112 z" fill="rgb(124.53, 138.63, 187.06)" opacity="1.000" stroke="rgb(124.53, 138.63, 187.06)"/>
<path d="M 63 83 L 78 91 L 74 103 z" fill="rgb(138.38, 151.02, 194.26)" opacity="1.000" stroke="rgb(138.38, 151.02, 194.26)"/>
<path d="M 78 91 L 63 83 L 80 71 z" fill="rgb(136.35, 149.21, 193.20)" opacity="1.000" stroke="rgb(136.35, 149.21, 193.20)"/>
<path d="M 84 86 L 78 91 L 80 71 z" fill="rgb(129.26, 142.86, 189.52)" opacity="1.000" stroke="rgb(129.26, 142.86, 189.52)"/>
<path d="M 107 118 L 125 128 L 106 135 z" fill="rgb(96.83, 113.85, 172.66)" opacity="1.000" stroke="rgb(96.83, 113.85, 172.66)"/>
<path d="M 106 135 L 125 128 L 150 150 z" fill="rgb(82.31, 100.85, 165.11)" opacity="1.000" stroke="rgb(82.31, 100.85, 165.11)"/>
<path d="M 125 128 L 137 116 L 150 150 z" fill="rgb(71.84, 91.48, 159.67)" opacity="1.000" stroke="rgb(71.84, 91.48, 159.67)"/>
<path d="M 125 128 L 131 103 L 137 116 z" fill="rgb(78.25, 97.23, 163.01)" opacity="1.000" stroke="rgb(78.25, 97.23, 163.01)"/>
<path d="M 131 103 L 125 128 L 107 118 z" fill="rgb(88.39, 106.29, 168.27)" opacity="1.000" stroke="rgb(88.39, 106.29, 168.27)"/>
<path d="M 85 40 L 112 43 L 98 62 z" fill="rgb(111.36, 126.84, 180.21)" opacity="1.000" stroke="rgb(111.36, 126.84, 180.21)"/>
<path d="M 121 47 L 127 68 L 117 50 z" fill="rgb(87.71, 105.69, 167.92)" opacity="1.000" stroke="rgb(87.71, 105.69, 167.92)"/>
<path d="M 127 68 L 121 47 L 136 41 z" fill="rgb(81.29, 99.95, 164.59)" opacity="1.000" stroke="rgb(81.29, 99.95, 164.59)"/>
<path d="M 124 38 L 137 16 L 138 30 z" fill="rgb(76.23, 95.41, 161.95)" opacity="1.000" stroke="rgb(76.23, 95.41, 161.95)"/>
<path d="M 124 38 L 138 30 L 138 31 z" fill="rgb(75.89, 95.11, 161.78)" opacity="1.000" stroke="rgb(75.89, 95.11, 161.78)"/>
<path d="M 136 41 L 124 38 L 138 31 z" fill="rgb(76.56, 95.72, 162.13)" opacity="1.000" stroke="rgb(76.56, 95.72, 162.13)"/>
<path d="M 121 47 L 124 38 L 136 41 z" fill="rgb(82.31, 100.85, 165.11)" opacity="1.000" stroke="rgb(82.31, 100.85, 165.11)"/>
<path d="M 85 19 L 86 18 L 97 22 z" fill="rgb(120.48, 135.00, 184.95)" opacity="1.000" stroke="rgb(120.48, 135.00, 184.95)"/>
<path d="M 88 16 L 100 10 L 97 22 z" fill="rgb(114.73, 129.87, 181.97)" opacity="1.000" stroke="rgb(114.73, 129.87, 181.97)"/>
<path d="M 86 18 L 88 16 L 97 22 z" fill="rgb(119.46, 134.10, 184.42)" opacity="1.000" stroke="rgb(119.46, 134.10, 184.42)"/>
<path d="M 100 10 L 88 16 L 61 12 z" fill="rgb(126.89, 140.75, 188.29)" opacity="1.000" stroke="rgb(126.89, 140.75, 188.29)"/>
<path d="M 66 63 L 79 52 L 80 71 z" fill="rgb(135.00, 148.00, 192.50)" opacity="1.000" stroke="rgb(135.00, 148.00, 192.50)"/>
<path d="M 68 48 L 79 52 L 66 63 z" fill="rgb(139.05, 151.63, 194.61)" opacity="1.000" stroke="rgb(139.05, 151.63, 194.61)"/>
<path d="M 79 52 L 98 62 L 80 71 z" fill="rgb(124.19, 138.33, 186.88)" opacity="1.000" stroke="rgb(124.19, 138.33, 186.88)"/>
<path d="M 79 52 L 85 40 L 98 62 z" fill="rgb(122.50, 136.82, 186.00)" opacity="1.000" stroke="rgb(122.50, 136.82, 186.00)"/>
<path d="M 77 39 L 79 52 L 68 48 z" fill="rgb(135.34, 148.30, 192.68)" opacity="1.000" stroke="rgb(135.34, 148.30, 192.68)"/>
<path d="M 79 52 L 77 39 L 85 40 z" fill="rgb(129.60, 143.16, 189.69)" opacity="1.000" stroke="rgb(129.60, 143.16, 189.69)"/>
<path d="M 59 19 L 43 43 L 28 26 z" fill="rgb(167.09, 176.71, 209.18)" opacity="1.000" stroke="rgb(167.09, 176.71, 209.18)"/>
<path d="M 43 43 L 52 43 L 48 47 z" fill="rgb(162.70, 172.78, 206.90)" opacity="1.000" stroke="rgb(162.70, 172.78, 206.90)"/>
<path d="M 43 43 L 19 37 L 28 26 z" fill="rgb(180.60, 188.80, 216.20)" opacity="1.000" stroke="rgb(180.60, 188.80, 216.20)"/>
<path d="M 44 58 L 43 43 L 48 47 z" fill="rgb(165.40, 175.20, 208.30)" opacity="1.000" stroke="rgb(165.40, 175.20, 208.30)"/>
<path d="M 77 39 L 68 29 L 78 32 z" fill="rgb(135.68, 148.60, 192.85)" opacity="1.000" stroke="rgb(135.68, 148.60, 192.85)"/>
<path d="M 50 97 L 38 75 L 53 91 z" fill="rgb(163.37, 173.39, 207.25)" opacity="1.000" stroke="rgb(163.37, 173.39, 207.25)"/>
<path d="M 50 97 L 40 103 L 38 75 z" fill="rgb(167.76, 177.32, 209.53)" opacity="1.000" stroke="rgb(167.76, 177.32, 209.53)"/>
<path d="M 74 103 L 50 97 L 53 91 z" fill="rgb(151.21, 162.51, 200.93)" opacity="1.000" stroke="rgb(151.21, 162.51, 200.93)"/>
<path d="M 28 112 L 55 110 L 55 127 z" fill="rgb(164.39, 174.29, 207.77)" opacity="1.000" stroke="rgb(164.39, 174.29, 207.77)"/>
<path d="M 40 103 L 55 110 L 28 112 z" fill="rgb(169.45, 178.83, 210.41)" opacity="1.000" stroke="rgb(169.45, 178.83, 210.41)"/>
<path d="M 50 97 L 55 110 L 40 103 z" fill="rgb(162.02, 172.18, 206.54)" opacity="1.000" stroke="rgb(162.02, 172.18, 206.54)"/>
<path d="M 55 110 L 67 122 L 55 127 z" fill="rgb(151.21, 162.51, 200.93)" opacity="1.000" stroke="rgb(151.21, 162.51, 200.93)"/>
<path d="M 67 122 L 55 110 L 74 103 z" fill="rgb(144.80, 156.76, 197.59)" opacity="1.000" stroke="rgb(144.80, 156.76, 197.59)"/>
<path d="M 55 110 L 50 97 L 74 103 z" fill="rgb(150.54, 161.90, 200.58)" opacity="1.000" stroke="rgb(150.54, 161.90, 200.58)"/>
<path d="M 21 94 L 14 87 L 24 80 z" fill="rgb(191.07, 198.17, 221.64)" opacity="1.000" stroke="rgb(191.07, 198.17, 221.64)"/>
<path d="M 40 103 L 21 94 L 24 80 z" fill="rgb(182.29, 190.31, 217.08)" opacity="1.000" stroke="rgb(182.29, 190.31, 217.08)"/>
<path d="M 14 87 L 21 94 L 10 95 z" fill="rgb(195.80, 202.40, 224.10)" opacity="1.000" stroke="rgb(195.80, 202.40, 224.10)"/>
<path d="M 53 70 L 54 80 L 38 75 z" fill="rgb(162.02, 172.18, 206.54)" opacity="1.000" stroke="rgb(162.02, 172.18, 206.54)"/>
<path d="M 53 70 L 44 58 L 66 63 z" fill="rgb(155.94, 166.74, 203.38)" opacity="1.000" stroke="rgb(155.94, 166.74, 203.38)"/>
<path d="M 63 83 L 53 70 L 66 63 z" fill="rgb(149.52, 161.00, 200.05)" opacity="1.000" stroke="rgb(149.52, 161.00, 200.05)"/>
<path d="M 54 80 L 53 70 L 63 83 z" fill="rgb(153.58, 164.62, 202.16)" opacity="1.000" stroke="rgb(153.58, 164.62, 202.16)"/>
<path d="M 37 65 L 24 80 L 11 72 z" fill="rgb(186.68, 194.24, 219.36)" opacity="1.000" stroke="rgb(186.68, 194.24, 219.36)"/>
<path d="M 37 65 L 38 75 L 24 80 z" fill="rgb(177.56, 186.08, 214.62)" opacity="1.000" stroke="rgb(177.56, 186.08, 214.62)"/>
<path d="M 37 65 L 53 70 L 38 75 z" fill="rgb(167.76, 177.32, 209.53)" opacity="1.000" stroke="rgb(167.76, 177.32, 209.53)"/>
<path d="M 53 70 L 37 65 L 44 58 z" fill="rgb(165.74, 175.50, 208.48)" opacity="1.000" stroke="rgb(165.74, 175.50, 208.48)"/>
<path d="M 114 65 L 98 62 L 117 50 z" fill="rgb(99.87, 116.57, 174.24)" opacity="1.000" stroke="rgb(99.87, 116.57, 174.24)"/>
<path d="M 127 68 L 114 65 L 117 50 z" fill="rgb(90.08, 107.80, 169.15)" opacity="1.000" stroke="rgb(90.08, 107.80, 169.15)"/>
<path d="M 120 75 L 114 65 L 127 68 z" fill="rgb(89.06, 106.90, 168.62)" opacity="1.000" stroke="rgb(89.06, 106.90, 168.62)"/>
<path d="M 127 77 L 132 71 L 135 78 z" fill="rgb(77.92, 96.92, 162.83)" opacity="1.000" stroke="rgb(77.92, 96.92, 162.83)"/>
<path d="M 123 87 L 107 118 L 109 81 z" fill="rgb(96.49, 113.55, 172.49)" opacity="1.000" stroke="rgb(96.49, 113.55, 172.49)"/>
<path d="M 123 87 L 131 103 L 107 118 z" fill="rgb(89.06, 106.90, 168.62)" opacity="1.000" stroke="rgb(89.06, 106.90, 168.62)"/>
<path d="M 120 75 L 123 87 L 109 81 z" fill="rgb(92.10, 109.62, 170.20)" opacity="1.000" stroke="rgb(92.10, 109.62, 170.20)"/>
<path d="M 127 77 L 123 87 L 120 75 z" fill="rgb(86.02, 104.18, 167.04)" opacity="1.000" stroke="rgb(86.02, 104.18, 167.04)"/>
<path d="M 123 87 L 127 77 L 135 78 z" fill="rgb(80.96, 99.64, 164.41)" opacity="1.000" stroke="rgb(80.96, 99.64, 164.41)"/>
<path d="M 131 103 L 137 110 L 137 116 z" fill="rgb(74.20, 93.60, 160.90)" opacity="1.000" stroke="rgb(74.20, 93.60, 160.90)"/>
<path d="M 137 110 L 135 78 L 150 150 z" fill="rgb(68.46, 88.46, 157.92)" opacity="1.000" stroke="rgb(68.46, 88.46, 157.92)"/>
<path d="M 137 116 L 137 110 L 150 150 z" fill="rgb(67.78, 87.86, 157.56)" opacity="1.000" stroke="rgb(67.78, 87.86, 157.56)"/>
<path d="M 112 43 L 118 47 L 117 50 z" fill="rgb(93.79, 111.13, 171.08)" opacity="1.000" stroke="rgb(93.79, 111.13, 171.08)"/>
<path d="M 118 47 L 121 47 L 117 50 z" fill="rgb(90.75, 108.41, 169.50)" opacity="1.000" stroke="rgb(90.75, 108.41, 169.50)"/>
<path d="M 124 38 L 118 47 L 112 43 z" fill="rgb(91.43, 109.01, 169.85)" opacity="1.000" stroke="rgb(91.43, 109.01, 169.85)"/>
<path d="M 118 47 L 124 38 L 121 47 z" fill="rgb(88.39, 106.29, 168.27)" opacity="1.000" stroke="rgb(88.39, 106.29, 168.27)"/>
<path d="M 108 27 L 124 38 L 112 43 z" fill="rgb(94.80, 112.04, 171.61)" opacity="1.000" stroke="rgb(94.80, 112.04, 171.61)"/>
<path d="M 107 19 L 108 27 L 97 22 z" fill="rgb(105.61, 121.71, 177.23)" opacity="1.000" stroke="rgb(105.61, 121.71, 177.23)"/>
<path d="M 137 16 L 108 27 L 107 19 z" fill="rgb(92.10, 109.62, 170.20)" opacity="1.000" stroke="rgb(92.10, 109.62, 170.20)"/>
<path d="M 124 38 L 108 27 L 137 16 z" fill="rgb(86.36, 104.48, 167.22)" opacity="1.000" stroke="rgb(86.36, 104.48, 167.22)"/>
<path d="M 108 27 L 85 40 L 97 22 z" fill="rgb(113.04, 128.36, 181.09)" opacity="1.000" stroke="rgb(113.04, 128.36, 181.09)"/>
<path d="M 85 40 L 108 27 L 112 43 z" fill="rgb(107.98, 123.82, 178.46)" opacity="1.000" stroke="rgb(107.98, 123.82, 178.46)"/>
<path d="M 79 34 L 77 39 L 78 32 z" fill="rgb(131.96, 145.28, 190.92)" opacity="1.000" stroke="rgb(131.96, 145.28, 190.92)"/>
<path d="M 77 39 L 79 34 L 85 40 z" fill="rgb(129.60, 143.16, 189.69)" opacity="1.000" stroke="rgb(129.60, 143.16, 189.69)"/>
<path d="M 85 40 L 79 34 L 97 22 z" fill="rgb(122.84, 137.12, 186.18)" opacity="1.000" stroke="rgb(122.84, 137.12, 186.18)"/>
<path d="M 79 34 L 85 19 L 97 22 z" fill="rgb(122.84, 137.12, 186.18)" opacity="1.000" stroke="rgb(122.84, 137.12, 186.18)"/>
<path d="M 85 19 L 79 34 L 78 32 z" fill="rgb(129.26, 142.86, 189.52)" opacity="1.000" stroke="rgb(129.26, 142.86, 189.52)"/>
<path d="M 43 43 L 60 34 L 52 43 z" fill="rgb(158.64, 169.16, 204.79)" opacity="1.000" stroke="rgb(158.64, 169.16, 204.79)"/>
<path d="M 60 34 L 43 43 L 59 19 z" fill="rgb(156.28, 167.04, 203.56)" opacity="1.000" stroke="rgb(156.28, 167.04, 203.56)"/>
<path d="M 52 43 L 60 34 L 54 45 z" fill="rgb(154.93, 165.83, 202.86)" opacity="1.000" stroke="rgb(154.93, 165.83, 202.86)"/>
<path d="M 70 18 L 60 17 L 61 12 z" fill="rgb(146.48, 158.28, 198.47)" opacity="1.000" stroke="rgb(146.48, 158.28, 198.47)"/>
<path d="M 70 18 L 85 19 L 78 32 z" fill="rgb(132.30, 145.58, 191.10)" opacity="1.000" stroke="rgb(132.30, 145.58, 191.10)"/>
<path d="M 68 29 L 70 18 L 78 32 z" fill="rgb(138.04, 150.72, 194.08)" opacity="1.000" stroke="rgb(138.04, 150.72, 194.08)"/>
<path d="M 85 19 L 70 18 L 86 18 z" fill="rgb(129.60, 143.16, 189.69)" opacity="1.000" stroke="rgb(129.60, 143.16, 189.69)"/>
<path d="M 88 16 L 70 18 L 61 12 z" fill="rgb(137.03, 149.81, 193.55)" opacity="1.000" stroke="rgb(137.03, 149.81, 193.55)"/>
<path d="M 70 18 L 88 16 L 86 18 z" fill="rgb(128.58, 142.26, 189.16)" opacity="1.000" stroke="rgb(128.58, 142.26, 189.16)"/>
<path d="M 21 100 L 40 103 L 28 112 z" fill="rgb(180.94, 189.10, 216.38)" opacity="1.000" stroke="rgb(180.94, 189.10, 216.38)"/>
<path d="M 21 100 L 21 94 L 40 103 z" fill="rgb(183.30, 191.22, 217.60)" opacity="1.000" stroke="rgb(183.30, 191.22, 217.60)"/>
<path d="M 17 111 L 21 100 L 28 112 z" fill="rgb(188.71, 196.05, 220.41)" opacity="1.000" stroke="rgb(188.71, 196.05, 220.41)"/>
<path d="M 21 100 L 17 111 L 10 95 z" fill="rgb(194.79, 201.49, 223.57)" opacity="1.000" stroke="rgb(194.79, 201.49, 223.57)"/>
<path d="M 21 94 L 21 100 L 10 95 z" fill="rgb(193.44, 200.28, 222.87)" opacity="1.000" stroke="rgb(193.44, 200.28, 222.87)"/>
<path d="M 43 43 L 18 39 L 19 37 z" fill="rgb(183.98, 191.82, 217.96)" opacity="1.000" stroke="rgb(183.98, 191.82, 217.96)"/>
<path d="M 19 37 L 18 39 L 16 37 z" fill="rgb(193.10, 199.98, 222.70)" opacity="1.000" stroke="rgb(193.10, 199.98, 222.70)"/>
<path d="M 18 50 L 43 43 L 44 58 z" fill="rgb(175.53, 184.27, 213.57)" opacity="1.000" stroke="rgb(175.53, 184.27, 213.57)"/>
<path d="M 37 65 L 18 50 L 44 58 z" fill="rgb(177.56, 186.08, 214.62)" opacity="1.000" stroke="rgb(177.56, 186.08, 214.62)"/>
<path d="M 18 50 L 18 39 L 43 43 z" fill="rgb(184.32, 192.12, 218.13)" opacity="1.000" stroke="rgb(184.32, 192.12, 218.13)"/>
<path d="M 18 50 L 37 65 L 11 72 z" fill="rgb(188.71, 196.05, 220.41)" opacity="1.000" stroke="rgb(188.71, 196.05, 220.41)"/>
<path d="M 16 37 L 18 50 L 11 72 z" fill="rgb(195.80, 202.40, 224.10)" opacity="1.000" stroke="rgb(195.80, 202.40, 224.10)"/>
<path d="M 18 39 L 18 50 L 16 37 z" fill="rgb(193.44, 200.28, 222.87)" opacity="1.000" stroke="rgb(193.44, 200.28, 222.87)"/>
<path d="M 114 65 L 100 65 L 98 62 z" fill="rgb(105.61, 121.71, 177.23)" opacity="1.000" stroke="rgb(105.61, 121.71, 177.23)"/>
<path d="M 87 74 L 100 65 L 109 81 z" fill="rgb(111.02, 126.54, 180.04)" opacity="1.000" stroke="rgb(111.02, 126.54, 180.04)"/>
<path d="M 100 65 L 87 74 L 98 62 z" fill="rgb(114.73, 129.87, 181.97)" opacity="1.000" stroke="rgb(114.73, 129.87, 181.97)"/>
<path d="M 114 72 L 120 75 L 109 81 z" fill="rgb(95.14, 112.34, 171.78)" opacity="1.000" stroke="rgb(95.14, 112.34, 171.78)"/>
<path d="M 114 72 L 114 65 L 120 75 z" fill="rgb(93.45, 110.83, 170.91)" opacity="1.000" stroke="rgb(93.45, 110.83, 170.91)"/>
<path d="M 100 65 L 114 72 L 109 81 z" fill="rgb(101.90, 118.38, 175.30)" opacity="1.000" stroke="rgb(101.90, 118.38, 175.30)"/>
<path d="M 114 72 L 100 65 L 114 65 z" fill="rgb(100.21, 116.87, 174.42)" opacity="1.000" stroke="rgb(100.21, 116.87, 174.42)"/>
<path d="M 132 71 L 124 74 L 127 68 z" fill="rgb(81.63, 100.25, 164.76)" opacity="1.000" stroke="rgb(81.63, 100.25, 164.76)"/>
<path d="M 127 77 L 124 74 L 132 71 z" fill="rgb(81.63, 100.25, 164.76)" opacity="1.000" stroke="rgb(81.63, 100.25, 164.76)"/>
<path d="M 124 74 L 120 75 L 127 68 z" fill="rgb(85.68, 103.88, 166.87)" opacity="1.000" stroke="rgb(85.68, 103.88, 166.87)"/>
<path d="M 124 74 L 127 77 L 120 75 z" fill="rgb(85.68, 103.88, 166.87)" opacity="1.000" stroke="rgb(85.68, 103.88, 166.87)"/>
<path d="M 134 92 L 123 87 L 135 78 z" fill="rgb(78.59, 97.53, 163.18)" opacity="1.000" stroke="rgb(78.59, 97.53, 163.18)"/>
<path d="M 123 87 L 134 92 L 131 103 z" fill="rgb(79.94, 98.74, 163.88)" opacity="1.000" stroke="rgb(79.94, 98.74, 163.88)"/>
<path d="M 137 110 L 134 92 L 135 78 z" fill="rgb(73.86, 93.30, 160.72)" opacity="1.000" stroke="rgb(73.86, 93.30, 160.72)"/>
<path d="M 134 92 L 137 110 L 131 103 z" fill="rgb(75.21, 94.51, 161.43)" opacity="1.000" stroke="rgb(75.21, 94.51, 161.43)"/>
<path d="M 66 26 L 60 34 L 59 19 z" fill="rgb(148.51, 160.09, 199.52)" opacity="1.000" stroke="rgb(148.51, 160.09, 199.52)"/>
<path d="M 60 34 L 66 26 L 68 29 z" fill="rgb(145.47, 157.37, 197.94)" opacity="1.000" stroke="rgb(145.47, 157.37, 197.94)"/>
<path d="M 66 26 L 70 18 L 68 29 z" fill="rgb(142.09, 154.35, 196.19)" opacity="1.000" stroke="rgb(142.09, 154.35, 196.19)"/>
<path d="M 66 26 L 59 19 L 60 17 z" fill="rgb(148.51, 160.09, 199.52)" opacity="1.000" stroke="rgb(148.51, 160.09, 199.52)"/>
<path d="M 70 18 L 66 26 L 60 17 z" fill="rgb(144.80, 156.76, 197.59)" opacity="1.000" stroke="rgb(144.80, 156.76, 197.59)"/>
<path d="M 65 43 L 68 48 L 54 45 z" fill="rgb(147.84, 159.48, 199.17)" opacity="1.000" stroke="rgb(147.84, 159.48, 199.17)"/>
<path d="M 60 34 L 65 43 L 54 45 z" fill="rgb(150.54, 161.90, 200.58)" opacity="1.000" stroke="rgb(150.54, 161.90, 200.58)"/>
<path d="M 65 43 L 77 39 L 68 48 z" fill="rgb(140.07, 152.53, 195.13)" opacity="1.000" stroke="rgb(140.07, 152.53, 195.13)"/>
<path d="M 65 43 L 68 29 L 77 39 z" fill="rgb(140.07, 152.53, 195.13)" opacity="1.000" stroke="rgb(140.07, 152.53, 195.13)"/>
<path d="M 65 43 L 60 34 L 68 29 z" fill="rgb(145.81, 157.67, 198.12)" opacity="1.000" stroke="rgb(145.81, 157.67, 198.12)"/>
 <text style="fill:white; filter:url(#shadow);" text-anchor="middle" font-size="60.0" class="sans" x="75.0" y="97.5" fill="black">PKC</text>
</g></svg>
