<?xml version="1.0" encoding="utf-8"?>
<svg xmlns="http://www.w3.org/2000/svg" width="150" height="150"
     xmlns:xlink="http://www.w3.org/1999/xlink">
  <defs>
    <linearGradient id="bluegradient" x1="0" x2="0" y1="0" y2="1">
      <stop stop-color="#0E38FF" offset="0%"/>
      <stop stop-color="#729BFF" offset="10%"/>
      <stop stop-color="#f0f0ff" offset="100%"/>
    </linearGradient>
    <radialGradient id="circuitcolor">
      <stop stop-color="#80d0ff" offset="20%"/>
      <stop stop-color="#40a0ff" offset="100%"/>
    </radialGradient>
    <radialGradient id="wires" cx="25%" cy="50%" r="100%" fx="100%" fy="100%">
      <stop stop-color="#404080" offset="0%"/>
      <stop stop-color="#6080a0" offset="40%"/>
      <stop stop-color="#80a0c0" offset="100%"/>
    </radialGradient>
    <radialGradient id="blues">
       <stop offset="0%" stop-color="rgba(128,192,192,0.8)"/>
       <stop offset="30%" stop-color="rgba(65,192,225,0.5)"/>
       <stop offset="100%" stop-color="rgba(192,192,225,0.8)"/>
    </radialGradient>
    <radialGradient id="blues2">
       <stop offset="0%" stop-color="rgba(64,64,225,0.5)"/>
       <stop offset="50%" stop-color="rgba(92,92,225,0.8)"/>
       <stop offset="100%" stop-color="rgba(128,128,225,0.8)"/>
    </radialGradient>
<filter id="shadow">
  <feDropShadow dx="4" dy="8" stdDeviation="4"/>
</filter>
  </defs>
  <style>
    .sans {font-family: Arial, Helvetica, sans-serif;}
  </style>
  <!-- created with "logos.py -min=10 -colors=gradient -num=100 -conf FSE" -->
   
<path d="M 0 150 L 75 137 L 150 150 z" fill="rgb(135.00, 148.00, 192.50)" opacity="1.000" stroke="rgb(135.00, 148.00, 192.50)"/>
<path d="M 10 70 L 0 150 L 0 0 z" fill="rgb(207.62, 212.98, 230.24)" opacity="1.000" stroke="rgb(207.62, 212.98, 230.24)"/>
<path d="M 150 0 L 89 11 L 0 0 z" fill="rgb(130.27, 143.77, 190.04)" opacity="1.000" stroke="rgb(130.27, 143.77, 190.04)"/>
<path d="M 139 67 L 150 0 L 150 150 z" fill="rgb(62.72, 83.32, 154.93)" opacity="1.000" stroke="rgb(62.72, 83.32, 154.93)"/>
<path d="M 75 137 L 99 136 L 150 150 z" fill="rgb(101.56, 118.08, 175.12)" opacity="1.000" stroke="rgb(101.56, 118.08, 175.12)"/>
<path d="M 133 28 L 132 16 L 150 0 z" fill="rgb(70.82, 90.58, 159.14)" opacity="1.000" stroke="rgb(70.82, 90.58, 159.14)"/>
<path d="M 15 135 L 52 135 L 0 150 z" fill="rgb(188.37, 195.75, 220.24)" opacity="1.000" stroke="rgb(188.37, 195.75, 220.24)"/>
<path d="M 52 135 L 75 137 L 0 150 z" fill="rgb(168.10, 177.62, 209.70)" opacity="1.000" stroke="rgb(168.10, 177.62, 209.70)"/>
<path d="M 79 127 L 99 136 L 75 137 z" fill="rgb(125.54, 139.54, 187.58)" opacity="1.000" stroke="rgb(125.54, 139.54, 187.58)"/>
<path d="M 89 11 L 40 12 L 0 0 z" fill="rgb(167.43, 177.01, 209.35)" opacity="1.000" stroke="rgb(167.43, 177.01, 209.35)"/>
<path d="M 40 12 L 23 14 L 0 0 z" fill="rgb(189.72, 196.96, 220.94)" opacity="1.000" stroke="rgb(189.72, 196.96, 220.94)"/>
<path d="M 62 25 L 40 12 L 89 11 z" fill="rgb(146.48, 158.28, 198.47)" opacity="1.000" stroke="rgb(146.48, 158.28, 198.47)"/>
<path d="M 138 84 L 139 67 L 150 150 z" fill="rgb(66.77, 86.95, 157.04)" opacity="1.000" stroke="rgb(66.77, 86.95, 157.04)"/>
<path d="M 133 92 L 138 84 L 150 150 z" fill="rgb(68.80, 88.76, 158.09)" opacity="1.000" stroke="rgb(68.80, 88.76, 158.09)"/>
<path d="M 139 67 L 139 63 L 150 0 z" fill="rgb(66.43, 86.65, 156.86)" opacity="1.000" stroke="rgb(66.43, 86.65, 156.86)"/>
<path d="M 139 63 L 139 40 L 150 0 z" fill="rgb(66.43, 86.65, 156.86)" opacity="1.000" stroke="rgb(66.43, 86.65, 156.86)"/>
<path d="M 135 32 L 133 28 L 150 0 z" fill="rgb(69.81, 89.67, 158.62)" opacity="1.000" stroke="rgb(69.81, 89.67, 158.62)"/>
<path d="M 139 40 L 135 32 L 150 0 z" fill="rgb(67.78, 87.86, 157.56)" opacity="1.000" stroke="rgb(67.78, 87.86, 157.56)"/>
<path d="M 22 121 L 32 103 L 45 128 z" fill="rgb(177.56, 186.08, 214.62)" opacity="1.000" stroke="rgb(177.56, 186.08, 214.62)"/>
<path d="M 52 135 L 70 136 L 75 137 z" fill="rgb(144.46, 156.46, 197.42)" opacity="1.000" stroke="rgb(144.46, 156.46, 197.42)"/>
<path d="M 70 136 L 79 127 L 75 137 z" fill="rgb(135.34, 148.30, 192.68)" opacity="1.000" stroke="rgb(135.34, 148.30, 192.68)"/>
<path d="M 78 93 L 94 93 L 79 94 z" fill="rgb(126.22, 140.14, 187.94)" opacity="1.000" stroke="rgb(126.22, 140.14, 187.94)"/>
<path d="M 94 93 L 78 93 L 84 71 z" fill="rgb(124.53, 138.63, 187.06)" opacity="1.000" stroke="rgb(124.53, 138.63, 187.06)"/>
<path d="M 55 114 L 52 135 L 45 128 z" fill="rgb(159.66, 170.06, 205.32)" opacity="1.000" stroke="rgb(159.66, 170.06, 205.32)"/>
<path d="M 55 114 L 32 103 L 45 92 z" fill="rgb(166.41, 176.11, 208.83)" opacity="1.000" stroke="rgb(166.41, 176.11, 208.83)"/>
<path d="M 32 103 L 55 114 L 45 128 z" fill="rgb(166.41, 176.11, 208.83)" opacity="1.000" stroke="rgb(166.41, 176.11, 208.83)"/>
<path d="M 55 114 L 70 136 L 52 135 z" fill="rgb(151.21, 162.51, 200.93)" opacity="1.000" stroke="rgb(151.21, 162.51, 200.93)"/>
<path d="M 111 13 L 89 11 L 150 0 z" fill="rgb(92.78, 110.22, 170.56)" opacity="1.000" stroke="rgb(92.78, 110.22, 170.56)"/>
<path d="M 132 16 L 111 13 L 150 0 z" fill="rgb(78.25, 97.23, 163.01)" opacity="1.000" stroke="rgb(78.25, 97.23, 163.01)"/>
<path d="M 76 23 L 62 25 L 89 11 z" fill="rgb(134.32, 147.40, 192.15)" opacity="1.000" stroke="rgb(134.32, 147.40, 192.15)"/>
<path d="M 77 45 L 63 51 L 69 42 z" fill="rgb(140.40, 152.84, 195.31)" opacity="1.000" stroke="rgb(140.40, 152.84, 195.31)"/>
<path d="M 122 90 L 94 93 L 111 79 z" fill="rgb(100.55, 117.17, 174.59)" opacity="1.000" stroke="rgb(100.55, 117.17, 174.59)"/>
<path d="M 29 130 L 22 121 L 45 128 z" fill="rgb(178.57, 186.99, 215.15)" opacity="1.000" stroke="rgb(178.57, 186.99, 215.15)"/>
<path d="M 29 130 L 52 135 L 15 135 z" fill="rgb(178.57, 186.99, 215.15)" opacity="1.000" stroke="rgb(178.57, 186.99, 215.15)"/>
<path d="M 52 135 L 29 130 L 45 128 z" fill="rgb(168.44, 177.92, 209.88)" opacity="1.000" stroke="rgb(168.44, 177.92, 209.88)"/>
<path d="M 10 70 L 17 123 L 0 150 z" fill="rgb(201.88, 207.84, 227.26)" opacity="1.000" stroke="rgb(201.88, 207.84, 227.26)"/>
<path d="M 22 121 L 17 123 L 32 103 z" fill="rgb(187.02, 194.54, 219.54)" opacity="1.000" stroke="rgb(187.02, 194.54, 219.54)"/>
<path d="M 89 70 L 94 93 L 84 71 z" fill="rgb(120.81, 135.31, 185.13)" opacity="1.000" stroke="rgb(120.81, 135.31, 185.13)"/>
<path d="M 94 93 L 89 70 L 111 79 z" fill="rgb(111.69, 127.15, 180.39)" opacity="1.000" stroke="rgb(111.69, 127.15, 180.39)"/>
<path d="M 66 93 L 78 93 L 79 94 z" fill="rgb(135.68, 148.60, 192.85)" opacity="1.000" stroke="rgb(135.68, 148.60, 192.85)"/>
<path d="M 94 93 L 77 120 L 79 94 z" fill="rgb(126.56, 140.44, 188.11)" opacity="1.000" stroke="rgb(126.56, 140.44, 188.11)"/>
<path d="M 77 120 L 66 93 L 79 94 z" fill="rgb(136.01, 148.91, 193.03)" opacity="1.000" stroke="rgb(136.01, 148.91, 193.03)"/>
<path d="M 66 93 L 77 120 L 55 114 z" fill="rgb(144.12, 156.16, 197.24)" opacity="1.000" stroke="rgb(144.12, 156.16, 197.24)"/>
<path d="M 70 136 L 77 120 L 79 127 z" fill="rgb(134.66, 147.70, 192.32)" opacity="1.000" stroke="rgb(134.66, 147.70, 192.32)"/>
<path d="M 55 114 L 77 120 L 70 136 z" fill="rgb(142.77, 154.95, 196.54)" opacity="1.000" stroke="rgb(142.77, 154.95, 196.54)"/>
<path d="M 77 120 L 94 93 L 115 113 z" fill="rgb(114.40, 129.56, 181.79)" opacity="1.000" stroke="rgb(114.40, 129.56, 181.79)"/>
<path d="M 115 118 L 77 120 L 115 113 z" fill="rgb(107.30, 123.22, 178.10)" opacity="1.000" stroke="rgb(107.30, 123.22, 178.10)"/>
<path d="M 79 127 L 77 120 L 99 136 z" fill="rgb(124.87, 138.93, 187.23)" opacity="1.000" stroke="rgb(124.87, 138.93, 187.23)"/>
<path d="M 77 120 L 115 118 L 99 136 z" fill="rgb(112.71, 128.05, 180.91)" opacity="1.000" stroke="rgb(112.71, 128.05, 180.91)"/>
<path d="M 62 25 L 46 19 L 40 12 z" fill="rgb(161.01, 171.27, 206.02)" opacity="1.000" stroke="rgb(161.01, 171.27, 206.02)"/>
<path d="M 53 24 L 46 19 L 62 25 z" fill="rgb(156.62, 167.34, 203.74)" opacity="1.000" stroke="rgb(156.62, 167.34, 203.74)"/>
<path d="M 40 12 L 46 19 L 44 20 z" fill="rgb(167.09, 176.71, 209.18)" opacity="1.000" stroke="rgb(167.09, 176.71, 209.18)"/>
<path d="M 46 19 L 53 24 L 44 20 z" fill="rgb(162.70, 172.78, 206.90)" opacity="1.000" stroke="rgb(162.70, 172.78, 206.90)"/>
<path d="M 72 35 L 77 45 L 69 42 z" fill="rgb(137.36, 150.12, 193.73)" opacity="1.000" stroke="rgb(137.36, 150.12, 193.73)"/>
<path d="M 62 25 L 72 35 L 69 42 z" fill="rgb(142.43, 154.65, 196.36)" opacity="1.000" stroke="rgb(142.43, 154.65, 196.36)"/>
<path d="M 17 123 L 26 85 L 32 103 z" fill="rgb(185.67, 193.33, 218.83)" opacity="1.000" stroke="rgb(185.67, 193.33, 218.83)"/>
<path d="M 32 103 L 26 85 L 45 92 z" fill="rgb(176.21, 184.87, 213.92)" opacity="1.000" stroke="rgb(176.21, 184.87, 213.92)"/>
<path d="M 26 85 L 35 81 L 45 92 z" fill="rgb(175.20, 183.96, 213.39)" opacity="1.000" stroke="rgb(175.20, 183.96, 213.39)"/>
<path d="M 35 81 L 46 88 L 45 92 z" fill="rgb(168.44, 177.92, 209.88)" opacity="1.000" stroke="rgb(168.44, 177.92, 209.88)"/>
<path d="M 61 73 L 45 70 L 46 67 z" fill="rgb(159.66, 170.06, 205.32)" opacity="1.000" stroke="rgb(159.66, 170.06, 205.32)"/>
<path d="M 45 70 L 61 73 L 51 82 z" fill="rgb(157.97, 168.55, 204.44)" opacity="1.000" stroke="rgb(157.97, 168.55, 204.44)"/>
<path d="M 130 99 L 122 90 L 133 92 z" fill="rgb(80.96, 99.64, 164.41)" opacity="1.000" stroke="rgb(80.96, 99.64, 164.41)"/>
<path d="M 130 99 L 133 92 L 150 150 z" fill="rgb(71.50, 91.18, 159.50)" opacity="1.000" stroke="rgb(71.50, 91.18, 159.50)"/>
<path d="M 130 126 L 130 99 L 150 150 z" fill="rgb(72.51, 92.09, 160.02)" opacity="1.000" stroke="rgb(72.51, 92.09, 160.02)"/>
<path d="M 122 116 L 115 118 L 115 113 z" fill="rgb(92.10, 109.62, 170.20)" opacity="1.000" stroke="rgb(92.10, 109.62, 170.20)"/>
<path d="M 115 118 L 123 130 L 99 136 z" fill="rgb(97.17, 114.15, 172.84)" opacity="1.000" stroke="rgb(97.17, 114.15, 172.84)"/>
<path d="M 99 136 L 123 130 L 150 150 z" fill="rgb(85.35, 103.57, 166.69)" opacity="1.000" stroke="rgb(85.35, 103.57, 166.69)"/>
<path d="M 123 130 L 130 126 L 150 150 z" fill="rgb(74.88, 94.20, 161.25)" opacity="1.000" stroke="rgb(74.88, 94.20, 161.25)"/>
<path d="M 122 116 L 123 130 L 115 118 z" fill="rgb(89.40, 107.20, 168.80)" opacity="1.000" stroke="rgb(89.40, 107.20, 168.80)"/>
<path d="M 123 130 L 122 116 L 130 126 z" fill="rgb(84.33, 102.67, 166.17)" opacity="1.000" stroke="rgb(84.33, 102.67, 166.17)"/>
<path d="M 138 84 L 122 79 L 139 67 z" fill="rgb(76.23, 95.41, 161.95)" opacity="1.000" stroke="rgb(76.23, 95.41, 161.95)"/>
<path d="M 122 79 L 138 84 L 133 92 z" fill="rgb(78.25, 97.23, 163.01)" opacity="1.000" stroke="rgb(78.25, 97.23, 163.01)"/>
<path d="M 122 90 L 122 79 L 133 92 z" fill="rgb(83.66, 102.06, 165.82)" opacity="1.000" stroke="rgb(83.66, 102.06, 165.82)"/>
<path d="M 122 79 L 139 63 L 139 67 z" fill="rgb(75.89, 95.11, 161.78)" opacity="1.000" stroke="rgb(75.89, 95.11, 161.78)"/>
<path d="M 111 13 L 108 27 L 89 11 z" fill="rgb(106.96, 122.92, 177.93)" opacity="1.000" stroke="rgb(106.96, 122.92, 177.93)"/>
<path d="M 139 63 L 136 43 L 139 40 z" fill="rgb(71.16, 90.88, 159.32)" opacity="1.000" stroke="rgb(71.16, 90.88, 159.32)"/>
<path d="M 136 43 L 135 32 L 139 40 z" fill="rgb(72.51, 92.09, 160.02)" opacity="1.000" stroke="rgb(72.51, 92.09, 160.02)"/>
<path d="M 17 125 L 15 135 L 0 150 z" fill="rgb(200.19, 206.33, 226.38)" opacity="1.000" stroke="rgb(200.19, 206.33, 226.38)"/>
<path d="M 17 123 L 17 125 L 0 150 z" fill="rgb(199.52, 205.72, 226.03)" opacity="1.000" stroke="rgb(199.52, 205.72, 226.03)"/>
<path d="M 17 125 L 29 130 L 15 135 z" fill="rgb(190.40, 197.56, 221.29)" opacity="1.000" stroke="rgb(190.40, 197.56, 221.29)"/>
<path d="M 29 130 L 17 125 L 22 121 z" fill="rgb(188.03, 195.45, 220.06)" opacity="1.000" stroke="rgb(188.03, 195.45, 220.06)"/>
<path d="M 17 125 L 17 123 L 22 121 z" fill="rgb(192.08, 199.08, 222.17)" opacity="1.000" stroke="rgb(192.08, 199.08, 222.17)"/>
<path d="M 98 55 L 108 27 L 118 48 z" fill="rgb(101.56, 118.08, 175.12)" opacity="1.000" stroke="rgb(101.56, 118.08, 175.12)"/>
<path d="M 56 95 L 55 114 L 45 92 z" fill="rgb(158.31, 168.85, 204.61)" opacity="1.000" stroke="rgb(158.31, 168.85, 204.61)"/>
<path d="M 56 95 L 66 93 L 55 114 z" fill="rgb(151.21, 162.51, 200.93)" opacity="1.000" stroke="rgb(151.21, 162.51, 200.93)"/>
<path d="M 76 23 L 73 30 L 62 25 z" fill="rgb(139.73, 152.23, 194.96)" opacity="1.000" stroke="rgb(139.73, 152.23, 194.96)"/>
<path d="M 73 30 L 72 35 L 62 25 z" fill="rgb(141.08, 153.44, 195.66)" opacity="1.000" stroke="rgb(141.08, 153.44, 195.66)"/>
<path d="M 23 14 L 17 37 L 0 0 z" fill="rgb(197.49, 203.91, 224.98)" opacity="1.000" stroke="rgb(197.49, 203.91, 224.98)"/>
<path d="M 17 37 L 10 70 L 0 0 z" fill="rgb(201.88, 207.84, 227.26)" opacity="1.000" stroke="rgb(201.88, 207.84, 227.26)"/>
<path d="M 28 28 L 40 12 L 44 20 z" fill="rgb(173.17, 182.15, 212.34)" opacity="1.000" stroke="rgb(173.17, 182.15, 212.34)"/>
<path d="M 31 30 L 28 28 L 44 20 z" fill="rgb(176.21, 184.87, 213.92)" opacity="1.000" stroke="rgb(176.21, 184.87, 213.92)"/>
<path d="M 40 12 L 28 28 L 23 14 z" fill="rgb(180.26, 188.50, 216.02)" opacity="1.000" stroke="rgb(180.26, 188.50, 216.02)"/>
<path d="M 28 28 L 17 37 L 23 14 z" fill="rgb(188.03, 195.45, 220.06)" opacity="1.000" stroke="rgb(188.03, 195.45, 220.06)"/>
<path d="M 36 78 L 45 70 L 51 82 z" fill="rgb(166.41, 176.11, 208.83)" opacity="1.000" stroke="rgb(166.41, 176.11, 208.83)"/>
<path d="M 46 88 L 36 78 L 51 82 z" fill="rgb(166.08, 175.80, 208.65)" opacity="1.000" stroke="rgb(166.08, 175.80, 208.65)"/>
<path d="M 36 78 L 46 88 L 35 81 z" fill="rgb(171.48, 180.64, 211.46)" opacity="1.000" stroke="rgb(171.48, 180.64, 211.46)"/>
<path d="M 130 99 L 122 106 L 122 90 z" fill="rgb(84.67, 102.97, 166.34)" opacity="1.000" stroke="rgb(84.67, 102.97, 166.34)"/>
<path d="M 94 93 L 122 106 L 115 113 z" fill="rgb(99.20, 115.96, 173.89)" opacity="1.000" stroke="rgb(99.20, 115.96, 173.89)"/>
<path d="M 122 90 L 122 106 L 94 93 z" fill="rgb(96.83, 113.85, 172.66)" opacity="1.000" stroke="rgb(96.83, 113.85, 172.66)"/>
<path d="M 121 79 L 122 90 L 111 79 z" fill="rgb(91.43, 109.01, 169.85)" opacity="1.000" stroke="rgb(91.43, 109.01, 169.85)"/>
<path d="M 121 79 L 122 79 L 122 90 z" fill="rgb(87.71, 105.69, 167.92)" opacity="1.000" stroke="rgb(87.71, 105.69, 167.92)"/>
<path d="M 108 27 L 118 33 L 118 48 z" fill="rgb(94.80, 112.04, 171.61)" opacity="1.000" stroke="rgb(94.80, 112.04, 171.61)"/>
<path d="M 135 32 L 118 33 L 133 28 z" fill="rgb(80.62, 99.34, 164.24)" opacity="1.000" stroke="rgb(80.62, 99.34, 164.24)"/>
<path d="M 118 33 L 132 16 L 133 28 z" fill="rgb(81.63, 100.25, 164.76)" opacity="1.000" stroke="rgb(81.63, 100.25, 164.76)"/>
<path d="M 136 43 L 118 33 L 135 32 z" fill="rgb(79.60, 98.44, 163.71)" opacity="1.000" stroke="rgb(79.60, 98.44, 163.71)"/>
<path d="M 118 33 L 136 43 L 118 48 z" fill="rgb(85.35, 103.57, 166.69)" opacity="1.000" stroke="rgb(85.35, 103.57, 166.69)"/>
<path d="M 118 33 L 111 13 L 132 16 z" fill="rgb(89.06, 106.90, 168.62)" opacity="1.000" stroke="rgb(89.06, 106.90, 168.62)"/>
<path d="M 118 33 L 108 27 L 111 13 z" fill="rgb(97.17, 114.15, 172.84)" opacity="1.000" stroke="rgb(97.17, 114.15, 172.84)"/>
<path d="M 85 58 L 89 70 L 84 71 z" fill="rgb(123.85, 138.03, 186.71)" opacity="1.000" stroke="rgb(123.85, 138.03, 186.71)"/>
<path d="M 61 73 L 85 58 L 84 71 z" fill="rgb(133.31, 146.49, 191.62)" opacity="1.000" stroke="rgb(133.31, 146.49, 191.62)"/>
<path d="M 85 58 L 61 73 L 63 51 z" fill="rgb(140.40, 152.84, 195.31)" opacity="1.000" stroke="rgb(140.40, 152.84, 195.31)"/>
<path d="M 98 55 L 82 36 L 108 27 z" fill="rgb(113.72, 128.96, 181.44)" opacity="1.000" stroke="rgb(113.72, 128.96, 181.44)"/>
<path d="M 82 36 L 73 30 L 76 23 z" fill="rgb(132.97, 146.19, 191.45)" opacity="1.000" stroke="rgb(132.97, 146.19, 191.45)"/>
<path d="M 82 36 L 76 23 L 89 11 z" fill="rgb(127.57, 141.35, 188.64)" opacity="1.000" stroke="rgb(127.57, 141.35, 188.64)"/>
<path d="M 108 27 L 82 36 L 89 11 z" fill="rgb(116.76, 131.68, 183.02)" opacity="1.000" stroke="rgb(116.76, 131.68, 183.02)"/>
<path d="M 72 35 L 82 36 L 77 45 z" fill="rgb(132.97, 146.19, 191.45)" opacity="1.000" stroke="rgb(132.97, 146.19, 191.45)"/>
<path d="M 73 30 L 82 36 L 72 35 z" fill="rgb(134.32, 147.40, 192.15)" opacity="1.000" stroke="rgb(134.32, 147.40, 192.15)"/>
<path d="M 98 55 L 118 50 L 111 79 z" fill="rgb(100.55, 117.17, 174.59)" opacity="1.000" stroke="rgb(100.55, 117.17, 174.59)"/>
<path d="M 118 50 L 98 55 L 118 48 z" fill="rgb(98.18, 115.06, 173.36)" opacity="1.000" stroke="rgb(98.18, 115.06, 173.36)"/>
<path d="M 118 50 L 121 79 L 111 79 z" fill="rgb(92.78, 110.22, 170.56)" opacity="1.000" stroke="rgb(92.78, 110.22, 170.56)"/>
<path d="M 121 79 L 118 50 L 122 79 z" fill="rgb(89.06, 106.90, 168.62)" opacity="1.000" stroke="rgb(89.06, 106.90, 168.62)"/>
<path d="M 122 79 L 118 50 L 139 63 z" fill="rgb(82.98, 101.46, 165.46)" opacity="1.000" stroke="rgb(82.98, 101.46, 165.46)"/>
<path d="M 118 50 L 136 43 L 139 63 z" fill="rgb(78.25, 97.23, 163.01)" opacity="1.000" stroke="rgb(78.25, 97.23, 163.01)"/>
<path d="M 136 43 L 118 50 L 118 48 z" fill="rgb(85.35, 103.57, 166.69)" opacity="1.000" stroke="rgb(85.35, 103.57, 166.69)"/>
<path d="M 56 95 L 64 89 L 66 93 z" fill="rgb(148.17, 159.79, 199.35)" opacity="1.000" stroke="rgb(148.17, 159.79, 199.35)"/>
<path d="M 61 73 L 64 89 L 51 82 z" fill="rgb(151.55, 162.81, 201.10)" opacity="1.000" stroke="rgb(151.55, 162.81, 201.10)"/>
<path d="M 66 93 L 64 89 L 78 93 z" fill="rgb(140.74, 153.14, 195.48)" opacity="1.000" stroke="rgb(140.74, 153.14, 195.48)"/>
<path d="M 78 93 L 64 89 L 84 71 z" fill="rgb(134.66, 147.70, 192.32)" opacity="1.000" stroke="rgb(134.66, 147.70, 192.32)"/>
<path d="M 64 89 L 61 73 L 84 71 z" fill="rgb(140.40, 152.84, 195.31)" opacity="1.000" stroke="rgb(140.40, 152.84, 195.31)"/>
<path d="M 53 90 L 46 88 L 51 82 z" fill="rgb(160.33, 170.67, 205.67)" opacity="1.000" stroke="rgb(160.33, 170.67, 205.67)"/>
<path d="M 64 89 L 53 90 L 51 82 z" fill="rgb(154.25, 165.23, 202.51)" opacity="1.000" stroke="rgb(154.25, 165.23, 202.51)"/>
<path d="M 53 90 L 64 89 L 56 95 z" fill="rgb(152.56, 163.72, 201.63)" opacity="1.000" stroke="rgb(152.56, 163.72, 201.63)"/>
<path d="M 46 88 L 53 90 L 45 92 z" fill="rgb(162.36, 172.48, 206.72)" opacity="1.000" stroke="rgb(162.36, 172.48, 206.72)"/>
<path d="M 53 90 L 56 95 L 45 92 z" fill="rgb(158.98, 169.46, 204.96)" opacity="1.000" stroke="rgb(158.98, 169.46, 204.96)"/>
<path d="M 28 55 L 41 44 L 38 64 z" fill="rgb(174.86, 183.66, 213.22)" opacity="1.000" stroke="rgb(174.86, 183.66, 213.22)"/>
<path d="M 38 64 L 54 50 L 46 67 z" fill="rgb(164.39, 174.29, 207.77)" opacity="1.000" stroke="rgb(164.39, 174.29, 207.77)"/>
<path d="M 41 44 L 54 50 L 38 64 z" fill="rgb(166.08, 175.80, 208.65)" opacity="1.000" stroke="rgb(166.08, 175.80, 208.65)"/>
<path d="M 54 50 L 61 73 L 46 67 z" fill="rgb(156.62, 167.34, 203.74)" opacity="1.000" stroke="rgb(156.62, 167.34, 203.74)"/>
<path d="M 61 73 L 54 50 L 63 51 z" fill="rgb(150.88, 162.20, 200.75)" opacity="1.000" stroke="rgb(150.88, 162.20, 200.75)"/>
<path d="M 45 35 L 31 30 L 44 20 z" fill="rgb(170.47, 179.73, 210.93)" opacity="1.000" stroke="rgb(170.47, 179.73, 210.93)"/>
<path d="M 53 24 L 45 35 L 44 20 z" fill="rgb(163.04, 173.08, 207.07)" opacity="1.000" stroke="rgb(163.04, 173.08, 207.07)"/>
<path d="M 36 78 L 42 67 L 45 70 z" fill="rgb(169.45, 178.83, 210.41)" opacity="1.000" stroke="rgb(169.45, 178.83, 210.41)"/>
<path d="M 42 67 L 36 78 L 38 64 z" fill="rgb(171.82, 180.94, 211.64)" opacity="1.000" stroke="rgb(171.82, 180.94, 211.64)"/>
<path d="M 45 70 L 42 67 L 46 67 z" fill="rgb(166.08, 175.80, 208.65)" opacity="1.000" stroke="rgb(166.08, 175.80, 208.65)"/>
<path d="M 42 67 L 38 64 L 46 67 z" fill="rgb(168.44, 177.92, 209.88)" opacity="1.000" stroke="rgb(168.44, 177.92, 209.88)"/>
<path d="M 26 85 L 20 77 L 35 81 z" fill="rgb(183.64, 191.52, 217.78)" opacity="1.000" stroke="rgb(183.64, 191.52, 217.78)"/>
<path d="M 20 77 L 36 78 L 35 81 z" fill="rgb(180.26, 188.50, 216.02)" opacity="1.000" stroke="rgb(180.26, 188.50, 216.02)"/>
<path d="M 20 77 L 17 123 L 10 70 z" fill="rgb(195.12, 201.80, 223.75)" opacity="1.000" stroke="rgb(195.12, 201.80, 223.75)"/>
<path d="M 20 77 L 26 85 L 17 123 z" fill="rgb(189.72, 196.96, 220.94)" opacity="1.000" stroke="rgb(189.72, 196.96, 220.94)"/>
<path d="M 128 105 L 122 106 L 130 99 z" fill="rgb(82.64, 101.16, 165.29)" opacity="1.000" stroke="rgb(82.64, 101.16, 165.29)"/>
<path d="M 128 105 L 130 99 L 130 126 z" fill="rgb(79.94, 98.74, 163.88)" opacity="1.000" stroke="rgb(79.94, 98.74, 163.88)"/>
<path d="M 85 58 L 96 58 L 89 70 z" fill="rgb(119.80, 134.40, 184.60)" opacity="1.000" stroke="rgb(119.80, 134.40, 184.60)"/>
<path d="M 89 70 L 96 58 L 111 79 z" fill="rgb(111.02, 126.54, 180.04)" opacity="1.000" stroke="rgb(111.02, 126.54, 180.04)"/>
<path d="M 96 58 L 98 55 L 111 79 z" fill="rgb(107.98, 123.82, 178.46)" opacity="1.000" stroke="rgb(107.98, 123.82, 178.46)"/>
<path d="M 96 58 L 84 55 L 98 55 z" fill="rgb(117.10, 131.98, 183.20)" opacity="1.000" stroke="rgb(117.10, 131.98, 183.20)"/>
<path d="M 84 55 L 96 58 L 85 58 z" fill="rgb(121.49, 135.91, 185.48)" opacity="1.000" stroke="rgb(121.49, 135.91, 185.48)"/>
<path d="M 17 37 L 25 36 L 24 50 z" fill="rgb(188.71, 196.05, 220.41)" opacity="1.000" stroke="rgb(188.71, 196.05, 220.41)"/>
<path d="M 25 36 L 30 39 L 24 50 z" fill="rgb(184.32, 192.12, 218.13)" opacity="1.000" stroke="rgb(184.32, 192.12, 218.13)"/>
<path d="M 28 28 L 25 36 L 17 37 z" fill="rgb(187.36, 194.84, 219.71)" opacity="1.000" stroke="rgb(187.36, 194.84, 219.71)"/>
<path d="M 25 36 L 28 28 L 31 30 z" fill="rgb(182.63, 190.61, 217.25)" opacity="1.000" stroke="rgb(182.63, 190.61, 217.25)"/>
<path d="M 30 39 L 25 36 L 31 30 z" fill="rgb(181.95, 190.01, 216.90)" opacity="1.000" stroke="rgb(181.95, 190.01, 216.90)"/>
<path d="M 32 41 L 45 35 L 41 44 z" fill="rgb(171.14, 180.34, 211.28)" opacity="1.000" stroke="rgb(171.14, 180.34, 211.28)"/>
<path d="M 28 55 L 32 41 L 41 44 z" fill="rgb(176.88, 185.48, 214.27)" opacity="1.000" stroke="rgb(176.88, 185.48, 214.27)"/>
<path d="M 32 41 L 30 39 L 31 30 z" fill="rgb(179.59, 187.89, 215.67)" opacity="1.000" stroke="rgb(179.59, 187.89, 215.67)"/>
<path d="M 45 35 L 32 41 L 31 30 z" fill="rgb(174.52, 183.36, 213.04)" opacity="1.000" stroke="rgb(174.52, 183.36, 213.04)"/>
<path d="M 30 39 L 32 41 L 24 50 z" fill="rgb(181.95, 190.01, 216.90)" opacity="1.000" stroke="rgb(181.95, 190.01, 216.90)"/>
<path d="M 32 41 L 28 55 L 24 50 z" fill="rgb(182.63, 190.61, 217.25)" opacity="1.000" stroke="rgb(182.63, 190.61, 217.25)"/>
<path d="M 51 46 L 54 50 L 41 44 z" fill="rgb(161.68, 171.88, 206.37)" opacity="1.000" stroke="rgb(161.68, 171.88, 206.37)"/>
<path d="M 63 51 L 51 46 L 69 42 z" fill="rgb(149.19, 160.69, 199.87)" opacity="1.000" stroke="rgb(149.19, 160.69, 199.87)"/>
<path d="M 54 50 L 51 46 L 63 51 z" fill="rgb(154.25, 165.23, 202.51)" opacity="1.000" stroke="rgb(154.25, 165.23, 202.51)"/>
<path d="M 48 36 L 53 24 L 62 25 z" fill="rgb(155.94, 166.74, 203.38)" opacity="1.000" stroke="rgb(155.94, 166.74, 203.38)"/>
<path d="M 48 36 L 45 35 L 53 24 z" fill="rgb(161.68, 171.88, 206.37)" opacity="1.000" stroke="rgb(161.68, 171.88, 206.37)"/>
<path d="M 48 36 L 62 25 L 69 42 z" fill="rgb(150.54, 161.90, 200.58)" opacity="1.000" stroke="rgb(150.54, 161.90, 200.58)"/>
<path d="M 51 46 L 48 36 L 69 42 z" fill="rgb(154.25, 165.23, 202.51)" opacity="1.000" stroke="rgb(154.25, 165.23, 202.51)"/>
<path d="M 45 35 L 48 36 L 41 44 z" fill="rgb(165.74, 175.50, 208.48)" opacity="1.000" stroke="rgb(165.74, 175.50, 208.48)"/>
<path d="M 48 36 L 51 46 L 41 44 z" fill="rgb(163.71, 173.69, 207.42)" opacity="1.000" stroke="rgb(163.71, 173.69, 207.42)"/>
<path d="M 36 78 L 28 67 L 38 64 z" fill="rgb(176.55, 185.17, 214.09)" opacity="1.000" stroke="rgb(176.55, 185.17, 214.09)"/>
<path d="M 20 77 L 28 67 L 36 78 z" fill="rgb(182.63, 190.61, 217.25)" opacity="1.000" stroke="rgb(182.63, 190.61, 217.25)"/>
<path d="M 128 105 L 125 110 L 122 106 z" fill="rgb(84.33, 102.67, 166.17)" opacity="1.000" stroke="rgb(84.33, 102.67, 166.17)"/>
<path d="M 125 110 L 122 116 L 115 113 z" fill="rgb(88.72, 106.60, 168.45)" opacity="1.000" stroke="rgb(88.72, 106.60, 168.45)"/>
<path d="M 122 106 L 125 110 L 115 113 z" fill="rgb(88.72, 106.60, 168.45)" opacity="1.000" stroke="rgb(88.72, 106.60, 168.45)"/>
<path d="M 122 116 L 125 110 L 130 126 z" fill="rgb(83.66, 102.06, 165.82)" opacity="1.000" stroke="rgb(83.66, 102.06, 165.82)"/>
<path d="M 125 110 L 128 105 L 130 126 z" fill="rgb(81.63, 100.25, 164.76)" opacity="1.000" stroke="rgb(81.63, 100.25, 164.76)"/>
<path d="M 83 54 L 85 58 L 63 51 z" fill="rgb(132.97, 146.19, 191.45)" opacity="1.000" stroke="rgb(132.97, 146.19, 191.45)"/>
<path d="M 83 54 L 84 55 L 85 58 z" fill="rgb(125.88, 139.84, 187.76)" opacity="1.000" stroke="rgb(125.88, 139.84, 187.76)"/>
<path d="M 83 54 L 63 51 L 77 45 z" fill="rgb(135.68, 148.60, 192.85)" opacity="1.000" stroke="rgb(135.68, 148.60, 192.85)"/>
<path d="M 82 36 L 83 54 L 77 45 z" fill="rgb(129.26, 142.86, 189.52)" opacity="1.000" stroke="rgb(129.26, 142.86, 189.52)"/>
<path d="M 83 54 L 82 36 L 98 55 z" fill="rgb(122.16, 136.52, 185.83)" opacity="1.000" stroke="rgb(122.16, 136.52, 185.83)"/>
<path d="M 84 55 L 83 54 L 98 55 z" fill="rgb(121.49, 135.91, 185.48)" opacity="1.000" stroke="rgb(121.49, 135.91, 185.48)"/>
<path d="M 29 60 L 28 55 L 38 64 z" fill="rgb(178.91, 187.29, 215.32)" opacity="1.000" stroke="rgb(178.91, 187.29, 215.32)"/>
<path d="M 28 67 L 29 60 L 38 64 z" fill="rgb(178.91, 187.29, 215.32)" opacity="1.000" stroke="rgb(178.91, 187.29, 215.32)"/>
<path d="M 22 67 L 20 77 L 10 70 z" fill="rgb(193.44, 200.28, 222.87)" opacity="1.000" stroke="rgb(193.44, 200.28, 222.87)"/>
<path d="M 22 67 L 28 67 L 20 77 z" fill="rgb(187.36, 194.84, 219.71)" opacity="1.000" stroke="rgb(187.36, 194.84, 219.71)"/>
<path d="M 22 67 L 29 60 L 28 67 z" fill="rgb(184.32, 192.12, 218.13)" opacity="1.000" stroke="rgb(184.32, 192.12, 218.13)"/>
<path d="M 15 63 L 22 67 L 10 70 z" fill="rgb(195.12, 201.80, 223.75)" opacity="1.000" stroke="rgb(195.12, 201.80, 223.75)"/>
<path d="M 17 37 L 15 63 L 10 70 z" fill="rgb(196.81, 203.31, 224.63)" opacity="1.000" stroke="rgb(196.81, 203.31, 224.63)"/>
<path d="M 15 63 L 17 37 L 24 50 z" fill="rgb(192.08, 199.08, 222.17)" opacity="1.000" stroke="rgb(192.08, 199.08, 222.17)"/>
<path d="M 22 67 L 20 64 L 29 60 z" fill="rgb(187.02, 194.54, 219.54)" opacity="1.000" stroke="rgb(187.02, 194.54, 219.54)"/>
<path d="M 15 63 L 20 64 L 22 67 z" fill="rgb(191.75, 198.77, 221.99)" opacity="1.000" stroke="rgb(191.75, 198.77, 221.99)"/>
<path d="M 29 60 L 20 64 L 28 55 z" fill="rgb(184.99, 192.73, 218.48)" opacity="1.000" stroke="rgb(184.99, 192.73, 218.48)"/>
<path d="M 28 55 L 20 64 L 24 50 z" fill="rgb(186.68, 194.24, 219.36)" opacity="1.000" stroke="rgb(186.68, 194.24, 219.36)"/>
<path d="M 20 64 L 15 63 L 24 50 z" fill="rgb(191.07, 198.17, 221.64)" opacity="1.000" stroke="rgb(191.07, 198.17, 221.64)"/>
<text style="fill:white; filter:url(#shadow);" text-anchor="start" font-size="32.0" class="sans" x="10.0" y="80.0" fill="black">C</text>
<text style="fill:white; filter:url(#shadow);" text-anchor="start" font-size="32.0" class="sans" x="34.0" y="90.0" fill="black">R</text>
<text style="fill:white; filter:url(#shadow);" text-anchor="start" font-size="32.0" class="sans" x="54.0" y="80.0" fill="black">Y</text>
<text style="fill:white; filter:url(#shadow);" text-anchor="start" font-size="32.0" class="sans" x="74.0" y="90.0" fill="black">P</text>
<text style="fill:white; filter:url(#shadow);" text-anchor="start" font-size="32.0" class="sans" x="94.0" y="80.0" fill="black">T</text>
<text style="fill:white; filter:url(#shadow);" text-anchor="start" font-size="32.0" class="sans" x="110.0" y="90.0" fill="black">O</text>
</svg>
