<?xml version="1.0" encoding="utf-8"?>
<svg xmlns="http://www.w3.org/2000/svg" width="150" height="150"
     xmlns:xlink="http://www.w3.org/1999/xlink">
  <defs>
    <linearGradient id="bluegradient" x1="0" x2="0" y1="0" y2="1">
      <stop stop-color="#0E38FF" offset="0%"/>
      <stop stop-color="#729BFF" offset="10%"/>
      <stop stop-color="#f0f0ff" offset="100%"/>
    </linearGradient>
    <radialGradient id="circuitcolor">
      <stop stop-color="#80d0ff" offset="20%"/>
      <stop stop-color="#40a0ff" offset="100%"/>
    </radialGradient>
    <radialGradient id="wires" cx="25%" cy="50%" r="100%" fx="100%" fy="100%">
      <stop stop-color="#404080" offset="0%"/>
      <stop stop-color="#6080a0" offset="40%"/>
      <stop stop-color="#80a0c0" offset="100%"/>
    </radialGradient>
    <radialGradient id="blues">
       <stop offset="0%" stop-color="rgba(128,192,192,0.8)"/>
       <stop offset="30%" stop-color="rgba(65,192,225,0.5)"/>
       <stop offset="100%" stop-color="rgba(192,192,225,0.8)"/>
    </radialGradient>
    <radialGradient id="blues2">
       <stop offset="0%" stop-color="rgba(64,64,225,0.5)"/>
       <stop offset="50%" stop-color="rgba(92,92,225,0.8)"/>
       <stop offset="100%" stop-color="rgba(128,128,225,0.8)"/>
    </radialGradient>
    <filter id="shadow">
       <feDropShadow dx="4" dy="8" stdDeviation="4"/>
    </filter>
  </defs>
  <style>
    .sans {font-family: Arial, Helvetica, sans-serif;}
  </style>
  <clipPath id="circle">
    <circle cx="75.0" cy="75.0" r="75.0"/>
  </clipPath>
  <!-- created with "circles.py -min=10 -colors=gradient -num=100 -conf TCC" -->
  <g clip-path="url(#circle)">
   
<path d="M 0 150 L 73 136 L 150 150 z" fill="rgb(135.68, 148.60, 192.85)" opacity="1.000" stroke="rgb(135.68, 148.60, 192.85)"/>
<path d="M 10 69 L 0 150 L 0 0 z" fill="rgb(207.62, 212.98, 230.24)" opacity="1.000" stroke="rgb(207.62, 212.98, 230.24)"/>
<path d="M 135 76 L 150 0 L 150 150 z" fill="rgb(64.07, 84.53, 155.63)" opacity="1.000" stroke="rgb(64.07, 84.53, 155.63)"/>
<path d="M 150 0 L 57 13 L 0 0 z" fill="rgb(141.08, 153.44, 195.66)" opacity="1.000" stroke="rgb(141.08, 153.44, 195.66)"/>
<path d="M 21 139 L 73 136 L 0 150 z" fill="rgb(179.25, 187.59, 215.50)" opacity="1.000" stroke="rgb(179.25, 187.59, 215.50)"/>
<path d="M 73 136 L 117 137 L 150 150 z" fill="rgb(96.16, 113.24, 172.31)" opacity="1.000" stroke="rgb(96.16, 113.24, 172.31)"/>
<path d="M 137 103 L 135 76 L 150 150 z" fill="rgb(68.46, 88.46, 157.92)" opacity="1.000" stroke="rgb(68.46, 88.46, 157.92)"/>
<path d="M 119 16 L 57 13 L 150 0 z" fill="rgb(100.88, 117.48, 174.77)" opacity="1.000" stroke="rgb(100.88, 117.48, 174.77)"/>
<path d="M 57 13 L 119 16 L 80 20 z" fill="rgb(124.53, 138.63, 187.06)" opacity="1.000" stroke="rgb(124.53, 138.63, 187.06)"/>
<path d="M 16 133 L 21 139 L 0 150 z" fill="rgb(198.50, 204.82, 225.50)" opacity="1.000" stroke="rgb(198.50, 204.82, 225.50)"/>
<path d="M 19 118 L 16 133 L 0 150 z" fill="rgb(199.18, 205.42, 225.86)" opacity="1.000" stroke="rgb(199.18, 205.42, 225.86)"/>
<path d="M 16 133 L 19 127 L 21 139 z" fill="rgb(192.08, 199.08, 222.17)" opacity="1.000" stroke="rgb(192.08, 199.08, 222.17)"/>
<path d="M 19 127 L 16 133 L 19 118 z" fill="rgb(192.76, 199.68, 222.52)" opacity="1.000" stroke="rgb(192.76, 199.68, 222.52)"/>
<path d="M 10 69 L 11 72 L 0 150 z" fill="rgb(203.91, 209.65, 228.31)" opacity="1.000" stroke="rgb(203.91, 209.65, 228.31)"/>
<path d="M 11 72 L 19 118 L 0 150 z" fill="rgb(200.87, 206.93, 226.73)" opacity="1.000" stroke="rgb(200.87, 206.93, 226.73)"/>
<path d="M 30 107 L 11 72 L 34 85 z" fill="rgb(185.67, 193.33, 218.83)" opacity="1.000" stroke="rgb(185.67, 193.33, 218.83)"/>
<path d="M 11 72 L 30 107 L 19 118 z" fill="rgb(190.73, 197.87, 221.47)" opacity="1.000" stroke="rgb(190.73, 197.87, 221.47)"/>
<path d="M 10 34 L 10 69 L 0 0 z" fill="rgb(204.24, 209.96, 228.49)" opacity="1.000" stroke="rgb(204.24, 209.96, 228.49)"/>
<path d="M 57 13 L 25 11 L 0 0 z" fill="rgb(183.30, 191.22, 217.60)" opacity="1.000" stroke="rgb(183.30, 191.22, 217.60)"/>
<path d="M 73 29 L 57 13 L 80 20 z" fill="rgb(140.07, 152.53, 195.13)" opacity="1.000" stroke="rgb(140.07, 152.53, 195.13)"/>
<path d="M 103 132 L 117 137 L 73 136 z" fill="rgb(112.03, 127.45, 180.56)" opacity="1.000" stroke="rgb(112.03, 127.45, 180.56)"/>
<path d="M 117 137 L 127 131 L 150 150 z" fill="rgb(77.92, 96.92, 162.83)" opacity="1.000" stroke="rgb(77.92, 96.92, 162.83)"/>
<path d="M 127 131 L 137 103 L 150 150 z" fill="rgb(71.16, 90.88, 159.32)" opacity="1.000" stroke="rgb(71.16, 90.88, 159.32)"/>
<path d="M 131 19 L 119 16 L 150 0 z" fill="rgb(75.89, 95.11, 161.78)" opacity="1.000" stroke="rgb(75.89, 95.11, 161.78)"/>
<path d="M 126 43 L 131 19 L 150 0 z" fill="rgb(73.52, 93.00, 160.55)" opacity="1.000" stroke="rgb(73.52, 93.00, 160.55)"/>
<path d="M 119 16 L 131 19 L 122 39 z" fill="rgb(85.35, 103.57, 166.69)" opacity="1.000" stroke="rgb(85.35, 103.57, 166.69)"/>
<path d="M 81 115 L 73 126 L 64 110 z" fill="rgb(137.36, 150.12, 193.73)" opacity="1.000" stroke="rgb(137.36, 150.12, 193.73)"/>
<path d="M 56 123 L 73 126 L 73 136 z" fill="rgb(142.77, 154.95, 196.54)" opacity="1.000" stroke="rgb(142.77, 154.95, 196.54)"/>
<path d="M 79 99 L 81 115 L 64 110 z" fill="rgb(135.34, 148.30, 192.68)" opacity="1.000" stroke="rgb(135.34, 148.30, 192.68)"/>
<path d="M 92 86 L 79 99 L 67 79 z" fill="rgb(130.61, 144.07, 190.22)" opacity="1.000" stroke="rgb(130.61, 144.07, 190.22)"/>
<path d="M 19 118 L 29 109 L 34 111 z" fill="rgb(183.30, 191.22, 217.60)" opacity="1.000" stroke="rgb(183.30, 191.22, 217.60)"/>
<path d="M 29 109 L 30 107 L 34 111 z" fill="rgb(179.59, 187.89, 215.67)" opacity="1.000" stroke="rgb(179.59, 187.89, 215.67)"/>
<path d="M 30 107 L 29 109 L 19 118 z" fill="rgb(184.65, 192.43, 218.31)" opacity="1.000" stroke="rgb(184.65, 192.43, 218.31)"/>
<path d="M 46 97 L 38 107 L 34 85 z" fill="rgb(171.14, 180.34, 211.28)" opacity="1.000" stroke="rgb(171.14, 180.34, 211.28)"/>
<path d="M 38 107 L 30 107 L 34 85 z" fill="rgb(176.55, 185.17, 214.09)" opacity="1.000" stroke="rgb(176.55, 185.17, 214.09)"/>
<path d="M 30 107 L 38 107 L 34 111 z" fill="rgb(176.55, 185.17, 214.09)" opacity="1.000" stroke="rgb(176.55, 185.17, 214.09)"/>
<path d="M 38 107 L 41 110 L 34 111 z" fill="rgb(172.83, 181.85, 212.16)" opacity="1.000" stroke="rgb(172.83, 181.85, 212.16)"/>
<path d="M 25 17 L 25 11 L 57 13 z" fill="rgb(174.86, 183.66, 213.22)" opacity="1.000" stroke="rgb(174.86, 183.66, 213.22)"/>
<path d="M 73 29 L 53 38 L 57 13 z" fill="rgb(149.19, 160.69, 199.87)" opacity="1.000" stroke="rgb(149.19, 160.69, 199.87)"/>
<path d="M 90 130 L 103 132 L 73 136 z" fill="rgb(121.15, 135.61, 185.30)" opacity="1.000" stroke="rgb(121.15, 135.61, 185.30)"/>
<path d="M 121 133 L 127 131 L 117 137 z" fill="rgb(87.71, 105.69, 167.92)" opacity="1.000" stroke="rgb(87.71, 105.69, 167.92)"/>
<path d="M 121 133 L 103 132 L 112 118 z" fill="rgb(97.51, 114.45, 173.01)" opacity="1.000" stroke="rgb(97.51, 114.45, 173.01)"/>
<path d="M 103 132 L 121 133 L 117 137 z" fill="rgb(95.82, 112.94, 172.14)" opacity="1.000" stroke="rgb(95.82, 112.94, 172.14)"/>
<path d="M 127 131 L 126 115 L 137 103 z" fill="rgb(79.27, 98.13, 163.53)" opacity="1.000" stroke="rgb(79.27, 98.13, 163.53)"/>
<path d="M 131 19 L 125 41 L 122 39 z" fill="rgb(83.32, 101.76, 165.64)" opacity="1.000" stroke="rgb(83.32, 101.76, 165.64)"/>
<path d="M 125 41 L 131 19 L 126 43 z" fill="rgb(81.97, 100.55, 164.94)" opacity="1.000" stroke="rgb(81.97, 100.55, 164.94)"/>
<path d="M 101 109 L 90 130 L 81 115 z" fill="rgb(119.12, 133.80, 184.25)" opacity="1.000" stroke="rgb(119.12, 133.80, 184.25)"/>
<path d="M 103 132 L 101 109 L 112 118 z" fill="rgb(104.26, 120.50, 176.52)" opacity="1.000" stroke="rgb(104.26, 120.50, 176.52)"/>
<path d="M 90 130 L 101 109 L 103 132 z" fill="rgb(111.69, 127.15, 180.39)" opacity="1.000" stroke="rgb(111.69, 127.15, 180.39)"/>
<path d="M 73 126 L 57 118 L 64 110 z" fill="rgb(145.47, 157.37, 197.94)" opacity="1.000" stroke="rgb(145.47, 157.37, 197.94)"/>
<path d="M 57 118 L 73 126 L 56 123 z" fill="rgb(148.17, 159.79, 199.35)" opacity="1.000" stroke="rgb(148.17, 159.79, 199.35)"/>
<path d="M 57 118 L 58 101 L 64 110 z" fill="rgb(150.54, 161.90, 200.58)" opacity="1.000" stroke="rgb(150.54, 161.90, 200.58)"/>
<path d="M 79 99 L 58 101 L 67 79 z" fill="rgb(142.09, 154.35, 196.19)" opacity="1.000" stroke="rgb(142.09, 154.35, 196.19)"/>
<path d="M 58 101 L 79 99 L 64 110 z" fill="rgb(143.11, 155.25, 196.71)" opacity="1.000" stroke="rgb(143.11, 155.25, 196.71)"/>
<path d="M 19 127 L 34 129 L 21 139 z" fill="rgb(186.00, 193.64, 219.01)" opacity="1.000" stroke="rgb(186.00, 193.64, 219.01)"/>
<path d="M 34 129 L 19 127 L 19 118 z" fill="rgb(186.68, 194.24, 219.36)" opacity="1.000" stroke="rgb(186.68, 194.24, 219.36)"/>
<path d="M 21 139 L 43 130 L 73 136 z" fill="rgb(164.72, 174.60, 207.95)" opacity="1.000" stroke="rgb(164.72, 174.60, 207.95)"/>
<path d="M 43 130 L 56 123 L 73 136 z" fill="rgb(152.90, 164.02, 201.80)" opacity="1.000" stroke="rgb(152.90, 164.02, 201.80)"/>
<path d="M 34 129 L 43 130 L 21 139 z" fill="rgb(177.90, 186.38, 214.80)" opacity="1.000" stroke="rgb(177.90, 186.38, 214.80)"/>
<path d="M 43 130 L 34 129 L 40 129 z" fill="rgb(171.48, 180.64, 211.46)" opacity="1.000" stroke="rgb(171.48, 180.64, 211.46)"/>
<path d="M 45 103 L 38 107 L 46 97 z" fill="rgb(167.43, 177.01, 209.35)" opacity="1.000" stroke="rgb(167.43, 177.01, 209.35)"/>
<path d="M 38 107 L 45 103 L 41 110 z" fill="rgb(169.12, 178.52, 210.23)" opacity="1.000" stroke="rgb(169.12, 178.52, 210.23)"/>
<path d="M 58 101 L 45 103 L 46 97 z" fill="rgb(160.67, 170.97, 205.84)" opacity="1.000" stroke="rgb(160.67, 170.97, 205.84)"/>
<path d="M 45 103 L 58 101 L 57 118 z" fill="rgb(156.96, 167.64, 203.91)" opacity="1.000" stroke="rgb(156.96, 167.64, 203.91)"/>
<path d="M 10 34 L 22 18 L 29 31 z" fill="rgb(190.40, 197.56, 221.29)" opacity="1.000" stroke="rgb(190.40, 197.56, 221.29)"/>
<path d="M 22 18 L 25 17 L 29 31 z" fill="rgb(185.33, 193.03, 218.66)" opacity="1.000" stroke="rgb(185.33, 193.03, 218.66)"/>
<path d="M 25 17 L 22 18 L 25 11 z" fill="rgb(186.68, 194.24, 219.36)" opacity="1.000" stroke="rgb(186.68, 194.24, 219.36)"/>
<path d="M 65 46 L 53 38 L 73 29 z" fill="rgb(146.48, 158.28, 198.47)" opacity="1.000" stroke="rgb(146.48, 158.28, 198.47)"/>
<path d="M 51 53 L 52 41 L 59 49 z" fill="rgb(156.28, 167.04, 203.56)" opacity="1.000" stroke="rgb(156.28, 167.04, 203.56)"/>
<path d="M 52 41 L 51 53 L 46 47 z" fill="rgb(160.67, 170.97, 205.84)" opacity="1.000" stroke="rgb(160.67, 170.97, 205.84)"/>
<path d="M 52 41 L 65 46 L 59 49 z" fill="rgb(151.55, 162.81, 201.10)" opacity="1.000" stroke="rgb(151.55, 162.81, 201.10)"/>
<path d="M 65 46 L 52 41 L 53 38 z" fill="rgb(153.58, 164.62, 202.16)" opacity="1.000" stroke="rgb(153.58, 164.62, 202.16)"/>
<path d="M 30 48 L 29 48 L 29 31 z" fill="rgb(181.28, 189.40, 216.55)" opacity="1.000" stroke="rgb(181.28, 189.40, 216.55)"/>
<path d="M 10 34 L 14 65 L 10 69 z" fill="rgb(199.52, 205.72, 226.03)" opacity="1.000" stroke="rgb(199.52, 205.72, 226.03)"/>
<path d="M 18 43 L 10 34 L 29 31 z" fill="rgb(191.75, 198.77, 221.99)" opacity="1.000" stroke="rgb(191.75, 198.77, 221.99)"/>
<path d="M 29 48 L 18 43 L 29 31 z" fill="rgb(185.33, 193.03, 218.66)" opacity="1.000" stroke="rgb(185.33, 193.03, 218.66)"/>
<path d="M 18 43 L 14 65 L 10 34 z" fill="rgb(196.81, 203.31, 224.63)" opacity="1.000" stroke="rgb(196.81, 203.31, 224.63)"/>
<path d="M 14 65 L 18 43 L 29 48 z" fill="rgb(190.40, 197.56, 221.29)" opacity="1.000" stroke="rgb(190.40, 197.56, 221.29)"/>
<path d="M 58 101 L 59 76 L 67 79 z" fill="rgb(148.85, 160.39, 199.70)" opacity="1.000" stroke="rgb(148.85, 160.39, 199.70)"/>
<path d="M 59 76 L 58 101 L 46 97 z" fill="rgb(155.94, 166.74, 203.38)" opacity="1.000" stroke="rgb(155.94, 166.74, 203.38)"/>
<path d="M 59 76 L 46 97 L 34 85 z" fill="rgb(164.05, 173.99, 207.60)" opacity="1.000" stroke="rgb(164.05, 173.99, 207.60)"/>
<path d="M 45 70 L 59 76 L 34 85 z" fill="rgb(164.39, 174.29, 207.77)" opacity="1.000" stroke="rgb(164.39, 174.29, 207.77)"/>
<path d="M 77 126 L 73 126 L 81 115 z" fill="rgb(132.97, 146.19, 191.45)" opacity="1.000" stroke="rgb(132.97, 146.19, 191.45)"/>
<path d="M 90 130 L 77 126 L 81 115 z" fill="rgb(127.23, 141.05, 188.46)" opacity="1.000" stroke="rgb(127.23, 141.05, 188.46)"/>
<path d="M 73 126 L 77 126 L 73 136 z" fill="rgb(135.68, 148.60, 192.85)" opacity="1.000" stroke="rgb(135.68, 148.60, 192.85)"/>
<path d="M 77 126 L 90 130 L 73 136 z" fill="rgb(129.93, 143.47, 189.87)" opacity="1.000" stroke="rgb(129.93, 143.47, 189.87)"/>
<path d="M 112 94 L 108 101 L 92 86 z" fill="rgb(105.61, 121.71, 177.23)" opacity="1.000" stroke="rgb(105.61, 121.71, 177.23)"/>
<path d="M 108 101 L 101 109 L 92 86 z" fill="rgb(109.33, 125.03, 179.16)" opacity="1.000" stroke="rgb(109.33, 125.03, 179.16)"/>
<path d="M 114 104 L 112 94 L 137 103 z" fill="rgb(88.39, 106.29, 168.27)" opacity="1.000" stroke="rgb(88.39, 106.29, 168.27)"/>
<path d="M 126 115 L 114 104 L 137 103 z" fill="rgb(83.66, 102.06, 165.82)" opacity="1.000" stroke="rgb(83.66, 102.06, 165.82)"/>
<path d="M 114 104 L 108 101 L 112 94 z" fill="rgb(98.18, 115.06, 173.36)" opacity="1.000" stroke="rgb(98.18, 115.06, 173.36)"/>
<path d="M 101 109 L 114 104 L 112 118 z" fill="rgb(100.55, 117.17, 174.59)" opacity="1.000" stroke="rgb(100.55, 117.17, 174.59)"/>
<path d="M 108 101 L 114 104 L 101 109 z" fill="rgb(101.90, 118.38, 175.30)" opacity="1.000" stroke="rgb(101.90, 118.38, 175.30)"/>
<path d="M 92 71 L 88 46 L 100 64 z" fill="rgb(116.42, 131.38, 182.84)" opacity="1.000" stroke="rgb(116.42, 131.38, 182.84)"/>
<path d="M 92 71 L 92 86 L 67 79 z" fill="rgb(126.22, 140.14, 187.94)" opacity="1.000" stroke="rgb(126.22, 140.14, 187.94)"/>
<path d="M 89 21 L 73 29 L 80 20 z" fill="rgb(129.26, 142.86, 189.52)" opacity="1.000" stroke="rgb(129.26, 142.86, 189.52)"/>
<path d="M 89 21 L 88 46 L 73 29 z" fill="rgb(126.56, 140.44, 188.11)" opacity="1.000" stroke="rgb(126.56, 140.44, 188.11)"/>
<path d="M 89 21 L 96 45 L 88 46 z" fill="rgb(118.79, 133.49, 184.07)" opacity="1.000" stroke="rgb(118.79, 133.49, 184.07)"/>
<path d="M 119 16 L 89 21 L 80 20 z" fill="rgb(113.72, 128.96, 181.44)" opacity="1.000" stroke="rgb(113.72, 128.96, 181.44)"/>
<path d="M 79 99 L 83 103 L 81 115 z" fill="rgb(128.92, 142.56, 189.34)" opacity="1.000" stroke="rgb(128.92, 142.56, 189.34)"/>
<path d="M 83 103 L 101 109 L 81 115 z" fill="rgb(121.49, 135.91, 185.48)" opacity="1.000" stroke="rgb(121.49, 135.91, 185.48)"/>
<path d="M 83 103 L 79 99 L 92 86 z" fill="rgb(125.20, 139.24, 187.41)" opacity="1.000" stroke="rgb(125.20, 139.24, 187.41)"/>
<path d="M 101 109 L 83 103 L 92 86 z" fill="rgb(117.77, 132.59, 183.55)" opacity="1.000" stroke="rgb(117.77, 132.59, 183.55)"/>
<path d="M 46 117 L 57 118 L 56 123 z" fill="rgb(157.29, 167.95, 204.09)" opacity="1.000" stroke="rgb(157.29, 167.95, 204.09)"/>
<path d="M 43 130 L 46 117 L 56 123 z" fill="rgb(162.02, 172.18, 206.54)" opacity="1.000" stroke="rgb(162.02, 172.18, 206.54)"/>
<path d="M 45 103 L 46 117 L 41 110 z" fill="rgb(166.41, 176.11, 208.83)" opacity="1.000" stroke="rgb(166.41, 176.11, 208.83)"/>
<path d="M 46 117 L 45 103 L 57 118 z" fill="rgb(161.01, 171.27, 206.02)" opacity="1.000" stroke="rgb(161.01, 171.27, 206.02)"/>
<path d="M 37 122 L 19 118 L 34 111 z" fill="rgb(180.60, 188.80, 216.20)" opacity="1.000" stroke="rgb(180.60, 188.80, 216.20)"/>
<path d="M 37 122 L 34 129 L 19 118 z" fill="rgb(180.60, 188.80, 216.20)" opacity="1.000" stroke="rgb(180.60, 188.80, 216.20)"/>
<path d="M 34 129 L 37 122 L 40 129 z" fill="rgb(173.51, 182.45, 212.51)" opacity="1.000" stroke="rgb(173.51, 182.45, 212.51)"/>
<path d="M 41 110 L 37 122 L 34 111 z" fill="rgb(173.17, 182.15, 212.34)" opacity="1.000" stroke="rgb(173.17, 182.15, 212.34)"/>
<path d="M 46 117 L 37 122 L 41 110 z" fill="rgb(169.12, 178.52, 210.23)" opacity="1.000" stroke="rgb(169.12, 178.52, 210.23)"/>
<path d="M 37 122 L 43 130 L 40 129 z" fill="rgb(170.47, 179.73, 210.93)" opacity="1.000" stroke="rgb(170.47, 179.73, 210.93)"/>
<path d="M 37 122 L 46 117 L 43 130 z" fill="rgb(168.44, 177.92, 209.88)" opacity="1.000" stroke="rgb(168.44, 177.92, 209.88)"/>
<path d="M 25 11 L 10 10 L 0 0 z" fill="rgb(199.18, 205.42, 225.86)" opacity="1.000" stroke="rgb(199.18, 205.42, 225.86)"/>
<path d="M 22 18 L 10 10 L 25 11 z" fill="rgb(191.75, 198.77, 221.99)" opacity="1.000" stroke="rgb(191.75, 198.77, 221.99)"/>
<path d="M 10 10 L 10 34 L 0 0 z" fill="rgb(204.24, 209.96, 228.49)" opacity="1.000" stroke="rgb(204.24, 209.96, 228.49)"/>
<path d="M 10 10 L 22 18 L 10 34 z" fill="rgb(196.81, 203.31, 224.63)" opacity="1.000" stroke="rgb(196.81, 203.31, 224.63)"/>
<path d="M 88 46 L 75 45 L 73 29 z" fill="rgb(131.28, 144.68, 190.57)" opacity="1.000" stroke="rgb(131.28, 144.68, 190.57)"/>
<path d="M 75 45 L 65 46 L 73 29 z" fill="rgb(139.05, 151.63, 194.61)" opacity="1.000" stroke="rgb(139.05, 151.63, 194.61)"/>
<path d="M 52 41 L 47 34 L 53 38 z" fill="rgb(159.66, 170.06, 205.32)" opacity="1.000" stroke="rgb(159.66, 170.06, 205.32)"/>
<path d="M 53 38 L 47 34 L 57 13 z" fill="rgb(157.97, 168.55, 204.44)" opacity="1.000" stroke="rgb(157.97, 168.55, 204.44)"/>
<path d="M 47 34 L 52 41 L 46 47 z" fill="rgb(162.02, 172.18, 206.54)" opacity="1.000" stroke="rgb(162.02, 172.18, 206.54)"/>
<path d="M 47 34 L 25 17 L 57 13 z" fill="rgb(167.43, 177.01, 209.35)" opacity="1.000" stroke="rgb(167.43, 177.01, 209.35)"/>
<path d="M 25 17 L 47 34 L 29 31 z" fill="rgb(176.88, 185.48, 214.27)" opacity="1.000" stroke="rgb(176.88, 185.48, 214.27)"/>
<path d="M 47 34 L 30 48 L 29 31 z" fill="rgb(175.20, 183.96, 213.39)" opacity="1.000" stroke="rgb(175.20, 183.96, 213.39)"/>
<path d="M 30 48 L 47 34 L 46 47 z" fill="rgb(169.45, 178.83, 210.41)" opacity="1.000" stroke="rgb(169.45, 178.83, 210.41)"/>
<path d="M 34 53 L 30 48 L 46 47 z" fill="rgb(173.84, 182.76, 212.69)" opacity="1.000" stroke="rgb(173.84, 182.76, 212.69)"/>
<path d="M 30 48 L 34 53 L 29 48 z" fill="rgb(179.59, 187.89, 215.67)" opacity="1.000" stroke="rgb(179.59, 187.89, 215.67)"/>
<path d="M 34 53 L 14 65 L 29 48 z" fill="rgb(184.99, 192.73, 218.48)" opacity="1.000" stroke="rgb(184.99, 192.73, 218.48)"/>
<path d="M 16 71 L 11 72 L 10 69 z" fill="rgb(198.50, 204.82, 225.50)" opacity="1.000" stroke="rgb(198.50, 204.82, 225.50)"/>
<path d="M 14 65 L 16 71 L 10 69 z" fill="rgb(197.49, 203.91, 224.98)" opacity="1.000" stroke="rgb(197.49, 203.91, 224.98)"/>
<path d="M 11 72 L 16 71 L 34 85 z" fill="rgb(190.40, 197.56, 221.29)" opacity="1.000" stroke="rgb(190.40, 197.56, 221.29)"/>
<path d="M 16 71 L 45 70 L 34 85 z" fill="rgb(178.91, 187.29, 215.32)" opacity="1.000" stroke="rgb(178.91, 187.29, 215.32)"/>
<path d="M 34 53 L 16 71 L 14 65 z" fill="rgb(189.38, 196.66, 220.76)" opacity="1.000" stroke="rgb(189.38, 196.66, 220.76)"/>
<path d="M 16 71 L 34 53 L 45 70 z" fill="rgb(178.91, 187.29, 215.32)" opacity="1.000" stroke="rgb(178.91, 187.29, 215.32)"/>
<path d="M 50 67 L 59 76 L 45 70 z" fill="rgb(158.98, 169.46, 204.96)" opacity="1.000" stroke="rgb(158.98, 169.46, 204.96)"/>
<path d="M 114 104 L 122 116 L 112 118 z" fill="rgb(93.45, 110.83, 170.91)" opacity="1.000" stroke="rgb(93.45, 110.83, 170.91)"/>
<path d="M 122 116 L 114 104 L 126 115 z" fill="rgb(88.72, 106.60, 168.45)" opacity="1.000" stroke="rgb(88.72, 106.60, 168.45)"/>
<path d="M 122 116 L 121 133 L 112 118 z" fill="rgb(91.09, 108.71, 169.68)" opacity="1.000" stroke="rgb(91.09, 108.71, 169.68)"/>
<path d="M 121 133 L 122 116 L 127 131 z" fill="rgb(86.02, 104.18, 167.04)" opacity="1.000" stroke="rgb(86.02, 104.18, 167.04)"/>
<path d="M 122 116 L 126 115 L 127 131 z" fill="rgb(84.33, 102.67, 166.17)" opacity="1.000" stroke="rgb(84.33, 102.67, 166.17)"/>
<path d="M 124 45 L 112 49 L 122 39 z" fill="rgb(90.08, 107.80, 169.15)" opacity="1.000" stroke="rgb(90.08, 107.80, 169.15)"/>
<path d="M 124 45 L 124 46 L 112 49 z" fill="rgb(89.40, 107.20, 168.80)" opacity="1.000" stroke="rgb(89.40, 107.20, 168.80)"/>
<path d="M 125 41 L 124 45 L 122 39 z" fill="rgb(85.68, 103.88, 166.87)" opacity="1.000" stroke="rgb(85.68, 103.88, 166.87)"/>
<path d="M 124 45 L 125 41 L 126 43 z" fill="rgb(84.33, 102.67, 166.17)" opacity="1.000" stroke="rgb(84.33, 102.67, 166.17)"/>
<path d="M 124 46 L 124 45 L 126 43 z" fill="rgb(84.67, 102.97, 166.34)" opacity="1.000" stroke="rgb(84.67, 102.97, 166.34)"/>
<path d="M 125 71 L 120 79 L 100 64 z" fill="rgb(94.47, 111.73, 171.43)" opacity="1.000" stroke="rgb(94.47, 111.73, 171.43)"/>
<path d="M 120 79 L 112 94 L 92 86 z" fill="rgb(101.56, 118.08, 175.12)" opacity="1.000" stroke="rgb(101.56, 118.08, 175.12)"/>
<path d="M 120 79 L 125 71 L 135 76 z" fill="rgb(82.64, 101.16, 165.29)" opacity="1.000" stroke="rgb(82.64, 101.16, 165.29)"/>
<path d="M 92 71 L 120 79 L 92 86 z" fill="rgb(108.32, 124.12, 178.63)" opacity="1.000" stroke="rgb(108.32, 124.12, 178.63)"/>
<path d="M 120 79 L 92 71 L 100 64 z" fill="rgb(105.61, 121.71, 177.23)" opacity="1.000" stroke="rgb(105.61, 121.71, 177.23)"/>
<path d="M 137 103 L 120 79 L 135 76 z" fill="rgb(78.59, 97.53, 163.18)" opacity="1.000" stroke="rgb(78.59, 97.53, 163.18)"/>
<path d="M 112 94 L 120 79 L 137 103 z" fill="rgb(86.36, 104.48, 167.22)" opacity="1.000" stroke="rgb(86.36, 104.48, 167.22)"/>
<path d="M 125 71 L 128 56 L 135 76 z" fill="rgb(79.94, 98.74, 163.88)" opacity="1.000" stroke="rgb(79.94, 98.74, 163.88)"/>
<path d="M 135 76 L 128 56 L 150 0 z" fill="rgb(71.50, 91.18, 159.50)" opacity="1.000" stroke="rgb(71.50, 91.18, 159.50)"/>
<path d="M 128 56 L 126 43 L 150 0 z" fill="rgb(74.54, 93.90, 161.08)" opacity="1.000" stroke="rgb(74.54, 93.90, 161.08)"/>
<path d="M 107 29 L 89 21 L 119 16 z" fill="rgb(104.60, 120.80, 176.70)" opacity="1.000" stroke="rgb(104.60, 120.80, 176.70)"/>
<path d="M 92 71 L 71 59 L 88 46 z" fill="rgb(126.22, 140.14, 187.94)" opacity="1.000" stroke="rgb(126.22, 140.14, 187.94)"/>
<path d="M 71 59 L 75 45 L 88 46 z" fill="rgb(131.96, 145.28, 190.92)" opacity="1.000" stroke="rgb(131.96, 145.28, 190.92)"/>
<path d="M 75 45 L 71 59 L 65 46 z" fill="rgb(139.73, 152.23, 194.96)" opacity="1.000" stroke="rgb(139.73, 152.23, 194.96)"/>
<path d="M 51 53 L 48 57 L 46 47 z" fill="rgb(162.02, 172.18, 206.54)" opacity="1.000" stroke="rgb(162.02, 172.18, 206.54)"/>
<path d="M 48 57 L 34 53 L 46 47 z" fill="rgb(167.76, 177.32, 209.53)" opacity="1.000" stroke="rgb(167.76, 177.32, 209.53)"/>
<path d="M 34 53 L 48 57 L 45 70 z" fill="rgb(168.10, 177.62, 209.70)" opacity="1.000" stroke="rgb(168.10, 177.62, 209.70)"/>
<path d="M 48 57 L 50 67 L 45 70 z" fill="rgb(162.70, 172.78, 206.90)" opacity="1.000" stroke="rgb(162.70, 172.78, 206.90)"/>
<path d="M 124 46 L 125 51 L 112 49 z" fill="rgb(89.06, 106.90, 168.62)" opacity="1.000" stroke="rgb(89.06, 106.90, 168.62)"/>
<path d="M 125 51 L 128 56 L 112 49 z" fill="rgb(87.71, 105.69, 167.92)" opacity="1.000" stroke="rgb(87.71, 105.69, 167.92)"/>
<path d="M 125 51 L 124 46 L 126 43 z" fill="rgb(84.33, 102.67, 166.17)" opacity="1.000" stroke="rgb(84.33, 102.67, 166.17)"/>
<path d="M 128 56 L 125 51 L 126 43 z" fill="rgb(82.98, 101.46, 165.46)" opacity="1.000" stroke="rgb(82.98, 101.46, 165.46)"/>
<path d="M 110 33 L 119 16 L 122 39 z" fill="rgb(92.44, 109.92, 170.38)" opacity="1.000" stroke="rgb(92.44, 109.92, 170.38)"/>
<path d="M 110 33 L 107 29 L 119 16 z" fill="rgb(97.51, 114.45, 173.01)" opacity="1.000" stroke="rgb(97.51, 114.45, 173.01)"/>
<path d="M 100 50 L 107 53 L 100 64 z" fill="rgb(107.30, 123.22, 178.10)" opacity="1.000" stroke="rgb(107.30, 123.22, 178.10)"/>
<path d="M 107 53 L 125 71 L 100 64 z" fill="rgb(98.86, 115.66, 173.72)" opacity="1.000" stroke="rgb(98.86, 115.66, 173.72)"/>
<path d="M 128 56 L 107 53 L 112 49 z" fill="rgb(93.79, 111.13, 171.08)" opacity="1.000" stroke="rgb(93.79, 111.13, 171.08)"/>
<path d="M 107 53 L 128 56 L 125 71 z" fill="rgb(89.40, 107.20, 168.80)" opacity="1.000" stroke="rgb(89.40, 107.20, 168.80)"/>
<path d="M 96 45 L 96 48 L 88 46 z" fill="rgb(116.42, 131.38, 182.84)" opacity="1.000" stroke="rgb(116.42, 131.38, 182.84)"/>
<path d="M 100 50 L 96 48 L 96 45 z" fill="rgb(112.37, 127.75, 180.74)" opacity="1.000" stroke="rgb(112.37, 127.75, 180.74)"/>
<path d="M 88 46 L 96 48 L 100 64 z" fill="rgb(115.07, 130.17, 182.14)" opacity="1.000" stroke="rgb(115.07, 130.17, 182.14)"/>
<path d="M 96 48 L 100 50 L 100 64 z" fill="rgb(111.02, 126.54, 180.04)" opacity="1.000" stroke="rgb(111.02, 126.54, 180.04)"/>
<path d="M 66 67 L 92 71 L 67 79 z" fill="rgb(135.00, 148.00, 192.50)" opacity="1.000" stroke="rgb(135.00, 148.00, 192.50)"/>
<path d="M 66 67 L 71 59 L 92 71 z" fill="rgb(133.65, 146.79, 191.80)" opacity="1.000" stroke="rgb(133.65, 146.79, 191.80)"/>
<path d="M 59 76 L 66 67 L 67 79 z" fill="rgb(146.15, 157.97, 198.29)" opacity="1.000" stroke="rgb(146.15, 157.97, 198.29)"/>
<path d="M 103 30 L 110 33 L 96 45 z" fill="rgb(106.63, 122.61, 177.75)" opacity="1.000" stroke="rgb(106.63, 122.61, 177.75)"/>
<path d="M 110 33 L 103 30 L 107 29 z" fill="rgb(102.91, 119.29, 175.82)" opacity="1.000" stroke="rgb(102.91, 119.29, 175.82)"/>
<path d="M 89 21 L 103 30 L 96 45 z" fill="rgb(113.72, 128.96, 181.44)" opacity="1.000" stroke="rgb(113.72, 128.96, 181.44)"/>
<path d="M 107 29 L 103 30 L 89 21 z" fill="rgb(110.00, 125.64, 179.51)" opacity="1.000" stroke="rgb(110.00, 125.64, 179.51)"/>
<path d="M 110 48 L 100 50 L 96 45 z" fill="rgb(107.64, 123.52, 178.28)" opacity="1.000" stroke="rgb(107.64, 123.52, 178.28)"/>
<path d="M 110 33 L 110 48 L 96 45 z" fill="rgb(104.26, 120.50, 176.52)" opacity="1.000" stroke="rgb(104.26, 120.50, 176.52)"/>
<path d="M 107 53 L 110 48 L 112 49 z" fill="rgb(99.87, 116.57, 174.24)" opacity="1.000" stroke="rgb(99.87, 116.57, 174.24)"/>
<path d="M 110 48 L 107 53 L 100 50 z" fill="rgb(103.92, 120.20, 176.35)" opacity="1.000" stroke="rgb(103.92, 120.20, 176.35)"/>
<path d="M 112 49 L 110 48 L 122 39 z" fill="rgb(94.80, 112.04, 171.61)" opacity="1.000" stroke="rgb(94.80, 112.04, 171.61)"/>
<path d="M 110 48 L 110 33 L 122 39 z" fill="rgb(95.48, 112.64, 171.96)" opacity="1.000" stroke="rgb(95.48, 112.64, 171.96)"/>
<path d="M 50 67 L 61 62 L 59 76 z" fill="rgb(153.58, 164.62, 202.16)" opacity="1.000" stroke="rgb(153.58, 164.62, 202.16)"/>
<path d="M 61 62 L 66 67 L 59 76 z" fill="rgb(148.17, 159.79, 199.35)" opacity="1.000" stroke="rgb(148.17, 159.79, 199.35)"/>
<path d="M 61 62 L 48 57 L 51 53 z" fill="rgb(156.96, 167.64, 203.91)" opacity="1.000" stroke="rgb(156.96, 167.64, 203.91)"/>
<path d="M 48 57 L 61 62 L 50 67 z" fill="rgb(157.29, 167.95, 204.09)" opacity="1.000" stroke="rgb(157.29, 167.95, 204.09)"/>
<path d="M 66 67 L 61 62 L 71 59 z" fill="rgb(144.12, 156.16, 197.24)" opacity="1.000" stroke="rgb(144.12, 156.16, 197.24)"/>
<path d="M 61 54 L 51 53 L 59 49 z" fill="rgb(153.24, 164.32, 201.98)" opacity="1.000" stroke="rgb(153.24, 164.32, 201.98)"/>
<path d="M 61 54 L 61 62 L 51 53 z" fill="rgb(152.56, 163.72, 201.63)" opacity="1.000" stroke="rgb(152.56, 163.72, 201.63)"/>
<path d="M 61 62 L 61 54 L 71 59 z" fill="rgb(145.81, 157.67, 198.12)" opacity="1.000" stroke="rgb(145.81, 157.67, 198.12)"/>
<path d="M 65 46 L 61 54 L 59 49 z" fill="rgb(148.51, 160.09, 199.52)" opacity="1.000" stroke="rgb(148.51, 160.09, 199.52)"/>
<path d="M 71 59 L 61 54 L 65 46 z" fill="rgb(144.46, 156.46, 197.42)" opacity="1.000" stroke="rgb(144.46, 156.46, 197.42)"/>
 <text style="fill:white; filter:url(#shadow);" text-anchor="middle" font-size="60.0" class="sans" x="75.0" y="97.5" fill="black">TCC</text>
</g></svg>
