<svg xmlns='http://www.w3.org/2000/svg' width='100%' height='100%' viewBox='0 0 2000 300'>
  <rect fill='#102a83' width='2000' height='300' opacity="0.2"/>
  <defs>
    <radialGradient id='radial' cx='1500' cy='0' r='1000' gradientUnits='userSpaceOnUse'>
      <stop offset='0' stop-color='#102a83'/>
      <stop offset='1' stop-color='#F0F0F0'/>
    </radialGradient>
    <linearGradient id='b' gradientUnits='userSpaceOnUse' x1='400' y1='148' x2='400' y2='333'>
      <stop offset='0' stop-color='#2F8899' stop-opacity='0'/>
      <stop offset='1' stop-color='#2F8899' stop-opacity='0.5'/>
    </linearGradient>
    <linearGradient id='c' gradientUnits='userSpaceOnUse' x1='0' y1='0' x2='2000' y2='300'>
      <stop offset='0' stop-color='#FF0000' stop-opacity='1.0'/>
      <stop offset='1' stop-color='#0000FF' stop-opacity='1.0'/>
    </linearGradient>
  </defs>
  <rect fill='url(#radial)' width='2000' height='300' fill-opacity='0.1'/>
  <g fill-opacity='0.4'>
    <path d="M 0,0 C 0,50 500,50 500,0" stroke="url(#c)" fill="none"/>
    <path d="M 0,0 C 0,100 500,100 500,0" stroke="url(#c)" fill="none"/>
    <path d="M 0,0 C 0,150 500,150 500,0" stroke="url(#c)" fill="none"/>
    <path d="M 0,0 C 0,200 500,200 500,0" stroke="url(#c)" fill="none"/>
    <path d="M 0,0 C 0,250 500,250 500,0" stroke="url(#c)" fill="none"/>
    <path d="M 0,0 C 0,300 500,300 500,0" stroke="url(#c)" fill="none"/>
    <path d="M 0,0 C 0,350 500,350 500,0" stroke="url(#c)" fill="none"/>
    <path d="M 500,0 C 500,100 1000,100 1000,0" stroke="url(#c)" fill="none"/>
    <path d="M 1000,0 C 1000,100 1500,100 1500,0" stroke="url(#c)" fill="none"/>
    <path d="M 1500,0 C 1500,100 2000,100 2000,0" stroke="url(#c)" fill="none"/>
  </g>
</svg>
