<?xml version="1.0" encoding="utf-8"?>
<svg xmlns="http://www.w3.org/2000/svg" width="1000" height="1000"
     xmlns:xlink="http://www.w3.org/1999/xlink">
  <!-- created with "artbg.py -bg ffffff -ynum 20 -yoffset 200 -colors f8f8f8,f0f0f0,eaeaea,f4f4f4" -->
   
<defs>
 <linearGradient id="grad0"><stop offset="0%" stop-color="#f8f8f8"/><stop offset="100%" stop-color="#eaeaea"/></linearGradient>
 <linearGradient id="grad1"><stop offset="0%" stop-color="#f7f7f7"/><stop offset="100%" stop-color="#eaeaea"/></linearGradient>
 <linearGradient id="grad2"><stop offset="0%" stop-color="#f7f7f7"/><stop offset="100%" stop-color="#ebebeb"/></linearGradient>
 <linearGradient id="grad3"><stop offset="0%" stop-color="#f6f6f6"/><stop offset="100%" stop-color="#ebebeb"/></linearGradient>
 <linearGradient id="grad4"><stop offset="0%" stop-color="#f6f6f6"/><stop offset="100%" stop-color="#ececec"/></linearGradient>
 <linearGradient id="grad5"><stop offset="0%" stop-color="#f6f6f6"/><stop offset="100%" stop-color="#ececec"/></linearGradient>
 <linearGradient id="grad6"><stop offset="0%" stop-color="#f5f5f5"/><stop offset="100%" stop-color="#ededed"/></linearGradient>
 <linearGradient id="grad7"><stop offset="0%" stop-color="#f5f5f5"/><stop offset="100%" stop-color="#ededed"/></linearGradient>
 <linearGradient id="grad8"><stop offset="0%" stop-color="#f4f4f4"/><stop offset="100%" stop-color="#eeeeee"/></linearGradient>
 <linearGradient id="grad9"><stop offset="0%" stop-color="#f4f4f4"/><stop offset="100%" stop-color="#eeeeee"/></linearGradient>
 <linearGradient id="grad10"><stop offset="0%" stop-color="#f4f4f4"/><stop offset="100%" stop-color="#efefef"/></linearGradient>
 <linearGradient id="grad11"><stop offset="0%" stop-color="#f3f3f3"/><stop offset="100%" stop-color="#efefef"/></linearGradient>
 <linearGradient id="grad12"><stop offset="0%" stop-color="#f3f3f3"/><stop offset="100%" stop-color="#f0f0f0"/></linearGradient>
 <linearGradient id="grad13"><stop offset="0%" stop-color="#f2f2f2"/><stop offset="100%" stop-color="#f0f0f0"/></linearGradient>
 <linearGradient id="grad14"><stop offset="0%" stop-color="#f2f2f2"/><stop offset="100%" stop-color="#f1f1f1"/></linearGradient>
 <linearGradient id="grad15"><stop offset="0%" stop-color="#f2f2f2"/><stop offset="100%" stop-color="#f1f1f1"/></linearGradient>
 <linearGradient id="grad16"><stop offset="0%" stop-color="#f1f1f1"/><stop offset="100%" stop-color="#f2f2f2"/></linearGradient>
 <linearGradient id="grad17"><stop offset="0%" stop-color="#f1f1f1"/><stop offset="100%" stop-color="#f2f2f2"/></linearGradient>
 <linearGradient id="grad18"><stop offset="0%" stop-color="#f0f0f0"/><stop offset="100%" stop-color="#f3f3f3"/></linearGradient>
 <linearGradient id="grad19"><stop offset="0%" stop-color="#f0f0f0"/><stop offset="100%" stop-color="#f3f3f3"/></linearGradient>
</defs>
<g>
<rect x="0" y="0" width="1000" height="1000" fill="#ffffff"/>
<path d="M 0 0.0 C 250.0,-10.0 750.0,101.0 1000,101.0 l 0,50.0 C 750.0,151.0 250.0,-160.0 0,50.0z" fill="url(#grad0" stroke="none"/>
<path d="M 0 50.0 C 250.0,15.0 750.0,245.0 1000,245.0 l 0,50.0 C 750.0,295.0 250.0,-120.0 0,100.0z" fill="url(#grad1" stroke="none"/>
<path d="M 0 100.0 C 250.0,24.0 750.0,229.0 1000,229.0 l 0,50.0 C 750.0,279.0 250.0,-81.0 0,150.0z" fill="url(#grad2" stroke="none"/>
<path d="M 0 150.0 C 250.0,55.0 750.0,296.0 1000,296.0 l 0,50.0 C 750.0,346.0 250.0,-42.0 0,200.0z" fill="url(#grad3" stroke="none"/>
<path d="M 0 200.0 C 250.0,133.0 750.0,429.0 1000,429.0 l 0,50.0 C 750.0,479.0 250.0,-4.0 0,250.0z" fill="url(#grad4" stroke="none"/>
<path d="M 0 250.0 C 250.0,169.0 750.0,385.0 1000,385.0 l 0,50.0 C 750.0,435.0 250.0,34.0 0,300.0z" fill="url(#grad5" stroke="none"/>
<path d="M 0 300.0 C 250.0,175.0 750.0,552.0 1000,552.0 l 0,50.0 C 750.0,602.0 250.0,71.0 0,350.0z" fill="url(#grad6" stroke="none"/>
<path d="M 0 350.0 C 250.0,271.0 750.0,620.0 1000,620.0 l 0,50.0 C 750.0,670.0 250.0,108.0 0,400.0z" fill="url(#grad7" stroke="none"/>
<path d="M 0 400.0 C 250.0,310.0 750.0,563.0 1000,563.0 l 0,50.0 C 750.0,613.0 250.0,144.0 0,450.0z" fill="url(#grad8" stroke="none"/>
<path d="M 0 450.0 C 250.0,376.0 750.0,612.0 1000,612.0 l 0,50.0 C 750.0,662.0 250.0,179.0 0,500.0z" fill="url(#grad9" stroke="none"/>
<path d="M 0 500.0 C 250.0,464.0 750.0,717.0 1000,717.0 l 0,50.0 C 750.0,767.0 250.0,213.0 0,550.0z" fill="url(#grad10" stroke="none"/>
<path d="M 0 550.0 C 250.0,481.0 750.0,759.0 1000,759.0 l 0,50.0 C 750.0,809.0 250.0,247.0 0,600.0z" fill="url(#grad11" stroke="none"/>
<path d="M 0 600.0 C 250.0,450.0 750.0,900.0 1000,900.0 l 0,50.0 C 750.0,950.0 250.0,280.0 0,650.0z" fill="url(#grad12" stroke="none"/>
<path d="M 0 650.0 C 250.0,596.0 750.0,903.0 1000,903.0 l 0,50.0 C 750.0,953.0 250.0,312.0 0,700.0z" fill="url(#grad13" stroke="none"/>
<path d="M 0 700.0 C 250.0,617.0 750.0,1070.0 1000,1070.0 l 0,50.0 C 750.0,1120.0 250.0,343.0 0,750.0z" fill="url(#grad14" stroke="none"/>
<path d="M 0 750.0 C 250.0,582.0 750.0,979.0 1000,979.0 l 0,50.0 C 750.0,1029.0 250.0,373.0 0,800.0z" fill="url(#grad15" stroke="none"/>
<path d="M 0 800.0 C 250.0,587.0 750.0,1014.0 1000,1014.0 l 0,50.0 C 750.0,1064.0 250.0,402.0 0,850.0z" fill="url(#grad16" stroke="none"/>
<path d="M 0 850.0 C 250.0,819.0 750.0,1079.0 1000,1079.0 l 0,50.0 C 750.0,1129.0 250.0,430.0 0,900.0z" fill="url(#grad17" stroke="none"/>
<path d="M 0 900.0 C 250.0,673.0 750.0,1186.0 1000,1186.0 l 0,50.0 C 750.0,1236.0 250.0,457.0 0,950.0z" fill="url(#grad18" stroke="none"/>
<path d="M 0 950.0 C 250.0,722.0 750.0,1281.0 1000,1281.0 l 0,50.0 C 750.0,1331.0 250.0,483.0 0,1000.0z" fill="url(#grad19" stroke="none"/>
</g></svg>
