<?xml version="1.0" encoding="utf-8"?>
<svg xmlns="http://www.w3.org/2000/svg" width="1920" height="300"
     xmlns:xlink="http://www.w3.org/1999/xlink">
  <!-- created with "trimesh.py -blur True" -->
   
<defs><filter id="blur" x="0" y="0">""<feGaussianBlur in="SourceGraphic" stdDeviation="2" /></filter></defs><g filter="url(#blur)">
<path d="M 210.627347659 299.458366229 L 447.207489823 299.619845307 L 0 300 z" fill="#4a82a9" stroke="#77a1bf" opacity="1.000"/>
<path d="M 1591.20401002 299.920865096 L 447.207489823 299.619845307 L 1068.08205429 298.993911411 z" fill="#589fb5" stroke="#82b7c7" opacity="1.000"/>
<path d="M 0 300 L 1591.20401002 299.920865096 L 1920 300 z" fill="#609eb7" stroke="#88b6c9" opacity="1.000"/>
<path d="M 447.207489823 299.619845307 L 1591.20401002 299.920865096 L 0 300 z" fill="#1f99a2" stroke="#57b2b9" opacity="1.000"/>
<path d="M 0.0410702520263 156.010230586 L 0 300 L 0 0 z" fill="#4d7da9" stroke="#7a9ebe" opacity="1.000"/>
<path d="M 314.020908388 39.1497266285 L 312.363393859 215.870807936 L 202.110585677 136.055562334 z" fill="#4980a9" stroke="#77a0be" opacity="1.000"/>
<path d="M 312.363393859 215.870807936 L 204.379368354 191.669820844 L 202.110585677 136.055562334 z" fill="#4b7ba8" stroke="#789cbe" opacity="1.000"/>
<path d="M 210.627347659 299.458366229 L 312.558318126 298.210402429 L 447.207489823 299.619845307 z" fill="#468aaa" stroke="#74a7bf" opacity="1.000"/>
<path d="M 614.335495374 94.5582887063 L 564.330541549 126.827808936 L 541.119260062 44.6904265699 z" fill="#3897a9" stroke="#6ab1bf" opacity="1.000"/>
<path d="M 1166.69660868 242.535870054 L 1334.70011319 281.145241381 L 1068.08205429 298.993911411 z" fill="#629eb8" stroke="#89b6c9" opacity="1.000"/>
<path d="M 486.660159649 84.632551383 L 564.330541549 126.827808936 L 494.361959755 127.396148417 z" fill="#3b94a9" stroke="#6cafbf" opacity="1.000"/>
<path d="M 564.330541549 126.827808936 L 486.660159649 84.632551383 L 541.119260062 44.6904265699 z" fill="#3b95aa" stroke="#6cafbf" opacity="1.000"/>
<path d="M 486.660159649 84.632551383 L 480.170367883 7.23665035483 L 541.119260062 44.6904265699 z" fill="#3e94aa" stroke="#6eafbf" opacity="1.000"/>
<path d="M 480.170367883 7.23665035483 L 486.660159649 84.632551383 L 449.854480294 54.7015428356 z" fill="#4092aa" stroke="#70adbf" opacity="1.000"/>
<path d="M 926.825979192 73.3356550674 L 996.749695434 0.340563910864 L 1020.25912673 123.681225591 z" fill="#87b2c8" stroke="#a5c5d6" opacity="1.000"/>
<path d="M 952.188630419 261.04787027 L 926.825979192 73.3356550674 L 1020.25912673 123.681225591 z" fill="#61a5b9" stroke="#88bbcb" opacity="1.000"/>
<path d="M 0.0410702520263 156.010230586 L 0.886380393404 286.2779676 L 0 300 z" fill="#4d80aa" stroke="#79a0bf" opacity="1.000"/>
<path d="M 0.886380393404 286.2779676 L 10.4777782731 281.455374429 L 0 300 z" fill="#4d82aa" stroke="#79a1bf" opacity="1.000"/>
<path d="M 357.920920659 239.265086334 L 312.558318126 298.210402429 L 312.363393859 215.870807936 z" fill="#4688aa" stroke="#74a6bf" opacity="1.000"/>
<path d="M 460.879690366 133.028842132 L 486.660159649 84.632551383 L 494.361959755 127.396148417 z" fill="#3e92aa" stroke="#6eadbf" opacity="1.000"/>
<path d="M 486.660159649 84.632551383 L 460.879690366 133.028842132 L 449.854480294 54.7015428356 z" fill="#3f92aa" stroke="#6fadbf" opacity="1.000"/>
<path d="M 357.920920659 239.265086334 L 460.879690366 133.028842132 L 447.73689103 205.897588423 z" fill="#408faa" stroke="#70abbf" opacity="1.000"/>
<path d="M 152.215906539 132.237072612 L 191.234893542 73.717306876 L 202.110585677 136.055562334 z" fill="#4e71a6" stroke="#7a95bc" opacity="1.000"/>
<path d="M 254.156813619 24.1847574288 L 180.15877914 14.7923873502 L 382.472603993 1.44428786484 z" fill="#4985aa" stroke="#77a4bf" opacity="1.000"/>
<path d="M 314.020908388 39.1497266285 L 254.156813619 24.1847574288 L 382.472603993 1.44428786484 z" fill="#4889aa" stroke="#75a6bf" opacity="1.000"/>
<path d="M 254.156813619 24.1847574288 L 191.234893542 73.717306876 L 180.15877914 14.7923873502 z" fill="#4b7fa9" stroke="#789fbe" opacity="1.000"/>
<path d="M 254.156813619 24.1847574288 L 314.020908388 39.1497266285 L 202.110585677 136.055562334 z" fill="#4a81a9" stroke="#77a0be" opacity="1.000"/>
<path d="M 191.234893542 73.717306876 L 254.156813619 24.1847574288 L 202.110585677 136.055562334 z" fill="#4c7ba8" stroke="#789cbe" opacity="1.000"/>
<path d="M 906.980605771 261.078207418 L 566.384995477 297.381025101 L 795.61005859 220.417094283 z" fill="#239aa3" stroke="#5ab3ba" opacity="1.000"/>
<path d="M 906.980605771 261.078207418 L 926.825979192 73.3356550674 L 952.188630419 261.04787027 z" fill="#52a1b4" stroke="#7db8c6" opacity="1.000"/>
<path d="M 566.384995477 297.381025101 L 575.921832984 208.214385734 L 795.61005859 220.417094283 z" fill="#1f98a2" stroke="#57b2b9" opacity="1.000"/>
<path d="M 575.921832984 208.214385734 L 564.330541549 126.827808936 L 614.335495374 94.5582887063 z" fill="#3497a8" stroke="#67b1be" opacity="1.000"/>
<path d="M 447.207489823 299.619845307 L 488.435392668 299.283726471 L 1068.08205429 298.993911411 z" fill="#2098a2" stroke="#58b2b9" opacity="1.000"/>
<path d="M 488.435392668 299.283726471 L 566.384995477 297.381025101 L 1068.08205429 298.993911411 z" fill="#1d99a2" stroke="#56b2b9" opacity="1.000"/>
<path d="M 1086.70202726 245.291198692 L 1166.69660868 242.535870054 L 1068.08205429 298.993911411 z" fill="#5f9fb7" stroke="#87b7c9" opacity="1.000"/>
<path d="M 996.529692672 273.59748686 L 1086.70202726 245.291198692 L 1068.08205429 298.993911411 z" fill="#5ba0b6" stroke="#84b7c8" opacity="1.000"/>
<path d="M 1405.00750982 289.00774218 L 1591.20401002 299.920865096 L 1068.08205429 298.993911411 z" fill="#679bb9" stroke="#8db4ca" opacity="1.000"/>
<path d="M 1334.70011319 281.145241381 L 1405.00750982 289.00774218 L 1068.08205429 298.993911411 z" fill="#649cb8" stroke="#8bb5ca" opacity="1.000"/>
<path d="M 1233.95587904 229.998146175 L 1334.70011319 281.145241381 L 1166.69660868 242.535870054 z" fill="#649db8" stroke="#8bb5ca" opacity="1.000"/>
<path d="M 1.41072213066 112.797022678 L 0.0410702520263 156.010230586 L 0 0 z" fill="#4d7fa9" stroke="#7a9fbf" opacity="1.000"/>
<path d="M 1.73281027122 87.2604320912 L 1.41072213066 112.797022678 L 0 0 z" fill="#4d7faa" stroke="#7a9fbf" opacity="1.000"/>
<path d="M 180.15877914 14.7923873502 L 44.8572006811 0.258176350345 L 382.472603993 1.44428786484 z" fill="#4b81a9" stroke="#78a1bf" opacity="1.000"/>
<path d="M 422.587163806 0.408174223184 L 44.8572006811 0.258176350345 L 0 0 z" fill="#4c80a9" stroke="#79a0bf" opacity="1.000"/>
<path d="M 44.8572006811 0.258176350345 L 422.587163806 0.408174223184 L 382.472603993 1.44428786484 z" fill="#4987aa" stroke="#76a5bf" opacity="1.000"/>
<path d="M 996.749695434 0.340563910864 L 1114.32439814 7.48451592332 L 1020.25912673 123.681225591 z" fill="#8cb2ca" stroke="#a9c5d7" opacity="1.000"/>
<path d="M 1200.11378468 0.499235239293 L 1114.32439814 7.48451592332 L 996.749695434 0.340563910864 z" fill="#77a9c1" stroke="#99bed0" opacity="1.000"/>
<path d="M 926.825979192 73.3356550674 L 908.570860433 0.866823361719 L 996.749695434 0.340563910864 z" fill="#79aec3" stroke="#9ac2d2" opacity="1.000"/>
<path d="M 908.570860433 0.866823361719 L 926.825979192 73.3356550674 L 854.469191223 51.3295222536 z" fill="#55a5b5" stroke="#7fbbc8" opacity="1.000"/>
<path d="M 926.825979192 73.3356550674 L 835.29071022 142.442920849 L 854.469191223 51.3295222536 z" fill="#4aa1b1" stroke="#77b9c5" opacity="1.000"/>
<path d="M 835.29071022 142.442920849 L 906.980605771 261.078207418 L 795.61005859 220.417094283 z" fill="#3f9dad" stroke="#6fb6c1" opacity="1.000"/>
<path d="M 906.980605771 261.078207418 L 835.29071022 142.442920849 L 926.825979192 73.3356550674 z" fill="#4da1b2" stroke="#79b8c5" opacity="1.000"/>
<path d="M 628.780550636 15.0573956169 L 614.335495374 94.5582887063 L 541.119260062 44.6904265699 z" fill="#3997aa" stroke="#6ab1bf" opacity="1.000"/>
<path d="M 429.710771349 10.5964659831 L 480.170367883 7.23665035483 L 449.854480294 54.7015428356 z" fill="#4292ab" stroke="#71adc0" opacity="1.000"/>
<path d="M 429.710771349 10.5964659831 L 422.587163806 0.408174223184 L 480.170367883 7.23665035483 z" fill="#4291ab" stroke="#71adc0" opacity="1.000"/>
<path d="M 422.587163806 0.408174223184 L 429.710771349 10.5964659831 L 382.472603993 1.44428786484 z" fill="#448fab" stroke="#73abc0" opacity="1.000"/>
<path d="M 203.678681432 268.092992216 L 137.782902381 169.862619956 L 204.379368354 191.669820844 z" fill="#4d75a7" stroke="#7998bd" opacity="1.000"/>
<path d="M 204.379368354 191.669820844 L 137.782902381 169.862619956 L 202.110585677 136.055562334 z" fill="#4e6ea6" stroke="#7a92bc" opacity="1.000"/>
<path d="M 137.782902381 169.862619956 L 152.215906539 132.237072612 L 202.110585677 136.055562334 z" fill="#5068a4" stroke="#7b8ebb" opacity="1.000"/>
<path d="M 5.26117308254 185.723290498 L 0.0410702520263 156.010230586 L 11.0568889224 168.733310154 z" fill="#4d7da9" stroke="#7a9dbe" opacity="1.000"/>
<path d="M 5.26117308254 185.723290498 L 0.886380393404 286.2779676 L 0.0410702520263 156.010230586 z" fill="#4d7ea9" stroke="#799ebf" opacity="1.000"/>
<path d="M 411.862103911 259.921400925 L 357.920920659 239.265086334 L 447.73689103 205.897588423 z" fill="#418eaa" stroke="#71aabf" opacity="1.000"/>
<path d="M 460.879690366 133.028842132 L 408.642981252 74.6863999355 L 449.854480294 54.7015428356 z" fill="#4190aa" stroke="#70acbf" opacity="1.000"/>
<path d="M 408.642981252 74.6863999355 L 314.020908388 39.1497266285 L 382.472603993 1.44428786484 z" fill="#458caa" stroke="#74a9bf" opacity="1.000"/>
<path d="M 314.020908388 39.1497266285 L 408.642981252 74.6863999355 L 312.363393859 215.870807936 z" fill="#4689aa" stroke="#74a6bf" opacity="1.000"/>
<path d="M 429.710771349 10.5964659831 L 408.642981252 74.6863999355 L 382.472603993 1.44428786484 z" fill="#448fab" stroke="#72abc0" opacity="1.000"/>
<path d="M 408.642981252 74.6863999355 L 429.710771349 10.5964659831 L 449.854480294 54.7015428356 z" fill="#4290ab" stroke="#71acc0" opacity="1.000"/>
<path d="M 408.642981252 74.6863999355 L 357.920920659 239.265086334 L 312.363393859 215.870807936 z" fill="#458aaa" stroke="#73a7bf" opacity="1.000"/>
<path d="M 408.642981252 74.6863999355 L 460.879690366 133.028842132 L 357.920920659 239.265086334 z" fill="#428eaa" stroke="#71aabf" opacity="1.000"/>
<path d="M 312.558318126 298.210402429 L 273.593385706 275.044040113 L 312.363393859 215.870807936 z" fill="#4786aa" stroke="#75a4bf" opacity="1.000"/>
<path d="M 273.593385706 275.044040113 L 204.379368354 191.669820844 L 312.363393859 215.870807936 z" fill="#4981a9" stroke="#77a0be" opacity="1.000"/>
<path d="M 273.593385706 275.044040113 L 203.678681432 268.092992216 L 204.379368354 191.669820844 z" fill="#4b7ea9" stroke="#789ebe" opacity="1.000"/>
<path d="M 203.678681432 268.092992216 L 273.593385706 275.044040113 L 210.627347659 299.458366229 z" fill="#4a82a9" stroke="#77a1be" opacity="1.000"/>
<path d="M 205.782238089 299.15098202 L 203.678681432 268.092992216 L 210.627347659 299.458366229 z" fill="#4a81a9" stroke="#77a0be" opacity="1.000"/>
<path d="M 205.782238089 299.15098202 L 210.627347659 299.458366229 L 0 300 z" fill="#4c7fa9" stroke="#789fbe" opacity="1.000"/>
<path d="M 566.384995477 297.381025101 L 984.588866951 296.394696212 L 1068.08205429 298.993911411 z" fill="#429cae" stroke="#71b5c2" opacity="1.000"/>
<path d="M 906.980605771 261.078207418 L 984.588866951 296.394696212 L 566.384995477 297.381025101 z" fill="#379baa" stroke="#69b4bf" opacity="1.000"/>
<path d="M 984.588866951 296.394696212 L 996.529692672 273.59748686 L 1068.08205429 298.993911411 z" fill="#579fb5" stroke="#81b7c7" opacity="1.000"/>
<path d="M 996.529692672 273.59748686 L 984.588866951 296.394696212 L 952.188630419 261.04787027 z" fill="#539fb4" stroke="#7eb7c6" opacity="1.000"/>
<path d="M 984.588866951 296.394696212 L 906.980605771 261.078207418 L 952.188630419 261.04787027 z" fill="#509fb2" stroke="#7bb7c5" opacity="1.000"/>
<path d="M 476.575381554 165.720706223 L 460.879690366 133.028842132 L 494.361959755 127.396148417 z" fill="#3d92aa" stroke="#6dadbf" opacity="1.000"/>
<path d="M 460.879690366 133.028842132 L 476.575381554 165.720706223 L 447.73689103 205.897588423 z" fill="#3e91aa" stroke="#6eadbf" opacity="1.000"/>
<path d="M 476.575381554 165.720706223 L 487.209456332 192.228736463 L 447.73689103 205.897588423 z" fill="#3d92a9" stroke="#6dadbf" opacity="1.000"/>
<path d="M 575.921832984 208.214385734 L 487.209456332 192.228736463 L 564.330541549 126.827808936 z" fill="#3695a8" stroke="#68b0be" opacity="1.000"/>
<path d="M 564.330541549 126.827808936 L 487.209456332 192.228736463 L 494.361959755 127.396148417 z" fill="#3a94a9" stroke="#6bafbe" opacity="1.000"/>
<path d="M 487.209456332 192.228736463 L 476.575381554 165.720706223 L 494.361959755 127.396148417 z" fill="#3c93a9" stroke="#6daebf" opacity="1.000"/>
<path d="M 507.75707899 235.031438162 L 487.209456332 192.228736463 L 575.921832984 208.214385734 z" fill="#3794a8" stroke="#69afbe" opacity="1.000"/>
<path d="M 1043.63795886 138.085446761 L 1086.70202726 245.291198692 L 996.529692672 273.59748686 z" fill="#5fa2b8" stroke="#87b9ca" opacity="1.000"/>
<path d="M 1043.63795886 138.085446761 L 952.188630419 261.04787027 L 1020.25912673 123.681225591 z" fill="#63a4ba" stroke="#8abbcb" opacity="1.000"/>
<path d="M 1043.63795886 138.085446761 L 996.529692672 273.59748686 L 952.188630419 261.04787027 z" fill="#5aa1b6" stroke="#83b9c8" opacity="1.000"/>
<path d="M 1086.70202726 245.291198692 L 1043.63795886 138.085446761 L 1166.69660868 242.535870054 z" fill="#63a1b9" stroke="#8ab9ca" opacity="1.000"/>
<path d="M 1405.00750982 289.00774218 L 1525.60272744 282.183893274 L 1591.20401002 299.920865096 z" fill="#6e9bbb" stroke="#92b4cc" opacity="1.000"/>
<path d="M 1325.17183306 251.585322876 L 1233.95587904 229.998146175 L 1306.20814187 211.590871811 z" fill="#669bb8" stroke="#8cb4ca" opacity="1.000"/>
<path d="M 1233.95587904 229.998146175 L 1325.17183306 251.585322876 L 1334.70011319 281.145241381 z" fill="#659bb8" stroke="#8cb4ca" opacity="1.000"/>
<path d="M 1325.17183306 251.585322876 L 1405.00750982 289.00774218 L 1334.70011319 281.145241381 z" fill="#679ab8" stroke="#8db3ca" opacity="1.000"/>
<path d="M 1325.17183306 251.585322876 L 1431.1446568 259.701389811 L 1405.00750982 289.00774218 z" fill="#689ab9" stroke="#8eb3ca" opacity="1.000"/>
<path d="M 1251.35741785 11.6681400391 L 1200.11378468 0.499235239293 L 1406.87208017 11.3063385767 z" fill="#6899b9" stroke="#8eb2ca" opacity="1.000"/>
<path d="M 1165.53582001 73.9416725217 L 1233.95587904 229.998146175 L 1166.69660868 242.535870054 z" fill="#669fb9" stroke="#8cb7cb" opacity="1.000"/>
<path d="M 9.04324432636 115.179518517 L 137.782902381 169.862619956 L 11.0568889224 168.733310154 z" fill="#4e78a8" stroke="#7a9abe" opacity="1.000"/>
<path d="M 137.782902381 169.862619956 L 9.04324432636 115.179518517 L 152.215906539 132.237072612 z" fill="#4e71a6" stroke="#7a94bc" opacity="1.000"/>
<path d="M 9.04324432636 115.179518517 L 1.41072213066 112.797022678 L 1.73281027122 87.2604320912 z" fill="#4d7ea9" stroke="#7a9ebf" opacity="1.000"/>
<path d="M 1.90411684724 8.80914341435 L 1.73281027122 87.2604320912 L 0 0 z" fill="#4d81aa" stroke="#79a0bf" opacity="1.000"/>
<path d="M 151.340279326 71.7219237093 L 191.234893542 73.717306876 L 152.215906539 132.237072612 z" fill="#4e73a7" stroke="#7a96bd" opacity="1.000"/>
<path d="M 1490.39208194 60.287836311 L 1417.56140961 24.7403320811 L 1406.87208017 11.3063385767 z" fill="#6889b4" stroke="#8da6c7" opacity="1.000"/>
<path d="M 835.29071022 142.442920849 L 837.287175228 61.1814741286 L 854.469191223 51.3295222536 z" fill="#3e9fad" stroke="#6eb7c2" opacity="1.000"/>
<path d="M 837.287175228 61.1814741286 L 835.29071022 142.442920849 L 728.416299201 28.9051378451 z" fill="#329da9" stroke="#65b5be" opacity="1.000"/>
<path d="M 684.218592287 63.5907311355 L 835.29071022 142.442920849 L 795.61005859 220.417094283 z" fill="#349ca9" stroke="#66b4bf" opacity="1.000"/>
<path d="M 835.29071022 142.442920849 L 684.218592287 63.5907311355 L 728.416299201 28.9051378451 z" fill="#309ba8" stroke="#64b4be" opacity="1.000"/>
<path d="M 480.170367883 7.23665035483 L 561.376281513 5.29525841372 L 541.119260062 44.6904265699 z" fill="#3e95ab" stroke="#6eafc0" opacity="1.000"/>
<path d="M 561.376281513 5.29525841372 L 628.780550636 15.0573956169 L 541.119260062 44.6904265699 z" fill="#3b97aa" stroke="#6cb1bf" opacity="1.000"/>
<path d="M 422.587163806 0.408174223184 L 561.376281513 5.29525841372 L 480.170367883 7.23665035483 z" fill="#4093ab" stroke="#70aec0" opacity="1.000"/>
<path d="M 137.782902381 169.862619956 L 147.285825245 291.015905206 L 92.3267547398 255.72707815 z" fill="#4d78a8" stroke="#799abd" opacity="1.000"/>
<path d="M 147.285825245 291.015905206 L 137.782902381 169.862619956 L 203.678681432 268.092992216 z" fill="#4c79a8" stroke="#799abd" opacity="1.000"/>
<path d="M 205.782238089 299.15098202 L 147.285825245 291.015905206 L 203.678681432 268.092992216 z" fill="#4b7fa9" stroke="#789fbe" opacity="1.000"/>
<path d="M 147.285825245 291.015905206 L 70.4355404316 266.626884914 L 92.3267547398 255.72707815 z" fill="#4c7da9" stroke="#799dbe" opacity="1.000"/>
<path d="M 70.4355404316 266.626884914 L 147.285825245 291.015905206 L 0 300 z" fill="#4c7fa9" stroke="#799fbf" opacity="1.000"/>
<path d="M 147.285825245 291.015905206 L 205.782238089 299.15098202 L 0 300 z" fill="#4c7fa9" stroke="#799fbe" opacity="1.000"/>
<path d="M 65.8677071245 240.2312274 L 137.782902381 169.862619956 L 92.3267547398 255.72707815 z" fill="#4d77a8" stroke="#7a99bd" opacity="1.000"/>
<path d="M 70.4355404316 266.626884914 L 65.8677071245 240.2312274 L 92.3267547398 255.72707815 z" fill="#4d7ca9" stroke="#799dbe" opacity="1.000"/>
<path d="M 28.4907331946 239.068617204 L 5.26117308254 185.723290498 L 42.734136855 237.083686612 z" fill="#4d7da9" stroke="#799dbe" opacity="1.000"/>
<path d="M 0.886380393404 286.2779676 L 28.4907331946 239.068617204 L 10.4777782731 281.455374429 z" fill="#4d80aa" stroke="#79a0bf" opacity="1.000"/>
<path d="M 5.26117308254 185.723290498 L 28.4907331946 239.068617204 L 0.886380393404 286.2779676 z" fill="#4d7fa9" stroke="#799fbf" opacity="1.000"/>
<path d="M 357.920920659 239.265086334 L 370.936767116 286.449622336 L 312.558318126 298.210402429 z" fill="#458aaa" stroke="#73a7bf" opacity="1.000"/>
<path d="M 312.558318126 298.210402429 L 370.936767116 286.449622336 L 447.207489823 299.619845307 z" fill="#438daa" stroke="#72a9bf" opacity="1.000"/>
<path d="M 281.301635708 288.272565932 L 312.558318126 298.210402429 L 210.627347659 299.458366229 z" fill="#4885aa" stroke="#76a4bf" opacity="1.000"/>
<path d="M 273.593385706 275.044040113 L 281.301635708 288.272565932 L 210.627347659 299.458366229 z" fill="#4984a9" stroke="#76a3bf" opacity="1.000"/>
<path d="M 281.301635708 288.272565932 L 273.593385706 275.044040113 L 312.558318126 298.210402429 z" fill="#4787aa" stroke="#75a5bf" opacity="1.000"/>
<path d="M 488.435392668 299.283726471 L 518.829023872 291.198191889 L 566.384995477 297.381025101 z" fill="#3795a8" stroke="#69afbe" opacity="1.000"/>
<path d="M 474.50852283 256.128313604 L 488.435392668 299.283726471 L 447.207489823 299.619845307 z" fill="#3c92a9" stroke="#6dadbf" opacity="1.000"/>
<path d="M 474.50852283 256.128313604 L 518.829023872 291.198191889 L 488.435392668 299.283726471 z" fill="#3a93a9" stroke="#6baebe" opacity="1.000"/>
<path d="M 518.829023872 291.198191889 L 474.50852283 256.128313604 L 507.75707899 235.031438162 z" fill="#3993a9" stroke="#6baebe" opacity="1.000"/>
<path d="M 411.862103911 259.921400925 L 474.50852283 256.128313604 L 447.207489823 299.619845307 z" fill="#3e91aa" stroke="#6eacbf" opacity="1.000"/>
<path d="M 474.50852283 256.128313604 L 411.862103911 259.921400925 L 447.73689103 205.897588423 z" fill="#3e91aa" stroke="#6eacbf" opacity="1.000"/>
<path d="M 487.209456332 192.228736463 L 474.50852283 256.128313604 L 447.73689103 205.897588423 z" fill="#3c92a9" stroke="#6dadbf" opacity="1.000"/>
<path d="M 507.75707899 235.031438162 L 474.50852283 256.128313604 L 487.209456332 192.228736463 z" fill="#3a93a9" stroke="#6baebe" opacity="1.000"/>
<path d="M 1850.84375533 291.489818964 L 1719.27947252 299.489694635 L 1737.35264667 286.251854009 z" fill="#8aaac7" stroke="#a7bfd5" opacity="1.000"/>
<path d="M 1819.4232233 275.68516732 L 1850.84375533 291.489818964 L 1737.35264667 286.251854009 z" fill="#91adca" stroke="#adc2d7" opacity="1.000"/>
<path d="M 1719.27947252 299.489694635 L 1850.84375533 291.489818964 L 1920 300 z" fill="#99b1cd" stroke="#b2c5da" opacity="1.000"/>
<path d="M 1627.18485818 236.226741024 L 1650.9349211 293.661095763 L 1591.20401002 299.920865096 z" fill="#769ebe" stroke="#98b6ce" opacity="1.000"/>
<path d="M 1719.27947252 299.489694635 L 1725.07169645 255.854534874 L 1737.35264667 286.251854009 z" fill="#82a5c3" stroke="#a1bbd2" opacity="1.000"/>
<path d="M 1725.07169645 255.854534874 L 1819.4232233 275.68516732 L 1737.35264667 286.251854009 z" fill="#88a8c6" stroke="#a6bed4" opacity="1.000"/>
<path d="M 1627.18485818 236.226741024 L 1592.09888876 107.527178273 L 1693.27512257 161.968350662 z" fill="#7399bc" stroke="#96b3cd" opacity="1.000"/>
<path d="M 1592.09888876 107.527178273 L 1629.35197849 92.4640775457 L 1693.27512257 161.968350662 z" fill="#7197bb" stroke="#95b1cc" opacity="1.000"/>
<path d="M 1592.09888876 107.527178273 L 1627.18485818 236.226741024 L 1516.88018453 157.871078504 z" fill="#6f96ba" stroke="#93b0cb" opacity="1.000"/>
<path d="M 1629.35197849 92.4640775457 L 1696.38352465 88.9595633755 L 1693.27512257 161.968350662 z" fill="#7499bc" stroke="#96b2cd" opacity="1.000"/>
<path d="M 1610.4500218 0.0168198949846 L 1490.39208194 60.287836311 L 1406.87208017 11.3063385767 z" fill="#677eb2" stroke="#8d9ec5" opacity="1.000"/>
<path d="M 1200.11378468 0.499235239293 L 1610.4500218 0.0168198949846 L 1406.87208017 11.3063385767 z" fill="#688cb5" stroke="#8da9c8" opacity="1.000"/>
<path d="M 1610.4500218 0.0168198949846 L 1200.11378468 0.499235239293 L 996.749695434 0.340563910864 z" fill="#699ab9" stroke="#8eb3ca" opacity="1.000"/>
<path d="M 1538.00156553 240.221661524 L 1627.18485818 236.226741024 L 1591.20401002 299.920865096 z" fill="#729cbc" stroke="#95b4cd" opacity="1.000"/>
<path d="M 1525.60272744 282.183893274 L 1538.00156553 240.221661524 L 1591.20401002 299.920865096 z" fill="#709bbb" stroke="#94b4cc" opacity="1.000"/>
<path d="M 1433.63720221 272.68582512 L 1525.60272744 282.183893274 L 1405.00750982 289.00774218 z" fill="#6b9aba" stroke="#90b3cb" opacity="1.000"/>
<path d="M 1431.1446568 259.701389811 L 1433.63720221 272.68582512 L 1405.00750982 289.00774218 z" fill="#6a9ab9" stroke="#8fb3ca" opacity="1.000"/>
<path d="M 1332.88874567 95.8201823509 L 1417.56140961 24.7403320811 L 1419.51381096 96.4914823769 z" fill="#6891b7" stroke="#8eacc9" opacity="1.000"/>
<path d="M 1193.11641773 1.47150965706 L 1114.32439814 7.48451592332 L 1200.11378468 0.499235239293 z" fill="#6ea2bc" stroke="#92b9cd" opacity="1.000"/>
<path d="M 1251.35741785 11.6681400391 L 1211.99548646 39.6855989569 L 1200.11378468 0.499235239293 z" fill="#6a9eba" stroke="#8fb6cb" opacity="1.000"/>
<path d="M 1211.99548646 39.6855989569 L 1193.11641773 1.47150965706 L 1200.11378468 0.499235239293 z" fill="#6ba0bb" stroke="#90b7cc" opacity="1.000"/>
<path d="M 1043.63795886 138.085446761 L 1146.85776382 69.0846591225 L 1166.69660868 242.535870054 z" fill="#6aa3bb" stroke="#8fbacc" opacity="1.000"/>
<path d="M 1146.85776382 69.0846591225 L 1165.53582001 73.9416725217 L 1166.69660868 242.535870054 z" fill="#6aa2bb" stroke="#8fb9cc" opacity="1.000"/>
<path d="M 1.41072213066 112.797022678 L 1.68590662915 126.968467941 L 0.0410702520263 156.010230586 z" fill="#4d7da9" stroke="#7a9ebf" opacity="1.000"/>
<path d="M 9.04324432636 115.179518517 L 1.68590662915 126.968467941 L 1.41072213066 112.797022678 z" fill="#4d7da9" stroke="#7a9ebf" opacity="1.000"/>
<path d="M 0.0410702520263 156.010230586 L 1.68590662915 126.968467941 L 11.0568889224 168.733310154 z" fill="#4d7da9" stroke="#7a9dbe" opacity="1.000"/>
<path d="M 1.68590662915 126.968467941 L 9.04324432636 115.179518517 L 11.0568889224 168.733310154 z" fill="#4d7da9" stroke="#7a9dbe" opacity="1.000"/>
<path d="M 7.28524658377 5.05857915378 L 1.90411684724 8.80914341435 L 0 0 z" fill="#4d82aa" stroke="#79a1bf" opacity="1.000"/>
<path d="M 44.8572006811 0.258176350345 L 30.4595092492 1.87799073468 L 0 0 z" fill="#4d82aa" stroke="#79a1bf" opacity="1.000"/>
<path d="M 30.4595092492 1.87799073468 L 7.28524658377 5.05857915378 L 0 0 z" fill="#4d82aa" stroke="#79a1bf" opacity="1.000"/>
<path d="M 9.04324432636 115.179518517 L 91.0006974219 53.1111830895 L 152.215906539 132.237072612 z" fill="#4e76a7" stroke="#7a98bd" opacity="1.000"/>
<path d="M 191.234893542 73.717306876 L 164.375020681 63.5155781862 L 180.15877914 14.7923873502 z" fill="#4c7ba8" stroke="#799cbe" opacity="1.000"/>
<path d="M 151.340279326 71.7219237093 L 164.375020681 63.5155781862 L 191.234893542 73.717306876 z" fill="#4d78a8" stroke="#7999bd" opacity="1.000"/>
<path d="M 1435.34281202 96.2582884337 L 1417.56140961 24.7403320811 L 1490.39208194 60.287836311 z" fill="#688ab5" stroke="#8ea7c7" opacity="1.000"/>
<path d="M 1417.56140961 24.7403320811 L 1435.34281202 96.2582884337 L 1419.51381096 96.4914823769 z" fill="#688eb6" stroke="#8eaac8" opacity="1.000"/>
<path d="M 1435.34281202 96.2582884337 L 1435.15094719 138.294502142 L 1419.51381096 96.4914823769 z" fill="#6991b7" stroke="#8eacc9" opacity="1.000"/>
<path d="M 1462.78928296 238.451436226 L 1435.15094719 138.294502142 L 1516.88018453 157.871078504 z" fill="#6b95b8" stroke="#90afca" opacity="1.000"/>
<path d="M 1435.15094719 138.294502142 L 1462.78928296 238.451436226 L 1431.1446568 259.701389811 z" fill="#6a97b9" stroke="#8fb1ca" opacity="1.000"/>
<path d="M 1462.78928296 238.451436226 L 1538.00156553 240.221661524 L 1525.60272744 282.183893274 z" fill="#6d99ba" stroke="#92b3cb" opacity="1.000"/>
<path d="M 1433.63720221 272.68582512 L 1462.78928296 238.451436226 L 1525.60272744 282.183893274 z" fill="#6c99ba" stroke="#90b3cb" opacity="1.000"/>
<path d="M 1462.78928296 238.451436226 L 1433.63720221 272.68582512 L 1431.1446568 259.701389811 z" fill="#6a99b9" stroke="#8fb2ca" opacity="1.000"/>
<path d="M 837.287175228 61.1814741286 L 762.583372161 0.0284090179124 L 854.469191223 51.3295222536 z" fill="#279ca5" stroke="#5db5bc" opacity="1.000"/>
<path d="M 762.583372161 0.0284090179124 L 908.570860433 0.866823361719 L 854.469191223 51.3295222536 z" fill="#2d9ea8" stroke="#61b6bd" opacity="1.000"/>
<path d="M 908.570860433 0.866823361719 L 762.583372161 0.0284090179124 L 996.749695434 0.340563910864 z" fill="#4ea3b3" stroke="#7abac6" opacity="1.000"/>
<path d="M 762.583372161 0.0284090179124 L 1610.4500218 0.0168198949846 L 996.749695434 0.340563910864 z" fill="#73a6bf" stroke="#96bccf" opacity="1.000"/>
<path d="M 762.583372161 0.0284090179124 L 422.587163806 0.408174223184 L 0 0 z" fill="#458fab" stroke="#73abc0" opacity="1.000"/>
<path d="M 628.780550636 15.0573956169 L 642.947774905 83.076034132 L 614.335495374 94.5582887063 z" fill="#3699a9" stroke="#68b2be" opacity="1.000"/>
<path d="M 642.947774905 83.076034132 L 684.218592287 63.5907311355 L 795.61005859 220.417094283 z" fill="#309aa8" stroke="#64b3bd" opacity="1.000"/>
<path d="M 575.921832984 208.214385734 L 642.947774905 83.076034132 L 795.61005859 220.417094283 z" fill="#2999a5" stroke="#5eb2bb" opacity="1.000"/>
<path d="M 642.947774905 83.076034132 L 575.921832984 208.214385734 L 614.335495374 94.5582887063 z" fill="#3398a8" stroke="#66b1be" opacity="1.000"/>
<path d="M 561.376281513 5.29525841372 L 657.072735705 0.371465822015 L 628.780550636 15.0573956169 z" fill="#3998aa" stroke="#6bb2bf" opacity="1.000"/>
<path d="M 657.072735705 0.371465822015 L 561.376281513 5.29525841372 L 422.587163806 0.408174223184 z" fill="#3d96ab" stroke="#6eb0c0" opacity="1.000"/>
<path d="M 762.583372161 0.0284090179124 L 657.072735705 0.371465822015 L 422.587163806 0.408174223184 z" fill="#3a98aa" stroke="#6bb2bf" opacity="1.000"/>
<path d="M 657.072735705 0.371465822015 L 762.583372161 0.0284090179124 L 725.858684987 0.273518362089 z" fill="#2e9ba7" stroke="#62b4bd" opacity="1.000"/>
<path d="M 65.8677071245 240.2312274 L 60.7401192029 241.725030811 L 42.734136855 237.083686612 z" fill="#4d7ca9" stroke="#799dbe" opacity="1.000"/>
<path d="M 60.7401192029 241.725030811 L 65.8677071245 240.2312274 L 70.4355404316 266.626884914 z" fill="#4d7ca9" stroke="#799dbe" opacity="1.000"/>
<path d="M 137.782902381 169.862619956 L 12.5783643751 178.276131863 L 11.0568889224 168.733310154 z" fill="#4e78a8" stroke="#7a9abe" opacity="1.000"/>
<path d="M 65.8677071245 240.2312274 L 12.5783643751 178.276131863 L 137.782902381 169.862619956 z" fill="#4e77a8" stroke="#7a99bd" opacity="1.000"/>
<path d="M 12.5783643751 178.276131863 L 65.8677071245 240.2312274 L 42.734136855 237.083686612 z" fill="#4d7ca9" stroke="#799cbe" opacity="1.000"/>
<path d="M 12.5783643751 178.276131863 L 5.26117308254 185.723290498 L 11.0568889224 168.733310154 z" fill="#4d7da9" stroke="#7a9dbe" opacity="1.000"/>
<path d="M 5.26117308254 185.723290498 L 12.5783643751 178.276131863 L 42.734136855 237.083686612 z" fill="#4d7da9" stroke="#7a9dbe" opacity="1.000"/>
<path d="M 25.5173661876 270.138052093 L 28.4907331946 239.068617204 L 42.734136855 237.083686612 z" fill="#4d7ea9" stroke="#799ebf" opacity="1.000"/>
<path d="M 60.7401192029 241.725030811 L 25.5173661876 270.138052093 L 42.734136855 237.083686612 z" fill="#4d7ea9" stroke="#799ebe" opacity="1.000"/>
<path d="M 25.5173661876 270.138052093 L 60.7401192029 241.725030811 L 70.4355404316 266.626884914 z" fill="#4d7ea9" stroke="#799ebe" opacity="1.000"/>
<path d="M 28.4907331946 239.068617204 L 25.5173661876 270.138052093 L 10.4777782731 281.455374429 z" fill="#4d80aa" stroke="#799fbf" opacity="1.000"/>
<path d="M 10.4777782731 281.455374429 L 25.5173661876 270.138052093 L 0 300 z" fill="#4d81aa" stroke="#79a1bf" opacity="1.000"/>
<path d="M 25.5173661876 270.138052093 L 70.4355404316 266.626884914 L 0 300 z" fill="#4d80aa" stroke="#79a0bf" opacity="1.000"/>
<path d="M 411.862103911 259.921400925 L 389.731669859 280.720098231 L 357.920920659 239.265086334 z" fill="#428daa" stroke="#71a9bf" opacity="1.000"/>
<path d="M 389.731669859 280.720098231 L 370.936767116 286.449622336 L 357.920920659 239.265086334 z" fill="#438caa" stroke="#72a9bf" opacity="1.000"/>
<path d="M 389.731669859 280.720098231 L 411.862103911 259.921400925 L 447.207489823 299.619845307 z" fill="#408faa" stroke="#70abbf" opacity="1.000"/>
<path d="M 370.936767116 286.449622336 L 389.731669859 280.720098231 L 447.207489823 299.619845307 z" fill="#418eaa" stroke="#71aabf" opacity="1.000"/>
<path d="M 518.829023872 291.198191889 L 549.417089947 287.571962574 L 566.384995477 297.381025101 z" fill="#3595a8" stroke="#67b0be" opacity="1.000"/>
<path d="M 549.417089947 287.571962574 L 518.829023872 291.198191889 L 507.75707899 235.031438162 z" fill="#3795a8" stroke="#69afbe" opacity="1.000"/>
<path d="M 549.417089947 287.571962574 L 575.921832984 208.214385734 L 566.384995477 297.381025101 z" fill="#3296a7" stroke="#65b0bd" opacity="1.000"/>
<path d="M 549.417089947 287.571962574 L 507.75707899 235.031438162 L 575.921832984 208.214385734 z" fill="#3495a8" stroke="#67b0bd" opacity="1.000"/>
<path d="M 1918.05906563 166.495974976 L 1904.36013072 208.357008937 L 1896.22488409 197.85376189 z" fill="#95afcc" stroke="#afc3d8" opacity="1.000"/>
<path d="M 1917.11425017 238.734851857 L 1904.36013072 208.357008937 L 1918.05906563 166.495974976 z" fill="#99b1cd" stroke="#b2c4d9" opacity="1.000"/>
<path d="M 1677.77137249 259.634118461 L 1650.9349211 293.661095763 L 1627.18485818 236.226741024 z" fill="#789fbf" stroke="#9ab7cf" opacity="1.000"/>
<path d="M 1725.07169645 255.854534874 L 1733.79643942 202.860907815 L 1819.4232233 275.68516732 z" fill="#86a7c5" stroke="#a4bdd3" opacity="1.000"/>
<path d="M 1534.37925717 88.852654492 L 1524.6163288 117.400268907 L 1490.39208194 60.287836311 z" fill="#6a8cb6" stroke="#8fa8c8" opacity="1.000"/>
<path d="M 1524.6163288 117.400268907 L 1435.34281202 96.2582884337 L 1490.39208194 60.287836311 z" fill="#698cb6" stroke="#8ea9c8" opacity="1.000"/>
<path d="M 1524.6163288 117.400268907 L 1592.09888876 107.527178273 L 1516.88018453 157.871078504 z" fill="#6c91b8" stroke="#91adca" opacity="1.000"/>
<path d="M 1592.09888876 107.527178273 L 1524.6163288 117.400268907 L 1534.37925717 88.852654492 z" fill="#6c8fb7" stroke="#90abc9" opacity="1.000"/>
<path d="M 1435.15094719 138.294502142 L 1524.6163288 117.400268907 L 1516.88018453 157.871078504 z" fill="#6b91b7" stroke="#90adc9" opacity="1.000"/>
<path d="M 1435.34281202 96.2582884337 L 1524.6163288 117.400268907 L 1435.15094719 138.294502142 z" fill="#6990b7" stroke="#8fabc9" opacity="1.000"/>
<path d="M 1725.98229295 66.2161400753 L 1766.67489355 7.29829165108 L 1766.68434944 17.245259373 z" fill="#759bbd" stroke="#98b4cd" opacity="1.000"/>
<path d="M 1725.98229295 66.2161400753 L 1610.4500218 0.0168198949846 L 1766.67489355 7.29829165108 z" fill="#7297bb" stroke="#95b1cc" opacity="1.000"/>
<path d="M 1696.38352465 88.9595633755 L 1752.5599784 150.758479154 L 1693.27512257 161.968350662 z" fill="#799dbe" stroke="#9ab5ce" opacity="1.000"/>
<path d="M 1752.5599784 150.758479154 L 1725.98229295 66.2161400753 L 1804.8690892 133.789855942 z" fill="#7ca0c0" stroke="#9db7d0" opacity="1.000"/>
<path d="M 1725.98229295 66.2161400753 L 1752.5599784 150.758479154 L 1696.38352465 88.9595633755 z" fill="#789cbe" stroke="#99b5ce" opacity="1.000"/>
<path d="M 1590.35566992 54.225821491 L 1534.37925717 88.852654492 L 1490.39208194 60.287836311 z" fill="#6a8ab5" stroke="#8fa7c8" opacity="1.000"/>
<path d="M 1610.4500218 0.0168198949846 L 1590.35566992 54.225821491 L 1490.39208194 60.287836311 z" fill="#6a89b5" stroke="#8fa6c8" opacity="1.000"/>
<path d="M 1590.35566992 54.225821491 L 1592.09888876 107.527178273 L 1534.37925717 88.852654492 z" fill="#6c8eb7" stroke="#90aac9" opacity="1.000"/>
<path d="M 1592.09888876 107.527178273 L 1590.35566992 54.225821491 L 1629.35197849 92.4640775457 z" fill="#6e91b8" stroke="#92adca" opacity="1.000"/>
<path d="M 1647.88983248 69.2494129814 L 1696.38352465 88.9595633755 L 1629.35197849 92.4640775457 z" fill="#7196bb" stroke="#94b0cc" opacity="1.000"/>
<path d="M 1590.35566992 54.225821491 L 1647.88983248 69.2494129814 L 1629.35197849 92.4640775457 z" fill="#6e92b9" stroke="#92adca" opacity="1.000"/>
<path d="M 1647.88983248 69.2494129814 L 1725.98229295 66.2161400753 L 1696.38352465 88.9595633755 z" fill="#7398bc" stroke="#96b2cc" opacity="1.000"/>
<path d="M 1874.63641652 237.362127763 L 1904.36013072 208.357008937 L 1917.11425017 238.734851857 z" fill="#9eb4cf" stroke="#b6c6db" opacity="1.000"/>
<path d="M 1874.63641652 237.362127763 L 1861.9853012 193.691173224 L 1896.22488409 197.85376189 z" fill="#97b0cc" stroke="#b1c4d9" opacity="1.000"/>
<path d="M 1904.36013072 208.357008937 L 1874.63641652 237.362127763 L 1896.22488409 197.85376189 z" fill="#9ab1cd" stroke="#b3c5da" opacity="1.000"/>
<path d="M 1627.18485818 236.226741024 L 1530.17140644 224.923917016 L 1516.88018453 157.871078504 z" fill="#6f98ba" stroke="#93b2cb" opacity="1.000"/>
<path d="M 1538.00156553 240.221661524 L 1530.17140644 224.923917016 L 1627.18485818 236.226741024 z" fill="#709abb" stroke="#94b3cc" opacity="1.000"/>
<path d="M 1530.17140644 224.923917016 L 1462.78928296 238.451436226 L 1516.88018453 157.871078504 z" fill="#6c97b9" stroke="#91b1cb" opacity="1.000"/>
<path d="M 1462.78928296 238.451436226 L 1530.17140644 224.923917016 L 1538.00156553 240.221661524 z" fill="#6d98ba" stroke="#91b2cb" opacity="1.000"/>
<path d="M 1332.75301191 27.1933678805 L 1251.35741785 11.6681400391 L 1406.87208017 11.3063385767 z" fill="#6895b8" stroke="#8eb0c9" opacity="1.000"/>
<path d="M 1417.56140961 24.7403320811 L 1332.75301191 27.1933678805 L 1406.87208017 11.3063385767 z" fill="#688fb6" stroke="#8dabc8" opacity="1.000"/>
<path d="M 1332.88874567 95.8201823509 L 1332.75301191 27.1933678805 L 1417.56140961 24.7403320811 z" fill="#6893b7" stroke="#8eaec9" opacity="1.000"/>
<path d="M 1435.15094719 138.294502142 L 1349.75490952 131.104537779 L 1419.51381096 96.4914823769 z" fill="#6893b7" stroke="#8eaec9" opacity="1.000"/>
<path d="M 1349.75490952 131.104537779 L 1332.88874567 95.8201823509 L 1419.51381096 96.4914823769 z" fill="#6895b7" stroke="#8eafc9" opacity="1.000"/>
<path d="M 1332.88874567 95.8201823509 L 1349.75490952 131.104537779 L 1306.20814187 211.590871811 z" fill="#6898b8" stroke="#8db2ca" opacity="1.000"/>
<path d="M 1349.75490952 131.104537779 L 1435.15094719 138.294502142 L 1431.1446568 259.701389811 z" fill="#6996b8" stroke="#8eb0ca" opacity="1.000"/>
<path d="M 1349.75490952 131.104537779 L 1325.17183306 251.585322876 L 1306.20814187 211.590871811 z" fill="#679ab8" stroke="#8db3ca" opacity="1.000"/>
<path d="M 1325.17183306 251.585322876 L 1349.75490952 131.104537779 L 1431.1446568 259.701389811 z" fill="#6899b8" stroke="#8eb2ca" opacity="1.000"/>
<path d="M 1165.53582001 73.9416725217 L 1234.75815321 67.1653998699 L 1233.95587904 229.998146175 z" fill="#689fba" stroke="#8eb7cb" opacity="1.000"/>
<path d="M 1233.95587904 229.998146175 L 1234.75815321 67.1653998699 L 1306.20814187 211.590871811 z" fill="#679cb9" stroke="#8db5ca" opacity="1.000"/>
<path d="M 1234.75815321 67.1653998699 L 1332.88874567 95.8201823509 L 1306.20814187 211.590871811 z" fill="#689ab9" stroke="#8db3ca" opacity="1.000"/>
<path d="M 1140.051648 57.9892510969 L 1146.85776382 69.0846591225 L 1043.63795886 138.085446761 z" fill="#72a6bf" stroke="#95bccf" opacity="1.000"/>
<path d="M 1114.32439814 7.48451592332 L 1140.051648 57.9892510969 L 1020.25912673 123.681225591 z" fill="#78a9c1" stroke="#9abfd1" opacity="1.000"/>
<path d="M 1140.051648 57.9892510969 L 1043.63795886 138.085446761 L 1020.25912673 123.681225591 z" fill="#74a9c0" stroke="#96becf" opacity="1.000"/>
<path d="M 1193.11641773 1.47150965706 L 1140.051648 57.9892510969 L 1114.32439814 7.48451592332 z" fill="#70a4be" stroke="#94bbce" opacity="1.000"/>
<path d="M 1146.85776382 69.0846591225 L 1140.051648 57.9892510969 L 1165.53582001 73.9416725217 z" fill="#6fa4bd" stroke="#93bacd" opacity="1.000"/>
<path d="M 31.5734473579 18.6042802279 L 30.4595092492 1.87799073468 L 44.8572006811 0.258176350345 z" fill="#4d81aa" stroke="#79a0bf" opacity="1.000"/>
<path d="M 49.4035849053 15.5116476245 L 31.5734473579 18.6042802279 L 44.8572006811 0.258176350345 z" fill="#4d80aa" stroke="#79a0bf" opacity="1.000"/>
<path d="M 30.4595092492 1.87799073468 L 31.5734473579 18.6042802279 L 7.28524658377 5.05857915378 z" fill="#4d81aa" stroke="#79a1bf" opacity="1.000"/>
<path d="M 7.28524658377 5.05857915378 L 31.5734473579 18.6042802279 L 1.90411684724 8.80914341435 z" fill="#4d82aa" stroke="#79a1bf" opacity="1.000"/>
<path d="M 110.391016661 55.0723834699 L 151.340279326 71.7219237093 L 152.215906539 132.237072612 z" fill="#4e74a7" stroke="#7a97bd" opacity="1.000"/>
<path d="M 91.0006974219 53.1111830895 L 110.391016661 55.0723834699 L 152.215906539 132.237072612 z" fill="#4e76a7" stroke="#7a98bd" opacity="1.000"/>
<path d="M 24.4996485359 75.4040891933 L 91.0006974219 53.1111830895 L 9.04324432636 115.179518517 z" fill="#4d7ca9" stroke="#7a9cbe" opacity="1.000"/>
<path d="M 91.0006974219 53.1111830895 L 24.4996485359 75.4040891933 L 49.4035849053 15.5116476245 z" fill="#4d7da9" stroke="#799ebe" opacity="1.000"/>
<path d="M 24.4996485359 75.4040891933 L 31.5734473579 18.6042802279 L 49.4035849053 15.5116476245 z" fill="#4d7faa" stroke="#799fbf" opacity="1.000"/>
<path d="M 759.934738763 19.2003176201 L 837.287175228 61.1814741286 L 728.416299201 28.9051378451 z" fill="#239ba4" stroke="#5ab4bb" opacity="1.000"/>
<path d="M 759.934738763 19.2003176201 L 762.583372161 0.0284090179124 L 837.287175228 61.1814741286 z" fill="#1c9ba2" stroke="#55b4b9" opacity="1.000"/>
<path d="M 661.559998679 35.3600983353 L 642.947774905 83.076034132 L 628.780550636 15.0573956169 z" fill="#3699a9" stroke="#68b2be" opacity="1.000"/>
<path d="M 642.947774905 83.076034132 L 661.559998679 35.3600983353 L 684.218592287 63.5907311355 z" fill="#3499a9" stroke="#67b3be" opacity="1.000"/>
<path d="M 657.072735705 0.371465822015 L 661.559998679 35.3600983353 L 628.780550636 15.0573956169 z" fill="#3699a9" stroke="#68b3bf" opacity="1.000"/>
<path d="M 684.218592287 63.5907311355 L 661.559998679 35.3600983353 L 728.416299201 28.9051378451 z" fill="#329aa8" stroke="#65b3be" opacity="1.000"/>
<path d="M 661.559998679 35.3600983353 L 725.858684987 0.273518362089 L 728.416299201 28.9051378451 z" fill="#309ba8" stroke="#64b4bd" opacity="1.000"/>
<path d="M 661.559998679 35.3600983353 L 657.072735705 0.371465822015 L 725.858684987 0.273518362089 z" fill="#339aa9" stroke="#66b3be" opacity="1.000"/>
<path d="M 1691.31761765 255.036681244 L 1627.18485818 236.226741024 L 1693.27512257 161.968350662 z" fill="#799ebf" stroke="#9ab6cf" opacity="1.000"/>
<path d="M 1691.31761765 255.036681244 L 1677.77137249 259.634118461 L 1627.18485818 236.226741024 z" fill="#799fbf" stroke="#9bb7cf" opacity="1.000"/>
<path d="M 1733.79643942 202.860907815 L 1691.31761765 255.036681244 L 1693.27512257 161.968350662 z" fill="#7ca0c0" stroke="#9db8d0" opacity="1.000"/>
<path d="M 1691.31761765 255.036681244 L 1733.79643942 202.860907815 L 1725.07169645 255.854534874 z" fill="#7fa3c2" stroke="#9fbad1" opacity="1.000"/>
<path d="M 1733.79643942 202.860907815 L 1853.63115459 239.046934263 L 1819.4232233 275.68516732 z" fill="#8eabc8" stroke="#aac0d6" opacity="1.000"/>
<path d="M 1853.63115459 239.046934263 L 1733.79643942 202.860907815 L 1861.9853012 193.691173224 z" fill="#8dabc8" stroke="#aac0d6" opacity="1.000"/>
<path d="M 1874.63641652 237.362127763 L 1853.63115459 239.046934263 L 1861.9853012 193.691173224 z" fill="#98b0cd" stroke="#b1c4d9" opacity="1.000"/>
<path d="M 1796.21092339 42.4380702864 L 1725.98229295 66.2161400753 L 1766.68434944 17.245259373 z" fill="#779cbe" stroke="#99b5ce" opacity="1.000"/>
<path d="M 1725.98229295 66.2161400753 L 1796.21092339 42.4380702864 L 1804.8690892 133.789855942 z" fill="#7a9fbf" stroke="#9bb7cf" opacity="1.000"/>
<path d="M 1748.78097498 158.470165343 L 1733.79643942 202.860907815 L 1693.27512257 161.968350662 z" fill="#7ca0c0" stroke="#9db8d0" opacity="1.000"/>
<path d="M 1752.5599784 150.758479154 L 1748.78097498 158.470165343 L 1693.27512257 161.968350662 z" fill="#7ca0c0" stroke="#9db7d0" opacity="1.000"/>
<path d="M 1748.78097498 158.470165343 L 1752.5599784 150.758479154 L 1804.8690892 133.789855942 z" fill="#7fa2c2" stroke="#9fb9d1" opacity="1.000"/>
<path d="M 1861.9853012 193.691173224 L 1748.78097498 158.470165343 L 1804.8690892 133.789855942 z" fill="#85a6c4" stroke="#a4bcd3" opacity="1.000"/>
<path d="M 1733.79643942 202.860907815 L 1748.78097498 158.470165343 L 1861.9853012 193.691173224 z" fill="#85a5c4" stroke="#a3bcd3" opacity="1.000"/>
<path d="M 1612.56866684 19.9525099164 L 1590.35566992 54.225821491 L 1610.4500218 0.0168198949846 z" fill="#6c8eb7" stroke="#90aac9" opacity="1.000"/>
<path d="M 1612.56866684 19.9525099164 L 1647.88983248 69.2494129814 L 1590.35566992 54.225821491 z" fill="#6d90b8" stroke="#91acca" opacity="1.000"/>
<path d="M 1725.98229295 66.2161400753 L 1612.56866684 19.9525099164 L 1610.4500218 0.0168198949846 z" fill="#6f93b9" stroke="#93aeca" opacity="1.000"/>
<path d="M 1647.88983248 69.2494129814 L 1612.56866684 19.9525099164 L 1725.98229295 66.2161400753 z" fill="#7095ba" stroke="#94afcb" opacity="1.000"/>
<path d="M 1860.33016837 264.381538374 L 1853.63115459 239.046934263 L 1874.63641652 237.362127763 z" fill="#9cb3cf" stroke="#b5c6db" opacity="1.000"/>
<path d="M 1860.33016837 264.381538374 L 1850.84375533 291.489818964 L 1819.4232233 275.68516732 z" fill="#9cb3ce" stroke="#b4c6da" opacity="1.000"/>
<path d="M 1853.63115459 239.046934263 L 1860.33016837 264.381538374 L 1819.4232233 275.68516732 z" fill="#9ab2ce" stroke="#b3c5da" opacity="1.000"/>
<path d="M 1610.4500218 0.0168198949846 L 1833.67234624 0.0011275731449 L 1766.67489355 7.29829165108 z" fill="#7399bc" stroke="#96b2cc" opacity="1.000"/>
<path d="M 762.583372161 0.0284090179124 L 1833.67234624 0.0011275731449 L 1610.4500218 0.0168198949846 z" fill="#688db5" stroke="#8da9c8" opacity="1.000"/>
<path d="M 1920 0 L 1833.67234624 0.0011275731449 L 0 0 z" fill="#699cb9" stroke="#8eb4cb" opacity="1.000"/>
<path d="M 1833.67234624 0.0011275731449 L 762.583372161 0.0284090179124 L 0 0 z" fill="#3da0ad" stroke="#6db8c1" opacity="1.000"/>
<path d="M 1918.65239176 43.3544687499 L 1919.76353674 133.624080487 L 1917.77742007 46.5990723074 z" fill="#83a5c3" stroke="#a2bbd2" opacity="1.000"/>
<path d="M 1919.76353674 133.624080487 L 1920 0 L 1920 300 z" fill="#8caac8" stroke="#a9bfd5" opacity="1.000"/>
<path d="M 1919.87885037 283.837064911 L 1919.76353674 133.624080487 L 1920 300 z" fill="#a3b6d1" stroke="#bac8dd" opacity="1.000"/>
<path d="M 1879.35262171 0.00944250791555 L 1833.67234624 0.0011275731449 L 1920 0 z" fill="#7aa0c0" stroke="#9bb8cf" opacity="1.000"/>
<path d="M 1833.67234624 0.0011275731449 L 1879.35262171 0.00944250791555 L 1829.62320735 13.4442720435 z" fill="#799fbf" stroke="#9bb7cf" opacity="1.000"/>
<path d="M 1861.9853012 193.691173224 L 1880.84138619 165.077563323 L 1896.22488409 197.85376189 z" fill="#92adca" stroke="#adc2d7" opacity="1.000"/>
<path d="M 1880.84138619 165.077563323 L 1853.12640834 137.685750338 L 1880.1840572 143.96573227 z" fill="#8aa9c7" stroke="#a7bed5" opacity="1.000"/>
<path d="M 1196.38103569 53.8893788027 L 1234.75815321 67.1653998699 L 1165.53582001 73.9416725217 z" fill="#6ba0bb" stroke="#90b7cc" opacity="1.000"/>
<path d="M 1234.75815321 67.1653998699 L 1196.38103569 53.8893788027 L 1211.99548646 39.6855989569 z" fill="#6a9fbb" stroke="#8fb7cc" opacity="1.000"/>
<path d="M 1211.99548646 39.6855989569 L 1196.38103569 53.8893788027 L 1193.11641773 1.47150965706 z" fill="#6ba0bb" stroke="#90b7cc" opacity="1.000"/>
<path d="M 1140.051648 57.9892510969 L 1196.38103569 53.8893788027 L 1165.53582001 73.9416725217 z" fill="#6da2bc" stroke="#92b9cd" opacity="1.000"/>
<path d="M 1196.38103569 53.8893788027 L 1140.051648 57.9892510969 L 1193.11641773 1.47150965706 z" fill="#6da2bc" stroke="#91b9cd" opacity="1.000"/>
<path d="M 1252.23997851 51.091587744 L 1211.99548646 39.6855989569 L 1251.35741785 11.6681400391 z" fill="#699dba" stroke="#8fb5cb" opacity="1.000"/>
<path d="M 1332.75301191 27.1933678805 L 1252.23997851 51.091587744 L 1251.35741785 11.6681400391 z" fill="#689ab9" stroke="#8eb3ca" opacity="1.000"/>
<path d="M 1252.23997851 51.091587744 L 1332.75301191 27.1933678805 L 1332.88874567 95.8201823509 z" fill="#6898b8" stroke="#8eb2ca" opacity="1.000"/>
<path d="M 159.333874811 15.1420338726 L 44.8572006811 0.258176350345 L 180.15877914 14.7923873502 z" fill="#4c7fa9" stroke="#799fbf" opacity="1.000"/>
<path d="M 159.333874811 15.1420338726 L 49.4035849053 15.5116476245 L 44.8572006811 0.258176350345 z" fill="#4d7fa9" stroke="#799fbf" opacity="1.000"/>
<path d="M 159.333874811 15.1420338726 L 91.0006974219 53.1111830895 L 49.4035849053 15.5116476245 z" fill="#4d7da9" stroke="#799dbe" opacity="1.000"/>
<path d="M 159.333874811 15.1420338726 L 110.391016661 55.0723834699 L 91.0006974219 53.1111830895 z" fill="#4d7ba8" stroke="#799cbe" opacity="1.000"/>
<path d="M 10.6359353691 79.2712100243 L 9.04324432636 115.179518517 L 1.73281027122 87.2604320912 z" fill="#4d7ea9" stroke="#7a9ebf" opacity="1.000"/>
<path d="M 10.6359353691 79.2712100243 L 24.4996485359 75.4040891933 L 9.04324432636 115.179518517 z" fill="#4d7da9" stroke="#7a9ebe" opacity="1.000"/>
<path d="M 1.90411684724 8.80914341435 L 10.6359353691 79.2712100243 L 1.73281027122 87.2604320912 z" fill="#4d80aa" stroke="#7a9fbf" opacity="1.000"/>
<path d="M 31.5734473579 18.6042802279 L 10.6359353691 79.2712100243 L 1.90411684724 8.80914341435 z" fill="#4d80aa" stroke="#79a0bf" opacity="1.000"/>
<path d="M 24.4996485359 75.4040891933 L 10.6359353691 79.2712100243 L 31.5734473579 18.6042802279 z" fill="#4d7fa9" stroke="#799fbf" opacity="1.000"/>
<path d="M 762.583372161 0.0284090179124 L 756.355846653 2.73150118753 L 725.858684987 0.273518362089 z" fill="#259ba5" stroke="#5cb4bb" opacity="1.000"/>
<path d="M 759.934738763 19.2003176201 L 756.355846653 2.73150118753 L 762.583372161 0.0284090179124 z" fill="#219ba3" stroke="#58b4ba" opacity="1.000"/>
<path d="M 725.858684987 0.273518362089 L 756.355846653 2.73150118753 L 728.416299201 28.9051378451 z" fill="#299ba6" stroke="#5fb4bc" opacity="1.000"/>
<path d="M 756.355846653 2.73150118753 L 759.934738763 19.2003176201 L 728.416299201 28.9051378451 z" fill="#269ba5" stroke="#5cb4bb" opacity="1.000"/>
<path d="M 1850.84375533 291.489818964 L 1897.9376367 296.297381293 L 1920 300 z" fill="#aebcd6" stroke="#c2cde0" opacity="1.000"/>
<path d="M 1881.53643796 293.60737872 L 1897.9376367 296.297381293 L 1850.84375533 291.489818964 z" fill="#a8b9d4" stroke="#becbdf" opacity="1.000"/>
<path d="M 1882.63268871 260.856502767 L 1860.33016837 264.381538374 L 1874.63641652 237.362127763 z" fill="#a0b5d0" stroke="#b8c7dc" opacity="1.000"/>
<path d="M 1882.63268871 260.856502767 L 1874.63641652 237.362127763 L 1917.11425017 238.734851857 z" fill="#a2b6d1" stroke="#b9c8dc" opacity="1.000"/>
<path d="M 1691.31761765 255.036681244 L 1709.52193416 299.899060917 L 1677.77137249 259.634118461 z" fill="#7da2c1" stroke="#9eb9d0" opacity="1.000"/>
<path d="M 1677.77137249 259.634118461 L 1709.52193416 299.899060917 L 1650.9349211 293.661095763 z" fill="#7ca2c1" stroke="#9db9d0" opacity="1.000"/>
<path d="M 1709.52193416 299.899060917 L 1725.07169645 255.854534874 L 1719.27947252 299.489694635 z" fill="#81a4c3" stroke="#a1bbd2" opacity="1.000"/>
<path d="M 1709.52193416 299.899060917 L 1691.31761765 255.036681244 L 1725.07169645 255.854534874 z" fill="#7fa3c2" stroke="#9fbad1" opacity="1.000"/>
<path d="M 1650.9349211 293.661095763 L 1709.52193416 299.899060917 L 1591.20401002 299.920865096 z" fill="#79a0bf" stroke="#9ab8cf" opacity="1.000"/>
<path d="M 1591.20401002 299.920865096 L 1709.52193416 299.899060917 L 1920 300 z" fill="#85a7c5" stroke="#a3bdd3" opacity="1.000"/>
<path d="M 1709.52193416 299.899060917 L 1719.27947252 299.489694635 L 1920 300 z" fill="#8dabc8" stroke="#aac0d6" opacity="1.000"/>
<path d="M 1766.67489355 7.29829165108 L 1797.31956676 7.1157055776 L 1766.68434944 17.245259373 z" fill="#769cbd" stroke="#98b4ce" opacity="1.000"/>
<path d="M 1797.31956676 7.1157055776 L 1796.21092339 42.4380702864 L 1766.68434944 17.245259373 z" fill="#779dbe" stroke="#99b5ce" opacity="1.000"/>
<path d="M 1833.67234624 0.0011275731449 L 1797.31956676 7.1157055776 L 1766.67489355 7.29829165108 z" fill="#779dbe" stroke="#99b5ce" opacity="1.000"/>
<path d="M 1797.31956676 7.1157055776 L 1833.67234624 0.0011275731449 L 1829.62320735 13.4442720435 z" fill="#789ebf" stroke="#9ab6cf" opacity="1.000"/>
<path d="M 1796.21092339 42.4380702864 L 1869.58849382 99.2723531913 L 1804.8690892 133.789855942 z" fill="#7fa2c2" stroke="#9fb9d1" opacity="1.000"/>
<path d="M 1853.12640834 137.685750338 L 1869.58849382 99.2723531913 L 1880.1840572 143.96573227 z" fill="#87a7c5" stroke="#a5bdd4" opacity="1.000"/>
<path d="M 1818.30694544 24.6149293295 L 1829.62320735 13.4442720435 L 1879.29480959 82.929554657 z" fill="#7ca0c0" stroke="#9cb8d0" opacity="1.000"/>
<path d="M 1869.58849382 99.2723531913 L 1818.30694544 24.6149293295 L 1879.29480959 82.929554657 z" fill="#7fa2c2" stroke="#9fb9d1" opacity="1.000"/>
<path d="M 1818.30694544 24.6149293295 L 1869.58849382 99.2723531913 L 1796.21092339 42.4380702864 z" fill="#7ca0c0" stroke="#9db8d0" opacity="1.000"/>
<path d="M 1818.30694544 24.6149293295 L 1797.31956676 7.1157055776 L 1829.62320735 13.4442720435 z" fill="#789ebf" stroke="#9ab6cf" opacity="1.000"/>
<path d="M 1797.31956676 7.1157055776 L 1818.30694544 24.6149293295 L 1796.21092339 42.4380702864 z" fill="#789ebf" stroke="#9ab6cf" opacity="1.000"/>
<path d="M 1895.19929244 62.4631649352 L 1919.76353674 133.624080487 L 1879.29480959 82.929554657 z" fill="#84a6c4" stroke="#a3bcd3" opacity="1.000"/>
<path d="M 1919.76353674 133.624080487 L 1895.19929244 62.4631649352 L 1917.77742007 46.5990723074 z" fill="#83a5c4" stroke="#a2bcd2" opacity="1.000"/>
<path d="M 1829.62320735 13.4442720435 L 1895.19929244 62.4631649352 L 1879.29480959 82.929554657 z" fill="#7ea2c1" stroke="#9eb9d1" opacity="1.000"/>
<path d="M 1879.35262171 0.00944250791555 L 1895.19929244 62.4631649352 L 1829.62320735 13.4442720435 z" fill="#7ca1c0" stroke="#9cb8d0" opacity="1.000"/>
<path d="M 1919.76353674 133.624080487 L 1919.56206002 12.4637698836 L 1920 0 z" fill="#80a4c2" stroke="#a0bad1" opacity="1.000"/>
<path d="M 1919.56206002 12.4637698836 L 1919.76353674 133.624080487 L 1918.65239176 43.3544687499 z" fill="#81a4c3" stroke="#a1bbd2" opacity="1.000"/>
<path d="M 1897.74085971 160.748014679 L 1880.84138619 165.077563323 L 1880.1840572 143.96573227 z" fill="#8dabc8" stroke="#a9c0d6" opacity="1.000"/>
<path d="M 1897.74085971 160.748014679 L 1918.05906563 166.495974976 L 1896.22488409 197.85376189 z" fill="#91adca" stroke="#adc1d7" opacity="1.000"/>
<path d="M 1880.84138619 165.077563323 L 1897.74085971 160.748014679 L 1896.22488409 197.85376189 z" fill="#91adca" stroke="#acc1d7" opacity="1.000"/>
<path d="M 1849.8004397 139.376130817 L 1861.9853012 193.691173224 L 1804.8690892 133.789855942 z" fill="#88a8c6" stroke="#a6bdd4" opacity="1.000"/>
<path d="M 1869.58849382 99.2723531913 L 1849.8004397 139.376130817 L 1804.8690892 133.789855942 z" fill="#84a5c4" stroke="#a3bcd3" opacity="1.000"/>
<path d="M 1849.8004397 139.376130817 L 1869.58849382 99.2723531913 L 1853.12640834 137.685750338 z" fill="#86a6c5" stroke="#a4bcd3" opacity="1.000"/>
<path d="M 1849.8004397 139.376130817 L 1880.84138619 165.077563323 L 1861.9853012 193.691173224 z" fill="#8daac8" stroke="#a9bfd5" opacity="1.000"/>
<path d="M 1849.8004397 139.376130817 L 1853.12640834 137.685750338 L 1880.84138619 165.077563323 z" fill="#89a8c6" stroke="#a7bed4" opacity="1.000"/>
<path d="M 1239.26373309 59.5761748647 L 1234.75815321 67.1653998699 L 1211.99548646 39.6855989569 z" fill="#6a9eba" stroke="#8fb6cb" opacity="1.000"/>
<path d="M 1252.23997851 51.091587744 L 1239.26373309 59.5761748647 L 1211.99548646 39.6855989569 z" fill="#699dba" stroke="#8fb6cb" opacity="1.000"/>
<path d="M 1234.75815321 67.1653998699 L 1249.5968704 62.48510103 L 1332.88874567 95.8201823509 z" fill="#689bb9" stroke="#8eb4ca" opacity="1.000"/>
<path d="M 1249.5968704 62.48510103 L 1252.23997851 51.091587744 L 1332.88874567 95.8201823509 z" fill="#689ab9" stroke="#8eb3ca" opacity="1.000"/>
<path d="M 1239.26373309 59.5761748647 L 1249.5968704 62.48510103 L 1234.75815321 67.1653998699 z" fill="#699dba" stroke="#8eb5cb" opacity="1.000"/>
<path d="M 1249.5968704 62.48510103 L 1239.26373309 59.5761748647 L 1252.23997851 51.091587744 z" fill="#699cba" stroke="#8eb5cb" opacity="1.000"/>
<path d="M 164.375020681 63.5155781862 L 158.667578843 18.2371137498 L 180.15877914 14.7923873502 z" fill="#4c7da9" stroke="#799dbe" opacity="1.000"/>
<path d="M 158.667578843 18.2371137498 L 159.333874811 15.1420338726 L 180.15877914 14.7923873502 z" fill="#4c7fa9" stroke="#799fbe" opacity="1.000"/>
<path d="M 158.667578843 18.2371137498 L 164.375020681 63.5155781862 L 151.340279326 71.7219237093 z" fill="#4d7aa8" stroke="#799bbe" opacity="1.000"/>
<path d="M 110.391016661 55.0723834699 L 158.667578843 18.2371137498 L 151.340279326 71.7219237093 z" fill="#4d7aa8" stroke="#799bbe" opacity="1.000"/>
<path d="M 159.333874811 15.1420338726 L 158.667578843 18.2371137498 L 110.391016661 55.0723834699 z" fill="#4c7da9" stroke="#799dbe" opacity="1.000"/>
<path d="M 1919.53451801 298.153938783 L 1919.87885037 283.837064911 L 1920 300 z" fill="#b9c2db" stroke="#cbd1e4" opacity="1.000"/>
<path d="M 1897.9376367 296.297381293 L 1919.53451801 298.153938783 L 1920 300 z" fill="#b8c1db" stroke="#cad1e4" opacity="1.000"/>
<path d="M 1919.53451801 298.153938783 L 1897.9376367 296.297381293 L 1919.87885037 283.837064911 z" fill="#b7c1da" stroke="#c9d0e3" opacity="1.000"/>
<path d="M 1882.63268871 260.856502767 L 1865.99009534 269.583101471 L 1860.33016837 264.381538374 z" fill="#a2b6d1" stroke="#b9c8dc" opacity="1.000"/>
<path d="M 1865.99009534 269.583101471 L 1881.53643796 293.60737872 L 1850.84375533 291.489818964 z" fill="#a4b7d2" stroke="#bac9dd" opacity="1.000"/>
<path d="M 1860.33016837 264.381538374 L 1865.99009534 269.583101471 L 1850.84375533 291.489818964 z" fill="#a0b5d0" stroke="#b8c7dc" opacity="1.000"/>
<path d="M 1918.95105096 250.592687647 L 1882.63268871 260.856502767 L 1917.11425017 238.734851857 z" fill="#a6b8d3" stroke="#bcc9de" opacity="1.000"/>
<path d="M 1882.63268871 260.856502767 L 1918.95105096 250.592687647 L 1919.87885037 283.837064911 z" fill="#abbbd5" stroke="#c0ccdf" opacity="1.000"/>
<path d="M 1918.95105096 250.592687647 L 1917.11425017 238.734851857 L 1918.05906563 166.495974976 z" fill="#9db3cf" stroke="#b5c6db" opacity="1.000"/>
<path d="M 1919.76353674 133.624080487 L 1918.95105096 250.592687647 L 1918.05906563 166.495974976 z" fill="#94afcb" stroke="#afc3d8" opacity="1.000"/>
<path d="M 1918.95105096 250.592687647 L 1919.76353674 133.624080487 L 1919.87885037 283.837064911 z" fill="#9eb4cf" stroke="#b6c6db" opacity="1.000"/>
<path d="M 1869.58849382 99.2723531913 L 1900.15232233 136.660216941 L 1880.1840572 143.96573227 z" fill="#88a8c6" stroke="#a5bdd4" opacity="1.000"/>
<path d="M 1900.15232233 136.660216941 L 1897.74085971 160.748014679 L 1880.1840572 143.96573227 z" fill="#8caac7" stroke="#a8bfd5" opacity="1.000"/>
<path d="M 1919.76353674 133.624080487 L 1900.15232233 136.660216941 L 1879.29480959 82.929554657 z" fill="#87a8c6" stroke="#a5bdd4" opacity="1.000"/>
<path d="M 1900.15232233 136.660216941 L 1869.58849382 99.2723531913 L 1879.29480959 82.929554657 z" fill="#85a6c4" stroke="#a3bcd3" opacity="1.000"/>
<path d="M 1900.15232233 136.660216941 L 1919.76353674 133.624080487 L 1918.05906563 166.495974976 z" fill="#8caac8" stroke="#a9bfd5" opacity="1.000"/>
<path d="M 1897.74085971 160.748014679 L 1900.15232233 136.660216941 L 1918.05906563 166.495974976 z" fill="#8eabc8" stroke="#aac0d6" opacity="1.000"/>
<path d="M 1912.26962614 43.3069427309 L 1918.65239176 43.3544687499 L 1917.77742007 46.5990723074 z" fill="#7fa3c2" stroke="#9fbad1" opacity="1.000"/>
<path d="M 1895.19929244 62.4631649352 L 1912.26962614 43.3069427309 L 1917.77742007 46.5990723074 z" fill="#80a3c2" stroke="#9fbad1" opacity="1.000"/>
<path d="M 1912.26962614 43.3069427309 L 1895.19929244 62.4631649352 L 1879.35262171 0.00944250791555 z" fill="#7ea2c1" stroke="#9eb9d1" opacity="1.000"/>
<path d="M 1865.99009534 269.583101471 L 1886.16931529 282.129422166 L 1881.53643796 293.60737872 z" fill="#a7b9d3" stroke="#bdcade" opacity="1.000"/>
<path d="M 1886.16931529 282.129422166 L 1865.99009534 269.583101471 L 1882.63268871 260.856502767 z" fill="#a6b8d3" stroke="#bcc9de" opacity="1.000"/>
<path d="M 1886.16931529 282.129422166 L 1897.9376367 296.297381293 L 1881.53643796 293.60737872 z" fill="#adbbd6" stroke="#c1cce0" opacity="1.000"/>
<path d="M 1897.9376367 296.297381293 L 1886.16931529 282.129422166 L 1919.87885037 283.837064911 z" fill="#b1bed8" stroke="#c5cee1" opacity="1.000"/>
<path d="M 1886.16931529 282.129422166 L 1882.63268871 260.856502767 L 1919.87885037 283.837064911 z" fill="#acbbd6" stroke="#c1cce0" opacity="1.000"/>
<path d="M 1918.02887021 12.8556463469 L 1912.26962614 43.3069427309 L 1879.35262171 0.00944250791555 z" fill="#7da2c1" stroke="#9db9d0" opacity="1.000"/>
<path d="M 1918.02887021 12.8556463469 L 1879.35262171 0.00944250791555 L 1920 0 z" fill="#7ba1c0" stroke="#9cb8d0" opacity="1.000"/>
<path d="M 1919.56206002 12.4637698836 L 1918.02887021 12.8556463469 L 1920 0 z" fill="#7ca2c1" stroke="#9db9d0" opacity="1.000"/>
<path d="M 1918.02887021 12.8556463469 L 1919.56206002 12.4637698836 L 1918.65239176 43.3544687499 z" fill="#7da2c1" stroke="#9eb9d1" opacity="1.000"/>
<path d="M 1912.26962614 43.3069427309 L 1918.02887021 12.8556463469 L 1918.65239176 43.3544687499 z" fill="#7ea3c2" stroke="#9ebad1" opacity="1.000"/>
</g></svg>
