<svg xmlns="http://www.w3.org/2000/svg" width="1920" height="300">
  <path d="M910,-55L1200,-430L581,-362Z" fill="#9cc5e3" stroke="#9cc5e3" stroke-width="1.51"/>
  <path d="M1200,-430L347,-711L581,-362Z" fill="#b3d3e9" stroke="#b3d3e9" stroke-width="1.51"/>
  <path d="M910,-55L1354,86L1200,-430Z" fill="#84b8da" stroke="#84b8da" stroke-width="1.51"/>
  <path d="M581,-362L247,-144L910,-55Z" fill="#a4cbe3" stroke="#a4cbe3" stroke-width="1.51"/>
  <path d="M910,-55L771,418L1354,86Z" fill="#69acd5" stroke="#69acd5" stroke-width="1.51"/>
  <path d="M347,-711L247,-144L581,-362Z" fill="#bdd8eb" stroke="#bdd8eb" stroke-width="1.51"/>
  <path d="M1354,86L1609,-109L1200,-430Z" fill="#7db1d6" stroke="#7db1d6" stroke-width="1.51"/>
  <path d="M193,225L771,418L910,-55Z" fill="#7bb5d9" stroke="#7bb5d9" stroke-width="1.51"/>
  <path d="M1200,-430L1664,-602L347,-711Z" fill="#a6cae6" stroke="#a6cae6" stroke-width="1.51"/>
  <path d="M1609,-109L1664,-602L1200,-430Z" fill="#8db5db" stroke="#8db5db" stroke-width="1.51"/>
  <path d="M247,-144L193,225L910,-55Z" fill="#98c5e0" stroke="#98c5e0" stroke-width="1.51"/>
  <path d="M1609,-109L2231,-387L1664,-602Z" fill="#83a8d4" stroke="#83a8d4" stroke-width="1.51"/>
  <path d="M1354,86L1623,215L1609,-109Z" fill="#60a1ce" stroke="#60a1ce" stroke-width="1.51"/>
  <path d="M1347,565L1623,215L1354,86Z" fill="#4a96c9" stroke="#4a96c9" stroke-width="1.51"/>
  <path d="M347,-711L-20,-655L247,-144Z" fill="#cbdff0" stroke="#cbdff0" stroke-width="1.51"/>
  <path d="M247,-144L-41,250L193,225Z" fill="#9cc5e2" stroke="#9cc5e2" stroke-width="1.51"/>
  <path d="M771,418L1347,565L1354,86Z" fill="#509bcb" stroke="#509bcb" stroke-width="1.51"/>
  <path d="M-20,-655L-141,-191L247,-144Z" fill="#c8dcef" stroke="#c8dcef" stroke-width="1.51"/>
  <path d="M-141,-191L-41,250L247,-144Z" fill="#aed0e7" stroke="#aed0e7" stroke-width="1.51"/>
  <path d="M193,225L394,777L771,418Z" fill="#73a7d1" stroke="#73a7d1" stroke-width="1.51"/>
  <path d="M771,418L1197,947L1347,565Z" fill="#4388c1" stroke="#4388c1" stroke-width="1.51"/>
  <path d="M-142,729L394,777L193,225Z" fill="#7ca4d2" stroke="#7ca4d2" stroke-width="1.51"/>
  <path d="M2216,-58L1609,-109L1623,215Z" fill="#5f99ca" stroke="#5f99ca" stroke-width="1.51"/>
  <path d="M2216,-58L2231,-387L1609,-109Z" fill="#729acb" stroke="#729acb" stroke-width="1.51"/>
  <path d="M2020,511L2216,-58L1623,215Z" fill="#4387c0" stroke="#4387c0" stroke-width="1.51"/>
  <path d="M583,982L1197,947L771,418Z" fill="#4e85bd" stroke="#4e85bd" stroke-width="1.51"/>
  <path d="M2020,511L1623,215L1941,759Z" fill="#2b79b9" stroke="#2b79b9" stroke-width="1.51"/>
  <path d="M394,777L583,982L771,418Z" fill="#6191c4" stroke="#6191c4" stroke-width="1.51"/>
  <path d="M1941,759L1623,215L1347,565Z" fill="#3280bd" stroke="#3280bd" stroke-width="1.51"/>
  <path d="M-20,-655L-568,-501L-141,-191Z" fill="#d5e5f4" stroke="#d5e5f4" stroke-width="1.51"/>
  <path d="M-141,-191L-630,4L-41,250Z" fill="#b1d2e8" stroke="#b1d2e8" stroke-width="1.51"/>
  <path d="M583,982L1583,939L1197,947Z" fill="#3a6fa8" stroke="#3a6fa8" stroke-width="1.51"/>
  <path d="M1197,947L1583,939L1347,565Z" fill="#2f73b2" stroke="#2f73b2" stroke-width="1.51"/>
  <path d="M-41,250L-142,729L193,225Z" fill="#8ab5da" stroke="#8ab5da" stroke-width="1.51"/>
  <path d="M394,777L-142,729L583,982Z" fill="#6d8ec2" stroke="#6d8ec2" stroke-width="1.51"/>
  <path d="M-630,401L-142,729L-41,250Z" fill="#90b5db" stroke="#90b5db" stroke-width="1.51"/>
  <path d="M1583,939L1941,759L1347,565Z" fill="#276fb1" stroke="#276fb1" stroke-width="1.51"/>
  <path d="M2020,511L2405,79L2216,-58Z" fill="#4481bb" stroke="#4481bb" stroke-width="1.51"/>
  <path d="M-568,-501L-630,4L-141,-191Z" fill="#cde0f1" stroke="#cde0f1" stroke-width="1.51"/>
  <path d="M2445,567L2405,79L2020,511Z" fill="#2c71b1" stroke="#2c71b1" stroke-width="1.51"/>
  <path d="M2216,-58L2405,79L2231,-387Z" fill="#678ec1" stroke="#678ec1" stroke-width="1.51"/>
  <path d="M2231,-387L2491,-519L1664,-602Z" fill="#86a1ce" stroke="#86a1ce" stroke-width="1.51"/>
  <path d="M2405,79L2491,-519L2231,-387Z" fill="#748fc1" stroke="#748fc1" stroke-width="1.51"/>
  <path d="M-630,4L-630,401L-41,250Z" fill="#a4c8e4" stroke="#a4c8e4" stroke-width="1.51"/>
  <path d="M2405,79L2500,646L2491,-519Z" fill="#4e7db3" stroke="#4e7db3" stroke-width="1.51"/>
  <path d="M1941,759L2445,567L2020,511Z" fill="#1b67ad" stroke="#1b67ad" stroke-width="1.51"/>
  <path d="M2500,646L2445,567L1941,759Z" fill="#155ea6" stroke="#155ea6" stroke-width="1.51"/>
  <path d="M1583,939L2500,646L1941,759Z" fill="#165fa7" stroke="#165fa7" stroke-width="1.51"/>
  <path d="M2445,567L2500,646L2405,79Z" fill="#2868a8" stroke="#2868a8" stroke-width="1.51"/>
  <path d="M-630,401L-459,989L-142,729Z" fill="#89a4d1" stroke="#89a4d1" stroke-width="1.51"/>
  <path d="M-142,729L-459,989L583,982Z" fill="#778ebe" stroke="#778ebe" stroke-width="1.51"/>
</svg>
