<?xml version="1.0" encoding="utf-8"?>
<svg xmlns="http://www.w3.org/2000/svg" width="1000" height="1000"
     xmlns:xlink="http://www.w3.org/1999/xlink">
  <!-- created with "splines.py -xnum 8 -ynum 8 -colors B0DeE9,D7E9F4,89BDDF,C4DEEF" -->
   
<defs>
 <linearGradient id="grad0"><stop offset="0%" stop-color="#b0dee9"/><stop offset="100%" stop-color="#89bddf"/></linearGradient>
 <linearGradient id="grad1"><stop offset="0%" stop-color="#b4dfea"/><stop offset="100%" stop-color="#90c1e1"/></linearGradient>
 <linearGradient id="grad2"><stop offset="0%" stop-color="#b9e0eb"/><stop offset="100%" stop-color="#97c5e3"/></linearGradient>
 <linearGradient id="grad3"><stop offset="0%" stop-color="#bee2ed"/><stop offset="100%" stop-color="#9fc9e5"/></linearGradient>
 <linearGradient id="grad4"><stop offset="0%" stop-color="#c3e3ee"/><stop offset="100%" stop-color="#a6cde7"/></linearGradient>
 <linearGradient id="grad5"><stop offset="0%" stop-color="#c8e4ef"/><stop offset="100%" stop-color="#add1e9"/></linearGradient>
 <linearGradient id="grad6"><stop offset="0%" stop-color="#cde6f1"/><stop offset="100%" stop-color="#b5d5eb"/></linearGradient>
 <linearGradient id="grad7"><stop offset="0%" stop-color="#d2e7f2"/><stop offset="100%" stop-color="#bcd9ed"/></linearGradient>
</defs>
<g>
<rect x="0" y="0" width="1000" height="1000" fill="url(#grad0)"/>
<path d="M 0 1000 L 0 0.0 c 41.666666666666664 -10 83.33333333333333 34 125.0 -16  s 41.666666666666664 -16 125.0 -27 s 41.666666666666664 -24 125.0 -38 s 41.666666666666664 30 125.0 -6 s 41.666666666666664 15 125.0 19 s 41.666666666666664 -32 125.0 -14 s 41.666666666666664 -33 125.0 -10 s 41.666666666666664 9 125.0 9 s 41.666666666666664 26 125.0 29 L 1000 1000 Z" fill="url(#grad0)" stroke="none"/>
<path d="M 0 1000 L 0 125.0 c 41.666666666666664 -38 83.33333333333333 26 125.0 -15  s 41.666666666666664 -20 125.0 10 s 41.666666666666664 0 125.0 40 s 41.666666666666664 37 125.0 -39 s 41.666666666666664 11 125.0 23 s 41.666666666666664 24 125.0 20 s 41.666666666666664 -9 125.0 -15 s 41.666666666666664 37 125.0 3 s 41.666666666666664 25 125.0 -23 L 1000 1000 Z" fill="url(#grad1)" stroke="none"/>
<path d="M 0 1000 L 0 250.0 c 41.666666666666664 36 83.33333333333333 -29 125.0 -30  s 41.666666666666664 -38 125.0 -28 s 41.666666666666664 -37 125.0 -5 s 41.666666666666664 9 125.0 17 s 41.666666666666664 37 125.0 36 s 41.666666666666664 18 125.0 -5 s 41.666666666666664 2 125.0 -24 s 41.666666666666664 10 125.0 40 s 41.666666666666664 32 125.0 14 L 1000 1000 Z" fill="url(#grad2)" stroke="none"/>
<path d="M 0 1000 L 0 375.0 c 41.666666666666664 -11 83.33333333333333 -2 125.0 -1  s 41.666666666666664 -38 125.0 7 s 41.666666666666664 -18 125.0 31 s 41.666666666666664 -39 125.0 -31 s 41.666666666666664 -15 125.0 -20 s 41.666666666666664 1 125.0 -35 s 41.666666666666664 -28 125.0 -30 s 41.666666666666664 26 125.0 3 s 41.666666666666664 -1 125.0 25 L 1000 1000 Z" fill="url(#grad3)" stroke="none"/>
<path d="M 0 1000 L 0 500.0 c 41.666666666666664 -29 83.33333333333333 20 125.0 40  s 41.666666666666664 31 125.0 -13 s 41.666666666666664 -35 125.0 -33 s 41.666666666666664 -38 125.0 0 s 41.666666666666664 11 125.0 -18 s 41.666666666666664 34 125.0 -37 s 41.666666666666664 -39 125.0 -14 s 41.666666666666664 -25 125.0 12 s 41.666666666666664 22 125.0 -27 L 1000 1000 Z" fill="url(#grad4)" stroke="none"/>
<path d="M 0 1000 L 0 625.0 c 41.666666666666664 2 83.33333333333333 -26 125.0 -14  s 41.666666666666664 -20 125.0 -12 s 41.666666666666664 0 125.0 4 s 41.666666666666664 -25 125.0 -17 s 41.666666666666664 34 125.0 -11 s 41.666666666666664 -25 125.0 -11 s 41.666666666666664 21 125.0 -8 s 41.666666666666664 -19 125.0 22 s 41.666666666666664 -15 125.0 32 L 1000 1000 Z" fill="url(#grad5)" stroke="none"/>
<path d="M 0 1000 L 0 750.0 c 41.666666666666664 -27 83.33333333333333 14 125.0 -12  s 41.666666666666664 30 125.0 -35 s 41.666666666666664 17 125.0 23 s 41.666666666666664 -20 125.0 -5 s 41.666666666666664 11 125.0 -29 s 41.666666666666664 16 125.0 -40 s 41.666666666666664 -8 125.0 -37 s 41.666666666666664 -32 125.0 35 s 41.666666666666664 -12 125.0 14 L 1000 1000 Z" fill="url(#grad6)" stroke="none"/>
<path d="M 0 1000 L 0 875.0 c 41.666666666666664 31 83.33333333333333 -29 125.0 23  s 41.666666666666664 -37 125.0 -30 s 41.666666666666664 28 125.0 1 s 41.666666666666664 36 125.0 10 s 41.666666666666664 16 125.0 -12 s 41.666666666666664 17 125.0 33 s 41.666666666666664 -19 125.0 13 s 41.666666666666664 -2 125.0 40 s 41.666666666666664 -40 125.0 18 L 1000 1000 Z" fill="url(#grad7)" stroke="none"/>
</g></svg>
