<?xml version="1.0" encoding="utf-8"?>
<svg xmlns="http://www.w3.org/2000/svg" width="1000" height="1000"
     xmlns:xlink="http://www.w3.org/1999/xlink">
  <!-- created with "trimesh.py -distribution uniform -min 10 -pow 20.0 -height 1000 -width 1000 -stroke D3D8E8 -num 30 -colors 2500,2500,F8FCFF" -->
   
<g>
<path d="M 920.0 697.0 L 1000 0 L 1000 1000 z" fill="#f8fcff" stroke="#D3D8E8"  opacity="1.000"/>
<path d="M 920.0 697.0 L 866.0 510.0 L 1000 0 z" fill="#f8fcff" stroke="#D3D8E8"  opacity="1.000"/>
<path d="M 19.0 779.0 L 0 1000 L 0 0 z" fill="#f8fcff" stroke="#D3D8E8"  opacity="1.000"/>
<path d="M 50.0 693.0 L 19.0 779.0 L 0 0 z" fill="#f8fcff" stroke="#D3D8E8"  opacity="1.000"/>
<path d="M 107.0 204.0 L 50.0 693.0 L 0 0 z" fill="#f7fcff" stroke="#D3D8E8"  opacity="1.000"/>
<path d="M 342.0 579.0 L 50.0 693.0 L 176.0 388.0 z" fill="#f8fcff" stroke="#D3D8E8"  opacity="1.000"/>
<path d="M 866.0 510.0 L 782.0 599.0 L 571.0 511.0 z" fill="#f8fcfe" stroke="#D3D8E8"  opacity="1.000"/>
<path d="M 920.0 697.0 L 782.0 599.0 L 866.0 510.0 z" fill="#f7fbff" stroke="#D3D8E8"  opacity="1.000"/>
<path d="M 799.0 894.0 L 782.0 599.0 L 920.0 697.0 z" fill="#f7fcfe" stroke="#D3D8E8"  opacity="1.000"/>
<path d="M 508.0 856.0 L 782.0 599.0 L 545.0 886.0 z" fill="#f8fcfe" stroke="#D3D8E8"  opacity="1.000"/>
<path d="M 866.0 510.0 L 864.0 55.0 L 1000 0 z" fill="#f7fbff" stroke="#D3D8E8"  opacity="1.000"/>
<path d="M 764.0 168.0 L 864.0 55.0 L 866.0 510.0 z" fill="#f8fcff" stroke="#D3D8E8"  opacity="1.000"/>
<path d="M 680.0 287.0 L 866.0 510.0 L 571.0 511.0 z" fill="#f7fcff" stroke="#D3D8E8"  opacity="1.000"/>
<path d="M 680.0 287.0 L 764.0 168.0 L 866.0 510.0 z" fill="#f7fbff" stroke="#D3D8E8"  opacity="1.000"/>
<path d="M 50.0 693.0 L 165.0 335.0 L 176.0 388.0 z" fill="#f7fcff" stroke="#D3D8E8"  opacity="1.000"/>
<path d="M 107.0 204.0 L 165.0 335.0 L 50.0 693.0 z" fill="#f8fcff" stroke="#D3D8E8"  opacity="1.000"/>
<path d="M 372.0 985.0 L 508.0 856.0 L 545.0 886.0 z" fill="#f7fbff" stroke="#D3D8E8"  opacity="1.000"/>
<path d="M 0 1000 L 372.0 985.0 L 1000 1000 z" fill="#f8fcff" stroke="#D3D8E8"  opacity="1.000"/>
<path d="M 342.0 579.0 L 370.0 533.0 L 571.0 511.0 z" fill="#f8fbff" stroke="#D3D8E8"  opacity="1.000"/>
<path d="M 939.0 919.0 L 920.0 697.0 L 1000 1000 z" fill="#f8fbff" stroke="#D3D8E8"  opacity="1.000"/>
<path d="M 799.0 894.0 L 939.0 919.0 L 1000 1000 z" fill="#f8fbff" stroke="#D3D8E8"  opacity="1.000"/>
<path d="M 939.0 919.0 L 799.0 894.0 L 920.0 697.0 z" fill="#f8fcff" stroke="#D3D8E8"  opacity="1.000"/>
<path d="M 782.0 599.0 L 749.0 901.0 L 545.0 886.0 z" fill="#f8fcff" stroke="#D3D8E8"  opacity="1.000"/>
<path d="M 749.0 901.0 L 782.0 599.0 L 799.0 894.0 z" fill="#f8fcff" stroke="#D3D8E8"  opacity="1.000"/>
<path d="M 749.0 901.0 L 372.0 985.0 L 545.0 886.0 z" fill="#f8fcfe" stroke="#D3D8E8"  opacity="1.000"/>
<path d="M 749.0 901.0 L 799.0 894.0 L 1000 1000 z" fill="#f7fcff" stroke="#D3D8E8"  opacity="1.000"/>
<path d="M 372.0 985.0 L 749.0 901.0 L 1000 1000 z" fill="#f8fcff" stroke="#D3D8E8"  opacity="1.000"/>
<path d="M 404.0 324.0 L 680.0 287.0 L 571.0 511.0 z" fill="#f8fcff" stroke="#D3D8E8"  opacity="1.000"/>
<path d="M 392.0 399.0 L 404.0 324.0 L 571.0 511.0 z" fill="#f8fcff" stroke="#D3D8E8"  opacity="1.000"/>
<path d="M 404.0 324.0 L 392.0 399.0 L 361.0 387.0 z" fill="#f8fcff" stroke="#D3D8E8"  opacity="1.000"/>
<path d="M 370.0 533.0 L 392.0 399.0 L 571.0 511.0 z" fill="#f8fcff" stroke="#D3D8E8"  opacity="1.000"/>
<path d="M 392.0 399.0 L 370.0 533.0 L 361.0 387.0 z" fill="#f8fcff" stroke="#D3D8E8"  opacity="1.000"/>
<path d="M 276.0 373.0 L 165.0 335.0 L 107.0 204.0 z" fill="#f8fcff" stroke="#D3D8E8"  opacity="1.000"/>
<path d="M 276.0 373.0 L 404.0 324.0 L 361.0 387.0 z" fill="#f8fcfe" stroke="#D3D8E8"  opacity="1.000"/>
<path d="M 165.0 335.0 L 276.0 373.0 L 176.0 388.0 z" fill="#f8fcff" stroke="#D3D8E8"  opacity="1.000"/>
<path d="M 370.0 533.0 L 276.0 373.0 L 361.0 387.0 z" fill="#f8fbff" stroke="#D3D8E8"  opacity="1.000"/>
<path d="M 276.0 373.0 L 342.0 579.0 L 176.0 388.0 z" fill="#f8fcff" stroke="#D3D8E8"  opacity="1.000"/>
<path d="M 276.0 373.0 L 370.0 533.0 L 342.0 579.0 z" fill="#f8fcff" stroke="#D3D8E8"  opacity="1.000"/>
<path d="M 680.0 287.0 L 441.0 155.0 L 764.0 168.0 z" fill="#f8fcff" stroke="#D3D8E8"  opacity="1.000"/>
<path d="M 404.0 324.0 L 441.0 155.0 L 680.0 287.0 z" fill="#f8fcff" stroke="#D3D8E8"  opacity="1.000"/>
<path d="M 441.0 155.0 L 864.0 55.0 L 764.0 168.0 z" fill="#f8fcff" stroke="#D3D8E8"  opacity="1.000"/>
<path d="M 441.0 155.0 L 276.0 373.0 L 107.0 204.0 z" fill="#f8fcfe" stroke="#D3D8E8"  opacity="1.000"/>
<path d="M 276.0 373.0 L 441.0 155.0 L 404.0 324.0 z" fill="#f8fcff" stroke="#D3D8E8"  opacity="1.000"/>
<path d="M 372.0 985.0 L 414.0 792.0 L 508.0 856.0 z" fill="#f8fbff" stroke="#D3D8E8"  opacity="1.000"/>
<path d="M 236.0 839.0 L 414.0 792.0 L 372.0 985.0 z" fill="#f7fcff" stroke="#D3D8E8"  opacity="1.000"/>
<path d="M 414.0 792.0 L 236.0 839.0 L 342.0 579.0 z" fill="#f8fcfe" stroke="#D3D8E8"  opacity="1.000"/>
<path d="M 189.0 837.0 L 372.0 985.0 L 0 1000 z" fill="#f7fcfe" stroke="#D3D8E8"  opacity="1.000"/>
<path d="M 189.0 837.0 L 236.0 839.0 L 372.0 985.0 z" fill="#f8fcff" stroke="#D3D8E8"  opacity="1.000"/>
<path d="M 19.0 779.0 L 189.0 837.0 L 0 1000 z" fill="#f7fbff" stroke="#D3D8E8"  opacity="1.000"/>
<path d="M 189.0 837.0 L 19.0 779.0 L 50.0 693.0 z" fill="#f8fcfe" stroke="#D3D8E8"  opacity="1.000"/>
<path d="M 342.0 579.0 L 189.0 837.0 L 50.0 693.0 z" fill="#f8fcff" stroke="#D3D8E8"  opacity="1.000"/>
<path d="M 236.0 839.0 L 189.0 837.0 L 342.0 579.0 z" fill="#f8fbff" stroke="#D3D8E8"  opacity="1.000"/>
<path d="M 441.0 155.0 L 84.0 21.0 L 864.0 55.0 z" fill="#f8fcff" stroke="#D3D8E8"  opacity="1.000"/>
<path d="M 1000 0 L 84.0 21.0 L 0 0 z" fill="#f8fcfe" stroke="#D3D8E8"  opacity="1.000"/>
<path d="M 864.0 55.0 L 84.0 21.0 L 1000 0 z" fill="#f8fcff" stroke="#D3D8E8"  opacity="1.000"/>
<path d="M 84.0 21.0 L 107.0 204.0 L 0 0 z" fill="#f8fcff" stroke="#D3D8E8"  opacity="1.000"/>
<path d="M 84.0 21.0 L 441.0 155.0 L 107.0 204.0 z" fill="#f7fcff" stroke="#D3D8E8"  opacity="1.000"/>
<path d="M 414.0 792.0 L 449.0 783.0 L 508.0 856.0 z" fill="#f7fcff" stroke="#D3D8E8"  opacity="1.000"/>
<path d="M 782.0 599.0 L 449.0 783.0 L 571.0 511.0 z" fill="#f7fbfe" stroke="#D3D8E8"  opacity="1.000"/>
<path d="M 449.0 783.0 L 782.0 599.0 L 508.0 856.0 z" fill="#f8fcfe" stroke="#D3D8E8"  opacity="1.000"/>
<path d="M 449.0 783.0 L 342.0 579.0 L 571.0 511.0 z" fill="#f8fcff" stroke="#D3D8E8"  opacity="1.000"/>
<path d="M 449.0 783.0 L 414.0 792.0 L 342.0 579.0 z" fill="#f8fcff" stroke="#D3D8E8"  opacity="1.000"/>
</g></svg>
