<?xml version="1.0" encoding="utf-8"?>
<svg xmlns="http://www.w3.org/2000/svg" width="1920" height="300"
     xmlns:xlink="http://www.w3.org/1999/xlink">
  <defs>
    <linearGradient id="bluegradient" x1="0" x2="0" y1="0" y2="1">
      <stop stop-color="#0E38FF" offset="0%"/>
      <stop stop-color="#729BFF" offset="10%"/>
      <stop stop-color="#f0f0ff" offset="100%"/>
    </linearGradient>
    <radialGradient id="circuitcolor">
<!--      <stop stop-color="#2040a0" offset="0%"/> -->
      <stop stop-color="#80d0ff" offset="20%"/>
      <stop stop-color="#40a0ff" offset="100%"/>
    </radialGradient>
    <radialGradient id="wires" cx="25%" cy="50%" r="100%" fx="100%" fy="100%">
      <stop stop-color="#404080" offset="0%"/>
      <stop stop-color="#6080a0" offset="40%"/>
      <stop stop-color="#80a0c0" offset="100%"/>
    </radialGradient>
    <radialGradient id="blues">
       <stop offset="0%" stop-color="rgba(128,192,192,0.8)"/>
       <stop offset="30%" stop-color="rgba(65,192,225,0.5)"/>
       <stop offset="100%" stop-color="rgba(192,192,225,0.8)"/>
    </radialGradient>
    <radialGradient id="blues2">
       <stop offset="0%" stop-color="rgba(64,64,225,0.5)"/>
       <stop offset="50%" stop-color="rgba(92,92,225,0.8)"/>
       <stop offset="100%" stop-color="rgba(128,128,225,0.8)"/>
    </radialGradient>
  </defs>
  <!-- created with "triangles.py -num=40 -min=40 -colors=gradient" -->
   
<path d="M 0 300 L 1133 276 L 1920 300 z" fill="rgb(107.64322916666666, 123.77395833333333, 178.46649305555556)" opacity="1" stroke="rgb(107.64322916666666, 123.77395833333333, 178.46649305555556)"/>
<path d="M 1920 0 L 720 10 L 0 0 z" fill="rgb(121.625, 136.25, 185.70833333333334)" opacity="1" stroke="rgb(121.625, 136.25, 185.70833333333334)"/>
<path d="M 1133 276 L 1426 275 L 1920 300 z" fill="rgb(59.3671875, 80.696875, 153.46197916666665)" opacity="1" stroke="rgb(59.3671875, 80.696875, 153.46197916666665)"/>
<path d="M 410 280 L 1133 276 L 0 300 z" fill="rgb(158.76302083333331, 169.38854166666667, 204.9439236111111)" opacity="1" stroke="rgb(158.76302083333331, 169.38854166666667, 204.9439236111111)"/>
<path d="M 24 112 L 0 300 L 0 0 z" fill="rgb(210.1875, 215.275, 231.57916666666668)" opacity="1" stroke="rgb(210.1875, 215.275, 231.57916666666668)"/>
<path d="M 24 112 L 103 242 L 0 300 z" fill="rgb(206.70052083333334, 212.16354166666667, 229.77309027777778)" opacity="1" stroke="rgb(206.70052083333334, 212.16354166666667, 229.77309027777778)"/>
<path d="M 103 242 L 165 271 L 0 300 z" fill="rgb(201.92708333333334, 207.90416666666667, 227.30069444444445)" opacity="1" stroke="rgb(201.92708333333334, 207.90416666666667, 227.30069444444445)"/>
<path d="M 165 271 L 410 280 L 0 300 z" fill="rgb(191.53385416666666, 198.63020833333334, 221.91753472222223)" opacity="1" stroke="rgb(191.53385416666666, 198.63020833333334, 221.91753472222223)"/>
<path d="M 410 280 L 165 271 L 342 199 z" fill="rgb(179.95572916666666, 188.29895833333333, 215.9206597222222)" opacity="1" stroke="rgb(179.95572916666666, 188.29895833333333, 215.9206597222222)"/>
<path d="M 410 280 L 868 226 L 1133 276 z" fill="rgb(129.37760416666669, 143.16770833333334, 189.72378472222223)" opacity="1" stroke="rgb(129.37760416666669, 143.16770833333334, 189.72378472222223)"/>
<path d="M 24 112 L 158 42 L 103 242 z" fill="rgb(201.3515625, 207.390625, 227.00260416666666)" opacity="1" stroke="rgb(201.3515625, 207.390625, 227.00260416666666)"/>
<path d="M 165 271 L 158 42 L 342 199 z" fill="rgb(188.48697916666666, 195.91145833333334, 220.33940972222223)" opacity="1" stroke="rgb(188.48697916666666, 195.91145833333334, 220.33940972222223)"/>
<path d="M 158 42 L 165 271 L 103 242 z" fill="rgb(196.578125, 203.13125, 224.53020833333332)" opacity="1" stroke="rgb(196.578125, 203.13125, 224.53020833333332)"/>
<path d="M 158 42 L 24 112 L 0 0 z" fill="rgb(204.83854166666666, 210.50208333333333, 228.80868055555555)" opacity="1" stroke="rgb(204.83854166666666, 210.50208333333333, 228.80868055555555)"/>
<path d="M 158 42 L 472 75 L 342 199 z" fill="rgb(178.09375, 186.6375, 214.95625)" opacity="1" stroke="rgb(178.09375, 186.6375, 214.95625)"/>
<path d="M 1903 193 L 1920 0 L 1920 300 z" fill="rgb(16.575520833333343, 42.51354166666667, 131.29809027777776)" opacity="1" stroke="rgb(16.575520833333343, 42.51354166666667, 131.29809027777776)"/>
<path d="M 1840 188 L 1903 193 L 1920 300 z" fill="rgb(19.283854166666657, 44.930208333333326, 132.70086805555553)" opacity="1" stroke="rgb(19.283854166666657, 44.930208333333326, 132.70086805555553)"/>
<path d="M 1426 275 L 1800 283 L 1920 300 z" fill="rgb(36.78645833333334, 60.54791666666668, 141.76631944444443)" opacity="1" stroke="rgb(36.78645833333334, 60.54791666666668, 141.76631944444443)"/>
<path d="M 1800 283 L 1840 188 L 1920 300 z" fill="rgb(22.770833333333343, 48.04166666666666, 134.50694444444446)" opacity="1" stroke="rgb(22.770833333333343, 48.04166666666666, 134.50694444444446)"/>
<path d="M 1903 193 L 1841 115 L 1920 0 z" fill="rgb(19.25, 44.900000000000006, 132.68333333333334)" opacity="1" stroke="rgb(19.25, 44.900000000000006, 132.68333333333334)"/>
<path d="M 1841 115 L 1903 193 L 1840 188 z" fill="rgb(21.958333333333343, 47.31666666666666, 134.0861111111111)" opacity="1" stroke="rgb(21.958333333333343, 47.31666666666666, 134.0861111111111)"/>
<path d="M 490 219 L 410 280 L 342 199 z" fill="rgb(168.953125, 178.48125, 210.221875)" opacity="1" stroke="rgb(168.953125, 178.48125, 210.221875)"/>
<path d="M 472 75 L 490 219 L 342 199 z" fill="rgb(166.85416666666666, 176.60833333333335, 209.13472222222222)" opacity="1" stroke="rgb(166.85416666666666, 176.60833333333335, 209.13472222222222)"/>
<path d="M 1246 229 L 1426 275 L 1133 276 z" fill="rgb(82.18489583333334, 101.05729166666667, 165.28038194444446)" opacity="1" stroke="rgb(82.18489583333334, 101.05729166666667, 165.28038194444446)"/>
<path d="M 1036 187 L 868 226 L 894 160 z" fill="rgb(116.27604166666667, 131.47708333333333, 182.93784722222222)" opacity="1" stroke="rgb(116.27604166666667, 131.47708333333333, 182.93784722222222)"/>
<path d="M 868 226 L 1036 187 L 1133 276 z" fill="rgb(108.18489583333333, 124.25729166666666, 178.7470486111111)" opacity="1" stroke="rgb(108.18489583333333, 124.25729166666666, 178.7470486111111)"/>
<path d="M 158 42 L 552 11 L 472 75 z" fill="rgb(170.984375, 180.29375, 211.27395833333333)" opacity="1" stroke="rgb(170.984375, 180.29375, 211.27395833333333)"/>
<path d="M 720 10 L 552 11 L 0 0 z" fill="rgb(167.9375, 177.575, 209.69583333333333)" opacity="1" stroke="rgb(167.9375, 177.575, 209.69583333333333)"/>
<path d="M 552 11 L 158 42 L 0 0 z" fill="rgb(186.96354166666666, 194.55208333333334, 219.55034722222223)" opacity="1" stroke="rgb(186.96354166666666, 194.55208333333334, 219.55034722222223)"/>
<path d="M 670 195 L 868 226 L 410 280 z" fill="rgb(145.05208333333331, 157.15416666666667, 197.8423611111111)" opacity="1" stroke="rgb(145.05208333333331, 157.15416666666667, 197.8423611111111)"/>
<path d="M 490 219 L 670 195 L 410 280 z" fill="rgb(157.84895833333334, 168.57291666666669, 204.47048611111111)" opacity="1" stroke="rgb(157.84895833333334, 168.57291666666669, 204.47048611111111)"/>
<path d="M 670 195 L 490 219 L 472 75 z" fill="rgb(155.75, 166.7, 203.38333333333333)" opacity="1" stroke="rgb(155.75, 166.7, 203.38333333333333)"/>
<path d="M 1036 187 L 1139 195 L 1133 276 z" fill="rgb(99.01041666666667, 116.07083333333334, 173.9951388888889)" opacity="1" stroke="rgb(99.01041666666667, 116.07083333333334, 173.9951388888889)"/>
<path d="M 1139 195 L 1246 229 L 1133 276 z" fill="rgb(91.90104166666667, 109.72708333333334, 170.31284722222222)" opacity="1" stroke="rgb(91.90104166666667, 109.72708333333334, 170.31284722222222)"/>
<path d="M 1246 229 L 1139 195 L 1201 169 z" fill="rgb(89.59895833333334, 107.67291666666668, 169.12048611111112)" opacity="1" stroke="rgb(89.59895833333334, 107.67291666666668, 169.12048611111112)"/>
<path d="M 867 53 L 1050 51 L 894 160 z" fill="rgb(115.8359375, 131.084375, 182.70989583333335)" opacity="1" stroke="rgb(115.8359375, 131.084375, 182.70989583333335)"/>
<path d="M 1050 51 L 1036 187 L 894 160 z" fill="rgb(110.11458333333333, 125.97916666666666, 179.74652777777777)" opacity="1" stroke="rgb(110.11458333333333, 125.97916666666666, 179.74652777777777)"/>
<path d="M 1050 51 L 867 53 L 720 10 z" fill="rgb(121.7265625, 136.340625, 185.7609375)" opacity="1" stroke="rgb(121.7265625, 136.340625, 185.7609375)"/>
<path d="M 1703 148 L 1841 115 L 1840 188 z" fill="rgb(28.729166666666657, 53.35833333333332, 137.59305555555557)" opacity="1" stroke="rgb(28.729166666666657, 53.35833333333332, 137.59305555555557)"/>
<path d="M 1841 115 L 1703 148 L 1920 0 z" fill="rgb(26.020833333333343, 50.94166666666666, 136.1902777777778)" opacity="1" stroke="rgb(26.020833333333343, 50.94166666666666, 136.1902777777778)"/>
<path d="M 1703 148 L 1399 66 L 1920 0 z" fill="rgb(40.984375, 64.29375000000002, 143.940625)" opacity="1" stroke="rgb(40.984375, 64.29375000000002, 143.940625)"/>
<path d="M 1800 283 L 1703 148 L 1840 188 z" fill="rgb(30.1171875, 54.59687500000001, 138.31197916666667)" opacity="1" stroke="rgb(30.1171875, 54.59687500000001, 138.31197916666667)"/>
<path d="M 1246 229 L 1277 141 L 1426 275 z" fill="rgb(77.30989583333331, 96.70729166666666, 162.75538194444442)" opacity="1" stroke="rgb(77.30989583333331, 96.70729166666666, 162.75538194444442)"/>
<path d="M 1277 141 L 1399 66 L 1426 275 z" fill="rgb(72.13020833333334, 92.08541666666667, 160.07256944444447)" opacity="1" stroke="rgb(72.13020833333334, 92.08541666666667, 160.07256944444447)"/>
<path d="M 1277 141 L 1246 229 L 1201 169 z" fill="rgb(84.92708333333333, 103.50416666666666, 166.70069444444442)" opacity="1" stroke="rgb(84.92708333333333, 103.50416666666666, 166.70069444444442)"/>
<path d="M 868 226 L 827 127 L 894 160 z" fill="rgb(123.3515625, 137.790625, 186.60260416666665)" opacity="1" stroke="rgb(123.3515625, 137.790625, 186.60260416666665)"/>
<path d="M 827 127 L 867 53 L 894 160 z" fill="rgb(123.38541666666666, 137.82083333333333, 186.6201388888889)" opacity="1" stroke="rgb(123.38541666666666, 137.82083333333333, 186.6201388888889)"/>
<path d="M 552 11 L 658 49 L 472 75 z" fill="rgb(154.05729166666666, 165.18958333333333, 202.5065972222222)" opacity="1" stroke="rgb(154.05729166666666, 165.18958333333333, 202.5065972222222)"/>
<path d="M 658 49 L 670 195 L 472 75 z" fill="rgb(150.0625, 161.625, 200.4375)" opacity="1" stroke="rgb(150.0625, 161.625, 200.4375)"/>
<path d="M 658 49 L 552 11 L 720 10 z" fill="rgb(145.66145833333334, 157.69791666666669, 198.15798611111111)" opacity="1" stroke="rgb(145.66145833333334, 157.69791666666669, 198.15798611111111)"/>
<path d="M 727 83 L 658 49 L 720 10 z" fill="rgb(139.73697916666669, 152.41145833333334, 195.08940972222223)" opacity="1" stroke="rgb(139.73697916666669, 152.41145833333334, 195.08940972222223)"/>
<path d="M 1073 111 L 1139 195 L 1036 187 z" fill="rgb(101.04166666666667, 117.88333333333334, 175.04722222222222)" opacity="1" stroke="rgb(101.04166666666667, 117.88333333333334, 175.04722222222222)"/>
<path d="M 1050 51 L 1073 111 L 1036 187 z" fill="rgb(104.0546875, 120.57187499999999, 176.6078125)" opacity="1" stroke="rgb(104.0546875, 120.57187499999999, 176.6078125)"/>
<path d="M 1399 66 L 1505 167 L 1426 275 z" fill="rgb(64.41145833333331, 85.19791666666666, 156.07465277777777)" opacity="1" stroke="rgb(64.41145833333331, 85.19791666666666, 156.07465277777777)"/>
<path d="M 1703 148 L 1505 167 L 1399 66 z" fill="rgb(55.03385416666666, 76.83020833333333, 151.21753472222224)" opacity="1" stroke="rgb(55.03385416666666, 76.83020833333333, 151.21753472222224)"/>
<path d="M 1505 167 L 1800 283 L 1426 275 z" fill="rgb(50.8359375, 73.084375, 149.04322916666666)" opacity="1" stroke="rgb(50.8359375, 73.084375, 149.04322916666666)"/>
<path d="M 1505 167 L 1703 148 L 1800 283 z" fill="rgb(41.45833333333334, 64.71666666666667, 144.1861111111111)" opacity="1" stroke="rgb(41.45833333333334, 64.71666666666667, 144.1861111111111)"/>
<path d="M 1286 34 L 1050 51 L 720 10 z" fill="rgb(107.54166666666667, 123.68333333333334, 178.4138888888889)" opacity="1" stroke="rgb(107.54166666666667, 123.68333333333334, 178.4138888888889)"/>
<path d="M 670 195 L 752 135 L 868 226 z" fill="rgb(133.47395833333334, 146.82291666666669, 191.84548611111111)" opacity="1" stroke="rgb(133.47395833333334, 146.82291666666669, 191.84548611111111)"/>
<path d="M 752 135 L 827 127 L 868 226 z" fill="rgb(128.15885416666666, 142.08020833333333, 189.0925347222222)" opacity="1" stroke="rgb(128.15885416666666, 142.08020833333333, 189.0925347222222)"/>
<path d="M 658 49 L 706 152 L 670 195 z" fill="rgb(142.140625, 154.55625, 196.334375)" opacity="1" stroke="rgb(142.140625, 154.55625, 196.334375)"/>
<path d="M 706 152 L 658 49 L 727 83 z" fill="rgb(140.2109375, 152.834375, 195.33489583333335)" opacity="1" stroke="rgb(140.2109375, 152.834375, 195.33489583333335)"/>
<path d="M 706 152 L 752 135 L 670 195 z" fill="rgb(138.95833333333331, 151.71666666666667, 194.6861111111111)" opacity="1" stroke="rgb(138.95833333333331, 151.71666666666667, 194.6861111111111)"/>
<path d="M 752 135 L 706 152 L 727 83 z" fill="rgb(137.02864583333331, 149.99479166666669, 193.68663194444446)" opacity="1" stroke="rgb(137.02864583333331, 149.99479166666669, 193.68663194444446)"/>
<path d="M 1139 195 L 1158 120 L 1201 169 z" fill="rgb(92.578125, 110.33125, 170.66354166666667)" opacity="1" stroke="rgb(92.578125, 110.33125, 170.66354166666667)"/>
<path d="M 1073 111 L 1158 120 L 1139 195 z" fill="rgb(96.91145833333334, 114.19791666666667, 172.90798611111111)" opacity="1" stroke="rgb(96.91145833333334, 114.19791666666667, 172.90798611111111)"/>
<path d="M 1277 141 L 1305 33 L 1399 66 z" fill="rgb(76.2265625, 95.740625, 162.19427083333335)" opacity="1" stroke="rgb(76.2265625, 95.740625, 162.19427083333335)"/>
<path d="M 1286 34 L 1305 33 L 1277 141 z" fill="rgb(80.05208333333334, 99.15416666666668, 164.17569444444445)" opacity="1" stroke="rgb(80.05208333333334, 99.15416666666668, 164.17569444444445)"/>
<path d="M 1399 66 L 1305 33 L 1920 0 z" fill="rgb(54.458333333333314, 76.31666666666666, 150.91944444444442)" opacity="1" stroke="rgb(54.458333333333314, 76.31666666666666, 150.91944444444442)"/>
<path d="M 1305 33 L 720 10 L 1920 0 z" fill="rgb(77.4453125, 96.828125, 162.82552083333331)" opacity="1" stroke="rgb(77.4453125, 96.828125, 162.82552083333331)"/>
<path d="M 1305 33 L 1286 34 L 720 10 z" fill="rgb(98.90885416666666, 115.98020833333332, 173.9425347222222)" opacity="1" stroke="rgb(98.90885416666666, 115.98020833333332, 173.9425347222222)"/>
<path d="M 752 135 L 776 92 L 827 127 z" fill="rgb(131.2734375, 144.859375, 190.70572916666666)" opacity="1" stroke="rgb(131.2734375, 144.859375, 190.70572916666666)"/>
<path d="M 776 92 L 752 135 L 727 83 z" fill="rgb(134.65885416666666, 147.88020833333331, 192.45920138888889)" opacity="1" stroke="rgb(134.65885416666666, 147.88020833333331, 192.45920138888889)"/>
<path d="M 827 127 L 776 92 L 867 53 z" fill="rgb(127.38020833333334, 141.38541666666669, 188.68923611111111)" opacity="1" stroke="rgb(127.38020833333334, 141.38541666666669, 188.68923611111111)"/>
<path d="M 867 53 L 776 92 L 720 10 z" fill="rgb(131.00260416666666, 144.61770833333333, 190.5654513888889)" opacity="1" stroke="rgb(131.00260416666666, 144.61770833333333, 190.5654513888889)"/>
<path d="M 776 92 L 727 83 L 720 10 z" fill="rgb(135.7421875, 148.846875, 193.0203125)" opacity="1" stroke="rgb(135.7421875, 148.846875, 193.0203125)"/>
<path d="M 1185 72 L 1286 34 L 1277 141 z" fill="rgb(84.11458333333333, 102.77916666666667, 166.2798611111111)" opacity="1" stroke="rgb(84.11458333333333, 102.77916666666667, 166.2798611111111)"/>
<path d="M 1185 72 L 1277 141 L 1201 169 z" fill="rgb(86.99218749999999, 105.346875, 167.7703125)" opacity="1" stroke="rgb(86.99218749999999, 105.346875, 167.7703125)"/>
<path d="M 1158 120 L 1185 72 L 1201 169 z" fill="rgb(91.02083333333333, 108.94166666666666, 169.85694444444445)" opacity="1" stroke="rgb(91.02083333333333, 108.94166666666666, 169.85694444444445)"/>
<path d="M 1286 34 L 1185 72 L 1050 51 z" fill="rgb(91.79947916666667, 109.63645833333334, 170.26024305555555)" opacity="1" stroke="rgb(91.79947916666667, 109.63645833333334, 170.26024305555555)"/>
<path d="M 1185 72 L 1073 111 L 1050 51 z" fill="rgb(99.01041666666667, 116.07083333333334, 173.9951388888889)" opacity="1" stroke="rgb(99.01041666666667, 116.07083333333334, 173.9951388888889)"/>
<path d="M 1185 72 L 1158 120 L 1073 111 z" fill="rgb(95.35416666666667, 112.80833333333334, 172.1013888888889)" opacity="1" stroke="rgb(95.35416666666667, 112.80833333333334, 172.1013888888889)"/>
</svg>
