<?xml version="1.0" encoding="utf-8"?>
<svg xmlns="http://www.w3.org/2000/svg" width="2000" height="2000"
     xmlns:xlink="http://www.w3.org/1999/xlink">
  <!-- created with "trimesh.py -height 2000 -width 2000 -stroke D0D0E0 -colors 500,900,F0F0F0,500,1500,FFFFFF,920,900,FFFFFF,0,0,F0F0F0,0,900,F0F0F0,1900,0,F0F0F0,1900,900,F0F0FF" -->
   
<g>
<path d="M 1.0 1636.0 L 0 2000 L 0 0 z" fill="#f4f4f5" stroke="#D0D0E0"  opacity="1.000"/>
<path d="M 1569.9 1.6 L 939.0 25.6 L 622.0 5.8 z" fill="#f4f4f6" stroke="#D0D0E0"  opacity="1.000"/>
<path d="M 101.8 0.6 L 1569.9 1.6 L 622.0 5.8 z" fill="#f4f4f5" stroke="#D0D0E0"  opacity="1.000"/>
<path d="M 2000 0 L 1569.9 1.6 L 0 0 z" fill="#f3f3f6" stroke="#D0D0E0"  opacity="1.000"/>
<path d="M 1569.9 1.6 L 101.8 0.6 L 0 0 z" fill="#f3f3f5" stroke="#D0D0E0"  opacity="1.000"/>
<path d="M 1.4 1539.6 L 0.6 143.3 L 3.0 1161.1 z" fill="#f1f1f1" stroke="#D0D0E0"  opacity="1.000"/>
<path d="M 0.6 143.3 L 1.0 1636.0 L 0 0 z" fill="#f3f3f3" stroke="#D0D0E0"  opacity="1.000"/>
<path d="M 0.6 143.3 L 1.4 1539.6 L 1.0 1636.0 z" fill="#f3f3f4" stroke="#D0D0E0"  opacity="1.000"/>
<path d="M 939.0 25.6 L 723.3 121.1 L 622.0 5.8 z" fill="#f4f4f5" stroke="#D0D0E0"  opacity="1.000"/>
<path d="M 1999.3 1639.5 L 2000 0 L 2000 2000 z" fill="#f3f3f9" stroke="#D0D0E0"  opacity="1.000"/>
<path d="M 1999.3 1639.5 L 1993.4 767.4 L 2000 0 z" fill="#f1f1fb" stroke="#D0D0E0"  opacity="1.000"/>
<path d="M 1971.8 1165.7 L 1999.3 1639.5 L 1972.1 1525.9 z" fill="#f4f4f9" stroke="#D0D0E0"  opacity="1.000"/>
<path d="M 983.5 1997.2 L 1805.1 1999.9 L 0 2000 z" fill="#f6f6f8" stroke="#D0D0E0"  opacity="1.000"/>
<path d="M 1048.7 1981.0 L 983.5 1997.2 L 1000.6 1861.0 z" fill="#f6f6f8" stroke="#D0D0E0"  opacity="1.000"/>
<path d="M 1150.1 1917.0 L 1384.0 1811.7 L 1703.6 1927.9 z" fill="#f5f5f8" stroke="#D0D0E0"  opacity="1.000"/>
<path d="M 1160.2 1776.3 L 1150.1 1917.0 L 1000.6 1861.0 z" fill="#f6f6f8" stroke="#D0D0E0"  opacity="1.000"/>
<path d="M 844.9 813.0 L 1225.1 692.6 L 882.1 890.8 z" fill="#f9f9fa" stroke="#D0D0E0"  opacity="1.000"/>
<path d="M 687.1 847.6 L 844.9 813.0 L 882.1 890.8 z" fill="#f8f8f9" stroke="#D0D0E0"  opacity="1.000"/>
<path d="M 844.9 813.0 L 687.1 847.6 L 751.4 399.5 z" fill="#f6f6f7" stroke="#D0D0E0"  opacity="1.000"/>
<path d="M 1225.1 692.6 L 1243.2 414.2 L 1439.6 379.6 z" fill="#f4f4f7" stroke="#D0D0E0"  opacity="1.000"/>
<path d="M 1811.1 824.5 L 1960.6 683.5 L 1993.4 767.4 z" fill="#f2f2fb" stroke="#D0D0E0"  opacity="1.000"/>
<path d="M 1811.1 824.5 L 1630.1 661.2 L 1960.6 683.5 z" fill="#f2f2fa" stroke="#D0D0E0"  opacity="1.000"/>
<path d="M 687.1 847.6 L 439.3 800.3 L 381.0 533.1 z" fill="#f3f3f4" stroke="#D0D0E0"  opacity="1.000"/>
<path d="M 439.3 800.3 L 687.1 847.6 L 535.9 967.2 z" fill="#f2f2f3" stroke="#D0D0E0"  opacity="1.000"/>
<path d="M 7.6 1098.9 L 170.4 1162.5 L 3.0 1161.1 z" fill="#f4f4f4" stroke="#D0D0E0"  opacity="1.000"/>
<path d="M 531.0 381.3 L 687.1 847.6 L 381.0 533.1 z" fill="#f4f4f5" stroke="#D0D0E0"  opacity="1.000"/>
<path d="M 687.1 847.6 L 531.0 381.3 L 751.4 399.5 z" fill="#f4f4f6" stroke="#D0D0E0"  opacity="1.000"/>
<path d="M 1985.2 946.0 L 1811.1 824.5 L 1993.4 767.4 z" fill="#f1f1fc" stroke="#D0D0E0"  opacity="1.000"/>
<path d="M 1999.3 1639.5 L 1985.2 946.0 L 1993.4 767.4 z" fill="#f2f2fa" stroke="#D0D0E0"  opacity="1.000"/>
<path d="M 1971.8 1165.7 L 1985.2 946.0 L 1999.3 1639.5 z" fill="#f3f3f9" stroke="#D0D0E0"  opacity="1.000"/>
<path d="M 1805.1 1999.9 L 1855.8 2000.0 L 0 2000 z" fill="#f5f5f8" stroke="#D0D0E0"  opacity="1.000"/>
<path d="M 1150.1 1917.0 L 1080.4 1980.4 L 1000.6 1861.0 z" fill="#f6f6f8" stroke="#D0D0E0"  opacity="1.000"/>
<path d="M 1080.4 1980.4 L 1048.7 1981.0 L 1000.6 1861.0 z" fill="#f6f6f8" stroke="#D0D0E0"  opacity="1.000"/>
<path d="M 1080.4 1980.4 L 1150.1 1917.0 L 1703.6 1927.9 z" fill="#f5f5f8" stroke="#D0D0E0"  opacity="1.000"/>
<path d="M 1080.4 1980.4 L 1805.1 1999.9 L 983.5 1997.2 z" fill="#f5f5f8" stroke="#D0D0E0"  opacity="1.000"/>
<path d="M 1048.7 1981.0 L 1080.4 1980.4 L 983.5 1997.2 z" fill="#f6f6f8" stroke="#D0D0E0"  opacity="1.000"/>
<path d="M 1384.0 1811.7 L 1343.2 1558.7 L 1513.5 1699.3 z" fill="#f5f5f8" stroke="#D0D0E0"  opacity="1.000"/>
<path d="M 948.7 449.2 L 844.9 813.0 L 751.4 399.5 z" fill="#f5f5f7" stroke="#D0D0E0"  opacity="1.000"/>
<path d="M 844.9 813.0 L 948.7 449.2 L 1225.1 692.6 z" fill="#f6f6f8" stroke="#D0D0E0"  opacity="1.000"/>
<path d="M 1838.9 951.9 L 1985.2 946.0 L 1851.5 969.3 z" fill="#f1f1fd" stroke="#D0D0E0"  opacity="1.000"/>
<path d="M 1985.2 946.0 L 1838.9 951.9 L 1811.1 824.5 z" fill="#f0f0fe" stroke="#D0D0E0"  opacity="1.000"/>
<path d="M 1658.5 776.8 L 1630.1 661.2 L 1811.1 824.5 z" fill="#f3f3f9" stroke="#D0D0E0"  opacity="1.000"/>
<path d="M 1583.2 389.6 L 1707.9 212.2 L 1662.5 443.9 z" fill="#f3f3f6" stroke="#D0D0E0"  opacity="1.000"/>
<path d="M 1583.2 389.6 L 1630.1 661.2 L 1439.6 379.6 z" fill="#f3f3f7" stroke="#D0D0E0"  opacity="1.000"/>
<path d="M 1630.1 661.2 L 1583.2 389.6 L 1662.5 443.9 z" fill="#f3f3f7" stroke="#D0D0E0"  opacity="1.000"/>
<path d="M 1994.1 373.3 L 1707.9 212.2 L 1841.9 95.4 z" fill="#f2f2f4" stroke="#D0D0E0"  opacity="1.000"/>
<path d="M 1993.4 767.4 L 1994.1 373.3 L 2000 0 z" fill="#f2f2f6" stroke="#D0D0E0"  opacity="1.000"/>
<path d="M 1160.2 1776.3 L 923.9 1793.3 L 1101.6 1509.0 z" fill="#f6f6f8" stroke="#D0D0E0"  opacity="1.000"/>
<path d="M 923.9 1793.3 L 1160.2 1776.3 L 1000.6 1861.0 z" fill="#f6f6f8" stroke="#D0D0E0"  opacity="1.000"/>
<path d="M 983.5 1997.2 L 923.9 1793.3 L 1000.6 1861.0 z" fill="#f6f6f8" stroke="#D0D0E0"  opacity="1.000"/>
<path d="M 1.0 1636.0 L 30.8 1774.3 L 0 2000 z" fill="#f6f6f7" stroke="#D0D0E0"  opacity="1.000"/>
<path d="M 49.2 558.7 L 175.2 641.9 L 57.9 670.5 z" fill="#f3f3f3" stroke="#D0D0E0"  opacity="1.000"/>
<path d="M 114.2 1015.3 L 7.6 1098.9 L 22.5 978.9 z" fill="#f2f2f3" stroke="#D0D0E0"  opacity="1.000"/>
<path d="M 15.3 324.0 L 34.0 409.1 L 25.8 432.0 z" fill="#f3f3f3" stroke="#D0D0E0"  opacity="1.000"/>
<path d="M 101.8 0.6 L 49.1 1.3 L 0 0 z" fill="#f0f0f1" stroke="#D0D0E0"  opacity="1.000"/>
<path d="M 723.3 121.1 L 636.3 327.6 L 462.4 264.3 z" fill="#f4f4f5" stroke="#D0D0E0"  opacity="1.000"/>
<path d="M 636.3 327.6 L 531.0 381.3 L 462.4 264.3 z" fill="#f4f4f5" stroke="#D0D0E0"  opacity="1.000"/>
<path d="M 531.0 381.3 L 636.3 327.6 L 751.4 399.5 z" fill="#f4f4f5" stroke="#D0D0E0"  opacity="1.000"/>
<path d="M 311.2 9.9 L 101.8 0.6 L 622.0 5.8 z" fill="#f3f3f4" stroke="#D0D0E0"  opacity="1.000"/>
<path d="M 372.0 33.7 L 465.9 50.8 L 462.4 264.3 z" fill="#f3f3f4" stroke="#D0D0E0"  opacity="1.000"/>
<path d="M 1603.1 1801.2 L 1384.0 1811.7 L 1513.5 1699.3 z" fill="#f5f5f8" stroke="#D0D0E0"  opacity="1.000"/>
<path d="M 1384.0 1811.7 L 1603.1 1801.2 L 1703.6 1927.9 z" fill="#f5f5f8" stroke="#D0D0E0"  opacity="1.000"/>
<path d="M 1966.7 1025.3 L 1971.8 1165.7 L 1851.5 969.3 z" fill="#f2f2fb" stroke="#D0D0E0"  opacity="1.000"/>
<path d="M 1985.2 946.0 L 1966.7 1025.3 L 1851.5 969.3 z" fill="#f1f1fc" stroke="#D0D0E0"  opacity="1.000"/>
<path d="M 1966.7 1025.3 L 1985.2 946.0 L 1971.8 1165.7 z" fill="#f2f2fb" stroke="#D0D0E0"  opacity="1.000"/>
<path d="M 1994.6 1942.7 L 1999.3 1639.5 L 2000 2000 z" fill="#f4f4f8" stroke="#D0D0E0"  opacity="1.000"/>
<path d="M 1799.5 1996.8 L 1080.4 1980.4 L 1703.6 1927.9 z" fill="#f5f5f8" stroke="#D0D0E0"  opacity="1.000"/>
<path d="M 1080.4 1980.4 L 1799.5 1996.8 L 1805.1 1999.9 z" fill="#f5f5f8" stroke="#D0D0E0"  opacity="1.000"/>
<path d="M 1950.3 1870.0 L 1913.4 1695.6 L 1999.3 1639.5 z" fill="#f4f4f8" stroke="#D0D0E0"  opacity="1.000"/>
<path d="M 1994.6 1942.7 L 1950.3 1870.0 L 1999.3 1639.5 z" fill="#f4f4f8" stroke="#D0D0E0"  opacity="1.000"/>
<path d="M 1343.2 1558.7 L 1222.0 1533.3 L 1312.3 1246.8 z" fill="#f6f6f8" stroke="#D0D0E0"  opacity="1.000"/>
<path d="M 1257.6 1718.8 L 1343.2 1558.7 L 1384.0 1811.7 z" fill="#f5f5f8" stroke="#D0D0E0"  opacity="1.000"/>
<path d="M 1962.2 1223.1 L 1971.8 1165.7 L 1972.1 1525.9 z" fill="#f3f3f9" stroke="#D0D0E0"  opacity="1.000"/>
<path d="M 1904.9 1348.7 L 1962.2 1223.1 L 1972.1 1525.9 z" fill="#f3f3f9" stroke="#D0D0E0"  opacity="1.000"/>
<path d="M 1691.1 931.3 L 1838.9 951.9 L 1851.5 969.3 z" fill="#f2f2fb" stroke="#D0D0E0"  opacity="1.000"/>
<path d="M 1779.0 1596.4 L 1603.1 1801.2 L 1513.5 1699.3 z" fill="#f5f5f8" stroke="#D0D0E0"  opacity="1.000"/>
<path d="M 1106.3 1394.4 L 1098.5 1216.3 L 1312.3 1246.8 z" fill="#f6f6f8" stroke="#D0D0E0"  opacity="1.000"/>
<path d="M 1098.5 1216.3 L 1202.9 1138.4 L 1312.3 1246.8 z" fill="#f6f6f8" stroke="#D0D0E0"  opacity="1.000"/>
<path d="M 1202.9 1138.4 L 1098.5 1216.3 L 882.1 890.8 z" fill="#f7f7f9" stroke="#D0D0E0"  opacity="1.000"/>
<path d="M 655.0 1042.4 L 687.1 847.6 L 882.1 890.8 z" fill="#f7f7f8" stroke="#D0D0E0"  opacity="1.000"/>
<path d="M 687.1 847.6 L 655.0 1042.4 L 535.9 967.2 z" fill="#f4f4f5" stroke="#D0D0E0"  opacity="1.000"/>
<path d="M 1442.7 152.0 L 1194.9 241.5 L 1280.7 88.7 z" fill="#f4f4f6" stroke="#D0D0E0"  opacity="1.000"/>
<path d="M 1280.7 88.7 L 1194.9 241.5 L 1021.2 36.9 z" fill="#f4f4f6" stroke="#D0D0E0"  opacity="1.000"/>
<path d="M 1194.9 241.5 L 960.4 216.5 L 1021.2 36.9 z" fill="#f4f4f6" stroke="#D0D0E0"  opacity="1.000"/>
<path d="M 1243.2 414.2 L 1194.9 241.5 L 1439.6 379.6 z" fill="#f4f4f6" stroke="#D0D0E0"  opacity="1.000"/>
<path d="M 1194.9 241.5 L 1442.7 152.0 L 1439.6 379.6 z" fill="#f4f4f6" stroke="#D0D0E0"  opacity="1.000"/>
<path d="M 852.0 150.8 L 723.3 121.1 L 939.0 25.6 z" fill="#f4f4f5" stroke="#D0D0E0"  opacity="1.000"/>
<path d="M 1063.6 424.0 L 1243.2 414.2 L 1225.1 692.6 z" fill="#f5f5f7" stroke="#D0D0E0"  opacity="1.000"/>
<path d="M 948.7 449.2 L 1063.6 424.0 L 1225.1 692.6 z" fill="#f5f5f7" stroke="#D0D0E0"  opacity="1.000"/>
<path d="M 1063.6 424.0 L 1194.9 241.5 L 1243.2 414.2 z" fill="#f4f4f7" stroke="#D0D0E0"  opacity="1.000"/>
<path d="M 1063.6 424.0 L 948.7 449.2 L 960.4 216.5 z" fill="#f5f5f6" stroke="#D0D0E0"  opacity="1.000"/>
<path d="M 1194.9 241.5 L 1063.6 424.0 L 960.4 216.5 z" fill="#f4f4f6" stroke="#D0D0E0"  opacity="1.000"/>
<path d="M 803.7 332.1 L 948.7 449.2 L 751.4 399.5 z" fill="#f5f5f6" stroke="#D0D0E0"  opacity="1.000"/>
<path d="M 948.7 449.2 L 803.7 332.1 L 960.4 216.5 z" fill="#f4f4f6" stroke="#D0D0E0"  opacity="1.000"/>
<path d="M 803.7 332.1 L 852.0 150.8 L 960.4 216.5 z" fill="#f4f4f6" stroke="#D0D0E0"  opacity="1.000"/>
<path d="M 852.0 150.8 L 803.7 332.1 L 723.3 121.1 z" fill="#f4f4f6" stroke="#D0D0E0"  opacity="1.000"/>
<path d="M 1478.0 19.0 L 1442.7 152.0 L 1280.7 88.7 z" fill="#f3f3f5" stroke="#D0D0E0"  opacity="1.000"/>
<path d="M 1478.0 19.0 L 1280.7 88.7 L 1021.2 36.9 z" fill="#f3f3f6" stroke="#D0D0E0"  opacity="1.000"/>
<path d="M 939.0 25.6 L 1478.0 19.0 L 1021.2 36.9 z" fill="#f4f4f6" stroke="#D0D0E0"  opacity="1.000"/>
<path d="M 1569.9 1.6 L 1478.0 19.0 L 939.0 25.6 z" fill="#f3f3f5" stroke="#D0D0E0"  opacity="1.000"/>
<path d="M 1583.2 389.6 L 1560.5 239.2 L 1707.9 212.2 z" fill="#f3f3f6" stroke="#D0D0E0"  opacity="1.000"/>
<path d="M 1442.7 152.0 L 1560.5 239.2 L 1439.6 379.6 z" fill="#f3f3f6" stroke="#D0D0E0"  opacity="1.000"/>
<path d="M 1560.5 239.2 L 1583.2 389.6 L 1439.6 379.6 z" fill="#f3f3f6" stroke="#D0D0E0"  opacity="1.000"/>
<path d="M 1930.2 12.1 L 1827.4 12.8 L 2000 0 z" fill="#f0f0f0" stroke="#D0D0E0"  opacity="1.000"/>
<path d="M 1994.1 373.3 L 1992.7 89.5 L 2000 0 z" fill="#f1f1f4" stroke="#D0D0E0"  opacity="1.000"/>
<path d="M 1960.6 683.5 L 1969.5 600.2 L 1993.4 767.4 z" fill="#f2f2f9" stroke="#D0D0E0"  opacity="1.000"/>
<path d="M 1969.5 600.2 L 1994.1 373.3 L 1993.4 767.4 z" fill="#f2f2f8" stroke="#D0D0E0"  opacity="1.000"/>
<path d="M 1707.9 212.2 L 1813.5 479.5 L 1662.5 443.9 z" fill="#f3f3f6" stroke="#D0D0E0"  opacity="1.000"/>
<path d="M 1994.1 373.3 L 1813.5 479.5 L 1707.9 212.2 z" fill="#f2f2f6" stroke="#D0D0E0"  opacity="1.000"/>
<path d="M 1969.5 600.2 L 1813.5 479.5 L 1994.1 373.3 z" fill="#f2f2f7" stroke="#D0D0E0"  opacity="1.000"/>
<path d="M 1813.5 479.5 L 1630.1 661.2 L 1662.5 443.9 z" fill="#f3f3f7" stroke="#D0D0E0"  opacity="1.000"/>
<path d="M 1630.1 661.2 L 1813.5 479.5 L 1960.6 683.5 z" fill="#f3f3f8" stroke="#D0D0E0"  opacity="1.000"/>
<path d="M 1813.5 479.5 L 1969.5 600.2 L 1960.6 683.5 z" fill="#f2f2f8" stroke="#D0D0E0"  opacity="1.000"/>
<path d="M 28.8 1746.0 L 30.8 1774.3 L 1.0 1636.0 z" fill="#f6f6f7" stroke="#D0D0E0"  opacity="1.000"/>
<path d="M 30.8 1774.3 L 63.9 1766.2 L 69.8 1829.8 z" fill="#f6f6f7" stroke="#D0D0E0"  opacity="1.000"/>
<path d="M 28.8 1746.0 L 63.9 1766.2 L 30.8 1774.3 z" fill="#f6f6f7" stroke="#D0D0E0"  opacity="1.000"/>
<path d="M 456.0 1996.3 L 195.3 1981.5 L 212.3 1963.1 z" fill="#f6f6f8" stroke="#D0D0E0"  opacity="1.000"/>
<path d="M 456.0 1996.3 L 983.5 1997.2 L 0 2000 z" fill="#f7f7f8" stroke="#D0D0E0"  opacity="1.000"/>
<path d="M 195.3 1981.5 L 456.0 1996.3 L 0 2000 z" fill="#f6f6f7" stroke="#D0D0E0"  opacity="1.000"/>
<path d="M 923.9 1793.3 L 882.1 1565.3 L 1101.6 1509.0 z" fill="#f7f7f8" stroke="#D0D0E0"  opacity="1.000"/>
<path d="M 882.1 1565.3 L 923.9 1793.3 L 861.6 1561.8 z" fill="#f7f7f8" stroke="#D0D0E0"  opacity="1.000"/>
<path d="M 681.3 1911.8 L 923.9 1793.3 L 983.5 1997.2 z" fill="#f6f6f8" stroke="#D0D0E0"  opacity="1.000"/>
<path d="M 456.0 1996.3 L 681.3 1911.8 L 983.5 1997.2 z" fill="#f7f7f8" stroke="#D0D0E0"  opacity="1.000"/>
<path d="M 681.3 1911.8 L 456.0 1996.3 L 544.4 1888.6 z" fill="#f7f7f8" stroke="#D0D0E0"  opacity="1.000"/>
<path d="M 5.1 1998.7 L 195.3 1981.5 L 0 2000 z" fill="#f6f6f7" stroke="#D0D0E0"  opacity="1.000"/>
<path d="M 195.3 1981.5 L 184.4 1970.8 L 212.3 1963.1 z" fill="#f6f6f7" stroke="#D0D0E0"  opacity="1.000"/>
<path d="M 30.8 1774.3 L 25.7 1921.5 L 0 2000 z" fill="#f6f6f7" stroke="#D0D0E0"  opacity="1.000"/>
<path d="M 25.7 1921.5 L 12.9 1988.0 L 0 2000 z" fill="#f6f6f7" stroke="#D0D0E0"  opacity="1.000"/>
<path d="M 439.3 800.3 L 336.0 549.5 L 381.0 533.1 z" fill="#f3f3f4" stroke="#D0D0E0"  opacity="1.000"/>
<path d="M 175.2 641.9 L 336.0 549.5 L 439.3 800.3 z" fill="#f3f3f4" stroke="#D0D0E0"  opacity="1.000"/>
<path d="M 260.0 1082.0 L 439.3 800.3 L 535.9 967.2 z" fill="#f3f3f3" stroke="#D0D0E0"  opacity="1.000"/>
<path d="M 260.0 1082.0 L 170.4 1162.5 L 194.0 1093.0 z" fill="#f4f4f5" stroke="#D0D0E0"  opacity="1.000"/>
<path d="M 260.0 1082.0 L 184.2 1318.8 L 170.4 1162.5 z" fill="#f5f5f5" stroke="#D0D0E0"  opacity="1.000"/>
<path d="M 134.6 790.5 L 175.2 641.9 L 439.3 800.3 z" fill="#f3f3f4" stroke="#D0D0E0"  opacity="1.000"/>
<path d="M 260.0 1082.0 L 134.6 790.5 L 439.3 800.3 z" fill="#f3f3f4" stroke="#D0D0E0"  opacity="1.000"/>
<path d="M 175.2 641.9 L 134.6 790.5 L 57.9 670.5 z" fill="#f3f3f3" stroke="#D0D0E0"  opacity="1.000"/>
<path d="M 134.6 790.5 L 114.2 1015.3 L 22.5 978.9 z" fill="#f2f2f2" stroke="#D0D0E0"  opacity="1.000"/>
<path d="M 49.1 1.3 L 0.4 0.3 L 0 0 z" fill="#f0f0f0" stroke="#D0D0E0"  opacity="1.000"/>
<path d="M 25.3 28.7 L 0.4 0.3 L 49.1 1.3 z" fill="#f0f0f0" stroke="#D0D0E0"  opacity="1.000"/>
<path d="M 0.4 0.3 L 0.6 143.3 L 0 0 z" fill="#f0f0f1" stroke="#D0D0E0"  opacity="1.000"/>
<path d="M 0.4 0.3 L 25.3 28.7 L 0.6 143.3 z" fill="#f1f1f1" stroke="#D0D0E0"  opacity="1.000"/>
<path d="M 25.3 28.7 L 46.5 27.5 L 50.5 34.2 z" fill="#f0f0f1" stroke="#D0D0E0"  opacity="1.000"/>
<path d="M 46.5 27.5 L 25.3 28.7 L 49.1 1.3 z" fill="#f0f0f1" stroke="#D0D0E0"  opacity="1.000"/>
<path d="M 44.5 1317.0 L 1.4 1539.6 L 3.0 1161.1 z" fill="#f5f5f6" stroke="#D0D0E0"  opacity="1.000"/>
<path d="M 170.4 1162.5 L 44.5 1317.0 L 3.0 1161.1 z" fill="#f4f4f5" stroke="#D0D0E0"  opacity="1.000"/>
<path d="M 184.2 1318.8 L 44.5 1317.0 L 170.4 1162.5 z" fill="#f5f5f6" stroke="#D0D0E0"  opacity="1.000"/>
<path d="M 540.3 17.7 L 723.3 121.1 L 462.4 264.3 z" fill="#f3f3f5" stroke="#D0D0E0"  opacity="1.000"/>
<path d="M 465.9 50.8 L 540.3 17.7 L 462.4 264.3 z" fill="#f3f3f4" stroke="#D0D0E0"  opacity="1.000"/>
<path d="M 723.3 121.1 L 540.3 17.7 L 622.0 5.8 z" fill="#f3f3f5" stroke="#D0D0E0"  opacity="1.000"/>
<path d="M 540.3 17.7 L 465.9 50.8 L 372.0 33.7 z" fill="#f3f3f4" stroke="#D0D0E0"  opacity="1.000"/>
<path d="M 540.3 17.7 L 311.2 9.9 L 622.0 5.8 z" fill="#f3f3f4" stroke="#D0D0E0"  opacity="1.000"/>
<path d="M 311.2 9.9 L 540.3 17.7 L 372.0 33.7 z" fill="#f3f3f4" stroke="#D0D0E0"  opacity="1.000"/>
<path d="M 1950.3 1870.0 L 1824.5 1836.4 L 1913.4 1695.6 z" fill="#f4f4f8" stroke="#D0D0E0"  opacity="1.000"/>
<path d="M 1824.5 1836.4 L 1779.0 1596.4 L 1913.4 1695.6 z" fill="#f4f4f8" stroke="#D0D0E0"  opacity="1.000"/>
<path d="M 1985.5 1986.8 L 1994.6 1942.7 L 2000 2000 z" fill="#f4f4f8" stroke="#D0D0E0"  opacity="1.000"/>
<path d="M 1962.2 1905.7 L 1950.3 1870.0 L 1994.6 1942.7 z" fill="#f4f4f8" stroke="#D0D0E0"  opacity="1.000"/>
<path d="M 1253.4 1807.7 L 1257.6 1718.8 L 1384.0 1811.7 z" fill="#f5f5f8" stroke="#D0D0E0"  opacity="1.000"/>
<path d="M 1253.4 1807.7 L 1384.0 1811.7 L 1150.1 1917.0 z" fill="#f5f5f8" stroke="#D0D0E0"  opacity="1.000"/>
<path d="M 1183.7 1585.2 L 1222.0 1533.3 L 1343.2 1558.7 z" fill="#f6f6f8" stroke="#D0D0E0"  opacity="1.000"/>
<path d="M 1257.6 1718.8 L 1183.7 1585.2 L 1343.2 1558.7 z" fill="#f6f6f8" stroke="#D0D0E0"  opacity="1.000"/>
<path d="M 1183.7 1585.2 L 1257.6 1718.8 L 1160.2 1776.3 z" fill="#f6f6f8" stroke="#D0D0E0"  opacity="1.000"/>
<path d="M 1183.7 1585.2 L 1160.2 1776.3 L 1101.6 1509.0 z" fill="#f6f6f8" stroke="#D0D0E0"  opacity="1.000"/>
<path d="M 1222.0 1533.3 L 1183.7 1585.2 L 1101.6 1509.0 z" fill="#f6f6f8" stroke="#D0D0E0"  opacity="1.000"/>
<path d="M 1938.7 1223.2 L 1962.2 1223.1 L 1904.9 1348.7 z" fill="#f3f3f9" stroke="#D0D0E0"  opacity="1.000"/>
<path d="M 1962.2 1223.1 L 1938.7 1223.2 L 1971.8 1165.7 z" fill="#f3f3f9" stroke="#D0D0E0"  opacity="1.000"/>
<path d="M 1774.5 880.5 L 1658.5 776.8 L 1811.1 824.5 z" fill="#f2f2fa" stroke="#D0D0E0"  opacity="1.000"/>
<path d="M 1774.5 880.5 L 1691.1 931.3 L 1658.5 776.8 z" fill="#f2f2fa" stroke="#D0D0E0"  opacity="1.000"/>
<path d="M 1838.9 951.9 L 1774.5 880.5 L 1811.1 824.5 z" fill="#f1f1fc" stroke="#D0D0E0"  opacity="1.000"/>
<path d="M 1691.1 931.3 L 1774.5 880.5 L 1838.9 951.9 z" fill="#f2f2fb" stroke="#D0D0E0"  opacity="1.000"/>
<path d="M 1779.0 1596.4 L 1842.9 1523.3 L 1913.4 1695.6 z" fill="#f4f4f8" stroke="#D0D0E0"  opacity="1.000"/>
<path d="M 1343.2 1558.7 L 1514.1 1296.1 L 1513.5 1699.3 z" fill="#f5f5f8" stroke="#D0D0E0"  opacity="1.000"/>
<path d="M 1514.1 1296.1 L 1343.2 1558.7 L 1312.3 1246.8 z" fill="#f5f5f8" stroke="#D0D0E0"  opacity="1.000"/>
<path d="M 1222.0 1533.3 L 1122.6 1436.9 L 1312.3 1246.8 z" fill="#f6f6f8" stroke="#D0D0E0"  opacity="1.000"/>
<path d="M 1122.6 1436.9 L 1106.3 1394.4 L 1312.3 1246.8 z" fill="#f6f6f8" stroke="#D0D0E0"  opacity="1.000"/>
<path d="M 1122.6 1436.9 L 1222.0 1533.3 L 1101.6 1509.0 z" fill="#f6f6f8" stroke="#D0D0E0"  opacity="1.000"/>
<path d="M 1106.3 1394.4 L 1122.6 1436.9 L 1101.6 1509.0 z" fill="#f6f6f8" stroke="#D0D0E0"  opacity="1.000"/>
<path d="M 1106.3 1394.4 L 904.2 1394.7 L 1098.5 1216.3 z" fill="#f6f6f8" stroke="#D0D0E0"  opacity="1.000"/>
<path d="M 904.2 1394.7 L 1106.3 1394.4 L 1101.6 1509.0 z" fill="#f6f6f8" stroke="#D0D0E0"  opacity="1.000"/>
<path d="M 882.1 1565.3 L 904.2 1394.7 L 1101.6 1509.0 z" fill="#f7f7f8" stroke="#D0D0E0"  opacity="1.000"/>
<path d="M 968.9 83.0 L 852.0 150.8 L 939.0 25.6 z" fill="#f4f4f6" stroke="#D0D0E0"  opacity="1.000"/>
<path d="M 852.0 150.8 L 968.9 83.0 L 960.4 216.5 z" fill="#f4f4f6" stroke="#D0D0E0"  opacity="1.000"/>
<path d="M 968.9 83.0 L 939.0 25.6 L 1021.2 36.9 z" fill="#f4f4f6" stroke="#D0D0E0"  opacity="1.000"/>
<path d="M 960.4 216.5 L 968.9 83.0 L 1021.2 36.9 z" fill="#f4f4f6" stroke="#D0D0E0"  opacity="1.000"/>
<path d="M 732.3 346.8 L 636.3 327.6 L 723.3 121.1 z" fill="#f4f4f5" stroke="#D0D0E0"  opacity="1.000"/>
<path d="M 803.7 332.1 L 732.3 346.8 L 723.3 121.1 z" fill="#f4f4f6" stroke="#D0D0E0"  opacity="1.000"/>
<path d="M 636.3 327.6 L 732.3 346.8 L 751.4 399.5 z" fill="#f4f4f6" stroke="#D0D0E0"  opacity="1.000"/>
<path d="M 732.3 346.8 L 803.7 332.1 L 751.4 399.5 z" fill="#f4f4f6" stroke="#D0D0E0"  opacity="1.000"/>
<path d="M 1492.6 52.5 L 1478.0 19.0 L 1569.9 1.6 z" fill="#f3f3f5" stroke="#D0D0E0"  opacity="1.000"/>
<path d="M 1478.0 19.0 L 1492.6 52.5 L 1442.7 152.0 z" fill="#f3f3f5" stroke="#D0D0E0"  opacity="1.000"/>
<path d="M 1492.6 52.5 L 1560.5 239.2 L 1442.7 152.0 z" fill="#f3f3f5" stroke="#D0D0E0"  opacity="1.000"/>
<path d="M 1707.9 212.2 L 1760.7 121.1 L 1841.9 95.4 z" fill="#f2f2f4" stroke="#D0D0E0"  opacity="1.000"/>
<path d="M 1775.9 86.1 L 1827.4 12.8 L 1841.9 95.4 z" fill="#f1f1f2" stroke="#D0D0E0"  opacity="1.000"/>
<path d="M 1775.9 86.1 L 1772.9 84.5 L 1827.4 12.8 z" fill="#f1f1f3" stroke="#D0D0E0"  opacity="1.000"/>
<path d="M 1760.7 121.1 L 1775.9 86.1 L 1841.9 95.4 z" fill="#f1f1f3" stroke="#D0D0E0"  opacity="1.000"/>
<path d="M 1775.9 86.1 L 1760.7 121.1 L 1772.9 84.5 z" fill="#f1f1f3" stroke="#D0D0E0"  opacity="1.000"/>
<path d="M 1772.9 84.5 L 1707.1 6.6 L 1827.4 12.8 z" fill="#f1f1f3" stroke="#D0D0E0"  opacity="1.000"/>
<path d="M 1707.1 6.6 L 1569.9 1.6 L 2000 0 z" fill="#f1f1f3" stroke="#D0D0E0"  opacity="1.000"/>
<path d="M 1827.4 12.8 L 1707.1 6.6 L 2000 0 z" fill="#f0f0f1" stroke="#D0D0E0"  opacity="1.000"/>
<path d="M 1760.7 121.1 L 1707.1 6.6 L 1772.9 84.5 z" fill="#f2f2f3" stroke="#D0D0E0"  opacity="1.000"/>
<path d="M 1898.7 82.2 L 1994.1 373.3 L 1841.9 95.4 z" fill="#f2f2f4" stroke="#D0D0E0"  opacity="1.000"/>
<path d="M 1898.7 82.2 L 1992.7 89.5 L 1994.1 373.3 z" fill="#f2f2f4" stroke="#D0D0E0"  opacity="1.000"/>
<path d="M 1827.4 12.8 L 1898.7 82.2 L 1841.9 95.4 z" fill="#f1f1f2" stroke="#D0D0E0"  opacity="1.000"/>
<path d="M 1930.2 12.1 L 1898.7 82.2 L 1827.4 12.8 z" fill="#f0f0f1" stroke="#D0D0E0"  opacity="1.000"/>
<path d="M 1992.7 89.5 L 1934.2 13.3 L 1993.4 12.3 z" fill="#f1f1f2" stroke="#D0D0E0"  opacity="1.000"/>
<path d="M 1934.2 13.3 L 1930.2 12.1 L 2000 0 z" fill="#f0f0f1" stroke="#D0D0E0"  opacity="1.000"/>
<path d="M 1934.2 13.3 L 1898.7 82.2 L 1930.2 12.1 z" fill="#f0f0f1" stroke="#D0D0E0"  opacity="1.000"/>
<path d="M 1898.7 82.2 L 1934.2 13.3 L 1992.7 89.5 z" fill="#f1f1f2" stroke="#D0D0E0"  opacity="1.000"/>
<path d="M 1992.7 89.5 L 1996.5 7.7 L 2000 0 z" fill="#f1f1f2" stroke="#D0D0E0"  opacity="1.000"/>
<path d="M 1996.5 7.7 L 1992.7 89.5 L 1993.4 12.3 z" fill="#f1f1f2" stroke="#D0D0E0"  opacity="1.000"/>
<path d="M 1996.5 7.7 L 1934.2 13.3 L 2000 0 z" fill="#f1f1f2" stroke="#D0D0E0"  opacity="1.000"/>
<path d="M 1934.2 13.3 L 1996.5 7.7 L 1993.4 12.3 z" fill="#f1f1f2" stroke="#D0D0E0"  opacity="1.000"/>
<path d="M 12.9 1988.0 L 6.8 1996.6 L 0 2000 z" fill="#f6f6f7" stroke="#D0D0E0"  opacity="1.000"/>
<path d="M 6.8 1996.6 L 5.1 1998.7 L 0 2000 z" fill="#f6f6f7" stroke="#D0D0E0"  opacity="1.000"/>
<path d="M 72.1 1867.4 L 37.8 1889.2 L 69.8 1829.8 z" fill="#f6f6f7" stroke="#D0D0E0"  opacity="1.000"/>
<path d="M 37.8 1889.2 L 30.8 1774.3 L 69.8 1829.8 z" fill="#f6f6f7" stroke="#D0D0E0"  opacity="1.000"/>
<path d="M 37.8 1889.2 L 25.7 1921.5 L 30.8 1774.3 z" fill="#f6f6f7" stroke="#D0D0E0"  opacity="1.000"/>
<path d="M 25.7 1921.5 L 35.4 1949.9 L 12.9 1988.0 z" fill="#f6f6f7" stroke="#D0D0E0"  opacity="1.000"/>
<path d="M 156.8 1051.8 L 260.0 1082.0 L 194.0 1093.0 z" fill="#f4f4f4" stroke="#D0D0E0"  opacity="1.000"/>
<path d="M 170.4 1162.5 L 156.8 1051.8 L 194.0 1093.0 z" fill="#f4f4f4" stroke="#D0D0E0"  opacity="1.000"/>
<path d="M 134.6 790.5 L 156.8 1051.8 L 114.2 1015.3 z" fill="#f2f2f3" stroke="#D0D0E0"  opacity="1.000"/>
<path d="M 156.8 1051.8 L 134.6 790.5 L 260.0 1082.0 z" fill="#f3f3f4" stroke="#D0D0E0"  opacity="1.000"/>
<path d="M 156.8 1051.8 L 170.4 1162.5 L 7.6 1098.9 z" fill="#f3f3f4" stroke="#D0D0E0"  opacity="1.000"/>
<path d="M 114.2 1015.3 L 156.8 1051.8 L 7.6 1098.9 z" fill="#f3f3f4" stroke="#D0D0E0"  opacity="1.000"/>
<path d="M 10.7 789.1 L 134.6 790.5 L 22.5 978.9 z" fill="#f1f1f2" stroke="#D0D0E0"  opacity="1.000"/>
<path d="M 49.2 558.7 L 10.7 789.1 L 25.8 432.0 z" fill="#f3f3f3" stroke="#D0D0E0"  opacity="1.000"/>
<path d="M 7.6 1098.9 L 10.7 789.1 L 22.5 978.9 z" fill="#f1f1f1" stroke="#D0D0E0"  opacity="1.000"/>
<path d="M 10.7 789.1 L 15.3 324.0 L 25.8 432.0 z" fill="#f3f3f4" stroke="#D0D0E0"  opacity="1.000"/>
<path d="M 15.3 324.0 L 10.7 789.1 L 0.6 143.3 z" fill="#f3f3f3" stroke="#D0D0E0"  opacity="1.000"/>
<path d="M 10.7 789.1 L 7.6 1098.9 L 3.0 1161.1 z" fill="#f2f2f3" stroke="#D0D0E0"  opacity="1.000"/>
<path d="M 0.6 143.3 L 10.7 789.1 L 3.0 1161.1 z" fill="#f2f2f3" stroke="#D0D0E0"  opacity="1.000"/>
<path d="M 56.2 1359.2 L 44.5 1317.0 L 184.2 1318.8 z" fill="#f5f5f6" stroke="#D0D0E0"  opacity="1.000"/>
<path d="M 923.9 1793.3 L 698.4 1572.1 L 861.6 1561.8 z" fill="#f7f7f9" stroke="#D0D0E0"  opacity="1.000"/>
<path d="M 681.3 1911.8 L 698.4 1572.1 L 923.9 1793.3 z" fill="#f7f7f9" stroke="#D0D0E0"  opacity="1.000"/>
<path d="M 224.1 1702.0 L 477.6 1539.4 L 544.4 1888.6 z" fill="#f8f8f9" stroke="#D0D0E0"  opacity="1.000"/>
<path d="M 224.1 1702.0 L 456.0 1996.3 L 212.3 1963.1 z" fill="#f7f7f8" stroke="#D0D0E0"  opacity="1.000"/>
<path d="M 456.0 1996.3 L 224.1 1702.0 L 544.4 1888.6 z" fill="#f7f7f8" stroke="#D0D0E0"  opacity="1.000"/>
<path d="M 96.7 6.7 L 49.1 1.3 L 101.8 0.6 z" fill="#f1f1f1" stroke="#D0D0E0"  opacity="1.000"/>
<path d="M 46.5 27.5 L 96.7 6.7 L 50.5 34.2 z" fill="#f1f1f1" stroke="#D0D0E0"  opacity="1.000"/>
<path d="M 96.7 6.7 L 46.5 27.5 L 49.1 1.3 z" fill="#f1f1f1" stroke="#D0D0E0"  opacity="1.000"/>
<path d="M 43.9 323.9 L 15.3 324.0 L 0.6 143.3 z" fill="#f2f2f3" stroke="#D0D0E0"  opacity="1.000"/>
<path d="M 147.4 221.7 L 43.9 323.9 L 0.6 143.3 z" fill="#f2f2f3" stroke="#D0D0E0"  opacity="1.000"/>
<path d="M 43.9 323.9 L 34.0 409.1 L 15.3 324.0 z" fill="#f2f2f3" stroke="#D0D0E0"  opacity="1.000"/>
<path d="M 43.9 323.9 L 225.6 321.4 L 34.0 409.1 z" fill="#f3f3f3" stroke="#D0D0E0"  opacity="1.000"/>
<path d="M 225.6 321.4 L 43.9 323.9 L 147.4 221.7 z" fill="#f2f2f3" stroke="#D0D0E0"  opacity="1.000"/>
<path d="M 215.0 161.1 L 311.2 9.9 L 372.0 33.7 z" fill="#f2f2f3" stroke="#D0D0E0"  opacity="1.000"/>
<path d="M 311.2 9.9 L 215.0 161.1 L 101.8 0.6 z" fill="#f2f2f3" stroke="#D0D0E0"  opacity="1.000"/>
<path d="M 215.0 161.1 L 96.7 6.7 L 101.8 0.6 z" fill="#f1f1f2" stroke="#D0D0E0"  opacity="1.000"/>
<path d="M 1603.1 1801.2 L 1754.9 1865.8 L 1703.6 1927.9 z" fill="#f5f5f8" stroke="#D0D0E0"  opacity="1.000"/>
<path d="M 1754.9 1865.8 L 1799.5 1996.8 L 1703.6 1927.9 z" fill="#f5f5f8" stroke="#D0D0E0"  opacity="1.000"/>
<path d="M 1779.0 1596.4 L 1754.9 1865.8 L 1603.1 1801.2 z" fill="#f5f5f8" stroke="#D0D0E0"  opacity="1.000"/>
<path d="M 1824.5 1836.4 L 1754.9 1865.8 L 1779.0 1596.4 z" fill="#f4f4f8" stroke="#D0D0E0"  opacity="1.000"/>
<path d="M 1895.7 1946.7 L 1824.5 1836.4 L 1950.3 1870.0 z" fill="#f4f4f8" stroke="#D0D0E0"  opacity="1.000"/>
<path d="M 1962.2 1905.7 L 1895.7 1946.7 L 1950.3 1870.0 z" fill="#f4f4f8" stroke="#D0D0E0"  opacity="1.000"/>
<path d="M 1985.5 1986.8 L 1895.7 1946.7 L 1994.6 1942.7 z" fill="#f4f4f8" stroke="#D0D0E0"  opacity="1.000"/>
<path d="M 1895.7 1946.7 L 1962.2 1905.7 L 1994.6 1942.7 z" fill="#f4f4f8" stroke="#D0D0E0"  opacity="1.000"/>
<path d="M 1855.8 2000.0 L 1985.4 1992.5 L 2000 2000 z" fill="#f4f4f8" stroke="#D0D0E0"  opacity="1.000"/>
<path d="M 1985.4 1992.5 L 1985.5 1986.8 L 2000 2000 z" fill="#f4f4f8" stroke="#D0D0E0"  opacity="1.000"/>
<path d="M 1895.7 1946.7 L 1985.4 1992.5 L 1855.8 2000.0 z" fill="#f4f4f8" stroke="#D0D0E0"  opacity="1.000"/>
<path d="M 1985.4 1992.5 L 1895.7 1946.7 L 1985.5 1986.8 z" fill="#f4f4f8" stroke="#D0D0E0"  opacity="1.000"/>
<path d="M 1257.6 1718.8 L 1221.5 1808.5 L 1160.2 1776.3 z" fill="#f6f6f8" stroke="#D0D0E0"  opacity="1.000"/>
<path d="M 1253.4 1807.7 L 1221.5 1808.5 L 1257.6 1718.8 z" fill="#f6f6f8" stroke="#D0D0E0"  opacity="1.000"/>
<path d="M 1160.2 1776.3 L 1221.5 1808.5 L 1150.1 1917.0 z" fill="#f6f6f8" stroke="#D0D0E0"  opacity="1.000"/>
<path d="M 1221.5 1808.5 L 1253.4 1807.7 L 1150.1 1917.0 z" fill="#f6f6f8" stroke="#D0D0E0"  opacity="1.000"/>
<path d="M 1691.1 931.3 L 1514.8 737.6 L 1658.5 776.8 z" fill="#f3f3f9" stroke="#D0D0E0"  opacity="1.000"/>
<path d="M 1394.5 798.6 L 1514.8 737.6 L 1691.1 931.3 z" fill="#f4f4f9" stroke="#D0D0E0"  opacity="1.000"/>
<path d="M 1658.5 776.8 L 1514.8 737.6 L 1630.1 661.2 z" fill="#f3f3f9" stroke="#D0D0E0"  opacity="1.000"/>
<path d="M 1630.1 661.2 L 1514.8 737.6 L 1439.6 379.6 z" fill="#f4f4f8" stroke="#D0D0E0"  opacity="1.000"/>
<path d="M 1254.4 1006.8 L 1202.9 1138.4 L 882.1 890.8 z" fill="#f7f7f9" stroke="#D0D0E0"  opacity="1.000"/>
<path d="M 1927.5 1499.4 L 1904.9 1348.7 L 1972.1 1525.9 z" fill="#f4f4f8" stroke="#D0D0E0"  opacity="1.000"/>
<path d="M 1927.5 1499.4 L 1842.9 1523.3 L 1904.9 1348.7 z" fill="#f4f4f8" stroke="#D0D0E0"  opacity="1.000"/>
<path d="M 1611.3 19.6 L 1760.7 121.1 L 1707.9 212.2 z" fill="#f2f2f4" stroke="#D0D0E0"  opacity="1.000"/>
<path d="M 1611.3 19.6 L 1707.1 6.6 L 1760.7 121.1 z" fill="#f2f2f4" stroke="#D0D0E0"  opacity="1.000"/>
<path d="M 1707.1 6.6 L 1611.3 19.6 L 1569.9 1.6 z" fill="#f2f2f4" stroke="#D0D0E0"  opacity="1.000"/>
<path d="M 1560.5 239.2 L 1611.3 19.6 L 1707.9 212.2 z" fill="#f2f2f5" stroke="#D0D0E0"  opacity="1.000"/>
<path d="M 1611.3 19.6 L 1492.6 52.5 L 1569.9 1.6 z" fill="#f2f2f5" stroke="#D0D0E0"  opacity="1.000"/>
<path d="M 1492.6 52.5 L 1611.3 19.6 L 1560.5 239.2 z" fill="#f3f3f5" stroke="#D0D0E0"  opacity="1.000"/>
<path d="M 184.4 1970.8 L 87.2 1965.4 L 72.1 1867.4 z" fill="#f6f6f7" stroke="#D0D0E0"  opacity="1.000"/>
<path d="M 87.2 1965.4 L 37.8 1889.2 L 72.1 1867.4 z" fill="#f6f6f7" stroke="#D0D0E0"  opacity="1.000"/>
<path d="M 35.4 1949.9 L 87.2 1965.4 L 12.9 1988.0 z" fill="#f6f6f7" stroke="#D0D0E0"  opacity="1.000"/>
<path d="M 37.8 1889.2 L 87.2 1965.4 L 25.7 1921.5 z" fill="#f6f6f7" stroke="#D0D0E0"  opacity="1.000"/>
<path d="M 87.2 1965.4 L 35.4 1949.9 L 25.7 1921.5 z" fill="#f6f6f7" stroke="#D0D0E0"  opacity="1.000"/>
<path d="M 87.2 1965.4 L 184.4 1970.8 L 195.3 1981.5 z" fill="#f6f6f7" stroke="#D0D0E0"  opacity="1.000"/>
<path d="M 87.2 1965.4 L 6.8 1996.6 L 12.9 1988.0 z" fill="#f6f6f7" stroke="#D0D0E0"  opacity="1.000"/>
<path d="M 5.1 1998.7 L 87.2 1965.4 L 195.3 1981.5 z" fill="#f6f6f7" stroke="#D0D0E0"  opacity="1.000"/>
<path d="M 6.8 1996.6 L 87.2 1965.4 L 5.1 1998.7 z" fill="#f6f6f7" stroke="#D0D0E0"  opacity="1.000"/>
<path d="M 134.6 790.5 L 39.5 709.4 L 57.9 670.5 z" fill="#f2f2f3" stroke="#D0D0E0"  opacity="1.000"/>
<path d="M 10.7 789.1 L 39.5 709.4 L 134.6 790.5 z" fill="#f2f2f3" stroke="#D0D0E0"  opacity="1.000"/>
<path d="M 39.5 709.4 L 49.2 558.7 L 57.9 670.5 z" fill="#f3f3f3" stroke="#D0D0E0"  opacity="1.000"/>
<path d="M 39.5 709.4 L 10.7 789.1 L 49.2 558.7 z" fill="#f2f2f3" stroke="#D0D0E0"  opacity="1.000"/>
<path d="M 652.3 1490.9 L 698.4 1572.1 L 477.6 1539.4 z" fill="#fafafb" stroke="#D0D0E0"  opacity="1.000"/>
<path d="M 594.3 1855.4 L 681.3 1911.8 L 544.4 1888.6 z" fill="#f7f7f8" stroke="#D0D0E0"  opacity="1.000"/>
<path d="M 594.3 1855.4 L 698.4 1572.1 L 681.3 1911.8 z" fill="#f8f8f9" stroke="#D0D0E0"  opacity="1.000"/>
<path d="M 477.6 1539.4 L 594.3 1855.4 L 544.4 1888.6 z" fill="#f8f8f9" stroke="#D0D0E0"  opacity="1.000"/>
<path d="M 698.4 1572.1 L 594.3 1855.4 L 477.6 1539.4 z" fill="#f9f9fa" stroke="#D0D0E0"  opacity="1.000"/>
<path d="M 110.0 1803.5 L 224.1 1702.0 L 212.3 1963.1 z" fill="#f6f6f8" stroke="#D0D0E0"  opacity="1.000"/>
<path d="M 110.0 1803.5 L 72.1 1867.4 L 69.8 1829.8 z" fill="#f6f6f7" stroke="#D0D0E0"  opacity="1.000"/>
<path d="M 63.9 1766.2 L 110.0 1803.5 L 69.8 1829.8 z" fill="#f6f6f7" stroke="#D0D0E0"  opacity="1.000"/>
<path d="M 184.4 1970.8 L 110.0 1803.5 L 212.3 1963.1 z" fill="#f6f6f7" stroke="#D0D0E0"  opacity="1.000"/>
<path d="M 110.0 1803.5 L 184.4 1970.8 L 72.1 1867.4 z" fill="#f6f6f7" stroke="#D0D0E0"  opacity="1.000"/>
<path d="M 1.4 1539.6 L 84.6 1625.8 L 1.0 1636.0 z" fill="#f6f6f7" stroke="#D0D0E0"  opacity="1.000"/>
<path d="M 224.1 1702.0 L 272.7 1425.5 L 477.6 1539.4 z" fill="#f8f8f9" stroke="#D0D0E0"  opacity="1.000"/>
<path d="M 260.0 1082.0 L 272.7 1425.5 L 184.2 1318.8 z" fill="#f6f6f6" stroke="#D0D0E0"  opacity="1.000"/>
<path d="M 336.0 549.5 L 278.6 394.7 L 381.0 533.1 z" fill="#f3f3f4" stroke="#D0D0E0"  opacity="1.000"/>
<path d="M 278.6 394.7 L 175.2 641.9 L 49.2 558.7 z" fill="#f3f3f4" stroke="#D0D0E0"  opacity="1.000"/>
<path d="M 278.6 394.7 L 336.0 549.5 L 175.2 641.9 z" fill="#f3f3f4" stroke="#D0D0E0"  opacity="1.000"/>
<path d="M 225.6 321.4 L 278.6 394.7 L 34.0 409.1 z" fill="#f3f3f4" stroke="#D0D0E0"  opacity="1.000"/>
<path d="M 278.6 394.7 L 49.2 558.7 L 25.8 432.0 z" fill="#f3f3f4" stroke="#D0D0E0"  opacity="1.000"/>
<path d="M 34.0 409.1 L 278.6 394.7 L 25.8 432.0 z" fill="#f3f3f4" stroke="#D0D0E0"  opacity="1.000"/>
<path d="M 234.6 214.2 L 372.0 33.7 L 462.4 264.3 z" fill="#f3f3f4" stroke="#D0D0E0"  opacity="1.000"/>
<path d="M 234.6 214.2 L 215.0 161.1 L 372.0 33.7 z" fill="#f2f2f3" stroke="#D0D0E0"  opacity="1.000"/>
<path d="M 234.6 214.2 L 225.6 321.4 L 147.4 221.7 z" fill="#f3f3f3" stroke="#D0D0E0"  opacity="1.000"/>
<path d="M 215.0 161.1 L 234.6 214.2 L 147.4 221.7 z" fill="#f2f2f3" stroke="#D0D0E0"  opacity="1.000"/>
<path d="M 96.7 6.7 L 62.9 83.2 L 50.5 34.2 z" fill="#f1f1f1" stroke="#D0D0E0"  opacity="1.000"/>
<path d="M 215.0 161.1 L 62.9 83.2 L 96.7 6.7 z" fill="#f2f2f2" stroke="#D0D0E0"  opacity="1.000"/>
<path d="M 62.9 83.2 L 215.0 161.1 L 147.4 221.7 z" fill="#f2f2f3" stroke="#D0D0E0"  opacity="1.000"/>
<path d="M 62.9 83.2 L 147.4 221.7 L 0.6 143.3 z" fill="#f2f2f2" stroke="#D0D0E0"  opacity="1.000"/>
<path d="M 25.3 28.7 L 62.9 83.2 L 0.6 143.3 z" fill="#f1f1f1" stroke="#D0D0E0"  opacity="1.000"/>
<path d="M 62.9 83.2 L 25.3 28.7 L 50.5 34.2 z" fill="#f1f1f1" stroke="#D0D0E0"  opacity="1.000"/>
<path d="M 1895.7 1946.7 L 1842.5 1985.5 L 1824.5 1836.4 z" fill="#f4f4f8" stroke="#D0D0E0"  opacity="1.000"/>
<path d="M 1754.9 1865.8 L 1842.5 1985.5 L 1799.5 1996.8 z" fill="#f4f4f8" stroke="#D0D0E0"  opacity="1.000"/>
<path d="M 1842.5 1985.5 L 1754.9 1865.8 L 1824.5 1836.4 z" fill="#f4f4f8" stroke="#D0D0E0"  opacity="1.000"/>
<path d="M 1842.5 1985.5 L 1895.7 1946.7 L 1855.8 2000.0 z" fill="#f4f4f8" stroke="#D0D0E0"  opacity="1.000"/>
<path d="M 1842.5 1985.5 L 1855.8 2000.0 L 1805.1 1999.9 z" fill="#f4f4f8" stroke="#D0D0E0"  opacity="1.000"/>
<path d="M 1799.5 1996.8 L 1842.5 1985.5 L 1805.1 1999.9 z" fill="#f4f4f8" stroke="#D0D0E0"  opacity="1.000"/>
<path d="M 1347.8 757.6 L 1225.1 692.6 L 1439.6 379.6 z" fill="#f5f5f8" stroke="#D0D0E0"  opacity="1.000"/>
<path d="M 1514.8 737.6 L 1347.8 757.6 L 1439.6 379.6 z" fill="#f4f4f8" stroke="#D0D0E0"  opacity="1.000"/>
<path d="M 1347.8 757.6 L 1514.8 737.6 L 1394.5 798.6 z" fill="#f5f5f8" stroke="#D0D0E0"  opacity="1.000"/>
<path d="M 1347.8 757.6 L 1316.5 796.9 L 1225.1 692.6 z" fill="#f5f5f8" stroke="#D0D0E0"  opacity="1.000"/>
<path d="M 1316.5 796.9 L 1347.8 757.6 L 1394.5 798.6 z" fill="#f5f5f8" stroke="#D0D0E0"  opacity="1.000"/>
<path d="M 1658.2 1138.5 L 1659.0 1272.8 L 1514.1 1296.1 z" fill="#f4f4f9" stroke="#D0D0E0"  opacity="1.000"/>
<path d="M 1658.2 1138.5 L 1691.1 931.3 L 1851.5 969.3 z" fill="#f3f3fa" stroke="#D0D0E0"  opacity="1.000"/>
<path d="M 1202.9 1138.4 L 1308.1 1078.0 L 1312.3 1246.8 z" fill="#f6f6f8" stroke="#D0D0E0"  opacity="1.000"/>
<path d="M 1254.4 1006.8 L 1308.1 1078.0 L 1202.9 1138.4 z" fill="#f6f6f9" stroke="#D0D0E0"  opacity="1.000"/>
<path d="M 1308.1 1078.0 L 1514.1 1296.1 L 1312.3 1246.8 z" fill="#f5f5f8" stroke="#D0D0E0"  opacity="1.000"/>
<path d="M 1308.1 1078.0 L 1658.2 1138.5 L 1514.1 1296.1 z" fill="#f5f5f9" stroke="#D0D0E0"  opacity="1.000"/>
<path d="M 1308.1 1078.0 L 1254.4 1006.8 L 1394.5 798.6 z" fill="#f6f6f8" stroke="#D0D0E0"  opacity="1.000"/>
<path d="M 1308.1 1078.0 L 1394.5 798.6 L 1691.1 931.3 z" fill="#f4f4f9" stroke="#D0D0E0"  opacity="1.000"/>
<path d="M 1658.2 1138.5 L 1308.1 1078.0 L 1691.1 931.3 z" fill="#f4f4f9" stroke="#D0D0E0"  opacity="1.000"/>
<path d="M 1263.7 862.8 L 1316.5 796.9 L 1394.5 798.6 z" fill="#f5f5f8" stroke="#D0D0E0"  opacity="1.000"/>
<path d="M 1254.4 1006.8 L 1263.7 862.8 L 1394.5 798.6 z" fill="#f6f6f8" stroke="#D0D0E0"  opacity="1.000"/>
<path d="M 1316.5 796.9 L 1263.7 862.8 L 1225.1 692.6 z" fill="#f6f6f8" stroke="#D0D0E0"  opacity="1.000"/>
<path d="M 1225.1 692.6 L 1263.7 862.8 L 882.1 890.8 z" fill="#f7f7f9" stroke="#D0D0E0"  opacity="1.000"/>
<path d="M 1263.7 862.8 L 1254.4 1006.8 L 882.1 890.8 z" fill="#f7f7f9" stroke="#D0D0E0"  opacity="1.000"/>
<path d="M 1940.2 1518.0 L 1927.5 1499.4 L 1972.1 1525.9 z" fill="#f4f4f8" stroke="#D0D0E0"  opacity="1.000"/>
<path d="M 1927.5 1499.4 L 1940.2 1518.0 L 1842.9 1523.3 z" fill="#f4f4f8" stroke="#D0D0E0"  opacity="1.000"/>
<path d="M 1842.9 1523.3 L 1940.2 1518.0 L 1913.4 1695.6 z" fill="#f4f4f8" stroke="#D0D0E0"  opacity="1.000"/>
<path d="M 1999.3 1639.5 L 1940.2 1518.0 L 1972.1 1525.9 z" fill="#f4f4f8" stroke="#D0D0E0"  opacity="1.000"/>
<path d="M 1913.4 1695.6 L 1940.2 1518.0 L 1999.3 1639.5 z" fill="#f4f4f8" stroke="#D0D0E0"  opacity="1.000"/>
<path d="M 1800.0 1317.3 L 1938.7 1223.2 L 1904.9 1348.7 z" fill="#f3f3f9" stroke="#D0D0E0"  opacity="1.000"/>
<path d="M 904.2 1394.7 L 734.7 1301.5 L 1098.5 1216.3 z" fill="#f7f7f8" stroke="#D0D0E0"  opacity="1.000"/>
<path d="M 71.4 1692.7 L 28.8 1746.0 L 1.0 1636.0 z" fill="#f6f6f7" stroke="#D0D0E0"  opacity="1.000"/>
<path d="M 84.6 1625.8 L 71.4 1692.7 L 1.0 1636.0 z" fill="#f6f6f7" stroke="#D0D0E0"  opacity="1.000"/>
<path d="M 71.4 1692.7 L 63.9 1766.2 L 28.8 1746.0 z" fill="#f6f6f7" stroke="#D0D0E0"  opacity="1.000"/>
<path d="M 71.4 1692.7 L 84.6 1625.8 L 224.1 1702.0 z" fill="#f6f6f7" stroke="#D0D0E0"  opacity="1.000"/>
<path d="M 71.4 1692.7 L 110.0 1803.5 L 63.9 1766.2 z" fill="#f6f6f7" stroke="#D0D0E0"  opacity="1.000"/>
<path d="M 110.0 1803.5 L 71.4 1692.7 L 224.1 1702.0 z" fill="#f6f6f7" stroke="#D0D0E0"  opacity="1.000"/>
<path d="M 84.6 1625.8 L 105.2 1592.1 L 224.1 1702.0 z" fill="#f6f6f7" stroke="#D0D0E0"  opacity="1.000"/>
<path d="M 105.2 1592.1 L 272.7 1425.5 L 224.1 1702.0 z" fill="#f7f7f8" stroke="#D0D0E0"  opacity="1.000"/>
<path d="M 105.2 1592.1 L 84.6 1625.8 L 1.4 1539.6 z" fill="#f6f6f7" stroke="#D0D0E0"  opacity="1.000"/>
<path d="M 55.6 1420.9 L 56.2 1359.2 L 184.2 1318.8 z" fill="#f5f5f6" stroke="#D0D0E0"  opacity="1.000"/>
<path d="M 272.7 1425.5 L 55.6 1420.9 L 184.2 1318.8 z" fill="#f6f6f7" stroke="#D0D0E0"  opacity="1.000"/>
<path d="M 105.2 1592.1 L 55.6 1420.9 L 272.7 1425.5 z" fill="#f6f6f7" stroke="#D0D0E0"  opacity="1.000"/>
<path d="M 55.6 1420.9 L 105.2 1592.1 L 1.4 1539.6 z" fill="#f6f6f7" stroke="#D0D0E0"  opacity="1.000"/>
<path d="M 44.5 1317.0 L 55.6 1420.9 L 1.4 1539.6 z" fill="#f5f5f6" stroke="#D0D0E0"  opacity="1.000"/>
<path d="M 56.2 1359.2 L 55.6 1420.9 L 44.5 1317.0 z" fill="#f5f5f6" stroke="#D0D0E0"  opacity="1.000"/>
<path d="M 316.2 349.3 L 234.6 214.2 L 462.4 264.3 z" fill="#f3f3f4" stroke="#D0D0E0"  opacity="1.000"/>
<path d="M 234.6 214.2 L 316.2 349.3 L 225.6 321.4 z" fill="#f3f3f4" stroke="#D0D0E0"  opacity="1.000"/>
<path d="M 316.2 349.3 L 278.6 394.7 L 225.6 321.4 z" fill="#f3f3f4" stroke="#D0D0E0"  opacity="1.000"/>
<path d="M 531.0 381.3 L 316.2 349.3 L 462.4 264.3 z" fill="#f3f3f5" stroke="#D0D0E0"  opacity="1.000"/>
<path d="M 316.2 349.3 L 531.0 381.3 L 381.0 533.1 z" fill="#f3f3f4" stroke="#D0D0E0"  opacity="1.000"/>
<path d="M 278.6 394.7 L 316.2 349.3 L 381.0 533.1 z" fill="#f3f3f4" stroke="#D0D0E0"  opacity="1.000"/>
<path d="M 1749.2 1233.7 L 1658.2 1138.5 L 1851.5 969.3 z" fill="#f3f3fa" stroke="#D0D0E0"  opacity="1.000"/>
<path d="M 1971.8 1165.7 L 1749.2 1233.7 L 1851.5 969.3 z" fill="#f2f2fa" stroke="#D0D0E0"  opacity="1.000"/>
<path d="M 1938.7 1223.2 L 1749.2 1233.7 L 1971.8 1165.7 z" fill="#f3f3f9" stroke="#D0D0E0"  opacity="1.000"/>
<path d="M 1800.0 1317.3 L 1749.2 1233.7 L 1938.7 1223.2 z" fill="#f3f3f9" stroke="#D0D0E0"  opacity="1.000"/>
<path d="M 1658.2 1138.5 L 1749.2 1233.7 L 1659.0 1272.8 z" fill="#f4f4f9" stroke="#D0D0E0"  opacity="1.000"/>
<path d="M 1749.2 1233.7 L 1800.0 1317.3 L 1659.0 1272.8 z" fill="#f4f4f9" stroke="#D0D0E0"  opacity="1.000"/>
<path d="M 1842.9 1523.3 L 1754.9 1392.1 L 1904.9 1348.7 z" fill="#f4f4f9" stroke="#D0D0E0"  opacity="1.000"/>
<path d="M 1754.9 1392.1 L 1800.0 1317.3 L 1904.9 1348.7 z" fill="#f4f4f9" stroke="#D0D0E0"  opacity="1.000"/>
<path d="M 1754.9 1392.1 L 1842.9 1523.3 L 1779.0 1596.4 z" fill="#f4f4f8" stroke="#D0D0E0"  opacity="1.000"/>
<path d="M 1800.0 1317.3 L 1754.9 1392.1 L 1659.0 1272.8 z" fill="#f4f4f9" stroke="#D0D0E0"  opacity="1.000"/>
<path d="M 1659.0 1272.8 L 1754.9 1392.1 L 1514.1 1296.1 z" fill="#f4f4f9" stroke="#D0D0E0"  opacity="1.000"/>
<path d="M 1754.9 1392.1 L 1779.0 1596.4 L 1513.5 1699.3 z" fill="#f4f4f8" stroke="#D0D0E0"  opacity="1.000"/>
<path d="M 1514.1 1296.1 L 1754.9 1392.1 L 1513.5 1699.3 z" fill="#f5f5f8" stroke="#D0D0E0"  opacity="1.000"/>
<path d="M 861.1 1425.7 L 734.7 1301.5 L 904.2 1394.7 z" fill="#f7f7f8" stroke="#D0D0E0"  opacity="1.000"/>
<path d="M 734.7 1301.5 L 861.1 1425.7 L 652.3 1490.9 z" fill="#f8f8f9" stroke="#D0D0E0"  opacity="1.000"/>
<path d="M 861.1 1425.7 L 882.1 1565.3 L 861.6 1561.8 z" fill="#f7f7f8" stroke="#D0D0E0"  opacity="1.000"/>
<path d="M 861.1 1425.7 L 904.2 1394.7 L 882.1 1565.3 z" fill="#f7f7f8" stroke="#D0D0E0"  opacity="1.000"/>
<path d="M 698.4 1572.1 L 861.1 1425.7 L 861.6 1561.8 z" fill="#f7f7f9" stroke="#D0D0E0"  opacity="1.000"/>
<path d="M 652.3 1490.9 L 861.1 1425.7 L 698.4 1572.1 z" fill="#f8f8f9" stroke="#D0D0E0"  opacity="1.000"/>
<path d="M 655.7 1274.4 L 652.3 1490.9 L 477.6 1539.4 z" fill="#fafafa" stroke="#D0D0E0"  opacity="1.000"/>
<path d="M 655.7 1274.4 L 734.7 1301.5 L 652.3 1490.9 z" fill="#f8f8f9" stroke="#D0D0E0"  opacity="1.000"/>
<path d="M 272.7 1425.5 L 655.7 1274.4 L 477.6 1539.4 z" fill="#fafafb" stroke="#D0D0E0"  opacity="1.000"/>
<path d="M 655.7 1274.4 L 272.7 1425.5 L 260.0 1082.0 z" fill="#f6f6f7" stroke="#D0D0E0"  opacity="1.000"/>
<path d="M 655.0 1042.4 L 655.7 1274.4 L 535.9 967.2 z" fill="#f5f5f6" stroke="#D0D0E0"  opacity="1.000"/>
<path d="M 655.7 1274.4 L 260.0 1082.0 L 535.9 967.2 z" fill="#f5f5f5" stroke="#D0D0E0"  opacity="1.000"/>
<path d="M 1098.5 1216.3 L 703.1 1191.3 L 882.1 890.8 z" fill="#f8f8f9" stroke="#D0D0E0"  opacity="1.000"/>
<path d="M 734.7 1301.5 L 703.1 1191.3 L 1098.5 1216.3 z" fill="#f7f7f8" stroke="#D0D0E0"  opacity="1.000"/>
<path d="M 703.1 1191.3 L 655.0 1042.4 L 882.1 890.8 z" fill="#f7f7f8" stroke="#D0D0E0"  opacity="1.000"/>
<path d="M 703.1 1191.3 L 655.7 1274.4 L 655.0 1042.4 z" fill="#f6f6f7" stroke="#D0D0E0"  opacity="1.000"/>
<path d="M 655.7 1274.4 L 703.1 1191.3 L 734.7 1301.5 z" fill="#f7f7f8" stroke="#D0D0E0"  opacity="1.000"/>
</g></svg>
