<?xml version="1.0" encoding="utf-8"?>
<svg xmlns="http://www.w3.org/2000/svg" width="1920" height="1000"
     xmlns:xlink="http://www.w3.org/1999/xlink">
  <!-- created with "trimesh.py -height 1000 -stroke C8C8DF -colors 500,900,D0DDEF,500,1500,FFFFFF,920,900,FFFFFF,0,0,D0DDEF,0,900,D0DDEF,1900,0,D0DDEF,1900,900,D0DDEF" -->
   
<g>
<path d="M 1920 0 L 797.4 0.1 L 0 0 z" fill="#dce6f3" stroke="#C8C8DF"  opacity="1.000"/>
<path d="M 1072.6 0.9 L 797.4 0.1 L 1920 0 z" fill="#dce5f3" stroke="#C8C8DF"  opacity="1.000"/>
<path d="M 573.7 801.5 L 387.0 840.1 L 299.3 557.3 z" fill="#dbe5f2" stroke="#C8C8DF"  opacity="1.000"/>
<path d="M 1258.4 2.2 L 1072.6 0.9 L 1920 0 z" fill="#dae4f2" stroke="#C8C8DF"  opacity="1.000"/>
<path d="M 1552.3 3.5 L 1258.4 2.2 L 1920 0 z" fill="#d9e3f2" stroke="#C8C8DF"  opacity="1.000"/>
<path d="M 132.6 999.8 L 233.0 1000.0 L 0 1000 z" fill="#d9e4f2" stroke="#C8C8DF"  opacity="1.000"/>
<path d="M 747.4 617.6 L 668.2 777.4 L 573.7 801.5 z" fill="#e0e9f4" stroke="#C8C8DF"  opacity="1.000"/>
<path d="M 307.0 1000.0 L 233.0 1000.0 L 252.5 989.7 z" fill="#dce5f3" stroke="#C8C8DF"  opacity="1.000"/>
<path d="M 797.4 0.1 L 552.6 0.4 L 0 0 z" fill="#dae4f2" stroke="#C8C8DF"  opacity="1.000"/>
<path d="M 1168.1 993.1 L 1522.2 999.7 L 924.7 999.1 z" fill="#e5ecf6" stroke="#C8C8DF"  opacity="1.000"/>
<path d="M 953.7 995.5 L 1168.1 993.1 L 924.7 999.1 z" fill="#ecf1f8" stroke="#C8C8DF"  opacity="1.000"/>
<path d="M 786.7 396.0 L 828.7 176.4 L 942.9 246.0 z" fill="#dee7f4" stroke="#C8C8DF"  opacity="1.000"/>
<path d="M 828.7 176.4 L 960.5 22.1 L 942.9 246.0 z" fill="#dde6f3" stroke="#C8C8DF"  opacity="1.000"/>
<path d="M 1151.8 66.1 L 1274.7 236.0 L 1093.8 175.4 z" fill="#dde6f3" stroke="#C8C8DF"  opacity="1.000"/>
<path d="M 1324.5 20.9 L 1258.4 2.2 L 1552.3 3.5 z" fill="#dbe5f2" stroke="#C8C8DF"  opacity="1.000"/>
<path d="M 1539.3 13.6 L 1324.5 20.9 L 1552.3 3.5 z" fill="#dae4f2" stroke="#C8C8DF"  opacity="1.000"/>
<path d="M 1.4 694.6 L 0.7 407.0 L 2.9 442.8 z" fill="#d9e4f2" stroke="#C8C8DF"  opacity="1.000"/>
<path d="M 387.0 840.1 L 186.6 773.2 L 299.3 557.3 z" fill="#dbe4f2" stroke="#C8C8DF"  opacity="1.000"/>
<path d="M 668.2 777.4 L 802.4 713.0 L 856.3 776.8 z" fill="#e5ecf6" stroke="#C8C8DF"  opacity="1.000"/>
<path d="M 802.4 713.0 L 668.2 777.4 L 747.4 617.6 z" fill="#e3eaf5" stroke="#C8C8DF"  opacity="1.000"/>
<path d="M 837.4 607.7 L 802.4 713.0 L 747.4 617.6 z" fill="#e3ebf5" stroke="#C8C8DF"  opacity="1.000"/>
<path d="M 233.0 1000.0 L 178.5 928.8 L 252.5 989.7 z" fill="#dbe5f2" stroke="#C8C8DF"  opacity="1.000"/>
<path d="M 575.6 867.0 L 387.0 840.1 L 573.7 801.5 z" fill="#d7e2f1" stroke="#C8C8DF"  opacity="1.000"/>
<path d="M 575.6 867.0 L 460.6 956.6 L 387.0 840.1 z" fill="#d4e0f0" stroke="#C8C8DF"  opacity="1.000"/>
<path d="M 575.6 867.0 L 572.4 996.0 L 563.7 996.9 z" fill="#dae4f2" stroke="#C8C8DF"  opacity="1.000"/>
<path d="M 668.2 777.4 L 575.6 867.0 L 573.7 801.5 z" fill="#dde6f3" stroke="#C8C8DF"  opacity="1.000"/>
<path d="M 307.0 1000.0 L 484.2 987.9 L 563.7 996.9 z" fill="#dae4f2" stroke="#C8C8DF"  opacity="1.000"/>
<path d="M 460.6 956.6 L 484.2 987.9 L 307.0 1000.0 z" fill="#dae4f2" stroke="#C8C8DF"  opacity="1.000"/>
<path d="M 484.2 987.9 L 575.6 867.0 L 563.7 996.9 z" fill="#d8e3f1" stroke="#C8C8DF"  opacity="1.000"/>
<path d="M 575.6 867.0 L 484.2 987.9 L 460.6 956.6 z" fill="#d5e1f0" stroke="#C8C8DF"  opacity="1.000"/>
<path d="M 1522.2 999.7 L 1169.8 992.9 L 1449.5 963.5 z" fill="#e1e9f4" stroke="#C8C8DF"  opacity="1.000"/>
<path d="M 1168.1 993.1 L 1169.8 992.9 L 1522.2 999.7 z" fill="#e3ebf5" stroke="#C8C8DF"  opacity="1.000"/>
<path d="M 1342.8 454.6 L 1195.9 544.3 L 1274.7 236.0 z" fill="#dee7f4" stroke="#C8C8DF"  opacity="1.000"/>
<path d="M 1274.7 236.0 L 1013.9 461.6 L 1093.8 175.4 z" fill="#dee7f4" stroke="#C8C8DF"  opacity="1.000"/>
<path d="M 1195.9 544.3 L 1013.9 461.6 L 1274.7 236.0 z" fill="#dfe8f4" stroke="#C8C8DF"  opacity="1.000"/>
<path d="M 1013.9 461.6 L 942.9 246.0 L 1093.8 175.4 z" fill="#dfe7f4" stroke="#C8C8DF"  opacity="1.000"/>
<path d="M 786.7 396.0 L 1013.9 461.6 L 914.8 540.8 z" fill="#e1e9f4" stroke="#C8C8DF"  opacity="1.000"/>
<path d="M 1013.9 461.6 L 786.7 396.0 L 942.9 246.0 z" fill="#dfe8f4" stroke="#C8C8DF"  opacity="1.000"/>
<path d="M 1306.7 684.2 L 1342.8 454.6 L 1457.6 504.1 z" fill="#dfe7f4" stroke="#C8C8DF"  opacity="1.000"/>
<path d="M 1342.8 454.6 L 1306.7 684.2 L 1195.9 544.3 z" fill="#e0e8f4" stroke="#C8C8DF"  opacity="1.000"/>
<path d="M 1306.7 684.2 L 1348.5 804.0 L 1195.2 783.5 z" fill="#e2eaf5" stroke="#C8C8DF"  opacity="1.000"/>
<path d="M 1539.3 13.6 L 1589.4 14.4 L 1526.6 90.3 z" fill="#d9e3f2" stroke="#C8C8DF"  opacity="1.000"/>
<path d="M 1589.4 14.4 L 1539.3 13.6 L 1552.3 3.5 z" fill="#d9e3f2" stroke="#C8C8DF"  opacity="1.000"/>
<path d="M 1589.4 14.4 L 1552.3 3.5 L 1920 0 z" fill="#d7e2f1" stroke="#C8C8DF"  opacity="1.000"/>
<path d="M 1832.8 24.0 L 1589.4 14.4 L 1920 0 z" fill="#d4e0f0" stroke="#C8C8DF"  opacity="1.000"/>
<path d="M 1919.4 15.1 L 1893.1 60.3 L 1910.5 12.5 z" fill="#d1deef" stroke="#C8C8DF"  opacity="1.000"/>
<path d="M 1913.3 2.6 L 1832.8 24.0 L 1920 0 z" fill="#d0ddef" stroke="#C8C8DF"  opacity="1.000"/>
<path d="M 1832.8 24.0 L 1913.3 2.6 L 1910.5 12.5 z" fill="#d1ddef" stroke="#C8C8DF"  opacity="1.000"/>
<path d="M 1919.4 15.1 L 1913.3 2.6 L 1920 0 z" fill="#d1ddef" stroke="#C8C8DF"  opacity="1.000"/>
<path d="M 1913.3 2.6 L 1919.4 15.1 L 1910.5 12.5 z" fill="#d0ddef" stroke="#C8C8DF"  opacity="1.000"/>
<path d="M 1448.2 715.2 L 1306.7 684.2 L 1457.6 504.1 z" fill="#dfe8f4" stroke="#C8C8DF"  opacity="1.000"/>
<path d="M 1306.7 684.2 L 1448.2 715.2 L 1348.5 804.0 z" fill="#e0e9f4" stroke="#C8C8DF"  opacity="1.000"/>
<path d="M 1448.2 715.2 L 1619.8 902.3 L 1449.5 963.5 z" fill="#dee7f3" stroke="#C8C8DF"  opacity="1.000"/>
<path d="M 1348.5 804.0 L 1448.2 715.2 L 1449.5 963.5 z" fill="#e0e8f4" stroke="#C8C8DF"  opacity="1.000"/>
<path d="M 1594.8 313.2 L 1633.9 489.9 L 1457.6 504.1 z" fill="#dbe5f3" stroke="#C8C8DF"  opacity="1.000"/>
<path d="M 1917.0 411.8 L 1913.6 669.9 L 1883.8 524.4 z" fill="#d9e3f2" stroke="#C8C8DF"  opacity="1.000"/>
<path d="M 1913.6 669.9 L 1917.0 411.8 L 1920 1000 z" fill="#d7e2f1" stroke="#C8C8DF"  opacity="1.000"/>
<path d="M 1917.0 411.8 L 1919.3 156.7 L 1920 1000 z" fill="#d9e3f2" stroke="#C8C8DF"  opacity="1.000"/>
<path d="M 1870.3 348.8 L 1770.3 447.8 L 1704.8 311.5 z" fill="#d9e3f2" stroke="#C8C8DF"  opacity="1.000"/>
<path d="M 1770.3 447.8 L 1917.0 411.8 L 1883.8 524.4 z" fill="#d9e3f2" stroke="#C8C8DF"  opacity="1.000"/>
<path d="M 1917.0 411.8 L 1770.3 447.8 L 1870.3 348.8 z" fill="#d9e3f2" stroke="#C8C8DF"  opacity="1.000"/>
<path d="M 882.0 553.5 L 786.7 396.0 L 914.8 540.8 z" fill="#e1e9f4" stroke="#C8C8DF"  opacity="1.000"/>
<path d="M 950.7 650.1 L 882.0 553.5 L 914.8 540.8 z" fill="#e3ebf5" stroke="#C8C8DF"  opacity="1.000"/>
<path d="M 882.0 553.5 L 950.7 650.1 L 837.4 607.7 z" fill="#e4ebf5" stroke="#C8C8DF"  opacity="1.000"/>
<path d="M 483.3 444.2 L 573.7 801.5 L 299.3 557.3 z" fill="#dce6f3" stroke="#C8C8DF"  opacity="1.000"/>
<path d="M 483.3 444.2 L 747.4 617.6 L 573.7 801.5 z" fill="#dee7f4" stroke="#C8C8DF"  opacity="1.000"/>
<path d="M 748.4 37.9 L 552.6 0.4 L 797.4 0.1 z" fill="#dce5f3" stroke="#C8C8DF"  opacity="1.000"/>
<path d="M 942.9 246.0 L 1064.5 65.6 L 1093.8 175.4 z" fill="#dde7f3" stroke="#C8C8DF"  opacity="1.000"/>
<path d="M 960.5 22.1 L 1064.5 65.6 L 942.9 246.0 z" fill="#dde6f3" stroke="#C8C8DF"  opacity="1.000"/>
<path d="M 1064.5 65.6 L 960.5 22.1 L 1072.6 0.9 z" fill="#dce6f3" stroke="#C8C8DF"  opacity="1.000"/>
<path d="M 1064.5 65.6 L 1151.8 66.1 L 1093.8 175.4 z" fill="#dde6f3" stroke="#C8C8DF"  opacity="1.000"/>
<path d="M 848.5 50.9 L 960.5 22.1 L 828.7 176.4 z" fill="#dde6f3" stroke="#C8C8DF"  opacity="1.000"/>
<path d="M 848.5 50.9 L 748.4 37.9 L 797.4 0.1 z" fill="#dce6f3" stroke="#C8C8DF"  opacity="1.000"/>
<path d="M 748.4 37.9 L 848.5 50.9 L 828.7 176.4 z" fill="#dde6f3" stroke="#C8C8DF"  opacity="1.000"/>
<path d="M 1105.3 35.9 L 1064.5 65.6 L 1072.6 0.9 z" fill="#dce6f3" stroke="#C8C8DF"  opacity="1.000"/>
<path d="M 1064.5 65.6 L 1105.3 35.9 L 1151.8 66.1 z" fill="#dce6f3" stroke="#C8C8DF"  opacity="1.000"/>
<path d="M 1151.8 66.1 L 1230.6 32.8 L 1274.7 236.0 z" fill="#dce6f3" stroke="#C8C8DF"  opacity="1.000"/>
<path d="M 1324.5 20.9 L 1230.6 32.8 L 1258.4 2.2 z" fill="#dce5f3" stroke="#C8C8DF"  opacity="1.000"/>
<path d="M 1105.3 35.9 L 1230.6 32.8 L 1151.8 66.1 z" fill="#dce6f3" stroke="#C8C8DF"  opacity="1.000"/>
<path d="M 1258.4 2.2 L 1230.6 32.8 L 1072.6 0.9 z" fill="#dce6f3" stroke="#C8C8DF"  opacity="1.000"/>
<path d="M 1230.6 32.8 L 1105.3 35.9 L 1072.6 0.9 z" fill="#dce6f3" stroke="#C8C8DF"  opacity="1.000"/>
<path d="M 76.7 435.3 L 15.3 404.5 L 107.6 390.3 z" fill="#d9e4f2" stroke="#C8C8DF"  opacity="1.000"/>
<path d="M 0.7 407.0 L 15.3 404.5 L 2.9 442.8 z" fill="#d9e4f2" stroke="#C8C8DF"  opacity="1.000"/>
<path d="M 765.4 999.8 L 856.3 776.8 L 924.7 999.1 z" fill="#f0f4fa" stroke="#C8C8DF"  opacity="1.000"/>
<path d="M 765.4 999.8 L 668.2 777.4 L 856.3 776.8 z" fill="#e7eef7" stroke="#C8C8DF"  opacity="1.000"/>
<path d="M 572.4 996.0 L 765.4 999.8 L 563.7 996.9 z" fill="#e0e8f4" stroke="#C8C8DF"  opacity="1.000"/>
<path d="M 765.4 999.8 L 575.6 867.0 L 668.2 777.4 z" fill="#e1e9f4" stroke="#C8C8DF"  opacity="1.000"/>
<path d="M 575.6 867.0 L 765.4 999.8 L 572.4 996.0 z" fill="#dfe8f4" stroke="#C8C8DF"  opacity="1.000"/>
<path d="M 765.4 999.8 L 307.0 1000.0 L 563.7 996.9 z" fill="#dce5f3" stroke="#C8C8DF"  opacity="1.000"/>
<path d="M 1522.2 999.7 L 765.4 999.8 L 924.7 999.1 z" fill="#eaf0f8" stroke="#C8C8DF"  opacity="1.000"/>
<path d="M 307.0 1000.0 L 765.4 999.8 L 1920 1000 z" fill="#edf2f9" stroke="#C8C8DF"  opacity="1.000"/>
<path d="M 765.4 999.8 L 1522.2 999.7 L 1920 1000 z" fill="#e1e9f4" stroke="#C8C8DF"  opacity="1.000"/>
<path d="M 381.2 845.0 L 186.6 773.2 L 387.0 840.1 z" fill="#dae4f2" stroke="#C8C8DF"  opacity="1.000"/>
<path d="M 460.6 956.6 L 381.2 845.0 L 387.0 840.1 z" fill="#d8e3f1" stroke="#C8C8DF"  opacity="1.000"/>
<path d="M 381.2 845.0 L 460.6 956.6 L 307.0 1000.0 z" fill="#dae4f2" stroke="#C8C8DF"  opacity="1.000"/>
<path d="M 186.6 773.2 L 239.5 899.4 L 154.1 895.1 z" fill="#d9e4f2" stroke="#C8C8DF"  opacity="1.000"/>
<path d="M 239.5 899.4 L 178.5 928.8 L 154.1 895.1 z" fill="#d9e4f2" stroke="#C8C8DF"  opacity="1.000"/>
<path d="M 381.2 845.0 L 239.5 899.4 L 186.6 773.2 z" fill="#dae4f2" stroke="#C8C8DF"  opacity="1.000"/>
<path d="M 178.5 928.8 L 239.5 899.4 L 252.5 989.7 z" fill="#dae4f2" stroke="#C8C8DF"  opacity="1.000"/>
<path d="M 239.5 899.4 L 307.0 1000.0 L 252.5 989.7 z" fill="#dbe5f2" stroke="#C8C8DF"  opacity="1.000"/>
<path d="M 239.5 899.4 L 381.2 845.0 L 307.0 1000.0 z" fill="#dbe4f2" stroke="#C8C8DF"  opacity="1.000"/>
<path d="M 167.0 954.3 L 178.5 928.8 L 233.0 1000.0 z" fill="#dae4f2" stroke="#C8C8DF"  opacity="1.000"/>
<path d="M 69.0 829.0 L 186.6 773.2 L 154.1 895.1 z" fill="#d8e3f1" stroke="#C8C8DF"  opacity="1.000"/>
<path d="M 186.6 773.2 L 69.0 829.0 L 56.9 786.8 z" fill="#d8e2f1" stroke="#C8C8DF"  opacity="1.000"/>
<path d="M 69.0 829.0 L 63.1 835.5 L 56.9 786.8 z" fill="#d6e1f1" stroke="#C8C8DF"  opacity="1.000"/>
<path d="M 1.4 694.6 L 0.0 914.1 L 0.7 407.0 z" fill="#d9e3f2" stroke="#C8C8DF"  opacity="1.000"/>
<path d="M 0.7 407.0 L 0.0 914.1 L 0 0 z" fill="#d9e4f2" stroke="#C8C8DF"  opacity="1.000"/>
<path d="M 77.6 894.4 L 69.0 829.0 L 154.1 895.1 z" fill="#d7e2f1" stroke="#C8C8DF"  opacity="1.000"/>
<path d="M 69.0 829.0 L 77.6 894.4 L 63.1 835.5 z" fill="#d6e1f1" stroke="#C8C8DF"  opacity="1.000"/>
<path d="M 332.2 10.3 L 227.6 2.3 L 552.6 0.4 z" fill="#d9e4f2" stroke="#C8C8DF"  opacity="1.000"/>
<path d="M 1313.3 908.7 L 1348.5 804.0 L 1449.5 963.5 z" fill="#e1e9f4" stroke="#C8C8DF"  opacity="1.000"/>
<path d="M 1169.8 992.9 L 1313.3 908.7 L 1449.5 963.5 z" fill="#e3eaf5" stroke="#C8C8DF"  opacity="1.000"/>
<path d="M 1348.5 804.0 L 1313.3 908.7 L 1195.2 783.5 z" fill="#e3eaf5" stroke="#C8C8DF"  opacity="1.000"/>
<path d="M 1883.7 812.8 L 1913.6 669.9 L 1920 1000 z" fill="#d4e0f0" stroke="#C8C8DF"  opacity="1.000"/>
<path d="M 1210.8 668.1 L 1306.7 684.2 L 1195.2 783.5 z" fill="#e3eaf5" stroke="#C8C8DF"  opacity="1.000"/>
<path d="M 1306.7 684.2 L 1210.8 668.1 L 1195.9 544.3 z" fill="#e2eaf5" stroke="#C8C8DF"  opacity="1.000"/>
<path d="M 1140.0 800.5 L 1210.8 668.1 L 1195.2 783.5 z" fill="#e5ecf6" stroke="#C8C8DF"  opacity="1.000"/>
<path d="M 905.5 708.5 L 1140.0 800.5 L 856.3 776.8 z" fill="#ebf0f8" stroke="#C8C8DF"  opacity="1.000"/>
<path d="M 1140.0 800.5 L 905.5 708.5 L 950.7 650.1 z" fill="#e8eef7" stroke="#C8C8DF"  opacity="1.000"/>
<path d="M 802.4 713.0 L 905.5 708.5 L 856.3 776.8 z" fill="#e8eef7" stroke="#C8C8DF"  opacity="1.000"/>
<path d="M 950.7 650.1 L 905.5 708.5 L 837.4 607.7 z" fill="#e5ecf6" stroke="#C8C8DF"  opacity="1.000"/>
<path d="M 905.5 708.5 L 802.4 713.0 L 837.4 607.7 z" fill="#e5ecf6" stroke="#C8C8DF"  opacity="1.000"/>
<path d="M 953.7 995.5 L 987.4 977.9 L 1168.1 993.1 z" fill="#ecf1f8" stroke="#C8C8DF"  opacity="1.000"/>
<path d="M 1140.0 800.5 L 987.4 977.9 L 856.3 776.8 z" fill="#f0f4f9" stroke="#C8C8DF"  opacity="1.000"/>
<path d="M 856.3 776.8 L 987.4 977.9 L 924.7 999.1 z" fill="#fafbfd" stroke="#C8C8DF"  opacity="1.000"/>
<path d="M 987.4 977.9 L 953.7 995.5 L 924.7 999.1 z" fill="#eff3f9" stroke="#C8C8DF"  opacity="1.000"/>
<path d="M 1920.0 94.2 L 1893.1 60.3 L 1919.4 15.1 z" fill="#d2dfef" stroke="#C8C8DF"  opacity="1.000"/>
<path d="M 1920.0 94.2 L 1919.4 15.1 L 1920 0 z" fill="#d2deef" stroke="#C8C8DF"  opacity="1.000"/>
<path d="M 1919.3 156.7 L 1920.0 94.2 L 1920 1000 z" fill="#d9e3f2" stroke="#C8C8DF"  opacity="1.000"/>
<path d="M 1862.2 58.3 L 1832.8 24.0 L 1910.5 12.5 z" fill="#d2deef" stroke="#C8C8DF"  opacity="1.000"/>
<path d="M 1893.1 60.3 L 1862.2 58.3 L 1910.5 12.5 z" fill="#d2deef" stroke="#C8C8DF"  opacity="1.000"/>
<path d="M 1230.6 32.8 L 1349.1 131.8 L 1274.7 236.0 z" fill="#dce6f3" stroke="#C8C8DF"  opacity="1.000"/>
<path d="M 1349.1 131.8 L 1230.6 32.8 L 1324.5 20.9 z" fill="#dce5f3" stroke="#C8C8DF"  opacity="1.000"/>
<path d="M 1594.8 313.2 L 1434.2 220.8 L 1553.8 236.1 z" fill="#dbe5f2" stroke="#C8C8DF"  opacity="1.000"/>
<path d="M 1434.2 220.8 L 1489.9 160.0 L 1553.8 236.1 z" fill="#dbe5f2" stroke="#C8C8DF"  opacity="1.000"/>
<path d="M 1489.9 160.0 L 1434.2 220.8 L 1439.1 165.1 z" fill="#dbe5f2" stroke="#C8C8DF"  opacity="1.000"/>
<path d="M 1349.1 131.8 L 1434.2 220.8 L 1274.7 236.0 z" fill="#dce6f3" stroke="#C8C8DF"  opacity="1.000"/>
<path d="M 1434.2 220.8 L 1349.1 131.8 L 1439.1 165.1 z" fill="#dbe5f3" stroke="#C8C8DF"  opacity="1.000"/>
<path d="M 1659.4 397.9 L 1594.8 313.2 L 1704.8 311.5 z" fill="#dae4f2" stroke="#C8C8DF"  opacity="1.000"/>
<path d="M 1594.8 313.2 L 1659.4 397.9 L 1633.9 489.9 z" fill="#dbe4f2" stroke="#C8C8DF"  opacity="1.000"/>
<path d="M 1770.3 447.8 L 1659.4 397.9 L 1704.8 311.5 z" fill="#dae4f2" stroke="#C8C8DF"  opacity="1.000"/>
<path d="M 1659.4 397.9 L 1770.3 447.8 L 1633.9 489.9 z" fill="#dae4f2" stroke="#C8C8DF"  opacity="1.000"/>
<path d="M 1891.8 312.2 L 1917.0 411.8 L 1870.3 348.8 z" fill="#d8e3f1" stroke="#C8C8DF"  opacity="1.000"/>
<path d="M 1728.5 234.5 L 1662.6 137.7 L 1797.2 98.3 z" fill="#d7e2f1" stroke="#C8C8DF"  opacity="1.000"/>
<path d="M 1728.5 234.5 L 1870.3 348.8 L 1704.8 311.5 z" fill="#d8e3f2" stroke="#C8C8DF"  opacity="1.000"/>
<path d="M 1728.5 234.5 L 1891.8 312.2 L 1870.3 348.8 z" fill="#d8e3f1" stroke="#C8C8DF"  opacity="1.000"/>
<path d="M 1594.8 313.2 L 1728.5 234.5 L 1704.8 311.5 z" fill="#d9e4f2" stroke="#C8C8DF"  opacity="1.000"/>
<path d="M 882.0 553.5 L 723.2 436.4 L 786.7 396.0 z" fill="#e0e8f4" stroke="#C8C8DF"  opacity="1.000"/>
<path d="M 483.3 444.2 L 723.2 436.4 L 747.4 617.6 z" fill="#dfe8f4" stroke="#C8C8DF"  opacity="1.000"/>
<path d="M 723.2 436.4 L 837.4 607.7 L 747.4 617.6 z" fill="#e1e9f4" stroke="#C8C8DF"  opacity="1.000"/>
<path d="M 723.2 436.4 L 882.0 553.5 L 837.4 607.7 z" fill="#e1e9f5" stroke="#C8C8DF"  opacity="1.000"/>
<path d="M 367.9 345.0 L 483.3 444.2 L 299.3 557.3 z" fill="#dce5f3" stroke="#C8C8DF"  opacity="1.000"/>
<path d="M 906.7 12.2 L 848.5 50.9 L 797.4 0.1 z" fill="#dce6f3" stroke="#C8C8DF"  opacity="1.000"/>
<path d="M 848.5 50.9 L 906.7 12.2 L 960.5 22.1 z" fill="#dde6f3" stroke="#C8C8DF"  opacity="1.000"/>
<path d="M 906.7 12.2 L 797.4 0.1 L 1072.6 0.9 z" fill="#dce6f3" stroke="#C8C8DF"  opacity="1.000"/>
<path d="M 960.5 22.1 L 906.7 12.2 L 1072.6 0.9 z" fill="#dce6f3" stroke="#C8C8DF"  opacity="1.000"/>
<path d="M 0.7 151.5 L 0.7 407.0 L 0 0 z" fill="#d7e2f1" stroke="#C8C8DF"  opacity="1.000"/>
<path d="M 45.8 465.9 L 54.4 485.7 L 2.9 442.8 z" fill="#d9e4f2" stroke="#C8C8DF"  opacity="1.000"/>
<path d="M 54.4 485.7 L 45.8 465.9 L 76.7 435.3 z" fill="#dae4f2" stroke="#C8C8DF"  opacity="1.000"/>
<path d="M 15.3 404.5 L 45.8 465.9 L 2.9 442.8 z" fill="#d9e4f2" stroke="#C8C8DF"  opacity="1.000"/>
<path d="M 45.8 465.9 L 15.3 404.5 L 76.7 435.3 z" fill="#d9e4f2" stroke="#C8C8DF"  opacity="1.000"/>
<path d="M 1.4 694.6 L 47.3 607.2 L 83.9 646.5 z" fill="#d9e3f2" stroke="#C8C8DF"  opacity="1.000"/>
<path d="M 47.3 607.2 L 1.4 694.6 L 2.9 442.8 z" fill="#d9e4f2" stroke="#C8C8DF"  opacity="1.000"/>
<path d="M 54.4 485.7 L 47.3 607.2 L 2.9 442.8 z" fill="#dae4f2" stroke="#C8C8DF"  opacity="1.000"/>
<path d="M 149.3 505.6 L 54.4 485.7 L 76.7 435.3 z" fill="#dae4f2" stroke="#C8C8DF"  opacity="1.000"/>
<path d="M 149.3 505.6 L 76.7 435.3 L 107.6 390.3 z" fill="#dae4f2" stroke="#C8C8DF"  opacity="1.000"/>
<path d="M 198.9 414.0 L 149.3 505.6 L 107.6 390.3 z" fill="#dae4f2" stroke="#C8C8DF"  opacity="1.000"/>
<path d="M 149.3 505.6 L 47.3 607.2 L 54.4 485.7 z" fill="#dae4f2" stroke="#C8C8DF"  opacity="1.000"/>
<path d="M 186.6 773.2 L 166.1 731.0 L 299.3 557.3 z" fill="#dae4f2" stroke="#C8C8DF"  opacity="1.000"/>
<path d="M 166.1 731.0 L 159.2 696.1 L 299.3 557.3 z" fill="#dae4f2" stroke="#C8C8DF"  opacity="1.000"/>
<path d="M 166.1 731.0 L 186.6 773.2 L 56.9 786.8 z" fill="#d9e3f2" stroke="#C8C8DF"  opacity="1.000"/>
<path d="M 132.6 999.8 L 153.1 998.1 L 233.0 1000.0 z" fill="#dae4f2" stroke="#C8C8DF"  opacity="1.000"/>
<path d="M 153.1 998.1 L 167.0 954.3 L 233.0 1000.0 z" fill="#dae4f2" stroke="#C8C8DF"  opacity="1.000"/>
<path d="M 167.0 954.3 L 153.1 998.1 L 132.6 999.8 z" fill="#dae4f2" stroke="#C8C8DF"  opacity="1.000"/>
<path d="M 144.8 934.7 L 77.6 894.4 L 154.1 895.1 z" fill="#d8e2f1" stroke="#C8C8DF"  opacity="1.000"/>
<path d="M 77.6 894.4 L 144.8 934.7 L 68.8 934.2 z" fill="#d7e2f1" stroke="#C8C8DF"  opacity="1.000"/>
<path d="M 178.5 928.8 L 144.8 934.7 L 154.1 895.1 z" fill="#d9e3f2" stroke="#C8C8DF"  opacity="1.000"/>
<path d="M 167.0 954.3 L 144.8 934.7 L 178.5 928.8 z" fill="#d9e3f2" stroke="#C8C8DF"  opacity="1.000"/>
<path d="M 144.8 934.7 L 167.0 954.3 L 132.6 999.8 z" fill="#d9e3f2" stroke="#C8C8DF"  opacity="1.000"/>
<path d="M 34.3 999.3 L 132.6 999.8 L 0 1000 z" fill="#d7e2f1" stroke="#C8C8DF"  opacity="1.000"/>
<path d="M 54.0 987.0 L 99.7 967.1 L 132.6 999.8 z" fill="#d8e3f1" stroke="#C8C8DF"  opacity="1.000"/>
<path d="M 99.7 967.1 L 144.8 934.7 L 132.6 999.8 z" fill="#d9e3f2" stroke="#C8C8DF"  opacity="1.000"/>
<path d="M 77.6 894.4 L 8.3 863.5 L 63.1 835.5 z" fill="#d4e0f0" stroke="#C8C8DF"  opacity="1.000"/>
<path d="M 63.1 835.5 L 8.3 863.5 L 56.9 786.8 z" fill="#d5e1f1" stroke="#C8C8DF"  opacity="1.000"/>
<path d="M 8.3 863.5 L 1.4 694.6 L 56.9 786.8 z" fill="#d7e2f1" stroke="#C8C8DF"  opacity="1.000"/>
<path d="M 8.3 863.5 L 0.0 914.1 L 1.4 694.6 z" fill="#d5e0f0" stroke="#C8C8DF"  opacity="1.000"/>
<path d="M 48.3 926.3 L 77.6 894.4 L 68.8 934.2 z" fill="#d5e0f0" stroke="#C8C8DF"  opacity="1.000"/>
<path d="M 54.0 987.0 L 48.3 926.3 L 68.8 934.2 z" fill="#d5e1f1" stroke="#C8C8DF"  opacity="1.000"/>
<path d="M 8.3 863.5 L 48.3 926.3 L 0.0 914.1 z" fill="#d1deef" stroke="#C8C8DF"  opacity="1.000"/>
<path d="M 48.3 926.3 L 8.3 863.5 L 77.6 894.4 z" fill="#d3dff0" stroke="#C8C8DF"  opacity="1.000"/>
<path d="M 332.2 10.3 L 505.5 10.9 L 394.9 73.1 z" fill="#dae4f2" stroke="#C8C8DF"  opacity="1.000"/>
<path d="M 505.5 10.9 L 332.2 10.3 L 552.6 0.4 z" fill="#dae4f2" stroke="#C8C8DF"  opacity="1.000"/>
<path d="M 332.2 10.3 L 270.9 40.3 L 227.6 2.3 z" fill="#d8e3f1" stroke="#C8C8DF"  opacity="1.000"/>
<path d="M 180.0 134.1 L 270.9 40.3 L 394.9 73.1 z" fill="#d9e3f2" stroke="#C8C8DF"  opacity="1.000"/>
<path d="M 270.9 40.3 L 332.2 10.3 L 394.9 73.1 z" fill="#d9e3f2" stroke="#C8C8DF"  opacity="1.000"/>
<path d="M 552.6 0.4 L 77.7 0.3 L 0 0 z" fill="#d7e2f1" stroke="#C8C8DF"  opacity="1.000"/>
<path d="M 227.6 2.3 L 77.7 0.3 L 552.6 0.4 z" fill="#d8e3f2" stroke="#C8C8DF"  opacity="1.000"/>
<path d="M 129.5 38.9 L 151.3 40.4 L 180.0 134.1 z" fill="#d6e1f1" stroke="#C8C8DF"  opacity="1.000"/>
<path d="M 151.3 40.4 L 77.7 0.3 L 227.6 2.3 z" fill="#d6e1f1" stroke="#C8C8DF"  opacity="1.000"/>
<path d="M 77.7 0.3 L 151.3 40.4 L 129.5 38.9 z" fill="#d5e0f0" stroke="#C8C8DF"  opacity="1.000"/>
<path d="M 1313.3 908.7 L 1151.6 855.1 L 1195.2 783.5 z" fill="#e5ecf6" stroke="#C8C8DF"  opacity="1.000"/>
<path d="M 1151.6 855.1 L 1313.3 908.7 L 1169.8 992.9 z" fill="#e5ecf6" stroke="#C8C8DF"  opacity="1.000"/>
<path d="M 1151.6 855.1 L 1140.0 800.5 L 1195.2 783.5 z" fill="#e6edf6" stroke="#C8C8DF"  opacity="1.000"/>
<path d="M 1151.6 855.1 L 1169.8 992.9 L 1168.1 993.1 z" fill="#e7edf6" stroke="#C8C8DF"  opacity="1.000"/>
<path d="M 987.4 977.9 L 1151.6 855.1 L 1168.1 993.1 z" fill="#e9eff7" stroke="#C8C8DF"  opacity="1.000"/>
<path d="M 1151.6 855.1 L 987.4 977.9 L 1140.0 800.5 z" fill="#eaf0f7" stroke="#C8C8DF"  opacity="1.000"/>
<path d="M 1906.5 966.6 L 1883.7 812.8 L 1920 1000 z" fill="#d1deef" stroke="#C8C8DF"  opacity="1.000"/>
<path d="M 1906.5 966.6 L 1883.4 902.9 L 1883.7 812.8 z" fill="#d0ddef" stroke="#C8C8DF"  opacity="1.000"/>
<path d="M 1883.4 902.9 L 1906.5 966.6 L 1885.3 969.3 z" fill="#d3dff0" stroke="#C8C8DF"  opacity="1.000"/>
<path d="M 1581.3 962.5 L 1522.2 999.7 L 1449.5 963.5 z" fill="#dee7f3" stroke="#C8C8DF"  opacity="1.000"/>
<path d="M 1639.4 702.4 L 1701.1 846.4 L 1619.8 902.3 z" fill="#dae4f2" stroke="#C8C8DF"  opacity="1.000"/>
<path d="M 1448.2 715.2 L 1513.3 693.4 L 1619.8 902.3 z" fill="#dde6f3" stroke="#C8C8DF"  opacity="1.000"/>
<path d="M 1513.3 693.4 L 1639.4 702.4 L 1619.8 902.3 z" fill="#dce5f3" stroke="#C8C8DF"  opacity="1.000"/>
<path d="M 1101.4 595.6 L 1140.0 800.5 L 950.7 650.1 z" fill="#e6ecf6" stroke="#C8C8DF"  opacity="1.000"/>
<path d="M 1101.4 595.6 L 1210.8 668.1 L 1140.0 800.5 z" fill="#e4ebf6" stroke="#C8C8DF"  opacity="1.000"/>
<path d="M 1210.8 668.1 L 1101.4 595.6 L 1195.9 544.3 z" fill="#e2eaf5" stroke="#C8C8DF"  opacity="1.000"/>
<path d="M 1589.4 14.4 L 1638.7 108.9 L 1526.6 90.3 z" fill="#d9e3f2" stroke="#C8C8DF"  opacity="1.000"/>
<path d="M 1820.6 95.9 L 1797.2 98.3 L 1832.8 24.0 z" fill="#d4e0f0" stroke="#C8C8DF"  opacity="1.000"/>
<path d="M 1862.2 58.3 L 1820.6 95.9 L 1832.8 24.0 z" fill="#d3dff0" stroke="#C8C8DF"  opacity="1.000"/>
<path d="M 1920.0 94.2 L 1870.3 136.0 L 1893.1 60.3 z" fill="#d4e0f0" stroke="#C8C8DF"  opacity="1.000"/>
<path d="M 1870.3 136.0 L 1862.2 58.3 L 1893.1 60.3 z" fill="#d3dff0" stroke="#C8C8DF"  opacity="1.000"/>
<path d="M 1870.3 136.0 L 1820.6 95.9 L 1862.2 58.3 z" fill="#d4e0f0" stroke="#C8C8DF"  opacity="1.000"/>
<path d="M 1893.5 181.7 L 1870.3 136.0 L 1919.3 156.7 z" fill="#d5e1f1" stroke="#C8C8DF"  opacity="1.000"/>
<path d="M 1489.9 160.0 L 1451.6 139.9 L 1526.6 90.3 z" fill="#dae4f2" stroke="#C8C8DF"  opacity="1.000"/>
<path d="M 1451.6 139.9 L 1489.9 160.0 L 1439.1 165.1 z" fill="#dbe5f2" stroke="#C8C8DF"  opacity="1.000"/>
<path d="M 1349.1 131.8 L 1451.6 139.9 L 1439.1 165.1 z" fill="#dbe5f2" stroke="#C8C8DF"  opacity="1.000"/>
<path d="M 1451.6 139.9 L 1349.1 131.8 L 1324.5 20.9 z" fill="#dbe5f2" stroke="#C8C8DF"  opacity="1.000"/>
<path d="M 1451.6 139.9 L 1539.3 13.6 L 1526.6 90.3 z" fill="#dae4f2" stroke="#C8C8DF"  opacity="1.000"/>
<path d="M 1451.6 139.9 L 1324.5 20.9 L 1539.3 13.6 z" fill="#dae4f2" stroke="#C8C8DF"  opacity="1.000"/>
<path d="M 1378.2 449.5 L 1594.8 313.2 L 1457.6 504.1 z" fill="#dce6f3" stroke="#C8C8DF"  opacity="1.000"/>
<path d="M 1378.2 449.5 L 1434.2 220.8 L 1594.8 313.2 z" fill="#dce5f3" stroke="#C8C8DF"  opacity="1.000"/>
<path d="M 1342.8 454.6 L 1378.2 449.5 L 1457.6 504.1 z" fill="#dee7f3" stroke="#C8C8DF"  opacity="1.000"/>
<path d="M 1378.2 449.5 L 1342.8 454.6 L 1274.7 236.0 z" fill="#dee7f3" stroke="#C8C8DF"  opacity="1.000"/>
<path d="M 1434.2 220.8 L 1378.2 449.5 L 1274.7 236.0 z" fill="#dde6f3" stroke="#C8C8DF"  opacity="1.000"/>
<path d="M 1905.0 289.4 L 1893.5 181.7 L 1919.3 156.7 z" fill="#d6e1f1" stroke="#C8C8DF"  opacity="1.000"/>
<path d="M 1917.0 411.8 L 1905.0 289.4 L 1919.3 156.7 z" fill="#d8e2f1" stroke="#C8C8DF"  opacity="1.000"/>
<path d="M 1891.8 312.2 L 1905.0 289.4 L 1917.0 411.8 z" fill="#d8e3f1" stroke="#C8C8DF"  opacity="1.000"/>
<path d="M 1728.5 234.5 L 1589.2 186.4 L 1662.6 137.7 z" fill="#d9e3f2" stroke="#C8C8DF"  opacity="1.000"/>
<path d="M 1589.2 186.4 L 1638.7 108.9 L 1662.6 137.7 z" fill="#d9e3f2" stroke="#C8C8DF"  opacity="1.000"/>
<path d="M 1589.2 186.4 L 1594.8 313.2 L 1553.8 236.1 z" fill="#dae4f2" stroke="#C8C8DF"  opacity="1.000"/>
<path d="M 1589.2 186.4 L 1728.5 234.5 L 1594.8 313.2 z" fill="#d9e4f2" stroke="#C8C8DF"  opacity="1.000"/>
<path d="M 1638.7 108.9 L 1589.2 186.4 L 1526.6 90.3 z" fill="#d9e3f2" stroke="#C8C8DF"  opacity="1.000"/>
<path d="M 1589.2 186.4 L 1489.9 160.0 L 1526.6 90.3 z" fill="#dae4f2" stroke="#C8C8DF"  opacity="1.000"/>
<path d="M 1489.9 160.0 L 1589.2 186.4 L 1553.8 236.1 z" fill="#dae4f2" stroke="#C8C8DF"  opacity="1.000"/>
<path d="M 666.8 142.2 L 828.7 176.4 L 786.7 396.0 z" fill="#dee7f3" stroke="#C8C8DF"  opacity="1.000"/>
<path d="M 748.4 37.9 L 666.8 142.2 L 552.6 0.4 z" fill="#dce5f3" stroke="#C8C8DF"  opacity="1.000"/>
<path d="M 666.8 142.2 L 748.4 37.9 L 828.7 176.4 z" fill="#dde6f3" stroke="#C8C8DF"  opacity="1.000"/>
<path d="M 666.8 142.2 L 505.5 10.9 L 552.6 0.4 z" fill="#dbe5f3" stroke="#C8C8DF"  opacity="1.000"/>
<path d="M 505.5 10.9 L 666.8 142.2 L 394.9 73.1 z" fill="#dbe5f2" stroke="#C8C8DF"  opacity="1.000"/>
<path d="M 77.8 75.6 L 129.5 38.9 L 180.0 134.1 z" fill="#d6e1f1" stroke="#C8C8DF"  opacity="1.000"/>
<path d="M 1.2 288.7 L 15.3 404.5 L 0.7 407.0 z" fill="#d9e3f2" stroke="#C8C8DF"  opacity="1.000"/>
<path d="M 0.7 151.5 L 1.2 288.7 L 0.7 407.0 z" fill="#d8e3f1" stroke="#C8C8DF"  opacity="1.000"/>
<path d="M 242.0 534.5 L 367.9 345.0 L 299.3 557.3 z" fill="#dbe5f2" stroke="#C8C8DF"  opacity="1.000"/>
<path d="M 367.9 345.0 L 242.0 534.5 L 198.9 414.0 z" fill="#dbe5f2" stroke="#C8C8DF"  opacity="1.000"/>
<path d="M 159.2 696.1 L 242.0 534.5 L 299.3 557.3 z" fill="#dbe4f2" stroke="#C8C8DF"  opacity="1.000"/>
<path d="M 1.4 694.6 L 107.7 659.6 L 56.9 786.8 z" fill="#d8e3f2" stroke="#C8C8DF"  opacity="1.000"/>
<path d="M 107.7 659.6 L 1.4 694.6 L 83.9 646.5 z" fill="#d9e3f2" stroke="#C8C8DF"  opacity="1.000"/>
<path d="M 107.7 659.6 L 166.1 731.0 L 56.9 786.8 z" fill="#d9e3f2" stroke="#C8C8DF"  opacity="1.000"/>
<path d="M 166.1 731.0 L 107.7 659.6 L 159.2 696.1 z" fill="#d9e4f2" stroke="#C8C8DF"  opacity="1.000"/>
<path d="M 47.3 607.2 L 160.6 521.7 L 83.9 646.5 z" fill="#dae4f2" stroke="#C8C8DF"  opacity="1.000"/>
<path d="M 149.3 505.6 L 160.6 521.7 L 47.3 607.2 z" fill="#dae4f2" stroke="#C8C8DF"  opacity="1.000"/>
<path d="M 160.6 521.7 L 107.7 659.6 L 83.9 646.5 z" fill="#dae4f2" stroke="#C8C8DF"  opacity="1.000"/>
<path d="M 160.6 521.7 L 149.3 505.6 L 198.9 414.0 z" fill="#dae4f2" stroke="#C8C8DF"  opacity="1.000"/>
<path d="M 242.0 534.5 L 160.6 521.7 L 198.9 414.0 z" fill="#dae4f2" stroke="#C8C8DF"  opacity="1.000"/>
<path d="M 160.6 521.7 L 242.0 534.5 L 159.2 696.1 z" fill="#dae4f2" stroke="#C8C8DF"  opacity="1.000"/>
<path d="M 107.7 659.6 L 160.6 521.7 L 159.2 696.1 z" fill="#dae4f2" stroke="#C8C8DF"  opacity="1.000"/>
<path d="M 45.6 996.6 L 54.0 987.0 L 132.6 999.8 z" fill="#d8e3f1" stroke="#C8C8DF"  opacity="1.000"/>
<path d="M 34.3 999.3 L 45.6 996.6 L 132.6 999.8 z" fill="#d8e2f1" stroke="#C8C8DF"  opacity="1.000"/>
<path d="M 45.6 996.6 L 34.3 999.3 L 54.0 987.0 z" fill="#d7e2f1" stroke="#C8C8DF"  opacity="1.000"/>
<path d="M 85.3 956.6 L 54.0 987.0 L 68.8 934.2 z" fill="#d6e1f1" stroke="#C8C8DF"  opacity="1.000"/>
<path d="M 85.3 956.6 L 99.7 967.1 L 54.0 987.0 z" fill="#d7e2f1" stroke="#C8C8DF"  opacity="1.000"/>
<path d="M 144.8 934.7 L 85.3 956.6 L 68.8 934.2 z" fill="#d7e2f1" stroke="#C8C8DF"  opacity="1.000"/>
<path d="M 99.7 967.1 L 85.3 956.6 L 144.8 934.7 z" fill="#d8e2f1" stroke="#C8C8DF"  opacity="1.000"/>
<path d="M 34.3 999.3 L 0.8 991.6 L 54.0 987.0 z" fill="#d7e2f1" stroke="#C8C8DF"  opacity="1.000"/>
<path d="M 0.8 991.6 L 48.3 926.3 L 54.0 987.0 z" fill="#d6e1f1" stroke="#C8C8DF"  opacity="1.000"/>
<path d="M 0.8 991.6 L 34.3 999.3 L 0 1000 z" fill="#d7e2f1" stroke="#C8C8DF"  opacity="1.000"/>
<path d="M 0.0 914.1 L 0.8 991.6 L 0 1000 z" fill="#d5e0f0" stroke="#C8C8DF"  opacity="1.000"/>
<path d="M 48.3 926.3 L 0.8 991.6 L 0.0 914.1 z" fill="#d4e0f0" stroke="#C8C8DF"  opacity="1.000"/>
<path d="M 270.9 40.3 L 187.9 49.2 L 227.6 2.3 z" fill="#d7e2f1" stroke="#C8C8DF"  opacity="1.000"/>
<path d="M 187.9 49.2 L 151.3 40.4 L 227.6 2.3 z" fill="#d7e2f1" stroke="#C8C8DF"  opacity="1.000"/>
<path d="M 187.9 49.2 L 270.9 40.3 L 180.0 134.1 z" fill="#d7e2f1" stroke="#C8C8DF"  opacity="1.000"/>
<path d="M 151.3 40.4 L 187.9 49.2 L 180.0 134.1 z" fill="#d7e2f1" stroke="#C8C8DF"  opacity="1.000"/>
<path d="M 1885.3 969.3 L 1913.1 984.5 L 1920 1000 z" fill="#d4e0f0" stroke="#C8C8DF"  opacity="1.000"/>
<path d="M 1913.1 984.5 L 1906.5 966.6 L 1920 1000 z" fill="#d4e0f0" stroke="#C8C8DF"  opacity="1.000"/>
<path d="M 1906.5 966.6 L 1913.1 984.5 L 1885.3 969.3 z" fill="#d4e0f0" stroke="#C8C8DF"  opacity="1.000"/>
<path d="M 1674.2 994.9 L 1622.9 987.5 L 1619.8 902.3 z" fill="#dbe5f2" stroke="#C8C8DF"  opacity="1.000"/>
<path d="M 1622.9 987.5 L 1674.2 994.9 L 1522.2 999.7 z" fill="#dce6f3" stroke="#C8C8DF"  opacity="1.000"/>
<path d="M 1581.3 962.5 L 1622.9 987.5 L 1522.2 999.7 z" fill="#dde6f3" stroke="#C8C8DF"  opacity="1.000"/>
<path d="M 1736.2 994.5 L 1674.2 994.9 L 1760.7 893.4 z" fill="#d9e3f2" stroke="#C8C8DF"  opacity="1.000"/>
<path d="M 1767.4 981.8 L 1736.2 994.5 L 1760.7 893.4 z" fill="#d8e2f1" stroke="#C8C8DF"  opacity="1.000"/>
<path d="M 1814.9 999.7 L 1736.2 994.5 L 1767.4 981.8 z" fill="#d8e2f1" stroke="#C8C8DF"  opacity="1.000"/>
<path d="M 1736.2 994.5 L 1814.9 999.7 L 1674.2 994.9 z" fill="#d8e3f2" stroke="#C8C8DF"  opacity="1.000"/>
<path d="M 1674.2 994.9 L 1814.9 999.7 L 1522.2 999.7 z" fill="#dae4f2" stroke="#C8C8DF"  opacity="1.000"/>
<path d="M 1701.1 846.4 L 1726.4 864.9 L 1619.8 902.3 z" fill="#d9e4f2" stroke="#C8C8DF"  opacity="1.000"/>
<path d="M 1726.4 864.9 L 1674.2 994.9 L 1619.8 902.3 z" fill="#dae4f2" stroke="#C8C8DF"  opacity="1.000"/>
<path d="M 1674.2 994.9 L 1726.4 864.9 L 1760.7 893.4 z" fill="#d8e3f2" stroke="#C8C8DF"  opacity="1.000"/>
<path d="M 1723.7 733.4 L 1701.1 846.4 L 1639.4 702.4 z" fill="#dae4f2" stroke="#C8C8DF"  opacity="1.000"/>
<path d="M 1723.7 733.4 L 1726.4 864.9 L 1701.1 846.4 z" fill="#d9e3f2" stroke="#C8C8DF"  opacity="1.000"/>
<path d="M 1913.6 669.9 L 1723.7 733.4 L 1883.8 524.4 z" fill="#d8e3f2" stroke="#C8C8DF"  opacity="1.000"/>
<path d="M 1723.7 733.4 L 1770.3 447.8 L 1883.8 524.4 z" fill="#d9e4f2" stroke="#C8C8DF"  opacity="1.000"/>
<path d="M 1770.3 447.8 L 1723.7 733.4 L 1633.9 489.9 z" fill="#dae4f2" stroke="#C8C8DF"  opacity="1.000"/>
<path d="M 1723.7 733.4 L 1639.4 702.4 L 1633.9 489.9 z" fill="#dbe5f2" stroke="#C8C8DF"  opacity="1.000"/>
<path d="M 1500.5 683.5 L 1448.2 715.2 L 1457.6 504.1 z" fill="#dee7f3" stroke="#C8C8DF"  opacity="1.000"/>
<path d="M 1500.5 683.5 L 1513.3 693.4 L 1448.2 715.2 z" fill="#dee7f3" stroke="#C8C8DF"  opacity="1.000"/>
<path d="M 1513.3 693.4 L 1562.6 677.9 L 1639.4 702.4 z" fill="#dce6f3" stroke="#C8C8DF"  opacity="1.000"/>
<path d="M 1500.5 683.5 L 1562.6 677.9 L 1513.3 693.4 z" fill="#dde6f3" stroke="#C8C8DF"  opacity="1.000"/>
<path d="M 1098.2 590.6 L 950.7 650.1 L 914.8 540.8 z" fill="#e4ebf5" stroke="#C8C8DF"  opacity="1.000"/>
<path d="M 1098.2 590.6 L 1101.4 595.6 L 950.7 650.1 z" fill="#e4ebf5" stroke="#C8C8DF"  opacity="1.000"/>
<path d="M 1013.9 461.6 L 1098.2 590.6 L 914.8 540.8 z" fill="#e2eaf5" stroke="#C8C8DF"  opacity="1.000"/>
<path d="M 1098.2 590.6 L 1013.9 461.6 L 1195.9 544.3 z" fill="#e2eaf5" stroke="#C8C8DF"  opacity="1.000"/>
<path d="M 1101.4 595.6 L 1098.2 590.6 L 1195.9 544.3 z" fill="#e2eaf5" stroke="#C8C8DF"  opacity="1.000"/>
<path d="M 1662.6 137.7 L 1689.9 87.0 L 1797.2 98.3 z" fill="#d7e2f1" stroke="#C8C8DF"  opacity="1.000"/>
<path d="M 1638.7 108.9 L 1689.9 87.0 L 1662.6 137.7 z" fill="#d8e2f1" stroke="#C8C8DF"  opacity="1.000"/>
<path d="M 1797.2 98.3 L 1689.9 87.0 L 1832.8 24.0 z" fill="#d5e1f0" stroke="#C8C8DF"  opacity="1.000"/>
<path d="M 1689.9 87.0 L 1589.4 14.4 L 1832.8 24.0 z" fill="#d7e2f1" stroke="#C8C8DF"  opacity="1.000"/>
<path d="M 1689.9 87.0 L 1638.7 108.9 L 1589.4 14.4 z" fill="#d8e3f1" stroke="#C8C8DF"  opacity="1.000"/>
<path d="M 1913.3 120.4 L 1920.0 94.2 L 1919.3 156.7 z" fill="#d4e0f0" stroke="#C8C8DF"  opacity="1.000"/>
<path d="M 1870.3 136.0 L 1913.3 120.4 L 1919.3 156.7 z" fill="#d5e0f0" stroke="#C8C8DF"  opacity="1.000"/>
<path d="M 1913.3 120.4 L 1870.3 136.0 L 1920.0 94.2 z" fill="#d4e0f0" stroke="#C8C8DF"  opacity="1.000"/>
<path d="M 1870.3 136.0 L 1857.5 152.3 L 1820.6 95.9 z" fill="#d5e0f0" stroke="#C8C8DF"  opacity="1.000"/>
<path d="M 1857.5 152.3 L 1870.3 136.0 L 1893.5 181.7 z" fill="#d5e1f1" stroke="#C8C8DF"  opacity="1.000"/>
<path d="M 723.2 436.4 L 531.7 329.4 L 786.7 396.0 z" fill="#dee7f4" stroke="#C8C8DF"  opacity="1.000"/>
<path d="M 531.7 329.4 L 666.8 142.2 L 786.7 396.0 z" fill="#dde6f3" stroke="#C8C8DF"  opacity="1.000"/>
<path d="M 531.7 329.4 L 723.2 436.4 L 483.3 444.2 z" fill="#dde7f3" stroke="#C8C8DF"  opacity="1.000"/>
<path d="M 367.9 345.0 L 531.7 329.4 L 483.3 444.2 z" fill="#dce6f3" stroke="#C8C8DF"  opacity="1.000"/>
<path d="M 531.7 329.4 L 367.9 345.0 L 394.9 73.1 z" fill="#dbe5f2" stroke="#C8C8DF"  opacity="1.000"/>
<path d="M 666.8 142.2 L 531.7 329.4 L 394.9 73.1 z" fill="#dce5f3" stroke="#C8C8DF"  opacity="1.000"/>
<path d="M 98.7 207.9 L 77.8 75.6 L 180.0 134.1 z" fill="#d7e2f1" stroke="#C8C8DF"  opacity="1.000"/>
<path d="M 81.5 16.6 L 77.7 0.3 L 129.5 38.9 z" fill="#d4e0f0" stroke="#C8C8DF"  opacity="1.000"/>
<path d="M 77.8 75.6 L 81.5 16.6 L 129.5 38.9 z" fill="#d4e0f0" stroke="#C8C8DF"  opacity="1.000"/>
<path d="M 5.5 285.2 L 1.2 288.7 L 0.7 151.5 z" fill="#d8e2f1" stroke="#C8C8DF"  opacity="1.000"/>
<path d="M 98.7 207.9 L 5.5 285.2 L 0.7 151.5 z" fill="#d7e2f1" stroke="#C8C8DF"  opacity="1.000"/>
<path d="M 1622.9 987.5 L 1595.8 935.2 L 1619.8 902.3 z" fill="#dce5f3" stroke="#C8C8DF"  opacity="1.000"/>
<path d="M 1595.8 935.2 L 1622.9 987.5 L 1581.3 962.5 z" fill="#dce6f3" stroke="#C8C8DF"  opacity="1.000"/>
<path d="M 1619.8 902.3 L 1595.8 935.2 L 1449.5 963.5 z" fill="#dde6f3" stroke="#C8C8DF"  opacity="1.000"/>
<path d="M 1595.8 935.2 L 1581.3 962.5 L 1449.5 963.5 z" fill="#dde6f3" stroke="#C8C8DF"  opacity="1.000"/>
<path d="M 1794.8 934.9 L 1883.4 902.9 L 1885.3 969.3 z" fill="#d3dff0" stroke="#C8C8DF"  opacity="1.000"/>
<path d="M 1794.8 934.9 L 1767.4 981.8 L 1760.7 893.4 z" fill="#d7e2f1" stroke="#C8C8DF"  opacity="1.000"/>
<path d="M 1794.8 934.9 L 1814.9 999.7 L 1767.4 981.8 z" fill="#d7e2f1" stroke="#C8C8DF"  opacity="1.000"/>
<path d="M 1723.7 733.4 L 1812.9 849.9 L 1726.4 864.9 z" fill="#d8e2f1" stroke="#C8C8DF"  opacity="1.000"/>
<path d="M 1726.4 864.9 L 1812.9 849.9 L 1760.7 893.4 z" fill="#d7e2f1" stroke="#C8C8DF"  opacity="1.000"/>
<path d="M 1883.4 902.9 L 1812.9 849.9 L 1883.7 812.8 z" fill="#d3dff0" stroke="#C8C8DF"  opacity="1.000"/>
<path d="M 1812.9 849.9 L 1794.8 934.9 L 1760.7 893.4 z" fill="#d6e1f1" stroke="#C8C8DF"  opacity="1.000"/>
<path d="M 1794.8 934.9 L 1812.9 849.9 L 1883.4 902.9 z" fill="#d4e0f0" stroke="#C8C8DF"  opacity="1.000"/>
<path d="M 1577.7 625.4 L 1500.5 683.5 L 1457.6 504.1 z" fill="#dde6f3" stroke="#C8C8DF"  opacity="1.000"/>
<path d="M 1577.7 625.4 L 1562.6 677.9 L 1500.5 683.5 z" fill="#dde6f3" stroke="#C8C8DF"  opacity="1.000"/>
<path d="M 1633.9 489.9 L 1577.7 625.4 L 1457.6 504.1 z" fill="#dce6f3" stroke="#C8C8DF"  opacity="1.000"/>
<path d="M 1839.4 169.4 L 1857.5 152.3 L 1893.5 181.7 z" fill="#d6e1f1" stroke="#C8C8DF"  opacity="1.000"/>
<path d="M 1905.0 289.4 L 1839.4 169.4 L 1893.5 181.7 z" fill="#d7e2f1" stroke="#C8C8DF"  opacity="1.000"/>
<path d="M 1839.4 169.4 L 1728.5 234.5 L 1797.2 98.3 z" fill="#d7e2f1" stroke="#C8C8DF"  opacity="1.000"/>
<path d="M 1728.5 234.5 L 1839.4 169.4 L 1891.8 312.2 z" fill="#d7e2f1" stroke="#C8C8DF"  opacity="1.000"/>
<path d="M 1839.4 169.4 L 1905.0 289.4 L 1891.8 312.2 z" fill="#d7e2f1" stroke="#C8C8DF"  opacity="1.000"/>
<path d="M 1820.6 95.9 L 1839.4 169.4 L 1797.2 98.3 z" fill="#d5e1f0" stroke="#C8C8DF"  opacity="1.000"/>
<path d="M 1857.5 152.3 L 1839.4 169.4 L 1820.6 95.9 z" fill="#d5e1f0" stroke="#C8C8DF"  opacity="1.000"/>
<path d="M 180.8 237.5 L 98.7 207.9 L 180.0 134.1 z" fill="#d8e3f1" stroke="#C8C8DF"  opacity="1.000"/>
<path d="M 180.8 237.5 L 367.9 345.0 L 198.9 414.0 z" fill="#dae4f2" stroke="#C8C8DF"  opacity="1.000"/>
<path d="M 180.8 237.5 L 180.0 134.1 L 394.9 73.1 z" fill="#d9e3f2" stroke="#C8C8DF"  opacity="1.000"/>
<path d="M 367.9 345.0 L 180.8 237.5 L 394.9 73.1 z" fill="#dae4f2" stroke="#C8C8DF"  opacity="1.000"/>
<path d="M 14.2 23.1 L 81.5 16.6 L 77.8 75.6 z" fill="#d3dff0" stroke="#C8C8DF"  opacity="1.000"/>
<path d="M 98.7 207.9 L 12.0 126.9 L 77.8 75.6 z" fill="#d6e1f1" stroke="#C8C8DF"  opacity="1.000"/>
<path d="M 12.0 126.9 L 28.8 92.5 L 77.8 75.6 z" fill="#d4e0f0" stroke="#C8C8DF"  opacity="1.000"/>
<path d="M 12.0 126.9 L 98.7 207.9 L 0.7 151.5 z" fill="#d6e1f1" stroke="#C8C8DF"  opacity="1.000"/>
<path d="M 15.3 404.5 L 106.2 308.7 L 107.6 390.3 z" fill="#d9e4f2" stroke="#C8C8DF"  opacity="1.000"/>
<path d="M 1.2 288.7 L 106.2 308.7 L 15.3 404.5 z" fill="#d9e3f2" stroke="#C8C8DF"  opacity="1.000"/>
<path d="M 5.5 285.2 L 106.2 308.7 L 1.2 288.7 z" fill="#d8e3f2" stroke="#C8C8DF"  opacity="1.000"/>
<path d="M 1828.3 999.9 L 1794.8 934.9 L 1885.3 969.3 z" fill="#d5e0f0" stroke="#C8C8DF"  opacity="1.000"/>
<path d="M 1794.8 934.9 L 1828.3 999.9 L 1814.9 999.7 z" fill="#d6e1f1" stroke="#C8C8DF"  opacity="1.000"/>
<path d="M 1828.3 999.9 L 1885.3 969.3 L 1920 1000 z" fill="#d5e0f0" stroke="#C8C8DF"  opacity="1.000"/>
<path d="M 1522.2 999.7 L 1828.3 999.9 L 1920 1000 z" fill="#d8e3f1" stroke="#C8C8DF"  opacity="1.000"/>
<path d="M 1814.9 999.7 L 1828.3 999.9 L 1522.2 999.7 z" fill="#d9e3f2" stroke="#C8C8DF"  opacity="1.000"/>
<path d="M 1812.9 849.9 L 1857.7 784.9 L 1883.7 812.8 z" fill="#d5e0f0" stroke="#C8C8DF"  opacity="1.000"/>
<path d="M 1857.7 784.9 L 1812.9 849.9 L 1723.7 733.4 z" fill="#d7e2f1" stroke="#C8C8DF"  opacity="1.000"/>
<path d="M 1883.7 812.8 L 1857.7 784.9 L 1913.6 669.9 z" fill="#d6e1f1" stroke="#C8C8DF"  opacity="1.000"/>
<path d="M 1857.7 784.9 L 1723.7 733.4 L 1913.6 669.9 z" fill="#d7e2f1" stroke="#C8C8DF"  opacity="1.000"/>
<path d="M 1562.6 677.9 L 1586.4 640.4 L 1639.4 702.4 z" fill="#dce5f3" stroke="#C8C8DF"  opacity="1.000"/>
<path d="M 1577.7 625.4 L 1586.4 640.4 L 1562.6 677.9 z" fill="#dce6f3" stroke="#C8C8DF"  opacity="1.000"/>
<path d="M 1639.4 702.4 L 1586.4 640.4 L 1633.9 489.9 z" fill="#dbe5f3" stroke="#C8C8DF"  opacity="1.000"/>
<path d="M 1586.4 640.4 L 1577.7 625.4 L 1633.9 489.9 z" fill="#dce5f3" stroke="#C8C8DF"  opacity="1.000"/>
<path d="M 28.8 92.5 L 6.2 59.5 L 77.8 75.6 z" fill="#d4e0f0" stroke="#C8C8DF"  opacity="1.000"/>
<path d="M 6.2 59.5 L 14.2 23.1 L 77.8 75.6 z" fill="#d3dff0" stroke="#C8C8DF"  opacity="1.000"/>
<path d="M 12.0 126.9 L 6.2 59.5 L 28.8 92.5 z" fill="#d4e0f0" stroke="#C8C8DF"  opacity="1.000"/>
<path d="M 6.2 59.5 L 0.7 151.5 L 0 0 z" fill="#d3dff0" stroke="#C8C8DF"  opacity="1.000"/>
<path d="M 6.2 59.5 L 12.0 126.9 L 0.7 151.5 z" fill="#d5e0f0" stroke="#C8C8DF"  opacity="1.000"/>
<path d="M 81.5 16.6 L 40.7 0.4 L 77.7 0.3 z" fill="#d3dff0" stroke="#C8C8DF"  opacity="1.000"/>
<path d="M 14.2 23.1 L 40.7 0.4 L 81.5 16.6 z" fill="#d2deef" stroke="#C8C8DF"  opacity="1.000"/>
<path d="M 77.7 0.3 L 40.7 0.4 L 0 0 z" fill="#d2deef" stroke="#C8C8DF"  opacity="1.000"/>
<path d="M 40.7 0.4 L 14.2 23.1 L 0 0 z" fill="#d1ddef" stroke="#C8C8DF"  opacity="1.000"/>
<path d="M 101.9 255.6 L 5.5 285.2 L 98.7 207.9 z" fill="#d8e3f1" stroke="#C8C8DF"  opacity="1.000"/>
<path d="M 101.9 255.6 L 106.2 308.7 L 5.5 285.2 z" fill="#d8e3f2" stroke="#C8C8DF"  opacity="1.000"/>
<path d="M 180.8 237.5 L 101.9 255.6 L 98.7 207.9 z" fill="#d8e3f1" stroke="#C8C8DF"  opacity="1.000"/>
<path d="M 14.2 23.1 L 6.2 35.6 L 0 0 z" fill="#d1ddef" stroke="#C8C8DF"  opacity="1.000"/>
<path d="M 6.2 35.6 L 6.2 59.5 L 0 0 z" fill="#d1deef" stroke="#C8C8DF"  opacity="1.000"/>
<path d="M 6.2 59.5 L 6.2 35.6 L 14.2 23.1 z" fill="#d2deef" stroke="#C8C8DF"  opacity="1.000"/>
<path d="M 145.1 297.5 L 101.9 255.6 L 180.8 237.5 z" fill="#d9e3f2" stroke="#C8C8DF"  opacity="1.000"/>
<path d="M 101.9 255.6 L 145.1 297.5 L 106.2 308.7 z" fill="#d9e3f2" stroke="#C8C8DF"  opacity="1.000"/>
<path d="M 145.1 297.5 L 180.8 237.5 L 198.9 414.0 z" fill="#d9e4f2" stroke="#C8C8DF"  opacity="1.000"/>
<path d="M 145.1 297.5 L 198.9 414.0 L 107.6 390.3 z" fill="#dae4f2" stroke="#C8C8DF"  opacity="1.000"/>
<path d="M 106.2 308.7 L 145.1 297.5 L 107.6 390.3 z" fill="#d9e3f2" stroke="#C8C8DF"  opacity="1.000"/>
</g></svg>
