<?xml version="1.0" encoding="utf-8"?>
<svg xmlns="http://www.w3.org/2000/svg" width="300" height="300"
     xmlns:xlink="http://www.w3.org/1999/xlink">
  <!-- created with "banners.py -colors 828FBE,BDC4DD,828FBE,6677B0 -num 20 -width 300 -height 300" -->
   
<g>
<path d="M 300 0 L 140 30 L 0 0 z" fill="#828fbe" opacity="1.000"/>
<path d="M 262 119 L 300 0 L 300 300 z" fill="#7685b8" opacity="1.000"/>
<path d="M 19 234 L 79 230 L 0 300 z" fill="#acb4d4" opacity="1.000"/>
<path d="M 266 221 L 262 119 L 300 300 z" fill="#7382b6" opacity="1.000"/>
<path d="M 186 218 L 99 205 L 163 163 z" fill="#8c98c3" opacity="1.000"/>
<path d="M 99 205 L 186 218 L 79 230 z" fill="#939ec7" opacity="1.000"/>
<path d="M 266 221 L 204 141 L 262 119 z" fill="#7b89bb" opacity="1.000"/>
<path d="M 204 141 L 266 221 L 242 224 z" fill="#7b89bb" opacity="1.000"/>
<path d="M 204 141 L 186 218 L 163 163 z" fill="#8592bf" opacity="1.000"/>
<path d="M 186 218 L 204 141 L 242 224 z" fill="#808ebd" opacity="1.000"/>
<path d="M 222 40 L 140 30 L 300 0 z" fill="#818ebd" opacity="1.000"/>
<path d="M 99 205 L 129 147 L 163 163 z" fill="#8e9ac4" opacity="1.000"/>
<path d="M 129 147 L 204 141 L 163 163 z" fill="#8794c1" opacity="1.000"/>
<path d="M 204 141 L 129 147 L 215 114 z" fill="#8491bf" opacity="1.000"/>
<path d="M 17 168 L 99 205 L 79 230 z" fill="#9ca7cc" opacity="1.000"/>
<path d="M 19 234 L 17 168 L 79 230 z" fill="#a3adcf" opacity="1.000"/>
<path d="M 17 168 L 129 147 L 99 205 z" fill="#96a1c8" opacity="1.000"/>
<path d="M 129 147 L 17 168 L 24 105 z" fill="#95a1c8" opacity="1.000"/>
<path d="M 17 168 L 19 234 L 0 300 z" fill="#adb5d4" opacity="1.000"/>
<path d="M 17 168 L 0 300 L 0 0 z" fill="#9fa9cd" opacity="1.000"/>
<path d="M 24 105 L 17 168 L 0 0 z" fill="#929ec6" opacity="1.000"/>
<path d="M 186 218 L 249 265 L 79 230 z" fill="#8996c2" opacity="1.000"/>
<path d="M 79 230 L 249 265 L 0 300 z" fill="#9aa5ca" opacity="1.000"/>
<path d="M 249 265 L 186 218 L 242 224 z" fill="#7d8bbb" opacity="1.000"/>
<path d="M 266 221 L 249 265 L 242 224 z" fill="#7685b8" opacity="1.000"/>
<path d="M 222 40 L 230 55 L 215 114 z" fill="#808ebd" opacity="1.000"/>
<path d="M 262 119 L 230 55 L 300 0 z" fill="#7e8cbc" opacity="1.000"/>
<path d="M 230 55 L 222 40 L 300 0 z" fill="#808dbd" opacity="1.000"/>
<path d="M 123 64 L 129 147 L 24 105 z" fill="#8d99c4" opacity="1.000"/>
<path d="M 140 30 L 123 64 L 0 0 z" fill="#8592bf" opacity="1.000"/>
<path d="M 123 64 L 24 105 L 0 0 z" fill="#8a96c2" opacity="1.000"/>
<path d="M 129 147 L 123 64 L 215 114 z" fill="#8793c0" opacity="1.000"/>
<path d="M 222 40 L 123 64 L 140 30 z" fill="#8390bf" opacity="1.000"/>
<path d="M 123 64 L 222 40 L 215 114 z" fill="#8390be" opacity="1.000"/>
<path d="M 267 276 L 266 221 L 300 300 z" fill="#6f7fb4" opacity="1.000"/>
<path d="M 267 276 L 249 265 L 266 221 z" fill="#7483b7" opacity="1.000"/>
<path d="M 0 300 L 267 276 L 300 300 z" fill="#8693c0" opacity="1.000"/>
<path d="M 249 265 L 267 276 L 0 300 z" fill="#8a97c2" opacity="1.000"/>
<path d="M 249 112 L 230 55 L 262 119 z" fill="#7e8bbc" opacity="1.000"/>
<path d="M 230 55 L 249 112 L 215 114 z" fill="#7f8dbc" opacity="1.000"/>
<path d="M 204 141 L 249 112 L 262 119 z" fill="#7d8bbc" opacity="1.000"/>
<path d="M 249 112 L 204 141 L 215 114 z" fill="#7f8dbd" opacity="1.000"/>
</g></svg>
