<?xml version="1.0" encoding="utf-8"?>
<svg xmlns="http://www.w3.org/2000/svg" width="300" height="300"
     xmlns:xlink="http://www.w3.org/1999/xlink">
  <!-- created with "banners.py -colors 5164A4,BDC4DD,5164A4,6677B0 -num 20 -width 300 -height 300" -->
   
<g>
<path d="M 0 300 L 123 276 L 300 300 z" fill="#929ec6" opacity="1.000"/>
<path d="M 16 186 L 0 300 L 0 0 z" fill="#8a97c2" opacity="1.000"/>
<path d="M 269 217 L 300 0 L 300 300 z" fill="#5e70ab" opacity="1.000"/>
<path d="M 97 232 L 123 276 L 0 300 z" fill="#9ea9cd" opacity="1.000"/>
<path d="M 16 186 L 97 232 L 0 300 z" fill="#9ea8cc" opacity="1.000"/>
<path d="M 20 47 L 16 186 L 0 0 z" fill="#6b7bb2" opacity="1.000"/>
<path d="M 94 86 L 20 47 L 0 0 z" fill="#5f70ab" opacity="1.000"/>
<path d="M 80 121 L 94 86 L 122 146 z" fill="#707fb4" opacity="1.000"/>
<path d="M 80 121 L 20 47 L 94 86 z" fill="#6a7ab1" opacity="1.000"/>
<path d="M 94 86 L 211 58 L 122 146 z" fill="#6677af" opacity="1.000"/>
<path d="M 300 0 L 211 58 L 0 0 z" fill="#5467a5" opacity="1.000"/>
<path d="M 211 58 L 94 86 L 0 0 z" fill="#5d6faa" opacity="1.000"/>
<path d="M 272 242 L 269 217 L 300 300 z" fill="#6778b0" opacity="1.000"/>
<path d="M 97 232 L 131 261 L 123 276 z" fill="#909cc5" opacity="1.000"/>
<path d="M 25 178 L 97 232 L 16 186 z" fill="#8f9bc5" opacity="1.000"/>
<path d="M 20 47 L 25 178 L 16 186 z" fill="#7f8dbc" opacity="1.000"/>
<path d="M 80 121 L 25 178 L 20 47 z" fill="#7584b7" opacity="1.000"/>
<path d="M 269 217 L 260 47 L 300 0 z" fill="#596ba8" opacity="1.000"/>
<path d="M 222 208 L 260 47 L 269 217 z" fill="#6374ae" opacity="1.000"/>
<path d="M 260 47 L 222 208 L 211 58 z" fill="#5f70ab" opacity="1.000"/>
<path d="M 140 182 L 131 261 L 97 232 z" fill="#8794c1" opacity="1.000"/>
<path d="M 211 58 L 140 182 L 122 146 z" fill="#6b7bb2" opacity="1.000"/>
<path d="M 222 208 L 140 182 L 211 58 z" fill="#6b7bb2" opacity="1.000"/>
<path d="M 123 276 L 222 275 L 300 300 z" fill="#7c8abb" opacity="1.000"/>
<path d="M 131 261 L 222 275 L 123 276 z" fill="#8895c1" opacity="1.000"/>
<path d="M 222 275 L 272 242 L 300 300 z" fill="#6d7db3" opacity="1.000"/>
<path d="M 25 178 L 109 177 L 97 232 z" fill="#8895c1" opacity="1.000"/>
<path d="M 140 182 L 109 177 L 122 146 z" fill="#7988b9" opacity="1.000"/>
<path d="M 109 177 L 140 182 L 97 232 z" fill="#828fbe" opacity="1.000"/>
<path d="M 109 177 L 80 121 L 122 146 z" fill="#7786b8" opacity="1.000"/>
<path d="M 109 177 L 25 178 L 80 121 z" fill="#7f8cbc" opacity="1.000"/>
<path d="M 256 46 L 211 58 L 300 0 z" fill="#5467a6" opacity="1.000"/>
<path d="M 260 47 L 256 46 L 300 0 z" fill="#5466a5" opacity="1.000"/>
<path d="M 256 46 L 260 47 L 211 58 z" fill="#5769a7" opacity="1.000"/>
<path d="M 222 275 L 259 229 L 272 242 z" fill="#6e7eb3" opacity="1.000"/>
<path d="M 259 229 L 222 275 L 222 208 z" fill="#7080b5" opacity="1.000"/>
<path d="M 272 242 L 259 229 L 269 217 z" fill="#6879b1" opacity="1.000"/>
<path d="M 259 229 L 222 208 L 269 217 z" fill="#6a7bb2" opacity="1.000"/>
<path d="M 191 233 L 222 275 L 131 261 z" fill="#808ebd" opacity="1.000"/>
<path d="M 222 275 L 191 233 L 222 208 z" fill="#7685b8" opacity="1.000"/>
<path d="M 140 182 L 191 233 L 131 261 z" fill="#808ebd" opacity="1.000"/>
<path d="M 191 233 L 140 182 L 222 208 z" fill="#7685b8" opacity="1.000"/>
</g></svg>
