<?xml version="1.0" encoding="utf-8"?>
<svg xmlns="http://www.w3.org/2000/svg" width="300" height="300"
     xmlns:xlink="http://www.w3.org/1999/xlink">
  <!-- created with "banners.py -colors BDC4DD,102a83,5164A4,6677B0 -num 20 -width 300 -height 300" -->
   
<g>
<path d="M 300 0 L 111 23 L 0 0 z" fill="#8996c1" opacity="1.000"/>
<path d="M 20 200 L 0 300 L 0 0 z" fill="#5d6eab" opacity="1.000"/>
<path d="M 111 23 L 62 30 L 0 0 z" fill="#a0aace" opacity="1.000"/>
<path d="M 20 200 L 93 175 L 0 300 z" fill="#3f549b" opacity="1.000"/>
<path d="M 256 67 L 260 243 L 208 123 z" fill="#5e6fab" opacity="1.000"/>
<path d="M 260 243 L 187 241 L 208 123 z" fill="#586ba8" opacity="1.000"/>
<path d="M 187 241 L 153 200 L 208 123 z" fill="#586ba8" opacity="1.000"/>
<path d="M 153 200 L 109 174 L 131 117 z" fill="#5d6fab" opacity="1.000"/>
<path d="M 208 123 L 153 200 L 131 117 z" fill="#6172ad" opacity="1.000"/>
<path d="M 153 200 L 93 175 L 109 174 z" fill="#5769a8" opacity="1.000"/>
<path d="M 153 200 L 187 241 L 0 300 z" fill="#42569d" opacity="1.000"/>
<path d="M 93 175 L 153 200 L 0 300 z" fill="#45599e" opacity="1.000"/>
<path d="M 0 300 L 195 253 L 300 300 z" fill="#42579d" opacity="1.000"/>
<path d="M 187 241 L 195 253 L 0 300 z" fill="#3f549b" opacity="1.000"/>
<path d="M 260 243 L 195 253 L 187 241 z" fill="#5366a6" opacity="1.000"/>
<path d="M 197 75 L 256 67 L 208 123 z" fill="#6475ae" opacity="1.000"/>
<path d="M 109 174 L 126 118 L 131 117 z" fill="#6677af" opacity="1.000"/>
<path d="M 93 175 L 126 118 L 109 174 z" fill="#6072ac" opacity="1.000"/>
<path d="M 126 118 L 165 65 L 131 117 z" fill="#6f7eb4" opacity="1.000"/>
<path d="M 165 65 L 126 118 L 111 23 z" fill="#7987b9" opacity="1.000"/>
<path d="M 288 271 L 260 243 L 256 67 z" fill="#5c6eaa" opacity="1.000"/>
<path d="M 288 271 L 300 0 L 300 300 z" fill="#5e6fab" opacity="1.000"/>
<path d="M 288 271 L 256 67 L 300 0 z" fill="#5b6da9" opacity="1.000"/>
<path d="M 195 253 L 288 271 L 300 300 z" fill="#5b6daa" opacity="1.000"/>
<path d="M 288 271 L 195 253 L 260 243 z" fill="#586ba8" opacity="1.000"/>
<path d="M 190 89 L 208 123 L 131 117 z" fill="#6878b0" opacity="1.000"/>
<path d="M 190 89 L 197 75 L 208 123 z" fill="#6778b0" opacity="1.000"/>
<path d="M 165 65 L 190 89 L 131 117 z" fill="#6e7db3" opacity="1.000"/>
<path d="M 197 75 L 190 89 L 165 65 z" fill="#6d7cb3" opacity="1.000"/>
<path d="M 206 28 L 197 75 L 165 65 z" fill="#6f7fb4" opacity="1.000"/>
<path d="M 206 28 L 111 23 L 300 0 z" fill="#7080b4" opacity="1.000"/>
<path d="M 206 28 L 165 65 L 111 23 z" fill="#7a88ba" opacity="1.000"/>
<path d="M 256 67 L 206 28 L 300 0 z" fill="#6071ac" opacity="1.000"/>
<path d="M 197 75 L 206 28 L 256 67 z" fill="#6878b0" opacity="1.000"/>
<path d="M 36 111 L 126 118 L 93 175 z" fill="#6979b1" opacity="1.000"/>
<path d="M 36 111 L 93 175 L 20 200 z" fill="#5f70ac" opacity="1.000"/>
<path d="M 36 111 L 20 200 L 0 0 z" fill="#7f8cbc" opacity="1.000"/>
<path d="M 36 111 L 55 80 L 126 118 z" fill="#7786b8" opacity="1.000"/>
<path d="M 55 80 L 62 30 L 111 23 z" fill="#8f9bc5" opacity="1.000"/>
<path d="M 126 118 L 55 80 L 111 23 z" fill="#7f8dbc" opacity="1.000"/>
<path d="M 62 30 L 55 80 L 0 0 z" fill="#9da7cc" opacity="1.000"/>
<path d="M 55 80 L 36 111 L 0 0 z" fill="#919dc6" opacity="1.000"/>
</g></svg>
