<?xml version="1.0" encoding="utf-8"?>
<svg xmlns="http://www.w3.org/2000/svg" width="300" height="300"
     xmlns:xlink="http://www.w3.org/1999/xlink">
  <!-- created with "banners.py -colors 4D5982,929EC6,828FBE,6677B0 -num 20 -width 300 -height 300" -->
   
<g>
<path d="M 11 171 L 0 300 L 0 0 z" fill="#717da5" opacity="1.000"/>
<path d="M 300 0 L 160 12 L 0 0 z" fill="#6874a0" opacity="1.000"/>
<path d="M 283 129 L 300 0 L 300 300 z" fill="#7483b6" opacity="1.000"/>
<path d="M 0 300 L 191 284 L 300 300 z" fill="#7988b9" opacity="1.000"/>
<path d="M 75 238 L 11 171 L 118 175 z" fill="#7784af" opacity="1.000"/>
<path d="M 44 105 L 11 171 L 0 0 z" fill="#636f98" opacity="1.000"/>
<path d="M 223 243 L 283 129 L 300 300 z" fill="#6f7eb3" opacity="1.000"/>
<path d="M 191 284 L 223 243 L 300 300 z" fill="#6f7fb4" opacity="1.000"/>
<path d="M 133 242 L 75 238 L 118 175 z" fill="#7886b3" opacity="1.000"/>
<path d="M 223 243 L 133 242 L 118 175 z" fill="#7684b3" opacity="1.000"/>
<path d="M 11 171 L 41 242 L 0 300 z" fill="#828eb7" opacity="1.000"/>
<path d="M 75 238 L 41 242 L 11 171 z" fill="#7c89b3" opacity="1.000"/>
<path d="M 193 64 L 128 84 L 160 12 z" fill="#6c79a6" opacity="1.000"/>
<path d="M 160 12 L 128 84 L 0 0 z" fill="#626e99" opacity="1.000"/>
<path d="M 128 84 L 44 105 L 0 0 z" fill="#616e98" opacity="1.000"/>
<path d="M 283 129 L 209 42 L 300 0 z" fill="#7886b6" opacity="1.000"/>
<path d="M 193 64 L 209 42 L 283 129 z" fill="#7481b1" opacity="1.000"/>
<path d="M 209 42 L 160 12 L 300 0 z" fill="#7481af" opacity="1.000"/>
<path d="M 209 42 L 193 64 L 160 12 z" fill="#6f7ca9" opacity="1.000"/>
<path d="M 240 155 L 223 243 L 118 175 z" fill="#7381b2" opacity="1.000"/>
<path d="M 223 243 L 240 155 L 283 129 z" fill="#7281b3" opacity="1.000"/>
<path d="M 240 155 L 193 64 L 283 129 z" fill="#7381b2" opacity="1.000"/>
<path d="M 240 155 L 128 84 L 193 64 z" fill="#707ead" opacity="1.000"/>
<path d="M 150 262 L 223 243 L 191 284 z" fill="#7584b6" opacity="1.000"/>
<path d="M 150 262 L 133 242 L 223 243 z" fill="#7685b5" opacity="1.000"/>
<path d="M 150 262 L 191 284 L 125 275 z" fill="#7987b8" opacity="1.000"/>
<path d="M 133 242 L 150 262 L 125 275 z" fill="#7a88b7" opacity="1.000"/>
<path d="M 105 280 L 62 275 L 75 238 z" fill="#818eba" opacity="1.000"/>
<path d="M 105 280 L 133 242 L 125 275 z" fill="#7c8ab9" opacity="1.000"/>
<path d="M 133 242 L 105 280 L 75 238 z" fill="#7d8ab8" opacity="1.000"/>
<path d="M 62 275 L 105 280 L 0 300 z" fill="#8794bf" opacity="1.000"/>
<path d="M 105 280 L 191 284 L 0 300 z" fill="#828fbd" opacity="1.000"/>
<path d="M 191 284 L 105 280 L 125 275 z" fill="#7b8ab9" opacity="1.000"/>
<path d="M 62 275 L 58 271 L 75 238 z" fill="#828fba" opacity="1.000"/>
<path d="M 58 271 L 41 242 L 75 238 z" fill="#818db9" opacity="1.000"/>
<path d="M 58 271 L 62 275 L 0 300 z" fill="#8895bf" opacity="1.000"/>
<path d="M 41 242 L 58 271 L 0 300 z" fill="#8794bd" opacity="1.000"/>
<path d="M 108 134 L 240 155 L 118 175 z" fill="#727fae" opacity="1.000"/>
<path d="M 240 155 L 108 134 L 128 84 z" fill="#707dab" opacity="1.000"/>
<path d="M 128 84 L 108 134 L 44 105 z" fill="#6b78a3" opacity="1.000"/>
<path d="M 11 171 L 108 134 L 118 175 z" fill="#727eaa" opacity="1.000"/>
<path d="M 44 105 L 108 134 L 11 171 z" fill="#6d7aa4" opacity="1.000"/>
</g></svg>
