<?xml version="1.0" encoding="utf-8"?>
<svg xmlns="http://www.w3.org/2000/svg" width="300" height="300"
     xmlns:xlink="http://www.w3.org/1999/xlink">
  <!-- created with "banners.py -colors A8B1D1,828FBE,6677B0,929EC6 -num 20 -width 300 -height 300" -->
   
<g>
<path d="M 0 300 L 198 284 L 300 300 z" fill="#8a97c2" opacity="1.000"/>
<path d="M 19 111 L 0 300 L 0 0 z" fill="#96a0c8" opacity="1.000"/>
<path d="M 19 111 L 47 69 L 133 176 z" fill="#919dc5" opacity="1.000"/>
<path d="M 198 284 L 239 196 L 300 300 z" fill="#8b97c2" opacity="1.000"/>
<path d="M 73 252 L 198 284 L 0 300 z" fill="#8794c0" opacity="1.000"/>
<path d="M 47 69 L 212 96 L 133 176 z" fill="#8a96c2" opacity="1.000"/>
<path d="M 190 218 L 239 196 L 198 284 z" fill="#8895c1" opacity="1.000"/>
<path d="M 36 177 L 19 111 L 133 176 z" fill="#8f9bc4" opacity="1.000"/>
<path d="M 19 111 L 36 177 L 0 300 z" fill="#8e9ac4" opacity="1.000"/>
<path d="M 23 86 L 47 69 L 19 111 z" fill="#98a3c9" opacity="1.000"/>
<path d="M 23 86 L 20 25 L 47 69 z" fill="#9ba5ca" opacity="1.000"/>
<path d="M 23 86 L 19 111 L 0 0 z" fill="#9da7cb" opacity="1.000"/>
<path d="M 20 25 L 23 86 L 0 0 z" fill="#a0aacd" opacity="1.000"/>
<path d="M 212 96 L 271 74 L 239 196 z" fill="#7e8cbc" opacity="1.000"/>
<path d="M 271 74 L 300 0 L 300 300 z" fill="#7988b9" opacity="1.000"/>
<path d="M 239 196 L 271 74 L 300 300 z" fill="#8390be" opacity="1.000"/>
<path d="M 212 96 L 191 176 L 133 176 z" fill="#8693c0" opacity="1.000"/>
<path d="M 191 176 L 212 96 L 239 196 z" fill="#8391be" opacity="1.000"/>
<path d="M 190 218 L 191 176 L 239 196 z" fill="#8693c0" opacity="1.000"/>
<path d="M 20 25 L 231 29 L 47 69 z" fill="#909cc5" opacity="1.000"/>
<path d="M 231 29 L 212 96 L 47 69 z" fill="#8592bf" opacity="1.000"/>
<path d="M 300 0 L 231 29 L 0 0 z" fill="#818fbd" opacity="1.000"/>
<path d="M 231 29 L 20 25 L 0 0 z" fill="#94a0c7" opacity="1.000"/>
<path d="M 271 74 L 231 29 L 300 0 z" fill="#7180b5" opacity="1.000"/>
<path d="M 231 29 L 271 74 L 212 96 z" fill="#7988b9" opacity="1.000"/>
<path d="M 73 252 L 153 250 L 198 284 z" fill="#8996c1" opacity="1.000"/>
<path d="M 153 250 L 190 218 L 198 284 z" fill="#8996c1" opacity="1.000"/>
<path d="M 78 217 L 36 177 L 133 176 z" fill="#8c98c3" opacity="1.000"/>
<path d="M 149 214 L 191 176 L 190 218 z" fill="#8894c1" opacity="1.000"/>
<path d="M 43 208 L 78 217 L 73 252 z" fill="#8a96c2" opacity="1.000"/>
<path d="M 78 217 L 43 208 L 36 177 z" fill="#8c98c3" opacity="1.000"/>
<path d="M 43 208 L 73 252 L 0 300 z" fill="#8894c1" opacity="1.000"/>
<path d="M 36 177 L 43 208 L 0 300 z" fill="#8a96c2" opacity="1.000"/>
<path d="M 153 250 L 153 233 L 190 218 z" fill="#8995c1" opacity="1.000"/>
<path d="M 153 233 L 149 214 L 190 218 z" fill="#8895c1" opacity="1.000"/>
<path d="M 149 214 L 153 233 L 78 217 z" fill="#8996c1" opacity="1.000"/>
<path d="M 153 233 L 153 250 L 73 252 z" fill="#8995c1" opacity="1.000"/>
<path d="M 78 217 L 153 233 L 73 252 z" fill="#8996c1" opacity="1.000"/>
<path d="M 191 176 L 135 198 L 133 176 z" fill="#8895c1" opacity="1.000"/>
<path d="M 149 214 L 135 198 L 191 176 z" fill="#8895c1" opacity="1.000"/>
<path d="M 135 198 L 78 217 L 133 176 z" fill="#8a96c2" opacity="1.000"/>
<path d="M 135 198 L 149 214 L 78 217 z" fill="#8996c1" opacity="1.000"/>
</g></svg>
