<?xml version="1.0" encoding="utf-8"?>
<svg xmlns="http://www.w3.org/2000/svg" width="1920" height="1000"
     xmlns:xlink="http://www.w3.org/1999/xlink">
  <!-- created with "trimesh.py -height 1000 -stroke E8E8FF -colors 500,900,FFFFFF,500,1500,FFFFFF,920,900,FFFFFF,0,0,D7E9F4,0,900,EBF4F9,1900,0,D7E9F4,1900,900,FEFEFF" -->
   
<g>
<path d="M 1.0 458.3 L 0 1000 L 0 0 z" fill="#eef5fa" stroke="#E8E8FF"  opacity="1.000"/>
<path d="M 1919.8 763.6 L 1920 0 L 1920 1000 z" fill="#f2f7fb" stroke="#E8E8FF"  opacity="1.000"/>
<path d="M 214.5 0.4 L 1349.4 0.1 L 644.7 6.5 z" fill="#eef6fa" stroke="#E8E8FF"  opacity="1.000"/>
<path d="M 1349.4 0.1 L 214.5 0.4 L 0 0 z" fill="#edf5fa" stroke="#E8E8FF"  opacity="1.000"/>
<path d="M 771.8 26.2 L 771.6 198.3 L 644.7 6.5 z" fill="#eff6fa" stroke="#E8E8FF"  opacity="1.000"/>
<path d="M 214.3 300.9 L 412.4 397.1 L 350.8 410.9 z" fill="#eff6fa" stroke="#E8E8FF"  opacity="1.000"/>
<path d="M 1919.8 763.6 L 1916.2 242.6 L 1920 0 z" fill="#ebf4f9" stroke="#E8E8FF"  opacity="1.000"/>
<path d="M 1916.2 242.6 L 1919.8 763.6 L 1914.1 452.5 z" fill="#eff6fa" stroke="#E8E8FF"  opacity="1.000"/>
<path d="M 0.8 69.5 L 1.0 458.3 L 0 0 z" fill="#e5f0f7" stroke="#E8E8FF"  opacity="1.000"/>
<path d="M 1.0 458.3 L 0.9 684.1 L 0 1000 z" fill="#eff6fa" stroke="#E8E8FF"  opacity="1.000"/>
<path d="M 117.2 571.2 L 0.9 684.1 L 1.0 458.3 z" fill="#eff6fa" stroke="#E8E8FF"  opacity="1.000"/>
<path d="M 0.9 684.1 L 1.4 950.1 L 0 1000 z" fill="#ecf4f9" stroke="#E8E8FF"  opacity="1.000"/>
<path d="M 1.4 950.1 L 0.9 684.1 L 1.6 705.4 z" fill="#eef6fa" stroke="#E8E8FF"  opacity="1.000"/>
<path d="M 288.5 566.4 L 380.3 707.6 L 308.5 726.3 z" fill="#f3f8fb" stroke="#E8E8FF"  opacity="1.000"/>
<path d="M 380.3 707.6 L 403.7 924.5 L 308.5 726.3 z" fill="#f6fafc" stroke="#E8E8FF"  opacity="1.000"/>
<path d="M 251.2 431.0 L 288.5 566.4 L 137.4 535.7 z" fill="#f0f6fa" stroke="#E8E8FF"  opacity="1.000"/>
<path d="M 116.2 407.7 L 251.2 431.0 L 137.4 535.7 z" fill="#eef6fa" stroke="#E8E8FF"  opacity="1.000"/>
<path d="M 288.5 566.4 L 251.2 431.0 L 350.8 410.9 z" fill="#f0f6fa" stroke="#E8E8FF"  opacity="1.000"/>
<path d="M 251.2 431.0 L 214.3 300.9 L 350.8 410.9 z" fill="#eef6fa" stroke="#E8E8FF"  opacity="1.000"/>
<path d="M 34.9 450.7 L 117.2 571.2 L 1.0 458.3 z" fill="#eef5fa" stroke="#E8E8FF"  opacity="1.000"/>
<path d="M 117.2 571.2 L 34.9 450.7 L 137.4 535.7 z" fill="#eff6fa" stroke="#E8E8FF"  opacity="1.000"/>
<path d="M 288.5 566.4 L 184.3 628.4 L 137.4 535.7 z" fill="#f0f7fb" stroke="#E8E8FF"  opacity="1.000"/>
<path d="M 184.3 628.4 L 117.2 571.2 L 137.4 535.7 z" fill="#f0f6fa" stroke="#E8E8FF"  opacity="1.000"/>
<path d="M 184.3 628.4 L 288.5 566.4 L 308.5 726.3 z" fill="#f2f8fb" stroke="#E8E8FF"  opacity="1.000"/>
<path d="M 111.7 789.9 L 184.3 628.4 L 308.5 726.3 z" fill="#f2f7fb" stroke="#E8E8FF"  opacity="1.000"/>
<path d="M 184.3 628.4 L 111.7 789.9 L 47.7 721.7 z" fill="#f0f7fa" stroke="#E8E8FF"  opacity="1.000"/>
<path d="M 403.7 924.5 L 514.3 981.4 L 392.5 982.1 z" fill="#f9fbfd" stroke="#E8E8FF"  opacity="1.000"/>
<path d="M 403.7 924.5 L 191.5 841.9 L 308.5 726.3 z" fill="#f5f9fc" stroke="#E8E8FF"  opacity="1.000"/>
<path d="M 191.5 841.9 L 111.7 789.9 L 308.5 726.3 z" fill="#f2f8fb" stroke="#E8E8FF"  opacity="1.000"/>
<path d="M 235.0 997.8 L 276.1 972.9 L 392.5 982.1 z" fill="#f5f9fc" stroke="#E8E8FF"  opacity="1.000"/>
<path d="M 276.1 972.9 L 403.7 924.5 L 392.5 982.1 z" fill="#f7fafc" stroke="#E8E8FF"  opacity="1.000"/>
<path d="M 276.1 972.9 L 191.5 841.9 L 403.7 924.5 z" fill="#f5f9fc" stroke="#E8E8FF"  opacity="1.000"/>
<path d="M 771.6 198.3 L 577.6 180.7 L 644.7 6.5 z" fill="#eff6fa" stroke="#E8E8FF"  opacity="1.000"/>
<path d="M 577.6 180.7 L 625.3 323.9 L 412.4 397.1 z" fill="#f0f6fa" stroke="#E8E8FF"  opacity="1.000"/>
<path d="M 920.0 911.4 L 891.8 813.3 L 944.4 819.5 z" fill="#fbfdfe" stroke="#E8E8FF"  opacity="1.000"/>
<path d="M 1919.8 763.6 L 1911.3 599.1 L 1914.1 452.5 z" fill="#f2f8fb" stroke="#E8E8FF"  opacity="1.000"/>
<path d="M 1919.4 859.4 L 1919.8 763.6 L 1920 1000 z" fill="#fcfcfe" stroke="#E8E8FF"  opacity="1.000"/>
<path d="M 1045.5 899.2 L 920.0 911.4 L 944.4 819.5 z" fill="#fbfdfe" stroke="#E8E8FF"  opacity="1.000"/>
<path d="M 984.6 730.3 L 1045.5 899.2 L 944.4 819.5 z" fill="#f9fcfd" stroke="#E8E8FF"  opacity="1.000"/>
<path d="M 1349.4 0.1 L 1459.6 26.5 L 1437.3 46.2 z" fill="#ecf4f9" stroke="#E8E8FF"  opacity="1.000"/>
<path d="M 1658.5 7.2 L 1459.6 26.5 L 1349.4 0.1 z" fill="#ebf4f9" stroke="#E8E8FF"  opacity="1.000"/>
<path d="M 1814.8 0.0 L 1349.4 0.1 L 0 0 z" fill="#eff6fa" stroke="#E8E8FF"  opacity="1.000"/>
<path d="M 1459.6 26.5 L 1567.1 232.2 L 1437.3 46.2 z" fill="#ecf4f9" stroke="#E8E8FF"  opacity="1.000"/>
<path d="M 1705.6 204.5 L 1567.1 232.2 L 1678.1 141.1 z" fill="#eaf3f9" stroke="#E8E8FF"  opacity="1.000"/>
<path d="M 1567.1 232.2 L 1705.6 204.5 L 1649.9 294.0 z" fill="#ebf4f9" stroke="#E8E8FF"  opacity="1.000"/>
<path d="M 1082.3 64.9 L 1075.2 29.1 L 1349.4 0.1 z" fill="#eef6fa" stroke="#E8E8FF"  opacity="1.000"/>
<path d="M 1349.4 0.1 L 1075.2 29.1 L 644.7 6.5 z" fill="#eff6fa" stroke="#E8E8FF"  opacity="1.000"/>
<path d="M 771.8 26.2 L 1075.2 29.1 L 986.0 35.0 z" fill="#eff6fa" stroke="#E8E8FF"  opacity="1.000"/>
<path d="M 1075.2 29.1 L 771.8 26.2 L 644.7 6.5 z" fill="#eff6fa" stroke="#E8E8FF"  opacity="1.000"/>
<path d="M 1054.0 571.6 L 984.6 730.3 L 966.0 551.3 z" fill="#f5f9fc" stroke="#E8E8FF"  opacity="1.000"/>
<path d="M 984.6 730.3 L 1054.0 571.6 L 1119.7 663.3 z" fill="#f6fafc" stroke="#E8E8FF"  opacity="1.000"/>
<path d="M 214.5 0.4 L 18.4 17.0 L 0 0 z" fill="#dfedf6" stroke="#E8E8FF"  opacity="1.000"/>
<path d="M 18.4 17.0 L 0.8 69.5 L 0 0 z" fill="#daeaf4" stroke="#E8E8FF"  opacity="1.000"/>
<path d="M 0.9 684.1 L 2.0 693.4 L 1.6 705.4 z" fill="#eff6fa" stroke="#E8E8FF"  opacity="1.000"/>
<path d="M 30.8 682.0 L 0.9 684.1 L 117.2 571.2 z" fill="#eff6fa" stroke="#E8E8FF"  opacity="1.000"/>
<path d="M 30.8 682.0 L 184.3 628.4 L 47.7 721.7 z" fill="#f0f6fa" stroke="#E8E8FF"  opacity="1.000"/>
<path d="M 184.3 628.4 L 30.8 682.0 L 117.2 571.2 z" fill="#f0f6fa" stroke="#E8E8FF"  opacity="1.000"/>
<path d="M 111.7 789.9 L 70.5 774.0 L 47.7 721.7 z" fill="#eff6fa" stroke="#E8E8FF"  opacity="1.000"/>
<path d="M 70.5 774.0 L 1.6 705.4 L 47.7 721.7 z" fill="#eff6fa" stroke="#E8E8FF"  opacity="1.000"/>
<path d="M 487.1 565.6 L 380.3 707.6 L 288.5 566.4 z" fill="#f3f8fb" stroke="#E8E8FF"  opacity="1.000"/>
<path d="M 85.3 420.6 L 116.2 407.7 L 137.4 535.7 z" fill="#eef5fa" stroke="#E8E8FF"  opacity="1.000"/>
<path d="M 34.9 450.7 L 85.3 420.6 L 137.4 535.7 z" fill="#eef5fa" stroke="#E8E8FF"  opacity="1.000"/>
<path d="M 733.5 829.3 L 891.8 813.3 L 920.0 911.4 z" fill="#fafcfd" stroke="#E8E8FF"  opacity="1.000"/>
<path d="M 891.8 813.3 L 733.5 829.3 L 866.6 553.8 z" fill="#f7fbfd" stroke="#E8E8FF"  opacity="1.000"/>
<path d="M 505.9 741.0 L 487.1 565.6 L 528.4 522.3 z" fill="#f4f9fc" stroke="#E8E8FF"  opacity="1.000"/>
<path d="M 580.0 999.2 L 235.0 997.8 L 392.5 982.1 z" fill="#f8fbfd" stroke="#E8E8FF"  opacity="1.000"/>
<path d="M 514.3 981.4 L 580.0 999.2 L 392.5 982.1 z" fill="#f9fcfd" stroke="#E8E8FF"  opacity="1.000"/>
<path d="M 1332.3 999.3 L 580.0 999.2 L 929.5 994.6 z" fill="#fafcfd" stroke="#E8E8FF"  opacity="1.000"/>
<path d="M 580.0 999.2 L 630.6 972.5 L 929.5 994.6 z" fill="#f8fbfd" stroke="#E8E8FF"  opacity="1.000"/>
<path d="M 580.0 999.2 L 101.7 999.8 L 235.0 997.8 z" fill="#f5f9fc" stroke="#E8E8FF"  opacity="1.000"/>
<path d="M 580.0 999.2 L 23.4 1000.0 L 101.7 999.8 z" fill="#f4f9fb" stroke="#E8E8FF"  opacity="1.000"/>
<path d="M 580.0 999.2 L 1332.3 999.3 L 1396.0 999.4 z" fill="#f8fbfd" stroke="#E8E8FF"  opacity="1.000"/>
<path d="M 23.4 1000.0 L 580.0 999.2 L 1396.0 999.4 z" fill="#f8fbfd" stroke="#E8E8FF"  opacity="1.000"/>
<path d="M 520.2 70.8 L 492.2 55.7 L 644.7 6.5 z" fill="#edf5fa" stroke="#E8E8FF"  opacity="1.000"/>
<path d="M 577.6 180.7 L 520.2 70.8 L 644.7 6.5 z" fill="#eef5fa" stroke="#E8E8FF"  opacity="1.000"/>
<path d="M 249.7 12.9 L 232.5 49.8 L 214.5 0.4 z" fill="#e7f1f8" stroke="#E8E8FF"  opacity="1.000"/>
<path d="M 249.7 12.9 L 214.5 0.4 L 644.7 6.5 z" fill="#eaf3f9" stroke="#E8E8FF"  opacity="1.000"/>
<path d="M 232.5 49.8 L 400.9 108.0 L 214.3 300.9 z" fill="#eaf3f9" stroke="#E8E8FF"  opacity="1.000"/>
<path d="M 400.9 108.0 L 412.4 397.1 L 214.3 300.9 z" fill="#edf5fa" stroke="#E8E8FF"  opacity="1.000"/>
<path d="M 141.7 382.0 L 251.2 431.0 L 116.2 407.7 z" fill="#eef5fa" stroke="#E8E8FF"  opacity="1.000"/>
<path d="M 251.2 431.0 L 141.7 382.0 L 214.3 300.9 z" fill="#edf5fa" stroke="#E8E8FF"  opacity="1.000"/>
<path d="M 934.4 91.3 L 920.8 45.8 L 986.0 35.0 z" fill="#eff6fa" stroke="#E8E8FF"  opacity="1.000"/>
<path d="M 771.8 26.2 L 877.0 42.9 L 771.6 198.3 z" fill="#eff6fa" stroke="#E8E8FF"  opacity="1.000"/>
<path d="M 877.0 42.9 L 934.4 91.3 L 771.6 198.3 z" fill="#f0f6fa" stroke="#E8E8FF"  opacity="1.000"/>
<path d="M 877.0 42.9 L 920.8 45.8 L 934.4 91.3 z" fill="#eff6fa" stroke="#E8E8FF"  opacity="1.000"/>
<path d="M 877.0 42.9 L 771.8 26.2 L 986.0 35.0 z" fill="#eff6fa" stroke="#E8E8FF"  opacity="1.000"/>
<path d="M 920.8 45.8 L 877.0 42.9 L 986.0 35.0 z" fill="#eff6fa" stroke="#E8E8FF"  opacity="1.000"/>
<path d="M 934.4 91.3 L 1055.1 221.9 L 771.6 198.3 z" fill="#f0f7fb" stroke="#E8E8FF"  opacity="1.000"/>
<path d="M 1055.1 221.9 L 860.5 412.0 L 771.6 198.3 z" fill="#f1f7fb" stroke="#E8E8FF"  opacity="1.000"/>
<path d="M 860.5 412.0 L 1055.1 221.9 L 1039.3 347.1 z" fill="#f2f7fb" stroke="#E8E8FF"  opacity="1.000"/>
<path d="M 1055.1 221.9 L 934.4 91.3 L 1082.3 64.9 z" fill="#f0f6fa" stroke="#E8E8FF"  opacity="1.000"/>
<path d="M 1055.1 221.9 L 1082.3 64.9 L 1163.8 284.2 z" fill="#f0f6fa" stroke="#E8E8FF"  opacity="1.000"/>
<path d="M 1039.3 347.1 L 1055.1 221.9 L 1163.8 284.2 z" fill="#f1f7fb" stroke="#E8E8FF"  opacity="1.000"/>
<path d="M 1911.3 599.1 L 1900.5 570.7 L 1914.1 452.5 z" fill="#f1f7fb" stroke="#E8E8FF"  opacity="1.000"/>
<path d="M 1835.8 631.7 L 1911.3 599.1 L 1919.8 763.6 z" fill="#f4f9fc" stroke="#E8E8FF"  opacity="1.000"/>
<path d="M 1900.5 570.7 L 1835.8 631.7 L 1793.4 600.5 z" fill="#f2f8fb" stroke="#E8E8FF"  opacity="1.000"/>
<path d="M 1835.8 631.7 L 1900.5 570.7 L 1911.3 599.1 z" fill="#f2f8fb" stroke="#E8E8FF"  opacity="1.000"/>
<path d="M 1886.9 997.8 L 1913.3 995.4 L 1920 1000 z" fill="#f9fbfd" stroke="#E8E8FF"  opacity="1.000"/>
<path d="M 1919.0 893.2 L 1919.4 859.4 L 1920 1000 z" fill="#fcfdfe" stroke="#E8E8FF"  opacity="1.000"/>
<path d="M 1919.4 859.4 L 1919.0 893.2 L 1918.0 867.2 z" fill="#fbfcfe" stroke="#E8E8FF"  opacity="1.000"/>
<path d="M 1506.7 797.5 L 1466.6 580.8 L 1559.9 597.7 z" fill="#f3f8fb" stroke="#E8E8FF"  opacity="1.000"/>
<path d="M 1466.6 580.8 L 1506.7 797.5 L 1356.0 739.0 z" fill="#f4f8fc" stroke="#E8E8FF"  opacity="1.000"/>
<path d="M 1506.7 797.5 L 1354.3 822.3 L 1356.0 739.0 z" fill="#f4f9fc" stroke="#E8E8FF"  opacity="1.000"/>
<path d="M 1915.3 873.5 L 1919.4 859.4 L 1918.0 867.2 z" fill="#fbfcfe" stroke="#E8E8FF"  opacity="1.000"/>
<path d="M 1919.0 893.2 L 1915.3 873.5 L 1918.0 867.2 z" fill="#fcfdfe" stroke="#E8E8FF"  opacity="1.000"/>
<path d="M 1655.1 754.7 L 1506.7 797.5 L 1559.9 597.7 z" fill="#f4f8fc" stroke="#E8E8FF"  opacity="1.000"/>
<path d="M 1919.4 859.4 L 1745.0 808.0 L 1919.8 763.6 z" fill="#f8fbfd" stroke="#E8E8FF"  opacity="1.000"/>
<path d="M 1655.1 754.7 L 1745.0 808.0 L 1678.3 804.5 z" fill="#f5f9fc" stroke="#E8E8FF"  opacity="1.000"/>
<path d="M 891.8 813.3 L 963.9 728.6 L 944.4 819.5 z" fill="#f9fbfd" stroke="#E8E8FF"  opacity="1.000"/>
<path d="M 963.9 728.6 L 984.6 730.3 L 944.4 819.5 z" fill="#f8fbfd" stroke="#E8E8FF"  opacity="1.000"/>
<path d="M 963.9 728.6 L 891.8 813.3 L 866.6 553.8 z" fill="#f7fafc" stroke="#E8E8FF"  opacity="1.000"/>
<path d="M 963.9 728.6 L 866.6 553.8 L 966.0 551.3 z" fill="#f5f9fc" stroke="#E8E8FF"  opacity="1.000"/>
<path d="M 984.6 730.3 L 963.9 728.6 L 966.0 551.3 z" fill="#f6fafc" stroke="#E8E8FF"  opacity="1.000"/>
<path d="M 1114.4 986.9 L 1332.3 999.3 L 929.5 994.6 z" fill="#f7fbfd" stroke="#E8E8FF"  opacity="1.000"/>
<path d="M 1354.3 822.3 L 1114.4 986.9 L 1045.5 899.2 z" fill="#f7fafc" stroke="#E8E8FF"  opacity="1.000"/>
<path d="M 920.0 911.4 L 1046.7 981.7 L 929.5 994.6 z" fill="#fafcfd" stroke="#E8E8FF"  opacity="1.000"/>
<path d="M 1045.5 899.2 L 1046.7 981.7 L 920.0 911.4 z" fill="#fafcfd" stroke="#E8E8FF"  opacity="1.000"/>
<path d="M 1046.7 981.7 L 1114.4 986.9 L 929.5 994.6 z" fill="#f9fbfd" stroke="#E8E8FF"  opacity="1.000"/>
<path d="M 1332.3 999.3 L 1307.4 971.8 L 1396.0 999.4 z" fill="#f6f9fc" stroke="#E8E8FF"  opacity="1.000"/>
<path d="M 1114.4 986.9 L 1307.4 971.8 L 1332.3 999.3 z" fill="#f6fafc" stroke="#E8E8FF"  opacity="1.000"/>
<path d="M 1307.4 971.8 L 1114.4 986.9 L 1354.3 822.3 z" fill="#f6fafc" stroke="#E8E8FF"  opacity="1.000"/>
<path d="M 1188.9 663.0 L 1354.3 822.3 L 1045.5 899.2 z" fill="#f6fafc" stroke="#E8E8FF"  opacity="1.000"/>
<path d="M 1354.3 822.3 L 1188.9 663.0 L 1356.0 739.0 z" fill="#f5f9fc" stroke="#E8E8FF"  opacity="1.000"/>
<path d="M 1188.9 663.0 L 1466.6 580.8 L 1356.0 739.0 z" fill="#f4f8fc" stroke="#E8E8FF"  opacity="1.000"/>
<path d="M 1054.0 571.6 L 1188.9 663.0 L 1119.7 663.3 z" fill="#f5f9fc" stroke="#E8E8FF"  opacity="1.000"/>
<path d="M 1682.0 95.3 L 1459.6 26.5 L 1658.5 7.2 z" fill="#e9f2f9" stroke="#E8E8FF"  opacity="1.000"/>
<path d="M 1567.1 232.2 L 1682.0 95.3 L 1678.1 141.1 z" fill="#e9f3f9" stroke="#E8E8FF"  opacity="1.000"/>
<path d="M 1682.0 95.3 L 1567.1 232.2 L 1459.6 26.5 z" fill="#eaf3f9" stroke="#E8E8FF"  opacity="1.000"/>
<path d="M 1331.2 177.8 L 1082.3 64.9 L 1349.4 0.1 z" fill="#eef5fa" stroke="#E8E8FF"  opacity="1.000"/>
<path d="M 1082.3 64.9 L 1331.2 177.8 L 1163.8 284.2 z" fill="#eff6fa" stroke="#E8E8FF"  opacity="1.000"/>
<path d="M 1516.0 300.4 L 1567.1 232.2 L 1649.9 294.0 z" fill="#edf5fa" stroke="#E8E8FF"  opacity="1.000"/>
<path d="M 1466.6 580.8 L 1516.0 300.4 L 1559.9 597.7 z" fill="#f1f7fb" stroke="#E8E8FF"  opacity="1.000"/>
<path d="M 1516.0 300.4 L 1711.6 387.3 L 1559.9 597.7 z" fill="#eff6fa" stroke="#E8E8FF"  opacity="1.000"/>
<path d="M 1614.3 604.7 L 1655.1 754.7 L 1559.9 597.7 z" fill="#f3f8fb" stroke="#E8E8FF"  opacity="1.000"/>
<path d="M 1783.9 445.8 L 1900.5 570.7 L 1793.4 600.5 z" fill="#f1f7fb" stroke="#E8E8FF"  opacity="1.000"/>
<path d="M 1681.4 322.6 L 1516.0 300.4 L 1649.9 294.0 z" fill="#edf5fa" stroke="#E8E8FF"  opacity="1.000"/>
<path d="M 1516.0 300.4 L 1681.4 322.6 L 1711.6 387.3 z" fill="#edf5fa" stroke="#E8E8FF"  opacity="1.000"/>
<path d="M 1075.2 29.1 L 1014.7 36.5 L 986.0 35.0 z" fill="#eff6fa" stroke="#E8E8FF"  opacity="1.000"/>
<path d="M 1014.7 36.5 L 1075.2 29.1 L 1082.3 64.9 z" fill="#eff6fa" stroke="#E8E8FF"  opacity="1.000"/>
<path d="M 1014.7 36.5 L 934.4 91.3 L 986.0 35.0 z" fill="#eff6fa" stroke="#E8E8FF"  opacity="1.000"/>
<path d="M 934.4 91.3 L 1014.7 36.5 L 1082.3 64.9 z" fill="#eff6fa" stroke="#E8E8FF"  opacity="1.000"/>
<path d="M 971.4 434.8 L 860.5 412.0 L 1039.3 347.1 z" fill="#f3f8fb" stroke="#E8E8FF"  opacity="1.000"/>
<path d="M 866.6 553.8 L 971.4 434.8 L 966.0 551.3 z" fill="#f4f9fc" stroke="#E8E8FF"  opacity="1.000"/>
<path d="M 860.5 412.0 L 971.4 434.8 L 866.6 553.8 z" fill="#f3f8fb" stroke="#E8E8FF"  opacity="1.000"/>
<path d="M 860.5 412.0 L 666.3 281.8 L 771.6 198.3 z" fill="#f1f7fb" stroke="#E8E8FF"  opacity="1.000"/>
<path d="M 666.3 281.8 L 860.5 412.0 L 625.3 323.9 z" fill="#f1f7fb" stroke="#E8E8FF"  opacity="1.000"/>
<path d="M 666.3 281.8 L 577.6 180.7 L 771.6 198.3 z" fill="#f0f6fa" stroke="#E8E8FF"  opacity="1.000"/>
<path d="M 666.3 281.8 L 625.3 323.9 L 577.6 180.7 z" fill="#f0f7fa" stroke="#E8E8FF"  opacity="1.000"/>
<path d="M 860.5 412.0 L 587.2 394.9 L 625.3 323.9 z" fill="#f2f8fb" stroke="#E8E8FF"  opacity="1.000"/>
<path d="M 625.3 323.9 L 587.2 394.9 L 412.4 397.1 z" fill="#f1f7fb" stroke="#E8E8FF"  opacity="1.000"/>
<path d="M 587.2 394.9 L 866.6 553.8 L 528.4 522.3 z" fill="#f3f8fb" stroke="#E8E8FF"  opacity="1.000"/>
<path d="M 587.2 394.9 L 860.5 412.0 L 866.6 553.8 z" fill="#f3f8fb" stroke="#E8E8FF"  opacity="1.000"/>
<path d="M 20.1 238.5 L 79.1 213.3 L 86.1 247.6 z" fill="#e8f2f8" stroke="#E8E8FF"  opacity="1.000"/>
<path d="M 79.1 213.3 L 20.1 238.5 L 19.5 215.7 z" fill="#e7f2f8" stroke="#E8E8FF"  opacity="1.000"/>
<path d="M 79.1 213.3 L 36.9 85.7 L 232.5 49.8 z" fill="#e4f0f7" stroke="#E8E8FF"  opacity="1.000"/>
<path d="M 79.1 213.3 L 214.3 300.9 L 86.1 247.6 z" fill="#e9f3f9" stroke="#E8E8FF"  opacity="1.000"/>
<path d="M 79.1 213.3 L 232.5 49.8 L 214.3 300.9 z" fill="#e8f2f8" stroke="#E8E8FF"  opacity="1.000"/>
<path d="M 25.4 176.8 L 79.1 213.3 L 19.5 215.7 z" fill="#e6f1f8" stroke="#E8E8FF"  opacity="1.000"/>
<path d="M 79.1 213.3 L 25.4 176.8 L 36.9 85.7 z" fill="#e4f0f7" stroke="#E8E8FF"  opacity="1.000"/>
<path d="M 232.5 49.8 L 50.0 42.4 L 214.5 0.4 z" fill="#e4f0f7" stroke="#E8E8FF"  opacity="1.000"/>
<path d="M 36.9 85.7 L 50.0 42.4 L 232.5 49.8 z" fill="#e2eff7" stroke="#E8E8FF"  opacity="1.000"/>
<path d="M 50.0 42.4 L 18.4 17.0 L 214.5 0.4 z" fill="#e0eef6" stroke="#E8E8FF"  opacity="1.000"/>
<path d="M 1.4 950.1 L 9.7 999.5 L 0 1000 z" fill="#eef6fa" stroke="#E8E8FF"  opacity="1.000"/>
<path d="M 9.7 999.5 L 23.4 1000.0 L 0 1000 z" fill="#eff6fa" stroke="#E8E8FF"  opacity="1.000"/>
<path d="M 23.4 1000.0 L 35.8 987.2 L 101.7 999.8 z" fill="#eff6fa" stroke="#E8E8FF"  opacity="1.000"/>
<path d="M 35.8 987.2 L 9.7 999.5 L 1.4 950.1 z" fill="#eef6fa" stroke="#E8E8FF"  opacity="1.000"/>
<path d="M 9.7 999.5 L 35.8 987.2 L 23.4 1000.0 z" fill="#eff6fa" stroke="#E8E8FF"  opacity="1.000"/>
<path d="M 21.0 684.0 L 2.0 693.4 L 0.9 684.1 z" fill="#eff6fa" stroke="#E8E8FF"  opacity="1.000"/>
<path d="M 30.8 682.0 L 21.0 684.0 L 0.9 684.1 z" fill="#eff6fa" stroke="#E8E8FF"  opacity="1.000"/>
<path d="M 2.0 693.4 L 21.0 684.0 L 1.6 705.4 z" fill="#eff6fa" stroke="#E8E8FF"  opacity="1.000"/>
<path d="M 1.6 705.4 L 21.0 684.0 L 47.7 721.7 z" fill="#eff6fa" stroke="#E8E8FF"  opacity="1.000"/>
<path d="M 21.0 684.0 L 30.8 682.0 L 47.7 721.7 z" fill="#eff6fa" stroke="#E8E8FF"  opacity="1.000"/>
<path d="M 474.3 503.1 L 288.5 566.4 L 350.8 410.9 z" fill="#f1f7fb" stroke="#E8E8FF"  opacity="1.000"/>
<path d="M 474.3 503.1 L 487.1 565.6 L 288.5 566.4 z" fill="#f2f8fb" stroke="#E8E8FF"  opacity="1.000"/>
<path d="M 412.4 397.1 L 474.3 503.1 L 350.8 410.9 z" fill="#f1f7fb" stroke="#E8E8FF"  opacity="1.000"/>
<path d="M 487.1 565.6 L 474.3 503.1 L 528.4 522.3 z" fill="#f3f8fb" stroke="#E8E8FF"  opacity="1.000"/>
<path d="M 474.3 503.1 L 587.2 394.9 L 528.4 522.3 z" fill="#f2f8fb" stroke="#E8E8FF"  opacity="1.000"/>
<path d="M 587.2 394.9 L 474.3 503.1 L 412.4 397.1 z" fill="#f1f7fb" stroke="#E8E8FF"  opacity="1.000"/>
<path d="M 85.3 420.6 L 105.1 388.5 L 116.2 407.7 z" fill="#edf5fa" stroke="#E8E8FF"  opacity="1.000"/>
<path d="M 105.1 388.5 L 141.7 382.0 L 116.2 407.7 z" fill="#edf5fa" stroke="#E8E8FF"  opacity="1.000"/>
<path d="M 380.3 707.6 L 469.1 737.5 L 403.7 924.5 z" fill="#f7fafc" stroke="#E8E8FF"  opacity="1.000"/>
<path d="M 469.1 737.5 L 505.9 741.0 L 403.7 924.5 z" fill="#f8fbfd" stroke="#E8E8FF"  opacity="1.000"/>
<path d="M 487.1 565.6 L 469.1 737.5 L 380.3 707.6 z" fill="#f5f9fc" stroke="#E8E8FF"  opacity="1.000"/>
<path d="M 505.9 741.0 L 469.1 737.5 L 487.1 565.6 z" fill="#f5f9fc" stroke="#E8E8FF"  opacity="1.000"/>
<path d="M 505.9 741.0 L 587.2 859.8 L 403.7 924.5 z" fill="#fafcfd" stroke="#E8E8FF"  opacity="1.000"/>
<path d="M 101.7 999.8 L 152.6 995.4 L 235.0 997.8 z" fill="#f2f8fb" stroke="#E8E8FF"  opacity="1.000"/>
<path d="M 147.3 961.1 L 71.8 907.8 L 191.5 841.9 z" fill="#f0f7fa" stroke="#E8E8FF"  opacity="1.000"/>
<path d="M 71.8 907.8 L 35.8 987.2 L 1.4 950.1 z" fill="#eef5fa" stroke="#E8E8FF"  opacity="1.000"/>
<path d="M 249.7 12.9 L 354.4 39.3 L 232.5 49.8 z" fill="#e8f2f8" stroke="#E8E8FF"  opacity="1.000"/>
<path d="M 354.4 39.3 L 400.9 108.0 L 232.5 49.8 z" fill="#eaf3f9" stroke="#E8E8FF"  opacity="1.000"/>
<path d="M 354.4 39.3 L 414.6 53.6 L 400.9 108.0 z" fill="#ebf4f9" stroke="#E8E8FF"  opacity="1.000"/>
<path d="M 354.4 39.3 L 249.7 12.9 L 644.7 6.5 z" fill="#ebf4f9" stroke="#E8E8FF"  opacity="1.000"/>
<path d="M 492.2 55.7 L 354.4 39.3 L 644.7 6.5 z" fill="#edf5fa" stroke="#E8E8FF"  opacity="1.000"/>
<path d="M 414.6 53.6 L 354.4 39.3 L 492.2 55.7 z" fill="#ecf4f9" stroke="#E8E8FF"  opacity="1.000"/>
<path d="M 443.6 106.2 L 577.6 180.7 L 412.4 397.1 z" fill="#eef6fa" stroke="#E8E8FF"  opacity="1.000"/>
<path d="M 400.9 108.0 L 443.6 106.2 L 412.4 397.1 z" fill="#edf5fa" stroke="#E8E8FF"  opacity="1.000"/>
<path d="M 443.6 106.2 L 520.2 70.8 L 577.6 180.7 z" fill="#eef5fa" stroke="#E8E8FF"  opacity="1.000"/>
<path d="M 520.2 70.8 L 443.6 106.2 L 492.2 55.7 z" fill="#edf5fa" stroke="#E8E8FF"  opacity="1.000"/>
<path d="M 443.6 106.2 L 414.6 53.6 L 492.2 55.7 z" fill="#ecf4f9" stroke="#E8E8FF"  opacity="1.000"/>
<path d="M 414.6 53.6 L 443.6 106.2 L 400.9 108.0 z" fill="#ecf4f9" stroke="#E8E8FF"  opacity="1.000"/>
<path d="M 141.7 382.0 L 165.7 309.1 L 214.3 300.9 z" fill="#ecf4f9" stroke="#E8E8FF"  opacity="1.000"/>
<path d="M 214.3 300.9 L 165.7 309.1 L 86.1 247.6 z" fill="#ebf4f9" stroke="#E8E8FF"  opacity="1.000"/>
<path d="M 165.7 309.1 L 135.5 305.4 L 86.1 247.6 z" fill="#eaf3f9" stroke="#E8E8FF"  opacity="1.000"/>
<path d="M 1506.7 797.5 L 1446.9 897.4 L 1354.3 822.3 z" fill="#f5f9fc" stroke="#E8E8FF"  opacity="1.000"/>
<path d="M 1307.4 971.8 L 1446.9 897.4 L 1396.0 999.4 z" fill="#f5f9fc" stroke="#E8E8FF"  opacity="1.000"/>
<path d="M 1446.9 897.4 L 1307.4 971.8 L 1354.3 822.3 z" fill="#f5f9fc" stroke="#E8E8FF"  opacity="1.000"/>
<path d="M 1789.5 692.8 L 1835.8 631.7 L 1919.8 763.6 z" fill="#f5f9fc" stroke="#E8E8FF"  opacity="1.000"/>
<path d="M 1745.0 808.0 L 1789.5 692.8 L 1919.8 763.6 z" fill="#f6fafc" stroke="#E8E8FF"  opacity="1.000"/>
<path d="M 1789.5 692.8 L 1745.0 808.0 L 1655.1 754.7 z" fill="#f5f9fc" stroke="#E8E8FF"  opacity="1.000"/>
<path d="M 1915.3 873.5 L 1903.6 886.1 L 1919.4 859.4 z" fill="#fcfdfe" stroke="#E8E8FF"  opacity="1.000"/>
<path d="M 1903.6 886.1 L 1915.3 873.5 L 1919.0 893.2 z" fill="#fcfdfe" stroke="#E8E8FF"  opacity="1.000"/>
<path d="M 1745.0 808.0 L 1745.4 823.7 L 1678.3 804.5 z" fill="#f6fafc" stroke="#E8E8FF"  opacity="1.000"/>
<path d="M 1745.4 823.7 L 1884.3 933.9 L 1742.2 971.5 z" fill="#f8fbfd" stroke="#E8E8FF"  opacity="1.000"/>
<path d="M 1745.4 823.7 L 1903.6 886.1 L 1884.3 933.9 z" fill="#fafcfe" stroke="#E8E8FF"  opacity="1.000"/>
<path d="M 1745.4 823.7 L 1745.0 808.0 L 1919.4 859.4 z" fill="#f8fbfd" stroke="#E8E8FF"  opacity="1.000"/>
<path d="M 1903.6 886.1 L 1745.4 823.7 L 1919.4 859.4 z" fill="#fafcfd" stroke="#E8E8FF"  opacity="1.000"/>
<path d="M 1114.4 986.9 L 1102.1 979.4 L 1045.5 899.2 z" fill="#f8fbfd" stroke="#E8E8FF"  opacity="1.000"/>
<path d="M 1102.1 979.4 L 1046.7 981.7 L 1045.5 899.2 z" fill="#f8fbfd" stroke="#E8E8FF"  opacity="1.000"/>
<path d="M 1046.7 981.7 L 1102.1 979.4 L 1114.4 986.9 z" fill="#f8fbfd" stroke="#E8E8FF"  opacity="1.000"/>
<path d="M 1188.9 663.0 L 1131.7 673.6 L 1119.7 663.3 z" fill="#f5f9fc" stroke="#E8E8FF"  opacity="1.000"/>
<path d="M 1131.7 673.6 L 1188.9 663.0 L 1045.5 899.2 z" fill="#f6fafc" stroke="#E8E8FF"  opacity="1.000"/>
<path d="M 1131.7 673.6 L 984.6 730.3 L 1119.7 663.3 z" fill="#f6fafc" stroke="#E8E8FF"  opacity="1.000"/>
<path d="M 1131.7 673.6 L 1045.5 899.2 L 984.6 730.3 z" fill="#f7fafd" stroke="#E8E8FF"  opacity="1.000"/>
<path d="M 1188.9 663.0 L 1207.6 462.2 L 1466.6 580.8 z" fill="#f3f8fb" stroke="#E8E8FF"  opacity="1.000"/>
<path d="M 1207.6 462.2 L 1516.0 300.4 L 1466.6 580.8 z" fill="#f1f7fb" stroke="#E8E8FF"  opacity="1.000"/>
<path d="M 1207.6 462.2 L 1188.9 663.0 L 1054.0 571.6 z" fill="#f4f9fc" stroke="#E8E8FF"  opacity="1.000"/>
<path d="M 1331.2 177.8 L 1207.6 462.2 L 1163.8 284.2 z" fill="#f1f7fb" stroke="#E8E8FF"  opacity="1.000"/>
<path d="M 1516.0 300.4 L 1207.6 462.2 L 1331.2 177.8 z" fill="#f0f6fa" stroke="#E8E8FF"  opacity="1.000"/>
<path d="M 1207.6 462.2 L 1039.3 347.1 L 1163.8 284.2 z" fill="#f2f7fb" stroke="#E8E8FF"  opacity="1.000"/>
<path d="M 1725.8 0.7 L 1658.5 7.2 L 1349.4 0.1 z" fill="#e9f3f9" stroke="#E8E8FF"  opacity="1.000"/>
<path d="M 1814.8 0.0 L 1725.8 0.7 L 1349.4 0.1 z" fill="#e7f2f8" stroke="#E8E8FF"  opacity="1.000"/>
<path d="M 1879.1 305.8 L 1859.6 202.6 L 1916.2 242.6 z" fill="#e8f2f8" stroke="#E8E8FF"  opacity="1.000"/>
<path d="M 1567.1 232.2 L 1371.7 145.1 L 1437.3 46.2 z" fill="#edf5fa" stroke="#E8E8FF"  opacity="1.000"/>
<path d="M 1371.7 145.1 L 1349.4 0.1 L 1437.3 46.2 z" fill="#edf5fa" stroke="#E8E8FF"  opacity="1.000"/>
<path d="M 1371.7 145.1 L 1331.2 177.8 L 1349.4 0.1 z" fill="#eef5fa" stroke="#E8E8FF"  opacity="1.000"/>
<path d="M 1516.0 300.4 L 1371.7 145.1 L 1567.1 232.2 z" fill="#edf5fa" stroke="#E8E8FF"  opacity="1.000"/>
<path d="M 1371.7 145.1 L 1516.0 300.4 L 1331.2 177.8 z" fill="#eef5fa" stroke="#E8E8FF"  opacity="1.000"/>
<path d="M 1900.5 570.7 L 1907.1 448.6 L 1914.1 452.5 z" fill="#f0f6fa" stroke="#E8E8FF"  opacity="1.000"/>
<path d="M 1783.9 445.8 L 1907.1 448.6 L 1900.5 570.7 z" fill="#f0f6fa" stroke="#E8E8FF"  opacity="1.000"/>
<path d="M 1697.2 552.2 L 1783.9 445.8 L 1793.4 600.5 z" fill="#f1f7fb" stroke="#E8E8FF"  opacity="1.000"/>
<path d="M 1783.9 445.8 L 1697.2 552.2 L 1711.6 387.3 z" fill="#eff6fa" stroke="#E8E8FF"  opacity="1.000"/>
<path d="M 1711.6 387.3 L 1697.2 552.2 L 1559.9 597.7 z" fill="#f1f7fb" stroke="#E8E8FF"  opacity="1.000"/>
<path d="M 1697.2 552.2 L 1614.3 604.7 L 1559.9 597.7 z" fill="#f2f7fb" stroke="#E8E8FF"  opacity="1.000"/>
<path d="M 36.9 85.7 L 6.9 97.7 L 0.8 69.5 z" fill="#dfedf6" stroke="#E8E8FF"  opacity="1.000"/>
<path d="M 25.4 176.8 L 6.9 97.7 L 36.9 85.7 z" fill="#e2eff7" stroke="#E8E8FF"  opacity="1.000"/>
<path d="M 0.8 69.5 L 6.9 97.7 L 19.5 215.7 z" fill="#e2eff7" stroke="#E8E8FF"  opacity="1.000"/>
<path d="M 6.9 97.7 L 25.4 176.8 L 19.5 215.7 z" fill="#e4f0f7" stroke="#E8E8FF"  opacity="1.000"/>
<path d="M 44.0 49.4 L 36.9 85.7 L 0.8 69.5 z" fill="#deedf6" stroke="#E8E8FF"  opacity="1.000"/>
<path d="M 44.0 49.4 L 50.0 42.4 L 36.9 85.7 z" fill="#deedf6" stroke="#E8E8FF"  opacity="1.000"/>
<path d="M 18.4 17.0 L 44.0 49.4 L 0.8 69.5 z" fill="#dcecf5" stroke="#E8E8FF"  opacity="1.000"/>
<path d="M 50.0 42.4 L 44.0 49.4 L 18.4 17.0 z" fill="#dcecf5" stroke="#E8E8FF"  opacity="1.000"/>
<path d="M 134.8 350.3 L 105.1 388.5 L 135.5 305.4 z" fill="#ecf4f9" stroke="#E8E8FF"  opacity="1.000"/>
<path d="M 105.1 388.5 L 134.8 350.3 L 141.7 382.0 z" fill="#ecf5f9" stroke="#E8E8FF"  opacity="1.000"/>
<path d="M 165.7 309.1 L 134.8 350.3 L 135.5 305.4 z" fill="#ebf4f9" stroke="#E8E8FF"  opacity="1.000"/>
<path d="M 134.8 350.3 L 165.7 309.1 L 141.7 382.0 z" fill="#ecf4f9" stroke="#E8E8FF"  opacity="1.000"/>
<path d="M 6.0 373.2 L 85.3 420.6 L 34.9 450.7 z" fill="#edf5f9" stroke="#E8E8FF"  opacity="1.000"/>
<path d="M 6.0 373.2 L 105.1 388.5 L 85.3 420.6 z" fill="#ecf4f9" stroke="#E8E8FF"  opacity="1.000"/>
<path d="M 6.0 373.2 L 34.9 450.7 L 1.0 458.3 z" fill="#edf5f9" stroke="#E8E8FF"  opacity="1.000"/>
<path d="M 6.0 373.2 L 20.1 238.5 L 86.1 247.6 z" fill="#e9f3f9" stroke="#E8E8FF"  opacity="1.000"/>
<path d="M 0.8 69.5 L 6.0 373.2 L 1.0 458.3 z" fill="#eaf3f9" stroke="#E8E8FF"  opacity="1.000"/>
<path d="M 135.5 305.4 L 6.0 373.2 L 86.1 247.6 z" fill="#eaf3f9" stroke="#E8E8FF"  opacity="1.000"/>
<path d="M 105.1 388.5 L 6.0 373.2 L 135.5 305.4 z" fill="#ecf4f9" stroke="#E8E8FF"  opacity="1.000"/>
<path d="M 6.0 373.2 L 0.8 69.5 L 19.5 215.7 z" fill="#e7f1f8" stroke="#E8E8FF"  opacity="1.000"/>
<path d="M 20.1 238.5 L 6.0 373.2 L 19.5 215.7 z" fill="#e9f3f8" stroke="#E8E8FF"  opacity="1.000"/>
<path d="M 527.8 975.7 L 514.3 981.4 L 403.7 924.5 z" fill="#fafcfd" stroke="#E8E8FF"  opacity="1.000"/>
<path d="M 587.2 859.8 L 527.8 975.7 L 403.7 924.5 z" fill="#fdfdfe" stroke="#E8E8FF"  opacity="1.000"/>
<path d="M 527.8 975.7 L 580.0 999.2 L 514.3 981.4 z" fill="#f9fcfd" stroke="#E8E8FF"  opacity="1.000"/>
<path d="M 630.6 972.5 L 679.5 898.3 L 929.5 994.6 z" fill="#f9fbfd" stroke="#E8E8FF"  opacity="1.000"/>
<path d="M 679.5 898.3 L 920.0 911.4 L 929.5 994.6 z" fill="#fafcfd" stroke="#E8E8FF"  opacity="1.000"/>
<path d="M 679.5 898.3 L 733.5 829.3 L 920.0 911.4 z" fill="#f9fbfd" stroke="#E8E8FF"  opacity="1.000"/>
<path d="M 664.4 816.1 L 587.2 859.8 L 505.9 741.0 z" fill="#f8fbfd" stroke="#E8E8FF"  opacity="1.000"/>
<path d="M 664.4 816.1 L 505.9 741.0 L 528.4 522.3 z" fill="#f6fafc" stroke="#E8E8FF"  opacity="1.000"/>
<path d="M 679.5 898.3 L 664.4 816.1 L 733.5 829.3 z" fill="#f8fbfd" stroke="#E8E8FF"  opacity="1.000"/>
<path d="M 664.4 816.1 L 679.5 898.3 L 587.2 859.8 z" fill="#f8fbfd" stroke="#E8E8FF"  opacity="1.000"/>
<path d="M 866.6 553.8 L 664.4 816.1 L 528.4 522.3 z" fill="#f5f9fc" stroke="#E8E8FF"  opacity="1.000"/>
<path d="M 733.5 829.3 L 664.4 816.1 L 866.6 553.8 z" fill="#f7fafc" stroke="#E8E8FF"  opacity="1.000"/>
<path d="M 152.6 995.4 L 179.4 989.7 L 235.0 997.8 z" fill="#f3f8fb" stroke="#E8E8FF"  opacity="1.000"/>
<path d="M 179.4 989.7 L 152.6 995.4 L 147.3 961.1 z" fill="#f2f7fb" stroke="#E8E8FF"  opacity="1.000"/>
<path d="M 179.4 989.7 L 276.1 972.9 L 235.0 997.8 z" fill="#f3f8fb" stroke="#E8E8FF"  opacity="1.000"/>
<path d="M 276.1 972.9 L 179.4 989.7 L 191.5 841.9 z" fill="#f3f8fb" stroke="#E8E8FF"  opacity="1.000"/>
<path d="M 179.4 989.7 L 147.3 961.1 L 191.5 841.9 z" fill="#f2f7fb" stroke="#E8E8FF"  opacity="1.000"/>
<path d="M 191.5 841.9 L 69.8 847.8 L 111.7 789.9 z" fill="#f0f7fa" stroke="#E8E8FF"  opacity="1.000"/>
<path d="M 71.8 907.8 L 69.8 847.8 L 191.5 841.9 z" fill="#f0f6fa" stroke="#E8E8FF"  opacity="1.000"/>
<path d="M 69.8 847.8 L 70.5 774.0 L 111.7 789.9 z" fill="#eff6fa" stroke="#E8E8FF"  opacity="1.000"/>
<path d="M 69.8 847.8 L 71.8 907.8 L 1.4 950.1 z" fill="#edf5f9" stroke="#E8E8FF"  opacity="1.000"/>
<path d="M 69.8 847.8 L 1.4 950.1 L 1.6 705.4 z" fill="#eef5fa" stroke="#E8E8FF"  opacity="1.000"/>
<path d="M 70.5 774.0 L 69.8 847.8 L 1.6 705.4 z" fill="#eff6fa" stroke="#E8E8FF"  opacity="1.000"/>
<path d="M 122.3 966.7 L 71.8 907.8 L 147.3 961.1 z" fill="#f0f7fa" stroke="#E8E8FF"  opacity="1.000"/>
<path d="M 122.3 966.7 L 152.6 995.4 L 101.7 999.8 z" fill="#f1f7fb" stroke="#E8E8FF"  opacity="1.000"/>
<path d="M 152.6 995.4 L 122.3 966.7 L 147.3 961.1 z" fill="#f1f7fb" stroke="#E8E8FF"  opacity="1.000"/>
<path d="M 35.8 987.2 L 122.3 966.7 L 101.7 999.8 z" fill="#f0f6fa" stroke="#E8E8FF"  opacity="1.000"/>
<path d="M 71.8 907.8 L 122.3 966.7 L 35.8 987.2 z" fill="#eff6fa" stroke="#E8E8FF"  opacity="1.000"/>
<path d="M 1813.1 999.5 L 1768.6 995.4 L 1742.2 971.5 z" fill="#f8fafd" stroke="#E8E8FF"  opacity="1.000"/>
<path d="M 1884.3 933.9 L 1813.1 999.5 L 1742.2 971.5 z" fill="#f9fbfd" stroke="#E8E8FF"  opacity="1.000"/>
<path d="M 1813.1 999.5 L 1886.9 997.8 L 1920 1000 z" fill="#f9fbfd" stroke="#E8E8FF"  opacity="1.000"/>
<path d="M 1883.0 944.5 L 1913.3 995.4 L 1886.9 997.8 z" fill="#fafbfd" stroke="#E8E8FF"  opacity="1.000"/>
<path d="M 1883.0 944.5 L 1813.1 999.5 L 1884.3 933.9 z" fill="#fafcfd" stroke="#E8E8FF"  opacity="1.000"/>
<path d="M 1614.3 604.7 L 1773.0 637.5 L 1655.1 754.7 z" fill="#f3f8fc" stroke="#E8E8FF"  opacity="1.000"/>
<path d="M 1773.0 637.5 L 1789.5 692.8 L 1655.1 754.7 z" fill="#f4f9fc" stroke="#E8E8FF"  opacity="1.000"/>
<path d="M 1697.2 552.2 L 1773.0 637.5 L 1614.3 604.7 z" fill="#f2f8fb" stroke="#E8E8FF"  opacity="1.000"/>
<path d="M 1773.0 637.5 L 1697.2 552.2 L 1793.4 600.5 z" fill="#f2f8fb" stroke="#E8E8FF"  opacity="1.000"/>
<path d="M 1835.8 631.7 L 1773.0 637.5 L 1793.4 600.5 z" fill="#f3f8fb" stroke="#E8E8FF"  opacity="1.000"/>
<path d="M 1789.5 692.8 L 1773.0 637.5 L 1835.8 631.7 z" fill="#f4f8fc" stroke="#E8E8FF"  opacity="1.000"/>
<path d="M 1906.2 918.2 L 1903.6 886.1 L 1919.0 893.2 z" fill="#fdfdfe" stroke="#E8E8FF"  opacity="1.000"/>
<path d="M 1903.6 886.1 L 1906.2 918.2 L 1884.3 933.9 z" fill="#fdfdfe" stroke="#E8E8FF"  opacity="1.000"/>
<path d="M 1913.3 995.4 L 1906.2 918.2 L 1920 1000 z" fill="#fafcfd" stroke="#E8E8FF"  opacity="1.000"/>
<path d="M 1906.2 918.2 L 1919.0 893.2 L 1920 1000 z" fill="#fbfcfe" stroke="#E8E8FF"  opacity="1.000"/>
<path d="M 1883.0 944.5 L 1906.2 918.2 L 1913.3 995.4 z" fill="#fbfcfe" stroke="#E8E8FF"  opacity="1.000"/>
<path d="M 1906.2 918.2 L 1883.0 944.5 L 1884.3 933.9 z" fill="#fcfcfe" stroke="#E8E8FF"  opacity="1.000"/>
<path d="M 1059.3 510.8 L 1207.6 462.2 L 1054.0 571.6 z" fill="#f3f8fb" stroke="#E8E8FF"  opacity="1.000"/>
<path d="M 1059.3 510.8 L 1054.0 571.6 L 966.0 551.3 z" fill="#f4f9fc" stroke="#E8E8FF"  opacity="1.000"/>
<path d="M 971.4 434.8 L 1059.3 510.8 L 966.0 551.3 z" fill="#f4f8fc" stroke="#E8E8FF"  opacity="1.000"/>
<path d="M 1059.3 510.8 L 971.4 434.8 L 1039.3 347.1 z" fill="#f3f8fb" stroke="#E8E8FF"  opacity="1.000"/>
<path d="M 1207.6 462.2 L 1059.3 510.8 L 1039.3 347.1 z" fill="#f3f8fb" stroke="#E8E8FF"  opacity="1.000"/>
<path d="M 1711.3 9.1 L 1682.0 95.3 L 1658.5 7.2 z" fill="#e6f1f8" stroke="#E8E8FF"  opacity="1.000"/>
<path d="M 1725.8 0.7 L 1711.3 9.1 L 1658.5 7.2 z" fill="#e5f0f8" stroke="#E8E8FF"  opacity="1.000"/>
<path d="M 1851.9 0.2 L 1813.0 91.0 L 1814.8 0.0 z" fill="#deedf6" stroke="#E8E8FF"  opacity="1.000"/>
<path d="M 1813.0 91.0 L 1725.8 0.7 L 1814.8 0.0 z" fill="#e1eef6" stroke="#E8E8FF"  opacity="1.000"/>
<path d="M 1681.4 322.6 L 1749.8 288.7 L 1711.6 387.3 z" fill="#ecf4fa" stroke="#E8E8FF"  opacity="1.000"/>
<path d="M 1749.8 288.7 L 1796.1 333.9 L 1711.6 387.3 z" fill="#ecf4f9" stroke="#E8E8FF"  opacity="1.000"/>
<path d="M 1705.6 204.5 L 1749.8 288.7 L 1649.9 294.0 z" fill="#ebf4f9" stroke="#E8E8FF"  opacity="1.000"/>
<path d="M 1749.8 288.7 L 1681.4 322.6 L 1649.9 294.0 z" fill="#ecf4f9" stroke="#E8E8FF"  opacity="1.000"/>
<path d="M 1859.6 202.6 L 1749.8 288.7 L 1705.6 204.5 z" fill="#e9f2f9" stroke="#E8E8FF"  opacity="1.000"/>
<path d="M 1749.8 288.7 L 1807.1 328.1 L 1796.1 333.9 z" fill="#ebf4f9" stroke="#E8E8FF"  opacity="1.000"/>
<path d="M 1807.1 328.1 L 1859.6 202.6 L 1879.1 305.8 z" fill="#e9f3f9" stroke="#E8E8FF"  opacity="1.000"/>
<path d="M 1807.1 328.1 L 1749.8 288.7 L 1859.6 202.6 z" fill="#eaf3f9" stroke="#E8E8FF"  opacity="1.000"/>
<path d="M 580.0 999.2 L 606.8 968.5 L 630.6 972.5 z" fill="#f9fbfd" stroke="#E8E8FF"  opacity="1.000"/>
<path d="M 527.8 975.7 L 606.8 968.5 L 580.0 999.2 z" fill="#f9fcfd" stroke="#E8E8FF"  opacity="1.000"/>
<path d="M 606.8 968.5 L 527.8 975.7 L 587.2 859.8 z" fill="#fafcfd" stroke="#E8E8FF"  opacity="1.000"/>
<path d="M 606.8 968.5 L 679.5 898.3 L 630.6 972.5 z" fill="#f9fbfd" stroke="#E8E8FF"  opacity="1.000"/>
<path d="M 679.5 898.3 L 606.8 968.5 L 587.2 859.8 z" fill="#f9fbfd" stroke="#E8E8FF"  opacity="1.000"/>
<path d="M 1446.9 897.4 L 1429.7 989.5 L 1396.0 999.4 z" fill="#f5f9fc" stroke="#E8E8FF"  opacity="1.000"/>
<path d="M 1429.7 989.5 L 1459.8 998.0 L 1396.0 999.4 z" fill="#f5f9fc" stroke="#E8E8FF"  opacity="1.000"/>
<path d="M 1768.6 995.4 L 1756.5 993.0 L 1742.2 971.5 z" fill="#f7fafd" stroke="#E8E8FF"  opacity="1.000"/>
<path d="M 1579.2 999.6 L 1459.8 998.0 L 1446.9 897.4 z" fill="#f5f9fc" stroke="#E8E8FF"  opacity="1.000"/>
<path d="M 1756.5 993.0 L 1579.2 999.6 L 1742.2 971.5 z" fill="#f6fafc" stroke="#E8E8FF"  opacity="1.000"/>
<path d="M 1579.2 999.6 L 1756.5 993.0 L 1768.6 995.4 z" fill="#f6fafc" stroke="#E8E8FF"  opacity="1.000"/>
<path d="M 1813.1 999.5 L 1579.2 999.6 L 1768.6 995.4 z" fill="#f7fafc" stroke="#E8E8FF"  opacity="1.000"/>
<path d="M 1459.8 998.0 L 1579.2 999.6 L 1396.0 999.4 z" fill="#f5f9fc" stroke="#E8E8FF"  opacity="1.000"/>
<path d="M 1579.2 999.6 L 1813.1 999.5 L 1920 1000 z" fill="#f7fafd" stroke="#E8E8FF"  opacity="1.000"/>
<path d="M 23.4 1000.0 L 1579.2 999.6 L 1920 1000 z" fill="#f7fafc" stroke="#E8E8FF"  opacity="1.000"/>
<path d="M 1579.2 999.6 L 23.4 1000.0 L 1396.0 999.4 z" fill="#f9fcfd" stroke="#E8E8FF"  opacity="1.000"/>
<path d="M 1813.1 999.5 L 1877.9 995.0 L 1886.9 997.8 z" fill="#f9fbfd" stroke="#E8E8FF"  opacity="1.000"/>
<path d="M 1877.9 995.0 L 1883.0 944.5 L 1886.9 997.8 z" fill="#fafbfd" stroke="#E8E8FF"  opacity="1.000"/>
<path d="M 1883.0 944.5 L 1877.9 995.0 L 1813.1 999.5 z" fill="#f9fbfd" stroke="#E8E8FF"  opacity="1.000"/>
<path d="M 1905.0 27.4 L 1919.3 0.5 L 1920 0 z" fill="#d9eaf4" stroke="#E8E8FF"  opacity="1.000"/>
<path d="M 1882.1 39.5 L 1813.0 91.0 L 1851.9 0.2 z" fill="#ddecf5" stroke="#E8E8FF"  opacity="1.000"/>
<path d="M 1882.1 39.5 L 1904.4 0.6 L 1905.0 27.4 z" fill="#d9eaf4" stroke="#E8E8FF"  opacity="1.000"/>
<path d="M 1904.4 0.6 L 1882.1 39.5 L 1851.9 0.2 z" fill="#d9eaf4" stroke="#E8E8FF"  opacity="1.000"/>
<path d="M 1782.8 106.6 L 1711.3 9.1 L 1725.8 0.7 z" fill="#e4f0f7" stroke="#E8E8FF"  opacity="1.000"/>
<path d="M 1813.0 91.0 L 1782.8 106.6 L 1725.8 0.7 z" fill="#e3eff7" stroke="#E8E8FF"  opacity="1.000"/>
<path d="M 1711.3 9.1 L 1782.8 106.6 L 1682.0 95.3 z" fill="#e5f0f7" stroke="#E8E8FF"  opacity="1.000"/>
<path d="M 1682.0 95.3 L 1782.8 106.6 L 1678.1 141.1 z" fill="#e6f1f8" stroke="#E8E8FF"  opacity="1.000"/>
<path d="M 1782.8 106.6 L 1705.6 204.5 L 1678.1 141.1 z" fill="#e7f2f8" stroke="#E8E8FF"  opacity="1.000"/>
<path d="M 1903.3 381.7 L 1807.1 328.1 L 1879.1 305.8 z" fill="#ebf4f9" stroke="#E8E8FF"  opacity="1.000"/>
<path d="M 1907.1 448.6 L 1903.3 381.7 L 1914.1 452.5 z" fill="#eef5fa" stroke="#E8E8FF"  opacity="1.000"/>
<path d="M 1903.3 381.7 L 1916.2 242.6 L 1914.1 452.5 z" fill="#ecf4f9" stroke="#E8E8FF"  opacity="1.000"/>
<path d="M 1903.3 381.7 L 1879.1 305.8 L 1916.2 242.6 z" fill="#eaf3f9" stroke="#E8E8FF"  opacity="1.000"/>
<path d="M 1459.8 998.0 L 1448.6 983.9 L 1446.9 897.4 z" fill="#f5f9fc" stroke="#E8E8FF"  opacity="1.000"/>
<path d="M 1448.6 983.9 L 1429.7 989.5 L 1446.9 897.4 z" fill="#f5f9fc" stroke="#E8E8FF"  opacity="1.000"/>
<path d="M 1429.7 989.5 L 1448.6 983.9 L 1459.8 998.0 z" fill="#f5f9fc" stroke="#E8E8FF"  opacity="1.000"/>
<path d="M 1542.3 826.4 L 1446.9 897.4 L 1506.7 797.5 z" fill="#f5f9fc" stroke="#E8E8FF"  opacity="1.000"/>
<path d="M 1542.3 826.4 L 1579.2 999.6 L 1446.9 897.4 z" fill="#f5f9fc" stroke="#E8E8FF"  opacity="1.000"/>
<path d="M 1542.3 826.4 L 1655.1 754.7 L 1678.3 804.5 z" fill="#f5f9fc" stroke="#E8E8FF"  opacity="1.000"/>
<path d="M 1655.1 754.7 L 1542.3 826.4 L 1506.7 797.5 z" fill="#f4f9fc" stroke="#E8E8FF"  opacity="1.000"/>
<path d="M 1579.2 999.6 L 1706.2 920.6 L 1742.2 971.5 z" fill="#f6fafc" stroke="#E8E8FF"  opacity="1.000"/>
<path d="M 1745.4 823.7 L 1706.2 920.6 L 1678.3 804.5 z" fill="#f6fafc" stroke="#E8E8FF"  opacity="1.000"/>
<path d="M 1706.2 920.6 L 1745.4 823.7 L 1742.2 971.5 z" fill="#f7fafd" stroke="#E8E8FF"  opacity="1.000"/>
<path d="M 1706.2 920.6 L 1542.3 826.4 L 1678.3 804.5 z" fill="#f5f9fc" stroke="#E8E8FF"  opacity="1.000"/>
<path d="M 1542.3 826.4 L 1706.2 920.6 L 1579.2 999.6 z" fill="#f5f9fc" stroke="#E8E8FF"  opacity="1.000"/>
<path d="M 1904.4 0.6 L 1905.6 0.0 L 1905.0 27.4 z" fill="#d8e9f4" stroke="#E8E8FF"  opacity="1.000"/>
<path d="M 1905.6 0.0 L 1919.3 0.5 L 1905.0 27.4 z" fill="#d8e9f4" stroke="#E8E8FF"  opacity="1.000"/>
<path d="M 1919.3 0.5 L 1905.6 0.0 L 1920 0 z" fill="#d8e9f4" stroke="#E8E8FF"  opacity="1.000"/>
<path d="M 1905.6 0.0 L 1904.4 0.6 L 1851.9 0.2 z" fill="#d8e9f4" stroke="#E8E8FF"  opacity="1.000"/>
<path d="M 1905.6 0.0 L 1851.9 0.2 L 1814.8 0.0 z" fill="#dbebf5" stroke="#E8E8FF"  opacity="1.000"/>
<path d="M 1831.0 138.4 L 1782.8 106.6 L 1813.0 91.0 z" fill="#e3eff7" stroke="#E8E8FF"  opacity="1.000"/>
<path d="M 1831.0 138.4 L 1859.6 202.6 L 1705.6 204.5 z" fill="#e6f1f8" stroke="#E8E8FF"  opacity="1.000"/>
<path d="M 1782.8 106.6 L 1831.0 138.4 L 1705.6 204.5 z" fill="#e6f1f8" stroke="#E8E8FF"  opacity="1.000"/>
<path d="M 1916.4 59.5 L 1882.1 39.5 L 1905.0 27.4 z" fill="#dbebf5" stroke="#E8E8FF"  opacity="1.000"/>
<path d="M 1916.4 59.5 L 1905.0 27.4 L 1920 0 z" fill="#daeaf5" stroke="#E8E8FF"  opacity="1.000"/>
<path d="M 1916.2 242.6 L 1916.4 59.5 L 1920 0 z" fill="#e0eef6" stroke="#E8E8FF"  opacity="1.000"/>
<path d="M 1907.9 97.6 L 1916.4 59.5 L 1916.2 242.6 z" fill="#e2eff7" stroke="#E8E8FF"  opacity="1.000"/>
<path d="M 1882.1 39.5 L 1886.1 90.9 L 1813.0 91.0 z" fill="#dfedf6" stroke="#E8E8FF"  opacity="1.000"/>
<path d="M 1886.1 90.9 L 1831.0 138.4 L 1813.0 91.0 z" fill="#e2eff7" stroke="#E8E8FF"  opacity="1.000"/>
<path d="M 1807.1 328.1 L 1798.5 390.1 L 1796.1 333.9 z" fill="#ecf4f9" stroke="#E8E8FF"  opacity="1.000"/>
<path d="M 1903.3 381.7 L 1798.5 390.1 L 1807.1 328.1 z" fill="#ecf4fa" stroke="#E8E8FF"  opacity="1.000"/>
<path d="M 1798.5 390.1 L 1783.9 445.8 L 1711.6 387.3 z" fill="#eef5fa" stroke="#E8E8FF"  opacity="1.000"/>
<path d="M 1796.1 333.9 L 1798.5 390.1 L 1711.6 387.3 z" fill="#edf5fa" stroke="#E8E8FF"  opacity="1.000"/>
<path d="M 1798.5 390.1 L 1907.1 448.6 L 1783.9 445.8 z" fill="#eef5fa" stroke="#E8E8FF"  opacity="1.000"/>
<path d="M 1798.5 390.1 L 1903.3 381.7 L 1907.1 448.6 z" fill="#edf5fa" stroke="#E8E8FF"  opacity="1.000"/>
<path d="M 1831.0 138.4 L 1857.5 164.6 L 1859.6 202.6 z" fill="#e5f0f7" stroke="#E8E8FF"  opacity="1.000"/>
<path d="M 1859.6 202.6 L 1857.5 164.6 L 1916.2 242.6 z" fill="#e6f1f8" stroke="#E8E8FF"  opacity="1.000"/>
<path d="M 1857.5 164.6 L 1907.9 97.6 L 1916.2 242.6 z" fill="#e4f0f7" stroke="#E8E8FF"  opacity="1.000"/>
<path d="M 1857.5 164.6 L 1886.1 90.9 L 1907.9 97.6 z" fill="#e1eef6" stroke="#E8E8FF"  opacity="1.000"/>
<path d="M 1886.1 90.9 L 1857.5 164.6 L 1831.0 138.4 z" fill="#e3eff7" stroke="#E8E8FF"  opacity="1.000"/>
<path d="M 1916.4 59.5 L 1911.6 71.1 L 1882.1 39.5 z" fill="#ddecf5" stroke="#E8E8FF"  opacity="1.000"/>
<path d="M 1911.6 71.1 L 1886.1 90.9 L 1882.1 39.5 z" fill="#ddecf5" stroke="#E8E8FF"  opacity="1.000"/>
<path d="M 1911.6 71.1 L 1916.4 59.5 L 1907.9 97.6 z" fill="#deedf6" stroke="#E8E8FF"  opacity="1.000"/>
<path d="M 1886.1 90.9 L 1911.6 71.1 L 1907.9 97.6 z" fill="#dfedf6" stroke="#E8E8FF"  opacity="1.000"/>
</g></svg>
