<?xml version="1.0" ?><svg height="300" width="1440" xmlns="http://www.w3.org/2000/svg">
  <path d="M757,150L733,86L712,158Z" fill="#F2F5FA" stroke="#E0E6F3"/>
  <path d="M757,150L769,96L733,86Z" fill="#F8FAFC" stroke="#E0E6F3"/>
  <path d="M733,86L679,127L712,158Z" fill="#F8FAFC" stroke="#E0E6F3"/>
  <path d="M769,96L768,59L733,86Z" fill="#F8FAFC" stroke="#E0E6F3"/>
  <path d="M733,86L674,68L679,127Z" fill="#F2F5FA" stroke="#E0E6F3"/>
  <path d="M701,40L674,68L733,86Z" fill="#ECF0F7" stroke="#E0E6F3"/>
  <path d="M768,59L701,40L733,86Z" fill="#F2F5FA" stroke="#E0E6F3"/>
  <path d="M757,150L825,153L769,96Z" fill="#ECF0F7" stroke="#E0E6F3"/>
  <path d="M769,96L837,78L768,59Z" fill="#ECF0F7" stroke="#E0E6F3"/>
  <path d="M774,220L825,153L757,150Z" fill="#F2F5FA" stroke="#E0E6F3"/>
  <path d="M712,158L735,224L757,150Z" fill="#F2F5FA" stroke="#E0E6F3"/>
  <path d="M713,242L735,224L712,158Z" fill="#ECF0F7" stroke="#E0E6F3"/>
  <path d="M735,224L774,220L757,150Z" fill="#F8FAFC" stroke="#E0E6F3"/>
  <path d="M679,127L640,188L712,158Z" fill="#F8FAFC" stroke="#E0E6F3"/>
  <path d="M584,169L640,188L679,127Z" fill="#F2F5FA" stroke="#E0E6F3"/>
  <path d="M674,68L598,75L679,127Z" fill="#ECF0F7" stroke="#E0E6F3"/>
  <path d="M701,40L683,20L674,68Z" fill="#F8FAFC" stroke="#E0E6F3"/>
  <path d="M684,-13L683,20L701,40Z" fill="#ECF0F7" stroke="#E0E6F3"/>
  <path d="M825,153L837,78L769,96Z" fill="#F2F5FA" stroke="#E0E6F3"/>
  <path d="M700,-42L684,-13L701,40Z" fill="#F8FAFC" stroke="#E0E6F3"/>
  <path d="M640,188L713,242L712,158Z" fill="#F8FAFC" stroke="#E0E6F3"/>
  <path d="M735,224L758,283L774,220Z" fill="#F8FAFC" stroke="#E0E6F3"/>
  <path d="M683,20L618,50L674,68Z" fill="#F8FAFC" stroke="#E0E6F3"/>
  <path d="M837,78L831,30L768,59Z" fill="#ECF0F7" stroke="#E0E6F3"/>
  <path d="M816,273L840,219L774,220Z" fill="#ECF0F7" stroke="#E0E6F3"/>
  <path d="M640,188L684,256L713,242Z" fill="#ECF0F7" stroke="#E0E6F3"/>
  <path d="M618,50L598,75L674,68Z" fill="#F2F5FA" stroke="#E0E6F3"/>
  <path d="M837,78L869,27L831,30Z" fill="#F2F5FA" stroke="#E0E6F3"/>
  <path d="M825,153L871,103L837,78Z" fill="#F2F5FA" stroke="#E0E6F3"/>
  <path d="M909,143L871,103L825,153Z" fill="#ECF0F7" stroke="#E0E6F3"/>
  <path d="M700,-42L701,40L783,-40Z" fill="#ECF0F7" stroke="#E0E6F3"/>
  <path d="M683,20L624,-9L618,50Z" fill="#ECF0F7" stroke="#E0E6F3"/>
  <path d="M774,220L840,219L825,153Z" fill="#F8FAFC" stroke="#E0E6F3"/>
  <path d="M758,283L735,224L713,242Z" fill="#ECF0F7" stroke="#E0E6F3"/>
  <path d="M640,188L585,223L684,256Z" fill="#F2F5FA" stroke="#E0E6F3"/>
  <path d="M598,75L584,169L679,127Z" fill="#F8FAFC" stroke="#E0E6F3"/>
  <path d="M684,256L758,283L713,242Z" fill="#F8FAFC" stroke="#E0E6F3"/>
  <path d="M598,75L564,128L584,169Z" fill="#F2F5FA" stroke="#E0E6F3"/>
  <path d="M684,-13L624,-9L683,20Z" fill="#ECF0F7" stroke="#E0E6F3"/>
  <path d="M783,-40L701,40L768,59Z" fill="#F2F5FA" stroke="#E0E6F3"/>
  <path d="M652,-99L624,-9L684,-13Z" fill="#F8FAFC" stroke="#E0E6F3"/>
  <path d="M618,50L544,17L598,75Z" fill="#ECF0F7" stroke="#E0E6F3"/>
  <path d="M598,75L534,110L564,128Z" fill="#ECF0F7" stroke="#E0E6F3"/>
  <path d="M840,219L869,220L825,153Z" fill="#F2F5FA" stroke="#E0E6F3"/>
  <path d="M876,255L869,220L840,219Z" fill="#F8FAFC" stroke="#E0E6F3"/>
  <path d="M831,30L783,-40L768,59Z" fill="#ECF0F7" stroke="#E0E6F3"/>
  <path d="M871,103L869,27L837,78Z" fill="#F8FAFC" stroke="#E0E6F3"/>
  <path d="M758,283L816,273L774,220Z" fill="#ECF0F7" stroke="#E0E6F3"/>
  <path d="M819,-39L783,-40L831,30Z" fill="#F2F5FA" stroke="#E0E6F3"/>
  <path d="M584,169L585,223L640,188Z" fill="#F2F5FA" stroke="#E0E6F3"/>
  <path d="M696,338L781,310L758,283Z" fill="#ECF0F7" stroke="#E0E6F3"/>
  <path d="M541,187L585,223L584,169Z" fill="#ECF0F7" stroke="#E0E6F3"/>
  <path d="M869,220L909,143L825,153Z" fill="#F2F5FA" stroke="#E0E6F3"/>
  <path d="M871,103L928,114L869,27Z" fill="#F8FAFC" stroke="#E0E6F3"/>
  <path d="M869,27L819,-39L831,30Z" fill="#F2F5FA" stroke="#E0E6F3"/>
  <path d="M819,-39L768,-62L783,-40Z" fill="#F8FAFC" stroke="#E0E6F3"/>
  <path d="M783,-40L768,-62L700,-42Z" fill="#F2F5FA" stroke="#E0E6F3"/>
  <path d="M816,273L876,255L840,219Z" fill="#F2F5FA" stroke="#E0E6F3"/>
  <path d="M758,283L781,310L816,273Z" fill="#F2F5FA" stroke="#E0E6F3"/>
  <path d="M696,338L758,283L684,256Z" fill="#F2F5FA" stroke="#E0E6F3"/>
  <path d="M544,17L534,110L598,75Z" fill="#F2F5FA" stroke="#E0E6F3"/>
  <path d="M564,128L541,187L584,169Z" fill="#ECF0F7" stroke="#E0E6F3"/>
  <path d="M945,200L939,142L909,143Z" fill="#F8FAFC" stroke="#E0E6F3"/>
  <path d="M895,315L876,255L816,273Z" fill="#F2F5FA" stroke="#E0E6F3"/>
  <path d="M534,110L541,187L564,128Z" fill="#ECF0F7" stroke="#E0E6F3"/>
  <path d="M909,143L928,114L871,103Z" fill="#ECF0F7" stroke="#E0E6F3"/>
  <path d="M939,142L928,114L909,143Z" fill="#ECF0F7" stroke="#E0E6F3"/>
  <path d="M548,271L586,263L585,223Z" fill="#ECF0F7" stroke="#E0E6F3"/>
  <path d="M585,223L586,263L684,256Z" fill="#F8FAFC" stroke="#E0E6F3"/>
  <path d="M945,200L909,143L869,220Z" fill="#ECF0F7" stroke="#E0E6F3"/>
  <path d="M624,-9L559,-1L618,50Z" fill="#F2F5FA" stroke="#E0E6F3"/>
  <path d="M613,-105L559,-1L624,-9Z" fill="#F8FAFC" stroke="#E0E6F3"/>
  <path d="M652,-99L684,-13L700,-42Z" fill="#F2F5FA" stroke="#E0E6F3"/>
  <path d="M586,263L620,305L684,256Z" fill="#F8FAFC" stroke="#E0E6F3"/>
  <path d="M559,-1L544,17L618,50Z" fill="#ECF0F7" stroke="#E0E6F3"/>
  <path d="M652,338L696,338L684,256Z" fill="#F2F5FA" stroke="#E0E6F3"/>
  <path d="M819,-39L856,-60L768,-62Z" fill="#F8FAFC" stroke="#E0E6F3"/>
  <path d="M893,-31L856,-60L819,-39Z" fill="#F8FAFC" stroke="#E0E6F3"/>
  <path d="M893,-31L819,-39L869,27Z" fill="#F8FAFC" stroke="#E0E6F3"/>
  <path d="M768,-62L712,-100L700,-42Z" fill="#F2F5FA" stroke="#E0E6F3"/>
  <path d="M856,-60L712,-100L768,-62Z" fill="#F2F5FA" stroke="#E0E6F3"/>
  <path d="M930,-20L893,-31L869,27Z" fill="#F8FAFC" stroke="#E0E6F3"/>
  <path d="M966,58L869,27L928,114Z" fill="#ECF0F7" stroke="#E0E6F3"/>
  <path d="M620,305L652,338L684,256Z" fill="#F8FAFC" stroke="#E0E6F3"/>
  <path d="M876,255L945,200L869,220Z" fill="#F2F5FA" stroke="#E0E6F3"/>
  <path d="M541,187L548,271L585,223Z" fill="#ECF0F7" stroke="#E0E6F3"/>
  <path d="M586,263L548,271L620,305Z" fill="#ECF0F7" stroke="#E0E6F3"/>
  <path d="M620,305L646,358L652,338Z" fill="#ECF0F7" stroke="#E0E6F3"/>
  <path d="M497,272L548,271L541,187Z" fill="#F8FAFC" stroke="#E0E6F3"/>
  <path d="M534,110L480,189L541,187Z" fill="#F2F5FA" stroke="#E0E6F3"/>
  <path d="M544,17L500,76L534,110Z" fill="#ECF0F7" stroke="#E0E6F3"/>
  <path d="M712,-100L652,-99L700,-42Z" fill="#ECF0F7" stroke="#E0E6F3"/>
  <path d="M781,310L839,337L816,273Z" fill="#F8FAFC" stroke="#E0E6F3"/>
  <path d="M876,255L940,281L945,200Z" fill="#F8FAFC" stroke="#E0E6F3"/>
  <path d="M790,359L839,337L781,310Z" fill="#F2F5FA" stroke="#E0E6F3"/>
  <path d="M544,17L512,19L500,76Z" fill="#F2F5FA" stroke="#E0E6F3"/>
  <path d="M559,-1L512,19L544,17Z" fill="#F2F5FA" stroke="#E0E6F3"/>
  <path d="M493,-26L512,19L559,-1Z" fill="#ECF0F7" stroke="#E0E6F3"/>
  <path d="M716,372L781,310L696,338Z" fill="#ECF0F7" stroke="#E0E6F3"/>
  <path d="M716,372L790,359L781,310Z" fill="#F8FAFC" stroke="#E0E6F3"/>
  <path d="M1007,73L966,58L928,114Z" fill="#ECF0F7" stroke="#E0E6F3"/>
  <path d="M1007,73L928,114L939,142Z" fill="#F2F5FA" stroke="#E0E6F3"/>
  <path d="M893,-31L890,-68L856,-60Z" fill="#ECF0F7" stroke="#E0E6F3"/>
  <path d="M966,58L930,-20L869,27Z" fill="#F8FAFC" stroke="#E0E6F3"/>
  <path d="M652,338L646,358L696,338Z" fill="#F2F5FA" stroke="#E0E6F3"/>
  <path d="M621,394L646,358L620,305Z" fill="#F8FAFC" stroke="#E0E6F3"/>
  <path d="M646,358L716,372L696,338Z" fill="#F2F5FA" stroke="#E0E6F3"/>
  <path d="M927,-71L890,-68L893,-31Z" fill="#F8FAFC" stroke="#E0E6F3"/>
  <path d="M856,-60L890,-68L712,-100Z" fill="#ECF0F7" stroke="#E0E6F3"/>
  <path d="M960,322L895,315L942,373Z" fill="#ECF0F7" stroke="#E0E6F3"/>
  <path d="M839,337L895,315L816,273Z" fill="#ECF0F7" stroke="#E0E6F3"/>
  <path d="M652,-99L613,-105L624,-9Z" fill="#F8FAFC" stroke="#E0E6F3"/>
  <path d="M712,-100L613,-105L652,-99Z" fill="#F2F5FA" stroke="#E0E6F3"/>
  <path d="M465,129L480,189L534,110Z" fill="#F8FAFC" stroke="#E0E6F3"/>
  <path d="M895,315L940,281L876,255Z" fill="#F2F5FA" stroke="#E0E6F3"/>
  <path d="M945,200L998,167L939,142Z" fill="#F2F5FA" stroke="#E0E6F3"/>
  <path d="M441,141L465,129L430,85Z" fill="#F8FAFC" stroke="#E0E6F3"/>
  <path d="M500,76L465,129L534,110Z" fill="#F2F5FA" stroke="#E0E6F3"/>
  <path d="M1010,227L998,167L945,200Z" fill="#F8FAFC" stroke="#E0E6F3"/>
  <path d="M613,-105L526,-59L559,-1Z" fill="#F2F5FA" stroke="#E0E6F3"/>
  <path d="M430,29L430,85L500,76Z" fill="#ECF0F7" stroke="#E0E6F3"/>
  <path d="M548,271L538,339L620,305Z" fill="#ECF0F7" stroke="#E0E6F3"/>
  <path d="M480,189L497,272L541,187Z" fill="#F8FAFC" stroke="#E0E6F3"/>
  <path d="M433,266L497,272L480,189Z" fill="#F8FAFC" stroke="#E0E6F3"/>
  <path d="M930,-20L927,-71L893,-31Z" fill="#F2F5FA" stroke="#E0E6F3"/>
  <path d="M890,-68L927,-71L712,-100Z" fill="#F8FAFC" stroke="#E0E6F3"/>
  <path d="M1006,-15L927,-71L930,-20Z" fill="#F2F5FA" stroke="#E0E6F3"/>
  <path d="M526,-59L493,-26L559,-1Z" fill="#ECF0F7" stroke="#E0E6F3"/>
  <path d="M966,58L1006,-15L930,-20Z" fill="#F8FAFC" stroke="#E0E6F3"/>
  <path d="M998,167L1007,73L939,142Z" fill="#ECF0F7" stroke="#E0E6F3"/>
  <path d="M1007,73L1008,53L966,58Z" fill="#F2F5FA" stroke="#E0E6F3"/>
  <path d="M497,272L538,339L548,271Z" fill="#F8FAFC" stroke="#E0E6F3"/>
  <path d="M646,358L621,394L716,372Z" fill="#F2F5FA" stroke="#E0E6F3"/>
  <path d="M465,129L441,141L480,189Z" fill="#F2F5FA" stroke="#E0E6F3"/>
  <path d="M430,85L465,129L500,76Z" fill="#ECF0F7" stroke="#E0E6F3"/>
  <path d="M538,339L621,394L620,305Z" fill="#F8FAFC" stroke="#E0E6F3"/>
  <path d="M716,372L855,402L790,359Z" fill="#ECF0F7" stroke="#E0E6F3"/>
  <path d="M998,167L1042,140L1007,73Z" fill="#F2F5FA" stroke="#E0E6F3"/>
  <path d="M1007,73L1042,88L1008,53Z" fill="#F2F5FA" stroke="#E0E6F3"/>
  <path d="M940,281L1010,227L945,200Z" fill="#F2F5FA" stroke="#E0E6F3"/>
  <path d="M430,29L500,76L512,19Z" fill="#ECF0F7" stroke="#E0E6F3"/>
  <path d="M940,281L1032,264L1010,227Z" fill="#F2F5FA" stroke="#E0E6F3"/>
  <path d="M895,315L960,322L940,281Z" fill="#ECF0F7" stroke="#E0E6F3"/>
  <path d="M910,389L895,315L839,337Z" fill="#F2F5FA" stroke="#E0E6F3"/>
  <path d="M790,359L855,402L839,337Z" fill="#ECF0F7" stroke="#E0E6F3"/>
  <path d="M621,394L855,402L716,372Z" fill="#ECF0F7" stroke="#E0E6F3"/>
  <path d="M1008,53L1006,-15L966,58Z" fill="#ECF0F7" stroke="#E0E6F3"/>
  <path d="M1058,231L1042,140L998,167Z" fill="#F2F5FA" stroke="#E0E6F3"/>
  <path d="M1008,53L1059,12L1006,-15Z" fill="#F2F5FA" stroke="#E0E6F3"/>
  <path d="M526,-59L513,-103L493,-26Z" fill="#F2F5FA" stroke="#E0E6F3"/>
  <path d="M493,-26L445,-9L512,19Z" fill="#ECF0F7" stroke="#E0E6F3"/>
  <path d="M613,-105L513,-103L526,-59Z" fill="#F8FAFC" stroke="#E0E6F3"/>
  <path d="M431,-85L445,-9L493,-26Z" fill="#F8FAFC" stroke="#E0E6F3"/>
  <path d="M445,-9L430,29L512,19Z" fill="#ECF0F7" stroke="#E0E6F3"/>
  <path d="M1042,140L1042,88L1007,73Z" fill="#F2F5FA" stroke="#E0E6F3"/>
  <path d="M855,402L910,389L839,337Z" fill="#ECF0F7" stroke="#E0E6F3"/>
  <path d="M497,272L483,341L538,339Z" fill="#F8FAFC" stroke="#E0E6F3"/>
  <path d="M441,141L417,221L480,189Z" fill="#F2F5FA" stroke="#E0E6F3"/>
  <path d="M384,169L417,221L441,141Z" fill="#F2F5FA" stroke="#E0E6F3"/>
  <path d="M390,74L441,141L430,85Z" fill="#ECF0F7" stroke="#E0E6F3"/>
  <path d="M1020,316L1032,264L940,281Z" fill="#F8FAFC" stroke="#E0E6F3"/>
  <path d="M910,389L942,373L895,315Z" fill="#F8FAFC" stroke="#E0E6F3"/>
  <path d="M439,303L483,341L497,272Z" fill="#F2F5FA" stroke="#E0E6F3"/>
  <path d="M538,339L551,403L621,394Z" fill="#F8FAFC" stroke="#E0E6F3"/>
  <path d="M417,221L433,266L480,189Z" fill="#F8FAFC" stroke="#E0E6F3"/>
  <path d="M471,390L551,403L538,339Z" fill="#F8FAFC" stroke="#E0E6F3"/>
  <path d="M621,394L551,403L855,402Z" fill="#ECF0F7" stroke="#E0E6F3"/>
  <path d="M1010,227L1058,231L998,167Z" fill="#F8FAFC" stroke="#E0E6F3"/>
  <path d="M1020,316L940,281L960,322Z" fill="#ECF0F7" stroke="#E0E6F3"/>
  <path d="M483,341L471,390L538,339Z" fill="#ECF0F7" stroke="#E0E6F3"/>
  <path d="M433,266L439,303L497,272Z" fill="#F8FAFC" stroke="#E0E6F3"/>
  <path d="M373,318L439,303L433,266Z" fill="#ECF0F7" stroke="#E0E6F3"/>
  <path d="M430,29L390,74L430,85Z" fill="#F8FAFC" stroke="#E0E6F3"/>
  <path d="M392,12L390,74L430,29Z" fill="#F8FAFC" stroke="#E0E6F3"/>
  <path d="M1032,264L1058,231L1010,227Z" fill="#ECF0F7" stroke="#E0E6F3"/>
  <path d="M1089,-25L1059,12L1127,19Z" fill="#F8FAFC" stroke="#E0E6F3"/>
  <path d="M390,74L384,169L441,141Z" fill="#ECF0F7" stroke="#E0E6F3"/>
  <path d="M417,221L361,256L433,266Z" fill="#ECF0F7" stroke="#E0E6F3"/>
  <path d="M1144,100L1042,88L1042,140Z" fill="#F2F5FA" stroke="#E0E6F3"/>
  <path d="M1042,88L1059,12L1008,53Z" fill="#F8FAFC" stroke="#E0E6F3"/>
  <path d="M1006,-15L1029,-63L927,-71Z" fill="#ECF0F7" stroke="#E0E6F3"/>
  <path d="M1019,358L1020,316L960,322Z" fill="#F2F5FA" stroke="#E0E6F3"/>
  <path d="M1032,264L1055,261L1058,231Z" fill="#F2F5FA" stroke="#E0E6F3"/>
  <path d="M927,-71L1070,-72L712,-100Z" fill="#ECF0F7" stroke="#E0E6F3"/>
  <path d="M1059,12L1029,-63L1006,-15Z" fill="#ECF0F7" stroke="#E0E6F3"/>
  <path d="M1020,316L1055,261L1032,264Z" fill="#ECF0F7" stroke="#E0E6F3"/>
  <path d="M445,-9L392,12L430,29Z" fill="#F2F5FA" stroke="#E0E6F3"/>
  <path d="M313,174L355,210L384,169Z" fill="#F2F5FA" stroke="#E0E6F3"/>
  <path d="M382,-1L392,12L445,-9Z" fill="#F8FAFC" stroke="#E0E6F3"/>
  <path d="M513,-103L431,-85L493,-26Z" fill="#F8FAFC" stroke="#E0E6F3"/>
  <path d="M431,-85L382,-1L445,-9Z" fill="#F8FAFC" stroke="#E0E6F3"/>
  <path d="M392,12L318,59L390,74Z" fill="#F8FAFC" stroke="#E0E6F3"/>
  <path d="M439,386L483,341L439,303Z" fill="#F8FAFC" stroke="#E0E6F3"/>
  <path d="M439,386L471,390L483,341Z" fill="#F8FAFC" stroke="#E0E6F3"/>
  <path d="M1020,316L1059,347L1055,261Z" fill="#ECF0F7" stroke="#E0E6F3"/>
  <path d="M942,373L1019,358L960,322Z" fill="#F8FAFC" stroke="#E0E6F3"/>
  <path d="M1089,373L1019,358L942,373Z" fill="#F2F5FA" stroke="#E0E6F3"/>
  <path d="M1123,259L1105,195L1058,231Z" fill="#F8FAFC" stroke="#E0E6F3"/>
  <path d="M1058,231L1105,195L1042,140Z" fill="#ECF0F7" stroke="#E0E6F3"/>
  <path d="M1123,259L1058,231L1055,261Z" fill="#ECF0F7" stroke="#E0E6F3"/>
  <path d="M384,169L355,210L417,221Z" fill="#ECF0F7" stroke="#E0E6F3"/>
  <path d="M335,104L384,169L390,74Z" fill="#F8FAFC" stroke="#E0E6F3"/>
  <path d="M1059,12L1089,-25L1029,-63Z" fill="#F8FAFC" stroke="#E0E6F3"/>
  <path d="M1127,19L1059,12L1042,88Z" fill="#F8FAFC" stroke="#E0E6F3"/>
  <path d="M1105,195L1116,169L1042,140Z" fill="#F8FAFC" stroke="#E0E6F3"/>
  <path d="M471,390L340,400L551,403Z" fill="#ECF0F7" stroke="#E0E6F3"/>
  <path d="M373,318L439,386L439,303Z" fill="#ECF0F7" stroke="#E0E6F3"/>
  <path d="M355,210L361,256L417,221Z" fill="#ECF0F7" stroke="#E0E6F3"/>
  <path d="M1029,-63L1070,-72L927,-71Z" fill="#ECF0F7" stroke="#E0E6F3"/>
  <path d="M1089,-25L1070,-72L1029,-63Z" fill="#F2F5FA" stroke="#E0E6F3"/>
  <path d="M318,59L335,104L390,74Z" fill="#F2F5FA" stroke="#E0E6F3"/>
  <path d="M355,210L332,266L361,256Z" fill="#F8FAFC" stroke="#E0E6F3"/>
  <path d="M1019,358L1059,347L1020,316Z" fill="#F8FAFC" stroke="#E0E6F3"/>
  <path d="M1167,229L1176,158L1116,169Z" fill="#F2F5FA" stroke="#E0E6F3"/>
  <path d="M1089,373L1059,347L1019,358Z" fill="#F2F5FA" stroke="#E0E6F3"/>
  <path d="M361,256L373,318L433,266Z" fill="#ECF0F7" stroke="#E0E6F3"/>
  <path d="M1089,-25L1113,-43L1070,-72Z" fill="#F2F5FA" stroke="#E0E6F3"/>
  <path d="M1144,100L1127,19L1042,88Z" fill="#F2F5FA" stroke="#E0E6F3"/>
  <path d="M1116,169L1144,100L1042,140Z" fill="#ECF0F7" stroke="#E0E6F3"/>
  <path d="M1172,101L1144,100L1176,158Z" fill="#F8FAFC" stroke="#E0E6F3"/>
  <path d="M335,104L313,174L384,169Z" fill="#F8FAFC" stroke="#E0E6F3"/>
  <path d="M361,256L332,266L373,318Z" fill="#F2F5FA" stroke="#E0E6F3"/>
  <path d="M382,-1L318,59L392,12Z" fill="#F8FAFC" stroke="#E0E6F3"/>
  <path d="M333,-38L318,59L382,-1Z" fill="#F2F5FA" stroke="#E0E6F3"/>
  <path d="M1124,340L1123,259L1055,261Z" fill="#F2F5FA" stroke="#E0E6F3"/>
  <path d="M1127,19L1113,-43L1089,-25Z" fill="#F8FAFC" stroke="#E0E6F3"/>
  <path d="M261,125L313,174L335,104Z" fill="#F8FAFC" stroke="#E0E6F3"/>
  <path d="M431,-85L355,-70L382,-1Z" fill="#F8FAFC" stroke="#E0E6F3"/>
  <path d="M245,-79L355,-70L222,-98Z" fill="#ECF0F7" stroke="#E0E6F3"/>
  <path d="M310,211L332,266L355,210Z" fill="#ECF0F7" stroke="#E0E6F3"/>
  <path d="M355,-70L333,-38L382,-1Z" fill="#F8FAFC" stroke="#E0E6F3"/>
  <path d="M313,174L310,211L355,210Z" fill="#F8FAFC" stroke="#E0E6F3"/>
  <path d="M273,186L310,211L313,174Z" fill="#F8FAFC" stroke="#E0E6F3"/>
  <path d="M1059,347L1124,340L1055,261Z" fill="#ECF0F7" stroke="#E0E6F3"/>
  <path d="M910,389L1089,373L942,373Z" fill="#ECF0F7" stroke="#E0E6F3"/>
  <path d="M1165,386L1089,373L910,389Z" fill="#F2F5FA" stroke="#E0E6F3"/>
  <path d="M1144,100L1195,27L1127,19Z" fill="#F8FAFC" stroke="#E0E6F3"/>
  <path d="M1127,19L1138,-61L1113,-43Z" fill="#ECF0F7" stroke="#E0E6F3"/>
  <path d="M1176,158L1144,100L1116,169Z" fill="#F8FAFC" stroke="#E0E6F3"/>
  <path d="M1116,169L1105,195L1167,229Z" fill="#F2F5FA" stroke="#E0E6F3"/>
  <path d="M1167,229L1105,195L1123,259Z" fill="#ECF0F7" stroke="#E0E6F3"/>
  <path d="M1199,-6L1138,-61L1127,19Z" fill="#ECF0F7" stroke="#E0E6F3"/>
  <path d="M1113,-43L1138,-61L1070,-72Z" fill="#ECF0F7" stroke="#E0E6F3"/>
  <path d="M1109,367L1124,340L1059,347Z" fill="#F2F5FA" stroke="#E0E6F3"/>
  <path d="M1201,248L1167,229L1123,259Z" fill="#ECF0F7" stroke="#E0E6F3"/>
  <path d="M1089,373L1109,367L1059,347Z" fill="#F2F5FA" stroke="#E0E6F3"/>
  <path d="M297,304L355,378L373,318Z" fill="#ECF0F7" stroke="#E0E6F3"/>
  <path d="M373,318L355,378L439,386Z" fill="#ECF0F7" stroke="#E0E6F3"/>
  <path d="M439,386L340,400L471,390Z" fill="#F8FAFC" stroke="#E0E6F3"/>
  <path d="M297,304L373,318L332,266Z" fill="#F8FAFC" stroke="#E0E6F3"/>
  <path d="M318,59L275,69L335,104Z" fill="#F2F5FA" stroke="#E0E6F3"/>
  <path d="M269,23L275,69L318,59Z" fill="#F8FAFC" stroke="#E0E6F3"/>
  <path d="M243,268L297,304L332,266Z" fill="#F8FAFC" stroke="#E0E6F3"/>
  <path d="M261,125L273,186L313,174Z" fill="#ECF0F7" stroke="#E0E6F3"/>
  <path d="M333,-38L269,23L318,59Z" fill="#F2F5FA" stroke="#E0E6F3"/>
  <path d="M355,-70L302,-56L333,-38Z" fill="#F8FAFC" stroke="#E0E6F3"/>
  <path d="M212,99L261,125L275,69Z" fill="#F8FAFC" stroke="#E0E6F3"/>
  <path d="M275,69L261,125L335,104Z" fill="#F8FAFC" stroke="#E0E6F3"/>
  <path d="M243,268L332,266L310,211Z" fill="#ECF0F7" stroke="#E0E6F3"/>
  <path d="M302,-56L269,23L333,-38Z" fill="#F2F5FA" stroke="#E0E6F3"/>
  <path d="M1195,27L1172,101L1262,78Z" fill="#F8FAFC" stroke="#E0E6F3"/>
  <path d="M1218,22L1195,27L1262,78Z" fill="#F2F5FA" stroke="#E0E6F3"/>
  <path d="M1172,101L1195,27L1144,100Z" fill="#F8FAFC" stroke="#E0E6F3"/>
  <path d="M275,358L340,400L355,378Z" fill="#ECF0F7" stroke="#E0E6F3"/>
  <path d="M355,378L340,400L439,386Z" fill="#ECF0F7" stroke="#E0E6F3"/>
  <path d="M1199,-6L1172,-76L1138,-61Z" fill="#F2F5FA" stroke="#E0E6F3"/>
  <path d="M1138,-61L1172,-76L1070,-72Z" fill="#ECF0F7" stroke="#E0E6F3"/>
  <path d="M1070,-72L1354,-97L712,-100Z" fill="#ECF0F7" stroke="#E0E6F3"/>
  <path d="M1195,27L1199,-6L1127,19Z" fill="#F2F5FA" stroke="#E0E6F3"/>
  <path d="M1167,229L1201,248L1176,158Z" fill="#ECF0F7" stroke="#E0E6F3"/>
  <path d="M1195,27L1218,22L1199,-6Z" fill="#F8FAFC" stroke="#E0E6F3"/>
  <path d="M1179,334L1201,248L1123,259Z" fill="#ECF0F7" stroke="#E0E6F3"/>
  <path d="M1179,334L1123,259L1124,340Z" fill="#F2F5FA" stroke="#E0E6F3"/>
  <path d="M302,-56L263,-42L269,23Z" fill="#ECF0F7" stroke="#E0E6F3"/>
  <path d="M196,47L212,99L275,69Z" fill="#F2F5FA" stroke="#E0E6F3"/>
  <path d="M1165,386L1179,334L1124,340Z" fill="#F2F5FA" stroke="#E0E6F3"/>
  <path d="M1230,138L1172,101L1176,158Z" fill="#ECF0F7" stroke="#E0E6F3"/>
  <path d="M1199,-6L1224,-29L1172,-76Z" fill="#ECF0F7" stroke="#E0E6F3"/>
  <path d="M1250,225L1230,138L1176,158Z" fill="#F8FAFC" stroke="#E0E6F3"/>
  <path d="M1250,225L1176,158L1201,248Z" fill="#ECF0F7" stroke="#E0E6F3"/>
  <path d="M273,186L243,268L310,211Z" fill="#F8FAFC" stroke="#E0E6F3"/>
  <path d="M297,304L275,358L355,378Z" fill="#F2F5FA" stroke="#E0E6F3"/>
  <path d="M201,244L243,268L273,186Z" fill="#F2F5FA" stroke="#E0E6F3"/>
  <path d="M205,166L273,186L261,125Z" fill="#F8FAFC" stroke="#E0E6F3"/>
  <path d="M1109,367L1165,386L1124,340Z" fill="#F2F5FA" stroke="#E0E6F3"/>
  <path d="M1089,373L1165,386L1109,367Z" fill="#ECF0F7" stroke="#E0E6F3"/>
  <path d="M855,402L1165,386L910,389Z" fill="#F2F5FA" stroke="#E0E6F3"/>
  <path d="M266,344L275,358L297,304Z" fill="#ECF0F7" stroke="#E0E6F3"/>
  <path d="M243,268L266,344L297,304Z" fill="#F8FAFC" stroke="#E0E6F3"/>
  <path d="M196,47L275,69L269,23Z" fill="#ECF0F7" stroke="#E0E6F3"/>
  <path d="M1218,22L1224,-29L1199,-6Z" fill="#F2F5FA" stroke="#E0E6F3"/>
  <path d="M1252,-60L1224,-29L1292,-28Z" fill="#F8FAFC" stroke="#E0E6F3"/>
  <path d="M1227,300L1234,241L1201,248Z" fill="#ECF0F7" stroke="#E0E6F3"/>
  <path d="M1230,138L1262,78L1172,101Z" fill="#F8FAFC" stroke="#E0E6F3"/>
  <path d="M1227,300L1201,248L1179,334Z" fill="#F2F5FA" stroke="#E0E6F3"/>
  <path d="M185,-13L196,47L269,23Z" fill="#F8FAFC" stroke="#E0E6F3"/>
  <path d="M302,-56L245,-79L263,-42Z" fill="#ECF0F7" stroke="#E0E6F3"/>
  <path d="M355,-70L245,-79L302,-56Z" fill="#ECF0F7" stroke="#E0E6F3"/>
  <path d="M222,-98L355,-70L431,-85Z" fill="#F8FAFC" stroke="#E0E6F3"/>
  <path d="M212,344L220,357L266,344Z" fill="#F8FAFC" stroke="#E0E6F3"/>
  <path d="M212,99L205,166L261,125Z" fill="#ECF0F7" stroke="#E0E6F3"/>
  <path d="M1240,355L1227,300L1179,334Z" fill="#ECF0F7" stroke="#E0E6F3"/>
  <path d="M1288,228L1250,225L1234,241Z" fill="#ECF0F7" stroke="#E0E6F3"/>
  <path d="M1234,241L1250,225L1201,248Z" fill="#F2F5FA" stroke="#E0E6F3"/>
  <path d="M1297,68L1262,78L1301,171Z" fill="#F8FAFC" stroke="#E0E6F3"/>
  <path d="M143,168L189,195L205,166Z" fill="#F8FAFC" stroke="#E0E6F3"/>
  <path d="M185,-13L269,23L263,-42Z" fill="#ECF0F7" stroke="#E0E6F3"/>
  <path d="M189,195L201,244L273,186Z" fill="#F8FAFC" stroke="#E0E6F3"/>
  <path d="M266,344L220,357L275,358Z" fill="#F2F5FA" stroke="#E0E6F3"/>
  <path d="M189,195L273,186L205,166Z" fill="#F2F5FA" stroke="#E0E6F3"/>
  <path d="M143,168L205,166L212,99Z" fill="#ECF0F7" stroke="#E0E6F3"/>
  <path d="M245,-79L185,-13L263,-42Z" fill="#F2F5FA" stroke="#E0E6F3"/>
  <path d="M513,-103L222,-98L431,-85Z" fill="#ECF0F7" stroke="#E0E6F3"/>
  <path d="M143,-104L222,-98L513,-103Z" fill="#F8FAFC" stroke="#E0E6F3"/>
  <path d="M1224,-29L1252,-60L1172,-76Z" fill="#F8FAFC" stroke="#E0E6F3"/>
  <path d="M1292,-28L1224,-29L1218,22Z" fill="#ECF0F7" stroke="#E0E6F3"/>
  <path d="M212,344L243,268L201,244Z" fill="#ECF0F7" stroke="#E0E6F3"/>
  <path d="M212,344L266,344L243,268Z" fill="#ECF0F7" stroke="#E0E6F3"/>
  <path d="M275,358L220,357L340,400Z" fill="#F8FAFC" stroke="#E0E6F3"/>
  <path d="M1297,68L1288,43L1262,78Z" fill="#F2F5FA" stroke="#E0E6F3"/>
  <path d="M1307,250L1288,228L1234,241Z" fill="#F2F5FA" stroke="#E0E6F3"/>
  <path d="M1165,386L1240,355L1179,334Z" fill="#F2F5FA" stroke="#E0E6F3"/>
  <path d="M196,47L163,79L212,99Z" fill="#F8FAFC" stroke="#E0E6F3"/>
  <path d="M222,-98L185,-13L245,-79Z" fill="#F8FAFC" stroke="#E0E6F3"/>
  <path d="M151,311L212,344L201,244Z" fill="#F2F5FA" stroke="#E0E6F3"/>
  <path d="M1301,171L1230,138L1250,225Z" fill="#ECF0F7" stroke="#E0E6F3"/>
  <path d="M1262,78L1288,43L1218,22Z" fill="#ECF0F7" stroke="#E0E6F3"/>
  <path d="M125,39L163,79L196,47Z" fill="#F8FAFC" stroke="#E0E6F3"/>
  <path d="M189,195L150,228L201,244Z" fill="#ECF0F7" stroke="#E0E6F3"/>
  <path d="M1277,315L1234,241L1227,300Z" fill="#F2F5FA" stroke="#E0E6F3"/>
  <path d="M1301,171L1262,78L1230,138Z" fill="#ECF0F7" stroke="#E0E6F3"/>
  <path d="M1288,43L1292,-28L1218,22Z" fill="#ECF0F7" stroke="#E0E6F3"/>
  <path d="M1288,228L1301,171L1250,225Z" fill="#F8FAFC" stroke="#E0E6F3"/>
  <path d="M1288,228L1357,202L1301,171Z" fill="#F2F5FA" stroke="#E0E6F3"/>
  <path d="M1240,355L1277,315L1227,300Z" fill="#ECF0F7" stroke="#E0E6F3"/>
  <path d="M1340,11L1292,-28L1288,43Z" fill="#F8FAFC" stroke="#E0E6F3"/>
  <path d="M185,-13L158,0L196,47Z" fill="#F8FAFC" stroke="#E0E6F3"/>
  <path d="M143,-104L158,0L185,-13Z" fill="#F8FAFC" stroke="#E0E6F3"/>
  <path d="M110,154L143,168L163,79Z" fill="#ECF0F7" stroke="#E0E6F3"/>
  <path d="M163,79L143,168L212,99Z" fill="#F8FAFC" stroke="#E0E6F3"/>
  <path d="M143,168L150,228L189,195Z" fill="#ECF0F7" stroke="#E0E6F3"/>
  <path d="M1277,315L1307,250L1234,241Z" fill="#F8FAFC" stroke="#E0E6F3"/>
  <path d="M1301,171L1335,85L1297,68Z" fill="#F8FAFC" stroke="#E0E6F3"/>
  <path d="M1355,-23L1295,-61L1292,-28Z" fill="#ECF0F7" stroke="#E0E6F3"/>
  <path d="M1292,-28L1295,-61L1252,-60Z" fill="#F2F5FA" stroke="#E0E6F3"/>
  <path d="M1252,-60L1354,-97L1172,-76Z" fill="#ECF0F7" stroke="#E0E6F3"/>
  <path d="M1340,11L1288,43L1297,68Z" fill="#F2F5FA" stroke="#E0E6F3"/>
  <path d="M101,248L143,247L150,228Z" fill="#F8FAFC" stroke="#E0E6F3"/>
  <path d="M150,228L143,247L201,244Z" fill="#F8FAFC" stroke="#E0E6F3"/>
  <path d="M212,344L149,394L220,357Z" fill="#F8FAFC" stroke="#E0E6F3"/>
  <path d="M1364,142L1335,85L1301,171Z" fill="#F8FAFC" stroke="#E0E6F3"/>
  <path d="M143,247L151,311L201,244Z" fill="#F2F5FA" stroke="#E0E6F3"/>
  <path d="M158,0L125,39L196,47Z" fill="#F8FAFC" stroke="#E0E6F3"/>
  <path d="M93,225L101,248L150,228Z" fill="#F2F5FA" stroke="#E0E6F3"/>
  <path d="M103,44L125,39L96,-23Z" fill="#F2F5FA" stroke="#E0E6F3"/>
  <path d="M143,247L98,302L151,311Z" fill="#ECF0F7" stroke="#E0E6F3"/>
  <path d="M80,105L110,154L163,79Z" fill="#F2F5FA" stroke="#E0E6F3"/>
  <path d="M1335,85L1340,11L1297,68Z" fill="#F2F5FA" stroke="#E0E6F3"/>
  <path d="M222,-98L143,-104L185,-13Z" fill="#F8FAFC" stroke="#E0E6F3"/>
  <path d="M125,39L103,44L163,79Z" fill="#ECF0F7" stroke="#E0E6F3"/>
  <path d="M613,-105L143,-104L513,-103Z" fill="#F8FAFC" stroke="#E0E6F3"/>
  <path d="M96,-23L125,39L158,0Z" fill="#F2F5FA" stroke="#E0E6F3"/>
  <path d="M1335,85L1390,15L1340,11Z" fill="#F8FAFC" stroke="#E0E6F3"/>
  <path d="M1307,250L1357,202L1288,228Z" fill="#F8FAFC" stroke="#E0E6F3"/>
  <path d="M1373,287L1357,202L1307,250Z" fill="#F8FAFC" stroke="#E0E6F3"/>
  <path d="M1357,202L1364,142L1301,171Z" fill="#ECF0F7" stroke="#E0E6F3"/>
  <path d="M151,311L149,394L212,344Z" fill="#ECF0F7" stroke="#E0E6F3"/>
  <path d="M220,357L149,394L340,400Z" fill="#ECF0F7" stroke="#E0E6F3"/>
  <path d="M98,302L149,394L151,311Z" fill="#ECF0F7" stroke="#E0E6F3"/>
  <path d="M93,225L150,228L143,168Z" fill="#F8FAFC" stroke="#E0E6F3"/>
  <path d="M93,225L143,168L110,154Z" fill="#F8FAFC" stroke="#E0E6F3"/>
  <path d="M1277,315L1373,287L1307,250Z" fill="#F8FAFC" stroke="#E0E6F3"/>
  <path d="M1240,355L1313,390L1277,315Z" fill="#ECF0F7" stroke="#E0E6F3"/>
  <path d="M1165,386L1313,390L1240,355Z" fill="#F2F5FA" stroke="#E0E6F3"/>
  <path d="M1375,397L1313,390L1165,386Z" fill="#ECF0F7" stroke="#E0E6F3"/>
  <path d="M1340,11L1355,-23L1292,-28Z" fill="#F8FAFC" stroke="#E0E6F3"/>
  <path d="M1390,15L1355,-23L1340,11Z" fill="#F2F5FA" stroke="#E0E6F3"/>
  <path d="M101,248L98,302L143,247Z" fill="#F8FAFC" stroke="#E0E6F3"/>
  <path d="M32,166L93,225L110,154Z" fill="#F8FAFC" stroke="#E0E6F3"/>
  <path d="M103,44L80,105L163,79Z" fill="#F8FAFC" stroke="#E0E6F3"/>
  <path d="M25,105L80,105L11,58Z" fill="#ECF0F7" stroke="#E0E6F3"/>
  <path d="M143,-104L96,-23L158,0Z" fill="#F2F5FA" stroke="#E0E6F3"/>
  <path d="M19,275L98,302L101,248Z" fill="#F2F5FA" stroke="#E0E6F3"/>
  <path d="M19,275L101,248L93,225Z" fill="#F8FAFC" stroke="#E0E6F3"/>
  <path d="M143,-104L110,-99L96,-23Z" fill="#F2F5FA" stroke="#E0E6F3"/>
  <path d="M1355,-23L1354,-97L1295,-61Z" fill="#ECF0F7" stroke="#E0E6F3"/>
  <path d="M1295,-61L1354,-97L1252,-60Z" fill="#F2F5FA" stroke="#E0E6F3"/>
  <path d="M1172,-76L1354,-97L1070,-72Z" fill="#F2F5FA" stroke="#E0E6F3"/>
  <path d="M712,-100L1354,-97L613,-105Z" fill="#F2F5FA" stroke="#E0E6F3"/>
  <path d="M1404,-77L1354,-97L1355,-23Z" fill="#F2F5FA" stroke="#E0E6F3"/>
  <path d="M1371,323L1373,287L1277,315Z" fill="#ECF0F7" stroke="#E0E6F3"/>
  <path d="M1357,202L1403,148L1364,142Z" fill="#F8FAFC" stroke="#E0E6F3"/>
  <path d="M1411,72L1390,15L1335,85Z" fill="#ECF0F7" stroke="#E0E6F3"/>
  <path d="M1411,72L1335,85L1364,142Z" fill="#F8FAFC" stroke="#E0E6F3"/>
  <path d="M1411,227L1403,148L1357,202Z" fill="#F2F5FA" stroke="#E0E6F3"/>
  <path d="M1313,390L1371,323L1277,315Z" fill="#F8FAFC" stroke="#E0E6F3"/>
  <path d="M1411,227L1357,202L1373,287Z" fill="#F2F5FA" stroke="#E0E6F3"/>
  <path d="M1403,148L1411,72L1364,142Z" fill="#ECF0F7" stroke="#E0E6F3"/>
  <path d="M1390,15L1401,-20L1355,-23Z" fill="#F2F5FA" stroke="#E0E6F3"/>
  <path d="M1469,28L1401,-20L1390,15Z" fill="#ECF0F7" stroke="#E0E6F3"/>
  <path d="M1415,286L1411,227L1373,287Z" fill="#ECF0F7" stroke="#E0E6F3"/>
  <path d="M1485,129L1481,75L1411,72Z" fill="#ECF0F7" stroke="#E0E6F3"/>
  <path d="M1371,323L1398,316L1373,287Z" fill="#F2F5FA" stroke="#E0E6F3"/>
  <path d="M1395,367L1398,316L1371,323Z" fill="#F2F5FA" stroke="#E0E6F3"/>
  <path d="M80,105L103,44L11,58Z" fill="#F8FAFC" stroke="#E0E6F3"/>
  <path d="M25,105L32,166L80,105Z" fill="#F2F5FA" stroke="#E0E6F3"/>
  <path d="M80,105L32,166L110,154Z" fill="#F8FAFC" stroke="#E0E6F3"/>
  <path d="M1313,390L1375,397L1371,323Z" fill="#ECF0F7" stroke="#E0E6F3"/>
  <path d="M855,402L1375,397L1165,386Z" fill="#F2F5FA" stroke="#E0E6F3"/>
  <path d="M1401,-20L1404,-77L1355,-23Z" fill="#F8FAFC" stroke="#E0E6F3"/>
  <path d="M1474,-40L1404,-77L1401,-20Z" fill="#F2F5FA" stroke="#E0E6F3"/>
  <path d="M27,-20L103,44L96,-23Z" fill="#F2F5FA" stroke="#E0E6F3"/>
  <path d="M1451,333L1415,286L1398,316Z" fill="#F2F5FA" stroke="#E0E6F3"/>
  <path d="M1398,316L1415,286L1373,287Z" fill="#F8FAFC" stroke="#E0E6F3"/>
  <path d="M1411,227L1467,187L1403,148Z" fill="#ECF0F7" stroke="#E0E6F3"/>
  <path d="M1375,397L1395,367L1371,323Z" fill="#F2F5FA" stroke="#E0E6F3"/>
  <path d="M30,326L67,382L98,302Z" fill="#F8FAFC" stroke="#E0E6F3"/>
  <path d="M98,302L67,382L149,394Z" fill="#F2F5FA" stroke="#E0E6F3"/>
  <path d="M15,-90L27,-20L96,-23Z" fill="#F2F5FA" stroke="#E0E6F3"/>
  <path d="M32,166L15,204L93,225Z" fill="#ECF0F7" stroke="#E0E6F3"/>
  <path d="M-32,197L15,204L32,166Z" fill="#F2F5FA" stroke="#E0E6F3"/>
  <path d="M-32,197L32,166L-48,135Z" fill="#ECF0F7" stroke="#E0E6F3"/>
  <path d="M27,-20L11,58L103,44Z" fill="#F8FAFC" stroke="#E0E6F3"/>
  <path d="M15,204L19,275L93,225Z" fill="#F8FAFC" stroke="#E0E6F3"/>
  <path d="M19,275L30,326L98,302Z" fill="#F2F5FA" stroke="#E0E6F3"/>
  <path d="M27,-20L-6,59L11,58Z" fill="#ECF0F7" stroke="#E0E6F3"/>
  <path d="M11,58L-6,59L25,105Z" fill="#F2F5FA" stroke="#E0E6F3"/>
  <path d="M15,204L-53,253L19,275Z" fill="#F8FAFC" stroke="#E0E6F3"/>
  <path d="M1411,72L1469,28L1390,15Z" fill="#F2F5FA" stroke="#E0E6F3"/>
  <path d="M1484,278L1467,187L1411,227Z" fill="#F2F5FA" stroke="#E0E6F3"/>
  <path d="M1484,278L1411,227L1415,286Z" fill="#ECF0F7" stroke="#E0E6F3"/>
  <path d="M27,-20L-42,-18L-6,59Z" fill="#F8FAFC" stroke="#E0E6F3"/>
  <path d="M110,-99L15,-90L96,-23Z" fill="#ECF0F7" stroke="#E0E6F3"/>
  <path d="M-24,-105L15,-90L110,-99Z" fill="#F8FAFC" stroke="#E0E6F3"/>
  <path d="M1481,75L1469,28L1411,72Z" fill="#F8FAFC" stroke="#E0E6F3"/>
  <path d="M-7,376L30,326L-52,317Z" fill="#F8FAFC" stroke="#E0E6F3"/>
  <path d="M-7,376L24,369L30,326Z" fill="#F2F5FA" stroke="#E0E6F3"/>
  <path d="M30,326L24,369L67,382Z" fill="#F8FAFC" stroke="#E0E6F3"/>
  <path d="M1395,367L1451,333L1398,316Z" fill="#F8FAFC" stroke="#E0E6F3"/>
  <path d="M1492,379L1451,333L1395,367Z" fill="#F2F5FA" stroke="#E0E6F3"/>
  <path d="M1485,129L1411,72L1403,148Z" fill="#F8FAFC" stroke="#E0E6F3"/>
  <path d="M1485,129L1403,148L1467,187Z" fill="#ECF0F7" stroke="#E0E6F3"/>
  <path d="M1507,200L1485,129L1467,187Z" fill="#F2F5FA" stroke="#E0E6F3"/>
  <path d="M-6,59L-29,82L25,105Z" fill="#F8FAFC" stroke="#E0E6F3"/>
  <path d="M-73,43L-29,82L-6,59Z" fill="#F8FAFC" stroke="#E0E6F3"/>
  <path d="M1539,34L1469,28L1481,75Z" fill="#ECF0F7" stroke="#E0E6F3"/>
  <path d="M1516,-43L1474,-40L1469,28Z" fill="#F2F5FA" stroke="#E0E6F3"/>
  <path d="M1469,28L1474,-40L1401,-20Z" fill="#ECF0F7" stroke="#E0E6F3"/>
  <path d="M1474,-40L1469,-68L1404,-77Z" fill="#F2F5FA" stroke="#E0E6F3"/>
  <path d="M1404,-77L1539,-81L1354,-97Z" fill="#F2F5FA" stroke="#E0E6F3"/>
  <path d="M-48,135L32,166L25,105Z" fill="#ECF0F7" stroke="#E0E6F3"/>
  <path d="M1451,333L1484,278L1415,286Z" fill="#F2F5FA" stroke="#E0E6F3"/>
  <path d="M-73,107L-48,135L-29,82Z" fill="#F2F5FA" stroke="#E0E6F3"/>
  <path d="M-29,82L-48,135L25,105Z" fill="#F8FAFC" stroke="#E0E6F3"/>
  <path d="M24,369L-7,376L67,382Z" fill="#F8FAFC" stroke="#E0E6F3"/>
  <path d="M67,382L-69,384L149,394Z" fill="#F8FAFC" stroke="#E0E6F3"/>
  <path d="M-52,317L30,326L19,275Z" fill="#ECF0F7" stroke="#E0E6F3"/>
  <path d="M-53,253L15,204L-32,197Z" fill="#ECF0F7" stroke="#E0E6F3"/>
  <path d="M1485,129L1529,79L1481,75Z" fill="#F8FAFC" stroke="#E0E6F3"/>
  <path d="M1484,278L1507,200L1467,187Z" fill="#ECF0F7" stroke="#E0E6F3"/>
  <path d="M15,-90L-42,-18L27,-20Z" fill="#ECF0F7" stroke="#E0E6F3"/>
  <path d="M15,-90L-24,-105L-42,-18Z" fill="#F8FAFC" stroke="#E0E6F3"/>
  <path d="M143,-104L-24,-105L110,-99Z" fill="#F2F5FA" stroke="#E0E6F3"/>
  <path d="M613,-105L-24,-105L143,-104Z" fill="#F2F5FA" stroke="#E0E6F3"/>
  <path d="M-66,203L-53,253L-32,197Z" fill="#F2F5FA" stroke="#E0E6F3"/>
  <path d="M-65,164L-32,197L-48,135Z" fill="#ECF0F7" stroke="#E0E6F3"/>
  <path d="M-73,107L-65,164L-48,135Z" fill="#F2F5FA" stroke="#E0E6F3"/>
  <path d="M-65,164L-66,203L-32,197Z" fill="#ECF0F7" stroke="#E0E6F3"/>
  <path d="M1551,143L1529,79L1485,129Z" fill="#F8FAFC" stroke="#E0E6F3"/>
  <path d="M1474,-40L1516,-43L1469,-68Z" fill="#ECF0F7" stroke="#E0E6F3"/>
  <path d="M-73,43L-73,107L-29,82Z" fill="#F2F5FA" stroke="#E0E6F3"/>
  <path d="M-65,164L-101,243L-66,203Z" fill="#ECF0F7" stroke="#E0E6F3"/>
  <path d="M-73,43L-6,59L-42,-18Z" fill="#ECF0F7" stroke="#E0E6F3"/>
  <path d="M1484,278L1532,267L1507,200Z" fill="#F8FAFC" stroke="#E0E6F3"/>
  <path d="M1507,200L1551,143L1485,129Z" fill="#F2F5FA" stroke="#E0E6F3"/>
  <path d="M1451,333L1536,312L1484,278Z" fill="#F8FAFC" stroke="#E0E6F3"/>
  <path d="M1375,397L1492,379L1395,367Z" fill="#F8FAFC" stroke="#E0E6F3"/>
  <path d="M1539,34L1516,-43L1469,28Z" fill="#ECF0F7" stroke="#E0E6F3"/>
  <path d="M-101,327L-52,317L-53,253Z" fill="#F2F5FA" stroke="#E0E6F3"/>
  <path d="M-53,253L-52,317L19,275Z" fill="#F2F5FA" stroke="#E0E6F3"/>
  <path d="M-75,-11L-73,43L-42,-18Z" fill="#F2F5FA" stroke="#E0E6F3"/>
  <path d="M1529,79L1539,34L1481,75Z" fill="#ECF0F7" stroke="#E0E6F3"/>
  <path d="M1576,28L1539,34L1595,70Z" fill="#F2F5FA" stroke="#E0E6F3"/>
  <path d="M-97,-91L-75,-11L-42,-18Z" fill="#F2F5FA" stroke="#E0E6F3"/>
  <path d="M-73,43L-101,243L-73,107Z" fill="#ECF0F7" stroke="#E0E6F3"/>
  <path d="M1536,312L1532,267L1484,278Z" fill="#F8FAFC" stroke="#E0E6F3"/>
  <path d="M1559,219L1551,143L1507,200Z" fill="#F2F5FA" stroke="#E0E6F3"/>
  <path d="M1532,267L1559,219L1507,200Z" fill="#F8FAFC" stroke="#E0E6F3"/>
  <path d="M1492,379L1536,312L1451,333Z" fill="#F8FAFC" stroke="#E0E6F3"/>
  <path d="M1602,275L1559,219L1532,267Z" fill="#F2F5FA" stroke="#E0E6F3"/>
  <path d="M1516,-43L1539,-81L1469,-68Z" fill="#F2F5FA" stroke="#E0E6F3"/>
  <path d="M1469,-68L1539,-81L1404,-77Z" fill="#ECF0F7" stroke="#E0E6F3"/>
  <path d="M1603,-33L1539,-81L1516,-43Z" fill="#F2F5FA" stroke="#E0E6F3"/>
  <path d="M1576,28L1516,-43L1539,34Z" fill="#F8FAFC" stroke="#E0E6F3"/>
  <path d="M1539,34L1529,79L1595,70Z" fill="#F8FAFC" stroke="#E0E6F3"/>
  <path d="M-66,203L-101,243L-53,253Z" fill="#F2F5FA" stroke="#E0E6F3"/>
  <path d="M-73,107L-101,243L-65,164Z" fill="#F2F5FA" stroke="#E0E6F3"/>
  <path d="M-97,-91L-101,243L-73,43Z" fill="#F2F5FA" stroke="#E0E6F3"/>
  <path d="M-7,376L-69,384L67,382Z" fill="#ECF0F7" stroke="#E0E6F3"/>
  <path d="M-52,317L-69,384L-7,376Z" fill="#F8FAFC" stroke="#E0E6F3"/>
  <path d="M-101,327L-69,384L-52,317Z" fill="#F2F5FA" stroke="#E0E6F3"/>
  <path d="M1536,312L1602,275L1532,267Z" fill="#F8FAFC" stroke="#E0E6F3"/>
  <path d="M1492,379L1528,390L1536,312Z" fill="#F2F5FA" stroke="#E0E6F3"/>
  <path d="M1375,397L1528,390L1492,379Z" fill="#F2F5FA" stroke="#E0E6F3"/>
  <path d="M1595,70L1529,79L1551,143Z" fill="#ECF0F7" stroke="#E0E6F3"/>
  <path d="M-75,-11L-97,-91L-73,43Z" fill="#F8FAFC" stroke="#E0E6F3"/>
  <path d="M-24,-105L-97,-91L-42,-18Z" fill="#ECF0F7" stroke="#E0E6F3"/>
  <path d="M-101,243L-101,327L-53,253Z" fill="#F8FAFC" stroke="#E0E6F3"/>
  <path d="M1528,390L1562,339L1536,312Z" fill="#ECF0F7" stroke="#E0E6F3"/>
  <path d="M1601,147L1595,70L1551,143Z" fill="#F8FAFC" stroke="#E0E6F3"/>
  <path d="M1601,147L1551,143L1559,219Z" fill="#F2F5FA" stroke="#E0E6F3"/>
  <path d="M1576,28L1603,-33L1516,-43Z" fill="#ECF0F7" stroke="#E0E6F3"/>
  <path d="M1602,275L1601,147L1559,219Z" fill="#F8FAFC" stroke="#E0E6F3"/>
  <path d="M1562,339L1602,275L1536,312Z" fill="#ECF0F7" stroke="#E0E6F3"/>
  <path d="M1528,390L1576,380L1562,339Z" fill="#ECF0F7" stroke="#E0E6F3"/>
  <path d="M1576,380L1602,275L1562,339Z" fill="#F2F5FA" stroke="#E0E6F3"/>
  <path d="M1602,275L1603,-33L1601,147Z" fill="#ECF0F7" stroke="#E0E6F3"/>
  <path d="M1601,147L1603,-33L1595,70Z" fill="#F2F5FA" stroke="#E0E6F3"/>
  <path d="M1595,70L1603,-33L1576,28Z" fill="#F8FAFC" stroke="#E0E6F3"/>
  <path d="M1603,-33L1591,-101L1539,-81Z" fill="#F8FAFC" stroke="#E0E6F3"/>
  <path d="M1539,-81L1591,-101L1354,-97Z" fill="#ECF0F7" stroke="#E0E6F3"/>
  <path d="M1354,-97L1591,-101L613,-105Z" fill="#F2F5FA" stroke="#E0E6F3"/>
</svg>
