<?xml version="1.0"?>
<svg xmlns="http://www.w3.org/2000/svg" width="1440" height="300">
  <path d="M757,150L733,86L712,158Z" fill="#77add2" stroke="#77add2"/>
  <path d="M757,150L769,96L733,86Z" fill="#86b1d4" stroke="#86b1d4"/>
  <path d="M733,86L679,127L712,158Z" fill="#81b1d4" stroke="#81b1d4"/>
  <path d="M769,96L768,59L733,86Z" fill="#98b9d8" stroke="#98b9d8"/>
  <path d="M733,86L674,68L679,127Z" fill="#98b9d9" stroke="#98b9d9"/>
  <path d="M701,40L674,68L733,86Z" fill="#a6c0dd" stroke="#a6c0dd"/>
  <path d="M768,59L701,40L733,86Z" fill="#a3bfdc" stroke="#a3bfdc"/>
  <path d="M757,150L825,153L769,96Z" fill="#70a9cf" stroke="#70a9cf"/>
  <path d="M769,96L837,78L768,59Z" fill="#96b7d7" stroke="#96b7d7"/>
  <path d="M774,220L825,153L757,150Z" fill="#519cc7" stroke="#519cc7"/>
  <path d="M712,158L735,224L757,150Z" fill="#559fc9" stroke="#559fc9"/>
  <path d="M713,242L735,224L712,158Z" fill="#4998b8" stroke="#4998b8"/>
  <path d="M735,224L774,220L757,150Z" fill="#4898be" stroke="#4898be"/>
  <path d="M679,127L640,188L712,158Z" fill="#6ba9cf" stroke="#6ba9cf"/>
  <path d="M584,169L640,188L679,127Z" fill="#72aacf" stroke="#72aacf"/>
  <path d="M674,68L598,75L679,127Z" fill="#a1bddb" stroke="#a1bddb"/>
  <path d="M701,40L683,20L674,68Z" fill="#b1c6e0" stroke="#b1c6e0"/>
  <path d="M684,-13L683,20L701,40Z" fill="#b8cde4" stroke="#b8cde4"/>
  <path d="M825,153L837,78L769,96Z" fill="#81add2" stroke="#81add2"/>
  <path d="M700,-42L684,-13L701,40Z" fill="#bbd1e6" stroke="#bbd1e6"/>
  <path d="M640,188L713,242L712,158Z" fill="#549dc2" stroke="#549dc2"/>
  <path d="M735,224L758,283L774,220Z" fill="#3b8d9e" stroke="#3b8d9e"/>
  <path d="M683,20L618,50L674,68Z" fill="#b4c7e1" stroke="#b4c7e1"/>
  <path d="M837,78L831,30L768,59Z" fill="#9dbbd9" stroke="#9dbbd9"/>
  <path d="M816,273L840,219L774,220Z" fill="#348ba0" stroke="#348ba0"/>
  <path d="M640,188L684,256L713,242Z" fill="#4a96ab" stroke="#4a96ab"/>
  <path d="M618,50L598,75L674,68Z" fill="#b1c4df" stroke="#b1c4df"/>
  <path d="M837,78L869,27L831,30Z" fill="#9ebada" stroke="#9ebada"/>
  <path d="M825,153L871,103L837,78Z" fill="#7cabd0" stroke="#7cabd0"/>
  <path d="M909,143L871,103L825,153Z" fill="#66a3cc" stroke="#66a3cc"/>
  <path d="M700,-42L701,40L783,-40Z" fill="#b6cfe5" stroke="#b6cfe5"/>
  <path d="M683,20L624,-9L618,50Z" fill="#becfe5" stroke="#becfe5"/>
  <path d="M774,220L840,219L825,153Z" fill="#4094bc" stroke="#4094bc"/>
  <path d="M758,283L735,224L713,242Z" fill="#3d8d9a" stroke="#3d8d9a"/>
  <path d="M640,188L585,223L684,256Z" fill="#559ab1" stroke="#559ab1"/>
  <path d="M598,75L584,169L679,127Z" fill="#91b5d7" stroke="#91b5d7"/>
  <path d="M684,256L758,283L713,242Z" fill="#3f8b94" stroke="#3f8b94"/>
  <path d="M598,75L564,128L584,169Z" fill="#96b8d7" stroke="#96b8d7"/>
  <path d="M684,-13L624,-9L683,20Z" fill="#c0d2e7" stroke="#c0d2e7"/>
  <path d="M783,-40L701,40L768,59Z" fill="#afc8e1" stroke="#afc8e1"/>
  <path d="M652,-99L624,-9L684,-13Z" fill="#c1d3e7" stroke="#c1d3e7"/>
  <path d="M618,50L544,17L598,75Z" fill="#bfcbe3" stroke="#bfcbe3"/>
  <path d="M598,75L534,110L564,128Z" fill="#a7bddb" stroke="#a7bddb"/>
  <path d="M840,219L869,220L825,153Z" fill="#3b92bb" stroke="#3b92bb"/>
  <path d="M876,255L869,220L840,219Z" fill="#2b89a2" stroke="#2b89a2"/>
  <path d="M831,30L783,-40L768,59Z" fill="#acc6e0" stroke="#acc6e0"/>
  <path d="M871,103L869,27L837,78Z" fill="#93b5d6" stroke="#93b5d6"/>
  <path d="M758,283L816,273L774,220Z" fill="#368792" stroke="#368792"/>
  <path d="M819,-39L783,-40L831,30Z" fill="#aec9e1" stroke="#aec9e1"/>
  <path d="M584,169L585,223L640,188Z" fill="#68a2c7" stroke="#68a2c7"/>
  <path d="M696,338L781,310L758,283Z" fill="#35747e" stroke="#35747e"/>
  <path d="M541,187L585,223L584,169Z" fill="#6ea4c8" stroke="#6ea4c8"/>
  <path d="M869,220L909,143L825,153Z" fill="#4797c5" stroke="#4797c5"/>
  <path d="M871,103L928,114L869,27Z" fill="#8aafd3" stroke="#8aafd3"/>
  <path d="M869,27L819,-39L831,30Z" fill="#aac5df" stroke="#aac5df"/>
  <path d="M819,-39L768,-62L783,-40Z" fill="#b0cae2" stroke="#b0cae2"/>
  <path d="M783,-40L768,-62L700,-42Z" fill="#b4cde4" stroke="#b4cde4"/>
  <path d="M816,273L876,255L840,219Z" fill="#2e8596" stroke="#2e8596"/>
  <path d="M758,283L781,310L816,273Z" fill="#317882" stroke="#317882"/>
  <path d="M696,338L758,283L684,256Z" fill="#3b7b83" stroke="#3b7b83"/>
  <path d="M544,17L534,110L598,75Z" fill="#bbc7e1" stroke="#bbc7e1"/>
  <path d="M564,128L541,187L584,169Z" fill="#7fadd2" stroke="#7fadd2"/>
  <path d="M945,200L939,142L909,143Z" fill="#4797c0" stroke="#4797c0"/>
  <path d="M895,315L876,255L816,273Z" fill="#287783" stroke="#287783"/>
  <path d="M534,110L541,187L564,128Z" fill="#8eb5d7" stroke="#8eb5d7"/>
  <path d="M909,143L928,114L871,103Z" fill="#6ea4cc" stroke="#6ea4cc"/>
  <path d="M939,142L928,114L909,143Z" fill="#60a0c6" stroke="#60a0c6"/>
  <path d="M548,271L586,263L585,223Z" fill="#5c959e" stroke="#5c959e"/>
  <path d="M585,223L586,263L684,256Z" fill="#5494a0" stroke="#5494a0"/>
  <path d="M945,200L909,143L869,220Z" fill="#368fbf" stroke="#368fbf"/>
  <path d="M624,-9L559,-1L618,50Z" fill="#c6d2e7" stroke="#c6d2e7"/>
  <path d="M613,-105L559,-1L624,-9Z" fill="#cad6e9" stroke="#cad6e9"/>
  <path d="M652,-99L684,-13L700,-42Z" fill="#bed2e7" stroke="#bed2e7"/>
  <path d="M586,263L620,305L684,256Z" fill="#4e888e" stroke="#4e888e"/>
  <path d="M559,-1L544,17L618,50Z" fill="#c8d2e7" stroke="#c8d2e7"/>
  <path d="M652,338L696,338L684,256Z" fill="#407880" stroke="#407880"/>
  <path d="M819,-39L856,-60L768,-62Z" fill="#aec9e1" stroke="#aec9e1"/>
  <path d="M893,-31L856,-60L819,-39Z" fill="#aac5e0" stroke="#aac5e0"/>
  <path d="M893,-31L819,-39L869,27Z" fill="#a9c5df" stroke="#a9c5df"/>
  <path d="M768,-62L712,-100L700,-42Z" fill="#b6cfe5" stroke="#b6cfe5"/>
  <path d="M856,-60L712,-100L768,-62Z" fill="#b1cbe3" stroke="#b1cbe3"/>
  <path d="M930,-20L893,-31L869,27Z" fill="#a6c2de" stroke="#a6c2de"/>
  <path d="M966,58L869,27L928,114Z" fill="#8eb1d1" stroke="#8eb1d1"/>
  <path d="M620,305L652,338L684,256Z" fill="#457a81" stroke="#457a81"/>
  <path d="M876,255L945,200L869,220Z" fill="#2489a5" stroke="#2489a5"/>
  <path d="M541,187L548,271L585,223Z" fill="#639eb0" stroke="#639eb0"/>
  <path d="M586,263L548,271L620,305Z" fill="#55888d" stroke="#55888d"/>
  <path d="M620,305L646,358L652,338Z" fill="#477a81" stroke="#477a81"/>
  <path d="M497,272L548,271L541,187Z" fill="#659aa5" stroke="#659aa5"/>
  <path d="M534,110L480,189L541,187Z" fill="#85b0d3" stroke="#85b0d3"/>
  <path d="M544,17L500,76L534,110Z" fill="#bfc9e2" stroke="#bfc9e2"/>
  <path d="M712,-100L652,-99L700,-42Z" fill="#bcd1e6" stroke="#bcd1e6"/>
  <path d="M781,310L839,337L816,273Z" fill="#2c707b" stroke="#2c707b"/>
  <path d="M876,255L940,281L945,200Z" fill="#228294" stroke="#228294"/>
  <path d="M790,359L839,337L781,310Z" fill="#2e707b" stroke="#2e707b"/>
  <path d="M544,17L512,19L500,76Z" fill="#ccd0e6" stroke="#ccd0e6"/>
  <path d="M559,-1L512,19L544,17Z" fill="#d0d6e9" stroke="#d0d6e9"/>
  <path d="M493,-26L512,19L559,-1Z" fill="#d5dbeb" stroke="#d5dbeb"/>
  <path d="M716,372L781,310L696,338Z" fill="#36757e" stroke="#36757e"/>
  <path d="M716,372L790,359L781,310Z" fill="#33737d" stroke="#33737d"/>
  <path d="M1007,73L966,58L928,114Z" fill="#84abc8" stroke="#84abc8"/>
  <path d="M1007,73L928,114L939,142Z" fill="#72a5c5" stroke="#72a5c5"/>
  <path d="M893,-31L890,-68L856,-60Z" fill="#a8c4df" stroke="#a8c4df"/>
  <path d="M966,58L930,-20L869,27Z" fill="#9ebcd7" stroke="#9ebcd7"/>
  <path d="M652,338L646,358L696,338Z" fill="#427980" stroke="#427980"/>
  <path d="M621,394L646,358L620,305Z" fill="#497b81" stroke="#497b81"/>
  <path d="M646,358L716,372L696,338Z" fill="#3e787f" stroke="#3e787f"/>
  <path d="M927,-71L890,-68L893,-31Z" fill="#a5c2dd" stroke="#a5c2dd"/>
  <path d="M856,-60L890,-68L712,-100Z" fill="#adc8e1" stroke="#adc8e1"/>
  <path d="M960,322L895,315L942,373Z" fill="#1c6973" stroke="#1c6973"/>
  <path d="M839,337L895,315L816,273Z" fill="#286d7a" stroke="#286d7a"/>
  <path d="M652,-99L613,-105L624,-9Z" fill="#c5d5e8" stroke="#c5d5e8"/>
  <path d="M712,-100L613,-105L652,-99Z" fill="#c1d3e7" stroke="#c1d3e7"/>
  <path d="M465,129L480,189L534,110Z" fill="#94b8d8" stroke="#94b8d8"/>
  <path d="M895,315L940,281L876,255Z" fill="#217380" stroke="#217380"/>
  <path d="M945,200L998,167L939,142Z" fill="#3f93ba" stroke="#3f93ba"/>
  <path d="M441,141L465,129L430,85Z" fill="#adc0dd" stroke="#adc0dd"/>
  <path d="M500,76L465,129L534,110Z" fill="#b0c1dd" stroke="#b0c1dd"/>
  <path d="M1010,227L998,167L945,200Z" fill="#298bab" stroke="#298bab"/>
  <path d="M613,-105L526,-59L559,-1Z" fill="#cfd8ea" stroke="#cfd8ea"/>
  <path d="M430,29L430,85L500,76Z" fill="#cacee4" stroke="#cacee4"/>
  <path d="M548,271L538,339L620,305Z" fill="#537e83" stroke="#537e83"/>
  <path d="M480,189L497,272L541,187Z" fill="#6fa3b9" stroke="#6fa3b9"/>
  <path d="M433,266L497,272L480,189Z" fill="#6d9ea7" stroke="#6d9ea7"/>
  <path d="M930,-20L927,-71L893,-31Z" fill="#a4c2db" stroke="#a4c2db"/>
  <path d="M890,-68L927,-71L712,-100Z" fill="#abc6e0" stroke="#abc6e0"/>
  <path d="M1006,-15L927,-71L930,-20Z" fill="#a1c0d5" stroke="#a1c0d5"/>
  <path d="M526,-59L493,-26L559,-1Z" fill="#d4dbeb" stroke="#d4dbeb"/>
  <path d="M966,58L1006,-15L930,-20Z" fill="#9ebdd2" stroke="#9ebdd2"/>
  <path d="M998,167L1007,73L939,142Z" fill="#629fbe" stroke="#629fbe"/>
  <path d="M1007,73L1008,53L966,58Z" fill="#8aafc6" stroke="#8aafc6"/>
  <path d="M497,272L538,339L548,271Z" fill="#5b8487" stroke="#5b8487"/>
  <path d="M646,358L621,394L716,372Z" fill="#437980" stroke="#437980"/>
  <path d="M465,129L441,141L480,189Z" fill="#91b6d7" stroke="#91b6d7"/>
  <path d="M430,85L465,129L500,76Z" fill="#b8c5e0" stroke="#b8c5e0"/>
  <path d="M538,339L621,394L620,305Z" fill="#4f7d82" stroke="#4f7d82"/>
  <path d="M716,372L855,402L790,359Z" fill="#30727c" stroke="#30727c"/>
  <path d="M998,167L1042,140L1007,73Z" fill="#5f9db9" stroke="#5f9db9"/>
  <path d="M1007,73L1042,88L1008,53Z" fill="#84acc1" stroke="#84acc1"/>
  <path d="M940,281L1010,227L945,200Z" fill="#1b8393" stroke="#1b8393"/>
  <path d="M430,29L500,76L512,19Z" fill="#cfd2e7" stroke="#cfd2e7"/>
  <path d="M940,281L1032,264L1010,227Z" fill="#187b81" stroke="#187b81"/>
  <path d="M895,315L960,322L940,281Z" fill="#1c6973" stroke="#1c6973"/>
  <path d="M910,389L895,315L839,337Z" fill="#236b79" stroke="#236b79"/>
  <path d="M790,359L855,402L839,337Z" fill="#2a6f7a" stroke="#2a6f7a"/>
  <path d="M621,394L855,402L716,372Z" fill="#37757e" stroke="#37757e"/>
  <path d="M1008,53L1006,-15L966,58Z" fill="#95b6ca" stroke="#95b6ca"/>
  <path d="M1058,231L1042,140L998,167Z" fill="#318dad" stroke="#318dad"/>
  <path d="M1008,53L1059,12L1006,-15Z" fill="#97b9c7" stroke="#97b9c7"/>
  <path d="M526,-59L513,-103L493,-26Z" fill="#d6dbec" stroke="#d6dbec"/>
  <path d="M493,-26L445,-9L512,19Z" fill="#d9ddec" stroke="#d9ddec"/>
  <path d="M613,-105L513,-103L526,-59Z" fill="#d1d9ea" stroke="#d1d9ea"/>
  <path d="M431,-85L445,-9L493,-26Z" fill="#dddeed" stroke="#dddeed"/>
  <path d="M445,-9L430,29L512,19Z" fill="#d8dbec" stroke="#d8dbec"/>
  <path d="M1042,140L1042,88L1007,73Z" fill="#73a4bb" stroke="#73a4bb"/>
  <path d="M855,402L910,389L839,337Z" fill="#256c79" stroke="#256c79"/>
  <path d="M497,272L483,341L538,339Z" fill="#5c8285" stroke="#5c8285"/>
  <path d="M441,141L417,221L480,189Z" fill="#84add2" stroke="#84add2"/>
  <path d="M384,169L417,221L441,141Z" fill="#8bb1d4" stroke="#8bb1d4"/>
  <path d="M390,74L441,141L430,85Z" fill="#bbc7e1" stroke="#bbc7e1"/>
  <path d="M1020,316L1032,264L940,281Z" fill="#156d70" stroke="#156d70"/>
  <path d="M910,389L942,373L895,315Z" fill="#1e6a75" stroke="#1e6a75"/>
  <path d="M439,303L483,341L497,272Z" fill="#608386" stroke="#608386"/>
  <path d="M538,339L551,403L621,394Z" fill="#537e83" stroke="#537e83"/>
  <path d="M417,221L433,266L480,189Z" fill="#73a4b4" stroke="#73a4b4"/>
  <path d="M471,390L551,403L538,339Z" fill="#5a8184" stroke="#5a8184"/>
  <path d="M621,394L551,403L855,402Z" fill="#407880" stroke="#407880"/>
  <path d="M1010,227L1058,231L998,167Z" fill="#1e879e" stroke="#1e879e"/>
  <path d="M1020,316L940,281L960,322Z" fill="#18676e" stroke="#18676e"/>
  <path d="M483,341L471,390L538,339Z" fill="#5d8285" stroke="#5d8285"/>
  <path d="M433,266L439,303L497,272Z" fill="#678f90" stroke="#678f90"/>
  <path d="M373,318L439,303L433,266Z" fill="#67898a" stroke="#67898a"/>
  <path d="M430,29L390,74L430,85Z" fill="#ced1e6" stroke="#ced1e6"/>
  <path d="M392,12L390,74L430,29Z" fill="#d9d7e9" stroke="#d9d7e9"/>
  <path d="M1032,264L1058,231L1010,227Z" fill="#117e86" stroke="#117e86"/>
  <path d="M1089,-25L1059,12L1127,19Z" fill="#94babf" stroke="#94babf"/>
  <path d="M390,74L384,169L441,141Z" fill="#abc0dd" stroke="#abc0dd"/>
  <path d="M417,221L361,256L433,266Z" fill="#74a0a6" stroke="#74a0a6"/>
  <path d="M1144,100L1042,88L1042,140Z" fill="#69a0b3" stroke="#69a0b3"/>
  <path d="M1042,88L1059,12L1008,53Z" fill="#8bb0c1" stroke="#8bb0c1"/>
  <path d="M1006,-15L1029,-63L927,-71Z" fill="#9ebfcf" stroke="#9ebfcf"/>
  <path d="M1019,358L1020,316L960,322Z" fill="#14666a" stroke="#14666a"/>
  <path d="M1032,264L1055,261L1058,231Z" fill="#0d7b7c" stroke="#0d7b7c"/>
  <path d="M927,-71L1070,-72L712,-100Z" fill="#a5c2dd" stroke="#a5c2dd"/>
  <path d="M1059,12L1029,-63L1006,-15Z" fill="#9abdc8" stroke="#9abdc8"/>
  <path d="M1020,316L1055,261L1032,264Z" fill="#0f6f6e" stroke="#0f6f6e"/>
  <path d="M445,-9L392,12L430,29Z" fill="#dedded" stroke="#dedded"/>
  <path d="M313,174L355,210L384,169Z" fill="#8fb2d4" stroke="#8fb2d4"/>
  <path d="M382,-1L392,12L445,-9Z" fill="#e2e1ef" stroke="#e2e1ef"/>
  <path d="M513,-103L431,-85L493,-26Z" fill="#dadded" stroke="#dadded"/>
  <path d="M431,-85L382,-1L445,-9Z" fill="#e0e0ee" stroke="#e0e0ee"/>
  <path d="M392,12L318,59L390,74Z" fill="#d9d6ea" stroke="#d9d6ea"/>
  <path d="M439,386L483,341L439,303Z" fill="#628486" stroke="#628486"/>
  <path d="M439,386L471,390L483,341Z" fill="#618486" stroke="#618486"/>
  <path d="M1020,316L1059,347L1055,261Z" fill="#0c6463" stroke="#0c6463"/>
  <path d="M942,373L1019,358L960,322Z" fill="#17676e" stroke="#17676e"/>
  <path d="M1089,373L1019,358L942,373Z" fill="#116567" stroke="#116567"/>
  <path d="M1123,259L1105,195L1058,231Z" fill="#037f86" stroke="#037f86"/>
  <path d="M1058,231L1105,195L1042,140Z" fill="#2489a5" stroke="#2489a5"/>
  <path d="M1123,259L1058,231L1055,261Z" fill="#057a79" stroke="#057a79"/>
  <path d="M384,169L355,210L417,221Z" fill="#85acc9" stroke="#85acc9"/>
  <path d="M335,104L384,169L390,74Z" fill="#b8c5e0" stroke="#b8c5e0"/>
  <path d="M1059,12L1089,-25L1029,-63Z" fill="#97bcc4" stroke="#97bcc4"/>
  <path d="M1127,19L1059,12L1042,88Z" fill="#8bb1bc" stroke="#8bb1bc"/>
  <path d="M1105,195L1116,169L1042,140Z" fill="#358fa7" stroke="#358fa7"/>
  <path d="M471,390L340,400L551,403Z" fill="#628486" stroke="#628486"/>
  <path d="M373,318L439,386L439,303Z" fill="#668687" stroke="#668687"/>
  <path d="M355,210L361,256L417,221Z" fill="#7ba7b4" stroke="#7ba7b4"/>
  <path d="M1029,-63L1070,-72L927,-71Z" fill="#9cbecc" stroke="#9cbecc"/>
  <path d="M1089,-25L1070,-72L1029,-63Z" fill="#97bcc4" stroke="#97bcc4"/>
  <path d="M318,59L335,104L390,74Z" fill="#cfd0e6" stroke="#cfd0e6"/>
  <path d="M355,210L332,266L361,256Z" fill="#7ba4aa" stroke="#7ba4aa"/>
  <path d="M1019,358L1059,347L1020,316Z" fill="#0e6565" stroke="#0e6565"/>
  <path d="M1167,229L1176,158L1116,169Z" fill="#27859b" stroke="#27859b"/>
  <path d="M1089,373L1059,347L1019,358Z" fill="#0a6462" stroke="#0a6462"/>
  <path d="M361,256L373,318L433,266Z" fill="#6e9392" stroke="#6e9392"/>
  <path d="M1089,-25L1113,-43L1070,-72Z" fill="#95bbbf" stroke="#95bbbf"/>
  <path d="M1144,100L1127,19L1042,88Z" fill="#7fa9b4" stroke="#7fa9b4"/>
  <path d="M1116,169L1144,100L1042,140Z" fill="#5098ab" stroke="#5098ab"/>
  <path d="M1172,101L1144,100L1176,158Z" fill="#5e98a5" stroke="#5e98a5"/>
  <path d="M335,104L313,174L384,169Z" fill="#a1bedb" stroke="#a1bedb"/>
  <path d="M361,256L332,266L373,318Z" fill="#729493" stroke="#729493"/>
  <path d="M382,-1L318,59L392,12Z" fill="#e1dded" stroke="#e1dded"/>
  <path d="M333,-38L318,59L382,-1Z" fill="#e7e2f0" stroke="#e7e2f0"/>
  <path d="M1124,340L1123,259L1055,261Z" fill="#046962" stroke="#046962"/>
  <path d="M1127,19L1113,-43L1089,-25Z" fill="#94b9bd" stroke="#94b9bd"/>
  <path d="M261,125L313,174L335,104Z" fill="#b0c3df" stroke="#b0c3df"/>
  <path d="M431,-85L355,-70L382,-1Z" fill="#e4e2ef" stroke="#e4e2ef"/>
  <path d="M245,-79L355,-70L222,-98Z" fill="#eee8f3" stroke="#eee8f3"/>
  <path d="M310,211L332,266L355,210Z" fill="#7fa9b5" stroke="#7fa9b5"/>
  <path d="M355,-70L333,-38L382,-1Z" fill="#e8e4f0" stroke="#e8e4f0"/>
  <path d="M313,174L310,211L355,210Z" fill="#8bb0cc" stroke="#8bb0cc"/>
  <path d="M273,186L310,211L313,174Z" fill="#91b2d2" stroke="#91b2d2"/>
  <path d="M1059,347L1124,340L1055,261Z" fill="#04635f" stroke="#04635f"/>
  <path d="M910,389L1089,373L942,373Z" fill="#17676d" stroke="#17676d"/>
  <path d="M1165,386L1089,373L910,389Z" fill="#0a6462" stroke="#0a6462"/>
  <path d="M1144,100L1195,27L1127,19Z" fill="#85aaaf" stroke="#85aaaf"/>
  <path d="M1127,19L1138,-61L1113,-43Z" fill="#93b9ba" stroke="#93b9ba"/>
  <path d="M1176,158L1144,100L1116,169Z" fill="#4893a3" stroke="#4893a3"/>
  <path d="M1116,169L1105,195L1167,229Z" fill="#1e8496" stroke="#1e8496"/>
  <path d="M1167,229L1105,195L1123,259Z" fill="#047d81" stroke="#047d81"/>
  <path d="M1199,-6L1138,-61L1127,19Z" fill="#92b6b6" stroke="#92b6b6"/>
  <path d="M1113,-43L1138,-61L1070,-72Z" fill="#94babd" stroke="#94babd"/>
  <path d="M1109,367L1124,340L1059,347Z" fill="#04625c" stroke="#04625c"/>
  <path d="M1201,248L1167,229L1123,259Z" fill="#057671" stroke="#057671"/>
  <path d="M1089,373L1109,367L1059,347Z" fill="#04625e" stroke="#04625e"/>
  <path d="M297,304L355,378L373,318Z" fill="#6e8a89" stroke="#6e8a89"/>
  <path d="M373,318L355,378L439,386Z" fill="#698888" stroke="#698888"/>
  <path d="M439,386L340,400L471,390Z" fill="#668687" stroke="#668687"/>
  <path d="M297,304L373,318L332,266Z" fill="#6f8c8c" stroke="#6f8c8c"/>
  <path d="M318,59L275,69L335,104Z" fill="#d3d3e7" stroke="#d3d3e7"/>
  <path d="M269,23L275,69L318,59Z" fill="#dfdaeb" stroke="#dfdaeb"/>
  <path d="M243,268L297,304L332,266Z" fill="#779896" stroke="#779896"/>
  <path d="M261,125L273,186L313,174Z" fill="#a0bcda" stroke="#a0bcda"/>
  <path d="M333,-38L269,23L318,59Z" fill="#e8e2f0" stroke="#e8e2f0"/>
  <path d="M355,-70L302,-56L333,-38Z" fill="#eae5f1" stroke="#eae5f1"/>
  <path d="M212,99L261,125L275,69Z" fill="#ccd0e5" stroke="#ccd0e5"/>
  <path d="M275,69L261,125L335,104Z" fill="#c8cee5" stroke="#c8cee5"/>
  <path d="M243,268L332,266L310,211Z" fill="#7ea5a8" stroke="#7ea5a8"/>
  <path d="M302,-56L269,23L333,-38Z" fill="#ece7f2" stroke="#ece7f2"/>
  <path d="M1195,27L1172,101L1262,78Z" fill="#7ba3a5" stroke="#7ba3a5"/>
  <path d="M1218,22L1195,27L1262,78Z" fill="#84a7a6" stroke="#84a7a6"/>
  <path d="M1172,101L1195,27L1144,100Z" fill="#79a3aa" stroke="#79a3aa"/>
  <path d="M275,358L340,400L355,378Z" fill="#6f8b8a" stroke="#6f8b8a"/>
  <path d="M355,378L340,400L439,386Z" fill="#6a8888" stroke="#6a8888"/>
  <path d="M1199,-6L1172,-76L1138,-61Z" fill="#91b5b3" stroke="#91b5b3"/>
  <path d="M1138,-61L1172,-76L1070,-72Z" fill="#93b8ba" stroke="#93b8ba"/>
  <path d="M1070,-72L1354,-97L712,-100Z" fill="#98bdc6" stroke="#98bdc6"/>
  <path d="M1195,27L1199,-6L1127,19Z" fill="#8eb2b1" stroke="#8eb2b1"/>
  <path d="M1167,229L1201,248L1176,158Z" fill="#147d85" stroke="#147d85"/>
  <path d="M1195,27L1218,22L1199,-6Z" fill="#8cb0ad" stroke="#8cb0ad"/>
  <path d="M1179,334L1201,248L1123,259Z" fill="#04685d" stroke="#04685d"/>
  <path d="M1179,334L1123,259L1124,340Z" fill="#045f56" stroke="#045f56"/>
  <path d="M302,-56L263,-42L269,23Z" fill="#eee8f3" stroke="#eee8f3"/>
  <path d="M196,47L212,99L275,69Z" fill="#dcd8ea" stroke="#dcd8ea"/>
  <path d="M1165,386L1179,334L1124,340Z" fill="#045e55" stroke="#045e55"/>
  <path d="M1230,138L1172,101L1176,158Z" fill="#52939e" stroke="#52939e"/>
  <path d="M1199,-6L1224,-29L1172,-76Z" fill="#90b4b0" stroke="#90b4b0"/>
  <path d="M1250,225L1230,138L1176,158Z" fill="#2f8594" stroke="#2f8594"/>
  <path d="M1250,225L1176,158L1201,248Z" fill="#157c83" stroke="#157c83"/>
  <path d="M273,186L243,268L310,211Z" fill="#86adbc" stroke="#86adbc"/>
  <path d="M297,304L275,358L355,378Z" fill="#708c8a" stroke="#708c8a"/>
  <path d="M201,244L243,268L273,186Z" fill="#86acb5" stroke="#86acb5"/>
  <path d="M205,166L273,186L261,125Z" fill="#a4bfdc" stroke="#a4bfdc"/>
  <path d="M1109,367L1165,386L1124,340Z" fill="#046057" stroke="#046057"/>
  <path d="M1089,373L1165,386L1109,367Z" fill="#046059" stroke="#046059"/>
  <path d="M855,402L1165,386L910,389Z" fill="#17676d" stroke="#17676d"/>
  <path d="M266,344L275,358L297,304Z" fill="#738d8b" stroke="#738d8b"/>
  <path d="M243,268L266,344L297,304Z" fill="#738d8b" stroke="#738d8b"/>
  <path d="M196,47L275,69L269,23Z" fill="#e3dded" stroke="#e3dded"/>
  <path d="M1218,22L1224,-29L1199,-6Z" fill="#8fb3ad" stroke="#8fb3ad"/>
  <path d="M1252,-60L1224,-29L1292,-28Z" fill="#8db0a7" stroke="#8db0a7"/>
  <path d="M1227,300L1234,241L1201,248Z" fill="#026e5e" stroke="#026e5e"/>
  <path d="M1230,138L1262,78L1172,101Z" fill="#66989e" stroke="#66989e"/>
  <path d="M1227,300L1201,248L1179,334Z" fill="#035f51" stroke="#035f51"/>
  <path d="M185,-13L196,47L269,23Z" fill="#ede5f1" stroke="#ede5f1"/>
  <path d="M302,-56L245,-79L263,-42Z" fill="#eee8f3" stroke="#eee8f3"/>
  <path d="M355,-70L245,-79L302,-56Z" fill="#ece7f2" stroke="#ece7f2"/>
  <path d="M222,-98L355,-70L431,-85Z" fill="#e9e5f1" stroke="#e9e5f1"/>
  <path d="M212,344L220,357L266,344Z" fill="#768f8c" stroke="#768f8c"/>
  <path d="M212,99L205,166L261,125Z" fill="#b9c9e1" stroke="#b9c9e1"/>
  <path d="M1240,355L1227,300L1179,334Z" fill="#035b4d" stroke="#035b4d"/>
  <path d="M1288,228L1250,225L1234,241Z" fill="#05746e" stroke="#05746e"/>
  <path d="M1234,241L1250,225L1201,248Z" fill="#05756d" stroke="#05756d"/>
  <path d="M1297,68L1262,78L1301,171Z" fill="#639396" stroke="#639396"/>
  <path d="M143,168L189,195L205,166Z" fill="#a1bcda" stroke="#a1bcda"/>
  <path d="M185,-13L269,23L263,-42Z" fill="#f1e9f4" stroke="#f1e9f4"/>
  <path d="M189,195L201,244L273,186Z" fill="#90b3c7" stroke="#90b3c7"/>
  <path d="M266,344L220,357L275,358Z" fill="#748e8b" stroke="#748e8b"/>
  <path d="M189,195L273,186L205,166Z" fill="#9bb8d8" stroke="#9bb8d8"/>
  <path d="M143,168L205,166L212,99Z" fill="#b2c6e1" stroke="#b2c6e1"/>
  <path d="M245,-79L185,-13L263,-42Z" fill="#f1eaf4" stroke="#f1eaf4"/>
  <path d="M513,-103L222,-98L431,-85Z" fill="#e4e2ef" stroke="#e4e2ef"/>
  <path d="M143,-104L222,-98L513,-103Z" fill="#ece7f2" stroke="#ece7f2"/>
  <path d="M1224,-29L1252,-60L1172,-76Z" fill="#8fb3ad" stroke="#8fb3ad"/>
  <path d="M1292,-28L1224,-29L1218,22Z" fill="#8eb1a8" stroke="#8eb1a8"/>
  <path d="M212,344L243,268L201,244Z" fill="#7b9894" stroke="#7b9894"/>
  <path d="M212,344L266,344L243,268Z" fill="#758e8c" stroke="#758e8c"/>
  <path d="M275,358L220,357L340,400Z" fill="#738d8b" stroke="#738d8b"/>
  <path d="M1297,68L1288,43L1262,78Z" fill="#799e9c" stroke="#799e9c"/>
  <path d="M1307,250L1288,228L1234,241Z" fill="#047066" stroke="#047066"/>
  <path d="M1165,386L1240,355L1179,334Z" fill="#035d4f" stroke="#035d4f"/>
  <path d="M196,47L163,79L212,99Z" fill="#ddd9ea" stroke="#ddd9ea"/>
  <path d="M222,-98L185,-13L245,-79Z" fill="#f2eaf4" stroke="#f2eaf4"/>
  <path d="M151,311L212,344L201,244Z" fill="#79918d" stroke="#79918d"/>
  <path d="M1301,171L1230,138L1250,225Z" fill="#2c818d" stroke="#2c818d"/>
  <path d="M1262,78L1288,43L1218,22Z" fill="#80a4a0" stroke="#80a4a0"/>
  <path d="M125,39L163,79L196,47Z" fill="#e6dfee" stroke="#e6dfee"/>
  <path d="M189,195L150,228L201,244Z" fill="#8db2be" stroke="#8db2be"/>
  <path d="M1277,315L1234,241L1227,300Z" fill="#026150" stroke="#026150"/>
  <path d="M1301,171L1262,78L1230,138Z" fill="#528f95" stroke="#528f95"/>
  <path d="M1288,43L1292,-28L1218,22Z" fill="#8aaca4" stroke="#8aaca4"/>
  <path d="M1288,228L1301,171L1250,225Z" fill="#17787b" stroke="#17787b"/>
  <path d="M1288,228L1357,202L1301,171Z" fill="#1b757c" stroke="#1b757c"/>
  <path d="M1240,355L1277,315L1227,300Z" fill="#025949" stroke="#025949"/>
  <path d="M1340,11L1292,-28L1288,43Z" fill="#88a8a0" stroke="#88a8a0"/>
  <path d="M185,-13L158,0L196,47Z" fill="#f2e9f4" stroke="#f2e9f4"/>
  <path d="M143,-104L158,0L185,-13Z" fill="#f6edf6" stroke="#f6edf6"/>
  <path d="M110,154L143,168L163,79Z" fill="#bccce3" stroke="#bccce3"/>
  <path d="M163,79L143,168L212,99Z" fill="#c8cfe5" stroke="#c8cfe5"/>
  <path d="M143,168L150,228L189,195Z" fill="#99b7d1" stroke="#99b7d1"/>
  <path d="M1277,315L1307,250L1234,241Z" fill="#016754" stroke="#016754"/>
  <path d="M1301,171L1335,85L1297,68Z" fill="#618f93" stroke="#618f93"/>
  <path d="M1355,-23L1295,-61L1292,-28Z" fill="#8aaaa0" stroke="#8aaaa0"/>
  <path d="M1292,-28L1295,-61L1252,-60Z" fill="#8caea4" stroke="#8caea4"/>
  <path d="M1252,-60L1354,-97L1172,-76Z" fill="#8db0a6" stroke="#8db0a6"/>
  <path d="M1340,11L1288,43L1297,68Z" fill="#80a09b" stroke="#80a09b"/>
  <path d="M101,248L143,247L150,228Z" fill="#8bafb2" stroke="#8bafb2"/>
  <path d="M150,228L143,247L201,244Z" fill="#8aaeb2" stroke="#8aaeb2"/>
  <path d="M212,344L149,394L220,357Z" fill="#79918d" stroke="#79918d"/>
  <path d="M1364,142L1335,85L1301,171Z" fill="#4c868d" stroke="#4c868d"/>
  <path d="M143,247L151,311L201,244Z" fill="#84a59f" stroke="#84a59f"/>
  <path d="M158,0L125,39L196,47Z" fill="#efe5f2" stroke="#efe5f2"/>
  <path d="M93,225L101,248L150,228Z" fill="#8eb2b7" stroke="#8eb2b7"/>
  <path d="M103,44L125,39L96,-23Z" fill="#f5ebf4" stroke="#f5ebf4"/>
  <path d="M143,247L98,302L151,311Z" fill="#809b96" stroke="#809b96"/>
  <path d="M80,105L110,154L163,79Z" fill="#cdd3e8" stroke="#cdd3e8"/>
  <path d="M1335,85L1340,11L1297,68Z" fill="#7a9b98" stroke="#7a9b98"/>
  <path d="M222,-98L143,-104L185,-13Z" fill="#f5ecf5" stroke="#f5ecf5"/>
  <path d="M125,39L103,44L163,79Z" fill="#e8e1f0" stroke="#e8e1f0"/>
  <path d="M613,-105L143,-104L513,-103Z" fill="#e0e0ee" stroke="#e0e0ee"/>
  <path d="M96,-23L125,39L158,0Z" fill="#f7eef6" stroke="#f7eef6"/>
  <path d="M1335,85L1390,15L1340,11Z" fill="#7f9b97" stroke="#7f9b97"/>
  <path d="M1307,250L1357,202L1288,228Z" fill="#05706a" stroke="#05706a"/>
  <path d="M1373,287L1357,202L1307,250Z" fill="#03675b" stroke="#03675b"/>
  <path d="M1357,202L1364,142L1301,171Z" fill="#2e7a85" stroke="#2e7a85"/>
  <path d="M151,311L149,394L212,344Z" fill="#7a928e" stroke="#7a928e"/>
  <path d="M220,357L149,394L340,400Z" fill="#758f8c" stroke="#758f8c"/>
  <path d="M98,302L149,394L151,311Z" fill="#7c938f" stroke="#7c938f"/>
  <path d="M93,225L150,228L143,168Z" fill="#96b7cb" stroke="#96b7cb"/>
  <path d="M93,225L143,168L110,154Z" fill="#a2bedb" stroke="#a2bedb"/>
  <path d="M1277,315L1373,287L1307,250Z" fill="#015a49" stroke="#015a49"/>
  <path d="M1240,355L1313,390L1277,315Z" fill="#015746" stroke="#015746"/>
  <path d="M1165,386L1313,390L1240,355Z" fill="#025a4a" stroke="#025a4a"/>
  <path d="M1375,397L1313,390L1165,386Z" fill="#015645" stroke="#015645"/>
  <path d="M1340,11L1355,-23L1292,-28Z" fill="#89a89e" stroke="#89a89e"/>
  <path d="M1390,15L1355,-23L1340,11Z" fill="#86a39b" stroke="#86a39b"/>
  <path d="M101,248L98,302L143,247Z" fill="#86a8a1" stroke="#86a8a1"/>
  <path d="M32,166L93,225L110,154Z" fill="#a4c0dc" stroke="#a4c0dc"/>
  <path d="M103,44L80,105L163,79Z" fill="#e1dded" stroke="#e1dded"/>
  <path d="M25,105L80,105L11,58Z" fill="#dedded" stroke="#dedded"/>
  <path d="M143,-104L96,-23L158,0Z" fill="#f8eff7" stroke="#f8eff7"/>
  <path d="M19,275L98,302L101,248Z" fill="#86a59e" stroke="#86a59e"/>
  <path d="M19,275L101,248L93,225Z" fill="#8cb0ae" stroke="#8cb0ae"/>
  <path d="M143,-104L110,-99L96,-23Z" fill="#f9f0f7" stroke="#f9f0f7"/>
  <path d="M1355,-23L1354,-97L1295,-61Z" fill="#88a79e" stroke="#88a79e"/>
  <path d="M1295,-61L1354,-97L1252,-60Z" fill="#8aaba2" stroke="#8aaba2"/>
  <path d="M1172,-76L1354,-97L1070,-72Z" fill="#90b4af" stroke="#90b4af"/>
  <path d="M712,-100L1354,-97L613,-105Z" fill="#a6c3de" stroke="#a6c3de"/>
  <path d="M1404,-77L1354,-97L1355,-23Z" fill="#86a39a" stroke="#86a39a"/>
  <path d="M1371,323L1373,287L1277,315Z" fill="#01503f" stroke="#01503f"/>
  <path d="M1357,202L1403,148L1364,142Z" fill="#327983" stroke="#327983"/>
  <path d="M1411,72L1390,15L1335,85Z" fill="#769492" stroke="#769492"/>
  <path d="M1411,72L1335,85L1364,142Z" fill="#638b8d" stroke="#638b8d"/>
  <path d="M1411,227L1403,148L1357,202Z" fill="#1f6e7a" stroke="#1f6e7a"/>
  <path d="M1313,390L1371,323L1277,315Z" fill="#015241" stroke="#015241"/>
  <path d="M1411,227L1357,202L1373,287Z" fill="#04655c" stroke="#04655c"/>
  <path d="M1403,148L1411,72L1364,142Z" fill="#538388" stroke="#538388"/>
  <path d="M1390,15L1401,-20L1355,-23Z" fill="#86a299" stroke="#86a299"/>
  <path d="M1469,28L1401,-20L1390,15Z" fill="#829b94" stroke="#829b94"/>
  <path d="M1415,286L1411,227L1373,287Z" fill="#015b49" stroke="#015b49"/>
  <path d="M1485,129L1481,75L1411,72Z" fill="#638587" stroke="#638587"/>
  <path d="M1371,323L1398,316L1373,287Z" fill="#014c3b" stroke="#014c3b"/>
  <path d="M1395,367L1398,316L1371,323Z" fill="#014b3b" stroke="#014b3b"/>
  <path d="M80,105L103,44L11,58Z" fill="#e6e1ef" stroke="#e6e1ef"/>
  <path d="M25,105L32,166L80,105Z" fill="#c7d4e8" stroke="#c7d4e8"/>
  <path d="M80,105L32,166L110,154Z" fill="#bacde4" stroke="#bacde4"/>
  <path d="M1313,390L1375,397L1371,323Z" fill="#014f3e" stroke="#014f3e"/>
  <path d="M855,402L1375,397L1165,386Z" fill="#046058" stroke="#046058"/>
  <path d="M1401,-20L1404,-77L1355,-23Z" fill="#85a198" stroke="#85a198"/>
  <path d="M1474,-40L1404,-77L1401,-20Z" fill="#839c94" stroke="#839c94"/>
  <path d="M27,-20L103,44L96,-23Z" fill="#fbf2f8" stroke="#fbf2f8"/>
  <path d="M1451,333L1415,286L1398,316Z" fill="#014837" stroke="#014837"/>
  <path d="M1398,316L1415,286L1373,287Z" fill="#014c3b" stroke="#014c3b"/>
  <path d="M1411,227L1467,187L1403,148Z" fill="#216c79" stroke="#216c79"/>
  <path d="M1375,397L1395,367L1371,323Z" fill="#014c3b" stroke="#014c3b"/>
  <path d="M30,326L67,382L98,302Z" fill="#7f9790" stroke="#7f9790"/>
  <path d="M98,302L67,382L149,394Z" fill="#7d9590" stroke="#7d9590"/>
  <path d="M15,-90L27,-20L96,-23Z" fill="#fcf4f9" stroke="#fcf4f9"/>
  <path d="M32,166L15,204L93,225Z" fill="#9ebed4" stroke="#9ebed4"/>
  <path d="M-32,197L15,204L32,166Z" fill="#a4c1dc" stroke="#a4c1dc"/>
  <path d="M-32,197L32,166L-48,135Z" fill="#afcae2" stroke="#afcae2"/>
  <path d="M27,-20L11,58L103,44Z" fill="#f5ecf5" stroke="#f5ecf5"/>
  <path d="M15,204L19,275L93,225Z" fill="#91b6b9" stroke="#91b6b9"/>
  <path d="M19,275L30,326L98,302Z" fill="#809891" stroke="#809891"/>
  <path d="M27,-20L-6,59L11,58Z" fill="#f6edf6" stroke="#f6edf6"/>
  <path d="M11,58L-6,59L25,105Z" fill="#e7e3f0" stroke="#e7e3f0"/>
  <path d="M15,204L-53,253L19,275Z" fill="#91b5b3" stroke="#91b5b3"/>
  <path d="M1411,72L1469,28L1390,15Z" fill="#7a938f" stroke="#7a938f"/>
  <path d="M1484,278L1467,187L1411,227Z" fill="#04615b" stroke="#04615b"/>
  <path d="M1484,278L1411,227L1415,286Z" fill="#015947" stroke="#015947"/>
  <path d="M27,-20L-42,-18L-6,59Z" fill="#fdf5fa" stroke="#fdf5fa"/>
  <path d="M110,-99L15,-90L96,-23Z" fill="#fbf2f8" stroke="#fbf2f8"/>
  <path d="M-24,-105L15,-90L110,-99Z" fill="#fdf5fa" stroke="#fdf5fa"/>
  <path d="M1481,75L1469,28L1411,72Z" fill="#728d8b" stroke="#728d8b"/>
  <path d="M-7,376L30,326L-52,317Z" fill="#829b92" stroke="#829b92"/>
  <path d="M-7,376L24,369L30,326Z" fill="#819a92" stroke="#819a92"/>
  <path d="M30,326L24,369L67,382Z" fill="#809891" stroke="#809891"/>
  <path d="M1395,367L1451,333L1398,316Z" fill="#014838" stroke="#014838"/>
  <path d="M1492,379L1451,333L1395,367Z" fill="#014636" stroke="#014636"/>
  <path d="M1485,129L1411,72L1403,148Z" fill="#557f84" stroke="#557f84"/>
  <path d="M1485,129L1403,148L1467,187Z" fill="#35757e" stroke="#35757e"/>
  <path d="M1507,200L1485,129L1467,187Z" fill="#2b6f7a" stroke="#2b6f7a"/>
  <path d="M-6,59L-29,82L25,105Z" fill="#e3e2ef" stroke="#e3e2ef"/>
  <path d="M-73,43L-29,82L-6,59Z" fill="#ece7f2" stroke="#ece7f2"/>
  <path d="M1539,34L1469,28L1481,75Z" fill="#778f8c" stroke="#778f8c"/>
  <path d="M1516,-43L1474,-40L1469,28Z" fill="#829b92" stroke="#829b92"/>
  <path d="M1469,28L1474,-40L1401,-20Z" fill="#829b92" stroke="#829b92"/>
  <path d="M1474,-40L1469,-68L1404,-77Z" fill="#829b92" stroke="#829b92"/>
  <path d="M1404,-77L1539,-81L1354,-97Z" fill="#839c93" stroke="#839c93"/>
  <path d="M-48,135L32,166L25,105Z" fill="#c2d3e8" stroke="#c2d3e8"/>
  <path d="M1451,333L1484,278L1415,286Z" fill="#014636" stroke="#014636"/>
  <path d="M-73,107L-48,135L-29,82Z" fill="#d5dbeb" stroke="#d5dbeb"/>
  <path d="M-29,82L-48,135L25,105Z" fill="#d6dbec" stroke="#d6dbec"/>
  <path d="M24,369L-7,376L67,382Z" fill="#819991" stroke="#819991"/>
  <path d="M67,382L-69,384L149,394Z" fill="#809891" stroke="#809891"/>
  <path d="M-52,317L30,326L19,275Z" fill="#829b92" stroke="#829b92"/>
  <path d="M-53,253L15,204L-32,197Z" fill="#98bdc6" stroke="#98bdc6"/>
  <path d="M1485,129L1529,79L1481,75Z" fill="#628486" stroke="#628486"/>
  <path d="M1484,278L1507,200L1467,187Z" fill="#086361" stroke="#086361"/>
  <path d="M15,-90L-42,-18L27,-20Z" fill="#fff7fb" stroke="#fff7fb"/>
  <path d="M15,-90L-24,-105L-42,-18Z" fill="#fff7fb" stroke="#fff7fb"/>
  <path d="M143,-104L-24,-105L110,-99Z" fill="#fbf2f8" stroke="#fbf2f8"/>
  <path d="M613,-105L-24,-105L143,-104Z" fill="#f0e9f3" stroke="#f0e9f3"/>
  <path d="M-66,203L-53,253L-32,197Z" fill="#98bdc6" stroke="#98bdc6"/>
  <path d="M-65,164L-32,197L-48,135Z" fill="#b0cae2" stroke="#b0cae2"/>
  <path d="M-73,107L-65,164L-48,135Z" fill="#c2d3e8" stroke="#c2d3e8"/>
  <path d="M-65,164L-66,203L-32,197Z" fill="#a5c2dd" stroke="#a5c2dd"/>
  <path d="M1551,143L1529,79L1485,129Z" fill="#547f83" stroke="#547f83"/>
  <path d="M1474,-40L1516,-43L1469,-68Z" fill="#829b92" stroke="#829b92"/>
  <path d="M-73,43L-73,107L-29,82Z" fill="#e6e3f0" stroke="#e6e3f0"/>
  <path d="M-65,164L-101,243L-66,203Z" fill="#9fbfd1" stroke="#9fbfd1"/>
  <path d="M-73,43L-6,59L-42,-18Z" fill="#f8eff7" stroke="#f8eff7"/>
  <path d="M1484,278L1532,267L1507,200Z" fill="#035d50" stroke="#035d50"/>
  <path d="M1507,200L1551,143L1485,129Z" fill="#34747d" stroke="#34747d"/>
  <path d="M1451,333L1536,312L1484,278Z" fill="#014636" stroke="#014636"/>
  <path d="M1375,397L1492,379L1395,367Z" fill="#014838" stroke="#014838"/>
  <path d="M1539,34L1516,-43L1469,28Z" fill="#819991" stroke="#819991"/>
  <path d="M-101,327L-52,317L-53,253Z" fill="#829b93" stroke="#829b93"/>
  <path d="M-53,253L-52,317L19,275Z" fill="#87a59c" stroke="#87a59c"/>
  <path d="M-75,-11L-73,43L-42,-18Z" fill="#fef5fb" stroke="#fef5fb"/>
  <path d="M1529,79L1539,34L1481,75Z" fill="#718c8a" stroke="#718c8a"/>
  <path d="M1576,28L1539,34L1595,70Z" fill="#77908c" stroke="#77908c"/>
  <path d="M-97,-91L-75,-11L-42,-18Z" fill="#fff7fb" stroke="#fff7fb"/>
  <path d="M-73,43L-101,243L-73,107Z" fill="#c5d5e8" stroke="#c5d5e8"/>
  <path d="M1536,312L1532,267L1484,278Z" fill="#014d3c" stroke="#014d3c"/>
  <path d="M1559,219L1551,143L1507,200Z" fill="#206a78" stroke="#206a78"/>
  <path d="M1532,267L1559,219L1507,200Z" fill="#04625c" stroke="#04625c"/>
  <path d="M1492,379L1536,312L1451,333Z" fill="#014636" stroke="#014636"/>
  <path d="M1602,275L1559,219L1532,267Z" fill="#025b4c" stroke="#025b4c"/>
  <path d="M1516,-43L1539,-81L1469,-68Z" fill="#829b92" stroke="#829b92"/>
  <path d="M1469,-68L1539,-81L1404,-77Z" fill="#829b92" stroke="#829b92"/>
  <path d="M1603,-33L1539,-81L1516,-43Z" fill="#829b92" stroke="#829b92"/>
  <path d="M1576,28L1516,-43L1539,34Z" fill="#819991" stroke="#819991"/>
  <path d="M1539,34L1529,79L1595,70Z" fill="#718c8b" stroke="#718c8b"/>
  <path d="M-66,203L-101,243L-53,253Z" fill="#93b8bb" stroke="#93b8bb"/>
  <path d="M-73,107L-101,243L-65,164Z" fill="#adc8e0" stroke="#adc8e0"/>
  <path d="M-97,-91L-101,243L-73,43Z" fill="#ebe6f2" stroke="#ebe6f2"/>
  <path d="M-7,376L-69,384L67,382Z" fill="#829b92" stroke="#829b92"/>
  <path d="M-52,317L-69,384L-7,376Z" fill="#829b92" stroke="#829b92"/>
  <path d="M-101,327L-69,384L-52,317Z" fill="#829b92" stroke="#829b92"/>
  <path d="M1536,312L1602,275L1532,267Z" fill="#014d3d" stroke="#014d3d"/>
  <path d="M1492,379L1528,390L1536,312Z" fill="#014636" stroke="#014636"/>
  <path d="M1375,397L1528,390L1492,379Z" fill="#014636" stroke="#014636"/>
  <path d="M1595,70L1529,79L1551,143Z" fill="#608386" stroke="#608386"/>
  <path d="M-75,-11L-97,-91L-73,43Z" fill="#fff7fb" stroke="#fff7fb"/>
  <path d="M-24,-105L-97,-91L-42,-18Z" fill="#fff7fb" stroke="#fff7fb"/>
  <path d="M-101,243L-101,327L-53,253Z" fill="#8aaaa0" stroke="#8aaaa0"/>
  <path d="M1528,390L1562,339L1536,312Z" fill="#014636" stroke="#014636"/>
  <path d="M1601,147L1595,70L1551,143Z" fill="#527e83" stroke="#527e83"/>
  <path d="M1601,147L1551,143L1559,219Z" fill="#2c707b" stroke="#2c707b"/>
  <path d="M1576,28L1603,-33L1516,-43Z" fill="#829b92" stroke="#829b92"/>
  <path d="M1602,275L1601,147L1559,219Z" fill="#106566" stroke="#106566"/>
  <path d="M1562,339L1602,275L1536,312Z" fill="#014636" stroke="#014636"/>
  <path d="M1528,390L1576,380L1562,339Z" fill="#014636" stroke="#014636"/>
  <path d="M1576,380L1602,275L1562,339Z" fill="#014636" stroke="#014636"/>
  <path d="M1602,275L1603,-33L1601,147Z" fill="#4a7b82" stroke="#4a7b82"/>
  <path d="M1601,147L1603,-33L1595,70Z" fill="#718c8b" stroke="#718c8b"/>
  <path d="M1595,70L1603,-33L1576,28Z" fill="#7d9590" stroke="#7d9590"/>
  <path d="M1603,-33L1591,-101L1539,-81Z" fill="#829b92" stroke="#829b92"/>
  <path d="M1539,-81L1591,-101L1354,-97Z" fill="#829b92" stroke="#829b92"/>
  <path d="M1354,-97L1591,-101L613,-105Z" fill="#90b5b1" stroke="#90b5b1"/>
</svg>
