<?xml version="1.0" encoding="utf-8"?>
<svg xmlns="http://www.w3.org/2000/svg" width="1920" height="300" opacity="0.7"
     xmlns:xlink="http://www.w3.org/1999/xlink">
  <!-- created with "banners.py -stroke 9CC8E4 -colors C4DEEF,4E9CCF,D7E9F4,75B2DA" -->
   
<g>
<path d="M 813.8 299.7 L 1532.4 300.0 L 437.9 300.0 z" fill="#60a6d4" stroke="9CC8E4"/>
<path d="M 1532.4 300.0 L 813.8 299.7 L 1077.4 299.2 z" fill="#65a9d5" stroke="9CC8E4"/>
<path d="M 1323.1 298.9 L 1532.4 300.0 L 1077.4 299.2 z" fill="#68abd6" stroke="9CC8E4"/>
<path d="M 1713.9 0.2 L 1611.9 97.4 L 1594.0 48.3 z" fill="#c3deee" stroke="9CC8E4"/>
<path d="M 229.1 22.0 L 287.3 12.9 L 228.0 79.1 z" fill="#b7d7eb" stroke="9CC8E4"/>
<path d="M 287.3 12.9 L 229.1 22.0 L 177.3 0.0 z" fill="#c1dcee" stroke="9CC8E4"/>
<path d="M 526.4 180.8 L 482.6 214.7 L 461.9 160.8 z" fill="#83b9dd" stroke="9CC8E4"/>
<path d="M 0.0 151.5 L 1.0 245.7 L 0 300 z" fill="#68aad6" stroke="9CC8E4"/>
<path d="M 0.0 151.5 L 19.0 133.3 L 31.7 169.6 z" fill="#88bcde" stroke="9CC8E4"/>
<path d="M 229.1 22.0 L 168.5 23.5 L 177.3 0.0 z" fill="#c0dbed" stroke="9CC8E4"/>
<path d="M 19.0 133.3 L 77.7 85.2 L 31.7 169.6 z" fill="#91c1e1" stroke="9CC8E4"/>
<path d="M 813.8 299.7 L 683.9 298.1 L 774.0 292.3 z" fill="#5ea5d3" stroke="9CC8E4"/>
<path d="M 813.8 299.7 L 948.3 293.7 L 1077.4 299.2 z" fill="#62a7d4" stroke="9CC8E4"/>
<path d="M 1323.1 298.9 L 1456.6 299.2 L 1532.4 300.0 z" fill="#6bacd7" stroke="9CC8E4"/>
<path d="M 1154.4 216.0 L 1077.4 299.2 L 963.0 154.2 z" fill="#7fb7dc" stroke="9CC8E4"/>
<path d="M 1051.9 57.5 L 1154.4 216.0 L 963.0 154.2 z" fill="#9bc7e4" stroke="9CC8E4"/>
<path d="M 310.7 299.5 L 437.9 300.0 L 0 300 z" fill="#539ed0" stroke="9CC8E4"/>
<path d="M 168.1 298.3 L 310.7 299.5 L 0 300 z" fill="#519dcf" stroke="9CC8E4"/>
<path d="M 310.7 299.5 L 168.1 298.3 L 234.7 270.9 z" fill="#56a0d1" stroke="9CC8E4"/>
<path d="M 1005.4 50.0 L 1051.9 57.5 L 963.0 154.2 z" fill="#aed2e9" stroke="9CC8E4"/>
<path d="M 1106.7 32.6 L 1154.4 216.0 L 1051.9 57.5 z" fill="#aad0e8" stroke="9CC8E4"/>
<path d="M 1623.4 235.9 L 1503.1 185.8 L 1611.9 97.4 z" fill="#99c6e3" stroke="9CC8E4"/>
<path d="M 1503.1 185.8 L 1532.4 300.0 L 1465.8 274.2 z" fill="#7cb6db" stroke="9CC8E4"/>
<path d="M 1713.9 0.2 L 1429.8 0.0 L 1920 0 z" fill="#d4e7f3" stroke="9CC8E4"/>
<path d="M 482.6 214.7 L 401.1 195.0 L 461.9 160.8 z" fill="#80b8dc" stroke="9CC8E4"/>
<path d="M 844.9 182.0 L 832.7 68.1 L 890.9 134.8 z" fill="#9dc8e4" stroke="9CC8E4"/>
<path d="M 0.9 176.9 L 0.0 151.5 L 31.7 169.6 z" fill="#82b9dd" stroke="9CC8E4"/>
<path d="M 0.9 176.9 L 1.0 245.7 L 0.0 151.5 z" fill="#78b3da" stroke="9CC8E4"/>
<path d="M 77.7 85.2 L 71.1 219.2 L 31.7 169.6 z" fill="#86bbde" stroke="9CC8E4"/>
<path d="M 177.3 0.0 L 28.8 3.5 L 0 0 z" fill="#c4deef" stroke="9CC8E4"/>
<path d="M 66.5 10.7 L 28.8 3.5 L 177.3 0.0 z" fill="#c3ddee" stroke="9CC8E4"/>
<path d="M 0.3 27.0 L 28.8 3.5 L 50.6 56.1 z" fill="#b8d7eb" stroke="9CC8E4"/>
<path d="M 0.0 2.0 L 0.3 27.0 L 0.0 151.5 z" fill="#acd0e8" stroke="9CC8E4"/>
<path d="M 28.8 3.5 L 0.0 2.0 L 0 0 z" fill="#c3ddee" stroke="9CC8E4"/>
<path d="M 0.3 27.0 L 2.6 122.9 L 0.0 151.5 z" fill="#9cc7e4" stroke="9CC8E4"/>
<path d="M 217.5 48.2 L 229.1 22.0 L 228.0 79.1 z" fill="#b3d4ea" stroke="9CC8E4"/>
<path d="M 217.5 48.2 L 168.5 23.5 L 229.1 22.0 z" fill="#b9d8ec" stroke="9CC8E4"/>
<path d="M 683.9 298.1 L 725.7 257.5 L 774.0 292.3 z" fill="#63a7d4" stroke="9CC8E4"/>
<path d="M 948.3 293.7 L 967.2 276.9 L 1077.4 299.2 z" fill="#65a9d5" stroke="9CC8E4"/>
<path d="M 1532.4 300.0 L 1473.7 299.3 L 1465.8 274.2 z" fill="#6faed8" stroke="9CC8E4"/>
<path d="M 1473.7 299.3 L 1456.6 299.2 L 1465.8 274.2 z" fill="#6eaed8" stroke="9CC8E4"/>
<path d="M 1456.6 299.2 L 1473.7 299.3 L 1532.4 300.0 z" fill="#6cadd7" stroke="9CC8E4"/>
<path d="M 1107.9 298.3 L 1323.1 298.9 L 1077.4 299.2 z" fill="#66a9d5" stroke="9CC8E4"/>
<path d="M 1154.4 216.0 L 1107.9 298.3 L 1077.4 299.2 z" fill="#6eaed8" stroke="9CC8E4"/>
<path d="M 287.3 12.9 L 282.3 116.4 L 228.0 79.1 z" fill="#abd0e8" stroke="9CC8E4"/>
<path d="M 282.3 116.4 L 276.1 186.1 L 228.0 79.1 z" fill="#95c4e2" stroke="9CC8E4"/>
<path d="M 334.4 274.5 L 276.1 186.1 L 362.9 188.5 z" fill="#74b1d9" stroke="9CC8E4"/>
<path d="M 567.7 13.6 L 543.2 40.3 L 287.3 12.9 z" fill="#c0dbed" stroke="9CC8E4"/>
<path d="M 543.2 40.3 L 438.7 97.0 L 287.3 12.9 z" fill="#b5d5ea" stroke="9CC8E4"/>
<path d="M 606.3 36.6 L 543.2 40.3 L 567.7 13.6 z" fill="#bedaed" stroke="9CC8E4"/>
<path d="M 543.2 40.3 L 526.4 180.8 L 461.9 160.8 z" fill="#99c6e3" stroke="9CC8E4"/>
<path d="M 438.7 97.0 L 543.2 40.3 L 461.9 160.8 z" fill="#a3cbe6" stroke="9CC8E4"/>
<path d="M 1060.2 13.7 L 1106.7 32.6 L 1051.9 57.5 z" fill="#c2ddee" stroke="9CC8E4"/>
<path d="M 1060.2 13.7 L 1005.4 50.0 L 983.5 2.4 z" fill="#c6dfef" stroke="9CC8E4"/>
<path d="M 1005.4 50.0 L 1060.2 13.7 L 1051.9 57.5 z" fill="#bfdbed" stroke="9CC8E4"/>
<path d="M 1503.1 185.8 L 1473.0 126.9 L 1611.9 97.4 z" fill="#a4cce6" stroke="9CC8E4"/>
<path d="M 1321.7 23.8 L 1269.9 131.4 L 1221.7 66.1 z" fill="#b6d6eb" stroke="9CC8E4"/>
<path d="M 1269.9 131.4 L 1220.0 131.8 L 1221.7 66.1 z" fill="#a9cfe7" stroke="9CC8E4"/>
<path d="M 1220.0 131.8 L 1106.7 32.6 L 1221.7 66.1 z" fill="#b4d5ea" stroke="9CC8E4"/>
<path d="M 1224.4 257.0 L 1107.9 298.3 L 1154.4 216.0 z" fill="#74b1d9" stroke="9CC8E4"/>
<path d="M 853.2 11.9 L 778.2 12.6 L 983.5 2.4 z" fill="#c9e1f0" stroke="9CC8E4"/>
<path d="M 853.2 11.9 L 832.7 68.1 L 778.2 12.6 z" fill="#c0dcee" stroke="9CC8E4"/>
<path d="M 832.7 68.1 L 853.2 11.9 L 869.2 33.9 z" fill="#bedbed" stroke="9CC8E4"/>
<path d="M 890.9 134.8 L 892.2 42.0 L 963.0 154.2 z" fill="#a5cce6" stroke="9CC8E4"/>
<path d="M 892.2 42.0 L 1005.4 50.0 L 963.0 154.2 z" fill="#afd2e9" stroke="9CC8E4"/>
<path d="M 832.7 68.1 L 892.2 42.0 L 890.9 134.8 z" fill="#aed2e9" stroke="9CC8E4"/>
<path d="M 892.2 42.0 L 832.7 68.1 L 869.2 33.9 z" fill="#bbd9ec" stroke="9CC8E4"/>
<path d="M 1005.4 50.0 L 892.2 42.0 L 983.5 2.4 z" fill="#c2ddee" stroke="9CC8E4"/>
<path d="M 892.2 42.0 L 853.2 11.9 L 983.5 2.4 z" fill="#c6dfef" stroke="9CC8E4"/>
<path d="M 853.2 11.9 L 892.2 42.0 L 869.2 33.9 z" fill="#c1ddee" stroke="9CC8E4"/>
<path d="M 596.8 5.3 L 606.3 36.6 L 567.7 13.6 z" fill="#c2ddee" stroke="9CC8E4"/>
<path d="M 596.8 5.3 L 778.2 12.6 L 719.3 19.6 z" fill="#c6dfef" stroke="9CC8E4"/>
<path d="M 778.2 12.6 L 596.8 5.3 L 983.5 2.4 z" fill="#c9e1f0" stroke="9CC8E4"/>
<path d="M 596.8 5.3 L 177.3 0.0 L 983.5 2.4 z" fill="#c8e0f0" stroke="9CC8E4"/>
<path d="M 596.8 5.3 L 287.3 12.9 L 177.3 0.0 z" fill="#c5deef" stroke="9CC8E4"/>
<path d="M 596.8 5.3 L 567.7 13.6 L 287.3 12.9 z" fill="#c4deef" stroke="9CC8E4"/>
<path d="M 651.3 26.5 L 596.8 5.3 L 719.3 19.6 z" fill="#c4deee" stroke="9CC8E4"/>
<path d="M 596.8 5.3 L 651.3 26.5 L 606.3 36.6 z" fill="#c1dcee" stroke="9CC8E4"/>
<path d="M 667.5 105.7 L 565.3 258.8 L 526.4 180.8 z" fill="#86bbde" stroke="9CC8E4"/>
<path d="M 807.3 291.2 L 813.8 299.7 L 774.0 292.3 z" fill="#60a6d4" stroke="9CC8E4"/>
<path d="M 806.3 225.2 L 807.3 291.2 L 774.0 292.3 z" fill="#69abd6" stroke="9CC8E4"/>
<path d="M 835.5 186.3 L 806.3 225.2 L 769.5 196.6 z" fill="#81b9dd" stroke="9CC8E4"/>
<path d="M 832.7 68.1 L 835.5 186.3 L 769.5 196.6 z" fill="#95c3e2" stroke="9CC8E4"/>
<path d="M 844.9 182.0 L 835.5 186.3 L 832.7 68.1 z" fill="#97c5e2" stroke="9CC8E4"/>
<path d="M 884.3 290.4 L 948.3 293.7 L 813.8 299.7 z" fill="#61a7d4" stroke="9CC8E4"/>
<path d="M 884.3 290.4 L 835.5 186.3 L 844.9 182.0 z" fill="#7cb6db" stroke="9CC8E4"/>
<path d="M 835.5 186.3 L 884.3 290.4 L 806.3 225.2 z" fill="#77b3da" stroke="9CC8E4"/>
<path d="M 807.3 291.2 L 884.3 290.4 L 813.8 299.7 z" fill="#61a6d4" stroke="9CC8E4"/>
<path d="M 884.3 290.4 L 807.3 291.2 L 806.3 225.2 z" fill="#6aabd6" stroke="9CC8E4"/>
<path d="M 1.0 245.7 L 0.2 297.3 L 0 300 z" fill="#55a0d1" stroke="9CC8E4"/>
<path d="M 12.6 288.8 L 0.2 297.3 L 1.0 245.7 z" fill="#57a1d1" stroke="9CC8E4"/>
<path d="M 0.2 297.3 L 9.4 294.9 L 0 300 z" fill="#4f9ccf" stroke="9CC8E4"/>
<path d="M 9.4 294.9 L 0.2 297.3 L 12.6 288.8 z" fill="#509dcf" stroke="9CC8E4"/>
<path d="M 71.1 219.2 L 60.5 236.4 L 31.7 169.6 z" fill="#72b0d9" stroke="9CC8E4"/>
<path d="M 6.7 13.8 L 28.8 3.5 L 0.3 27.0 z" fill="#bedaed" stroke="9CC8E4"/>
<path d="M 0.0 2.0 L 6.7 13.8 L 0.3 27.0 z" fill="#bedaed" stroke="9CC8E4"/>
<path d="M 6.7 13.8 L 0.0 2.0 L 28.8 3.5 z" fill="#c1dcee" stroke="9CC8E4"/>
<path d="M 10.7 133.9 L 19.0 133.3 L 0.0 151.5 z" fill="#8dbfe0" stroke="9CC8E4"/>
<path d="M 2.6 122.9 L 10.7 133.9 L 0.0 151.5 z" fill="#8ec0e0" stroke="9CC8E4"/>
<path d="M 77.7 85.2 L 32.4 98.8 L 50.6 56.1 z" fill="#a5cce6" stroke="9CC8E4"/>
<path d="M 32.4 98.8 L 77.7 85.2 L 19.0 133.3 z" fill="#9ac7e3" stroke="9CC8E4"/>
<path d="M 171.3 219.2 L 71.1 219.2 L 77.7 85.2 z" fill="#81b8dc" stroke="9CC8E4"/>
<path d="M 143.2 56.0 L 122.3 26.7 L 168.5 23.5 z" fill="#b7d7eb" stroke="9CC8E4"/>
<path d="M 122.3 26.7 L 66.5 10.7 L 177.3 0.0 z" fill="#c0dbee" stroke="9CC8E4"/>
<path d="M 168.5 23.5 L 122.3 26.7 L 177.3 0.0 z" fill="#bfdbed" stroke="9CC8E4"/>
<path d="M 515.8 258.3 L 482.6 214.7 L 526.4 180.8 z" fill="#77b3da" stroke="9CC8E4"/>
<path d="M 565.3 258.8 L 515.8 258.3 L 526.4 180.8 z" fill="#72b0d8" stroke="9CC8E4"/>
<path d="M 752.1 210.8 L 806.3 225.2 L 774.0 292.3 z" fill="#72b0d9" stroke="9CC8E4"/>
<path d="M 725.7 257.5 L 752.1 210.8 L 774.0 292.3 z" fill="#6eaed7" stroke="9CC8E4"/>
<path d="M 806.3 225.2 L 752.1 210.8 L 769.5 196.6 z" fill="#7eb7dc" stroke="9CC8E4"/>
<path d="M 673.6 286.4 L 725.7 257.5 L 683.9 298.1 z" fill="#63a7d4" stroke="9CC8E4"/>
<path d="M 276.1 186.1 L 282.4 176.5 L 362.9 188.5 z" fill="#80b8dc" stroke="9CC8E4"/>
<path d="M 282.4 176.5 L 282.3 116.4 L 362.9 188.5 z" fill="#89bddf" stroke="9CC8E4"/>
<path d="M 282.3 116.4 L 282.4 176.5 L 276.1 186.1 z" fill="#89bddf" stroke="9CC8E4"/>
<path d="M 282.3 116.4 L 378.4 104.1 L 362.9 188.5 z" fill="#93c2e1" stroke="9CC8E4"/>
<path d="M 378.4 104.1 L 401.1 195.0 L 362.9 188.5 z" fill="#89bddf" stroke="9CC8E4"/>
<path d="M 378.4 104.1 L 438.7 97.0 L 461.9 160.8 z" fill="#9ac6e3" stroke="9CC8E4"/>
<path d="M 401.1 195.0 L 378.4 104.1 L 461.9 160.8 z" fill="#8dbfe0" stroke="9CC8E4"/>
<path d="M 401.1 195.0 L 408.6 243.7 L 362.9 188.5 z" fill="#78b3da" stroke="9CC8E4"/>
<path d="M 408.6 243.7 L 334.4 274.5 L 362.9 188.5 z" fill="#6eadd7" stroke="9CC8E4"/>
<path d="M 408.6 243.7 L 401.1 195.0 L 482.6 214.7 z" fill="#75b2d9" stroke="9CC8E4"/>
<path d="M 310.7 299.5 L 346.1 297.4 L 437.9 300.0 z" fill="#55a0d1" stroke="9CC8E4"/>
<path d="M 1654.8 296.4 L 1716.3 300.0 L 1532.4 300.0 z" fill="#6faed8" stroke="9CC8E4"/>
<path d="M 1505.7 38.6 L 1473.0 126.9 L 1427.1 61.9 z" fill="#b8d7eb" stroke="9CC8E4"/>
<path d="M 1429.8 0.0 L 1505.7 38.6 L 1427.1 61.9 z" fill="#c6dfef" stroke="9CC8E4"/>
<path d="M 1505.7 38.6 L 1713.9 0.2 L 1594.0 48.3 z" fill="#cae1f0" stroke="9CC8E4"/>
<path d="M 1505.7 38.6 L 1429.8 0.0 L 1713.9 0.2 z" fill="#cee4f1" stroke="9CC8E4"/>
<path d="M 1473.0 126.9 L 1421.8 148.1 L 1427.1 61.9 z" fill="#abd0e8" stroke="9CC8E4"/>
<path d="M 1421.8 148.1 L 1321.7 23.8 L 1427.1 61.9 z" fill="#b6d6eb" stroke="9CC8E4"/>
<path d="M 1321.7 23.8 L 1421.8 148.1 L 1269.9 131.4 z" fill="#aed2e9" stroke="9CC8E4"/>
<path d="M 1388.1 11.0 L 1429.8 0.0 L 1427.1 61.9 z" fill="#c9e1f0" stroke="9CC8E4"/>
<path d="M 1321.7 23.8 L 1388.1 11.0 L 1427.1 61.9 z" fill="#c6dfef" stroke="9CC8E4"/>
<path d="M 1298.1 1.0 L 1321.7 23.8 L 1221.7 66.1 z" fill="#c6dfef" stroke="9CC8E4"/>
<path d="M 1107.9 298.3 L 1229.9 290.6 L 1323.1 298.9 z" fill="#68aad6" stroke="9CC8E4"/>
<path d="M 1224.4 257.0 L 1229.9 290.6 L 1107.9 298.3 z" fill="#6cadd7" stroke="9CC8E4"/>
<path d="M 1229.9 290.6 L 1299.9 269.0 L 1323.1 298.9 z" fill="#6cadd7" stroke="9CC8E4"/>
<path d="M 1299.9 269.0 L 1229.9 290.6 L 1224.4 257.0 z" fill="#71afd8" stroke="9CC8E4"/>
<path d="M 543.2 40.3 L 624.6 86.7 L 526.4 180.8 z" fill="#a3cbe6" stroke="9CC8E4"/>
<path d="M 624.6 86.7 L 543.2 40.3 L 606.3 36.6 z" fill="#b5d6eb" stroke="9CC8E4"/>
<path d="M 651.3 26.5 L 624.6 86.7 L 606.3 36.6 z" fill="#b7d7eb" stroke="9CC8E4"/>
<path d="M 710.3 61.9 L 651.3 26.5 L 719.3 19.6 z" fill="#bddaed" stroke="9CC8E4"/>
<path d="M 778.2 12.6 L 710.3 61.9 L 719.3 19.6 z" fill="#bfdbed" stroke="9CC8E4"/>
<path d="M 832.7 68.1 L 710.3 61.9 L 778.2 12.6 z" fill="#bad8ec" stroke="9CC8E4"/>
<path d="M 710.3 61.9 L 832.7 68.1 L 769.5 196.6 z" fill="#a3cce6" stroke="9CC8E4"/>
<path d="M 942.9 256.0 L 967.2 276.9 L 948.3 293.7 z" fill="#6aabd6" stroke="9CC8E4"/>
<path d="M 884.3 290.4 L 942.9 256.0 L 948.3 293.7 z" fill="#68aad6" stroke="9CC8E4"/>
<path d="M 60.5 236.4 L 11.1 250.2 L 31.7 169.6 z" fill="#6eaed7" stroke="9CC8E4"/>
<path d="M 11.1 250.2 L 0.9 176.9 L 31.7 169.6 z" fill="#76b2d9" stroke="9CC8E4"/>
<path d="M 0.9 176.9 L 11.1 250.2 L 1.0 245.7 z" fill="#6bacd7" stroke="9CC8E4"/>
<path d="M 11.1 250.2 L 12.6 288.8 L 1.0 245.7 z" fill="#5da4d3" stroke="9CC8E4"/>
<path d="M 67.8 297.8 L 168.1 298.3 L 0 300 z" fill="#509dcf" stroke="9CC8E4"/>
<path d="M 9.4 294.9 L 67.8 297.8 L 0 300 z" fill="#4f9ccf" stroke="9CC8E4"/>
<path d="M 89.4 277.6 L 171.3 219.2 L 168.1 298.3 z" fill="#5ea5d3" stroke="9CC8E4"/>
<path d="M 67.8 297.8 L 89.4 277.6 L 168.1 298.3 z" fill="#539fd0" stroke="9CC8E4"/>
<path d="M 334.4 274.5 L 302.4 281.7 L 276.1 186.1 z" fill="#68aad6" stroke="9CC8E4"/>
<path d="M 302.4 281.7 L 235.9 249.9 L 276.1 186.1 z" fill="#6aacd6" stroke="9CC8E4"/>
<path d="M 302.4 281.7 L 334.4 274.5 L 310.7 299.5 z" fill="#5aa2d2" stroke="9CC8E4"/>
<path d="M 302.4 281.7 L 310.7 299.5 L 234.7 270.9 z" fill="#59a2d2" stroke="9CC8E4"/>
<path d="M 235.9 249.9 L 302.4 281.7 L 234.7 270.9 z" fill="#5fa5d3" stroke="9CC8E4"/>
<path d="M 7.0 121.3 L 32.4 98.8 L 19.0 133.3 z" fill="#95c4e2" stroke="9CC8E4"/>
<path d="M 10.7 133.9 L 7.0 121.3 L 19.0 133.3 z" fill="#91c1e1" stroke="9CC8E4"/>
<path d="M 7.0 121.3 L 10.7 133.9 L 2.6 122.9 z" fill="#92c2e1" stroke="9CC8E4"/>
<path d="M 143.2 56.0 L 167.0 62.2 L 77.7 85.2 z" fill="#aacfe8" stroke="9CC8E4"/>
<path d="M 167.0 62.2 L 171.3 219.2 L 77.7 85.2 z" fill="#95c4e2" stroke="9CC8E4"/>
<path d="M 171.3 219.2 L 167.0 62.2 L 228.0 79.1 z" fill="#97c5e2" stroke="9CC8E4"/>
<path d="M 167.0 62.2 L 217.5 48.2 L 228.0 79.1 z" fill="#add1e8" stroke="9CC8E4"/>
<path d="M 217.5 48.2 L 167.0 62.2 L 168.5 23.5 z" fill="#b4d5ea" stroke="9CC8E4"/>
<path d="M 167.0 62.2 L 143.2 56.0 L 168.5 23.5 z" fill="#b3d4ea" stroke="9CC8E4"/>
<path d="M 276.1 186.1 L 209.6 222.1 L 228.0 79.1 z" fill="#87bcde" stroke="9CC8E4"/>
<path d="M 209.6 222.1 L 171.3 219.2 L 228.0 79.1 z" fill="#83b9dd" stroke="9CC8E4"/>
<path d="M 235.9 249.9 L 209.6 222.1 L 276.1 186.1 z" fill="#71b0d8" stroke="9CC8E4"/>
<path d="M 82.1 79.0 L 143.2 56.0 L 77.7 85.2 z" fill="#a8cee7" stroke="9CC8E4"/>
<path d="M 82.1 79.0 L 122.3 26.7 L 143.2 56.0 z" fill="#b0d2e9" stroke="9CC8E4"/>
<path d="M 82.1 79.0 L 77.7 85.2 L 50.6 56.1 z" fill="#a7cee7" stroke="9CC8E4"/>
<path d="M 408.6 243.7 L 480.2 258.9 L 437.9 300.0 z" fill="#63a7d4" stroke="9CC8E4"/>
<path d="M 480.2 258.9 L 408.6 243.7 L 482.6 214.7 z" fill="#6eaed7" stroke="9CC8E4"/>
<path d="M 480.2 258.9 L 486.6 299.6 L 437.9 300.0 z" fill="#5ca4d3" stroke="9CC8E4"/>
<path d="M 486.6 299.6 L 813.8 299.7 L 437.9 300.0 z" fill="#59a2d2" stroke="9CC8E4"/>
<path d="M 486.6 299.6 L 683.9 298.1 L 813.8 299.7 z" fill="#5ba3d2" stroke="9CC8E4"/>
<path d="M 734.6 197.1 L 752.1 210.8 L 725.7 257.5 z" fill="#79b4da" stroke="9CC8E4"/>
<path d="M 752.1 210.8 L 734.6 197.1 L 769.5 196.6 z" fill="#81b8dd" stroke="9CC8E4"/>
<path d="M 734.6 197.1 L 710.3 61.9 L 769.5 196.6 z" fill="#93c2e1" stroke="9CC8E4"/>
<path d="M 710.3 61.9 L 734.6 197.1 L 667.5 105.7 z" fill="#9ec8e4" stroke="9CC8E4"/>
<path d="M 332.7 74.0 L 282.3 116.4 L 287.3 12.9 z" fill="#add1e8" stroke="9CC8E4"/>
<path d="M 332.7 74.0 L 378.4 104.1 L 282.3 116.4 z" fill="#a1cae5" stroke="9CC8E4"/>
<path d="M 438.7 97.0 L 332.7 74.0 L 287.3 12.9 z" fill="#b0d2e9" stroke="9CC8E4"/>
<path d="M 378.4 104.1 L 332.7 74.0 L 438.7 97.0 z" fill="#a4cce6" stroke="9CC8E4"/>
<path d="M 334.4 274.5 L 339.5 288.8 L 310.7 299.5 z" fill="#59a2d2" stroke="9CC8E4"/>
<path d="M 339.5 288.8 L 346.1 297.4 L 310.7 299.5 z" fill="#56a0d1" stroke="9CC8E4"/>
<path d="M 1919.3 37.3 L 1914.4 63.1 L 1874.3 43.1 z" fill="#c7e0ef" stroke="9CC8E4"/>
<path d="M 1914.4 63.1 L 1888.5 80.6 L 1874.3 43.1 z" fill="#c2ddee" stroke="9CC8E4"/>
<path d="M 1888.5 80.6 L 1914.4 63.1 L 1912.8 70.1 z" fill="#bfdbed" stroke="9CC8E4"/>
<path d="M 1831.9 1.5 L 1894.9 2.2 L 1874.3 43.1 z" fill="#d1e5f2" stroke="9CC8E4"/>
<path d="M 1914.5 0.1 L 1894.9 2.2 L 1831.9 1.5 z" fill="#d6e8f3" stroke="9CC8E4"/>
<path d="M 1894.9 2.2 L 1919.3 37.3 L 1874.3 43.1 z" fill="#cde3f1" stroke="9CC8E4"/>
<path d="M 1780.0 0.2 L 1914.5 0.1 L 1831.9 1.5 z" fill="#d6e8f3" stroke="9CC8E4"/>
<path d="M 1780.0 0.2 L 1713.9 0.2 L 1920 0 z" fill="#d5e8f3" stroke="9CC8E4"/>
<path d="M 1914.5 0.1 L 1780.0 0.2 L 1920 0 z" fill="#d6e8f3" stroke="9CC8E4"/>
<path d="M 1849.0 57.6 L 1831.9 1.5 L 1874.3 43.1 z" fill="#cbe2f0" stroke="9CC8E4"/>
<path d="M 1581.5 292.9 L 1654.8 296.4 L 1532.4 300.0 z" fill="#6faed8" stroke="9CC8E4"/>
<path d="M 1654.8 296.4 L 1581.5 292.9 L 1623.4 235.9 z" fill="#77b3da" stroke="9CC8E4"/>
<path d="M 1503.1 185.8 L 1581.5 292.9 L 1532.4 300.0 z" fill="#7bb5db" stroke="9CC8E4"/>
<path d="M 1581.5 292.9 L 1503.1 185.8 L 1623.4 235.9 z" fill="#82b9dd" stroke="9CC8E4"/>
<path d="M 1716.3 300.0 L 1830.9 299.8 L 1920 300 z" fill="#73b0d9" stroke="9CC8E4"/>
<path d="M 1473.0 126.9 L 1586.9 59.2 L 1611.9 97.4 z" fill="#b3d4ea" stroke="9CC8E4"/>
<path d="M 1505.7 38.6 L 1586.9 59.2 L 1473.0 126.9 z" fill="#b9d8ec" stroke="9CC8E4"/>
<path d="M 1611.9 97.4 L 1586.9 59.2 L 1594.0 48.3 z" fill="#bcdaed" stroke="9CC8E4"/>
<path d="M 1586.9 59.2 L 1505.7 38.6 L 1594.0 48.3 z" fill="#c2ddee" stroke="9CC8E4"/>
<path d="M 1475.0 192.2 L 1503.1 185.8 L 1465.8 274.2 z" fill="#88bcdf" stroke="9CC8E4"/>
<path d="M 1475.0 192.2 L 1473.0 126.9 L 1503.1 185.8 z" fill="#99c6e3" stroke="9CC8E4"/>
<path d="M 1475.0 192.2 L 1421.8 148.1 L 1473.0 126.9 z" fill="#9dc8e4" stroke="9CC8E4"/>
<path d="M 1106.7 32.6 L 1231.2 0.4 L 1221.7 66.1 z" fill="#c4deee" stroke="9CC8E4"/>
<path d="M 1231.2 0.4 L 1298.1 1.0 L 1221.7 66.1 z" fill="#c8e0f0" stroke="9CC8E4"/>
<path d="M 1060.2 13.7 L 1231.2 0.4 L 1106.7 32.6 z" fill="#c9e1f0" stroke="9CC8E4"/>
<path d="M 1231.2 0.4 L 1060.2 13.7 L 983.5 2.4 z" fill="#cce3f1" stroke="9CC8E4"/>
<path d="M 1298.1 1.0 L 1231.2 0.4 L 1429.8 0.0 z" fill="#d0e5f2" stroke="9CC8E4"/>
<path d="M 1429.8 0.0 L 1231.2 0.4 L 177.3 0.0 z" fill="#cde3f1" stroke="9CC8E4"/>
<path d="M 177.3 0.0 L 1231.2 0.4 L 983.5 2.4 z" fill="#cbe2f0" stroke="9CC8E4"/>
<path d="M 1379.3 6.1 L 1388.1 11.0 L 1321.7 23.8 z" fill="#cce3f1" stroke="9CC8E4"/>
<path d="M 1298.1 1.0 L 1379.3 6.1 L 1321.7 23.8 z" fill="#cde3f1" stroke="9CC8E4"/>
<path d="M 1388.1 11.0 L 1379.3 6.1 L 1429.8 0.0 z" fill="#cfe4f2" stroke="9CC8E4"/>
<path d="M 1379.3 6.1 L 1298.1 1.0 L 1429.8 0.0 z" fill="#d0e5f2" stroke="9CC8E4"/>
<path d="M 1374.3 239.8 L 1475.0 192.2 L 1465.8 274.2 z" fill="#81b8dd" stroke="9CC8E4"/>
<path d="M 1475.0 192.2 L 1374.3 239.8 L 1421.8 148.1 z" fill="#8fc0e0" stroke="9CC8E4"/>
<path d="M 1253.4 149.1 L 1220.0 131.8 L 1269.9 131.4 z" fill="#a0cae5" stroke="9CC8E4"/>
<path d="M 1253.4 149.1 L 1233.0 175.3 L 1220.0 131.8 z" fill="#9ac7e3" stroke="9CC8E4"/>
<path d="M 1233.0 175.3 L 1205.5 166.2 L 1220.0 131.8 z" fill="#98c5e3" stroke="9CC8E4"/>
<path d="M 1106.7 32.6 L 1205.5 166.2 L 1154.4 216.0 z" fill="#9ec9e4" stroke="9CC8E4"/>
<path d="M 1220.0 131.8 L 1205.5 166.2 L 1106.7 32.6 z" fill="#a8cee7" stroke="9CC8E4"/>
<path d="M 1205.5 166.2 L 1224.4 257.0 L 1154.4 216.0 z" fill="#84bade" stroke="9CC8E4"/>
<path d="M 1205.5 166.2 L 1233.0 175.3 L 1224.4 257.0 z" fill="#8abddf" stroke="9CC8E4"/>
<path d="M 646.8 94.3 L 667.5 105.7 L 526.4 180.8 z" fill="#9ac7e3" stroke="9CC8E4"/>
<path d="M 624.6 86.7 L 646.8 94.3 L 526.4 180.8 z" fill="#9dc8e4" stroke="9CC8E4"/>
<path d="M 646.8 94.3 L 624.6 86.7 L 651.3 26.5 z" fill="#b0d3e9" stroke="9CC8E4"/>
<path d="M 710.3 61.9 L 646.8 94.3 L 651.3 26.5 z" fill="#b4d5ea" stroke="9CC8E4"/>
<path d="M 646.8 94.3 L 710.3 61.9 L 667.5 105.7 z" fill="#aacfe8" stroke="9CC8E4"/>
<path d="M 942.9 256.0 L 949.3 231.5 L 967.2 276.9 z" fill="#71b0d8" stroke="9CC8E4"/>
<path d="M 1077.4 299.2 L 949.3 231.5 L 963.0 154.2 z" fill="#7bb5db" stroke="9CC8E4"/>
<path d="M 967.2 276.9 L 949.3 231.5 L 1077.4 299.2 z" fill="#6dadd7" stroke="9CC8E4"/>
<path d="M 949.3 231.5 L 890.9 134.8 L 963.0 154.2 z" fill="#8ec0e0" stroke="9CC8E4"/>
<path d="M 949.3 231.5 L 844.9 182.0 L 890.9 134.8 z" fill="#8abedf" stroke="9CC8E4"/>
<path d="M 949.3 231.5 L 884.3 290.4 L 844.9 182.0 z" fill="#77b3da" stroke="9CC8E4"/>
<path d="M 949.3 231.5 L 942.9 256.0 L 884.3 290.4 z" fill="#6faed8" stroke="9CC8E4"/>
<path d="M 52.4 276.1 L 11.1 250.2 L 60.5 236.4 z" fill="#60a6d4" stroke="9CC8E4"/>
<path d="M 7.0 121.3 L 4.3 90.0 L 32.4 98.8 z" fill="#9bc7e4" stroke="9CC8E4"/>
<path d="M 4.3 90.0 L 0.3 27.0 L 50.6 56.1 z" fill="#add1e8" stroke="9CC8E4"/>
<path d="M 32.4 98.8 L 4.3 90.0 L 50.6 56.1 z" fill="#a4cce6" stroke="9CC8E4"/>
<path d="M 4.3 90.0 L 2.6 122.9 L 0.3 27.0 z" fill="#a4cce6" stroke="9CC8E4"/>
<path d="M 4.3 90.0 L 7.0 121.3 L 2.6 122.9 z" fill="#98c5e3" stroke="9CC8E4"/>
<path d="M 171.3 219.2 L 184.5 227.7 L 168.1 298.3 z" fill="#65a9d5" stroke="9CC8E4"/>
<path d="M 209.6 222.1 L 184.5 227.7 L 171.3 219.2 z" fill="#6faed8" stroke="9CC8E4"/>
<path d="M 168.1 298.3 L 184.5 227.7 L 234.7 270.9 z" fill="#5fa5d3" stroke="9CC8E4"/>
<path d="M 184.5 227.7 L 235.9 249.9 L 234.7 270.9 z" fill="#65a9d5" stroke="9CC8E4"/>
<path d="M 184.5 227.7 L 209.6 222.1 L 235.9 249.9 z" fill="#6cacd7" stroke="9CC8E4"/>
<path d="M 66.7 45.1 L 82.1 79.0 L 50.6 56.1 z" fill="#add1e8" stroke="9CC8E4"/>
<path d="M 28.8 3.5 L 66.7 45.1 L 50.6 56.1 z" fill="#b6d6eb" stroke="9CC8E4"/>
<path d="M 66.7 45.1 L 28.8 3.5 L 66.5 10.7 z" fill="#bcd9ed" stroke="9CC8E4"/>
<path d="M 122.3 26.7 L 66.7 45.1 L 66.5 10.7 z" fill="#bad8ec" stroke="9CC8E4"/>
<path d="M 82.1 79.0 L 66.7 45.1 L 122.3 26.7 z" fill="#b1d3e9" stroke="9CC8E4"/>
<path d="M 515.8 258.3 L 498.7 251.7 L 482.6 214.7 z" fill="#6eaed7" stroke="9CC8E4"/>
<path d="M 498.7 251.7 L 480.2 258.9 L 482.6 214.7 z" fill="#6dadd7" stroke="9CC8E4"/>
<path d="M 486.6 299.6 L 498.7 251.7 L 515.8 258.3 z" fill="#63a8d4" stroke="9CC8E4"/>
<path d="M 498.7 251.7 L 486.6 299.6 L 480.2 258.9 z" fill="#63a7d4" stroke="9CC8E4"/>
<path d="M 537.6 276.4 L 515.8 258.3 L 565.3 258.8 z" fill="#66a9d5" stroke="9CC8E4"/>
<path d="M 537.6 276.4 L 486.6 299.6 L 515.8 258.3 z" fill="#60a6d4" stroke="9CC8E4"/>
<path d="M 598.9 285.7 L 537.6 276.4 L 565.3 258.8 z" fill="#63a8d4" stroke="9CC8E4"/>
<path d="M 537.6 276.4 L 598.9 285.7 L 486.6 299.6 z" fill="#5da4d3" stroke="9CC8E4"/>
<path d="M 615.1 287.0 L 598.9 285.7 L 565.3 258.8 z" fill="#62a7d4" stroke="9CC8E4"/>
<path d="M 615.1 287.0 L 673.6 286.4 L 683.9 298.1 z" fill="#5ea5d3" stroke="9CC8E4"/>
<path d="M 486.6 299.6 L 615.1 287.0 L 683.9 298.1 z" fill="#5ba3d2" stroke="9CC8E4"/>
<path d="M 598.9 285.7 L 615.1 287.0 L 486.6 299.6 z" fill="#5ca4d3" stroke="9CC8E4"/>
<path d="M 339.5 288.8 L 406.6 294.7 L 346.1 297.4 z" fill="#57a1d1" stroke="9CC8E4"/>
<path d="M 406.6 294.7 L 408.6 243.7 L 437.9 300.0 z" fill="#5ea5d3" stroke="9CC8E4"/>
<path d="M 346.1 297.4 L 406.6 294.7 L 437.9 300.0 z" fill="#57a1d1" stroke="9CC8E4"/>
<path d="M 408.6 243.7 L 406.6 294.7 L 334.4 274.5 z" fill="#60a6d4" stroke="9CC8E4"/>
<path d="M 406.6 294.7 L 339.5 288.8 L 334.4 274.5 z" fill="#5aa3d2" stroke="9CC8E4"/>
<path d="M 1894.9 2.2 L 1914.4 8.2 L 1919.3 37.3 z" fill="#d1e6f2" stroke="9CC8E4"/>
<path d="M 1914.4 8.2 L 1894.9 2.2 L 1914.5 0.1 z" fill="#d5e8f3" stroke="9CC8E4"/>
<path d="M 1914.4 8.2 L 1914.5 0.1 L 1920 0 z" fill="#d6e8f3" stroke="9CC8E4"/>
<path d="M 1806.3 26.8 L 1780.0 0.2 L 1831.9 1.5 z" fill="#d2e6f2" stroke="9CC8E4"/>
<path d="M 1849.0 57.6 L 1806.3 26.8 L 1831.9 1.5 z" fill="#cce3f1" stroke="9CC8E4"/>
<path d="M 1849.0 57.6 L 1857.6 75.8 L 1833.4 88.0 z" fill="#bddaed" stroke="9CC8E4"/>
<path d="M 1888.5 80.6 L 1857.6 75.8 L 1874.3 43.1 z" fill="#c0dcee" stroke="9CC8E4"/>
<path d="M 1857.6 75.8 L 1849.0 57.6 L 1874.3 43.1 z" fill="#c3ddee" stroke="9CC8E4"/>
<path d="M 1802.7 256.7 L 1723.9 182.0 L 1829.2 206.1 z" fill="#8ec0e0" stroke="9CC8E4"/>
<path d="M 1885.8 144.6 L 1888.5 80.6 L 1912.8 70.1 z" fill="#b6d6eb" stroke="9CC8E4"/>
<path d="M 1918.9 237.2 L 1885.8 144.6 L 1912.8 70.1 z" fill="#a5cde6" stroke="9CC8E4"/>
<path d="M 1919.1 58.5 L 1914.4 63.1 L 1919.3 37.3 z" fill="#c5dfef" stroke="9CC8E4"/>
<path d="M 1918.9 237.2 L 1919.1 58.5 L 1920 300 z" fill="#96c4e2" stroke="9CC8E4"/>
<path d="M 1914.4 63.1 L 1919.1 58.5 L 1912.8 70.1 z" fill="#c2ddee" stroke="9CC8E4"/>
<path d="M 1919.1 58.5 L 1918.9 237.2 L 1912.8 70.1 z" fill="#afd2e9" stroke="9CC8E4"/>
<path d="M 1919.1 58.5 L 1920 0 L 1920 300 z" fill="#afd3e9" stroke="9CC8E4"/>
<path d="M 1919.1 58.5 L 1919.3 37.3 L 1920 0 z" fill="#cce3f1" stroke="9CC8E4"/>
<path d="M 1678.1 159.9 L 1623.4 235.9 L 1611.9 97.4 z" fill="#9cc8e4" stroke="9CC8E4"/>
<path d="M 1678.1 159.9 L 1723.9 182.0 L 1623.4 235.9 z" fill="#94c3e2" stroke="9CC8E4"/>
<path d="M 1737.4 83.1 L 1744.1 30.4 L 1792.1 53.3 z" fill="#c2ddee" stroke="9CC8E4"/>
<path d="M 1737.4 83.1 L 1678.1 159.9 L 1611.9 97.4 z" fill="#aed2e9" stroke="9CC8E4"/>
<path d="M 1737.4 83.1 L 1611.9 97.4 L 1713.9 0.2 z" fill="#c0dcee" stroke="9CC8E4"/>
<path d="M 1744.1 30.4 L 1737.4 83.1 L 1713.9 0.2 z" fill="#c8e0f0" stroke="9CC8E4"/>
<path d="M 1299.9 269.0 L 1370.9 254.4 L 1323.1 298.9 z" fill="#72b0d9" stroke="9CC8E4"/>
<path d="M 1374.3 239.8 L 1370.9 254.4 L 1299.9 269.0 z" fill="#79b4da" stroke="9CC8E4"/>
<path d="M 1370.9 254.4 L 1456.6 299.2 L 1323.1 298.9 z" fill="#6faed8" stroke="9CC8E4"/>
<path d="M 1456.6 299.2 L 1370.9 254.4 L 1465.8 274.2 z" fill="#73b1d9" stroke="9CC8E4"/>
<path d="M 1370.9 254.4 L 1374.3 239.8 L 1465.8 274.2 z" fill="#79b4db" stroke="9CC8E4"/>
<path d="M 1278.2 171.6 L 1374.3 239.8 L 1299.9 269.0 z" fill="#82b9dd" stroke="9CC8E4"/>
<path d="M 1253.4 149.1 L 1278.2 171.6 L 1233.0 175.3 z" fill="#96c4e2" stroke="9CC8E4"/>
<path d="M 1278.2 171.6 L 1253.4 149.1 L 1269.9 131.4 z" fill="#9bc7e4" stroke="9CC8E4"/>
<path d="M 1278.2 171.6 L 1299.9 269.0 L 1224.4 257.0 z" fill="#7fb7dc" stroke="9CC8E4"/>
<path d="M 1233.0 175.3 L 1278.2 171.6 L 1224.4 257.0 z" fill="#89bddf" stroke="9CC8E4"/>
<path d="M 1421.8 148.1 L 1278.2 171.6 L 1269.9 131.4 z" fill="#9cc8e4" stroke="9CC8E4"/>
<path d="M 1374.3 239.8 L 1278.2 171.6 L 1421.8 148.1 z" fill="#90c1e1" stroke="9CC8E4"/>
<path d="M 11.1 250.2 L 17.0 290.3 L 12.6 288.8 z" fill="#57a1d1" stroke="9CC8E4"/>
<path d="M 52.4 276.1 L 17.0 290.3 L 11.1 250.2 z" fill="#59a2d2" stroke="9CC8E4"/>
<path d="M 17.0 290.3 L 52.4 276.1 L 67.8 297.8 z" fill="#539fd0" stroke="9CC8E4"/>
<path d="M 17.0 290.3 L 9.4 294.9 L 12.6 288.8 z" fill="#519ecf" stroke="9CC8E4"/>
<path d="M 17.0 290.3 L 67.8 297.8 L 9.4 294.9 z" fill="#509dcf" stroke="9CC8E4"/>
<path d="M 81.3 267.4 L 89.4 277.6 L 67.8 297.8 z" fill="#57a1d1" stroke="9CC8E4"/>
<path d="M 52.4 276.1 L 81.3 267.4 L 67.8 297.8 z" fill="#57a1d1" stroke="9CC8E4"/>
<path d="M 81.3 267.4 L 52.4 276.1 L 60.5 236.4 z" fill="#5ea5d3" stroke="9CC8E4"/>
<path d="M 81.3 267.4 L 60.5 236.4 L 71.1 219.2 z" fill="#66a9d5" stroke="9CC8E4"/>
<path d="M 171.3 219.2 L 81.3 267.4 L 71.1 219.2 z" fill="#69abd6" stroke="9CC8E4"/>
<path d="M 89.4 277.6 L 81.3 267.4 L 171.3 219.2 z" fill="#61a7d4" stroke="9CC8E4"/>
<path d="M 615.1 287.0 L 670.8 279.7 L 673.6 286.4 z" fill="#61a6d4" stroke="9CC8E4"/>
<path d="M 673.6 286.4 L 670.8 279.7 L 725.7 257.5 z" fill="#65a9d5" stroke="9CC8E4"/>
<path d="M 670.8 279.7 L 734.6 197.1 L 725.7 257.5 z" fill="#70afd8" stroke="9CC8E4"/>
<path d="M 734.6 197.1 L 670.8 279.7 L 667.5 105.7 z" fill="#83b9dd" stroke="9CC8E4"/>
<path d="M 667.5 105.7 L 670.8 279.7 L 565.3 258.8 z" fill="#7ab4db" stroke="9CC8E4"/>
<path d="M 670.8 279.7 L 615.1 287.0 L 565.3 258.8 z" fill="#63a8d5" stroke="9CC8E4"/>
<path d="M 1919.3 37.3 L 1917.7 10.2 L 1920 0 z" fill="#d1e6f2" stroke="9CC8E4"/>
<path d="M 1917.7 10.2 L 1914.4 8.2 L 1920 0 z" fill="#d4e7f3" stroke="9CC8E4"/>
<path d="M 1914.4 8.2 L 1917.7 10.2 L 1919.3 37.3 z" fill="#d0e5f2" stroke="9CC8E4"/>
<path d="M 1744.1 30.4 L 1763.0 11.1 L 1792.1 53.3 z" fill="#cae2f0" stroke="9CC8E4"/>
<path d="M 1806.3 26.8 L 1763.0 11.1 L 1780.0 0.2 z" fill="#d1e5f2" stroke="9CC8E4"/>
<path d="M 1780.0 0.2 L 1763.0 11.1 L 1713.9 0.2 z" fill="#d4e7f3" stroke="9CC8E4"/>
<path d="M 1763.0 11.1 L 1744.1 30.4 L 1713.9 0.2 z" fill="#d0e5f2" stroke="9CC8E4"/>
<path d="M 1802.7 256.7 L 1726.3 273.8 L 1723.9 182.0 z" fill="#86bbde" stroke="9CC8E4"/>
<path d="M 1723.9 182.0 L 1726.3 273.8 L 1623.4 235.9 z" fill="#87bcde" stroke="9CC8E4"/>
<path d="M 1775.5 298.9 L 1726.3 273.8 L 1802.7 256.7 z" fill="#79b4db" stroke="9CC8E4"/>
<path d="M 1726.3 273.8 L 1654.8 296.4 L 1623.4 235.9 z" fill="#7ab5db" stroke="9CC8E4"/>
<path d="M 1654.8 296.4 L 1726.3 273.8 L 1716.3 300.0 z" fill="#73b1d9" stroke="9CC8E4"/>
<path d="M 1830.9 299.8 L 1907.8 299.4 L 1920 300 z" fill="#74b1d9" stroke="9CC8E4"/>
<path d="M 1907.8 299.4 L 1912.4 288.3 L 1920 300 z" fill="#76b2da" stroke="9CC8E4"/>
<path d="M 1880.3 271.7 L 1865.5 222.4 L 1918.9 237.2 z" fill="#86bbde" stroke="9CC8E4"/>
<path d="M 1865.5 222.4 L 1885.8 144.6 L 1918.9 237.2 z" fill="#94c3e2" stroke="9CC8E4"/>
<path d="M 1802.7 256.7 L 1858.4 292.4 L 1830.9 299.8 z" fill="#78b4da" stroke="9CC8E4"/>
<path d="M 1865.5 222.4 L 1858.4 292.4 L 1802.7 256.7 z" fill="#81b9dd" stroke="9CC8E4"/>
<path d="M 1858.4 292.4 L 1865.5 222.4 L 1880.3 271.7 z" fill="#80b8dd" stroke="9CC8E4"/>
<path d="M 1723.9 182.0 L 1747.6 144.7 L 1829.2 206.1 z" fill="#9ac7e3" stroke="9CC8E4"/>
<path d="M 1747.6 144.7 L 1806.1 117.5 L 1829.2 206.1 z" fill="#a2cbe5" stroke="9CC8E4"/>
<path d="M 1678.1 159.9 L 1747.6 144.7 L 1723.9 182.0 z" fill="#9ec9e5" stroke="9CC8E4"/>
<path d="M 1737.4 83.1 L 1747.6 144.7 L 1678.1 159.9 z" fill="#a9cfe8" stroke="9CC8E4"/>
<path d="M 1867.7 105.2 L 1806.1 117.5 L 1833.4 88.0 z" fill="#b4d5ea" stroke="9CC8E4"/>
<path d="M 1857.6 75.8 L 1867.7 105.2 L 1833.4 88.0 z" fill="#b8d8eb" stroke="9CC8E4"/>
<path d="M 1867.7 105.2 L 1857.6 75.8 L 1888.5 80.6 z" fill="#b9d8ec" stroke="9CC8E4"/>
<path d="M 1885.8 144.6 L 1867.7 105.2 L 1888.5 80.6 z" fill="#b2d4ea" stroke="9CC8E4"/>
<path d="M 1806.1 117.5 L 1856.9 149.1 L 1829.2 206.1 z" fill="#a2cbe5" stroke="9CC8E4"/>
<path d="M 1865.5 222.4 L 1856.9 149.1 L 1885.8 144.6 z" fill="#9dc9e4" stroke="9CC8E4"/>
<path d="M 1856.9 149.1 L 1867.7 105.2 L 1885.8 144.6 z" fill="#aad0e8" stroke="9CC8E4"/>
<path d="M 1867.7 105.2 L 1856.9 149.1 L 1806.1 117.5 z" fill="#add1e8" stroke="9CC8E4"/>
<path d="M 1763.0 11.1 L 1801.7 43.6 L 1792.1 53.3 z" fill="#c9e1f0" stroke="9CC8E4"/>
<path d="M 1801.7 43.6 L 1763.0 11.1 L 1806.3 26.8 z" fill="#cce3f1" stroke="9CC8E4"/>
<path d="M 1801.7 43.6 L 1806.3 26.8 L 1849.0 57.6 z" fill="#c7e0ef" stroke="9CC8E4"/>
<path d="M 1792.1 53.3 L 1801.7 43.6 L 1833.4 88.0 z" fill="#c1dcee" stroke="9CC8E4"/>
<path d="M 1801.7 43.6 L 1849.0 57.6 L 1833.4 88.0 z" fill="#c1dcee" stroke="9CC8E4"/>
<path d="M 1805.4 289.5 L 1802.7 256.7 L 1830.9 299.8 z" fill="#78b4da" stroke="9CC8E4"/>
<path d="M 1726.3 273.8 L 1738.8 299.6 L 1716.3 300.0 z" fill="#74b1d9" stroke="9CC8E4"/>
<path d="M 1738.8 299.6 L 1726.3 273.8 L 1775.5 298.9 z" fill="#74b1d9" stroke="9CC8E4"/>
<path d="M 1738.8 299.6 L 1830.9 299.8 L 1716.3 300.0 z" fill="#71b0d9" stroke="9CC8E4"/>
<path d="M 1738.8 299.6 L 1775.5 298.9 L 1830.9 299.8 z" fill="#72b0d9" stroke="9CC8E4"/>
<path d="M 1907.8 299.4 L 1891.5 297.6 L 1912.4 288.3 z" fill="#76b2da" stroke="9CC8E4"/>
<path d="M 1891.5 297.6 L 1858.4 292.4 L 1880.3 271.7 z" fill="#78b3da" stroke="9CC8E4"/>
<path d="M 1891.5 297.6 L 1907.8 299.4 L 1830.9 299.8 z" fill="#74b1d9" stroke="9CC8E4"/>
<path d="M 1858.4 292.4 L 1891.5 297.6 L 1830.9 299.8 z" fill="#74b1d9" stroke="9CC8E4"/>
<path d="M 1912.4 288.3 L 1918.8 249.4 L 1920 300 z" fill="#7bb5db" stroke="9CC8E4"/>
<path d="M 1908.4 273.0 L 1918.8 249.4 L 1912.4 288.3 z" fill="#7eb7dc" stroke="9CC8E4"/>
<path d="M 1918.8 249.4 L 1918.9 237.2 L 1920 300 z" fill="#81b8dd" stroke="9CC8E4"/>
<path d="M 1918.8 249.4 L 1880.3 271.7 L 1918.9 237.2 z" fill="#84bade" stroke="9CC8E4"/>
<path d="M 1918.8 249.4 L 1908.4 273.0 L 1880.3 271.7 z" fill="#80b8dc" stroke="9CC8E4"/>
<path d="M 1783.0 99.7 L 1747.6 144.7 L 1737.4 83.1 z" fill="#b1d3e9" stroke="9CC8E4"/>
<path d="M 1747.6 144.7 L 1783.0 99.7 L 1806.1 117.5 z" fill="#add1e9" stroke="9CC8E4"/>
<path d="M 1783.0 99.7 L 1737.4 83.1 L 1792.1 53.3 z" fill="#bbd9ec" stroke="9CC8E4"/>
<path d="M 1783.0 99.7 L 1792.1 53.3 L 1833.4 88.0 z" fill="#bbd9ec" stroke="9CC8E4"/>
<path d="M 1806.1 117.5 L 1783.0 99.7 L 1833.4 88.0 z" fill="#b4d5ea" stroke="9CC8E4"/>
<path d="M 1856.9 149.1 L 1834.2 211.3 L 1829.2 206.1 z" fill="#97c5e3" stroke="9CC8E4"/>
<path d="M 1834.2 211.3 L 1856.9 149.1 L 1865.5 222.4 z" fill="#96c4e2" stroke="9CC8E4"/>
<path d="M 1834.2 211.3 L 1802.7 256.7 L 1829.2 206.1 z" fill="#8bbee0" stroke="9CC8E4"/>
<path d="M 1834.2 211.3 L 1865.5 222.4 L 1802.7 256.7 z" fill="#8abddf" stroke="9CC8E4"/>
<path d="M 1783.9 296.9 L 1775.5 298.9 L 1802.7 256.7 z" fill="#77b3da" stroke="9CC8E4"/>
<path d="M 1805.4 289.5 L 1783.9 296.9 L 1802.7 256.7 z" fill="#78b4da" stroke="9CC8E4"/>
<path d="M 1775.5 298.9 L 1783.9 296.9 L 1830.9 299.8 z" fill="#72b0d9" stroke="9CC8E4"/>
<path d="M 1783.9 296.9 L 1805.4 289.5 L 1830.9 299.8 z" fill="#74b1d9" stroke="9CC8E4"/>
<path d="M 1908.4 273.0 L 1902.3 276.8 L 1880.3 271.7 z" fill="#7db6dc" stroke="9CC8E4"/>
<path d="M 1902.3 276.8 L 1891.5 297.6 L 1880.3 271.7 z" fill="#7ab4db" stroke="9CC8E4"/>
<path d="M 1902.3 276.8 L 1908.4 273.0 L 1912.4 288.3 z" fill="#7bb5db" stroke="9CC8E4"/>
<path d="M 1891.5 297.6 L 1902.3 276.8 L 1912.4 288.3 z" fill="#78b4da" stroke="9CC8E4"/>
</g></svg>
