<?xml version="1.0" encoding="utf-8"?>
<svg xmlns="http://www.w3.org/2000/svg" width="1920" height="300"
     xmlns:xlink="http://www.w3.org/1999/xlink">
  <!-- created with "../banners/banners.py -stroke f0f0f0 -colors D7E9F4,75B2DA,D7E9F4,8EC0E0" -->
   
<g>
<path d="M 0 300 L 714.1 299.9 L 1920 300 z" fill="#80b8dc" stroke="f0f0f0"/>
<path d="M 714.1 299.9 L 1489.4 299.9 L 1920 300 z" fill="#86bcde" stroke="f0f0f0"/>
<path d="M 1489.4 299.9 L 714.1 299.9 L 926.8 298.4 z" fill="#82b9dd" stroke="f0f0f0"/>
<path d="M 296.4 299.5 L 714.1 299.9 L 0 300 z" fill="#79b4db" stroke="f0f0f0"/>
<path d="M 714.1 299.9 L 826.4 264.9 L 926.8 298.4 z" fill="#83badd" stroke="f0f0f0"/>
<path d="M 0.1 72.2 L 0 300 L 0 0 z" fill="#aed2e9" stroke="f0f0f0"/>
<path d="M 296.4 299.5 L 453.8 295.9 L 714.1 299.9 z" fill="#7bb5db" stroke="f0f0f0"/>
<path d="M 826.4 264.9 L 875.5 247.1 L 926.8 298.4 z" fill="#89bddf" stroke="f0f0f0"/>
<path d="M 1016.1 35.9 L 993.4 249.2 L 891.1 160.2 z" fill="#acd1e8" stroke="f0f0f0"/>
<path d="M 0.1 72.2 L 2.1 283.1 L 0 300 z" fill="#8fc0e1" stroke="f0f0f0"/>
<path d="M 9.1 175.6 L 0.1 72.2 L 35.6 163.7 z" fill="#aacfe8" stroke="f0f0f0"/>
<path d="M 9.1 175.6 L 2.1 283.1 L 0.1 72.2 z" fill="#9dc8e4" stroke="f0f0f0"/>
<path d="M 0.1 72.2 L 24.2 67.2 L 35.6 163.7 z" fill="#b6d6eb" stroke="f0f0f0"/>
<path d="M 279.8 0.6 L 171.1 1.2 L 110.5 0.3 z" fill="#d6e8f3" stroke="f0f0f0"/>
<path d="M 1489.4 299.9 L 1698.8 298.9 L 1920 300 z" fill="#8bbedf" stroke="f0f0f0"/>
<path d="M 453.8 295.9 L 556.7 243.2 L 714.1 299.9 z" fill="#82b9dd" stroke="f0f0f0"/>
<path d="M 239.2 107.2 L 216.3 71.3 L 256.0 85.8 z" fill="#bbd9ec" stroke="f0f0f0"/>
<path d="M 311.7 294.1 L 453.8 295.9 L 296.4 299.5 z" fill="#7ab5db" stroke="f0f0f0"/>
<path d="M 424.7 210.6 L 556.7 243.2 L 453.8 295.9 z" fill="#8abedf" stroke="f0f0f0"/>
<path d="M 311.7 294.1 L 424.7 210.6 L 453.8 295.9 z" fill="#84badd" stroke="f0f0f0"/>
<path d="M 771.2 224.1 L 704.7 205.2 L 702.5 191.3 z" fill="#99c6e3" stroke="f0f0f0"/>
<path d="M 279.8 0.6 L 546.3 4.2 L 318.7 6.8 z" fill="#d5e8f3" stroke="f0f0f0"/>
<path d="M 924.1 261.1 L 875.5 247.1 L 891.1 160.2 z" fill="#96c5e2" stroke="f0f0f0"/>
<path d="M 875.5 247.1 L 924.1 261.1 L 926.8 298.4 z" fill="#89bddf" stroke="f0f0f0"/>
<path d="M 946.0 32.9 L 1016.1 35.9 L 891.1 160.2 z" fill="#c1dcee" stroke="f0f0f0"/>
<path d="M 836.0 120.7 L 946.0 32.9 L 891.1 160.2 z" fill="#b8d8eb" stroke="f0f0f0"/>
<path d="M 1094.7 217.4 L 1016.1 35.9 L 1141.3 110.0 z" fill="#b5d5ea" stroke="f0f0f0"/>
<path d="M 1016.1 35.9 L 1094.7 217.4 L 993.4 249.2 z" fill="#a7cee7" stroke="f0f0f0"/>
<path d="M 1243.0 175.3 L 1094.7 217.4 L 1141.3 110.0 z" fill="#a8cfe7" stroke="f0f0f0"/>
<path d="M 40.4 248.1 L 9.1 175.6 L 35.6 163.7 z" fill="#97c5e3" stroke="f0f0f0"/>
<path d="M 9.1 175.6 L 40.4 248.1 L 15.3 255.3 z" fill="#8dbfe0" stroke="f0f0f0"/>
<path d="M 4.2 279.3 L 9.1 175.6 L 15.3 255.3 z" fill="#89bddf" stroke="f0f0f0"/>
<path d="M 9.1 175.6 L 4.2 279.3 L 2.1 283.1 z" fill="#86bbde" stroke="f0f0f0"/>
<path d="M 40.4 248.1 L 4.2 279.3 L 15.3 255.3 z" fill="#81b9dd" stroke="f0f0f0"/>
<path d="M 2.1 283.1 L 4.2 279.3 L 0 300 z" fill="#79b4db" stroke="f0f0f0"/>
<path d="M 45.4 56.7 L 74.1 52.3 L 35.6 163.7 z" fill="#b9d8ec" stroke="f0f0f0"/>
<path d="M 24.2 67.2 L 45.4 56.7 L 35.6 163.7 z" fill="#b7d7eb" stroke="f0f0f0"/>
<path d="M 10.3 65.3 L 24.2 67.2 L 0.1 72.2 z" fill="#c0dcee" stroke="f0f0f0"/>
<path d="M 199.2 108.2 L 239.2 107.2 L 186.7 126.2 z" fill="#b2d4ea" stroke="f0f0f0"/>
<path d="M 239.2 107.2 L 199.2 108.2 L 216.3 71.3 z" fill="#b8d7eb" stroke="f0f0f0"/>
<path d="M 99.7 45.2 L 100.3 22.2 L 171.3 55.6 z" fill="#c9e1f0" stroke="f0f0f0"/>
<path d="M 100.3 22.2 L 99.7 45.2 L 74.1 52.3 z" fill="#cae1f0" stroke="f0f0f0"/>
<path d="M 200.2 18.4 L 171.1 1.2 L 279.8 0.6 z" fill="#d4e7f3" stroke="f0f0f0"/>
<path d="M 200.2 18.4 L 216.3 71.3 L 171.3 55.6 z" fill="#c7e0ef" stroke="f0f0f0"/>
<path d="M 171.1 1.2 L 200.2 18.4 L 171.3 55.6 z" fill="#cfe4f1" stroke="f0f0f0"/>
<path d="M 339.1 141.4 L 360.4 60.5 L 374.2 68.8 z" fill="#bad9ec" stroke="f0f0f0"/>
<path d="M 339.1 141.4 L 424.7 210.6 L 298.5 196.4 z" fill="#9ec9e4" stroke="f0f0f0"/>
<path d="M 360.4 60.5 L 339.1 141.4 L 256.0 85.8 z" fill="#b8d8ec" stroke="f0f0f0"/>
<path d="M 339.1 141.4 L 374.2 68.8 L 480.0 102.9 z" fill="#b6d6eb" stroke="f0f0f0"/>
<path d="M 424.7 210.6 L 339.1 141.4 L 480.0 102.9 z" fill="#a8cee7" stroke="f0f0f0"/>
<path d="M 298.1 298.3 L 311.7 294.1 L 296.4 299.5 z" fill="#79b4db" stroke="f0f0f0"/>
<path d="M 727.3 288.2 L 704.7 205.2 L 771.2 224.1 z" fill="#90c1e1" stroke="f0f0f0"/>
<path d="M 727.3 288.2 L 826.4 264.9 L 714.1 299.9 z" fill="#83badd" stroke="f0f0f0"/>
<path d="M 727.3 288.2 L 771.2 224.1 L 826.4 264.9 z" fill="#8bbedf" stroke="f0f0f0"/>
<path d="M 844.9 156.6 L 836.0 120.7 L 891.1 160.2 z" fill="#acd1e8" stroke="f0f0f0"/>
<path d="M 834.8 167.3 L 844.9 156.6 L 891.1 160.2 z" fill="#a8cee7" stroke="f0f0f0"/>
<path d="M 844.9 156.6 L 834.8 167.3 L 836.0 120.7 z" fill="#abd0e8" stroke="f0f0f0"/>
<path d="M 771.2 224.1 L 834.9 226.2 L 826.4 264.9 z" fill="#91c1e1" stroke="f0f0f0"/>
<path d="M 834.8 167.3 L 834.9 226.2 L 771.2 224.1 z" fill="#9bc7e3" stroke="f0f0f0"/>
<path d="M 834.9 226.2 L 875.5 247.1 L 826.4 264.9 z" fill="#8fc0e0" stroke="f0f0f0"/>
<path d="M 875.5 247.1 L 834.9 226.2 L 891.1 160.2 z" fill="#99c6e3" stroke="f0f0f0"/>
<path d="M 834.9 226.2 L 834.8 167.3 L 891.1 160.2 z" fill="#a1cae5" stroke="f0f0f0"/>
<path d="M 555.6 152.1 L 607.4 151.9 L 556.7 243.2 z" fill="#9fcae5" stroke="f0f0f0"/>
<path d="M 424.7 210.6 L 555.6 152.1 L 556.7 243.2 z" fill="#99c6e3" stroke="f0f0f0"/>
<path d="M 607.4 151.9 L 653.8 203.0 L 556.7 243.2 z" fill="#9bc7e3" stroke="f0f0f0"/>
<path d="M 704.7 205.2 L 653.8 203.0 L 702.5 191.3 z" fill="#9bc7e4" stroke="f0f0f0"/>
<path d="M 653.8 203.0 L 607.4 151.9 L 702.5 191.3 z" fill="#a0cae5" stroke="f0f0f0"/>
<path d="M 867.8 13.8 L 821.7 0.9 L 874.9 3.9 z" fill="#d5e7f3" stroke="f0f0f0"/>
<path d="M 821.7 0.9 L 867.8 13.8 L 836.0 120.7 z" fill="#c9e1f0" stroke="f0f0f0"/>
<path d="M 946.0 32.9 L 867.8 13.8 L 874.9 3.9 z" fill="#d2e6f2" stroke="f0f0f0"/>
<path d="M 867.8 13.8 L 946.0 32.9 L 836.0 120.7 z" fill="#c6dfef" stroke="f0f0f0"/>
<path d="M 834.8 167.3 L 783.7 125.6 L 836.0 120.7 z" fill="#aed2e9" stroke="f0f0f0"/>
<path d="M 783.7 125.6 L 821.7 0.9 L 836.0 120.7 z" fill="#bedbed" stroke="f0f0f0"/>
<path d="M 783.7 125.6 L 771.2 224.1 L 702.5 191.3 z" fill="#a1cbe5" stroke="f0f0f0"/>
<path d="M 783.7 125.6 L 834.8 167.3 L 771.2 224.1 z" fill="#a4cce6" stroke="f0f0f0"/>
<path d="M 607.4 151.9 L 673.2 82.9 L 702.5 191.3 z" fill="#acd1e8" stroke="f0f0f0"/>
<path d="M 673.2 82.9 L 783.7 125.6 L 702.5 191.3 z" fill="#afd2e9" stroke="f0f0f0"/>
<path d="M 546.3 4.2 L 416.1 31.2 L 318.7 6.8 z" fill="#d2e6f2" stroke="f0f0f0"/>
<path d="M 416.1 31.2 L 360.4 60.5 L 318.7 6.8 z" fill="#cce3f1" stroke="f0f0f0"/>
<path d="M 360.4 60.5 L 416.1 31.2 L 374.2 68.8 z" fill="#c6dfef" stroke="f0f0f0"/>
<path d="M 993.4 249.2 L 947.1 262.8 L 891.1 160.2 z" fill="#96c5e2" stroke="f0f0f0"/>
<path d="M 947.1 262.8 L 924.1 261.1 L 891.1 160.2 z" fill="#95c4e2" stroke="f0f0f0"/>
<path d="M 924.1 261.1 L 947.1 262.8 L 926.8 298.4 z" fill="#88bcde" stroke="f0f0f0"/>
<path d="M 1489.4 299.9 L 1403.4 254.3 L 1450.5 220.7 z" fill="#92c2e1" stroke="f0f0f0"/>
<path d="M 945.3 4.0 L 946.0 32.9 L 874.9 3.9 z" fill="#d3e6f2" stroke="f0f0f0"/>
<path d="M 821.7 0.9 L 945.3 4.0 L 874.9 3.9 z" fill="#d6e8f3" stroke="f0f0f0"/>
<path d="M 947.1 262.8 L 1009.5 283.8 L 926.8 298.4 z" fill="#86bbde" stroke="f0f0f0"/>
<path d="M 1009.5 283.8 L 947.1 262.8 L 993.4 249.2 z" fill="#8bbedf" stroke="f0f0f0"/>
<path d="M 1016.1 35.9 L 1136.9 32.0 L 1141.3 110.0 z" fill="#c6dfef" stroke="f0f0f0"/>
<path d="M 184.0 213.4 L 155.8 174.9 L 186.7 126.2 z" fill="#a0cae5" stroke="f0f0f0"/>
<path d="M 74.1 52.3 L 155.8 174.9 L 35.6 163.7 z" fill="#acd1e8" stroke="f0f0f0"/>
<path d="M 155.8 174.9 L 99.7 45.2 L 186.7 126.2 z" fill="#b2d4ea" stroke="f0f0f0"/>
<path d="M 99.7 45.2 L 155.8 174.9 L 74.1 52.3 z" fill="#b9d8ec" stroke="f0f0f0"/>
<path d="M 237.9 275.6 L 184.0 213.4 L 298.5 196.4 z" fill="#8ec0e0" stroke="f0f0f0"/>
<path d="M 86.1 298.8 L 296.4 299.5 L 0 300 z" fill="#76b3da" stroke="f0f0f0"/>
<path d="M 4.2 279.3 L 86.1 298.8 L 0 300 z" fill="#77b3da" stroke="f0f0f0"/>
<path d="M 86.1 298.8 L 4.2 279.3 L 40.4 248.1 z" fill="#7db6dc" stroke="f0f0f0"/>
<path d="M 45.4 56.7 L 23.5 35.8 L 74.1 52.3 z" fill="#c7e0ef" stroke="f0f0f0"/>
<path d="M 216.3 71.3 L 169.8 66.2 L 171.3 55.6 z" fill="#c2ddee" stroke="f0f0f0"/>
<path d="M 199.2 108.2 L 169.8 66.2 L 216.3 71.3 z" fill="#bcdaed" stroke="f0f0f0"/>
<path d="M 169.8 66.2 L 199.2 108.2 L 186.7 126.2 z" fill="#b7d7eb" stroke="f0f0f0"/>
<path d="M 99.7 45.2 L 169.8 66.2 L 186.7 126.2 z" fill="#bddaed" stroke="f0f0f0"/>
<path d="M 169.8 66.2 L 99.7 45.2 L 171.3 55.6 z" fill="#c5deef" stroke="f0f0f0"/>
<path d="M 161.6 1.4 L 171.1 1.2 L 171.3 55.6 z" fill="#d0e5f2" stroke="f0f0f0"/>
<path d="M 100.3 22.2 L 161.6 1.4 L 171.3 55.6 z" fill="#cee4f1" stroke="f0f0f0"/>
<path d="M 171.1 1.2 L 161.6 1.4 L 110.5 0.3 z" fill="#d6e8f3" stroke="f0f0f0"/>
<path d="M 161.6 1.4 L 100.3 22.2 L 110.5 0.3 z" fill="#d4e7f3" stroke="f0f0f0"/>
<path d="M 269.5 29.1 L 200.2 18.4 L 279.8 0.6 z" fill="#d1e6f2" stroke="f0f0f0"/>
<path d="M 200.2 18.4 L 269.5 29.1 L 216.3 71.3 z" fill="#cae1f0" stroke="f0f0f0"/>
<path d="M 216.3 71.3 L 269.5 29.1 L 256.0 85.8 z" fill="#c3ddee" stroke="f0f0f0"/>
<path d="M 269.5 29.1 L 279.8 0.6 L 318.7 6.8 z" fill="#d3e6f2" stroke="f0f0f0"/>
<path d="M 269.5 29.1 L 360.4 60.5 L 256.0 85.8 z" fill="#c4deef" stroke="f0f0f0"/>
<path d="M 360.4 60.5 L 269.5 29.1 L 318.7 6.8 z" fill="#cce3f1" stroke="f0f0f0"/>
<path d="M 263.0 141.5 L 239.2 107.2 L 256.0 85.8 z" fill="#b3d5ea" stroke="f0f0f0"/>
<path d="M 339.1 141.4 L 263.0 141.5 L 256.0 85.8 z" fill="#b0d3e9" stroke="f0f0f0"/>
<path d="M 263.0 141.5 L 339.1 141.4 L 298.5 196.4 z" fill="#a4cce6" stroke="f0f0f0"/>
<path d="M 184.0 213.4 L 263.0 141.5 L 298.5 196.4 z" fill="#9cc8e4" stroke="f0f0f0"/>
<path d="M 239.2 107.2 L 263.0 141.5 L 186.7 126.2 z" fill="#afd2e9" stroke="f0f0f0"/>
<path d="M 263.0 141.5 L 184.0 213.4 L 186.7 126.2 z" fill="#a4cce6" stroke="f0f0f0"/>
<path d="M 1698.8 298.9 L 1812.9 283.7 L 1920 300 z" fill="#8ec0e0" stroke="f0f0f0"/>
<path d="M 503.0 115.4 L 424.7 210.6 L 480.0 102.9 z" fill="#abd0e8" stroke="f0f0f0"/>
<path d="M 503.0 115.4 L 555.6 152.1 L 424.7 210.6 z" fill="#a6cde7" stroke="f0f0f0"/>
<path d="M 556.7 243.2 L 659.7 240.8 L 714.1 299.9 z" fill="#88bddf" stroke="f0f0f0"/>
<path d="M 653.8 203.0 L 659.7 240.8 L 556.7 243.2 z" fill="#92c2e1" stroke="f0f0f0"/>
<path d="M 659.7 240.8 L 653.8 203.0 L 704.7 205.2 z" fill="#96c4e2" stroke="f0f0f0"/>
<path d="M 659.7 240.8 L 727.3 288.2 L 714.1 299.9 z" fill="#85bbde" stroke="f0f0f0"/>
<path d="M 727.3 288.2 L 659.7 240.8 L 704.7 205.2 z" fill="#8ec0e0" stroke="f0f0f0"/>
<path d="M 783.7 125.6 L 738.3 0.2 L 821.7 0.9 z" fill="#cae2f0" stroke="f0f0f0"/>
<path d="M 738.3 0.2 L 673.2 82.9 L 731.9 0.3 z" fill="#cee4f1" stroke="f0f0f0"/>
<path d="M 673.2 82.9 L 738.3 0.2 L 783.7 125.6 z" fill="#c2ddee" stroke="f0f0f0"/>
<path d="M 731.9 0.3 L 647.8 21.3 L 635.1 0.4 z" fill="#d4e7f3" stroke="f0f0f0"/>
<path d="M 673.2 82.9 L 647.8 21.3 L 731.9 0.3 z" fill="#cce3f1" stroke="f0f0f0"/>
<path d="M 374.2 68.8 L 448.1 43.1 L 480.0 102.9 z" fill="#c0dcee" stroke="f0f0f0"/>
<path d="M 416.1 31.2 L 448.1 43.1 L 374.2 68.8 z" fill="#c8e0f0" stroke="f0f0f0"/>
<path d="M 448.1 43.1 L 416.1 31.2 L 546.3 4.2 z" fill="#cee4f1" stroke="f0f0f0"/>
<path d="M 1181.4 296.9 L 1094.7 217.4 L 1243.0 175.3 z" fill="#97c5e2" stroke="f0f0f0"/>
<path d="M 1181.4 296.9 L 1489.4 299.9 L 926.8 298.4 z" fill="#85badd" stroke="f0f0f0"/>
<path d="M 1009.5 283.8 L 1181.4 296.9 L 926.8 298.4 z" fill="#84badd" stroke="f0f0f0"/>
<path d="M 1403.4 254.3 L 1395.7 163.5 L 1450.5 220.7 z" fill="#9ec9e4" stroke="f0f0f0"/>
<path d="M 1395.7 163.5 L 1538.7 123.9 L 1450.5 220.7 z" fill="#aacfe7" stroke="f0f0f0"/>
<path d="M 946.0 32.9 L 969.1 12.3 L 1016.1 35.9 z" fill="#cfe4f1" stroke="f0f0f0"/>
<path d="M 945.3 4.0 L 969.1 12.3 L 946.0 32.9 z" fill="#d2e6f2" stroke="f0f0f0"/>
<path d="M 1919.9 137.5 L 1920.0 166.8 L 1908.5 166.8 z" fill="#b0d3e9" stroke="f0f0f0"/>
<path d="M 1698.8 298.9 L 1735.8 243.3 L 1741.5 253.0 z" fill="#94c3e1" stroke="f0f0f0"/>
<path d="M 1666.9 255.9 L 1735.8 243.3 L 1698.8 298.9 z" fill="#93c3e1" stroke="f0f0f0"/>
<path d="M 1136.9 32.0 L 1169.0 40.3 L 1141.3 110.0 z" fill="#c6dfef" stroke="f0f0f0"/>
<path d="M 1169.0 40.3 L 1224.3 69.3 L 1141.3 110.0 z" fill="#c2ddee" stroke="f0f0f0"/>
<path d="M 1256.8 128.0 L 1324.9 152.6 L 1243.0 175.3 z" fill="#add1e8" stroke="f0f0f0"/>
<path d="M 1256.8 128.0 L 1243.0 175.3 L 1141.3 110.0 z" fill="#b1d3e9" stroke="f0f0f0"/>
<path d="M 1224.3 69.3 L 1256.8 128.0 L 1141.3 110.0 z" fill="#bad9ec" stroke="f0f0f0"/>
<path d="M 1265.6 37.4 L 1256.8 128.0 L 1224.3 69.3 z" fill="#c1ddee" stroke="f0f0f0"/>
<path d="M 159.7 195.1 L 155.8 174.9 L 184.0 213.4 z" fill="#98c6e3" stroke="f0f0f0"/>
<path d="M 159.7 195.1 L 40.4 248.1 L 35.6 163.7 z" fill="#95c4e2" stroke="f0f0f0"/>
<path d="M 155.8 174.9 L 159.7 195.1 L 35.6 163.7 z" fill="#9dc8e4" stroke="f0f0f0"/>
<path d="M 307.9 258.3 L 237.9 275.6 L 298.5 196.4 z" fill="#8abedf" stroke="f0f0f0"/>
<path d="M 298.1 298.3 L 307.9 258.3 L 311.7 294.1 z" fill="#7eb7dc" stroke="f0f0f0"/>
<path d="M 307.9 258.3 L 298.1 298.3 L 296.4 299.5 z" fill="#7db6dc" stroke="f0f0f0"/>
<path d="M 424.7 210.6 L 307.9 258.3 L 298.5 196.4 z" fill="#91c2e1" stroke="f0f0f0"/>
<path d="M 307.9 258.3 L 424.7 210.6 L 311.7 294.1 z" fill="#87bcde" stroke="f0f0f0"/>
<path d="M 237.9 275.6 L 236.1 296.4 L 170.4 273.2 z" fill="#7db6dc" stroke="f0f0f0"/>
<path d="M 185.4 233.8 L 237.9 275.6 L 170.4 273.2 z" fill="#84badd" stroke="f0f0f0"/>
<path d="M 237.9 275.6 L 185.4 233.8 L 184.0 213.4 z" fill="#8abedf" stroke="f0f0f0"/>
<path d="M 185.4 233.8 L 159.7 195.1 L 184.0 213.4 z" fill="#92c2e1" stroke="f0f0f0"/>
<path d="M 10.3 65.3 L 15.4 51.3 L 24.2 67.2 z" fill="#c3ddee" stroke="f0f0f0"/>
<path d="M 15.4 51.3 L 45.4 56.7 L 24.2 67.2 z" fill="#c3deee" stroke="f0f0f0"/>
<path d="M 15.4 51.3 L 23.5 35.8 L 45.4 56.7 z" fill="#c7e0ef" stroke="f0f0f0"/>
<path d="M 100.3 22.2 L 19.1 4.7 L 110.5 0.3 z" fill="#d4e7f3" stroke="f0f0f0"/>
<path d="M 19.1 4.7 L 100.3 22.2 L 74.1 52.3 z" fill="#cee4f1" stroke="f0f0f0"/>
<path d="M 23.5 35.8 L 19.1 4.7 L 74.1 52.3 z" fill="#cce3f1" stroke="f0f0f0"/>
<path d="M 110.5 0.3 L 19.1 4.7 L 0 0 z" fill="#d6e8f3" stroke="f0f0f0"/>
<path d="M 1759.1 256.8 L 1698.8 298.9 L 1741.5 253.0 z" fill="#93c2e1" stroke="f0f0f0"/>
<path d="M 1759.1 256.8 L 1812.9 283.7 L 1698.8 298.9 z" fill="#90c1e0" stroke="f0f0f0"/>
<path d="M 1735.8 243.3 L 1759.1 256.8 L 1741.5 253.0 z" fill="#98c5e2" stroke="f0f0f0"/>
<path d="M 1812.9 283.7 L 1888.0 286.4 L 1920 300 z" fill="#8fc1e0" stroke="f0f0f0"/>
<path d="M 647.8 21.3 L 625.1 17.1 L 635.1 0.4 z" fill="#d3e6f2" stroke="f0f0f0"/>
<path d="M 1313.7 297.0 L 1181.4 296.9 L 1243.0 175.3 z" fill="#91c1e1" stroke="f0f0f0"/>
<path d="M 1313.7 297.0 L 1403.4 254.3 L 1489.4 299.9 z" fill="#8bbedf" stroke="f0f0f0"/>
<path d="M 1181.4 296.9 L 1313.7 297.0 L 1489.4 299.9 z" fill="#86bbde" stroke="f0f0f0"/>
<path d="M 1181.4 296.9 L 1079.9 272.0 L 1094.7 217.4 z" fill="#8ec0e0" stroke="f0f0f0"/>
<path d="M 1079.9 272.0 L 1181.4 296.9 L 1009.5 283.8 z" fill="#87bcde" stroke="f0f0f0"/>
<path d="M 1094.7 217.4 L 1079.9 272.0 L 993.4 249.2 z" fill="#91c2e1" stroke="f0f0f0"/>
<path d="M 1079.9 272.0 L 1009.5 283.8 L 993.4 249.2 z" fill="#8bbedf" stroke="f0f0f0"/>
<path d="M 1341.3 223.6 L 1395.7 163.5 L 1403.4 254.3 z" fill="#9dc8e4" stroke="f0f0f0"/>
<path d="M 1395.7 163.5 L 1341.3 223.6 L 1324.9 152.6 z" fill="#a6cde6" stroke="f0f0f0"/>
<path d="M 1313.7 297.0 L 1341.3 223.6 L 1403.4 254.3 z" fill="#91c2e1" stroke="f0f0f0"/>
<path d="M 1324.9 152.6 L 1341.3 223.6 L 1243.0 175.3 z" fill="#a5cde6" stroke="f0f0f0"/>
<path d="M 1341.3 223.6 L 1313.7 297.0 L 1243.0 175.3 z" fill="#98c5e3" stroke="f0f0f0"/>
<path d="M 1136.9 32.0 L 1014.9 0.7 L 1199.6 4.2 z" fill="#d3e7f3" stroke="f0f0f0"/>
<path d="M 1014.9 0.7 L 969.1 12.3 L 945.3 4.0 z" fill="#d5e8f3" stroke="f0f0f0"/>
<path d="M 969.1 12.3 L 1014.9 0.7 L 1016.1 35.9 z" fill="#d2e6f2" stroke="f0f0f0"/>
<path d="M 1014.9 0.7 L 945.3 4.0 L 821.7 0.9 z" fill="#d6e8f3" stroke="f0f0f0"/>
<path d="M 738.3 0.2 L 1014.9 0.7 L 821.7 0.9 z" fill="#d6e8f3" stroke="f0f0f0"/>
<path d="M 1919.9 0.2 L 1903.8 7.0 L 1920 0 z" fill="#d6e8f3" stroke="f0f0f0"/>
<path d="M 1919.8 26.4 L 1919.9 0.2 L 1920 0 z" fill="#d4e7f3" stroke="f0f0f0"/>
<path d="M 1919.9 57.8 L 1919.8 26.4 L 1920 0 z" fill="#d0e5f2" stroke="f0f0f0"/>
<path d="M 1920.0 166.8 L 1919.9 57.8 L 1920 0 z" fill="#c4deef" stroke="f0f0f0"/>
<path d="M 1919.9 137.5 L 1919.9 57.8 L 1920.0 166.8 z" fill="#b9d8eb" stroke="f0f0f0"/>
<path d="M 1538.7 123.9 L 1551.1 101.2 L 1593.1 171.4 z" fill="#b4d5ea" stroke="f0f0f0"/>
<path d="M 1551.1 101.2 L 1570.5 81.1 L 1593.1 171.4 z" fill="#b8d7eb" stroke="f0f0f0"/>
<path d="M 1723.3 2.3 L 1704.0 109.0 L 1714.5 3.2 z" fill="#cde3f1" stroke="f0f0f0"/>
<path d="M 1704.0 109.0 L 1787.0 35.0 L 1782.2 97.8 z" fill="#c2ddee" stroke="f0f0f0"/>
<path d="M 1787.0 35.0 L 1704.0 109.0 L 1723.3 2.3 z" fill="#cae2f0" stroke="f0f0f0"/>
<path d="M 1653.3 296.2 L 1666.9 255.9 L 1698.8 298.9 z" fill="#8ec0e0" stroke="f0f0f0"/>
<path d="M 1653.3 296.2 L 1644.6 294.4 L 1666.9 255.9 z" fill="#8fc0e0" stroke="f0f0f0"/>
<path d="M 1653.3 296.2 L 1698.8 298.9 L 1489.4 299.9 z" fill="#8abedf" stroke="f0f0f0"/>
<path d="M 1644.6 294.4 L 1653.3 296.2 L 1489.4 299.9 z" fill="#8abedf" stroke="f0f0f0"/>
<path d="M 1498.8 261.6 L 1489.4 299.9 L 1450.5 220.7 z" fill="#92c2e1" stroke="f0f0f0"/>
<path d="M 1644.6 294.4 L 1568.5 270.8 L 1666.9 255.9 z" fill="#90c1e0" stroke="f0f0f0"/>
<path d="M 1568.5 270.8 L 1644.6 294.4 L 1489.4 299.9 z" fill="#8cbfdf" stroke="f0f0f0"/>
<path d="M 1498.8 261.6 L 1568.5 270.8 L 1489.4 299.9 z" fill="#8ec0e0" stroke="f0f0f0"/>
<path d="M 1169.0 40.3 L 1191.5 17.4 L 1224.3 69.3 z" fill="#cbe2f0" stroke="f0f0f0"/>
<path d="M 1265.6 37.4 L 1191.5 17.4 L 1199.6 4.2 z" fill="#d1e5f2" stroke="f0f0f0"/>
<path d="M 1191.5 17.4 L 1265.6 37.4 L 1224.3 69.3 z" fill="#cbe2f0" stroke="f0f0f0"/>
<path d="M 1191.5 17.4 L 1136.9 32.0 L 1199.6 4.2 z" fill="#d2e6f2" stroke="f0f0f0"/>
<path d="M 1191.5 17.4 L 1169.0 40.3 L 1136.9 32.0 z" fill="#cee4f1" stroke="f0f0f0"/>
<path d="M 1014.9 0.7 L 1347.4 0.2 L 1199.6 4.2 z" fill="#d6e8f3" stroke="f0f0f0"/>
<path d="M 1347.4 0.2 L 1014.9 0.7 L 738.3 0.2 z" fill="#d6e8f3" stroke="f0f0f0"/>
<path d="M 236.1 296.4 L 146.7 291.2 L 170.4 273.2 z" fill="#7bb5db" stroke="f0f0f0"/>
<path d="M 134.4 285.8 L 86.1 298.8 L 40.4 248.1 z" fill="#7db6dc" stroke="f0f0f0"/>
<path d="M 159.7 195.1 L 134.4 285.8 L 40.4 248.1 z" fill="#88bddf" stroke="f0f0f0"/>
<path d="M 146.7 291.2 L 134.4 285.8 L 170.4 273.2 z" fill="#7cb6db" stroke="f0f0f0"/>
<path d="M 134.4 285.8 L 185.4 233.8 L 170.4 273.2 z" fill="#82b9dd" stroke="f0f0f0"/>
<path d="M 185.4 233.8 L 134.4 285.8 L 159.7 195.1 z" fill="#8abedf" stroke="f0f0f0"/>
<path d="M 236.1 296.4 L 251.0 291.6 L 296.4 299.5 z" fill="#79b4db" stroke="f0f0f0"/>
<path d="M 251.0 291.6 L 236.1 296.4 L 237.9 275.6 z" fill="#7bb5db" stroke="f0f0f0"/>
<path d="M 251.0 291.6 L 307.9 258.3 L 296.4 299.5 z" fill="#7eb7dc" stroke="f0f0f0"/>
<path d="M 307.9 258.3 L 251.0 291.6 L 237.9 275.6 z" fill="#80b8dc" stroke="f0f0f0"/>
<path d="M 15.4 51.3 L 2.5 34.9 L 23.5 35.8 z" fill="#c9e1f0" stroke="f0f0f0"/>
<path d="M 2.5 34.9 L 10.3 65.3 L 0.1 72.2 z" fill="#c4deef" stroke="f0f0f0"/>
<path d="M 2.5 34.9 L 15.4 51.3 L 10.3 65.3 z" fill="#c6dfef" stroke="f0f0f0"/>
<path d="M 1759.1 256.8 L 1842.1 257.3 L 1812.9 283.7 z" fill="#94c3e1" stroke="f0f0f0"/>
<path d="M 1842.1 257.3 L 1888.0 286.4 L 1812.9 283.7 z" fill="#93c2e1" stroke="f0f0f0"/>
<path d="M 1876.5 243.4 L 1910.3 218.6 L 1908.6 247.6 z" fill="#9dc8e4" stroke="f0f0f0"/>
<path d="M 1876.5 243.4 L 1842.1 257.3 L 1851.9 244.8 z" fill="#99c6e3" stroke="f0f0f0"/>
<path d="M 1842.1 257.3 L 1876.5 243.4 L 1888.0 286.4 z" fill="#96c4e2" stroke="f0f0f0"/>
<path d="M 1888.0 286.4 L 1918.7 284.5 L 1920 300 z" fill="#90c1e0" stroke="f0f0f0"/>
<path d="M 1920.0 220.4 L 1917.6 273.9 L 1908.6 247.6 z" fill="#9ac7e3" stroke="f0f0f0"/>
<path d="M 1910.3 218.6 L 1920.0 220.4 L 1908.6 247.6 z" fill="#9fc9e4" stroke="f0f0f0"/>
<path d="M 1920.0 220.4 L 1918.7 284.5 L 1917.6 273.9 z" fill="#97c5e2" stroke="f0f0f0"/>
<path d="M 1918.7 284.5 L 1920.0 220.4 L 1920 300 z" fill="#95c4e2" stroke="f0f0f0"/>
<path d="M 625.1 17.1 L 631.5 0.0 L 635.1 0.4 z" fill="#d5e8f3" stroke="f0f0f0"/>
<path d="M 631.5 0.0 L 546.3 4.2 L 279.8 0.6 z" fill="#d6e8f3" stroke="f0f0f0"/>
<path d="M 631.5 0.0 L 279.8 0.6 L 110.5 0.3 z" fill="#d6e8f3" stroke="f0f0f0"/>
<path d="M 631.5 0.0 L 110.5 0.3 L 0 0 z" fill="#d6e8f3" stroke="f0f0f0"/>
<path d="M 631.5 0.0 L 731.9 0.3 L 635.1 0.4 z" fill="#d6e8f3" stroke="f0f0f0"/>
<path d="M 631.5 0.0 L 738.3 0.2 L 731.9 0.3 z" fill="#d6e8f3" stroke="f0f0f0"/>
<path d="M 631.5 0.0 L 1347.4 0.2 L 738.3 0.2 z" fill="#d6e8f3" stroke="f0f0f0"/>
<path d="M 543.4 19.3 L 503.0 115.4 L 480.0 102.9 z" fill="#bedbed" stroke="f0f0f0"/>
<path d="M 448.1 43.1 L 543.4 19.3 L 480.0 102.9 z" fill="#c6dfef" stroke="f0f0f0"/>
<path d="M 543.4 19.3 L 448.1 43.1 L 546.3 4.2 z" fill="#d0e5f2" stroke="f0f0f0"/>
<path d="M 619.9 83.0 L 647.8 21.3 L 673.2 82.9 z" fill="#c4deef" stroke="f0f0f0"/>
<path d="M 619.9 83.0 L 625.1 17.1 L 647.8 21.3 z" fill="#cae2f0" stroke="f0f0f0"/>
<path d="M 619.9 83.0 L 673.2 82.9 L 607.4 151.9 z" fill="#b7d7eb" stroke="f0f0f0"/>
<path d="M 1030.0 11.6 L 1136.9 32.0 L 1016.1 35.9 z" fill="#cfe4f1" stroke="f0f0f0"/>
<path d="M 1014.9 0.7 L 1030.0 11.6 L 1016.1 35.9 z" fill="#d2e6f2" stroke="f0f0f0"/>
<path d="M 1030.0 11.6 L 1014.9 0.7 L 1136.9 32.0 z" fill="#d2e6f2" stroke="f0f0f0"/>
<path d="M 1903.8 7.0 L 1786.8 2.9 L 1920 0 z" fill="#d6e8f3" stroke="f0f0f0"/>
<path d="M 1909.1 18.6 L 1903.8 37.7 L 1903.8 7.0 z" fill="#d1e6f2" stroke="f0f0f0"/>
<path d="M 1903.8 37.7 L 1909.1 18.6 L 1919.8 26.4 z" fill="#d0e5f2" stroke="f0f0f0"/>
<path d="M 1919.9 0.2 L 1909.1 18.6 L 1903.8 7.0 z" fill="#d4e7f3" stroke="f0f0f0"/>
<path d="M 1909.1 18.6 L 1919.9 0.2 L 1919.8 26.4 z" fill="#d3e6f2" stroke="f0f0f0"/>
<path d="M 1912.1 40.4 L 1919.9 57.8 L 1907.0 48.0 z" fill="#cbe2f0" stroke="f0f0f0"/>
<path d="M 1919.9 57.8 L 1912.1 40.4 L 1919.8 26.4 z" fill="#cce3f1" stroke="f0f0f0"/>
<path d="M 1903.8 37.7 L 1912.1 40.4 L 1907.0 48.0 z" fill="#cce3f1" stroke="f0f0f0"/>
<path d="M 1912.1 40.4 L 1903.8 37.7 L 1919.8 26.4 z" fill="#cee4f1" stroke="f0f0f0"/>
<path d="M 1842.1 168.1 L 1855.8 228.6 L 1818.6 163.5 z" fill="#a8cfe7" stroke="f0f0f0"/>
<path d="M 1842.1 257.3 L 1855.8 228.6 L 1851.9 244.8 z" fill="#9ac7e3" stroke="f0f0f0"/>
<path d="M 1855.8 228.6 L 1876.5 243.4 L 1851.9 244.8 z" fill="#9cc8e3" stroke="f0f0f0"/>
<path d="M 1876.5 243.4 L 1855.8 228.6 L 1910.3 218.6 z" fill="#9ec9e4" stroke="f0f0f0"/>
<path d="M 1854.6 114.2 L 1919.9 137.5 L 1908.5 166.8 z" fill="#b4d5ea" stroke="f0f0f0"/>
<path d="M 1842.1 168.1 L 1854.6 114.2 L 1908.5 166.8 z" fill="#b2d4e9" stroke="f0f0f0"/>
<path d="M 1854.6 114.2 L 1919.9 57.8 L 1919.9 137.5 z" fill="#bddaed" stroke="f0f0f0"/>
<path d="M 1854.6 114.2 L 1818.6 163.5 L 1782.2 97.8 z" fill="#b7d7eb" stroke="f0f0f0"/>
<path d="M 1854.6 114.2 L 1842.1 168.1 L 1818.6 163.5 z" fill="#b2d4e9" stroke="f0f0f0"/>
<path d="M 1347.4 0.2 L 1563.9 0.0 L 1525.2 0.2 z" fill="#d6e8f3" stroke="f0f0f0"/>
<path d="M 1563.9 0.0 L 1542.3 3.6 L 1525.2 0.2 z" fill="#d6e8f3" stroke="f0f0f0"/>
<path d="M 631.5 0.0 L 1563.9 0.0 L 1347.4 0.2 z" fill="#d6e8f3" stroke="f0f0f0"/>
<path d="M 1570.5 81.1 L 1640.1 67.4 L 1593.1 171.4 z" fill="#bbd9ec" stroke="f0f0f0"/>
<path d="M 1704.0 109.0 L 1640.1 67.4 L 1714.5 3.2 z" fill="#c7e0ef" stroke="f0f0f0"/>
<path d="M 1568.5 270.8 L 1575.7 206.6 L 1666.9 255.9 z" fill="#98c5e2" stroke="f0f0f0"/>
<path d="M 1575.7 206.6 L 1568.5 270.8 L 1498.8 261.6 z" fill="#97c5e2" stroke="f0f0f0"/>
<path d="M 1575.7 206.6 L 1538.7 123.9 L 1593.1 171.4 z" fill="#abd0e8" stroke="f0f0f0"/>
<path d="M 1538.7 123.9 L 1575.7 206.6 L 1450.5 220.7 z" fill="#a7cee6" stroke="f0f0f0"/>
<path d="M 1575.7 206.6 L 1498.8 261.6 L 1450.5 220.7 z" fill="#9bc7e3" stroke="f0f0f0"/>
<path d="M 1294.1 19.7 L 1265.6 37.4 L 1199.6 4.2 z" fill="#d1e5f2" stroke="f0f0f0"/>
<path d="M 1347.4 0.2 L 1294.1 19.7 L 1199.6 4.2 z" fill="#d4e7f3" stroke="f0f0f0"/>
<path d="M 1431.2 11.2 L 1347.4 0.2 L 1525.2 0.2 z" fill="#d5e8f3" stroke="f0f0f0"/>
<path d="M 1346.0 128.3 L 1395.7 163.5 L 1324.9 152.6 z" fill="#afd2e9" stroke="f0f0f0"/>
<path d="M 1256.8 128.0 L 1346.0 128.3 L 1324.9 152.6 z" fill="#b2d4ea" stroke="f0f0f0"/>
<path d="M 1265.6 37.4 L 1346.0 128.3 L 1256.8 128.0 z" fill="#bcdaec" stroke="f0f0f0"/>
<path d="M 134.4 285.8 L 131.4 296.8 L 86.1 298.8 z" fill="#78b3da" stroke="f0f0f0"/>
<path d="M 131.4 296.8 L 134.4 285.8 L 146.7 291.2 z" fill="#79b4db" stroke="f0f0f0"/>
<path d="M 131.4 296.8 L 146.7 291.2 L 236.1 296.4 z" fill="#78b4da" stroke="f0f0f0"/>
<path d="M 86.1 298.8 L 131.4 296.8 L 296.4 299.5 z" fill="#77b3da" stroke="f0f0f0"/>
<path d="M 131.4 296.8 L 236.1 296.4 L 296.4 299.5 z" fill="#78b4da" stroke="f0f0f0"/>
<path d="M 14.5 3.8 L 5.2 3.8 L 0 0 z" fill="#d6e8f3" stroke="f0f0f0"/>
<path d="M 19.1 4.7 L 14.5 3.8 L 0 0 z" fill="#d6e8f3" stroke="f0f0f0"/>
<path d="M 3.7 22.9 L 19.1 4.7 L 23.5 35.8 z" fill="#d0e5f2" stroke="f0f0f0"/>
<path d="M 2.5 34.9 L 3.7 22.9 L 23.5 35.8 z" fill="#cce3f1" stroke="f0f0f0"/>
<path d="M 1905.9 271.3 L 1876.5 243.4 L 1908.6 247.6 z" fill="#98c6e2" stroke="f0f0f0"/>
<path d="M 1876.5 243.4 L 1905.9 271.3 L 1888.0 286.4 z" fill="#95c4e2" stroke="f0f0f0"/>
<path d="M 1917.6 273.9 L 1905.9 271.3 L 1908.6 247.6 z" fill="#96c4e2" stroke="f0f0f0"/>
<path d="M 1905.9 271.3 L 1918.7 284.5 L 1888.0 286.4 z" fill="#92c2e1" stroke="f0f0f0"/>
<path d="M 1918.7 284.5 L 1905.9 271.3 L 1917.6 273.9 z" fill="#93c3e1" stroke="f0f0f0"/>
<path d="M 550.2 11.3 L 543.4 19.3 L 546.3 4.2 z" fill="#d3e7f3" stroke="f0f0f0"/>
<path d="M 631.5 0.0 L 550.2 11.3 L 546.3 4.2 z" fill="#d5e8f3" stroke="f0f0f0"/>
<path d="M 550.2 11.3 L 631.5 0.0 L 625.1 17.1 z" fill="#d4e7f3" stroke="f0f0f0"/>
<path d="M 1779.3 1.1 L 1787.0 35.0 L 1723.3 2.3 z" fill="#d3e7f3" stroke="f0f0f0"/>
<path d="M 1779.3 1.1 L 1786.8 2.9 L 1787.0 35.0 z" fill="#d3e7f3" stroke="f0f0f0"/>
<path d="M 1786.8 2.9 L 1779.3 1.1 L 1920 0 z" fill="#d6e8f3" stroke="f0f0f0"/>
<path d="M 1779.3 1.1 L 1563.9 0.0 L 1920 0 z" fill="#d6e8f3" stroke="f0f0f0"/>
<path d="M 1914.2 190.4 L 1842.1 168.1 L 1908.5 166.8 z" fill="#acd0e8" stroke="f0f0f0"/>
<path d="M 1914.2 190.4 L 1855.8 228.6 L 1842.1 168.1 z" fill="#a6cee6" stroke="f0f0f0"/>
<path d="M 1855.8 228.6 L 1914.2 190.4 L 1910.3 218.6 z" fill="#a3cbe5" stroke="f0f0f0"/>
<path d="M 1920.0 166.8 L 1914.2 190.4 L 1908.5 166.8 z" fill="#acd1e8" stroke="f0f0f0"/>
<path d="M 1920.0 220.4 L 1914.2 190.4 L 1920.0 166.8 z" fill="#a8cee7" stroke="f0f0f0"/>
<path d="M 1914.2 190.4 L 1920.0 220.4 L 1910.3 218.6 z" fill="#a3cce6" stroke="f0f0f0"/>
<path d="M 1919.9 57.8 L 1874.2 55.8 L 1907.0 48.0 z" fill="#c9e1f0" stroke="f0f0f0"/>
<path d="M 1854.6 114.2 L 1874.2 55.8 L 1919.9 57.8 z" fill="#c4deee" stroke="f0f0f0"/>
<path d="M 1874.2 55.8 L 1903.8 37.7 L 1907.0 48.0 z" fill="#cbe2f0" stroke="f0f0f0"/>
<path d="M 1595.2 53.6 L 1640.1 67.4 L 1570.5 81.1 z" fill="#c5dfef" stroke="f0f0f0"/>
<path d="M 1595.2 53.6 L 1563.9 0.0 L 1584.9 0.8 z" fill="#d2e6f2" stroke="f0f0f0"/>
<path d="M 1542.3 3.6 L 1595.2 53.6 L 1570.5 81.1 z" fill="#cbe2f0" stroke="f0f0f0"/>
<path d="M 1563.9 0.0 L 1595.2 53.6 L 1542.3 3.6 z" fill="#d2e6f2" stroke="f0f0f0"/>
<path d="M 1640.1 67.4 L 1664.4 1.0 L 1714.5 3.2 z" fill="#d0e5f2" stroke="f0f0f0"/>
<path d="M 1664.4 1.0 L 1723.3 2.3 L 1714.5 3.2 z" fill="#d6e8f3" stroke="f0f0f0"/>
<path d="M 1664.4 1.0 L 1595.2 53.6 L 1584.9 0.8 z" fill="#d2e6f2" stroke="f0f0f0"/>
<path d="M 1595.2 53.6 L 1664.4 1.0 L 1640.1 67.4 z" fill="#cce3f1" stroke="f0f0f0"/>
<path d="M 1563.9 0.0 L 1664.4 1.0 L 1584.9 0.8 z" fill="#d6e8f3" stroke="f0f0f0"/>
<path d="M 1664.4 1.0 L 1779.3 1.1 L 1723.3 2.3 z" fill="#d6e8f3" stroke="f0f0f0"/>
<path d="M 1779.3 1.1 L 1664.4 1.0 L 1563.9 0.0 z" fill="#d6e8f3" stroke="f0f0f0"/>
<path d="M 1701.9 122.2 L 1640.1 67.4 L 1704.0 109.0 z" fill="#bddaed" stroke="f0f0f0"/>
<path d="M 1701.9 122.2 L 1676.4 173.5 L 1640.1 67.4 z" fill="#b8d7eb" stroke="f0f0f0"/>
<path d="M 1701.9 122.2 L 1704.0 109.0 L 1782.2 97.8 z" fill="#bbd9ec" stroke="f0f0f0"/>
<path d="M 1732.7 183.4 L 1701.9 122.2 L 1782.2 97.8 z" fill="#b5d6ea" stroke="f0f0f0"/>
<path d="M 1492.3 17.8 L 1551.1 101.2 L 1538.7 123.9 z" fill="#c1ddee" stroke="f0f0f0"/>
<path d="M 1492.3 17.8 L 1431.2 11.2 L 1525.2 0.2 z" fill="#d4e7f3" stroke="f0f0f0"/>
<path d="M 1551.1 101.2 L 1492.3 17.8 L 1570.5 81.1 z" fill="#c5dfef" stroke="f0f0f0"/>
<path d="M 1542.3 3.6 L 1492.3 17.8 L 1525.2 0.2 z" fill="#d5e7f3" stroke="f0f0f0"/>
<path d="M 1492.3 17.8 L 1542.3 3.6 L 1570.5 81.1 z" fill="#cee4f1" stroke="f0f0f0"/>
<path d="M 1339.4 24.6 L 1294.1 19.7 L 1347.4 0.2 z" fill="#d3e6f2" stroke="f0f0f0"/>
<path d="M 1294.1 19.7 L 1339.4 24.6 L 1265.6 37.4 z" fill="#cfe4f2" stroke="f0f0f0"/>
<path d="M 1339.4 24.6 L 1346.0 128.3 L 1265.6 37.4 z" fill="#c5dfef" stroke="f0f0f0"/>
<path d="M 5.3 8.1 L 14.5 3.8 L 19.1 4.7 z" fill="#d5e7f3" stroke="f0f0f0"/>
<path d="M 3.7 22.9 L 5.3 8.1 L 19.1 4.7 z" fill="#d3e6f2" stroke="f0f0f0"/>
<path d="M 14.5 3.8 L 5.3 8.1 L 5.2 3.8 z" fill="#d5e8f3" stroke="f0f0f0"/>
<path d="M 5.2 3.8 L 5.3 8.1 L 0 0 z" fill="#d5e8f3" stroke="f0f0f0"/>
<path d="M 550.2 11.3 L 588.3 81.2 L 543.4 19.3 z" fill="#cbe2f0" stroke="f0f0f0"/>
<path d="M 543.4 19.3 L 588.3 81.2 L 503.0 115.4 z" fill="#c1dcee" stroke="f0f0f0"/>
<path d="M 588.3 81.2 L 550.2 11.3 L 625.1 17.1 z" fill="#cbe2f1" stroke="f0f0f0"/>
<path d="M 503.0 115.4 L 588.3 81.2 L 555.6 152.1 z" fill="#b3d5ea" stroke="f0f0f0"/>
<path d="M 1903.8 37.7 L 1847.3 38.6 L 1903.8 7.0 z" fill="#d0e5f2" stroke="f0f0f0"/>
<path d="M 1874.2 55.8 L 1847.3 38.6 L 1903.8 37.7 z" fill="#cce2f1" stroke="f0f0f0"/>
<path d="M 1847.3 38.6 L 1786.8 2.9 L 1903.8 7.0 z" fill="#d3e6f2" stroke="f0f0f0"/>
<path d="M 1786.8 2.9 L 1847.3 38.6 L 1787.0 35.0 z" fill="#d0e5f2" stroke="f0f0f0"/>
<path d="M 1787.0 35.0 L 1847.3 38.6 L 1782.2 97.8 z" fill="#c8e1f0" stroke="f0f0f0"/>
<path d="M 1847.3 38.6 L 1854.6 114.2 L 1782.2 97.8 z" fill="#c2ddee" stroke="f0f0f0"/>
<path d="M 1847.3 38.6 L 1874.2 55.8 L 1854.6 114.2 z" fill="#c5dfef" stroke="f0f0f0"/>
<path d="M 1671.7 181.8 L 1656.9 182.5 L 1676.4 173.5 z" fill="#a9cfe7" stroke="f0f0f0"/>
<path d="M 1640.1 67.4 L 1656.9 182.5 L 1593.1 171.4 z" fill="#b3d4ea" stroke="f0f0f0"/>
<path d="M 1676.4 173.5 L 1656.9 182.5 L 1640.1 67.4 z" fill="#b3d4ea" stroke="f0f0f0"/>
<path d="M 1818.6 163.5 L 1772.9 181.5 L 1782.2 97.8 z" fill="#b2d4e9" stroke="f0f0f0"/>
<path d="M 1772.9 181.5 L 1732.7 183.4 L 1782.2 97.8 z" fill="#b0d3e9" stroke="f0f0f0"/>
<path d="M 1855.8 228.6 L 1772.9 181.5 L 1818.6 163.5 z" fill="#a7cee7" stroke="f0f0f0"/>
<path d="M 1772.9 181.5 L 1759.1 256.8 L 1735.8 243.3 z" fill="#9ec9e4" stroke="f0f0f0"/>
<path d="M 1772.9 181.5 L 1842.1 257.3 L 1759.1 256.8 z" fill="#9dc8e4" stroke="f0f0f0"/>
<path d="M 1772.9 181.5 L 1855.8 228.6 L 1842.1 257.3 z" fill="#9fcae4" stroke="f0f0f0"/>
<path d="M 1720.9 209.3 L 1735.8 243.3 L 1666.9 255.9 z" fill="#9bc7e3" stroke="f0f0f0"/>
<path d="M 1671.7 181.8 L 1720.9 209.3 L 1666.9 255.9 z" fill="#a0cae5" stroke="f0f0f0"/>
<path d="M 1720.9 209.3 L 1772.9 181.5 L 1735.8 243.3 z" fill="#a1cbe5" stroke="f0f0f0"/>
<path d="M 1772.9 181.5 L 1720.9 209.3 L 1732.7 183.4 z" fill="#a6cee6" stroke="f0f0f0"/>
<path d="M 1701.9 122.2 L 1724.4 185.5 L 1676.4 173.5 z" fill="#aed2e8" stroke="f0f0f0"/>
<path d="M 1724.4 185.5 L 1701.9 122.2 L 1732.7 183.4 z" fill="#add1e8" stroke="f0f0f0"/>
<path d="M 1720.9 209.3 L 1724.4 185.5 L 1732.7 183.4 z" fill="#a6cde6" stroke="f0f0f0"/>
<path d="M 1724.4 185.5 L 1671.7 181.8 L 1676.4 173.5 z" fill="#a9cfe7" stroke="f0f0f0"/>
<path d="M 1724.4 185.5 L 1720.9 209.3 L 1671.7 181.8 z" fill="#a6cde6" stroke="f0f0f0"/>
<path d="M 1431.2 11.2 L 1400.8 45.2 L 1347.4 0.2 z" fill="#d1e6f2" stroke="f0f0f0"/>
<path d="M 1400.8 45.2 L 1339.4 24.6 L 1347.4 0.2 z" fill="#d0e5f2" stroke="f0f0f0"/>
<path d="M 1339.4 24.6 L 1400.8 45.2 L 1346.0 128.3 z" fill="#c5dfef" stroke="f0f0f0"/>
<path d="M 1346.0 128.3 L 1400.8 45.2 L 1395.7 163.5 z" fill="#b9d8eb" stroke="f0f0f0"/>
<path d="M 1492.3 17.8 L 1400.8 45.2 L 1431.2 11.2 z" fill="#d0e5f2" stroke="f0f0f0"/>
<path d="M 1395.7 163.5 L 1400.8 45.2 L 1538.7 123.9 z" fill="#b9d8ec" stroke="f0f0f0"/>
<path d="M 1400.8 45.2 L 1492.3 17.8 L 1538.7 123.9 z" fill="#c6dfef" stroke="f0f0f0"/>
<path d="M 5.3 8.1 L 0.1 14.0 L 0 0 z" fill="#d4e7f3" stroke="f0f0f0"/>
<path d="M 0.1 14.0 L 5.3 8.1 L 3.7 22.9 z" fill="#d2e6f2" stroke="f0f0f0"/>
<path d="M 0.1 14.0 L 3.7 22.9 L 2.5 34.9 z" fill="#cfe4f1" stroke="f0f0f0"/>
<path d="M 0.1 14.0 L 0.1 72.2 L 0 0 z" fill="#cde3f1" stroke="f0f0f0"/>
<path d="M 0.1 14.0 L 2.5 34.9 L 0.1 72.2 z" fill="#c9e1f0" stroke="f0f0f0"/>
<path d="M 619.9 83.0 L 594.7 83.8 L 625.1 17.1 z" fill="#c4deef" stroke="f0f0f0"/>
<path d="M 594.7 83.8 L 588.3 81.2 L 625.1 17.1 z" fill="#c4deef" stroke="f0f0f0"/>
<path d="M 594.7 83.8 L 619.9 83.0 L 607.4 151.9 z" fill="#b7d7eb" stroke="f0f0f0"/>
<path d="M 555.6 152.1 L 594.7 83.8 L 607.4 151.9 z" fill="#b0d3e9" stroke="f0f0f0"/>
<path d="M 588.3 81.2 L 594.7 83.8 L 555.6 152.1 z" fill="#b7d7eb" stroke="f0f0f0"/>
<path d="M 1657.3 187.5 L 1671.7 181.8 L 1666.9 255.9 z" fill="#a1cbe5" stroke="f0f0f0"/>
<path d="M 1657.3 187.5 L 1656.9 182.5 L 1671.7 181.8 z" fill="#a8cee7" stroke="f0f0f0"/>
<path d="M 1575.7 206.6 L 1657.3 187.5 L 1666.9 255.9 z" fill="#9fc9e4" stroke="f0f0f0"/>
<path d="M 1657.3 187.5 L 1575.7 206.6 L 1593.1 171.4 z" fill="#a6cde6" stroke="f0f0f0"/>
<path d="M 1656.9 182.5 L 1657.3 187.5 L 1593.1 171.4 z" fill="#a8cfe7" stroke="f0f0f0"/>
</g></svg>
