<?xml version="1.0" encoding="utf-8"?>
<svg xmlns="http://www.w3.org/2000/svg" width="1920" height="300"
     xmlns:xlink="http://www.w3.org/1999/xlink">
  <defs>
    <linearGradient id="bluegradient" x1="0" x2="0" y1="0" y2="1">
      <stop stop-color="#0E38FF" offset="0%"/>
      <stop stop-color="#729BFF" offset="10%"/>
      <stop stop-color="#f0f0ff" offset="100%"/>
    </linearGradient>
    <radialGradient id="circuitcolor">
<!--      <stop stop-color="#2040a0" offset="0%"/> -->
      <stop stop-color="#80d0ff" offset="20%"/>
      <stop stop-color="#40a0ff" offset="100%"/>
    </radialGradient>
    <radialGradient id="wires" cx="25%" cy="50%" r="100%" fx="100%" fy="100%">
      <stop stop-color="#404080" offset="0%"/>
      <stop stop-color="#6080a0" offset="40%"/>
      <stop stop-color="#80a0c0" offset="100%"/>
    </radialGradient>
    <radialGradient id="blues">
       <stop offset="0%" stop-color="rgba(128,192,192,0.8)"/>
       <stop offset="30%" stop-color="rgba(65,192,225,0.5)"/>
       <stop offset="100%" stop-color="rgba(192,192,225,0.8)"/>
    </radialGradient>
    <radialGradient id="blues2">
       <stop offset="0%" stop-color="rgba(64,64,225,0.5)"/>
       <stop offset="50%" stop-color="rgba(92,92,225,0.8)"/>
       <stop offset="100%" stop-color="rgba(128,128,225,0.8)"/>
    </radialGradient>
  </defs>
  <!-- created with "triangles.py -num=40 -min=40 -colors=gradient" -->
   
<path d="M 963 21 L 130 18 L 0 0 z" fill="rgb(182.16, 190.19, 217.01)" opacity="1.000" stroke="rgb(182.16, 190.19, 217.01)"/>
<path d="M 1162 275 L 1549 258 L 1920 300 z" fill="rgb(88.79, 106.66, 168.48)" opacity="1.000" stroke="rgb(88.79, 106.66, 168.48)"/>
<path d="M 19 79 L 0 300 L 0 0 z" fill="rgb(210.50, 215.55, 231.74)" opacity="1.000" stroke="rgb(210.50, 215.55, 231.74)"/>
<path d="M 395 250 L 353 179 L 425 122 z" fill="rgb(180.05, 188.30, 215.91)" opacity="1.000" stroke="rgb(180.05, 188.30, 215.91)"/>
<path d="M 963 21 L 302 54 L 130 18 z" fill="rgb(174.19, 183.06, 212.87)" opacity="1.000" stroke="rgb(174.19, 183.06, 212.87)"/>
<path d="M 353 179 L 302 54 L 425 122 z" fill="rgb(182.50, 190.50, 217.19)" opacity="1.000" stroke="rgb(182.50, 190.50, 217.19)"/>
<path d="M 1920 0 L 1378 10 L 0 0 z" fill="rgb(123.97, 138.13, 186.77)" opacity="1.000" stroke="rgb(123.97, 138.13, 186.77)"/>
<path d="M 1378 10 L 963 21 L 0 0 z" fill="rgb(149.22, 160.73, 199.89)" opacity="1.000" stroke="rgb(149.22, 160.73, 199.89)"/>
<path d="M 19 79 L 139 124 L 0 300 z" fill="rgb(206.83, 212.27, 229.83)" opacity="1.000" stroke="rgb(206.83, 212.27, 229.83)"/>
<path d="M 139 124 L 174 76 L 180 113 z" fill="rgb(197.99, 204.36, 225.24)" opacity="1.000" stroke="rgb(197.99, 204.36, 225.24)"/>
<path d="M 302 54 L 519 79 L 425 122 z" fill="rgb(178.12, 186.58, 214.91)" opacity="1.000" stroke="rgb(178.12, 186.58, 214.91)"/>
<path d="M 519 79 L 302 54 L 963 21 z" fill="rgb(163.92, 173.88, 207.53)" opacity="1.000" stroke="rgb(163.92, 173.88, 207.53)"/>
<path d="M 395 250 L 461 288 L 0 300 z" fill="rgb(188.41, 195.79, 220.26)" opacity="1.000" stroke="rgb(188.41, 195.79, 220.26)"/>
<path d="M 822 218 L 461 288 L 631 226 z" fill="rgb(160.49, 170.81, 205.75)" opacity="1.000" stroke="rgb(160.49, 170.81, 205.75)"/>
<path d="M 0 300 L 461 288 L 1920 300 z" fill="rgb(148.17, 159.78, 199.34)" opacity="1.000" stroke="rgb(148.17, 159.78, 199.34)"/>
<path d="M 461 288 L 1162 275 L 1920 300 z" fill="rgb(117.50, 132.35, 183.41)" opacity="1.000" stroke="rgb(117.50, 132.35, 183.41)"/>
<path d="M 268 66 L 174 76 L 130 18 z" fill="rgb(195.91, 202.49, 224.15)" opacity="1.000" stroke="rgb(195.91, 202.49, 224.15)"/>
<path d="M 302 54 L 268 66 L 130 18 z" fill="rgb(192.53, 199.47, 222.40)" opacity="1.000" stroke="rgb(192.53, 199.47, 222.40)"/>
<path d="M 268 66 L 302 54 L 353 179 z" fill="rgb(186.64, 194.21, 219.34)" opacity="1.000" stroke="rgb(186.64, 194.21, 219.34)"/>
<path d="M 1857 120 L 1920 0 L 1920 300 z" fill="rgb(60.66, 81.49, 153.86)" opacity="1.000" stroke="rgb(60.66, 81.49, 153.86)"/>
<path d="M 1549 258 L 1785 266 L 1920 300 z" fill="rgb(72.35, 91.95, 159.94)" opacity="1.000" stroke="rgb(72.35, 91.95, 159.94)"/>
<path d="M 1785 266 L 1857 120 L 1920 300 z" fill="rgb(64.22, 84.68, 155.72)" opacity="1.000" stroke="rgb(64.22, 84.68, 155.72)"/>
<path d="M 1857 120 L 1785 266 L 1767 164 z" fill="rgb(68.26, 88.29, 157.81)" opacity="1.000" stroke="rgb(68.26, 88.29, 157.81)"/>
<path d="M 1269 197 L 1549 258 L 1162 275 z" fill="rgb(105.97, 122.03, 177.41)" opacity="1.000" stroke="rgb(105.97, 122.03, 177.41)"/>
<path d="M 1630 54 L 1378 10 L 1920 0 z" fill="rgb(80.96, 99.64, 164.41)" opacity="1.000" stroke="rgb(80.96, 99.64, 164.41)"/>
<path d="M 1857 120 L 1630 54 L 1920 0 z" fill="rgb(68.32, 88.33, 157.84)" opacity="1.000" stroke="rgb(68.32, 88.33, 157.84)"/>
<path d="M 1630 54 L 1857 120 L 1767 164 z" fill="rgb(72.35, 91.95, 159.94)" opacity="1.000" stroke="rgb(72.35, 91.95, 159.94)"/>
<path d="M 174 76 L 105 29 L 130 18 z" fill="rgb(200.21, 206.34, 226.39)" opacity="1.000" stroke="rgb(200.21, 206.34, 226.39)"/>
<path d="M 139 124 L 105 29 L 174 76 z" fill="rgb(199.97, 206.13, 226.27)" opacity="1.000" stroke="rgb(199.97, 206.13, 226.27)"/>
<path d="M 105 29 L 139 124 L 19 79 z" fill="rgb(204.06, 209.79, 228.39)" opacity="1.000" stroke="rgb(204.06, 209.79, 228.39)"/>
<path d="M 130 18 L 105 29 L 0 0 z" fill="rgb(204.80, 210.45, 228.78)" opacity="1.000" stroke="rgb(204.80, 210.45, 228.78)"/>
<path d="M 105 29 L 19 79 L 0 0 z" fill="rgb(207.73, 213.07, 230.30)" opacity="1.000" stroke="rgb(207.73, 213.07, 230.30)"/>
<path d="M 519 79 L 666 170 L 631 226 z" fill="rgb(163.08, 173.12, 207.09)" opacity="1.000" stroke="rgb(163.08, 173.12, 207.09)"/>
<path d="M 461 288 L 997 239 L 1162 275 z" fill="rgb(141.86, 154.14, 196.07)" opacity="1.000" stroke="rgb(141.86, 154.14, 196.07)"/>
<path d="M 997 239 L 461 288 L 822 218 z" fill="rgb(150.83, 162.17, 200.73)" opacity="1.000" stroke="rgb(150.83, 162.17, 200.73)"/>
<path d="M 997 239 L 822 218 L 994 228 z" fill="rgb(136.77, 149.58, 193.42)" opacity="1.000" stroke="rgb(136.77, 149.58, 193.42)"/>
<path d="M 1066 221 L 997 239 L 994 228 z" fill="rgb(130.33, 143.82, 190.07)" opacity="1.000" stroke="rgb(130.33, 143.82, 190.07)"/>
<path d="M 997 239 L 1066 221 L 1162 275 z" fill="rgb(125.90, 139.85, 187.77)" opacity="1.000" stroke="rgb(125.90, 139.85, 187.77)"/>
<path d="M 456 273 L 395 250 L 425 122 z" fill="rgb(177.33, 185.87, 214.50)" opacity="1.000" stroke="rgb(177.33, 185.87, 214.50)"/>
<path d="M 456 273 L 461 288 L 395 250 z" fill="rgb(176.38, 185.02, 214.01)" opacity="1.000" stroke="rgb(176.38, 185.02, 214.01)"/>
<path d="M 519 79 L 456 273 L 425 122 z" fill="rgb(174.06, 182.94, 212.80)" opacity="1.000" stroke="rgb(174.06, 182.94, 212.80)"/>
<path d="M 456 273 L 519 79 L 631 226 z" fill="rgb(168.62, 178.08, 209.97)" opacity="1.000" stroke="rgb(168.62, 178.08, 209.97)"/>
<path d="M 461 288 L 456 273 L 631 226 z" fill="rgb(170.15, 179.45, 210.77)" opacity="1.000" stroke="rgb(170.15, 179.45, 210.77)"/>
<path d="M 174 76 L 223 116 L 180 113 z" fill="rgb(195.77, 202.38, 224.09)" opacity="1.000" stroke="rgb(195.77, 202.38, 224.09)"/>
<path d="M 268 66 L 223 116 L 174 76 z" fill="rgb(193.45, 200.30, 222.88)" opacity="1.000" stroke="rgb(193.45, 200.30, 222.88)"/>
<path d="M 223 116 L 268 66 L 353 179 z" fill="rgb(188.73, 196.07, 220.42)" opacity="1.000" stroke="rgb(188.73, 196.07, 220.42)"/>
<path d="M 223 116 L 139 124 L 180 113 z" fill="rgb(196.70, 203.20, 224.57)" opacity="1.000" stroke="rgb(196.70, 203.20, 224.57)"/>
<path d="M 223 116 L 353 179 L 395 250 z" fill="rgb(185.38, 193.07, 218.68)" opacity="1.000" stroke="rgb(185.38, 193.07, 218.68)"/>
<path d="M 223 116 L 395 250 L 0 300 z" fill="rgb(194.69, 201.41, 223.52)" opacity="1.000" stroke="rgb(194.69, 201.41, 223.52)"/>
<path d="M 139 124 L 223 116 L 0 300 z" fill="rgb(201.45, 207.45, 227.04)" opacity="1.000" stroke="rgb(201.45, 207.45, 227.04)"/>
<path d="M 1730 198 L 1785 266 L 1549 258 z" fill="rgb(77.37, 96.43, 162.55)" opacity="1.000" stroke="rgb(77.37, 96.43, 162.55)"/>
<path d="M 1785 266 L 1730 198 L 1767 164 z" fill="rgb(71.61, 91.29, 159.56)" opacity="1.000" stroke="rgb(71.61, 91.29, 159.56)"/>
<path d="M 1630 54 L 1730 198 L 1549 258 z" fill="rgb(81.46, 100.09, 164.67)" opacity="1.000" stroke="rgb(81.46, 100.09, 164.67)"/>
<path d="M 1730 198 L 1630 54 L 1767 164 z" fill="rgb(75.70, 94.95, 161.68)" opacity="1.000" stroke="rgb(75.70, 94.95, 161.68)"/>
<path d="M 1269 197 L 1379 117 L 1549 258 z" fill="rgb(100.25, 116.90, 174.44)" opacity="1.000" stroke="rgb(100.25, 116.90, 174.44)"/>
<path d="M 1066 221 L 1154 191 L 1162 275 z" fill="rgb(121.75, 136.15, 185.61)" opacity="1.000" stroke="rgb(121.75, 136.15, 185.61)"/>
<path d="M 778 181 L 822 218 L 631 226 z" fill="rgb(152.13, 163.32, 201.40)" opacity="1.000" stroke="rgb(152.13, 163.32, 201.40)"/>
<path d="M 666 170 L 778 181 L 631 226 z" fill="rgb(156.24, 167.01, 203.54)" opacity="1.000" stroke="rgb(156.24, 167.01, 203.54)"/>
<path d="M 1379 117 L 1364 112 L 1378 10 z" fill="rgb(102.25, 118.70, 175.48)" opacity="1.000" stroke="rgb(102.25, 118.70, 175.48)"/>
<path d="M 1364 112 L 1379 117 L 1269 197 z" fill="rgb(105.13, 121.27, 176.97)" opacity="1.000" stroke="rgb(105.13, 121.27, 176.97)"/>
<path d="M 1630 54 L 1482 134 L 1378 10 z" fill="rgb(92.51, 109.99, 170.42)" opacity="1.000" stroke="rgb(92.51, 109.99, 170.42)"/>
<path d="M 1482 134 L 1379 117 L 1378 10 z" fill="rgb(99.14, 115.91, 173.86)" opacity="1.000" stroke="rgb(99.14, 115.91, 173.86)"/>
<path d="M 1482 134 L 1630 54 L 1549 258 z" fill="rgb(88.00, 105.95, 168.07)" opacity="1.000" stroke="rgb(88.00, 105.95, 168.07)"/>
<path d="M 1379 117 L 1482 134 L 1549 258 z" fill="rgb(94.62, 111.88, 171.52)" opacity="1.000" stroke="rgb(94.62, 111.88, 171.52)"/>
<path d="M 1206 202 L 1269 197 L 1162 275 z" fill="rgb(115.02, 130.13, 182.12)" opacity="1.000" stroke="rgb(115.02, 130.13, 182.12)"/>
<path d="M 1154 191 L 1206 202 L 1162 275 z" fill="rgb(118.06, 132.84, 183.69)" opacity="1.000" stroke="rgb(118.06, 132.84, 183.69)"/>
<path d="M 1031 60 L 1154 191 L 1066 221 z" fill="rgb(125.21, 139.24, 187.41)" opacity="1.000" stroke="rgb(125.21, 139.24, 187.41)"/>
<path d="M 963 21 L 1031 60 L 994 228 z" fill="rgb(132.15, 145.45, 191.02)" opacity="1.000" stroke="rgb(132.15, 145.45, 191.02)"/>
<path d="M 1031 60 L 1066 221 L 994 228 z" fill="rgb(129.43, 143.02, 189.61)" opacity="1.000" stroke="rgb(129.43, 143.02, 189.61)"/>
<path d="M 859 57 L 778 181 L 666 170 z" fill="rgb(150.23, 161.62, 200.41)" opacity="1.000" stroke="rgb(150.23, 161.62, 200.41)"/>
<path d="M 859 57 L 519 79 L 963 21 z" fill="rgb(149.22, 160.73, 199.89)" opacity="1.000" stroke="rgb(149.22, 160.73, 199.89)"/>
<path d="M 859 57 L 666 170 L 519 79 z" fill="rgb(157.06, 167.74, 203.97)" opacity="1.000" stroke="rgb(157.06, 167.74, 203.97)"/>
<path d="M 778 181 L 859 57 L 822 218 z" fill="rgb(146.11, 157.94, 198.27)" opacity="1.000" stroke="rgb(146.11, 157.94, 198.27)"/>
<path d="M 859 57 L 963 21 L 994 228 z" fill="rgb(136.69, 149.51, 193.38)" opacity="1.000" stroke="rgb(136.69, 149.51, 193.38)"/>
<path d="M 822 218 L 859 57 L 994 228 z" fill="rgb(140.41, 152.84, 195.31)" opacity="1.000" stroke="rgb(140.41, 152.84, 195.31)"/>
<path d="M 1288 31 L 1364 112 L 1269 197 z" fill="rgb(107.53, 123.42, 178.22)" opacity="1.000" stroke="rgb(107.53, 123.42, 178.22)"/>
<path d="M 1206 202 L 1288 31 L 1269 197 z" fill="rgb(111.70, 127.15, 180.39)" opacity="1.000" stroke="rgb(111.70, 127.15, 180.39)"/>
<path d="M 1364 112 L 1288 31 L 1378 10 z" fill="rgb(104.65, 120.85, 176.73)" opacity="1.000" stroke="rgb(104.65, 120.85, 176.73)"/>
<path d="M 1288 31 L 1206 202 L 1154 191 z" fill="rgb(114.73, 129.87, 181.97)" opacity="1.000" stroke="rgb(114.73, 129.87, 181.97)"/>
<path d="M 1031 60 L 1288 31 L 1154 191 z" fill="rgb(119.35, 134.00, 184.37)" opacity="1.000" stroke="rgb(119.35, 134.00, 184.37)"/>
<path d="M 1378 10 L 1288 31 L 963 21 z" fill="rgb(115.23, 130.32, 182.23)" opacity="1.000" stroke="rgb(115.23, 130.32, 182.23)"/>
<path d="M 1288 31 L 1031 60 L 963 21 z" fill="rgb(124.39, 138.51, 186.99)" opacity="1.000" stroke="rgb(124.39, 138.51, 186.99)"/>
</svg>
