<?xml version="1.0" encoding="utf-8"?>
<svg xmlns="http://www.w3.org/2000/svg" width="1920" height="300"
     xmlns:xlink="http://www.w3.org/1999/xlink">
  <!-- created with "banners.py -stroke=#A8B1D1 -distribution cosine -min 20 -num 20 -colors BDC4DD,D3D8E8,6677B0,A8B1D1" -->
   
<g>
<path d="M 446.105467927 269.234777749 L 136.586803327 157.17413639 L 276.937697794 119.748658823 z" fill="#c1c8de" stroke="#d0d5e6" opacity="1.000"/>
<path d="M 1672.61695386 298.982504585 L 446.105467927 269.234777749 L 1047.05605644 126.354018962 z" fill="#b0b9d6" stroke="#c4cae0" opacity="1.000"/>
<path d="M 0 300 L 1672.61695386 298.982504585 L 1920 300 z" fill="#b8bfd9" stroke="#c9cfe2" opacity="1.000"/>
<path d="M 446.105467927 269.234777749 L 1672.61695386 298.982504585 L 0 300 z" fill="#c1c8de" stroke="#d1d6e6" opacity="1.000"/>
<path d="M 1920 0 L 1063.27520585 0.506450225041 L 0 0 z" fill="#8f9cc5" stroke="#abb4d4" opacity="1.000"/>
<path d="M 4.39531134471 171.085729836 L 0 300 L 0 0 z" fill="#c8cee2" stroke="#d6dae9" opacity="1.000"/>
<path d="M 136.586803327 157.17413639 L 49.5125558289 7.11211738907 L 276.937697794 119.748658823 z" fill="#bec5dd" stroke="#ced3e5" opacity="1.000"/>
<path d="M 57.758473943 280.514756739 L 136.586803327 157.17413639 L 446.105467927 269.234777749 z" fill="#c8cee2" stroke="#d6dae9" opacity="1.000"/>
<path d="M 57.758473943 280.514756739 L 4.39531134471 171.085729836 L 136.586803327 157.17413639 z" fill="#c9cfe3" stroke="#d7dbea" opacity="1.000"/>
<path d="M 1672.61695386 298.982504585 L 1804.20278945 275.009645696 L 1920 300 z" fill="#a8b1d1" stroke="#bec5dc" opacity="1.000"/>
<path d="M 1501.79513421 42.8092607591 L 1063.27520585 0.506450225041 L 1920 0 z" fill="#7b8abb" stroke="#9ca7cc" opacity="1.000"/>
<path d="M 1063.27520585 0.506450225041 L 561.110753548 2.28654073036 L 0 0 z" fill="#a4aed0" stroke="#bbc2dc" opacity="1.000"/>
<path d="M 561.110753548 2.28654073036 L 49.5125558289 7.11211738907 L 0 0 z" fill="#b4bcd8" stroke="#c6cce2" opacity="1.000"/>
<path d="M 446.105467927 269.234777749 L 561.110753548 2.28654073036 L 1047.05605644 126.354018962 z" fill="#aeb7d5" stroke="#c2c9df" opacity="1.000"/>
<path d="M 561.110753548 2.28654073036 L 1063.27520585 0.506450225041 L 1047.05605644 126.354018962 z" fill="#9aa5cb" stroke="#b3bcd8" opacity="1.000"/>
<path d="M 4.39531134471 171.085729836 L 5.57148598649 66.0276425156 L 136.586803327 157.17413639 z" fill="#c4cbe0" stroke="#d3d8e8" opacity="1.000"/>
<path d="M 5.57148598649 66.0276425156 L 49.5125558289 7.11211738907 L 136.586803327 157.17413639 z" fill="#c0c6de" stroke="#cfd4e6" opacity="1.000"/>
<path d="M 5.57148598649 66.0276425156 L 4.39531134471 171.085729836 L 0 0 z" fill="#c2c9df" stroke="#d1d6e7" opacity="1.000"/>
<path d="M 49.5125558289 7.11211738907 L 5.57148598649 66.0276425156 L 0 0 z" fill="#bdc4dd" stroke="#ced3e5" opacity="1.000"/>
<path d="M 10.8847845798 297.908740537 L 446.105467927 269.234777749 L 0 300 z" fill="#ced4e5" stroke="#dadeec" opacity="1.000"/>
<path d="M 10.8847845798 297.908740537 L 57.758473943 280.514756739 L 446.105467927 269.234777749 z" fill="#cdd3e5" stroke="#d9deeb" opacity="1.000"/>
<path d="M 4.39531134471 171.085729836 L 10.8847845798 297.908740537 L 0 300 z" fill="#cfd4e6" stroke="#dbdfec" opacity="1.000"/>
<path d="M 57.758473943 280.514756739 L 10.8847845798 297.908740537 L 4.39531134471 171.085729836 z" fill="#ced4e5" stroke="#dadeec" opacity="1.000"/>
<path d="M 1915.47199806 296.838324876 L 1920 0 L 1920 300 z" fill="#919dc5" stroke="#adb5d4" opacity="1.000"/>
<path d="M 1804.20278945 275.009645696 L 1915.47199806 296.838324876 L 1920 300 z" fill="#a6b0d0" stroke="#bcc3dc" opacity="1.000"/>
<path d="M 1915.47199806 296.838324876 L 1804.20278945 275.009645696 L 1920 0 z" fill="#919cc5" stroke="#acb5d3" opacity="1.000"/>
<path d="M 1804.20278945 275.009645696 L 1712.27062972 211.052581355 L 1920 0 z" fill="#8d99c3" stroke="#a9b2d2" opacity="1.000"/>
<path d="M 1712.27062972 211.052581355 L 1501.79513421 42.8092607591 L 1920 0 z" fill="#808ebd" stroke="#a0aacd" opacity="1.000"/>
<path d="M 1712.27062972 211.052581355 L 1804.20278945 275.009645696 L 1672.61695386 298.982504585 z" fill="#a4adcf" stroke="#bbc2db" opacity="1.000"/>
<path d="M 1501.79513421 42.8092607591 L 1181.61605998 52.3636128276 L 1063.27520585 0.506450225041 z" fill="#8996c2" stroke="#a7b0d1" opacity="1.000"/>
<path d="M 49.5125558289 7.11211738907 L 503.990558717 15.5238432592 L 276.937697794 119.748658823 z" fill="#b4bcd8" stroke="#c7cde2" opacity="1.000"/>
<path d="M 561.110753548 2.28654073036 L 503.990558717 15.5238432592 L 49.5125558289 7.11211738907 z" fill="#adb5d4" stroke="#c1c8df" opacity="1.000"/>
<path d="M 503.990558717 15.5238432592 L 446.105467927 269.234777749 L 276.937697794 119.748658823 z" fill="#b8c0da" stroke="#cacfe3" opacity="1.000"/>
<path d="M 503.990558717 15.5238432592 L 561.110753548 2.28654073036 L 446.105467927 269.234777749 z" fill="#b0b9d6" stroke="#c4cae0" opacity="1.000"/>
<path d="M 1620.30745868 214.151461865 L 1712.27062972 211.052581355 L 1672.61695386 298.982504585 z" fill="#a1abce" stroke="#b9c0da" opacity="1.000"/>
<path d="M 1712.27062972 211.052581355 L 1620.30745868 214.151461865 L 1501.79513421 42.8092607591 z" fill="#929ec6" stroke="#adb6d4" opacity="1.000"/>
<path d="M 1620.30745868 214.151461865 L 1181.61605998 52.3636128276 L 1501.79513421 42.8092607591 z" fill="#8e9bc4" stroke="#aab4d3" opacity="1.000"/>
<path d="M 1620.30745868 214.151461865 L 1672.61695386 298.982504585 L 1047.05605644 126.354018962 z" fill="#a2acce" stroke="#b9c1da" opacity="1.000"/>
<path d="M 1181.61605998 52.3636128276 L 1620.30745868 214.151461865 L 1047.05605644 126.354018962 z" fill="#99a4ca" stroke="#b2bbd7" opacity="1.000"/>
<path d="M 1063.27520585 0.506450225041 L 1123.43218276 38.4246362591 L 1047.05605644 126.354018962 z" fill="#94a0c8" stroke="#afb8d5" opacity="1.000"/>
<path d="M 1123.43218276 38.4246362591 L 1181.61605998 52.3636128276 L 1047.05605644 126.354018962 z" fill="#95a1c8" stroke="#b0b8d6" opacity="1.000"/>
<path d="M 1181.61605998 52.3636128276 L 1123.43218276 38.4246362591 L 1063.27520585 0.506450225041 z" fill="#8e9bc5" stroke="#aab4d3" opacity="1.000"/>
</g></svg>
