<?xml version="1.0" encoding="utf-8"?>
<svg xmlns="http://www.w3.org/2000/svg" width="1920" height="300"
     xmlns:xlink="http://www.w3.org/1999/xlink">
  <!-- created with "banners.py -stroke=#A8B1D1 -distribution cosine -min 10 -num 50 -colors BDC4DD,D3D8E8,6677B0,A8B1D1" -->
   
<g>
<path d="M 160.827930232 298.716867741 L 285.512699713 298.234431848 L 0 300 z" fill="#cfd4e6" stroke="#dbdfec" opacity="1.000"/>
<path d="M 285.512699713 298.234431848 L 798.835554597 203.432073402 L 1242.03364311 226.988199831 z" fill="#bac1da" stroke="#cbd0e3" opacity="1.000"/>
<path d="M 1599.22581432 299.273449012 L 285.512699713 298.234431848 L 1242.03364311 226.988199831 z" fill="#b7bfd9" stroke="#c9cfe2" opacity="1.000"/>
<path d="M 0 300 L 1599.22581432 299.273449012 L 1920 300 z" fill="#b8c0d9" stroke="#cacfe3" opacity="1.000"/>
<path d="M 285.512699713 298.234431848 L 1599.22581432 299.273449012 L 0 300 z" fill="#c4cbe0" stroke="#d3d8e8" opacity="1.000"/>
<path d="M 0.407665679966 217.684255083 L 160.827930232 298.716867741 L 0 300 z" fill="#cfd4e6" stroke="#dbdfec" opacity="1.000"/>
<path d="M 0.407665679966 217.684255083 L 11.4497161497 56.1669332203 L 21.3541526649 130.049317654 z" fill="#c6cce1" stroke="#d4d9e9" opacity="1.000"/>
<path d="M 0.407665679966 217.684255083 L 0 300 L 0 0 z" fill="#c9cfe3" stroke="#d6dbea" opacity="1.000"/>
<path d="M 11.4497161497 56.1669332203 L 0.407665679966 217.684255083 L 0 0 z" fill="#c3c9e0" stroke="#d2d7e7" opacity="1.000"/>
<path d="M 146.34072665 170.351032108 L 259.183980889 27.0299934999 L 304.893118207 150.563245506 z" fill="#bcc4dc" stroke="#cdd2e5" opacity="1.000"/>
<path d="M 234.922296329 17.9228818618 L 259.183980889 27.0299934999 L 146.34072665 170.351032108 z" fill="#b9c1db" stroke="#cbd0e4" opacity="1.000"/>
<path d="M 160.827930232 298.716867741 L 235.899355059 241.07755579 L 285.512699713 298.234431848 z" fill="#ccd1e4" stroke="#d8ddeb" opacity="1.000"/>
<path d="M 285.512699713 298.234431848 L 235.899355059 241.07755579 L 304.893118207 150.563245506 z" fill="#c6cce1" stroke="#d4d9e8" opacity="1.000"/>
<path d="M 559.12166042 160.848070302 L 798.835554597 203.432073402 L 285.512699713 298.234431848 z" fill="#bdc4dc" stroke="#cdd3e5" opacity="1.000"/>
<path d="M 706.970823435 10.7948937777 L 559.12166042 160.848070302 L 592.605219031 20.0717057526 z" fill="#a8b2d2" stroke="#bec5dd" opacity="1.000"/>
<path d="M 1855.48797594 74.1635230478 L 1787.51205277 236.949027697 L 1617.17040946 76.3622231613 z" fill="#8895c1" stroke="#a5afd0" opacity="1.000"/>
<path d="M 1787.51205277 236.949027697 L 1855.48797594 74.1635230478 L 1878.66713192 128.08506907 z" fill="#8895c1" stroke="#a6b0d0" opacity="1.000"/>
<path d="M 1900.27421135 164.155204116 L 1787.51205277 236.949027697 L 1878.66713192 128.08506907 z" fill="#8e9ac4" stroke="#aab3d3" opacity="1.000"/>
<path d="M 1400.38366077 43.3897192487 L 1073.65447174 56.1026953663 L 931.433664371 36.189293176 z" fill="#909cc6" stroke="#acb5d4" opacity="1.000"/>
<path d="M 1400.38366077 43.3897192487 L 1635.81170744 1.75491198631 L 1617.17040946 76.3622231613 z" fill="#7e8cbc" stroke="#9ea9cd" opacity="1.000"/>
<path d="M 1635.81170744 1.75491198631 L 1855.48797594 74.1635230478 L 1617.17040946 76.3622231613 z" fill="#7a88ba" stroke="#9ba6cb" opacity="1.000"/>
<path d="M 1920 0 L 1635.81170744 1.75491198631 L 0 0 z" fill="#8794c1" stroke="#a5afd0" opacity="1.000"/>
<path d="M 1635.81170744 1.75491198631 L 706.970823435 10.7948937777 L 0 0 z" fill="#9aa5ca" stroke="#b3bbd7" opacity="1.000"/>
<path d="M 1635.81170744 1.75491198631 L 1400.38366077 43.3897192487 L 931.433664371 36.189293176 z" fill="#8593c0" stroke="#a4aed0" opacity="1.000"/>
<path d="M 706.970823435 10.7948937777 L 1635.81170744 1.75491198631 L 931.433664371 36.189293176 z" fill="#8e9ac4" stroke="#aab3d3" opacity="1.000"/>
<path d="M 1410.78623217 99.3355458626 L 1599.22581432 299.273449012 L 1242.03364311 226.988199831 z" fill="#a2acce" stroke="#b9c1da" opacity="1.000"/>
<path d="M 1599.22581432 299.273449012 L 1410.78623217 99.3355458626 L 1617.17040946 76.3622231613 z" fill="#95a0c7" stroke="#afb8d5" opacity="1.000"/>
<path d="M 1410.78623217 99.3355458626 L 1400.38366077 43.3897192487 L 1617.17040946 76.3622231613 z" fill="#8794c1" stroke="#a5afd0" opacity="1.000"/>
<path d="M 69.69735846 88.5941648614 L 234.922296329 17.9228818618 L 146.34072665 170.351032108 z" fill="#bec5dd" stroke="#ced3e5" opacity="1.000"/>
<path d="M 11.4497161497 56.1669332203 L 69.69735846 88.5941648614 L 21.3541526649 130.049317654 z" fill="#c2c8df" stroke="#d1d6e7" opacity="1.000"/>
<path d="M 48.070396068 154.191290994 L 0.407665679966 217.684255083 L 21.3541526649 130.049317654 z" fill="#c8cee2" stroke="#d6dae9" opacity="1.000"/>
<path d="M 48.070396068 154.191290994 L 69.69735846 88.5941648614 L 146.34072665 170.351032108 z" fill="#c4cae0" stroke="#d2d7e8" opacity="1.000"/>
<path d="M 69.69735846 88.5941648614 L 48.070396068 154.191290994 L 21.3541526649 130.049317654 z" fill="#c4cae0" stroke="#d3d7e8" opacity="1.000"/>
<path d="M 259.183980889 27.0299934999 L 248.162697355 13.8677393017 L 592.605219031 20.0717057526 z" fill="#aeb7d5" stroke="#c2c9df" opacity="1.000"/>
<path d="M 248.162697355 13.8677393017 L 259.183980889 27.0299934999 L 234.922296329 17.9228818618 z" fill="#b3bbd8" stroke="#c6cce1" opacity="1.000"/>
<path d="M 248.162697355 13.8677393017 L 706.970823435 10.7948937777 L 592.605219031 20.0717057526 z" fill="#a7b0d1" stroke="#bdc4dd" opacity="1.000"/>
<path d="M 248.162697355 13.8677393017 L 234.922296329 17.9228818618 L 0 0 z" fill="#b6bed9" stroke="#c8cee3" opacity="1.000"/>
<path d="M 706.970823435 10.7948937777 L 248.162697355 13.8677393017 L 0 0 z" fill="#afb7d5" stroke="#c3c9e0" opacity="1.000"/>
<path d="M 167.723260767 213.507053444 L 235.899355059 241.07755579 L 160.827930232 298.716867741 z" fill="#cad0e3" stroke="#d7dbea" opacity="1.000"/>
<path d="M 0.407665679966 217.684255083 L 167.723260767 213.507053444 L 160.827930232 298.716867741 z" fill="#cbd1e4" stroke="#d8dceb" opacity="1.000"/>
<path d="M 167.723260767 213.507053444 L 146.34072665 170.351032108 L 304.893118207 150.563245506 z" fill="#c3cae0" stroke="#d2d7e7" opacity="1.000"/>
<path d="M 235.899355059 241.07755579 L 167.723260767 213.507053444 L 304.893118207 150.563245506 z" fill="#c4cbe0" stroke="#d3d8e8" opacity="1.000"/>
<path d="M 167.723260767 213.507053444 L 48.070396068 154.191290994 L 146.34072665 170.351032108 z" fill="#c6cce1" stroke="#d4d9e8" opacity="1.000"/>
<path d="M 48.070396068 154.191290994 L 167.723260767 213.507053444 L 0.407665679966 217.684255083 z" fill="#c9cfe3" stroke="#d6dbea" opacity="1.000"/>
<path d="M 458.792898064 161.482806671 L 285.512699713 298.234431848 L 304.893118207 150.563245506 z" fill="#c1c8de" stroke="#d0d5e6" opacity="1.000"/>
<path d="M 458.792898064 161.482806671 L 559.12166042 160.848070302 L 285.512699713 298.234431848 z" fill="#bfc6dd" stroke="#cfd4e6" opacity="1.000"/>
<path d="M 559.12166042 160.848070302 L 458.792898064 161.482806671 L 592.605219031 20.0717057526 z" fill="#b1bad6" stroke="#c5cbe0" opacity="1.000"/>
<path d="M 259.183980889 27.0299934999 L 458.792898064 161.482806671 L 304.893118207 150.563245506 z" fill="#b8c0da" stroke="#cad0e3" opacity="1.000"/>
<path d="M 458.792898064 161.482806671 L 259.183980889 27.0299934999 L 592.605219031 20.0717057526 z" fill="#b0b9d6" stroke="#c4cae0" opacity="1.000"/>
<path d="M 559.12166042 160.848070302 L 804.331780701 141.569673737 L 798.835554597 203.432073402 z" fill="#b1bad6" stroke="#c5cbe0" opacity="1.000"/>
<path d="M 804.331780701 141.569673737 L 559.12166042 160.848070302 L 706.970823435 10.7948937777 z" fill="#aab4d3" stroke="#bfc6de" opacity="1.000"/>
<path d="M 798.835554597 203.432073402 L 804.331780701 141.569673737 L 931.433664371 36.189293176 z" fill="#a8b1d1" stroke="#bdc5dd" opacity="1.000"/>
<path d="M 804.331780701 141.569673737 L 706.970823435 10.7948937777 L 931.433664371 36.189293176 z" fill="#a0aace" stroke="#b8bfda" opacity="1.000"/>
<path d="M 1855.48797594 74.1635230478 L 1906.78166765 45.6786021776 L 1878.66713192 128.08506907 z" fill="#7988b9" stroke="#9ba6cb" opacity="1.000"/>
<path d="M 1906.78166765 45.6786021776 L 1900.27421135 164.155204116 L 1878.66713192 128.08506907 z" fill="#7f8dbc" stroke="#9fa9cd" opacity="1.000"/>
<path d="M 1681.21835002 294.036125769 L 1599.22581432 299.273449012 L 1617.17040946 76.3622231613 z" fill="#9fa9cc" stroke="#b7bed9" opacity="1.000"/>
<path d="M 1599.22581432 299.273449012 L 1681.21835002 294.036125769 L 1920 300 z" fill="#abb4d3" stroke="#c0c7de" opacity="1.000"/>
<path d="M 1909.35372685 263.480990623 L 1900.27421135 164.155204116 L 1920 300 z" fill="#9ba6ca" stroke="#b4bcd7" opacity="1.000"/>
<path d="M 1909.35372685 263.480990623 L 1787.51205277 236.949027697 L 1900.27421135 164.155204116 z" fill="#98a3c9" stroke="#b1bad6" opacity="1.000"/>
<path d="M 1282.07101676 144.648611429 L 1073.65447174 56.1026953663 L 1400.38366077 43.3897192487 z" fill="#929dc6" stroke="#adb6d4" opacity="1.000"/>
<path d="M 1282.07101676 144.648611429 L 1410.78623217 99.3355458626 L 1242.03364311 226.988199831 z" fill="#9ca7cb" stroke="#b5bdd8" opacity="1.000"/>
<path d="M 1410.78623217 99.3355458626 L 1282.07101676 144.648611429 L 1400.38366077 43.3897192487 z" fill="#909cc5" stroke="#abb4d3" opacity="1.000"/>
<path d="M 798.835554597 203.432073402 L 1067.07569656 75.1076167082 L 1242.03364311 226.988199831 z" fill="#a7b1d1" stroke="#bdc4dc" opacity="1.000"/>
<path d="M 1067.07569656 75.1076167082 L 1282.07101676 144.648611429 L 1242.03364311 226.988199831 z" fill="#9fa9cd" stroke="#b7bfd9" opacity="1.000"/>
<path d="M 1282.07101676 144.648611429 L 1067.07569656 75.1076167082 L 1073.65447174 56.1026953663 z" fill="#98a3c9" stroke="#b1bad6" opacity="1.000"/>
<path d="M 1067.07569656 75.1076167082 L 798.835554597 203.432073402 L 931.433664371 36.189293176 z" fill="#a1acce" stroke="#b9c0da" opacity="1.000"/>
<path d="M 1073.65447174 56.1026953663 L 1067.07569656 75.1076167082 L 931.433664371 36.189293176 z" fill="#97a2c9" stroke="#b1b9d6" opacity="1.000"/>
<path d="M 1896.69425895 29.5266074141 L 1635.81170744 1.75491198631 L 1920 0 z" fill="#6c7db3" stroke="#919dc6" opacity="1.000"/>
<path d="M 1635.81170744 1.75491198631 L 1896.69425895 29.5266074141 L 1855.48797594 74.1635230478 z" fill="#7382b6" stroke="#96a1c8" opacity="1.000"/>
<path d="M 234.922296329 17.9228818618 L 24.5059429877 36.1466878136 L 0 0 z" fill="#bac1db" stroke="#cbd1e4" opacity="1.000"/>
<path d="M 69.69735846 88.5941648614 L 24.5059429877 36.1466878136 L 234.922296329 17.9228818618 z" fill="#bbc3dc" stroke="#ccd2e5" opacity="1.000"/>
<path d="M 24.5059429877 36.1466878136 L 11.4497161497 56.1669332203 L 0 0 z" fill="#bec5dd" stroke="#ced3e6" opacity="1.000"/>
<path d="M 24.5059429877 36.1466878136 L 69.69735846 88.5941648614 L 11.4497161497 56.1669332203 z" fill="#bfc6de" stroke="#cfd4e6" opacity="1.000"/>
<path d="M 1906.78166765 45.6786021776 L 1917.47067449 25.8172609555 L 1900.27421135 164.155204116 z" fill="#7786b8" stroke="#99a4ca" opacity="1.000"/>
<path d="M 1917.47067449 25.8172609555 L 1920 0 L 1920 300 z" fill="#7d8cbb" stroke="#9ea8cc" opacity="1.000"/>
<path d="M 1900.27421135 164.155204116 L 1917.47067449 25.8172609555 L 1920 300 z" fill="#8a96c2" stroke="#a7b0d1" opacity="1.000"/>
<path d="M 1917.47067449 25.8172609555 L 1896.69425895 29.5266074141 L 1920 0 z" fill="#6a7ab2" stroke="#8f9bc5" opacity="1.000"/>
<path d="M 1787.51205277 236.949027697 L 1783.28859233 242.987093155 L 1617.17040946 76.3622231613 z" fill="#94a0c7" stroke="#afb7d5" opacity="1.000"/>
<path d="M 1783.28859233 242.987093155 L 1681.21835002 294.036125769 L 1617.17040946 76.3622231613 z" fill="#99a4ca" stroke="#b3bbd7" opacity="1.000"/>
<path d="M 1891.34064574 42.2338125184 L 1906.78166765 45.6786021776 L 1855.48797594 74.1635230478 z" fill="#7382b6" stroke="#96a1c8" opacity="1.000"/>
<path d="M 1896.69425895 29.5266074141 L 1891.34064574 42.2338125184 L 1855.48797594 74.1635230478 z" fill="#7281b6" stroke="#95a1c8" opacity="1.000"/>
<path d="M 1891.34064574 42.2338125184 L 1896.69425895 29.5266074141 L 1906.78166765 45.6786021776 z" fill="#6f7fb4" stroke="#939fc7" opacity="1.000"/>
<path d="M 1896.69425895 29.5266074141 L 1915.63350258 27.4587327505 L 1906.78166765 45.6786021776 z" fill="#6e7eb4" stroke="#929ec6" opacity="1.000"/>
<path d="M 1915.63350258 27.4587327505 L 1917.47067449 25.8172609555 L 1906.78166765 45.6786021776 z" fill="#6d7db3" stroke="#919dc6" opacity="1.000"/>
<path d="M 1917.47067449 25.8172609555 L 1915.63350258 27.4587327505 L 1896.69425895 29.5266074141 z" fill="#6c7cb3" stroke="#919dc6" opacity="1.000"/>
<path d="M 1781.97394011 272.297379969 L 1801.97734722 287.001284691 L 1681.21835002 294.036125769 z" fill="#a8b1d1" stroke="#bec4dc" opacity="1.000"/>
<path d="M 1909.35372685 263.480990623 L 1857.98303575 291.641235171 L 1787.51205277 236.949027697 z" fill="#a1abcd" stroke="#b9c0da" opacity="1.000"/>
<path d="M 1857.98303575 291.641235171 L 1801.97734722 287.001284691 L 1787.51205277 236.949027697 z" fill="#a4adcf" stroke="#bbc2db" opacity="1.000"/>
<path d="M 1904.7420233 297.211365084 L 1857.98303575 291.641235171 L 1909.35372685 263.480990623 z" fill="#a5aecf" stroke="#bbc2db" opacity="1.000"/>
<path d="M 1801.97734722 287.001284691 L 1857.98303575 291.641235171 L 1681.21835002 294.036125769 z" fill="#a9b2d1" stroke="#bec5dd" opacity="1.000"/>
<path d="M 1681.21835002 294.036125769 L 1857.98303575 291.641235171 L 1920 300 z" fill="#a9b2d1" stroke="#bec5dd" opacity="1.000"/>
<path d="M 1857.98303575 291.641235171 L 1904.7420233 297.211365084 L 1920 300 z" fill="#a7b0d0" stroke="#bdc4dc" opacity="1.000"/>
<path d="M 1781.97394011 272.297379969 L 1780.91157877 249.475541073 L 1801.97734722 287.001284691 z" fill="#a4aecf" stroke="#bbc2db" opacity="1.000"/>
<path d="M 1780.91157877 249.475541073 L 1783.28859233 242.987093155 L 1787.51205277 236.949027697 z" fill="#9fa9cc" stroke="#b7bed9" opacity="1.000"/>
<path d="M 1801.97734722 287.001284691 L 1780.91157877 249.475541073 L 1787.51205277 236.949027697 z" fill="#a2abce" stroke="#b9c0da" opacity="1.000"/>
<path d="M 1783.28859233 242.987093155 L 1780.91157877 249.475541073 L 1681.21835002 294.036125769 z" fill="#a4adcf" stroke="#bac1db" opacity="1.000"/>
<path d="M 1907.18055711 296.850583342 L 1909.35372685 263.480990623 L 1920 300 z" fill="#a5aecf" stroke="#bbc2db" opacity="1.000"/>
<path d="M 1904.7420233 297.211365084 L 1907.18055711 296.850583342 L 1920 300 z" fill="#a7b0d0" stroke="#bdc4dc" opacity="1.000"/>
<path d="M 1907.18055711 296.850583342 L 1904.7420233 297.211365084 L 1909.35372685 263.480990623 z" fill="#a5aecf" stroke="#bbc2db" opacity="1.000"/>
<path d="M 1779.02203434 263.298829471 L 1781.97394011 272.297379969 L 1681.21835002 294.036125769 z" fill="#a7b0d0" stroke="#bdc3dc" opacity="1.000"/>
<path d="M 1780.91157877 249.475541073 L 1779.02203434 263.298829471 L 1681.21835002 294.036125769 z" fill="#a5aecf" stroke="#bbc2db" opacity="1.000"/>
<path d="M 1779.02203434 263.298829471 L 1780.91157877 249.475541073 L 1781.97394011 272.297379969 z" fill="#a3acce" stroke="#bac1da" opacity="1.000"/>
</g></svg>
