<svg xmlns="http://www.w3.org/2000/svg" width="1440" height="1000"><path d="M927,789L767,848L944,1048Z" fill="#a1c3dd" stroke="#a1c3dd" stroke-width="1.51"/><path d="M767,848L741,965L944,1048Z" fill="#a0c3dd" stroke="#a0c3dd" stroke-width="1.51"/><path d="M944,1048L1176,1071L927,789Z" fill="#9bc0dc" stroke="#9bc0dc" stroke-width="1.51"/><path d="M944,1048L922,1276L1176,1071Z" fill="#95bdda" stroke="#95bdda" stroke-width="1.51"/><path d="M741,965L922,1276L944,1048Z" fill="#9abfdb" stroke="#9abfdb" stroke-width="1.51"/><path d="M741,965L692,1391L922,1276Z" fill="#99bfda" stroke="#99bfda" stroke-width="1.51"/><path d="M767,848L499,955L741,965Z" fill="#a5c6df" stroke="#a5c6df" stroke-width="1.51"/><path d="M927,789L671,569L767,848Z" fill="#a8c8e0" stroke="#a8c8e0" stroke-width="1.51"/><path d="M767,848L404,813L499,955Z" fill="#a9c9e1" stroke="#a9c9e1" stroke-width="1.51"/><path d="M1176,1071L1279,754L927,789Z" fill="#9bc0dc" stroke="#9bc0dc" stroke-width="1.51"/><path d="M927,789L1019,402L671,569Z" fill="#aac9e1" stroke="#aac9e1" stroke-width="1.51"/><path d="M511,592L404,813L767,848Z" fill="#adcbe2" stroke="#adcbe2" stroke-width="1.51"/><path d="M671,569L511,592L767,848Z" fill="#adcbe3" stroke="#adcbe3" stroke-width="1.51"/><path d="M499,955L692,1391L741,965Z" fill="#a0c3dd" stroke="#a0c3dd" stroke-width="1.51"/><path d="M445,1349L692,1391L499,955Z" fill="#9ec2dd" stroke="#9ec2dd" stroke-width="1.51"/><path d="M1279,754L1019,402L927,789Z" fill="#a3c5de" stroke="#a3c5de" stroke-width="1.51"/><path d="M671,569L537,189L511,592Z" fill="#b6d1e6" stroke="#b6d1e6" stroke-width="1.51"/><path d="M1176,1071L1426,989L1279,754Z" fill="#95bcd9" stroke="#95bcd9" stroke-width="1.51"/><path d="M1324,1370L1426,989L1176,1071Z" fill="#8eb8d7" stroke="#8eb8d7" stroke-width="1.51"/><path d="M922,1276L1324,1370L1176,1071Z" fill="#8fb9d8" stroke="#8fb9d8" stroke-width="1.51"/><path d="M819,1596L1051,1509L922,1276Z" fill="#8db8d7" stroke="#8db8d7" stroke-width="1.51"/><path d="M692,1391L819,1596L922,1276Z" fill="#91bad8" stroke="#91bad8" stroke-width="1.51"/><path d="M255,1144L445,1349L499,955Z" fill="#a4c6df" stroke="#a4c6df" stroke-width="1.51"/><path d="M1279,754L1314,477L1019,402Z" fill="#a4c5df" stroke="#a4c5df" stroke-width="1.51"/><path d="M1471,440L1314,477L1279,754Z" fill="#9fc3dd" stroke="#9fc3dd" stroke-width="1.51"/><path d="M1051,1509L1324,1370L922,1276Z" fill="#8bb6d6" stroke="#8bb6d6" stroke-width="1.51"/><path d="M404,813L255,1144L499,955Z" fill="#aac9e1" stroke="#aac9e1" stroke-width="1.51"/><path d="M377,1486L819,1596L692,1391Z" fill="#95bdd9" stroke="#95bdd9" stroke-width="1.51"/><path d="M255,1144L245,1203L445,1349Z" fill="#a4c6df" stroke="#a4c6df" stroke-width="1.51"/><path d="M1019,402L745,235L671,569Z" fill="#b2cee4" stroke="#b2cee4" stroke-width="1.51"/><path d="M1015,167L745,235L1019,402Z" fill="#b3cfe4" stroke="#b3cfe4" stroke-width="1.51"/><path d="M404,813L90,798L255,1144Z" fill="#afcde3" stroke="#afcde3" stroke-width="1.51"/><path d="M255,1144L-106,1084L245,1203Z" fill="#abcae1" stroke="#abcae1" stroke-width="1.51"/><path d="M511,592L261,545L404,813Z" fill="#b4d0e4" stroke="#b4d0e4" stroke-width="1.51"/><path d="M537,189L261,545L511,592Z" fill="#bad3e7" stroke="#bad3e7" stroke-width="1.51"/><path d="M1426,989L1604,789L1279,754Z" fill="#94bcd9" stroke="#94bcd9" stroke-width="1.51"/><path d="M1837,1007L1604,789L1426,989Z" fill="#8cb7d6" stroke="#8cb7d6" stroke-width="1.51"/><path d="M1225,222L1015,167L1019,402Z" fill="#b0cde3" stroke="#b0cde3" stroke-width="1.51"/><path d="M1604,789L1471,440L1279,754Z" fill="#9abfdb" stroke="#9abfdb" stroke-width="1.51"/><path d="M445,1349L377,1486L692,1391Z" fill="#99bfdb" stroke="#99bfdb" stroke-width="1.51"/><path d="M245,1203L377,1486L445,1349Z" fill="#9fc3dd" stroke="#9fc3dd" stroke-width="1.51"/><path d="M1225,222L1019,402L1314,477Z" fill="#aac9e1" stroke="#aac9e1" stroke-width="1.51"/><path d="M1466,226L1225,222L1314,477Z" fill="#a8c8e1" stroke="#a8c8e1" stroke-width="1.51"/><path d="M261,545L90,798L404,813Z" fill="#b6d0e5" stroke="#b6d0e5" stroke-width="1.51"/><path d="M745,235L537,189L671,569Z" fill="#b8d2e6" stroke="#b8d2e6" stroke-width="1.51"/><path d="M802,-101L537,189L745,235Z" fill="#bed6e8" stroke="#bed6e8" stroke-width="1.51"/><path d="M1324,1370L1620,1329L1426,989Z" fill="#87b4d5" stroke="#87b4d5" stroke-width="1.51"/><path d="M1051,1509L1289,1632L1324,1370Z" fill="#86b3d4" stroke="#86b3d4" stroke-width="1.51"/><path d="M819,1596L1289,1632L1051,1509Z" fill="#8ab6d6" stroke="#8ab6d6" stroke-width="1.51"/><path d="M1500,1589L1620,1329L1324,1370Z" fill="#80afd2" stroke="#80afd2" stroke-width="1.51"/><path d="M1604,789L1714,747L1471,440Z" fill="#96bdda" stroke="#96bdda" stroke-width="1.51"/><path d="M1837,1007L1714,747L1604,789Z" fill="#8db7d7" stroke="#8db7d7" stroke-width="1.51"/><path d="M1471,440L1466,226L1314,477Z" fill="#a3c5df" stroke="#a3c5df" stroke-width="1.51"/><path d="M1225,222L1019,-55L1015,167Z" fill="#b4d0e4" stroke="#b4d0e4" stroke-width="1.51"/><path d="M1784,190L1466,226L1471,440Z" fill="#a3c5de" stroke="#a3c5de" stroke-width="1.51"/><path d="M1289,1632L1500,1589L1324,1370Z" fill="#82b1d3" stroke="#82b1d3" stroke-width="1.51"/><path d="M-115,560L-29,806L90,798Z" fill="#bcd5e7" stroke="#bcd5e7" stroke-width="1.51"/><path d="M90,798L-106,1084L255,1144Z" fill="#b0cee3" stroke="#b0cee3" stroke-width="1.51"/><path d="M245,1203L164,1612L377,1486Z" fill="#9ec2dd" stroke="#9ec2dd" stroke-width="1.51"/><path d="M-115,560L90,798L261,545Z" fill="#bcd5e7" stroke="#bcd5e7" stroke-width="1.51"/><path d="M1791,1357L1837,1007L1620,1329Z" fill="#7fafd2" stroke="#7fafd2" stroke-width="1.51"/><path d="M1620,1329L1837,1007L1426,989Z" fill="#87b4d4" stroke="#87b4d4" stroke-width="1.51"/><path d="M2015,808L1801,568L1714,747Z" fill="#8eb9d7" stroke="#8eb9d7" stroke-width="1.51"/><path d="M1714,747L1801,568L1471,440Z" fill="#96bdda" stroke="#96bdda" stroke-width="1.51"/><path d="M1554,-28L1351,57L1466,226Z" fill="#accbe1" stroke="#accbe1" stroke-width="1.51"/><path d="M1466,226L1351,57L1225,222Z" fill="#accbe1" stroke="#accbe1" stroke-width="1.51"/><path d="M1015,167L802,-101L745,235Z" fill="#bad4e7" stroke="#bad4e7" stroke-width="1.51"/><path d="M1351,57L1019,-55L1225,222Z" fill="#b2cfe4" stroke="#b2cfe4" stroke-width="1.51"/><path d="M377,1486L164,1612L819,1596Z" fill="#9abfdb" stroke="#9abfdb" stroke-width="1.51"/><path d="M819,1596L164,1612L1289,1632Z" fill="#92bbd8" stroke="#92bbd8" stroke-width="1.51"/><path d="M-102,1243L164,1612L245,1203Z" fill="#a5c6df" stroke="#a5c6df" stroke-width="1.51"/><path d="M-29,806L-106,1084L90,798Z" fill="#b6d1e5" stroke="#b6d1e5" stroke-width="1.51"/><path d="M1500,1589L1791,1357L1620,1329Z" fill="#7caed0" stroke="#7caed0" stroke-width="1.51"/><path d="M1019,-55L802,-101L1015,167Z" fill="#bbd4e7" stroke="#bbd4e7" stroke-width="1.51"/><path d="M537,189L83,237L261,545Z" fill="#c1d8ea" stroke="#c1d8ea" stroke-width="1.51"/><path d="M-106,1084L-102,1243L245,1203Z" fill="#adcbe2" stroke="#adcbe2" stroke-width="1.51"/><path d="M484,-84L83,237L537,189Z" fill="#c6dbeb" stroke="#c6dbeb" stroke-width="1.51"/><path d="M-29,806L-310,1009L-106,1084Z" fill="#b8d2e6" stroke="#b8d2e6" stroke-width="1.51"/><path d="M83,237L-115,560L261,545Z" fill="#c2d9ea" stroke="#c2d9ea" stroke-width="1.51"/><path d="M802,-101L484,-84L537,189Z" fill="#c3d9ea" stroke="#c3d9ea" stroke-width="1.51"/><path d="M1837,1007L2015,808L1714,747Z" fill="#89b5d5" stroke="#89b5d5" stroke-width="1.51"/><path d="M1801,568L1784,190L1471,440Z" fill="#9cc1dc" stroke="#9cc1dc" stroke-width="1.51"/><path d="M2074,1031L2015,808L1837,1007Z" fill="#84b2d3" stroke="#84b2d3" stroke-width="1.51"/><path d="M1351,57L1418,-218L1019,-55Z" fill="#b5d1e5" stroke="#b5d1e5" stroke-width="1.51"/><path d="M2035,468L1784,190L1801,568Z" fill="#97beda" stroke="#97beda" stroke-width="1.51"/><path d="M1784,190L1554,-28L1466,226Z" fill="#a7c8e0" stroke="#a7c8e0" stroke-width="1.51"/><path d="M1019,-55L928,-378L802,-101Z" fill="#c1d8e9" stroke="#c1d8e9" stroke-width="1.51"/><path d="M-115,560L-273,772L-29,806Z" fill="#bfd7e9" stroke="#bfd7e9" stroke-width="1.51"/><path d="M-106,1084L-354,1282L-102,1243Z" fill="#b1cee3" stroke="#b1cee3" stroke-width="1.51"/><path d="M-407,466L-273,772L-115,560Z" fill="#c6dbeb" stroke="#c6dbeb" stroke-width="1.51"/><path d="M2133,1262L2074,1031L1837,1007Z" fill="#7fafd2" stroke="#7fafd2" stroke-width="1.51"/><path d="M1500,1589L1863,1574L1791,1357Z" fill="#79acd0" stroke="#79acd0" stroke-width="1.51"/><path d="M1963,1638L1863,1574L1500,1589Z" fill="#77abcf" stroke="#77abcf" stroke-width="1.51"/><path d="M-354,1282L-158,1490L-102,1243Z" fill="#adcce2" stroke="#adcce2" stroke-width="1.51"/><path d="M-102,1243L-158,1490L164,1612Z" fill="#a6c7df" stroke="#a6c7df" stroke-width="1.51"/><path d="M2133,1262L1837,1007L1791,1357Z" fill="#7badd1" stroke="#7badd1" stroke-width="1.51"/><path d="M-273,772L-310,1009L-29,806Z" fill="#bcd5e7" stroke="#bcd5e7" stroke-width="1.51"/><path d="M-140,-79L-116,260L83,237Z" fill="#cfe1ef" stroke="#cfe1ef" stroke-width="1.51"/><path d="M83,237L-116,260L-115,560Z" fill="#c8ddec" stroke="#c8ddec" stroke-width="1.51"/><path d="M2074,1031L2035,468L2015,808Z" fill="#8ab6d5" stroke="#8ab6d5" stroke-width="1.51"/><path d="M2015,808L2035,468L1801,568Z" fill="#8fb9d7" stroke="#8fb9d7" stroke-width="1.51"/><path d="M745,-396L356,-243L484,-84Z" fill="#cde0ee" stroke="#cde0ee" stroke-width="1.51"/><path d="M1554,-28L1418,-218L1351,57Z" fill="#b1cee3" stroke="#b1cee3" stroke-width="1.51"/><path d="M1820,-386L1418,-218L1554,-28Z" fill="#b2cfe4" stroke="#b2cfe4" stroke-width="1.51"/><path d="M1891,34L1554,-28L1784,190Z" fill="#a5c7df" stroke="#a5c7df" stroke-width="1.51"/><path d="M484,-84L98,-95L83,237Z" fill="#ccdfed" stroke="#ccdfed" stroke-width="1.51"/><path d="M745,-396L484,-84L802,-101Z" fill="#c8dceb" stroke="#c8dceb" stroke-width="1.51"/><path d="M356,-243L98,-95L484,-84Z" fill="#cfe1ef" stroke="#cfe1ef" stroke-width="1.51"/><path d="M-310,1009L-354,1282L-106,1084Z" fill="#b5d1e5" stroke="#b5d1e5" stroke-width="1.51"/><path d="M-407,466L-354,1282L-310,1009Z" fill="#bed6e8" stroke="#bed6e8" stroke-width="1.51"/><path d="M2074,1031L2103,171L2035,468Z" fill="#91bad8" stroke="#91bad8" stroke-width="1.51"/><path d="M1863,1574L2133,1262L1791,1357Z" fill="#75aacf" stroke="#75aacf" stroke-width="1.51"/><path d="M1863,1574L1963,1638L2133,1262Z" fill="#73a9ce" stroke="#73a9ce" stroke-width="1.51"/><path d="M1289,1632L1963,1638L1500,1589Z" fill="#7caed1" stroke="#7caed1" stroke-width="1.51"/><path d="M1254,-380L928,-378L1019,-55Z" fill="#c1d8e9" stroke="#c1d8e9" stroke-width="1.51"/><path d="M928,-378L745,-396L802,-101Z" fill="#c7dcec" stroke="#c7dcec" stroke-width="1.51"/><path d="M2103,171L1891,34L1784,190Z" fill="#9fc3dd" stroke="#9fc3dd" stroke-width="1.51"/><path d="M928,-378L1254,-380L745,-396Z" fill="#c6dceb" stroke="#c6dceb" stroke-width="1.51"/><path d="M1418,-218L1254,-380L1019,-55Z" fill="#bbd4e7" stroke="#bbd4e7" stroke-width="1.51"/><path d="M1820,-386L1254,-380L1418,-218Z" fill="#b8d2e6" stroke="#b8d2e6" stroke-width="1.51"/><path d="M-273,772L-407,466L-310,1009Z" fill="#c2d9ea" stroke="#c2d9ea" stroke-width="1.51"/><path d="M-116,260L-407,466L-115,560Z" fill="#cadeec" stroke="#cadeec" stroke-width="1.51"/><path d="M-401,207L-407,466L-116,260Z" fill="#d0e1ef" stroke="#d0e1ef" stroke-width="1.51"/><path d="M98,-95L-140,-79L83,237Z" fill="#d1e2ef" stroke="#d1e2ef" stroke-width="1.51"/><path d="M356,-243L170,-304L98,-95Z" fill="#d4e4f1" stroke="#d4e4f1" stroke-width="1.51"/><path d="M745,-396L170,-304L356,-243Z" fill="#d1e3f0" stroke="#d1e3f0" stroke-width="1.51"/><path d="M1891,34L1820,-386L1554,-28Z" fill="#abcae1" stroke="#abcae1" stroke-width="1.51"/><path d="M2035,468L2103,171L1784,190Z" fill="#9ac0db" stroke="#9ac0db" stroke-width="1.51"/><path d="M2133,1262L2103,171L2074,1031Z" fill="#88b5d5" stroke="#88b5d5" stroke-width="1.51"/><path d="M-194,-287L-140,-79L98,-95Z" fill="#d8e7f2" stroke="#d8e7f2" stroke-width="1.51"/><path d="M-354,1282L-374,1673L-158,1490Z" fill="#accbe2" stroke="#accbe2" stroke-width="1.51"/><path d="M-158,1490L-374,1673L164,1612Z" fill="#a8c8e0" stroke="#a8c8e0" stroke-width="1.51"/><path d="M164,1612L-374,1673L1289,1632Z" fill="#9cc1dc" stroke="#9cc1dc" stroke-width="1.51"/><path d="M1289,1632L-374,1673L1963,1638Z" fill="#8db7d6" stroke="#8db7d6" stroke-width="1.51"/><path d="M-407,466L-374,1673L-354,1282Z" fill="#b8d3e6" stroke="#b8d3e6" stroke-width="1.51"/><path d="M-140,-79L-401,207L-116,260Z" fill="#d3e4f0" stroke="#d3e4f0" stroke-width="1.51"/><path d="M2103,171L2097,-123L1891,34Z" fill="#a2c5de" stroke="#a2c5de" stroke-width="1.51"/><path d="M2133,1262L2097,-123L2103,171Z" fill="#95bcd9" stroke="#95bcd9" stroke-width="1.51"/><path d="M2056,-239L1820,-386L1891,34Z" fill="#a9c9e0" stroke="#a9c9e0" stroke-width="1.51"/><path d="M1254,-380L1820,-386L745,-396Z" fill="#bfd7e9" stroke="#bfd7e9" stroke-width="1.51"/><path d="M-140,-79L-455,-49L-401,207Z" fill="#d9e8f2" stroke="#d9e8f2" stroke-width="1.51"/><path d="M170,-304L-194,-287L98,-95Z" fill="#d9e7f2" stroke="#d9e7f2" stroke-width="1.51"/><path d="M-358,-316L-194,-287L170,-304Z" fill="#dfebf5" stroke="#dfebf5" stroke-width="1.51"/><path d="M2097,-123L2056,-239L1891,34Z" fill="#a7c7df" stroke="#a7c7df" stroke-width="1.51"/><path d="M-401,207L-455,-49L-407,466Z" fill="#d6e6f1" stroke="#d6e6f1" stroke-width="1.51"/><path d="M-407,466L-455,-49L-374,1673Z" fill="#c6dceb" stroke="#c6dceb" stroke-width="1.51"/><path d="M-358,-316L-455,-49L-140,-79Z" fill="#deebf4" stroke="#deebf4" stroke-width="1.51"/><path d="M-194,-287L-358,-316L-140,-79Z" fill="#dfebf4" stroke="#dfebf4" stroke-width="1.51"/><path d="M745,-396L-358,-316L170,-304Z" fill="#d8e7f2" stroke="#d8e7f2" stroke-width="1.51"/></svg>