<?xml version="1.0" encoding="utf-8"?>
<svg xmlns="http://www.w3.org/2000/svg" width="1920" height="300"
     xmlns:xlink="http://www.w3.org/1999/xlink">
  <!-- created with "banners.py -stroke=#A8B1D1 -distribution cosine -min 10 -num 50 -colors BDC4DD,D3D8E8,7C8ABB,A8B1D1" -->
   
<g>
<path d="M 0 300 L 1195.7 297.3 L 1920 300 z" fill="#bbc2db" stroke="#A8B1D1"/>
<path d="M 1195.7 297.3 L 702.9 289.5 L 861.2 226.4 z" fill="#bbc2db" stroke="#A8B1D1"/>
<path d="M 719.9 2.5 L 269.6 0.8 L 1920 0 z" fill="#9ca6cb" stroke="#A8B1D1"/>
<path d="M 4.8 214.8 L 0 300 L 0 0 z" fill="#c9cfe3" stroke="#A8B1D1"/>
<path d="M 4.8 214.8 L 94.2 122.4 L 0 300 z" fill="#cbd1e4" stroke="#A8B1D1"/>
<path d="M 567.2 112.2 L 269.6 0.8 L 719.9 2.5 z" fill="#afb7d5" stroke="#A8B1D1"/>
<path d="M 1195.7 297.3 L 1536.6 290.1 L 1920 300 z" fill="#afb8d5" stroke="#A8B1D1"/>
<path d="M 1525.0 270.5 L 1536.6 290.1 L 1195.7 297.3 z" fill="#b1b9d6" stroke="#A8B1D1"/>
<path d="M 1168.3 7.5 L 719.9 2.5 L 1920 0 z" fill="#929ec6" stroke="#A8B1D1"/>
<path d="M 269.6 0.8 L 38.5 0.0 L 1920 0 z" fill="#a3adcf" stroke="#A8B1D1"/>
<path d="M 4.8 214.8 L 48.8 76.1 L 94.2 122.4 z" fill="#c5cbe1" stroke="#A8B1D1"/>
<path d="M 169.6 12.7 L 48.8 76.1 L 38.5 0.0 z" fill="#bcc3dc" stroke="#A8B1D1"/>
<path d="M 642.8 94.4 L 567.2 112.2 L 719.9 2.5 z" fill="#aeb6d5" stroke="#A8B1D1"/>
<path d="M 567.2 112.2 L 642.8 94.4 L 702.9 289.5 z" fill="#b7bfd9" stroke="#A8B1D1"/>
<path d="M 642.8 94.4 L 719.9 2.5 L 861.2 226.4 z" fill="#aeb7d5" stroke="#A8B1D1"/>
<path d="M 702.9 289.5 L 642.8 94.4 L 861.2 226.4 z" fill="#b8c0da" stroke="#A8B1D1"/>
<path d="M 269.6 0.8 L 387.8 105.4 L 255.5 133.0 z" fill="#b9c0da" stroke="#A8B1D1"/>
<path d="M 567.2 112.2 L 387.8 105.4 L 269.6 0.8 z" fill="#b5bdd9" stroke="#A8B1D1"/>
<path d="M 1536.6 290.1 L 1814.0 283.3 L 1920 300 z" fill="#aab3d2" stroke="#A8B1D1"/>
<path d="M 1772.7 208.9 L 1536.6 290.1 L 1525.0 270.5 z" fill="#a9b2d1" stroke="#A8B1D1"/>
<path d="M 1772.7 208.9 L 1814.0 283.3 L 1536.6 290.1 z" fill="#a7b0d0" stroke="#A8B1D1"/>
<path d="M 719.9 2.5 L 949.6 12.9 L 861.2 226.4 z" fill="#a8b2d2" stroke="#A8B1D1"/>
<path d="M 1168.3 7.5 L 949.6 12.9 L 719.9 2.5 z" fill="#9da8cc" stroke="#A8B1D1"/>
<path d="M 94.2 122.4 L 122.7 100.2 L 255.5 133.0 z" fill="#c1c7de" stroke="#A8B1D1"/>
<path d="M 122.7 100.2 L 169.6 12.7 L 255.5 133.0 z" fill="#bdc4dd" stroke="#A8B1D1"/>
<path d="M 48.8 76.1 L 122.7 100.2 L 94.2 122.4 z" fill="#c1c8df" stroke="#A8B1D1"/>
<path d="M 122.7 100.2 L 48.8 76.1 L 169.6 12.7 z" fill="#bec5dd" stroke="#A8B1D1"/>
<path d="M 205.7 5.1 L 269.6 0.8 L 255.5 133.0 z" fill="#b8c0da" stroke="#A8B1D1"/>
<path d="M 169.6 12.7 L 205.7 5.1 L 255.5 133.0 z" fill="#b9c1db" stroke="#A8B1D1"/>
<path d="M 205.7 5.1 L 38.5 0.0 L 269.6 0.8 z" fill="#b7beda" stroke="#A8B1D1"/>
<path d="M 205.7 5.1 L 169.6 12.7 L 38.5 0.0 z" fill="#b8c0da" stroke="#A8B1D1"/>
<path d="M 38.5 0.0 L 18.3 24.4 L 0 0 z" fill="#bcc3dc" stroke="#A8B1D1"/>
<path d="M 48.8 76.1 L 18.3 24.4 L 38.5 0.0 z" fill="#bec5dd" stroke="#A8B1D1"/>
<path d="M 18.3 24.4 L 4.8 214.8 L 0 0 z" fill="#c2c9df" stroke="#A8B1D1"/>
<path d="M 18.3 24.4 L 48.8 76.1 L 4.8 214.8 z" fill="#c3cae0" stroke="#A8B1D1"/>
<path d="M 461.1 282.3 L 567.2 112.2 L 702.9 289.5 z" fill="#bfc6dd" stroke="#A8B1D1"/>
<path d="M 440.9 286.2 L 461.1 282.3 L 702.9 289.5 z" fill="#c5cbe0" stroke="#A8B1D1"/>
<path d="M 331.3 293.4 L 440.9 286.2 L 702.9 289.5 z" fill="#c7cde1" stroke="#A8B1D1"/>
<path d="M 331.3 293.4 L 1195.7 297.3 L 0 300 z" fill="#c7cde1" stroke="#A8B1D1"/>
<path d="M 331.3 293.4 L 702.9 289.5 L 1195.7 297.3 z" fill="#c1c8de" stroke="#A8B1D1"/>
<path d="M 94.2 122.4 L 331.3 293.4 L 0 300 z" fill="#cad0e3" stroke="#A8B1D1"/>
<path d="M 331.3 293.4 L 94.2 122.4 L 255.5 133.0 z" fill="#c4cae0" stroke="#A8B1D1"/>
<path d="M 387.8 105.4 L 331.3 293.4 L 255.5 133.0 z" fill="#c1c7de" stroke="#A8B1D1"/>
<path d="M 1917.8 205.0 L 1920 0 L 1920 300 z" fill="#949fc7" stroke="#A8B1D1"/>
<path d="M 1917.8 205.0 L 1913.6 142.5 L 1920 0 z" fill="#8d99c3" stroke="#A8B1D1"/>
<path d="M 1508.1 236.7 L 1525.0 270.5 L 1195.7 297.3 z" fill="#afb7d5" stroke="#A8B1D1"/>
<path d="M 1471.0 81.3 L 1508.1 236.7 L 1195.7 297.3 z" fill="#a7b1d1" stroke="#A8B1D1"/>
<path d="M 1216.3 47.0 L 1471.0 81.3 L 1195.7 297.3 z" fill="#a2acce" stroke="#A8B1D1"/>
<path d="M 1471.0 81.3 L 1216.3 47.0 L 1168.3 7.5 z" fill="#97a2c9" stroke="#A8B1D1"/>
<path d="M 420.8 266.6 L 461.1 282.3 L 440.9 286.2 z" fill="#c7cde1" stroke="#A8B1D1"/>
<path d="M 420.8 266.6 L 331.3 293.4 L 387.8 105.4 z" fill="#c3cae0" stroke="#A8B1D1"/>
<path d="M 420.8 266.6 L 387.8 105.4 L 567.2 112.2 z" fill="#bcc3dc" stroke="#A8B1D1"/>
<path d="M 461.1 282.3 L 420.8 266.6 L 567.2 112.2 z" fill="#c0c7de" stroke="#A8B1D1"/>
<path d="M 1917.4 266.2 L 1917.8 205.0 L 1920 300 z" fill="#a1abcd" stroke="#A8B1D1"/>
<path d="M 1640.7 72.8 L 1792.9 19.8 L 1783.1 131.2 z" fill="#8c98c3" stroke="#A8B1D1"/>
<path d="M 1772.7 208.9 L 1640.7 72.8 L 1783.1 131.2 z" fill="#95a0c7" stroke="#A8B1D1"/>
<path d="M 1640.7 72.8 L 1772.7 208.9 L 1525.0 270.5 z" fill="#9ea8cc" stroke="#A8B1D1"/>
<path d="M 1508.1 236.7 L 1640.7 72.8 L 1525.0 270.5 z" fill="#a1abce" stroke="#A8B1D1"/>
<path d="M 1164.5 82.2 L 1216.3 47.0 L 1195.7 297.3 z" fill="#a5afd0" stroke="#A8B1D1"/>
<path d="M 1216.3 47.0 L 1164.5 82.2 L 1168.3 7.5 z" fill="#9aa5ca" stroke="#A8B1D1"/>
<path d="M 1164.5 82.2 L 949.6 12.9 L 1168.3 7.5 z" fill="#9ba6cb" stroke="#A8B1D1"/>
<path d="M 1164.5 82.2 L 1195.7 297.3 L 861.2 226.4 z" fill="#afb8d5" stroke="#A8B1D1"/>
<path d="M 949.6 12.9 L 1164.5 82.2 L 861.2 226.4 z" fill="#a7b0d1" stroke="#A8B1D1"/>
<path d="M 1913.6 142.5 L 1882.7 7.5 L 1920 0 z" fill="#8390be" stroke="#A8B1D1"/>
<path d="M 331.3 293.4 L 421.4 283.0 L 440.9 286.2 z" fill="#c8cee2" stroke="#A8B1D1"/>
<path d="M 421.4 283.0 L 420.8 266.6 L 440.9 286.2 z" fill="#c7cde1" stroke="#A8B1D1"/>
<path d="M 420.8 266.6 L 421.4 283.0 L 331.3 293.4 z" fill="#c8cee2" stroke="#A8B1D1"/>
<path d="M 1772.7 208.9 L 1864.8 249.0 L 1814.0 283.3 z" fill="#a2acce" stroke="#A8B1D1"/>
<path d="M 1863.1 195.5 L 1864.8 249.0 L 1772.7 208.9 z" fill="#9ea8cc" stroke="#A8B1D1"/>
<path d="M 1841.4 163.2 L 1772.7 208.9 L 1783.1 131.2 z" fill="#97a2c9" stroke="#A8B1D1"/>
<path d="M 1841.4 163.2 L 1863.1 195.5 L 1772.7 208.9 z" fill="#9aa4ca" stroke="#A8B1D1"/>
<path d="M 1917.8 205.0 L 1896.8 178.3 L 1913.6 142.5 z" fill="#95a1c8" stroke="#A8B1D1"/>
<path d="M 1863.1 195.5 L 1896.8 178.3 L 1917.8 205.0 z" fill="#99a3c9" stroke="#A8B1D1"/>
<path d="M 1896.8 178.3 L 1841.4 163.2 L 1913.6 142.5 z" fill="#949fc7" stroke="#A8B1D1"/>
<path d="M 1841.4 163.2 L 1896.8 178.3 L 1863.1 195.5 z" fill="#97a2c8" stroke="#A8B1D1"/>
<path d="M 1533.4 111.4 L 1508.1 236.7 L 1471.0 81.3 z" fill="#9ca7cb" stroke="#A8B1D1"/>
<path d="M 1533.4 111.4 L 1640.7 72.8 L 1508.1 236.7 z" fill="#9aa5ca" stroke="#A8B1D1"/>
<path d="M 1640.7 72.8 L 1646.7 22.4 L 1792.9 19.8 z" fill="#8895c1" stroke="#A8B1D1"/>
<path d="M 1646.7 22.4 L 1168.3 7.5 L 1920 0 z" fill="#8895c1" stroke="#A8B1D1"/>
<path d="M 1882.7 7.5 L 1646.7 22.4 L 1920 0 z" fill="#808ebd" stroke="#A8B1D1"/>
<path d="M 1646.7 22.4 L 1882.7 7.5 L 1792.9 19.8 z" fill="#8390be" stroke="#A8B1D1"/>
<path d="M 1792.9 19.8 L 1832.3 27.9 L 1783.1 131.2 z" fill="#8895c1" stroke="#A8B1D1"/>
<path d="M 1882.7 7.5 L 1832.3 27.9 L 1792.9 19.8 z" fill="#818ebd" stroke="#A8B1D1"/>
<path d="M 1832.3 27.9 L 1841.4 163.2 L 1783.1 131.2 z" fill="#8e9ac4" stroke="#A8B1D1"/>
<path d="M 1832.3 27.9 L 1882.7 7.5 L 1913.6 142.5 z" fill="#8692c0" stroke="#A8B1D1"/>
<path d="M 1841.4 163.2 L 1832.3 27.9 L 1913.6 142.5 z" fill="#8e99c4" stroke="#A8B1D1"/>
<path d="M 1814.0 283.3 L 1847.3 286.7 L 1920 300 z" fill="#a7b0d0" stroke="#A8B1D1"/>
<path d="M 1864.8 249.0 L 1847.3 286.7 L 1814.0 283.3 z" fill="#a5afcf" stroke="#A8B1D1"/>
<path d="M 1915.8 233.0 L 1863.1 195.5 L 1917.8 205.0 z" fill="#9ba5ca" stroke="#A8B1D1"/>
<path d="M 1915.8 233.0 L 1864.8 249.0 L 1863.1 195.5 z" fill="#9ea8cc" stroke="#A8B1D1"/>
<path d="M 1917.4 266.2 L 1915.8 233.0 L 1917.8 205.0 z" fill="#9ea8cc" stroke="#A8B1D1"/>
<path d="M 1533.4 111.4 L 1630.5 27.7 L 1640.7 72.8 z" fill="#909cc5" stroke="#A8B1D1"/>
<path d="M 1630.5 27.7 L 1646.7 22.4 L 1640.7 72.8 z" fill="#8b97c2" stroke="#A8B1D1"/>
<path d="M 1630.5 27.7 L 1533.4 111.4 L 1471.0 81.3 z" fill="#929dc6" stroke="#A8B1D1"/>
<path d="M 1630.5 27.7 L 1471.0 81.3 L 1168.3 7.5 z" fill="#919dc6" stroke="#A8B1D1"/>
<path d="M 1646.7 22.4 L 1630.5 27.7 L 1168.3 7.5 z" fill="#8d99c4" stroke="#A8B1D1"/>
<path d="M 1897.6 262.4 L 1847.3 286.7 L 1864.8 249.0 z" fill="#a4adcf" stroke="#A8B1D1"/>
<path d="M 1897.6 262.4 L 1915.8 233.0 L 1917.4 266.2 z" fill="#a1abcd" stroke="#A8B1D1"/>
<path d="M 1915.8 233.0 L 1897.6 262.4 L 1864.8 249.0 z" fill="#a1aacd" stroke="#A8B1D1"/>
<path d="M 1897.6 262.4 L 1917.4 266.2 L 1920 300 z" fill="#a4aecf" stroke="#A8B1D1"/>
<path d="M 1847.3 286.7 L 1897.6 262.4 L 1920 300 z" fill="#a6afd0" stroke="#A8B1D1"/>
</g></svg>
