<?xml version="1.0" ?><svg height="1200" width="1440" xmlns="http://www.w3.org/2000/svg">
<g>
  <path d="M745,675L636,616L687,719Z" fill="#EEF3F3" stroke="#D5E1E2"/>
  <path d="M636,616L607,677L687,719Z" fill="#DDE7E8" stroke="#D5E1E2"/>
  <path d="M745,675L771,578L636,616Z" fill="#F6F9F9" stroke="#D5E1E2"/>
  <path d="M687,719L803,826L745,675Z" fill="#EEF3F3" stroke="#D5E1E2"/>
  <path d="M607,677L679,778L687,719Z" fill="#DDE7E8" stroke="#D5E1E2"/>
  <path d="M636,616L549,598L607,677Z" fill="#E6EDEE" stroke="#D5E1E2"/>
  <path d="M607,677L577,797L679,778Z" fill="#E6EDEE" stroke="#D5E1E2"/>
  <path d="M658,495L549,598L636,616Z" fill="#F6F9F9" stroke="#D5E1E2"/>
  <path d="M771,578L658,495L636,616Z" fill="#EEF3F3" stroke="#D5E1E2"/>
  <path d="M771,578L751,500L658,495Z" fill="#DDE7E8" stroke="#D5E1E2"/>
  <path d="M745,675L843,723L771,578Z" fill="#E6EDEE" stroke="#D5E1E2"/>
  <path d="M771,578L856,557L751,500Z" fill="#EEF3F3" stroke="#D5E1E2"/>
  <path d="M803,826L843,723L745,675Z" fill="#E6EDEE" stroke="#D5E1E2"/>
  <path d="M479,666L577,797L607,677Z" fill="#F6F9F9" stroke="#D5E1E2"/>
  <path d="M549,598L479,666L607,677Z" fill="#E6EDEE" stroke="#D5E1E2"/>
  <path d="M582,465L503,593L549,598Z" fill="#E6EDEE" stroke="#D5E1E2"/>
  <path d="M843,723L856,557L771,578Z" fill="#DDE7E8" stroke="#D5E1E2"/>
  <path d="M503,593L479,666L549,598Z" fill="#F6F9F9" stroke="#D5E1E2"/>
  <path d="M679,778L803,826L687,719Z" fill="#F6F9F9" stroke="#D5E1E2"/>
  <path d="M704,927L803,826L679,778Z" fill="#E6EDEE" stroke="#D5E1E2"/>
  <path d="M658,495L582,465L549,598Z" fill="#F6F9F9" stroke="#D5E1E2"/>
  <path d="M573,414L582,465L658,495Z" fill="#EEF3F3" stroke="#D5E1E2"/>
  <path d="M856,557L866,535L751,500Z" fill="#E6EDEE" stroke="#D5E1E2"/>
  <path d="M961,515L866,535L856,557Z" fill="#E6EDEE" stroke="#D5E1E2"/>
  <path d="M843,723L962,638L856,557Z" fill="#DDE7E8" stroke="#D5E1E2"/>
  <path d="M803,826L876,764L843,723Z" fill="#DDE7E8" stroke="#D5E1E2"/>
  <path d="M689,377L573,414L658,495Z" fill="#E6EDEE" stroke="#D5E1E2"/>
  <path d="M582,465L483,467L503,593Z" fill="#E6EDEE" stroke="#D5E1E2"/>
  <path d="M689,377L658,495L751,500Z" fill="#E6EDEE" stroke="#D5E1E2"/>
  <path d="M577,797L704,927L679,778Z" fill="#EEF3F3" stroke="#D5E1E2"/>
  <path d="M454,811L536,880L577,797Z" fill="#DDE7E8" stroke="#D5E1E2"/>
  <path d="M536,880L704,927L577,797Z" fill="#DDE7E8" stroke="#D5E1E2"/>
  <path d="M803,826L891,860L876,764Z" fill="#DDE7E8" stroke="#D5E1E2"/>
  <path d="M573,414L483,467L582,465Z" fill="#DDE7E8" stroke="#D5E1E2"/>
  <path d="M370,557L397,732L479,666Z" fill="#EEF3F3" stroke="#D5E1E2"/>
  <path d="M985,692L962,638L843,723Z" fill="#E6EDEE" stroke="#D5E1E2"/>
  <path d="M479,666L454,811L577,797Z" fill="#DDE7E8" stroke="#D5E1E2"/>
  <path d="M397,732L454,811L479,666Z" fill="#E6EDEE" stroke="#D5E1E2"/>
  <path d="M810,373L689,377L751,500Z" fill="#EEF3F3" stroke="#D5E1E2"/>
  <path d="M704,927L774,922L803,826Z" fill="#EEF3F3" stroke="#D5E1E2"/>
  <path d="M876,764L985,692L843,723Z" fill="#EEF3F3" stroke="#D5E1E2"/>
  <path d="M774,922L891,860L803,826Z" fill="#E6EDEE" stroke="#D5E1E2"/>
  <path d="M891,860L942,800L876,764Z" fill="#F6F9F9" stroke="#D5E1E2"/>
  <path d="M370,557L479,666L503,593Z" fill="#E6EDEE" stroke="#D5E1E2"/>
  <path d="M942,800L985,692L876,764Z" fill="#F6F9F9" stroke="#D5E1E2"/>
  <path d="M829,382L810,373L751,500Z" fill="#EEF3F3" stroke="#D5E1E2"/>
  <path d="M829,382L751,500L866,535Z" fill="#EEF3F3" stroke="#D5E1E2"/>
  <path d="M961,515L829,382L866,535Z" fill="#EEF3F3" stroke="#D5E1E2"/>
  <path d="M962,638L961,515L856,557Z" fill="#DDE7E8" stroke="#D5E1E2"/>
  <path d="M1042,536L961,515L962,638Z" fill="#EEF3F3" stroke="#D5E1E2"/>
  <path d="M483,467L370,557L503,593Z" fill="#E6EDEE" stroke="#D5E1E2"/>
  <path d="M536,880L599,1001L704,927Z" fill="#F6F9F9" stroke="#D5E1E2"/>
  <path d="M454,811L445,888L536,880Z" fill="#F6F9F9" stroke="#D5E1E2"/>
  <path d="M349,812L445,888L454,811Z" fill="#F6F9F9" stroke="#D5E1E2"/>
  <path d="M483,467L387,464L370,557Z" fill="#EEF3F3" stroke="#D5E1E2"/>
  <path d="M573,414L458,392L483,467Z" fill="#EEF3F3" stroke="#D5E1E2"/>
  <path d="M607,303L458,392L573,414Z" fill="#F6F9F9" stroke="#D5E1E2"/>
  <path d="M458,392L387,464L483,467Z" fill="#DDE7E8" stroke="#D5E1E2"/>
  <path d="M446,1004L599,1001L536,880Z" fill="#F6F9F9" stroke="#D5E1E2"/>
  <path d="M704,927L767,1027L774,922Z" fill="#E6EDEE" stroke="#D5E1E2"/>
  <path d="M810,373L799,319L689,377Z" fill="#EEF3F3" stroke="#D5E1E2"/>
  <path d="M689,377L607,303L573,414Z" fill="#F6F9F9" stroke="#D5E1E2"/>
  <path d="M842,325L799,319L810,373Z" fill="#E6EDEE" stroke="#D5E1E2"/>
  <path d="M842,325L810,373L829,382Z" fill="#E6EDEE" stroke="#D5E1E2"/>
  <path d="M705,258L607,303L689,377Z" fill="#E6EDEE" stroke="#D5E1E2"/>
  <path d="M1010,418L842,325L829,382Z" fill="#DDE7E8" stroke="#D5E1E2"/>
  <path d="M397,732L349,812L454,811Z" fill="#EEF3F3" stroke="#D5E1E2"/>
  <path d="M279,783L349,812L397,732Z" fill="#F6F9F9" stroke="#D5E1E2"/>
  <path d="M961,515L1010,418L829,382Z" fill="#E6EDEE" stroke="#D5E1E2"/>
  <path d="M1082,617L1042,536L962,638Z" fill="#EEF3F3" stroke="#D5E1E2"/>
  <path d="M1079,840L1062,688L985,692Z" fill="#DDE7E8" stroke="#D5E1E2"/>
  <path d="M985,692L1062,688L962,638Z" fill="#E6EDEE" stroke="#D5E1E2"/>
  <path d="M891,860L1001,862L942,800Z" fill="#DDE7E8" stroke="#D5E1E2"/>
  <path d="M947,1026L1001,862L891,860Z" fill="#DDE7E8" stroke="#D5E1E2"/>
  <path d="M836,1034L891,860L774,922Z" fill="#E6EDEE" stroke="#D5E1E2"/>
  <path d="M599,1001L690,1034L704,927Z" fill="#EEF3F3" stroke="#D5E1E2"/>
  <path d="M1079,840L985,692L942,800Z" fill="#F6F9F9" stroke="#D5E1E2"/>
  <path d="M690,1034L767,1027L704,927Z" fill="#DDE7E8" stroke="#D5E1E2"/>
  <path d="M445,888L446,1004L536,880Z" fill="#EEF3F3" stroke="#D5E1E2"/>
  <path d="M349,812L381,912L445,888Z" fill="#DDE7E8" stroke="#D5E1E2"/>
  <path d="M776,186L705,258L799,319Z" fill="#EEF3F3" stroke="#D5E1E2"/>
  <path d="M799,319L705,258L689,377Z" fill="#F6F9F9" stroke="#D5E1E2"/>
  <path d="M1062,688L1082,617L962,638Z" fill="#E6EDEE" stroke="#D5E1E2"/>
  <path d="M1042,536L1010,418L961,515Z" fill="#E6EDEE" stroke="#D5E1E2"/>
  <path d="M1083,363L1010,418L1042,536Z" fill="#F6F9F9" stroke="#D5E1E2"/>
  <path d="M767,1027L836,1034L774,922Z" fill="#F6F9F9" stroke="#D5E1E2"/>
  <path d="M834,1083L836,1034L767,1027Z" fill="#EEF3F3" stroke="#D5E1E2"/>
  <path d="M370,557L272,724L397,732Z" fill="#E6EDEE" stroke="#D5E1E2"/>
  <path d="M349,812L296,870L381,912Z" fill="#E6EDEE" stroke="#D5E1E2"/>
  <path d="M232,621L272,724L370,557Z" fill="#EEF3F3" stroke="#D5E1E2"/>
  <path d="M381,912L446,1004L445,888Z" fill="#DDE7E8" stroke="#D5E1E2"/>
  <path d="M633,1118L737,1077L690,1034Z" fill="#F6F9F9" stroke="#D5E1E2"/>
  <path d="M690,1034L737,1077L767,1027Z" fill="#E6EDEE" stroke="#D5E1E2"/>
  <path d="M633,1118L690,1034L599,1001Z" fill="#EEF3F3" stroke="#D5E1E2"/>
  <path d="M272,724L279,783L397,732Z" fill="#F6F9F9" stroke="#D5E1E2"/>
  <path d="M381,912L356,1009L446,1004Z" fill="#EEF3F3" stroke="#D5E1E2"/>
  <path d="M387,464L282,498L370,557Z" fill="#F6F9F9" stroke="#D5E1E2"/>
  <path d="M279,394L282,498L387,464Z" fill="#E6EDEE" stroke="#D5E1E2"/>
  <path d="M458,392L355,373L387,464Z" fill="#E6EDEE" stroke="#D5E1E2"/>
  <path d="M473,261L355,373L458,392Z" fill="#DDE7E8" stroke="#D5E1E2"/>
  <path d="M473,261L458,392L607,303Z" fill="#EEF3F3" stroke="#D5E1E2"/>
  <path d="M1001,862L1079,840L942,800Z" fill="#F6F9F9" stroke="#D5E1E2"/>
  <path d="M1062,688L1146,612L1082,617Z" fill="#F6F9F9" stroke="#D5E1E2"/>
  <path d="M1062,892L1079,840L1001,862Z" fill="#E6EDEE" stroke="#D5E1E2"/>
  <path d="M705,258L587,231L607,303Z" fill="#DDE7E8" stroke="#D5E1E2"/>
  <path d="M279,783L296,870L349,812Z" fill="#EEF3F3" stroke="#D5E1E2"/>
  <path d="M947,1026L1062,892L1001,862Z" fill="#F6F9F9" stroke="#D5E1E2"/>
  <path d="M587,231L473,261L607,303Z" fill="#E6EDEE" stroke="#D5E1E2"/>
  <path d="M836,1034L947,1026L891,860Z" fill="#E6EDEE" stroke="#D5E1E2"/>
  <path d="M737,1077L834,1083L767,1027Z" fill="#EEF3F3" stroke="#D5E1E2"/>
  <path d="M945,1072L947,1026L836,1034Z" fill="#F6F9F9" stroke="#D5E1E2"/>
  <path d="M282,498L232,621L370,557Z" fill="#E6EDEE" stroke="#D5E1E2"/>
  <path d="M272,724L180,697L279,783Z" fill="#EEF3F3" stroke="#D5E1E2"/>
  <path d="M279,783L137,800L296,870Z" fill="#F6F9F9" stroke="#D5E1E2"/>
  <path d="M446,1004L566,1096L599,1001Z" fill="#E6EDEE" stroke="#D5E1E2"/>
  <path d="M737,1077L834,1163L834,1083Z" fill="#DDE7E8" stroke="#D5E1E2"/>
  <path d="M1082,617L1146,612L1042,536Z" fill="#DDE7E8" stroke="#D5E1E2"/>
  <path d="M1186,725L1146,612L1062,688Z" fill="#DDE7E8" stroke="#D5E1E2"/>
  <path d="M566,1096L633,1118L599,1001Z" fill="#E6EDEE" stroke="#D5E1E2"/>
  <path d="M1010,418L951,266L842,325Z" fill="#EEF3F3" stroke="#D5E1E2"/>
  <path d="M829,198L776,186L799,319Z" fill="#EEF3F3" stroke="#D5E1E2"/>
  <path d="M705,258L665,174L587,231Z" fill="#EEF3F3" stroke="#D5E1E2"/>
  <path d="M1062,325L951,266L1010,418Z" fill="#E6EDEE" stroke="#D5E1E2"/>
  <path d="M829,198L799,319L842,325Z" fill="#DDE7E8" stroke="#D5E1E2"/>
  <path d="M951,266L829,198L842,325Z" fill="#E6EDEE" stroke="#D5E1E2"/>
  <path d="M473,261L337,283L355,373Z" fill="#DDE7E8" stroke="#D5E1E2"/>
  <path d="M529,127L448,236L473,261Z" fill="#EEF3F3" stroke="#D5E1E2"/>
  <path d="M529,127L473,261L587,231Z" fill="#E6EDEE" stroke="#D5E1E2"/>
  <path d="M776,186L665,174L705,258Z" fill="#F6F9F9" stroke="#D5E1E2"/>
  <path d="M446,1004L505,1118L566,1096Z" fill="#EEF3F3" stroke="#D5E1E2"/>
  <path d="M250,992L356,1009L381,912Z" fill="#F6F9F9" stroke="#D5E1E2"/>
  <path d="M203,488L189,616L232,621Z" fill="#DDE7E8" stroke="#D5E1E2"/>
  <path d="M355,373L279,394L387,464Z" fill="#EEF3F3" stroke="#D5E1E2"/>
  <path d="M337,283L279,394L355,373Z" fill="#EEF3F3" stroke="#D5E1E2"/>
  <path d="M947,1026L1069,1002L1062,892Z" fill="#E6EDEE" stroke="#D5E1E2"/>
  <path d="M834,1083L945,1072L836,1034Z" fill="#DDE7E8" stroke="#D5E1E2"/>
  <path d="M834,1163L945,1072L834,1083Z" fill="#EEF3F3" stroke="#D5E1E2"/>
  <path d="M1145,361L1083,363L1042,536Z" fill="#E6EDEE" stroke="#D5E1E2"/>
  <path d="M566,1096L559,1232L633,1118Z" fill="#E6EDEE" stroke="#D5E1E2"/>
  <path d="M355,1143L505,1118L446,1004Z" fill="#E6EDEE" stroke="#D5E1E2"/>
  <path d="M1079,840L1186,725L1062,688Z" fill="#EEF3F3" stroke="#D5E1E2"/>
  <path d="M1062,892L1147,837L1079,840Z" fill="#EEF3F3" stroke="#D5E1E2"/>
  <path d="M1174,901L1147,837L1062,892Z" fill="#E6EDEE" stroke="#D5E1E2"/>
  <path d="M232,621L180,697L272,724Z" fill="#E6EDEE" stroke="#D5E1E2"/>
  <path d="M203,488L232,621L282,498Z" fill="#DDE7E8" stroke="#D5E1E2"/>
  <path d="M895,88L776,186L829,198Z" fill="#DDE7E8" stroke="#D5E1E2"/>
  <path d="M1083,363L1062,325L1010,418Z" fill="#E6EDEE" stroke="#D5E1E2"/>
  <path d="M1147,837L1186,725L1079,840Z" fill="#DDE7E8" stroke="#D5E1E2"/>
  <path d="M1146,612L1207,525L1042,536Z" fill="#DDE7E8" stroke="#D5E1E2"/>
  <path d="M189,616L180,697L232,621Z" fill="#EEF3F3" stroke="#D5E1E2"/>
  <path d="M296,870L250,992L381,912Z" fill="#EEF3F3" stroke="#D5E1E2"/>
  <path d="M448,236L337,283L473,261Z" fill="#DDE7E8" stroke="#D5E1E2"/>
  <path d="M279,394L203,488L282,498Z" fill="#DDE7E8" stroke="#D5E1E2"/>
  <path d="M55,716L137,800L180,697Z" fill="#EEF3F3" stroke="#D5E1E2"/>
  <path d="M143,373L203,488L279,394Z" fill="#DDE7E8" stroke="#D5E1E2"/>
  <path d="M1049,1116L1069,1002L947,1026Z" fill="#DDE7E8" stroke="#D5E1E2"/>
  <path d="M694,1211L834,1163L737,1077Z" fill="#F6F9F9" stroke="#D5E1E2"/>
  <path d="M945,1072L1049,1116L947,1026Z" fill="#E6EDEE" stroke="#D5E1E2"/>
  <path d="M694,1211L737,1077L633,1118Z" fill="#EEF3F3" stroke="#D5E1E2"/>
  <path d="M665,174L529,127L587,231Z" fill="#EEF3F3" stroke="#D5E1E2"/>
  <path d="M776,186L730,123L665,174Z" fill="#DDE7E8" stroke="#D5E1E2"/>
  <path d="M895,88L730,123L776,186Z" fill="#F6F9F9" stroke="#D5E1E2"/>
  <path d="M895,88L829,198L951,266Z" fill="#DDE7E8" stroke="#D5E1E2"/>
  <path d="M1273,596L1207,525L1146,612Z" fill="#DDE7E8" stroke="#D5E1E2"/>
  <path d="M1083,363L1145,361L1062,325Z" fill="#F6F9F9" stroke="#D5E1E2"/>
  <path d="M730,123L670,114L665,174Z" fill="#EEF3F3" stroke="#D5E1E2"/>
  <path d="M448,236L396,178L337,283Z" fill="#EEF3F3" stroke="#D5E1E2"/>
  <path d="M1062,325L1009,216L951,266Z" fill="#EEF3F3" stroke="#D5E1E2"/>
  <path d="M1093,182L1009,216L1062,325Z" fill="#E6EDEE" stroke="#D5E1E2"/>
  <path d="M1207,525L1145,361L1042,536Z" fill="#EEF3F3" stroke="#D5E1E2"/>
  <path d="M1254,808L1256,719L1186,725Z" fill="#EEF3F3" stroke="#D5E1E2"/>
  <path d="M1186,725L1256,719L1146,612Z" fill="#E6EDEE" stroke="#D5E1E2"/>
  <path d="M1069,1002L1174,901L1062,892Z" fill="#E6EDEE" stroke="#D5E1E2"/>
  <path d="M141,890L250,992L296,870Z" fill="#EEF3F3" stroke="#D5E1E2"/>
  <path d="M385,1196L499,1188L505,1118Z" fill="#DDE7E8" stroke="#D5E1E2"/>
  <path d="M259,183L239,332L337,283Z" fill="#DDE7E8" stroke="#D5E1E2"/>
  <path d="M337,283L239,332L279,394Z" fill="#F6F9F9" stroke="#D5E1E2"/>
  <path d="M670,114L529,127L665,174Z" fill="#EEF3F3" stroke="#D5E1E2"/>
  <path d="M559,1232L694,1211L633,1118Z" fill="#E6EDEE" stroke="#D5E1E2"/>
  <path d="M529,127L396,178L448,236Z" fill="#EEF3F3" stroke="#D5E1E2"/>
  <path d="M505,1118L499,1188L566,1096Z" fill="#F6F9F9" stroke="#D5E1E2"/>
  <path d="M355,1143L446,1004L356,1009Z" fill="#E6EDEE" stroke="#D5E1E2"/>
  <path d="M180,697L137,800L279,783Z" fill="#F6F9F9" stroke="#D5E1E2"/>
  <path d="M55,716L180,697L189,616Z" fill="#DDE7E8" stroke="#D5E1E2"/>
  <path d="M1254,808L1186,725L1147,837Z" fill="#F6F9F9" stroke="#D5E1E2"/>
  <path d="M250,992L302,1096L356,1009Z" fill="#DDE7E8" stroke="#D5E1E2"/>
  <path d="M158,1095L302,1096L250,992Z" fill="#DDE7E8" stroke="#D5E1E2"/>
  <path d="M1069,1002L1191,968L1174,901Z" fill="#DDE7E8" stroke="#D5E1E2"/>
  <path d="M1041,1188L1049,1116L945,1072Z" fill="#EEF3F3" stroke="#D5E1E2"/>
  <path d="M1041,1188L945,1072L941,1243Z" fill="#DDE7E8" stroke="#D5E1E2"/>
  <path d="M302,1096L355,1143L356,1009Z" fill="#DDE7E8" stroke="#D5E1E2"/>
  <path d="M1313,906L1254,808L1174,901Z" fill="#E6EDEE" stroke="#D5E1E2"/>
  <path d="M1174,901L1254,808L1147,837Z" fill="#EEF3F3" stroke="#D5E1E2"/>
  <path d="M499,1188L559,1232L566,1096Z" fill="#F6F9F9" stroke="#D5E1E2"/>
  <path d="M427,1266L559,1232L499,1188Z" fill="#EEF3F3" stroke="#D5E1E2"/>
  <path d="M1207,525L1304,435L1145,361Z" fill="#DDE7E8" stroke="#D5E1E2"/>
  <path d="M1256,719L1273,596L1146,612Z" fill="#EEF3F3" stroke="#D5E1E2"/>
  <path d="M1358,617L1273,596L1256,719Z" fill="#DDE7E8" stroke="#D5E1E2"/>
  <path d="M137,800L141,890L296,870Z" fill="#F6F9F9" stroke="#D5E1E2"/>
  <path d="M1185,1082L1191,968L1069,1002Z" fill="#F6F9F9" stroke="#D5E1E2"/>
  <path d="M694,1211L800,1242L834,1163Z" fill="#F6F9F9" stroke="#D5E1E2"/>
  <path d="M734,1290L800,1242L694,1211Z" fill="#F6F9F9" stroke="#D5E1E2"/>
  <path d="M1273,596L1264,509L1207,525Z" fill="#E6EDEE" stroke="#D5E1E2"/>
  <path d="M986,109L895,88L951,266Z" fill="#F6F9F9" stroke="#D5E1E2"/>
  <path d="M730,123L710,3L670,114Z" fill="#E6EDEE" stroke="#D5E1E2"/>
  <path d="M428,67L396,178L529,127Z" fill="#F6F9F9" stroke="#D5E1E2"/>
  <path d="M986,109L951,266L1009,216Z" fill="#F6F9F9" stroke="#D5E1E2"/>
  <path d="M141,890L187,1002L250,992Z" fill="#DDE7E8" stroke="#D5E1E2"/>
  <path d="M306,1228L385,1196L355,1143Z" fill="#E6EDEE" stroke="#D5E1E2"/>
  <path d="M24,571L55,716L189,616Z" fill="#DDE7E8" stroke="#D5E1E2"/>
  <path d="M239,332L143,373L279,394Z" fill="#E6EDEE" stroke="#D5E1E2"/>
  <path d="M171,280L143,373L239,332Z" fill="#F6F9F9" stroke="#D5E1E2"/>
  <path d="M355,1143L385,1196L505,1118Z" fill="#DDE7E8" stroke="#D5E1E2"/>
  <path d="M427,1266L385,1196L306,1228Z" fill="#EEF3F3" stroke="#D5E1E2"/>
  <path d="M1093,182L986,109L1009,216Z" fill="#E6EDEE" stroke="#D5E1E2"/>
  <path d="M1093,182L1062,325L1212,264Z" fill="#EEF3F3" stroke="#D5E1E2"/>
  <path d="M396,178L259,183L337,283Z" fill="#F6F9F9" stroke="#D5E1E2"/>
  <path d="M428,67L378,112L396,178Z" fill="#E6EDEE" stroke="#D5E1E2"/>
  <path d="M428,67L529,127L448,1Z" fill="#EEF3F3" stroke="#D5E1E2"/>
  <path d="M1212,264L1062,325L1145,361Z" fill="#F6F9F9" stroke="#D5E1E2"/>
  <path d="M-5,829L107,924L141,890Z" fill="#E6EDEE" stroke="#D5E1E2"/>
  <path d="M141,890L107,924L187,1002Z" fill="#E6EDEE" stroke="#D5E1E2"/>
  <path d="M24,571L189,616L37,497Z" fill="#E6EDEE" stroke="#D5E1E2"/>
  <path d="M680,1313L734,1290L694,1211Z" fill="#EEF3F3" stroke="#D5E1E2"/>
  <path d="M941,1243L945,1072L834,1163Z" fill="#F6F9F9" stroke="#D5E1E2"/>
  <path d="M680,1313L694,1211L559,1232Z" fill="#E6EDEE" stroke="#D5E1E2"/>
  <path d="M378,112L259,183L396,178Z" fill="#EEF3F3" stroke="#D5E1E2"/>
  <path d="M259,183L171,280L239,332Z" fill="#E6EDEE" stroke="#D5E1E2"/>
  <path d="M306,1228L355,1143L302,1096Z" fill="#EEF3F3" stroke="#D5E1E2"/>
  <path d="M-5,829L141,890L137,800Z" fill="#E6EDEE" stroke="#D5E1E2"/>
  <path d="M1049,1116L1185,1082L1069,1002Z" fill="#EEF3F3" stroke="#D5E1E2"/>
  <path d="M941,1243L834,1163L800,1242Z" fill="#F6F9F9" stroke="#D5E1E2"/>
  <path d="M878,1320L941,1243L800,1242Z" fill="#DDE7E8" stroke="#D5E1E2"/>
  <path d="M529,-39L529,127L670,114Z" fill="#DDE7E8" stroke="#D5E1E2"/>
  <path d="M245,113L196,179L259,183Z" fill="#DDE7E8" stroke="#D5E1E2"/>
  <path d="M832,-20L710,3L730,123Z" fill="#EEF3F3" stroke="#D5E1E2"/>
  <path d="M832,-20L730,123L895,88Z" fill="#F6F9F9" stroke="#D5E1E2"/>
  <path d="M1315,290L1212,264L1145,361Z" fill="#EEF3F3" stroke="#D5E1E2"/>
  <path d="M1184,1184L1185,1082L1049,1116Z" fill="#DDE7E8" stroke="#D5E1E2"/>
  <path d="M1191,968L1313,906L1174,901Z" fill="#E6EDEE" stroke="#D5E1E2"/>
  <path d="M878,1320L989,1268L941,1243Z" fill="#F6F9F9" stroke="#D5E1E2"/>
  <path d="M537,1332L680,1313L559,1232Z" fill="#EEF3F3" stroke="#D5E1E2"/>
  <path d="M1386,538L1264,509L1273,596Z" fill="#DDE7E8" stroke="#D5E1E2"/>
  <path d="M1386,538L1304,435L1264,509Z" fill="#EEF3F3" stroke="#D5E1E2"/>
  <path d="M1264,509L1304,435L1207,525Z" fill="#F6F9F9" stroke="#D5E1E2"/>
  <path d="M55,716L37,772L137,800Z" fill="#E6EDEE" stroke="#D5E1E2"/>
  <path d="M-10,710L37,772L55,716Z" fill="#F6F9F9" stroke="#D5E1E2"/>
  <path d="M385,1196L427,1266L499,1188Z" fill="#DDE7E8" stroke="#D5E1E2"/>
  <path d="M158,1095L250,992L187,1002Z" fill="#E6EDEE" stroke="#D5E1E2"/>
  <path d="M37,497L189,616L203,488Z" fill="#DDE7E8" stroke="#D5E1E2"/>
  <path d="M37,497L203,488L143,373Z" fill="#EEF3F3" stroke="#D5E1E2"/>
  <path d="M34,419L37,497L143,373Z" fill="#EEF3F3" stroke="#D5E1E2"/>
  <path d="M1401,662L1358,617L1256,719Z" fill="#DDE7E8" stroke="#D5E1E2"/>
  <path d="M1401,662L1256,719L1406,795Z" fill="#DDE7E8" stroke="#D5E1E2"/>
  <path d="M1239,226L1216,239L1212,264Z" fill="#EEF3F3" stroke="#D5E1E2"/>
  <path d="M1212,264L1216,239L1093,182Z" fill="#DDE7E8" stroke="#D5E1E2"/>
  <path d="M1093,182L1112,114L986,109Z" fill="#E6EDEE" stroke="#D5E1E2"/>
  <path d="M1249,1036L1313,906L1191,968Z" fill="#E6EDEE" stroke="#D5E1E2"/>
  <path d="M1315,1102L1249,1036L1185,1082Z" fill="#DDE7E8" stroke="#D5E1E2"/>
  <path d="M1185,1082L1249,1036L1191,968Z" fill="#EEF3F3" stroke="#D5E1E2"/>
  <path d="M259,183L196,179L171,280Z" fill="#EEF3F3" stroke="#D5E1E2"/>
  <path d="M171,280L104,294L143,373Z" fill="#F6F9F9" stroke="#D5E1E2"/>
  <path d="M245,113L259,183L378,112Z" fill="#E6EDEE" stroke="#D5E1E2"/>
  <path d="M941,1243L989,1268L1041,1188Z" fill="#E6EDEE" stroke="#D5E1E2"/>
  <path d="M1041,1188L1184,1184L1049,1116Z" fill="#EEF3F3" stroke="#D5E1E2"/>
  <path d="M878,1320L800,1242L734,1290Z" fill="#DDE7E8" stroke="#D5E1E2"/>
  <path d="M73,218L104,294L171,280Z" fill="#E6EDEE" stroke="#D5E1E2"/>
  <path d="M107,924L97,1008L187,1002Z" fill="#F6F9F9" stroke="#D5E1E2"/>
  <path d="M-78,926L97,1008L107,924Z" fill="#DDE7E8" stroke="#D5E1E2"/>
  <path d="M97,1008L158,1095L187,1002Z" fill="#F6F9F9" stroke="#D5E1E2"/>
  <path d="M158,1095L306,1228L302,1096Z" fill="#E6EDEE" stroke="#D5E1E2"/>
  <path d="M428,67L386,35L378,112Z" fill="#EEF3F3" stroke="#D5E1E2"/>
  <path d="M448,1L386,35L428,67Z" fill="#DDE7E8" stroke="#D5E1E2"/>
  <path d="M979,6L832,-20L895,88Z" fill="#E6EDEE" stroke="#D5E1E2"/>
  <path d="M1133,127L1112,114L1093,182Z" fill="#F6F9F9" stroke="#D5E1E2"/>
  <path d="M856,1375L878,1320L734,1290Z" fill="#E6EDEE" stroke="#D5E1E2"/>
  <path d="M979,6L895,88L986,109Z" fill="#E6EDEE" stroke="#D5E1E2"/>
  <path d="M529,-39L448,1L529,127Z" fill="#F6F9F9" stroke="#D5E1E2"/>
  <path d="M427,1266L537,1332L559,1232Z" fill="#E6EDEE" stroke="#D5E1E2"/>
  <path d="M680,1313L739,1365L734,1290Z" fill="#DDE7E8" stroke="#D5E1E2"/>
  <path d="M473,1381L537,1332L427,1266Z" fill="#E6EDEE" stroke="#D5E1E2"/>
  <path d="M104,294L34,419L143,373Z" fill="#DDE7E8" stroke="#D5E1E2"/>
  <path d="M37,497L-4,486L24,571Z" fill="#F6F9F9" stroke="#D5E1E2"/>
  <path d="M1216,239L1133,127L1093,182Z" fill="#EEF3F3" stroke="#D5E1E2"/>
  <path d="M529,-39L670,114L710,3Z" fill="#DDE7E8" stroke="#D5E1E2"/>
  <path d="M37,772L-5,829L137,800Z" fill="#E6EDEE" stroke="#D5E1E2"/>
  <path d="M24,571L-10,710L55,716Z" fill="#E6EDEE" stroke="#D5E1E2"/>
  <path d="M-69,564L-10,710L24,571Z" fill="#DDE7E8" stroke="#D5E1E2"/>
  <path d="M196,179L73,218L171,280Z" fill="#EEF3F3" stroke="#D5E1E2"/>
  <path d="M285,0L245,113L378,112Z" fill="#F6F9F9" stroke="#D5E1E2"/>
  <path d="M1216,239L1239,226L1133,127Z" fill="#DDE7E8" stroke="#D5E1E2"/>
  <path d="M1315,290L1239,226L1212,264Z" fill="#E6EDEE" stroke="#D5E1E2"/>
  <path d="M832,-20L769,-42L710,3Z" fill="#F6F9F9" stroke="#D5E1E2"/>
  <path d="M34,419L-4,486L37,497Z" fill="#DDE7E8" stroke="#D5E1E2"/>
  <path d="M-70,429L-4,486L34,419Z" fill="#EEF3F3" stroke="#D5E1E2"/>
  <path d="M1358,617L1386,538L1273,596Z" fill="#E6EDEE" stroke="#D5E1E2"/>
  <path d="M1304,435L1315,290L1145,361Z" fill="#DDE7E8" stroke="#D5E1E2"/>
  <path d="M1469,601L1386,538L1358,617Z" fill="#EEF3F3" stroke="#D5E1E2"/>
  <path d="M643,1409L739,1365L680,1313Z" fill="#DDE7E8" stroke="#D5E1E2"/>
  <path d="M-10,710L-5,829L37,772Z" fill="#E6EDEE" stroke="#D5E1E2"/>
  <path d="M545,-116L529,-39L710,3Z" fill="#F6F9F9" stroke="#D5E1E2"/>
  <path d="M832,-20L772,-74L769,-42Z" fill="#E6EDEE" stroke="#D5E1E2"/>
  <path d="M1112,114L979,6L986,109Z" fill="#F6F9F9" stroke="#D5E1E2"/>
  <path d="M1051,-38L979,6L1112,114Z" fill="#E6EDEE" stroke="#D5E1E2"/>
  <path d="M1406,795L1256,719L1254,808Z" fill="#DDE7E8" stroke="#D5E1E2"/>
  <path d="M1439,458L1345,361L1304,435Z" fill="#F6F9F9" stroke="#D5E1E2"/>
  <path d="M1086,1311L1041,1188L989,1268Z" fill="#EEF3F3" stroke="#D5E1E2"/>
  <path d="M1086,1311L1184,1184L1041,1188Z" fill="#DDE7E8" stroke="#D5E1E2"/>
  <path d="M1395,893L1406,795L1313,906Z" fill="#EEF3F3" stroke="#D5E1E2"/>
  <path d="M1345,361L1315,290L1304,435Z" fill="#E6EDEE" stroke="#D5E1E2"/>
  <path d="M1203,-1L1112,114L1133,127Z" fill="#E6EDEE" stroke="#D5E1E2"/>
  <path d="M1395,893L1313,906L1356,1035Z" fill="#F6F9F9" stroke="#D5E1E2"/>
  <path d="M1313,906L1406,795L1254,808Z" fill="#EEF3F3" stroke="#D5E1E2"/>
  <path d="M769,-42L772,-74L710,3Z" fill="#EEF3F3" stroke="#D5E1E2"/>
  <path d="M904,-128L772,-74L832,-20Z" fill="#F6F9F9" stroke="#D5E1E2"/>
  <path d="M992,1410L1032,1377L989,1268Z" fill="#DDE7E8" stroke="#D5E1E2"/>
  <path d="M739,1365L856,1375L734,1290Z" fill="#E6EDEE" stroke="#D5E1E2"/>
  <path d="M97,1008L67,1067L158,1095Z" fill="#DDE7E8" stroke="#D5E1E2"/>
  <path d="M191,1270L306,1300L306,1228Z" fill="#F6F9F9" stroke="#D5E1E2"/>
  <path d="M-56,1045L67,1067L97,1008Z" fill="#E6EDEE" stroke="#D5E1E2"/>
  <path d="M306,1228L306,1300L427,1266Z" fill="#E6EDEE" stroke="#D5E1E2"/>
  <path d="M537,1332L643,1409L680,1313Z" fill="#F6F9F9" stroke="#D5E1E2"/>
  <path d="M124,1201L306,1228L158,1095Z" fill="#E6EDEE" stroke="#D5E1E2"/>
  <path d="M1356,1035L1313,906L1249,1036Z" fill="#EEF3F3" stroke="#D5E1E2"/>
  <path d="M104,294L-32,313L34,419Z" fill="#F6F9F9" stroke="#D5E1E2"/>
  <path d="M157,63L73,218L196,179Z" fill="#E6EDEE" stroke="#D5E1E2"/>
  <path d="M739,1365L643,1409L856,1375Z" fill="#DDE7E8" stroke="#D5E1E2"/>
  <path d="M540,1440L643,1409L537,1332Z" fill="#E6EDEE" stroke="#D5E1E2"/>
  <path d="M331,1340L473,1381L427,1266Z" fill="#E6EDEE" stroke="#D5E1E2"/>
  <path d="M-4,486L-69,564L24,571Z" fill="#EEF3F3" stroke="#D5E1E2"/>
  <path d="M-141,793L-78,926L-5,829Z" fill="#F6F9F9" stroke="#D5E1E2"/>
  <path d="M-70,429L-69,564L-4,486Z" fill="#F6F9F9" stroke="#D5E1E2"/>
  <path d="M1032,1377L1086,1311L989,1268Z" fill="#DDE7E8" stroke="#D5E1E2"/>
  <path d="M245,113L157,63L196,179Z" fill="#EEF3F3" stroke="#D5E1E2"/>
  <path d="M386,35L285,0L378,112Z" fill="#E6EDEE" stroke="#D5E1E2"/>
  <path d="M407,-75L285,0L386,35Z" fill="#DDE7E8" stroke="#D5E1E2"/>
  <path d="M407,-75L386,35L448,1Z" fill="#E6EDEE" stroke="#D5E1E2"/>
  <path d="M306,1300L331,1340L427,1266Z" fill="#EEF3F3" stroke="#D5E1E2"/>
  <path d="M305,1371L331,1340L306,1300Z" fill="#DDE7E8" stroke="#D5E1E2"/>
  <path d="M1315,1102L1185,1082L1184,1184Z" fill="#DDE7E8" stroke="#D5E1E2"/>
  <path d="M1315,1102L1356,1035L1249,1036Z" fill="#DDE7E8" stroke="#D5E1E2"/>
  <path d="M1366,1103L1315,1102L1303,1195Z" fill="#E6EDEE" stroke="#D5E1E2"/>
  <path d="M1406,795L1478,691L1401,662Z" fill="#E6EDEE" stroke="#D5E1E2"/>
  <path d="M1469,601L1439,458L1386,538Z" fill="#EEF3F3" stroke="#D5E1E2"/>
  <path d="M1386,538L1439,458L1304,435Z" fill="#DDE7E8" stroke="#D5E1E2"/>
  <path d="M1395,893L1450,801L1406,795Z" fill="#EEF3F3" stroke="#D5E1E2"/>
  <path d="M1467,912L1450,801L1395,893Z" fill="#F6F9F9" stroke="#D5E1E2"/>
  <path d="M1469,601L1358,617L1401,662Z" fill="#E6EDEE" stroke="#D5E1E2"/>
  <path d="M1345,361L1411,283L1315,290Z" fill="#EEF3F3" stroke="#D5E1E2"/>
  <path d="M466,-106L407,-75L448,1Z" fill="#EEF3F3" stroke="#D5E1E2"/>
  <path d="M466,-106L448,1L529,-39Z" fill="#EEF3F3" stroke="#D5E1E2"/>
  <path d="M67,1067L124,1201L158,1095Z" fill="#E6EDEE" stroke="#D5E1E2"/>
  <path d="M707,-141L545,-116L710,3Z" fill="#F6F9F9" stroke="#D5E1E2"/>
  <path d="M1203,-1L1051,-38L1112,114Z" fill="#DDE7E8" stroke="#D5E1E2"/>
  <path d="M979,6L904,-128L832,-20Z" fill="#E6EDEE" stroke="#D5E1E2"/>
  <path d="M772,-74L707,-141L710,3Z" fill="#E6EDEE" stroke="#D5E1E2"/>
  <path d="M1264,116L1133,127L1239,226Z" fill="#E6EDEE" stroke="#D5E1E2"/>
  <path d="M1478,691L1469,601L1401,662Z" fill="#F6F9F9" stroke="#D5E1E2"/>
  <path d="M124,1201L191,1270L306,1228Z" fill="#F6F9F9" stroke="#D5E1E2"/>
  <path d="M-32,313L-70,429L34,419Z" fill="#DDE7E8" stroke="#D5E1E2"/>
  <path d="M1363,131L1239,226L1315,290Z" fill="#E6EDEE" stroke="#D5E1E2"/>
  <path d="M1363,131L1264,116L1239,226Z" fill="#DDE7E8" stroke="#D5E1E2"/>
  <path d="M545,-116L466,-106L529,-39Z" fill="#EEF3F3" stroke="#D5E1E2"/>
  <path d="M156,35L157,63L245,113Z" fill="#DDE7E8" stroke="#D5E1E2"/>
  <path d="M-19,232L-32,313L104,294Z" fill="#F6F9F9" stroke="#D5E1E2"/>
  <path d="M156,35L245,113L285,0Z" fill="#F6F9F9" stroke="#D5E1E2"/>
  <path d="M1450,801L1478,691L1406,795Z" fill="#E6EDEE" stroke="#D5E1E2"/>
  <path d="M-19,232L104,294L73,218Z" fill="#F6F9F9" stroke="#D5E1E2"/>
  <path d="M904,-128L707,-141L772,-74Z" fill="#F6F9F9" stroke="#D5E1E2"/>
  <path d="M147,-145L227,-105L466,-106Z" fill="#DDE7E8" stroke="#D5E1E2"/>
  <path d="M473,1381L540,1440L537,1332Z" fill="#F6F9F9" stroke="#D5E1E2"/>
  <path d="M992,1410L878,1320L856,1375Z" fill="#EEF3F3" stroke="#D5E1E2"/>
  <path d="M334,1433L540,1440L473,1381Z" fill="#E6EDEE" stroke="#D5E1E2"/>
  <path d="M992,1410L989,1268L878,1320Z" fill="#E6EDEE" stroke="#D5E1E2"/>
  <path d="M1303,1195L1315,1102L1184,1184Z" fill="#EEF3F3" stroke="#D5E1E2"/>
  <path d="M992,1410L856,1375L643,1409Z" fill="#EEF3F3" stroke="#D5E1E2"/>
  <path d="M67,1067L49,1214L124,1201Z" fill="#DDE7E8" stroke="#D5E1E2"/>
  <path d="M-5,829L-78,926L107,924Z" fill="#EEF3F3" stroke="#D5E1E2"/>
  <path d="M-141,793L-5,829L-10,710Z" fill="#DDE7E8" stroke="#D5E1E2"/>
  <path d="M-141,793L-10,710L-174,720Z" fill="#EEF3F3" stroke="#D5E1E2"/>
  <path d="M331,1340L334,1433L473,1381Z" fill="#E6EDEE" stroke="#D5E1E2"/>
  <path d="M191,1270L305,1371L306,1300Z" fill="#EEF3F3" stroke="#D5E1E2"/>
  <path d="M946,-149L904,-128L979,6Z" fill="#EEF3F3" stroke="#D5E1E2"/>
  <path d="M540,1440L992,1410L643,1409Z" fill="#DDE7E8" stroke="#D5E1E2"/>
  <path d="M1453,967L1467,912L1395,893Z" fill="#E6EDEE" stroke="#D5E1E2"/>
  <path d="M1315,1102L1366,1103L1356,1035Z" fill="#EEF3F3" stroke="#D5E1E2"/>
  <path d="M1185,1302L1184,1184L1086,1311Z" fill="#DDE7E8" stroke="#D5E1E2"/>
  <path d="M1185,1302L1086,1311L1156,1407Z" fill="#F6F9F9" stroke="#D5E1E2"/>
  <path d="M-74,125L-19,232L73,218Z" fill="#EEF3F3" stroke="#D5E1E2"/>
  <path d="M227,-105L156,35L285,0Z" fill="#E6EDEE" stroke="#D5E1E2"/>
  <path d="M65,62L156,35L82,-39Z" fill="#F6F9F9" stroke="#D5E1E2"/>
  <path d="M1450,339L1411,283L1345,361Z" fill="#DDE7E8" stroke="#D5E1E2"/>
  <path d="M1450,339L1345,361L1439,458Z" fill="#DDE7E8" stroke="#D5E1E2"/>
  <path d="M1156,1407L1086,1311L1032,1377Z" fill="#EEF3F3" stroke="#D5E1E2"/>
  <path d="M1185,1302L1303,1195L1184,1184Z" fill="#EEF3F3" stroke="#D5E1E2"/>
  <path d="M65,62L73,218L157,63Z" fill="#DDE7E8" stroke="#D5E1E2"/>
  <path d="M-175,535L-69,564L-70,429Z" fill="#DDE7E8" stroke="#D5E1E2"/>
  <path d="M1453,967L1395,893L1356,1035Z" fill="#DDE7E8" stroke="#D5E1E2"/>
  <path d="M1450,801L1569,775L1478,691Z" fill="#EEF3F3" stroke="#D5E1E2"/>
  <path d="M1509,415L1439,458L1538,525Z" fill="#EEF3F3" stroke="#D5E1E2"/>
  <path d="M1509,415L1450,339L1439,458Z" fill="#E6EDEE" stroke="#D5E1E2"/>
  <path d="M1446,1136L1453,967L1356,1035Z" fill="#E6EDEE" stroke="#D5E1E2"/>
  <path d="M1051,-38L946,-149L979,6Z" fill="#EEF3F3" stroke="#D5E1E2"/>
  <path d="M1264,116L1203,-1L1133,127Z" fill="#EEF3F3" stroke="#D5E1E2"/>
  <path d="M1247,15L1203,-1L1264,116Z" fill="#F6F9F9" stroke="#D5E1E2"/>
  <path d="M-78,926L-56,1045L97,1008Z" fill="#EEF3F3" stroke="#D5E1E2"/>
  <path d="M124,1201L44,1263L191,1270Z" fill="#F6F9F9" stroke="#D5E1E2"/>
  <path d="M-174,720L-10,710L-69,564Z" fill="#F6F9F9" stroke="#D5E1E2"/>
  <path d="M-78,926L-161,1045L-56,1045Z" fill="#DDE7E8" stroke="#D5E1E2"/>
  <path d="M-175,535L-154,567L-69,564Z" fill="#DDE7E8" stroke="#D5E1E2"/>
  <path d="M-97,288L-70,429L-32,313Z" fill="#DDE7E8" stroke="#D5E1E2"/>
  <path d="M131,1408L334,1433L305,1371Z" fill="#EEF3F3" stroke="#D5E1E2"/>
  <path d="M-68,1121L49,1214L67,1067Z" fill="#DDE7E8" stroke="#D5E1E2"/>
  <path d="M904,-128L946,-149L707,-141Z" fill="#E6EDEE" stroke="#D5E1E2"/>
  <path d="M1093,-92L946,-149L1051,-38Z" fill="#EEF3F3" stroke="#D5E1E2"/>
  <path d="M1203,-1L1093,-92L1051,-38Z" fill="#DDE7E8" stroke="#D5E1E2"/>
  <path d="M1203,-1L1131,-145L1093,-92Z" fill="#EEF3F3" stroke="#D5E1E2"/>
  <path d="M1352,-27L1247,15L1264,116Z" fill="#EEF3F3" stroke="#D5E1E2"/>
  <path d="M1363,131L1315,290L1413,183Z" fill="#EEF3F3" stroke="#D5E1E2"/>
  <path d="M131,1408L305,1371L191,1270Z" fill="#DDE7E8" stroke="#D5E1E2"/>
  <path d="M305,1371L334,1433L331,1340Z" fill="#DDE7E8" stroke="#D5E1E2"/>
  <path d="M1413,183L1315,290L1411,283Z" fill="#E6EDEE" stroke="#D5E1E2"/>
  <path d="M156,35L65,62L157,63Z" fill="#F6F9F9" stroke="#D5E1E2"/>
  <path d="M227,-105L285,0L407,-75Z" fill="#DDE7E8" stroke="#D5E1E2"/>
  <path d="M1501,229L1413,183L1411,283Z" fill="#DDE7E8" stroke="#D5E1E2"/>
  <path d="M1538,525L1439,458L1469,601Z" fill="#F6F9F9" stroke="#D5E1E2"/>
  <path d="M1538,525L1469,601L1549,579Z" fill="#F6F9F9" stroke="#D5E1E2"/>
  <path d="M-141,793L-154,906L-78,926Z" fill="#E6EDEE" stroke="#D5E1E2"/>
  <path d="M-154,567L-174,720L-69,564Z" fill="#E6EDEE" stroke="#D5E1E2"/>
  <path d="M1549,579L1469,601L1478,691Z" fill="#DDE7E8" stroke="#D5E1E2"/>
  <path d="M-19,232L-97,288L-32,313Z" fill="#E6EDEE" stroke="#D5E1E2"/>
  <path d="M-166,204L-97,288L-19,232Z" fill="#EEF3F3" stroke="#D5E1E2"/>
  <path d="M1619,676L1549,579L1478,691Z" fill="#EEF3F3" stroke="#D5E1E2"/>
  <path d="M1501,229L1411,283L1450,339Z" fill="#DDE7E8" stroke="#D5E1E2"/>
  <path d="M-154,567L-175,535L-174,720Z" fill="#E6EDEE" stroke="#D5E1E2"/>
  <path d="M-156,389L-175,535L-70,429Z" fill="#DDE7E8" stroke="#D5E1E2"/>
  <path d="M-44,1224L44,1263L49,1214Z" fill="#EEF3F3" stroke="#D5E1E2"/>
  <path d="M-174,720L-154,906L-141,793Z" fill="#E6EDEE" stroke="#D5E1E2"/>
  <path d="M-97,288L-156,389L-70,429Z" fill="#EEF3F3" stroke="#D5E1E2"/>
  <path d="M49,1214L44,1263L124,1201Z" fill="#E6EDEE" stroke="#D5E1E2"/>
  <path d="M-68,1121L67,1067L-56,1045Z" fill="#EEF3F3" stroke="#D5E1E2"/>
  <path d="M1467,912L1544,865L1450,801Z" fill="#EEF3F3" stroke="#D5E1E2"/>
  <path d="M1564,981L1544,865L1467,912Z" fill="#E6EDEE" stroke="#D5E1E2"/>
  <path d="M1564,981L1467,912L1453,967Z" fill="#E6EDEE" stroke="#D5E1E2"/>
  <path d="M1446,1136L1356,1035L1366,1103Z" fill="#E6EDEE" stroke="#D5E1E2"/>
  <path d="M-161,1045L-68,1121L-56,1045Z" fill="#E6EDEE" stroke="#D5E1E2"/>
  <path d="M1406,1211L1446,1136L1366,1103Z" fill="#F6F9F9" stroke="#D5E1E2"/>
  <path d="M1375,1346L1406,1211L1303,1195Z" fill="#EEF3F3" stroke="#D5E1E2"/>
  <path d="M992,1410L1156,1407L1032,1377Z" fill="#DDE7E8" stroke="#D5E1E2"/>
  <path d="M1671,1443L1156,1407L992,1410Z" fill="#EEF3F3" stroke="#D5E1E2"/>
  <path d="M147,-145L466,-106L545,-116Z" fill="#F6F9F9" stroke="#D5E1E2"/>
  <path d="M466,-106L227,-105L407,-75Z" fill="#DDE7E8" stroke="#D5E1E2"/>
  <path d="M1544,865L1569,775L1450,801Z" fill="#F6F9F9" stroke="#D5E1E2"/>
  <path d="M1406,1211L1366,1103L1303,1195Z" fill="#EEF3F3" stroke="#D5E1E2"/>
  <path d="M1300,1346L1303,1195L1185,1302Z" fill="#E6EDEE" stroke="#D5E1E2"/>
  <path d="M1509,415L1557,383L1450,339Z" fill="#E6EDEE" stroke="#D5E1E2"/>
  <path d="M1538,525L1557,383L1509,415Z" fill="#F6F9F9" stroke="#D5E1E2"/>
  <path d="M1661,539L1557,383L1538,525Z" fill="#EEF3F3" stroke="#D5E1E2"/>
  <path d="M1661,539L1538,525L1549,579Z" fill="#EEF3F3" stroke="#D5E1E2"/>
  <path d="M1301,-97L1131,-145L1203,-1Z" fill="#F6F9F9" stroke="#D5E1E2"/>
  <path d="M1093,-92L1131,-145L946,-149Z" fill="#EEF3F3" stroke="#D5E1E2"/>
  <path d="M1301,-97L1203,-1L1247,15Z" fill="#EEF3F3" stroke="#D5E1E2"/>
  <path d="M1352,-27L1264,116L1363,131Z" fill="#E6EDEE" stroke="#D5E1E2"/>
  <path d="M227,-105L82,-39L156,35Z" fill="#E6EDEE" stroke="#D5E1E2"/>
  <path d="M65,62L-74,125L73,218Z" fill="#DDE7E8" stroke="#D5E1E2"/>
  <path d="M-97,288L-166,204L-156,389Z" fill="#DDE7E8" stroke="#D5E1E2"/>
  <path d="M1492,74L1352,-27L1363,131Z" fill="#E6EDEE" stroke="#D5E1E2"/>
  <path d="M1558,286L1501,229L1450,339Z" fill="#E6EDEE" stroke="#D5E1E2"/>
  <path d="M-131,1133L-44,1224L-68,1121Z" fill="#DDE7E8" stroke="#D5E1E2"/>
  <path d="M-68,1121L-44,1224L49,1214Z" fill="#EEF3F3" stroke="#D5E1E2"/>
  <path d="M64,1365L131,1408L191,1270Z" fill="#DDE7E8" stroke="#D5E1E2"/>
  <path d="M1283,1393L1300,1346L1185,1302Z" fill="#E6EDEE" stroke="#D5E1E2"/>
  <path d="M-73,11L-74,125L65,62Z" fill="#EEF3F3" stroke="#D5E1E2"/>
  <path d="M-154,906L-161,1045L-78,926Z" fill="#F6F9F9" stroke="#D5E1E2"/>
  <path d="M-174,720L-161,1045L-154,906Z" fill="#DDE7E8" stroke="#D5E1E2"/>
  <path d="M64,1365L191,1270L44,1263Z" fill="#DDE7E8" stroke="#D5E1E2"/>
  <path d="M1569,775L1619,676L1478,691Z" fill="#EEF3F3" stroke="#D5E1E2"/>
  <path d="M1659,721L1619,676L1569,775Z" fill="#EEF3F3" stroke="#D5E1E2"/>
  <path d="M1659,721L1569,775L1675,813Z" fill="#E6EDEE" stroke="#D5E1E2"/>
  <path d="M1446,1136L1564,981L1453,967Z" fill="#EEF3F3" stroke="#D5E1E2"/>
  <path d="M1517,1168L1564,981L1446,1136Z" fill="#EEF3F3" stroke="#D5E1E2"/>
  <path d="M-56,1333L64,1365L44,1263Z" fill="#E6EDEE" stroke="#D5E1E2"/>
  <path d="M-44,1224L-56,1333L44,1263Z" fill="#E6EDEE" stroke="#D5E1E2"/>
  <path d="M-161,1045L-131,1133L-68,1121Z" fill="#F6F9F9" stroke="#D5E1E2"/>
  <path d="M1557,383L1558,286L1450,339Z" fill="#F6F9F9" stroke="#D5E1E2"/>
  <path d="M1492,74L1363,131L1413,183Z" fill="#E6EDEE" stroke="#D5E1E2"/>
  <path d="M1659,307L1558,286L1557,383Z" fill="#E6EDEE" stroke="#D5E1E2"/>
  <path d="M1156,1407L1283,1393L1185,1302Z" fill="#E6EDEE" stroke="#D5E1E2"/>
  <path d="M1300,1346L1375,1346L1303,1195Z" fill="#EEF3F3" stroke="#D5E1E2"/>
  <path d="M1406,1211L1517,1168L1446,1136Z" fill="#F6F9F9" stroke="#D5E1E2"/>
  <path d="M1492,74L1413,183L1501,229Z" fill="#DDE7E8" stroke="#D5E1E2"/>
  <path d="M-74,125L-166,204L-19,232Z" fill="#EEF3F3" stroke="#D5E1E2"/>
  <path d="M-156,389L-166,204L-175,535Z" fill="#F6F9F9" stroke="#D5E1E2"/>
  <path d="M-148,122L-166,204L-74,125Z" fill="#EEF3F3" stroke="#D5E1E2"/>
  <path d="M-162,36L-148,122L-74,125Z" fill="#EEF3F3" stroke="#D5E1E2"/>
  <path d="M227,-105L147,-145L82,-39Z" fill="#E6EDEE" stroke="#D5E1E2"/>
  <path d="M707,-141L147,-145L545,-116Z" fill="#E6EDEE" stroke="#D5E1E2"/>
  <path d="M946,-149L147,-145L707,-141Z" fill="#DDE7E8" stroke="#D5E1E2"/>
  <path d="M1619,676L1648,591L1549,579Z" fill="#DDE7E8" stroke="#D5E1E2"/>
  <path d="M1659,721L1648,591L1619,676Z" fill="#DDE7E8" stroke="#D5E1E2"/>
  <path d="M1352,-27L1301,-97L1247,15Z" fill="#E6EDEE" stroke="#D5E1E2"/>
  <path d="M1384,1405L1375,1346L1300,1346Z" fill="#E6EDEE" stroke="#D5E1E2"/>
  <path d="M1675,813L1569,775L1544,865Z" fill="#F6F9F9" stroke="#D5E1E2"/>
  <path d="M1714,940L1675,813L1544,865Z" fill="#DDE7E8" stroke="#D5E1E2"/>
  <path d="M1465,1301L1517,1168L1406,1211Z" fill="#F6F9F9" stroke="#D5E1E2"/>
  <path d="M1648,591L1661,539L1549,579Z" fill="#F6F9F9" stroke="#D5E1E2"/>
  <path d="M1659,721L1661,539L1648,591Z" fill="#DDE7E8" stroke="#D5E1E2"/>
  <path d="M-73,11L65,62L82,-39Z" fill="#F6F9F9" stroke="#D5E1E2"/>
  <path d="M147,-145L57,-114L82,-39Z" fill="#E6EDEE" stroke="#D5E1E2"/>
  <path d="M1595,180L1492,74L1501,229Z" fill="#F6F9F9" stroke="#D5E1E2"/>
  <path d="M1352,-27L1394,-71L1301,-97Z" fill="#E6EDEE" stroke="#D5E1E2"/>
  <path d="M1595,180L1501,229L1558,286Z" fill="#F6F9F9" stroke="#D5E1E2"/>
  <path d="M5,-86L-73,11L82,-39Z" fill="#EEF3F3" stroke="#D5E1E2"/>
  <path d="M1659,721L1708,388L1661,539Z" fill="#DDE7E8" stroke="#D5E1E2"/>
  <path d="M1714,940L1544,865L1564,981Z" fill="#EEF3F3" stroke="#D5E1E2"/>
  <path d="M64,1365L-55,1417L131,1408Z" fill="#EEF3F3" stroke="#D5E1E2"/>
  <path d="M-101,1311L-56,1333L-44,1224Z" fill="#DDE7E8" stroke="#D5E1E2"/>
  <path d="M-131,1133L-145,1224L-44,1224Z" fill="#DDE7E8" stroke="#D5E1E2"/>
  <path d="M-161,1045L-145,1224L-131,1133Z" fill="#EEF3F3" stroke="#D5E1E2"/>
  <path d="M57,-114L5,-86L82,-39Z" fill="#F6F9F9" stroke="#D5E1E2"/>
  <path d="M1375,1346L1465,1301L1406,1211Z" fill="#DDE7E8" stroke="#D5E1E2"/>
  <path d="M1517,1168L1618,1138L1564,981Z" fill="#DDE7E8" stroke="#D5E1E2"/>
  <path d="M1442,1381L1465,1301L1375,1346Z" fill="#DDE7E8" stroke="#D5E1E2"/>
  <path d="M1503,-40L1394,-71L1352,-27Z" fill="#F6F9F9" stroke="#D5E1E2"/>
  <path d="M1301,-97L1511,-109L1131,-145Z" fill="#F6F9F9" stroke="#D5E1E2"/>
  <path d="M-145,1224L-101,1311L-44,1224Z" fill="#E6EDEE" stroke="#D5E1E2"/>
  <path d="M1283,1393L1384,1405L1300,1346Z" fill="#EEF3F3" stroke="#D5E1E2"/>
  <path d="M1156,1407L1384,1405L1283,1393Z" fill="#DDE7E8" stroke="#D5E1E2"/>
  <path d="M1671,1443L1384,1405L1156,1407Z" fill="#F6F9F9" stroke="#D5E1E2"/>
  <path d="M1492,74L1503,-40L1352,-27Z" fill="#EEF3F3" stroke="#D5E1E2"/>
  <path d="M1683,234L1595,180L1558,286Z" fill="#DDE7E8" stroke="#D5E1E2"/>
  <path d="M1708,388L1557,383L1661,539Z" fill="#EEF3F3" stroke="#D5E1E2"/>
  <path d="M1708,388L1659,307L1557,383Z" fill="#F6F9F9" stroke="#D5E1E2"/>
  <path d="M1549,1305L1564,1217L1465,1301Z" fill="#E6EDEE" stroke="#D5E1E2"/>
  <path d="M1465,1301L1564,1217L1517,1168Z" fill="#E6EDEE" stroke="#D5E1E2"/>
  <path d="M1579,-18L1551,75L1649,-16Z" fill="#DDE7E8" stroke="#D5E1E2"/>
  <path d="M1595,180L1551,75L1492,74Z" fill="#EEF3F3" stroke="#D5E1E2"/>
  <path d="M1384,1405L1442,1381L1375,1346Z" fill="#EEF3F3" stroke="#D5E1E2"/>
  <path d="M-148,122L-162,36L-166,204Z" fill="#E6EDEE" stroke="#D5E1E2"/>
  <path d="M-166,204L-162,36L-175,535Z" fill="#E6EDEE" stroke="#D5E1E2"/>
  <path d="M-73,11L-162,36L-74,125Z" fill="#DDE7E8" stroke="#D5E1E2"/>
  <path d="M-132,-89L-162,36L-73,11Z" fill="#E6EDEE" stroke="#D5E1E2"/>
  <path d="M1564,1217L1618,1138L1517,1168Z" fill="#EEF3F3" stroke="#D5E1E2"/>
  <path d="M1675,813L1708,388L1659,721Z" fill="#DDE7E8" stroke="#D5E1E2"/>
  <path d="M1659,307L1683,234L1558,286Z" fill="#DDE7E8" stroke="#D5E1E2"/>
  <path d="M-97,1398L-55,1417L-56,1333Z" fill="#F6F9F9" stroke="#D5E1E2"/>
  <path d="M-56,1333L-55,1417L64,1365Z" fill="#E6EDEE" stroke="#D5E1E2"/>
  <path d="M131,1408L-55,1417L334,1433Z" fill="#EEF3F3" stroke="#D5E1E2"/>
  <path d="M-97,1398L-56,1333L-101,1311Z" fill="#F6F9F9" stroke="#D5E1E2"/>
  <path d="M1675,813L1714,940L1708,388Z" fill="#F6F9F9" stroke="#D5E1E2"/>
  <path d="M1697,1024L1714,940L1564,981Z" fill="#EEF3F3" stroke="#D5E1E2"/>
  <path d="M1579,-18L1503,-40L1551,75Z" fill="#E6EDEE" stroke="#D5E1E2"/>
  <path d="M1551,75L1503,-40L1492,74Z" fill="#EEF3F3" stroke="#D5E1E2"/>
  <path d="M1618,1138L1697,1024L1564,981Z" fill="#EEF3F3" stroke="#D5E1E2"/>
  <path d="M1716,1120L1697,1024L1618,1138Z" fill="#DDE7E8" stroke="#D5E1E2"/>
  <path d="M-145,1224L-97,1398L-101,1311Z" fill="#DDE7E8" stroke="#D5E1E2"/>
  <path d="M1673,1237L1716,1120L1618,1138Z" fill="#F6F9F9" stroke="#D5E1E2"/>
  <path d="M1442,1381L1549,1305L1465,1301Z" fill="#DDE7E8" stroke="#D5E1E2"/>
  <path d="M1708,388L1683,234L1659,307Z" fill="#DDE7E8" stroke="#D5E1E2"/>
  <path d="M5,-86L-132,-89L-73,11Z" fill="#E6EDEE" stroke="#D5E1E2"/>
  <path d="M57,-114L-132,-89L5,-86Z" fill="#E6EDEE" stroke="#D5E1E2"/>
  <path d="M147,-145L-132,-89L57,-114Z" fill="#E6EDEE" stroke="#D5E1E2"/>
  <path d="M1649,-16L1551,75L1705,68Z" fill="#DDE7E8" stroke="#D5E1E2"/>
  <path d="M1503,-40L1511,-109L1394,-71Z" fill="#DDE7E8" stroke="#D5E1E2"/>
  <path d="M1394,-71L1511,-109L1301,-97Z" fill="#EEF3F3" stroke="#D5E1E2"/>
  <path d="M1539,-87L1511,-109L1503,-40Z" fill="#EEF3F3" stroke="#D5E1E2"/>
  <path d="M1673,1237L1618,1138L1564,1217Z" fill="#E6EDEE" stroke="#D5E1E2"/>
  <path d="M1697,1024L1716,1120L1714,940Z" fill="#F6F9F9" stroke="#D5E1E2"/>
  <path d="M1714,940L1705,68L1708,388Z" fill="#E6EDEE" stroke="#D5E1E2"/>
  <path d="M1579,-18L1539,-87L1503,-40Z" fill="#DDE7E8" stroke="#D5E1E2"/>
  <path d="M1549,1305L1673,1237L1564,1217Z" fill="#F6F9F9" stroke="#D5E1E2"/>
  <path d="M1694,1265L1673,1237L1549,1305Z" fill="#F6F9F9" stroke="#D5E1E2"/>
  <path d="M1442,1381L1589,1391L1549,1305Z" fill="#DDE7E8" stroke="#D5E1E2"/>
  <path d="M1384,1405L1589,1391L1442,1381Z" fill="#E6EDEE" stroke="#D5E1E2"/>
  <path d="M1579,-18L1662,-79L1539,-87Z" fill="#EEF3F3" stroke="#D5E1E2"/>
  <path d="M1539,-87L1662,-79L1511,-109Z" fill="#E6EDEE" stroke="#D5E1E2"/>
  <path d="M1705,68L1551,75L1595,180Z" fill="#F6F9F9" stroke="#D5E1E2"/>
  <path d="M1705,68L1595,180L1683,234Z" fill="#F6F9F9" stroke="#D5E1E2"/>
  <path d="M1716,1120L1705,68L1714,940Z" fill="#DDE7E8" stroke="#D5E1E2"/>
  <path d="M1708,388L1705,68L1683,234Z" fill="#F6F9F9" stroke="#D5E1E2"/>
  <path d="M1589,1391L1694,1265L1549,1305Z" fill="#DDE7E8" stroke="#D5E1E2"/>
  <path d="M1673,1237L1694,1265L1716,1120Z" fill="#EEF3F3" stroke="#D5E1E2"/>
  <path d="M1705,68L1662,-79L1649,-16Z" fill="#F6F9F9" stroke="#D5E1E2"/>
  <path d="M1649,-16L1662,-79L1579,-18Z" fill="#DDE7E8" stroke="#D5E1E2"/>
  <path d="M1694,1265L1671,1443L1716,1120Z" fill="#DDE7E8" stroke="#D5E1E2"/>
  <path d="M1589,1391L1671,1443L1694,1265Z" fill="#EEF3F3" stroke="#D5E1E2"/>
  <path d="M1384,1405L1671,1443L1589,1391Z" fill="#F6F9F9" stroke="#D5E1E2"/>
  <path d="M540,1440L1671,1443L992,1410Z" fill="#DDE7E8" stroke="#D5E1E2"/>
</g>
</svg>
