<?xml version="1.0" encoding="utf-8"?>
<svg xmlns="http://www.w3.org/2000/svg" width="1000" height="1000"
     xmlns:xlink="http://www.w3.org/1999/xlink">
  <!-- created with "artbg.py -bg ffffff -ynum 20 -yoffset 100 -colors f8f8f8,f0f0f0,f2f2f2,f4f4f4" -->
   
<defs>
 <linearGradient id="grad0"><stop offset="0%" stop-color="#f8f8f8"/><stop offset="100%" stop-color="#f2f2f2"/></linearGradient>
 <linearGradient id="grad1"><stop offset="0%" stop-color="#f7f7f7"/><stop offset="100%" stop-color="#f2f2f2"/></linearGradient>
 <linearGradient id="grad2"><stop offset="0%" stop-color="#f7f7f7"/><stop offset="100%" stop-color="#f2f2f2"/></linearGradient>
 <linearGradient id="grad3"><stop offset="0%" stop-color="#f6f6f6"/><stop offset="100%" stop-color="#f2f2f2"/></linearGradient>
 <linearGradient id="grad4"><stop offset="0%" stop-color="#f6f6f6"/><stop offset="100%" stop-color="#f2f2f2"/></linearGradient>
 <linearGradient id="grad5"><stop offset="0%" stop-color="#f6f6f6"/><stop offset="100%" stop-color="#f2f2f2"/></linearGradient>
 <linearGradient id="grad6"><stop offset="0%" stop-color="#f5f5f5"/><stop offset="100%" stop-color="#f2f2f2"/></linearGradient>
 <linearGradient id="grad7"><stop offset="0%" stop-color="#f5f5f5"/><stop offset="100%" stop-color="#f2f2f2"/></linearGradient>
 <linearGradient id="grad8"><stop offset="0%" stop-color="#f4f4f4"/><stop offset="100%" stop-color="#f2f2f2"/></linearGradient>
 <linearGradient id="grad9"><stop offset="0%" stop-color="#f4f4f4"/><stop offset="100%" stop-color="#f2f2f2"/></linearGradient>
 <linearGradient id="grad10"><stop offset="0%" stop-color="#f4f4f4"/><stop offset="100%" stop-color="#f3f3f3"/></linearGradient>
 <linearGradient id="grad11"><stop offset="0%" stop-color="#f3f3f3"/><stop offset="100%" stop-color="#f3f3f3"/></linearGradient>
 <linearGradient id="grad12"><stop offset="0%" stop-color="#f3f3f3"/><stop offset="100%" stop-color="#f3f3f3"/></linearGradient>
 <linearGradient id="grad13"><stop offset="0%" stop-color="#f2f2f2"/><stop offset="100%" stop-color="#f3f3f3"/></linearGradient>
 <linearGradient id="grad14"><stop offset="0%" stop-color="#f2f2f2"/><stop offset="100%" stop-color="#f3f3f3"/></linearGradient>
 <linearGradient id="grad15"><stop offset="0%" stop-color="#f2f2f2"/><stop offset="100%" stop-color="#f3f3f3"/></linearGradient>
 <linearGradient id="grad16"><stop offset="0%" stop-color="#f1f1f1"/><stop offset="100%" stop-color="#f3f3f3"/></linearGradient>
 <linearGradient id="grad17"><stop offset="0%" stop-color="#f1f1f1"/><stop offset="100%" stop-color="#f3f3f3"/></linearGradient>
 <linearGradient id="grad18"><stop offset="0%" stop-color="#f0f0f0"/><stop offset="100%" stop-color="#f3f3f3"/></linearGradient>
 <linearGradient id="grad19"><stop offset="0%" stop-color="#f0f0f0"/><stop offset="100%" stop-color="#f3f3f3"/></linearGradient>
</defs>
<g>
<rect x="0" y="0" width="1000" height="1000" fill="#ffffff"/>
<path d="M 0 0.0 C 333.3333333333333,-37.0 666.6666666666666,65.0 1000,65.0 l 0,50.0 C 750.0,115.0 250.0,-55.0 0,50.0z" fill="url(#grad0" stroke="none"/>
<path d="M 0 50.0 C 333.3333333333333,-6.0 666.6666666666666,153.0 1000,153.0 l 0,50.0 C 750.0,203.0 250.0,-10.0 0,100.0z" fill="url(#grad1" stroke="none"/>
<path d="M 0 100.0 C 333.3333333333333,16.0 666.6666666666666,204.0 1000,204.0 l 0,50.0 C 750.0,254.0 250.0,35.0 0,150.0z" fill="url(#grad2" stroke="none"/>
<path d="M 0 150.0 C 333.3333333333333,108.0 666.6666666666666,227.0 1000,227.0 l 0,50.0 C 750.0,277.0 250.0,80.0 0,200.0z" fill="url(#grad3" stroke="none"/>
<path d="M 0 200.0 C 333.3333333333333,115.0 666.6666666666666,304.0 1000,304.0 l 0,50.0 C 750.0,354.0 250.0,124.0 0,250.0z" fill="url(#grad4" stroke="none"/>
<path d="M 0 250.0 C 333.3333333333333,216.0 666.6666666666666,357.0 1000,357.0 l 0,50.0 C 750.0,407.0 250.0,168.0 0,300.0z" fill="url(#grad5" stroke="none"/>
<path d="M 0 300.0 C 333.3333333333333,218.0 666.6666666666666,384.0 1000,384.0 l 0,50.0 C 750.0,434.0 250.0,212.0 0,350.0z" fill="url(#grad6" stroke="none"/>
<path d="M 0 350.0 C 333.3333333333333,283.0 666.6666666666666,420.0 1000,420.0 l 0,50.0 C 750.0,470.0 250.0,256.0 0,400.0z" fill="url(#grad7" stroke="none"/>
<path d="M 0 400.0 C 333.3333333333333,387.0 666.6666666666666,521.0 1000,521.0 l 0,50.0 C 750.0,571.0 250.0,299.0 0,450.0z" fill="url(#grad8" stroke="none"/>
<path d="M 0 450.0 C 333.3333333333333,332.0 666.6666666666666,571.0 1000,571.0 l 0,50.0 C 750.0,621.0 250.0,342.0 0,500.0z" fill="url(#grad9" stroke="none"/>
<path d="M 0 500.0 C 333.3333333333333,449.0 666.6666666666666,626.0 1000,626.0 l 0,50.0 C 750.0,676.0 250.0,385.0 0,550.0z" fill="url(#grad10" stroke="none"/>
<path d="M 0 550.0 C 333.3333333333333,500.0 666.6666666666666,674.0 1000,674.0 l 0,50.0 C 750.0,724.0 250.0,427.0 0,600.0z" fill="url(#grad11" stroke="none"/>
<path d="M 0 600.0 C 333.3333333333333,565.0 666.6666666666666,712.0 1000,712.0 l 0,50.0 C 750.0,762.0 250.0,469.0 0,650.0z" fill="url(#grad12" stroke="none"/>
<path d="M 0 650.0 C 333.3333333333333,583.0 666.6666666666666,748.0 1000,748.0 l 0,50.0 C 750.0,798.0 250.0,510.0 0,700.0z" fill="url(#grad13" stroke="none"/>
<path d="M 0 700.0 C 333.3333333333333,625.0 666.6666666666666,842.0 1000,842.0 l 0,50.0 C 750.0,892.0 250.0,551.0 0,750.0z" fill="url(#grad14" stroke="none"/>
<path d="M 0 750.0 C 333.3333333333333,749.0 666.6666666666666,914.0 1000,914.0 l 0,50.0 C 750.0,964.0 250.0,592.0 0,800.0z" fill="url(#grad15" stroke="none"/>
<path d="M 0 800.0 C 333.3333333333333,669.0 666.6666666666666,953.0 1000,953.0 l 0,50.0 C 750.0,1003.0 250.0,632.0 0,850.0z" fill="url(#grad16" stroke="none"/>
<path d="M 0 850.0 C 333.3333333333333,708.0 666.6666666666666,1010.0 1000,1010.0 l 0,50.0 C 750.0,1060.0 250.0,672.0 0,900.0z" fill="url(#grad17" stroke="none"/>
<path d="M 0 900.0 C 333.3333333333333,724.0 666.6666666666666,1051.0 1000,1051.0 l 0,50.0 C 750.0,1101.0 250.0,711.0 0,950.0z" fill="url(#grad18" stroke="none"/>
<path d="M 0 950.0 C 333.3333333333333,786.0 666.6666666666666,1158.0 1000,1158.0 l 0,50.0 C 750.0,1208.0 250.0,750.0 0,1000.0z" fill="url(#grad19" stroke="none"/>
</g></svg>
